<?xml version="1.0" encoding="utf-8" standalone="no"?>
<!DOCTYPE svg PUBLIC "-//W3C//DTD SVG 1.1//EN"
  "http://www.w3.org/Graphics/SVG/1.1/DTD/svg11.dtd">
<svg xmlns:xlink="http://www.w3.org/1999/xlink" width="449.28pt" height="334.08pt" viewBox="0 0 449.28 334.08" xmlns="http://www.w3.org/2000/svg" version="1.1">
 <metadata>
  <rdf:RDF xmlns:dc="http://purl.org/dc/elements/1.1/" xmlns:cc="http://creativecommons.org/ns#" xmlns:rdf="http://www.w3.org/1999/02/22-rdf-syntax-ns#">
   <cc:Work>
    <dc:type rdf:resource="http://purl.org/dc/dcmitype/StillImage"/>
    <dc:date>2025-03-03T21:31:18.532726</dc:date>
    <dc:format>image/svg+xml</dc:format>
    <dc:creator>
     <cc:Agent>
      <dc:title>Matplotlib v3.10.1, https://matplotlib.org/</dc:title>
     </cc:Agent>
    </dc:creator>
   </cc:Work>
  </rdf:RDF>
 </metadata>
 <defs>
  <style type="text/css">*{stroke-linejoin: round; stroke-linecap: butt}</style>
 </defs>
 <g id="figure_1">
  <g id="patch_1">
   <path d="M 0 334.08 
L 449.28 334.08 
L 449.28 0 
L 0 0 
z
" style="fill: #ffffff"/>
  </g>
  <g id="axes_1">
   <g id="patch_2">
    <path d="M 63.29375 292.6525 
L 442.08 292.6525 
L 442.08 7.2 
L 63.29375 7.2 
z
" style="fill: #ffffff"/>
   </g>
   <g id="matplotlib.axis_1">
    <g id="xtick_1">
     <g id="line2d_1">
      <path d="M 222.915563 292.6525 
L 222.915563 7.2 
" clip-path="url(#p6afee51fda)" style="fill: none; stroke: #b0b0b0; stroke-width: 0.8; stroke-linecap: square"/>
     </g>
     <g id="line2d_2">
      <defs>
       <path id="mc90f229077" d="M 0 0 
L 0 3.5 
" style="stroke: #000000; stroke-width: 0.8"/>
      </defs>
      <g>
       <use xlink:href="#mc90f229077" x="222.915563" y="292.6525" style="fill-opacity: 0; stroke: #000000; stroke-width: 0.8"/>
      </g>
     </g>
     <g id="text_1">
      <!-- $\mathdefault{10^{1}}$ -->
      <g transform="translate(212.355563 308.770625) scale(0.12 -0.12)">
       <defs>
        <path id="DejaVuSerif-31" d="M 909 0 
L 909 331 
L 1722 331 
L 1722 4213 
L 781 3603 
L 781 4013 
L 1919 4750 
L 2350 4750 
L 2350 331 
L 3163 331 
L 3163 0 
L 909 0 
z
" transform="scale(0.015625)"/>
        <path id="DejaVuSerif-30" d="M 2034 219 
Q 2513 219 2750 744 
Q 2988 1269 2988 2328 
Q 2988 3391 2750 3916 
Q 2513 4441 2034 4441 
Q 1556 4441 1318 3916 
Q 1081 3391 1081 2328 
Q 1081 1269 1318 744 
Q 1556 219 2034 219 
z
M 2034 -91 
Q 1275 -91 848 546 
Q 422 1184 422 2328 
Q 422 3475 848 4112 
Q 1275 4750 2034 4750 
Q 2797 4750 3222 4112 
Q 3647 3475 3647 2328 
Q 3647 1184 3222 546 
Q 2797 -91 2034 -91 
z
" transform="scale(0.015625)"/>
       </defs>
       <use xlink:href="#DejaVuSerif-31" transform="translate(0 0.7125)"/>
       <use xlink:href="#DejaVuSerif-30" transform="translate(63.623047 0.7125)"/>
       <use xlink:href="#DejaVuSerif-31" transform="translate(128.154453 37.046875) scale(0.7)"/>
      </g>
     </g>
    </g>
    <g id="xtick_2">
     <g id="line2d_3">
      <path d="M 426.649994 292.6525 
L 426.649994 7.2 
" clip-path="url(#p6afee51fda)" style="fill: none; stroke: #b0b0b0; stroke-width: 0.8; stroke-linecap: square"/>
     </g>
     <g id="line2d_4">
      <g>
       <use xlink:href="#mc90f229077" x="426.649994" y="292.6525" style="fill-opacity: 0; stroke: #000000; stroke-width: 0.8"/>
      </g>
     </g>
     <g id="text_2">
      <!-- $\mathdefault{10^{2}}$ -->
      <g transform="translate(416.089994 308.770625) scale(0.12 -0.12)">
       <defs>
        <path id="DejaVuSerif-32" d="M 819 3553 
L 469 3553 
L 469 4384 
Q 803 4563 1142 4656 
Q 1481 4750 1806 4750 
Q 2534 4750 2956 4397 
Q 3378 4044 3378 3438 
Q 3378 2753 2422 1800 
Q 2347 1728 2309 1691 
L 1131 513 
L 3078 513 
L 3078 1088 
L 3444 1088 
L 3444 0 
L 434 0 
L 434 341 
L 1850 1753 
Q 2319 2222 2519 2614 
Q 2719 3006 2719 3438 
Q 2719 3909 2473 4175 
Q 2228 4441 1797 4441 
Q 1350 4441 1106 4219 
Q 863 3997 819 3553 
z
" transform="scale(0.015625)"/>
       </defs>
       <use xlink:href="#DejaVuSerif-31" transform="translate(0 0.7125)"/>
       <use xlink:href="#DejaVuSerif-30" transform="translate(63.623047 0.7125)"/>
       <use xlink:href="#DejaVuSerif-32" transform="translate(128.154453 37.046875) scale(0.7)"/>
      </g>
     </g>
    </g>
    <g id="xtick_3">
     <g id="line2d_5">
      <defs>
       <path id="m94aa440dae" d="M 0 0 
L 0 2 
" style="stroke: #000000; stroke-width: 0.6"/>
      </defs>
      <g>
       <use xlink:href="#m94aa440dae" x="80.511307" y="292.6525" style="fill-opacity: 0; stroke: #000000; stroke-width: 0.6"/>
      </g>
     </g>
    </g>
    <g id="xtick_4">
     <g id="line2d_6">
      <g>
       <use xlink:href="#m94aa440dae" x="116.387159" y="292.6525" style="fill-opacity: 0; stroke: #000000; stroke-width: 0.6"/>
      </g>
     </g>
    </g>
    <g id="xtick_5">
     <g id="line2d_7">
      <g>
       <use xlink:href="#m94aa440dae" x="141.841482" y="292.6525" style="fill-opacity: 0; stroke: #000000; stroke-width: 0.6"/>
      </g>
     </g>
    </g>
    <g id="xtick_6">
     <g id="line2d_8">
      <g>
       <use xlink:href="#m94aa440dae" x="161.585388" y="292.6525" style="fill-opacity: 0; stroke: #000000; stroke-width: 0.6"/>
      </g>
     </g>
    </g>
    <g id="xtick_7">
     <g id="line2d_9">
      <g>
       <use xlink:href="#m94aa440dae" x="177.717334" y="292.6525" style="fill-opacity: 0; stroke: #000000; stroke-width: 0.6"/>
      </g>
     </g>
    </g>
    <g id="xtick_8">
     <g id="line2d_10">
      <g>
       <use xlink:href="#m94aa440dae" x="191.3567" y="292.6525" style="fill-opacity: 0; stroke: #000000; stroke-width: 0.6"/>
      </g>
     </g>
    </g>
    <g id="xtick_9">
     <g id="line2d_11">
      <g>
       <use xlink:href="#m94aa440dae" x="203.171656" y="292.6525" style="fill-opacity: 0; stroke: #000000; stroke-width: 0.6"/>
      </g>
     </g>
    </g>
    <g id="xtick_10">
     <g id="line2d_12">
      <g>
       <use xlink:href="#m94aa440dae" x="213.593187" y="292.6525" style="fill-opacity: 0; stroke: #000000; stroke-width: 0.6"/>
      </g>
     </g>
    </g>
    <g id="xtick_11">
     <g id="line2d_13">
      <g>
       <use xlink:href="#m94aa440dae" x="284.245738" y="292.6525" style="fill-opacity: 0; stroke: #000000; stroke-width: 0.6"/>
      </g>
     </g>
    </g>
    <g id="xtick_12">
     <g id="line2d_14">
      <g>
       <use xlink:href="#m94aa440dae" x="320.12159" y="292.6525" style="fill-opacity: 0; stroke: #000000; stroke-width: 0.6"/>
      </g>
     </g>
    </g>
    <g id="xtick_13">
     <g id="line2d_15">
      <g>
       <use xlink:href="#m94aa440dae" x="345.575912" y="292.6525" style="fill-opacity: 0; stroke: #000000; stroke-width: 0.6"/>
      </g>
     </g>
    </g>
    <g id="xtick_14">
     <g id="line2d_16">
      <g>
       <use xlink:href="#m94aa440dae" x="365.319819" y="292.6525" style="fill-opacity: 0; stroke: #000000; stroke-width: 0.6"/>
      </g>
     </g>
    </g>
    <g id="xtick_15">
     <g id="line2d_17">
      <g>
       <use xlink:href="#m94aa440dae" x="381.451765" y="292.6525" style="fill-opacity: 0; stroke: #000000; stroke-width: 0.6"/>
      </g>
     </g>
    </g>
    <g id="xtick_16">
     <g id="line2d_18">
      <g>
       <use xlink:href="#m94aa440dae" x="395.091131" y="292.6525" style="fill-opacity: 0; stroke: #000000; stroke-width: 0.6"/>
      </g>
     </g>
    </g>
    <g id="xtick_17">
     <g id="line2d_19">
      <g>
       <use xlink:href="#m94aa440dae" x="406.906087" y="292.6525" style="fill-opacity: 0; stroke: #000000; stroke-width: 0.6"/>
      </g>
     </g>
    </g>
    <g id="xtick_18">
     <g id="line2d_20">
      <g>
       <use xlink:href="#m94aa440dae" x="417.327617" y="292.6525" style="fill-opacity: 0; stroke: #000000; stroke-width: 0.6"/>
      </g>
     </g>
    </g>
    <g id="text_3">
     <!-- N -->
     <g transform="translate(247.436875 324.384375) scale(0.12 -0.12)">
      <defs>
       <path id="DejaVuSerif-4e" d="M 313 0 
L 313 331 
L 941 331 
L 941 4331 
L 313 4331 
L 313 4666 
L 1509 4666 
L 4306 984 
L 4306 4331 
L 3681 4331 
L 3681 4666 
L 5319 4666 
L 5319 4331 
L 4691 4331 
L 4691 -91 
L 4313 -91 
L 1325 3841 
L 1325 331 
L 1953 331 
L 1953 0 
L 313 0 
z
" transform="scale(0.015625)"/>
      </defs>
      <use xlink:href="#DejaVuSerif-4e"/>
     </g>
    </g>
   </g>
   <g id="matplotlib.axis_2">
    <g id="ytick_1">
     <g id="line2d_21">
      <path d="M 63.29375 260.441718 
L 442.08 260.441718 
" clip-path="url(#p6afee51fda)" style="fill: none; stroke: #b0b0b0; stroke-width: 0.8; stroke-linecap: square"/>
     </g>
     <g id="line2d_22">
      <defs>
       <path id="mf0d529cf9c" d="M 0 0 
L -3.5 0 
" style="stroke: #000000; stroke-width: 0.8"/>
      </defs>
      <g>
       <use xlink:href="#mf0d529cf9c" x="63.29375" y="260.441718" style="fill-opacity: 0; stroke: #000000; stroke-width: 0.8"/>
      </g>
     </g>
     <g id="text_4">
      <!-- $\mathdefault{10^{-13}}$ -->
      <g transform="translate(22.81375 265.00078) scale(0.12 -0.12)">
       <defs>
        <path id="DejaVuSerif-2212" d="M 678 2259 
L 4684 2259 
L 4684 1753 
L 678 1753 
L 678 2259 
z
" transform="scale(0.015625)"/>
        <path id="DejaVuSerif-33" d="M 622 4469 
Q 988 4606 1323 4678 
Q 1659 4750 1953 4750 
Q 2638 4750 3022 4454 
Q 3406 4159 3406 3634 
Q 3406 3213 3140 2930 
Q 2875 2647 2388 2547 
Q 2963 2466 3280 2130 
Q 3597 1794 3597 1259 
Q 3597 606 3158 257 
Q 2719 -91 1894 -91 
Q 1528 -91 1179 -12 
Q 831 66 488 225 
L 488 1131 
L 838 1131 
Q 869 681 1141 450 
Q 1413 219 1906 219 
Q 2384 219 2661 495 
Q 2938 772 2938 1253 
Q 2938 1803 2653 2086 
Q 2369 2369 1819 2369 
L 1522 2369 
L 1522 2688 
L 1678 2688 
Q 2225 2688 2498 2914 
Q 2772 3141 2772 3597 
Q 2772 4006 2547 4223 
Q 2322 4441 1900 4441 
Q 1478 4441 1245 4241 
Q 1013 4041 972 3647 
L 622 3647 
L 622 4469 
z
" transform="scale(0.015625)"/>
       </defs>
       <use xlink:href="#DejaVuSerif-31" transform="translate(0 0.7125)"/>
       <use xlink:href="#DejaVuSerif-30" transform="translate(63.623047 0.7125)"/>
       <use xlink:href="#DejaVuSerif-2212" transform="translate(128.154453 37.046875) scale(0.7)"/>
       <use xlink:href="#DejaVuSerif-31" transform="translate(186.806797 37.046875) scale(0.7)"/>
       <use xlink:href="#DejaVuSerif-33" transform="translate(231.34293 37.046875) scale(0.7)"/>
      </g>
     </g>
    </g>
    <g id="ytick_2">
     <g id="line2d_23">
      <path d="M 63.29375 223.477625 
L 442.08 223.477625 
" clip-path="url(#p6afee51fda)" style="fill: none; stroke: #b0b0b0; stroke-width: 0.8; stroke-linecap: square"/>
     </g>
     <g id="line2d_24">
      <g>
       <use xlink:href="#mf0d529cf9c" x="63.29375" y="223.477625" style="fill-opacity: 0; stroke: #000000; stroke-width: 0.8"/>
      </g>
     </g>
     <g id="text_5">
      <!-- $\mathdefault{10^{-11}}$ -->
      <g transform="translate(22.81375 228.036687) scale(0.12 -0.12)">
       <use xlink:href="#DejaVuSerif-31" transform="translate(0 0.7125)"/>
       <use xlink:href="#DejaVuSerif-30" transform="translate(63.623047 0.7125)"/>
       <use xlink:href="#DejaVuSerif-2212" transform="translate(128.154453 37.046875) scale(0.7)"/>
       <use xlink:href="#DejaVuSerif-31" transform="translate(186.806797 37.046875) scale(0.7)"/>
       <use xlink:href="#DejaVuSerif-31" transform="translate(231.34293 37.046875) scale(0.7)"/>
      </g>
     </g>
    </g>
    <g id="ytick_3">
     <g id="line2d_25">
      <path d="M 63.29375 186.513532 
L 442.08 186.513532 
" clip-path="url(#p6afee51fda)" style="fill: none; stroke: #b0b0b0; stroke-width: 0.8; stroke-linecap: square"/>
     </g>
     <g id="line2d_26">
      <g>
       <use xlink:href="#mf0d529cf9c" x="63.29375" y="186.513532" style="fill-opacity: 0; stroke: #000000; stroke-width: 0.8"/>
      </g>
     </g>
     <g id="text_6">
      <!-- $\mathdefault{10^{-9}}$ -->
      <g transform="translate(28.21375 191.072594) scale(0.12 -0.12)">
       <defs>
        <path id="DejaVuSerif-39" d="M 2994 2091 
Q 2784 1856 2512 1740 
Q 2241 1625 1900 1625 
Q 1206 1625 804 2044 
Q 403 2463 403 3188 
Q 403 3897 839 4323 
Q 1275 4750 2003 4750 
Q 2794 4750 3217 4161 
Q 3641 3572 3641 2478 
Q 3641 1253 3137 581 
Q 2634 -91 1722 -91 
Q 1475 -91 1203 -44 
Q 931 3 647 97 
L 647 872 
L 997 872 
Q 1038 556 1241 387 
Q 1444 219 1784 219 
Q 2391 219 2687 676 
Q 2984 1134 2994 2091 
z
M 1978 4441 
Q 1534 4441 1298 4117 
Q 1063 3794 1063 3188 
Q 1063 2581 1298 2256 
Q 1534 1931 1978 1931 
Q 2422 1931 2658 2245 
Q 2894 2559 2894 3150 
Q 2894 3772 2656 4106 
Q 2419 4441 1978 4441 
z
" transform="scale(0.015625)"/>
       </defs>
       <use xlink:href="#DejaVuSerif-31" transform="translate(0 0.7125)"/>
       <use xlink:href="#DejaVuSerif-30" transform="translate(63.623047 0.7125)"/>
       <use xlink:href="#DejaVuSerif-2212" transform="translate(128.154453 37.046875) scale(0.7)"/>
       <use xlink:href="#DejaVuSerif-39" transform="translate(186.806797 37.046875) scale(0.7)"/>
      </g>
     </g>
    </g>
    <g id="ytick_4">
     <g id="line2d_27">
      <path d="M 63.29375 149.549439 
L 442.08 149.549439 
" clip-path="url(#p6afee51fda)" style="fill: none; stroke: #b0b0b0; stroke-width: 0.8; stroke-linecap: square"/>
     </g>
     <g id="line2d_28">
      <g>
       <use xlink:href="#mf0d529cf9c" x="63.29375" y="149.549439" style="fill-opacity: 0; stroke: #000000; stroke-width: 0.8"/>
      </g>
     </g>
     <g id="text_7">
      <!-- $\mathdefault{10^{-7}}$ -->
      <g transform="translate(28.21375 154.108501) scale(0.12 -0.12)">
       <defs>
        <path id="DejaVuSerif-37" d="M 3609 4347 
L 1784 0 
L 1319 0 
L 3059 4153 
L 903 4153 
L 903 3578 
L 538 3578 
L 538 4666 
L 3609 4666 
L 3609 4347 
z
" transform="scale(0.015625)"/>
       </defs>
       <use xlink:href="#DejaVuSerif-31" transform="translate(0 0.63125)"/>
       <use xlink:href="#DejaVuSerif-30" transform="translate(63.623047 0.63125)"/>
       <use xlink:href="#DejaVuSerif-2212" transform="translate(128.154453 36.965625) scale(0.7)"/>
       <use xlink:href="#DejaVuSerif-37" transform="translate(186.806797 36.965625) scale(0.7)"/>
      </g>
     </g>
    </g>
    <g id="ytick_5">
     <g id="line2d_29">
      <path d="M 63.29375 112.585346 
L 442.08 112.585346 
" clip-path="url(#p6afee51fda)" style="fill: none; stroke: #b0b0b0; stroke-width: 0.8; stroke-linecap: square"/>
     </g>
     <g id="line2d_30">
      <g>
       <use xlink:href="#mf0d529cf9c" x="63.29375" y="112.585346" style="fill-opacity: 0; stroke: #000000; stroke-width: 0.8"/>
      </g>
     </g>
     <g id="text_8">
      <!-- $\mathdefault{10^{-5}}$ -->
      <g transform="translate(28.21375 117.144408) scale(0.12 -0.12)">
       <defs>
        <path id="DejaVuSerif-35" d="M 3219 4666 
L 3219 4153 
L 1081 4153 
L 1081 2816 
Q 1244 2928 1461 2984 
Q 1678 3041 1947 3041 
Q 2703 3041 3140 2622 
Q 3578 2203 3578 1478 
Q 3578 738 3136 323 
Q 2694 -91 1894 -91 
Q 1572 -91 1234 -12 
Q 897 66 544 225 
L 544 1131 
L 897 1131 
Q 925 688 1179 453 
Q 1434 219 1894 219 
Q 2388 219 2653 544 
Q 2919 869 2919 1478 
Q 2919 2084 2655 2407 
Q 2391 2731 1894 2731 
Q 1613 2731 1398 2631 
Q 1184 2531 1019 2322 
L 750 2322 
L 750 4666 
L 3219 4666 
z
" transform="scale(0.015625)"/>
       </defs>
       <use xlink:href="#DejaVuSerif-31" transform="translate(0 0.63125)"/>
       <use xlink:href="#DejaVuSerif-30" transform="translate(63.623047 0.63125)"/>
       <use xlink:href="#DejaVuSerif-2212" transform="translate(128.154453 36.965625) scale(0.7)"/>
       <use xlink:href="#DejaVuSerif-35" transform="translate(186.806797 36.965625) scale(0.7)"/>
      </g>
     </g>
    </g>
    <g id="ytick_6">
     <g id="line2d_31">
      <path d="M 63.29375 75.621253 
L 442.08 75.621253 
" clip-path="url(#p6afee51fda)" style="fill: none; stroke: #b0b0b0; stroke-width: 0.8; stroke-linecap: square"/>
     </g>
     <g id="line2d_32">
      <g>
       <use xlink:href="#mf0d529cf9c" x="63.29375" y="75.621253" style="fill-opacity: 0; stroke: #000000; stroke-width: 0.8"/>
      </g>
     </g>
     <g id="text_9">
      <!-- $\mathdefault{10^{-3}}$ -->
      <g transform="translate(28.21375 80.180315) scale(0.12 -0.12)">
       <use xlink:href="#DejaVuSerif-31" transform="translate(0 0.7125)"/>
       <use xlink:href="#DejaVuSerif-30" transform="translate(63.623047 0.7125)"/>
       <use xlink:href="#DejaVuSerif-2212" transform="translate(128.154453 37.046875) scale(0.7)"/>
       <use xlink:href="#DejaVuSerif-33" transform="translate(186.806797 37.046875) scale(0.7)"/>
      </g>
     </g>
    </g>
    <g id="ytick_7">
     <g id="line2d_33">
      <path d="M 63.29375 38.65716 
L 442.08 38.65716 
" clip-path="url(#p6afee51fda)" style="fill: none; stroke: #b0b0b0; stroke-width: 0.8; stroke-linecap: square"/>
     </g>
     <g id="line2d_34">
      <g>
       <use xlink:href="#mf0d529cf9c" x="63.29375" y="38.65716" style="fill-opacity: 0; stroke: #000000; stroke-width: 0.8"/>
      </g>
     </g>
     <g id="text_10">
      <!-- $\mathdefault{10^{-1}}$ -->
      <g transform="translate(28.21375 43.216223) scale(0.12 -0.12)">
       <use xlink:href="#DejaVuSerif-31" transform="translate(0 0.7125)"/>
       <use xlink:href="#DejaVuSerif-30" transform="translate(63.623047 0.7125)"/>
       <use xlink:href="#DejaVuSerif-2212" transform="translate(128.154453 37.046875) scale(0.7)"/>
       <use xlink:href="#DejaVuSerif-31" transform="translate(186.806797 37.046875) scale(0.7)"/>
      </g>
     </g>
    </g>
    <g id="text_11">
     <!-- error -->
     <g transform="translate(16.318125 165.693125) rotate(-90) scale(0.12 -0.12)">
      <defs>
       <path id="DejaVuSerif-65" d="M 3469 1600 
L 991 1600 
L 991 1575 
Q 991 903 1244 561 
Q 1497 219 1991 219 
Q 2369 219 2611 417 
Q 2853 616 2950 1006 
L 3413 1006 
Q 3275 459 2904 184 
Q 2534 -91 1931 -91 
Q 1203 -91 761 389 
Q 319 869 319 1663 
Q 319 2450 753 2931 
Q 1188 3413 1894 3413 
Q 2647 3413 3050 2948 
Q 3453 2484 3469 1600 
z
M 2791 1931 
Q 2772 2513 2545 2808 
Q 2319 3103 1894 3103 
Q 1497 3103 1269 2806 
Q 1041 2509 991 1931 
L 2791 1931 
z
" transform="scale(0.015625)"/>
       <path id="DejaVuSerif-72" d="M 3059 3328 
L 3059 2497 
L 2728 2497 
Q 2713 2744 2591 2866 
Q 2469 2988 2234 2988 
Q 1809 2988 1582 2694 
Q 1356 2400 1356 1850 
L 1356 331 
L 2022 331 
L 2022 0 
L 263 0 
L 263 331 
L 781 331 
L 781 2994 
L 231 2994 
L 231 3322 
L 1356 3322 
L 1356 2731 
Q 1525 3078 1790 3245 
Q 2056 3413 2438 3413 
Q 2578 3413 2733 3391 
Q 2888 3369 3059 3328 
z
" transform="scale(0.015625)"/>
       <path id="DejaVuSerif-6f" d="M 1925 219 
Q 2388 219 2623 584 
Q 2859 950 2859 1663 
Q 2859 2375 2623 2739 
Q 2388 3103 1925 3103 
Q 1463 3103 1227 2739 
Q 991 2375 991 1663 
Q 991 950 1228 584 
Q 1466 219 1925 219 
z
M 1925 -91 
Q 1200 -91 759 389 
Q 319 869 319 1663 
Q 319 2456 758 2934 
Q 1197 3413 1925 3413 
Q 2653 3413 3092 2934 
Q 3531 2456 3531 1663 
Q 3531 869 3092 389 
Q 2653 -91 1925 -91 
z
" transform="scale(0.015625)"/>
      </defs>
      <use xlink:href="#DejaVuSerif-65"/>
      <use xlink:href="#DejaVuSerif-72" transform="translate(59.179688 0)"/>
      <use xlink:href="#DejaVuSerif-72" transform="translate(106.982422 0)"/>
      <use xlink:href="#DejaVuSerif-6f" transform="translate(154.785156 0)"/>
      <use xlink:href="#DejaVuSerif-72" transform="translate(214.990234 0)"/>
     </g>
    </g>
   </g>
   <g id="line2d_35">
    <defs>
     <path id="mdadd6d1f66" d="M 0 3 
C 0.795609 3 1.55874 2.683901 2.12132 2.12132 
C 2.683901 1.55874 3 0.795609 3 0 
C 3 -0.795609 2.683901 -1.55874 2.12132 -2.12132 
C 1.55874 -2.683901 0.795609 -3 0 -3 
C -0.795609 -3 -1.55874 -2.683901 -2.12132 -2.12132 
C -2.683901 -1.55874 -3 -0.795609 -3 0 
C -3 0.795609 -2.683901 1.55874 -2.12132 2.12132 
C -1.55874 2.683901 -0.795609 3 0 3 
z
" style="stroke: #ff0000"/>
    </defs>
    <g clip-path="url(#p6afee51fda)">
     <use xlink:href="#mdadd6d1f66" x="80.511307" y="20.175114" style="fill-opacity: 0; stroke: #ff0000"/>
    </g>
   </g>
   <g id="line2d_36">
    <g clip-path="url(#p6afee51fda)">
     <use xlink:href="#mdadd6d1f66" x="141.841482" y="34.156097" style="fill-opacity: 0; stroke: #ff0000"/>
    </g>
   </g>
   <g id="line2d_37">
    <g clip-path="url(#p6afee51fda)">
     <use xlink:href="#mdadd6d1f66" x="177.717334" y="34.731876" style="fill-opacity: 0; stroke: #ff0000"/>
    </g>
   </g>
   <g id="line2d_38">
    <g clip-path="url(#p6afee51fda)">
     <use xlink:href="#mdadd6d1f66" x="203.171656" y="63.880095" style="fill-opacity: 0; stroke: #ff0000"/>
    </g>
   </g>
   <g id="line2d_39">
    <g clip-path="url(#p6afee51fda)">
     <use xlink:href="#mdadd6d1f66" x="222.915563" y="66.361989" style="fill-opacity: 0; stroke: #ff0000"/>
    </g>
   </g>
   <g id="line2d_40">
    <g clip-path="url(#p6afee51fda)">
     <use xlink:href="#mdadd6d1f66" x="239.047509" y="101.817314" style="fill-opacity: 0; stroke: #ff0000"/>
    </g>
   </g>
   <g id="line2d_41">
    <g clip-path="url(#p6afee51fda)">
     <use xlink:href="#mdadd6d1f66" x="252.686875" y="105.149598" style="fill-opacity: 0; stroke: #ff0000"/>
    </g>
   </g>
   <g id="line2d_42">
    <g clip-path="url(#p6afee51fda)">
     <use xlink:href="#mdadd6d1f66" x="264.501831" y="145.003233" style="fill-opacity: 0; stroke: #ff0000"/>
    </g>
   </g>
   <g id="line2d_43">
    <g clip-path="url(#p6afee51fda)">
     <use xlink:href="#mdadd6d1f66" x="274.923361" y="148.818765" style="fill-opacity: 0; stroke: #ff0000"/>
    </g>
   </g>
   <g id="line2d_44">
    <g clip-path="url(#p6afee51fda)">
     <use xlink:href="#mdadd6d1f66" x="284.245738" y="192.096553" style="fill-opacity: 0; stroke: #ff0000"/>
    </g>
   </g>
   <g id="line2d_45">
    <g clip-path="url(#p6afee51fda)">
     <use xlink:href="#mdadd6d1f66" x="292.678853" y="196.223612" style="fill-opacity: 0; stroke: #ff0000"/>
    </g>
   </g>
   <g id="line2d_46">
    <g clip-path="url(#p6afee51fda)">
     <use xlink:href="#mdadd6d1f66" x="300.377684" y="242.201385" style="fill-opacity: 0; stroke: #ff0000"/>
    </g>
   </g>
   <g id="line2d_47">
    <g clip-path="url(#p6afee51fda)">
     <use xlink:href="#mdadd6d1f66" x="307.459922" y="246.18234" style="fill-opacity: 0; stroke: #ff0000"/>
    </g>
   </g>
   <g id="line2d_48">
    <g clip-path="url(#p6afee51fda)">
     <use xlink:href="#mdadd6d1f66" x="314.01705" y="277.541418" style="fill-opacity: 0; stroke: #ff0000"/>
    </g>
   </g>
   <g id="line2d_49">
    <g clip-path="url(#p6afee51fda)">
     <use xlink:href="#mdadd6d1f66" x="320.12159" y="271.629126" style="fill-opacity: 0; stroke: #ff0000"/>
    </g>
   </g>
   <g id="line2d_50">
    <g clip-path="url(#p6afee51fda)">
     <use xlink:href="#mdadd6d1f66" x="325.832006" y="270.49251" style="fill-opacity: 0; stroke: #ff0000"/>
    </g>
   </g>
   <g id="line2d_51">
    <g clip-path="url(#p6afee51fda)">
     <use xlink:href="#mdadd6d1f66" x="331.196117" y="273.103339" style="fill-opacity: 0; stroke: #ff0000"/>
    </g>
   </g>
   <g id="line2d_52">
    <g clip-path="url(#p6afee51fda)">
     <use xlink:href="#mdadd6d1f66" x="336.253536" y="279.677386" style="fill-opacity: 0; stroke: #ff0000"/>
    </g>
   </g>
   <g id="line2d_53">
    <g clip-path="url(#p6afee51fda)">
     <use xlink:href="#mdadd6d1f66" x="341.037444" y="262.633361" style="fill-opacity: 0; stroke: #ff0000"/>
    </g>
   </g>
   <g id="line2d_54">
    <g clip-path="url(#p6afee51fda)">
     <use xlink:href="#mdadd6d1f66" x="345.575912" y="272.148382" style="fill-opacity: 0; stroke: #ff0000"/>
    </g>
   </g>
   <g id="line2d_55">
    <g clip-path="url(#p6afee51fda)">
     <use xlink:href="#mdadd6d1f66" x="349.892902" y="276.229437" style="fill-opacity: 0; stroke: #ff0000"/>
    </g>
   </g>
   <g id="line2d_56">
    <g clip-path="url(#p6afee51fda)">
     <use xlink:href="#mdadd6d1f66" x="354.009028" y="272.129218" style="fill-opacity: 0; stroke: #ff0000"/>
    </g>
   </g>
   <g id="line2d_57">
    <g clip-path="url(#p6afee51fda)">
     <use xlink:href="#mdadd6d1f66" x="357.942152" y="260.885707" style="fill-opacity: 0; stroke: #ff0000"/>
    </g>
   </g>
   <g id="line2d_58">
    <g clip-path="url(#p6afee51fda)">
     <use xlink:href="#mdadd6d1f66" x="361.707859" y="257.655548" style="fill-opacity: 0; stroke: #ff0000"/>
    </g>
   </g>
   <g id="line2d_59">
    <g clip-path="url(#p6afee51fda)">
     <use xlink:href="#mdadd6d1f66" x="365.319819" y="263.023227" style="fill-opacity: 0; stroke: #ff0000"/>
    </g>
   </g>
   <g id="line2d_60">
    <g clip-path="url(#p6afee51fda)">
     <use xlink:href="#mdadd6d1f66" x="368.790097" y="262.745377" style="fill-opacity: 0; stroke: #ff0000"/>
    </g>
   </g>
   <g id="line2d_61">
    <g clip-path="url(#p6afee51fda)">
     <use xlink:href="#mdadd6d1f66" x="372.129389" y="263.892171" style="fill-opacity: 0; stroke: #ff0000"/>
    </g>
   </g>
   <g id="line2d_62">
    <g clip-path="url(#p6afee51fda)">
     <use xlink:href="#mdadd6d1f66" x="375.347225" y="266.917156" style="fill-opacity: 0; stroke: #ff0000"/>
    </g>
   </g>
   <g id="line2d_63">
    <g clip-path="url(#p6afee51fda)">
     <use xlink:href="#mdadd6d1f66" x="378.452131" y="264.202873" style="fill-opacity: 0; stroke: #ff0000"/>
    </g>
   </g>
   <g id="line2d_64">
    <g clip-path="url(#p6afee51fda)">
     <use xlink:href="#mdadd6d1f66" x="381.451765" y="255.953747" style="fill-opacity: 0; stroke: #ff0000"/>
    </g>
   </g>
   <g id="line2d_65">
    <g clip-path="url(#p6afee51fda)">
     <use xlink:href="#mdadd6d1f66" x="384.353033" y="254.595442" style="fill-opacity: 0; stroke: #ff0000"/>
    </g>
   </g>
   <g id="line2d_66">
    <g clip-path="url(#p6afee51fda)">
     <use xlink:href="#mdadd6d1f66" x="387.162181" y="263.491423" style="fill-opacity: 0; stroke: #ff0000"/>
    </g>
   </g>
   <g id="line2d_67">
    <g clip-path="url(#p6afee51fda)">
     <use xlink:href="#mdadd6d1f66" x="389.88488" y="254.726629" style="fill-opacity: 0; stroke: #ff0000"/>
    </g>
   </g>
   <g id="line2d_68">
    <g clip-path="url(#p6afee51fda)">
     <use xlink:href="#mdadd6d1f66" x="392.526292" y="269.580054" style="fill-opacity: 0; stroke: #ff0000"/>
    </g>
   </g>
   <g id="line2d_69">
    <g clip-path="url(#p6afee51fda)">
     <use xlink:href="#mdadd6d1f66" x="395.091131" y="262.974209" style="fill-opacity: 0; stroke: #ff0000"/>
    </g>
   </g>
   <g id="line2d_70">
    <g clip-path="url(#p6afee51fda)">
     <use xlink:href="#mdadd6d1f66" x="397.583711" y="266.957189" style="fill-opacity: 0; stroke: #ff0000"/>
    </g>
   </g>
   <g id="line2d_71">
    <g clip-path="url(#p6afee51fda)">
     <use xlink:href="#mdadd6d1f66" x="400.007993" y="257.099037" style="fill-opacity: 0; stroke: #ff0000"/>
    </g>
   </g>
   <g id="line2d_72">
    <g clip-path="url(#p6afee51fda)">
     <use xlink:href="#mdadd6d1f66" x="402.367619" y="258.793759" style="fill-opacity: 0; stroke: #ff0000"/>
    </g>
   </g>
   <g id="line2d_73">
    <g clip-path="url(#p6afee51fda)">
     <use xlink:href="#mdadd6d1f66" x="404.665949" y="251.200205" style="fill-opacity: 0; stroke: #ff0000"/>
    </g>
   </g>
   <g id="line2d_74">
    <g clip-path="url(#p6afee51fda)">
     <use xlink:href="#mdadd6d1f66" x="406.906087" y="252.35924" style="fill-opacity: 0; stroke: #ff0000"/>
    </g>
   </g>
   <g id="line2d_75">
    <g clip-path="url(#p6afee51fda)">
     <use xlink:href="#mdadd6d1f66" x="409.090908" y="254.725536" style="fill-opacity: 0; stroke: #ff0000"/>
    </g>
   </g>
   <g id="line2d_76">
    <g clip-path="url(#p6afee51fda)">
     <use xlink:href="#mdadd6d1f66" x="411.223077" y="257.277283" style="fill-opacity: 0; stroke: #ff0000"/>
    </g>
   </g>
   <g id="line2d_77">
    <g clip-path="url(#p6afee51fda)">
     <use xlink:href="#mdadd6d1f66" x="413.305073" y="255.705442" style="fill-opacity: 0; stroke: #ff0000"/>
    </g>
   </g>
   <g id="line2d_78">
    <g clip-path="url(#p6afee51fda)">
     <use xlink:href="#mdadd6d1f66" x="415.339202" y="258.80102" style="fill-opacity: 0; stroke: #ff0000"/>
    </g>
   </g>
   <g id="line2d_79">
    <g clip-path="url(#p6afee51fda)">
     <use xlink:href="#mdadd6d1f66" x="417.327617" y="255.821114" style="fill-opacity: 0; stroke: #ff0000"/>
    </g>
   </g>
   <g id="line2d_80">
    <g clip-path="url(#p6afee51fda)">
     <use xlink:href="#mdadd6d1f66" x="419.272327" y="256.181107" style="fill-opacity: 0; stroke: #ff0000"/>
    </g>
   </g>
   <g id="line2d_81">
    <g clip-path="url(#p6afee51fda)">
     <use xlink:href="#mdadd6d1f66" x="421.175212" y="255.062587" style="fill-opacity: 0; stroke: #ff0000"/>
    </g>
   </g>
   <g id="line2d_82">
    <g clip-path="url(#p6afee51fda)">
     <use xlink:href="#mdadd6d1f66" x="423.038033" y="252.637473" style="fill-opacity: 0; stroke: #ff0000"/>
    </g>
   </g>
   <g id="line2d_83">
    <g clip-path="url(#p6afee51fda)">
     <use xlink:href="#mdadd6d1f66" x="424.862443" y="247.790792" style="fill-opacity: 0; stroke: #ff0000"/>
    </g>
   </g>
   <g id="patch_3">
    <path d="M 63.29375 292.6525 
L 63.29375 7.2 
" style="fill: none; stroke: #000000; stroke-width: 0.8; stroke-linejoin: miter; stroke-linecap: square"/>
   </g>
   <g id="patch_4">
    <path d="M 442.08 292.6525 
L 442.08 7.2 
" style="fill: none; stroke: #000000; stroke-width: 0.8; stroke-linejoin: miter; stroke-linecap: square"/>
   </g>
   <g id="patch_5">
    <path d="M 63.29375 292.6525 
L 442.08 292.6525 
" style="fill: none; stroke: #000000; stroke-width: 0.8; stroke-linejoin: miter; stroke-linecap: square"/>
   </g>
   <g id="patch_6">
    <path d="M 63.29375 7.2 
L 442.08 7.2 
" style="fill: none; stroke: #000000; stroke-width: 0.8; stroke-linejoin: miter; stroke-linecap: square"/>
   </g>
  </g>
 </g>
 <defs>
  <clipPath id="p6afee51fda">
   <rect x="63.29375" y="7.2" width="378.78625" height="285.4525"/>
  </clipPath>
 </defs>
</svg>