<?xml version="1.0" encoding="utf-8" standalone="no"?>
<!DOCTYPE svg PUBLIC "-//W3C//DTD SVG 1.1//EN"
  "http://www.w3.org/Graphics/SVG/1.1/DTD/svg11.dtd">
<svg xmlns:xlink="http://www.w3.org/1999/xlink" width="564.48pt" height="564.48pt" viewBox="0 0 564.48 564.48" xmlns="http://www.w3.org/2000/svg" version="1.1">
 <metadata>
  <rdf:RDF xmlns:dc="http://purl.org/dc/elements/1.1/" xmlns:cc="http://creativecommons.org/ns#" xmlns:rdf="http://www.w3.org/1999/02/22-rdf-syntax-ns#">
   <cc:Work>
    <dc:type rdf:resource="http://purl.org/dc/dcmitype/StillImage"/>
    <dc:date>2025-04-04T21:18:38.085560</dc:date>
    <dc:format>image/svg+xml</dc:format>
    <dc:creator>
     <cc:Agent>
      <dc:title>Matplotlib v3.10.1, https://matplotlib.org/</dc:title>
     </cc:Agent>
    </dc:creator>
   </cc:Work>
  </rdf:RDF>
 </metadata>
 <defs>
  <style type="text/css">*{stroke-linejoin: round; stroke-linecap: butt}</style>
 </defs>
 <g id="figure_1">
  <g id="patch_1">
   <path d="M 0 564.48 
L 564.48 564.48 
L 564.48 0 
L 0 0 
z
" style="fill: #ffffff"/>
  </g>
  <g id="axes_1">
   <g id="patch_2">
    <path d="M 50.974375 538.66625 
L 543.920625 538.66625 
L 543.920625 11.759062 
L 50.974375 11.759062 
z
" style="fill: #ffffff"/>
   </g>
   <g id="matplotlib.axis_1">
    <g id="xtick_1">
     <g id="line2d_1">
      <defs>
       <path id="m05029acfc7" d="M 0 0 
L 0 3.5 
" style="stroke: #000000; stroke-width: 0.8"/>
      </defs>
      <g>
       <use xlink:href="#m05029acfc7" x="50.974375" y="538.66625" style="fill-opacity: 0; stroke: #000000; stroke-width: 0.8"/>
      </g>
     </g>
     <g id="text_1">
      <!-- −1.00 -->
      <g transform="translate(32.587188 554.784375) scale(0.12 -0.12)">
       <defs>
        <path id="DejaVuSerif-2212" d="M 678 2259 
L 4684 2259 
L 4684 1753 
L 678 1753 
L 678 2259 
z
" transform="scale(0.015625)"/>
        <path id="DejaVuSerif-31" d="M 909 0 
L 909 331 
L 1722 331 
L 1722 4213 
L 781 3603 
L 781 4013 
L 1919 4750 
L 2350 4750 
L 2350 331 
L 3163 331 
L 3163 0 
L 909 0 
z
" transform="scale(0.015625)"/>
        <path id="DejaVuSerif-2e" d="M 603 325 
Q 603 500 722 622 
Q 841 744 1019 744 
Q 1191 744 1312 622 
Q 1434 500 1434 325 
Q 1434 153 1312 31 
Q 1191 -91 1019 -91 
Q 841 -91 722 29 
Q 603 150 603 325 
z
" transform="scale(0.015625)"/>
        <path id="DejaVuSerif-30" d="M 2034 219 
Q 2513 219 2750 744 
Q 2988 1269 2988 2328 
Q 2988 3391 2750 3916 
Q 2513 4441 2034 4441 
Q 1556 4441 1318 3916 
Q 1081 3391 1081 2328 
Q 1081 1269 1318 744 
Q 1556 219 2034 219 
z
M 2034 -91 
Q 1275 -91 848 546 
Q 422 1184 422 2328 
Q 422 3475 848 4112 
Q 1275 4750 2034 4750 
Q 2797 4750 3222 4112 
Q 3647 3475 3647 2328 
Q 3647 1184 3222 546 
Q 2797 -91 2034 -91 
z
" transform="scale(0.015625)"/>
       </defs>
       <use xlink:href="#DejaVuSerif-2212"/>
       <use xlink:href="#DejaVuSerif-31" transform="translate(83.789062 0)"/>
       <use xlink:href="#DejaVuSerif-2e" transform="translate(147.412109 0)"/>
       <use xlink:href="#DejaVuSerif-30" transform="translate(179.199219 0)"/>
       <use xlink:href="#DejaVuSerif-30" transform="translate(242.822266 0)"/>
      </g>
     </g>
    </g>
    <g id="xtick_2">
     <g id="line2d_2">
      <g>
       <use xlink:href="#m05029acfc7" x="112.592656" y="538.66625" style="fill-opacity: 0; stroke: #000000; stroke-width: 0.8"/>
      </g>
     </g>
     <g id="text_2">
      <!-- −0.75 -->
      <g transform="translate(94.205469 554.784375) scale(0.12 -0.12)">
       <defs>
        <path id="DejaVuSerif-37" d="M 3609 4347 
L 1784 0 
L 1319 0 
L 3059 4153 
L 903 4153 
L 903 3578 
L 538 3578 
L 538 4666 
L 3609 4666 
L 3609 4347 
z
" transform="scale(0.015625)"/>
        <path id="DejaVuSerif-35" d="M 3219 4666 
L 3219 4153 
L 1081 4153 
L 1081 2816 
Q 1244 2928 1461 2984 
Q 1678 3041 1947 3041 
Q 2703 3041 3140 2622 
Q 3578 2203 3578 1478 
Q 3578 738 3136 323 
Q 2694 -91 1894 -91 
Q 1572 -91 1234 -12 
Q 897 66 544 225 
L 544 1131 
L 897 1131 
Q 925 688 1179 453 
Q 1434 219 1894 219 
Q 2388 219 2653 544 
Q 2919 869 2919 1478 
Q 2919 2084 2655 2407 
Q 2391 2731 1894 2731 
Q 1613 2731 1398 2631 
Q 1184 2531 1019 2322 
L 750 2322 
L 750 4666 
L 3219 4666 
z
" transform="scale(0.015625)"/>
       </defs>
       <use xlink:href="#DejaVuSerif-2212"/>
       <use xlink:href="#DejaVuSerif-30" transform="translate(83.789062 0)"/>
       <use xlink:href="#DejaVuSerif-2e" transform="translate(147.412109 0)"/>
       <use xlink:href="#DejaVuSerif-37" transform="translate(179.199219 0)"/>
       <use xlink:href="#DejaVuSerif-35" transform="translate(242.822266 0)"/>
      </g>
     </g>
    </g>
    <g id="xtick_3">
     <g id="line2d_3">
      <g>
       <use xlink:href="#m05029acfc7" x="174.210938" y="538.66625" style="fill-opacity: 0; stroke: #000000; stroke-width: 0.8"/>
      </g>
     </g>
     <g id="text_3">
      <!-- −0.50 -->
      <g transform="translate(155.82375 554.784375) scale(0.12 -0.12)">
       <use xlink:href="#DejaVuSerif-2212"/>
       <use xlink:href="#DejaVuSerif-30" transform="translate(83.789062 0)"/>
       <use xlink:href="#DejaVuSerif-2e" transform="translate(147.412109 0)"/>
       <use xlink:href="#DejaVuSerif-35" transform="translate(179.199219 0)"/>
       <use xlink:href="#DejaVuSerif-30" transform="translate(242.822266 0)"/>
      </g>
     </g>
    </g>
    <g id="xtick_4">
     <g id="line2d_4">
      <g>
       <use xlink:href="#m05029acfc7" x="235.829219" y="538.66625" style="fill-opacity: 0; stroke: #000000; stroke-width: 0.8"/>
      </g>
     </g>
     <g id="text_4">
      <!-- −0.25 -->
      <g transform="translate(217.442031 554.784375) scale(0.12 -0.12)">
       <defs>
        <path id="DejaVuSerif-32" d="M 819 3553 
L 469 3553 
L 469 4384 
Q 803 4563 1142 4656 
Q 1481 4750 1806 4750 
Q 2534 4750 2956 4397 
Q 3378 4044 3378 3438 
Q 3378 2753 2422 1800 
Q 2347 1728 2309 1691 
L 1131 513 
L 3078 513 
L 3078 1088 
L 3444 1088 
L 3444 0 
L 434 0 
L 434 341 
L 1850 1753 
Q 2319 2222 2519 2614 
Q 2719 3006 2719 3438 
Q 2719 3909 2473 4175 
Q 2228 4441 1797 4441 
Q 1350 4441 1106 4219 
Q 863 3997 819 3553 
z
" transform="scale(0.015625)"/>
       </defs>
       <use xlink:href="#DejaVuSerif-2212"/>
       <use xlink:href="#DejaVuSerif-30" transform="translate(83.789062 0)"/>
       <use xlink:href="#DejaVuSerif-2e" transform="translate(147.412109 0)"/>
       <use xlink:href="#DejaVuSerif-32" transform="translate(179.199219 0)"/>
       <use xlink:href="#DejaVuSerif-35" transform="translate(242.822266 0)"/>
      </g>
     </g>
    </g>
    <g id="xtick_5">
     <g id="line2d_5">
      <g>
       <use xlink:href="#m05029acfc7" x="297.4475" y="538.66625" style="fill-opacity: 0; stroke: #000000; stroke-width: 0.8"/>
      </g>
     </g>
     <g id="text_5">
      <!-- 0.00 -->
      <g transform="translate(284.088125 554.784375) scale(0.12 -0.12)">
       <use xlink:href="#DejaVuSerif-30"/>
       <use xlink:href="#DejaVuSerif-2e" transform="translate(63.623047 0)"/>
       <use xlink:href="#DejaVuSerif-30" transform="translate(95.410156 0)"/>
       <use xlink:href="#DejaVuSerif-30" transform="translate(159.033203 0)"/>
      </g>
     </g>
    </g>
    <g id="xtick_6">
     <g id="line2d_6">
      <g>
       <use xlink:href="#m05029acfc7" x="359.065781" y="538.66625" style="fill-opacity: 0; stroke: #000000; stroke-width: 0.8"/>
      </g>
     </g>
     <g id="text_6">
      <!-- 0.25 -->
      <g transform="translate(345.706406 554.784375) scale(0.12 -0.12)">
       <use xlink:href="#DejaVuSerif-30"/>
       <use xlink:href="#DejaVuSerif-2e" transform="translate(63.623047 0)"/>
       <use xlink:href="#DejaVuSerif-32" transform="translate(95.410156 0)"/>
       <use xlink:href="#DejaVuSerif-35" transform="translate(159.033203 0)"/>
      </g>
     </g>
    </g>
    <g id="xtick_7">
     <g id="line2d_7">
      <g>
       <use xlink:href="#m05029acfc7" x="420.684063" y="538.66625" style="fill-opacity: 0; stroke: #000000; stroke-width: 0.8"/>
      </g>
     </g>
     <g id="text_7">
      <!-- 0.50 -->
      <g transform="translate(407.324688 554.784375) scale(0.12 -0.12)">
       <use xlink:href="#DejaVuSerif-30"/>
       <use xlink:href="#DejaVuSerif-2e" transform="translate(63.623047 0)"/>
       <use xlink:href="#DejaVuSerif-35" transform="translate(95.410156 0)"/>
       <use xlink:href="#DejaVuSerif-30" transform="translate(159.033203 0)"/>
      </g>
     </g>
    </g>
    <g id="xtick_8">
     <g id="line2d_8">
      <g>
       <use xlink:href="#m05029acfc7" x="482.302344" y="538.66625" style="fill-opacity: 0; stroke: #000000; stroke-width: 0.8"/>
      </g>
     </g>
     <g id="text_8">
      <!-- 0.75 -->
      <g transform="translate(468.942969 554.784375) scale(0.12 -0.12)">
       <use xlink:href="#DejaVuSerif-30"/>
       <use xlink:href="#DejaVuSerif-2e" transform="translate(63.623047 0)"/>
       <use xlink:href="#DejaVuSerif-37" transform="translate(95.410156 0)"/>
       <use xlink:href="#DejaVuSerif-35" transform="translate(159.033203 0)"/>
      </g>
     </g>
    </g>
    <g id="xtick_9">
     <g id="line2d_9">
      <g>
       <use xlink:href="#m05029acfc7" x="543.920625" y="538.66625" style="fill-opacity: 0; stroke: #000000; stroke-width: 0.8"/>
      </g>
     </g>
     <g id="text_9">
      <!-- 1.00 -->
      <g transform="translate(530.56125 554.784375) scale(0.12 -0.12)">
       <use xlink:href="#DejaVuSerif-31"/>
       <use xlink:href="#DejaVuSerif-2e" transform="translate(63.623047 0)"/>
       <use xlink:href="#DejaVuSerif-30" transform="translate(95.410156 0)"/>
       <use xlink:href="#DejaVuSerif-30" transform="translate(159.033203 0)"/>
      </g>
     </g>
    </g>
   </g>
   <g id="matplotlib.axis_2">
    <g id="ytick_1">
     <g id="line2d_10">
      <defs>
       <path id="mf8b7079424" d="M 0 0 
L -3.5 0 
" style="stroke: #000000; stroke-width: 0.8"/>
      </defs>
      <g>
       <use xlink:href="#mf8b7079424" x="50.974375" y="538.66625" style="fill-opacity: 0; stroke: #000000; stroke-width: 0.8"/>
      </g>
     </g>
     <g id="text_10">
      <!-- −1.00 -->
      <g transform="translate(7.2 543.225312) scale(0.12 -0.12)">
       <use xlink:href="#DejaVuSerif-2212"/>
       <use xlink:href="#DejaVuSerif-31" transform="translate(83.789062 0)"/>
       <use xlink:href="#DejaVuSerif-2e" transform="translate(147.412109 0)"/>
       <use xlink:href="#DejaVuSerif-30" transform="translate(179.199219 0)"/>
       <use xlink:href="#DejaVuSerif-30" transform="translate(242.822266 0)"/>
      </g>
     </g>
    </g>
    <g id="ytick_2">
     <g id="line2d_11">
      <g>
       <use xlink:href="#mf8b7079424" x="50.974375" y="472.802852" style="fill-opacity: 0; stroke: #000000; stroke-width: 0.8"/>
      </g>
     </g>
     <g id="text_11">
      <!-- −0.75 -->
      <g transform="translate(7.2 477.361914) scale(0.12 -0.12)">
       <use xlink:href="#DejaVuSerif-2212"/>
       <use xlink:href="#DejaVuSerif-30" transform="translate(83.789062 0)"/>
       <use xlink:href="#DejaVuSerif-2e" transform="translate(147.412109 0)"/>
       <use xlink:href="#DejaVuSerif-37" transform="translate(179.199219 0)"/>
       <use xlink:href="#DejaVuSerif-35" transform="translate(242.822266 0)"/>
      </g>
     </g>
    </g>
    <g id="ytick_3">
     <g id="line2d_12">
      <g>
       <use xlink:href="#mf8b7079424" x="50.974375" y="406.939453" style="fill-opacity: 0; stroke: #000000; stroke-width: 0.8"/>
      </g>
     </g>
     <g id="text_12">
      <!-- −0.50 -->
      <g transform="translate(7.2 411.498516) scale(0.12 -0.12)">
       <use xlink:href="#DejaVuSerif-2212"/>
       <use xlink:href="#DejaVuSerif-30" transform="translate(83.789062 0)"/>
       <use xlink:href="#DejaVuSerif-2e" transform="translate(147.412109 0)"/>
       <use xlink:href="#DejaVuSerif-35" transform="translate(179.199219 0)"/>
       <use xlink:href="#DejaVuSerif-30" transform="translate(242.822266 0)"/>
      </g>
     </g>
    </g>
    <g id="ytick_4">
     <g id="line2d_13">
      <g>
       <use xlink:href="#mf8b7079424" x="50.974375" y="341.076055" style="fill-opacity: 0; stroke: #000000; stroke-width: 0.8"/>
      </g>
     </g>
     <g id="text_13">
      <!-- −0.25 -->
      <g transform="translate(7.2 345.635117) scale(0.12 -0.12)">
       <use xlink:href="#DejaVuSerif-2212"/>
       <use xlink:href="#DejaVuSerif-30" transform="translate(83.789062 0)"/>
       <use xlink:href="#DejaVuSerif-2e" transform="translate(147.412109 0)"/>
       <use xlink:href="#DejaVuSerif-32" transform="translate(179.199219 0)"/>
       <use xlink:href="#DejaVuSerif-35" transform="translate(242.822266 0)"/>
      </g>
     </g>
    </g>
    <g id="ytick_5">
     <g id="line2d_14">
      <g>
       <use xlink:href="#mf8b7079424" x="50.974375" y="275.212656" style="fill-opacity: 0; stroke: #000000; stroke-width: 0.8"/>
      </g>
     </g>
     <g id="text_14">
      <!-- 0.00 -->
      <g transform="translate(17.255625 279.771719) scale(0.12 -0.12)">
       <use xlink:href="#DejaVuSerif-30"/>
       <use xlink:href="#DejaVuSerif-2e" transform="translate(63.623047 0)"/>
       <use xlink:href="#DejaVuSerif-30" transform="translate(95.410156 0)"/>
       <use xlink:href="#DejaVuSerif-30" transform="translate(159.033203 0)"/>
      </g>
     </g>
    </g>
    <g id="ytick_6">
     <g id="line2d_15">
      <g>
       <use xlink:href="#mf8b7079424" x="50.974375" y="209.349258" style="fill-opacity: 0; stroke: #000000; stroke-width: 0.8"/>
      </g>
     </g>
     <g id="text_15">
      <!-- 0.25 -->
      <g transform="translate(17.255625 213.90832) scale(0.12 -0.12)">
       <use xlink:href="#DejaVuSerif-30"/>
       <use xlink:href="#DejaVuSerif-2e" transform="translate(63.623047 0)"/>
       <use xlink:href="#DejaVuSerif-32" transform="translate(95.410156 0)"/>
       <use xlink:href="#DejaVuSerif-35" transform="translate(159.033203 0)"/>
      </g>
     </g>
    </g>
    <g id="ytick_7">
     <g id="line2d_16">
      <g>
       <use xlink:href="#mf8b7079424" x="50.974375" y="143.485859" style="fill-opacity: 0; stroke: #000000; stroke-width: 0.8"/>
      </g>
     </g>
     <g id="text_16">
      <!-- 0.50 -->
      <g transform="translate(17.255625 148.044922) scale(0.12 -0.12)">
       <use xlink:href="#DejaVuSerif-30"/>
       <use xlink:href="#DejaVuSerif-2e" transform="translate(63.623047 0)"/>
       <use xlink:href="#DejaVuSerif-35" transform="translate(95.410156 0)"/>
       <use xlink:href="#DejaVuSerif-30" transform="translate(159.033203 0)"/>
      </g>
     </g>
    </g>
    <g id="ytick_8">
     <g id="line2d_17">
      <g>
       <use xlink:href="#mf8b7079424" x="50.974375" y="77.622461" style="fill-opacity: 0; stroke: #000000; stroke-width: 0.8"/>
      </g>
     </g>
     <g id="text_17">
      <!-- 0.75 -->
      <g transform="translate(17.255625 82.181523) scale(0.12 -0.12)">
       <use xlink:href="#DejaVuSerif-30"/>
       <use xlink:href="#DejaVuSerif-2e" transform="translate(63.623047 0)"/>
       <use xlink:href="#DejaVuSerif-37" transform="translate(95.410156 0)"/>
       <use xlink:href="#DejaVuSerif-35" transform="translate(159.033203 0)"/>
      </g>
     </g>
    </g>
    <g id="ytick_9">
     <g id="line2d_18">
      <g>
       <use xlink:href="#mf8b7079424" x="50.974375" y="11.759062" style="fill-opacity: 0; stroke: #000000; stroke-width: 0.8"/>
      </g>
     </g>
     <g id="text_18">
      <!-- 1.00 -->
      <g transform="translate(17.255625 16.318125) scale(0.12 -0.12)">
       <use xlink:href="#DejaVuSerif-31"/>
       <use xlink:href="#DejaVuSerif-2e" transform="translate(63.623047 0)"/>
       <use xlink:href="#DejaVuSerif-30" transform="translate(95.410156 0)"/>
       <use xlink:href="#DejaVuSerif-30" transform="translate(159.033203 0)"/>
      </g>
     </g>
    </g>
   </g>
   <g id="QuadContourSet_1">
    <path clip-path="url(#pf7381ca902)" style="fill: none; stroke: #440154; stroke-width: 1.5"/>
    <path d="M 110.867513 270.747341 
L 117.814544 279.187708 
L 126.169566 276.652274 
L 129.248076 270.747341 
L 126.169566 267.777943 
L 117.814544 265.880645 
L 110.867513 270.747341 
z
" clip-path="url(#pf7381ca902)" style="fill: none; stroke: #482475; stroke-width: 1.5"/>
    <path d="M 92.630198 288.608602 
L 92.749481 288.740269 
L 101.104502 294.897957 
L 107.90128 297.539232 
L 109.459523 297.965237 
L 117.814544 298.820708 
L 126.169566 298.399067 
L 130.710631 297.539232 
L 134.524587 296.569916 
L 142.879608 292.897512 
L 149.529896 288.608602 
L 151.234629 286.624502 
L 155.855014 279.677971 
L 156.821807 270.747341 
L 153.171581 261.816711 
L 151.234629 259.660486 
L 143.823189 252.886081 
L 142.879608 252.317771 
L 134.524587 248.432037 
L 126.169566 245.807386 
L 117.814544 244.585215 
L 109.459523 245.020244 
L 101.104502 247.613017 
L 93.370665 252.886081 
L 92.749481 253.635425 
L 88.303183 261.816711 
L 86.699265 270.747341 
L 88.000755 279.677971 
L 92.630198 288.608602 
z
M 133.186797 485.082468 
L 134.524587 490.374359 
L 135.93499 494.013099 
L 142.879608 497.629926 
L 151.234629 499.625023 
L 159.58965 499.519109 
L 167.944672 497.367435 
L 174.190285 494.013099 
L 176.299693 491.619755 
L 180.06475 485.082468 
L 179.732492 476.151838 
L 176.299693 471.847873 
L 167.944672 468.02316 
L 159.58965 468.282094 
L 151.234629 470.700671 
L 142.879608 474.459506 
L 139.991943 476.151838 
L 134.524587 483.109676 
L 133.186797 485.082468 
z
M 135.368226 65.342844 
L 142.879608 72.397029 
L 145.49271 74.273475 
L 151.234629 76.225874 
L 159.58965 77.989967 
L 167.944672 78.450291 
L 176.299693 77.095597 
L 182.32012 74.273475 
L 184.654714 70.546868 
L 186.559885 65.342844 
L 184.654714 60.765498 
L 182.078418 56.412214 
L 176.299693 53.037106 
L 167.944672 50.320384 
L 159.58965 49.473249 
L 151.234629 50.388062 
L 142.879608 53.18599 
L 137.32706 56.412214 
L 135.368226 65.342844 
z
M 289.983281 386.845535 
L 293.269989 389.292459 
L 301.625011 394.706401 
L 303.40556 395.776165 
L 309.980032 397.920837 
L 318.335053 400.529765 
L 326.690074 403.160522 
L 331.537782 404.706796 
L 335.045095 405.485246 
L 343.400117 407.25377 
L 351.755138 408.937141 
L 360.110159 410.378033 
L 368.46518 411.241594 
L 376.820201 410.89003 
L 385.175222 407.68951 
L 388.175615 404.706796 
L 387.480145 395.776165 
L 385.175222 392.589776 
L 380.962368 386.845535 
L 376.820201 383.685911 
L 368.950298 377.914905 
L 368.46518 377.677249 
L 360.110159 374.168931 
L 351.755138 371.062419 
L 345.242764 368.984274 
L 343.400117 368.556837 
L 335.045095 367.147347 
L 326.690074 366.26748 
L 318.335053 366.02956 
L 309.980032 366.579457 
L 301.625011 368.110757 
L 298.811084 368.984274 
L 293.269989 372.805007 
L 288.19139 377.914905 
L 289.983281 386.845535 
z
M 289.404284 190.371668 
L 293.269989 194.508191 
L 300.221306 199.302299 
L 301.625011 199.806444 
L 309.980032 201.204105 
L 318.335053 201.218731 
L 326.690074 199.985164 
L 329.068561 199.302299 
L 335.045095 194.823731 
L 338.697897 190.371668 
L 335.226772 181.441038 
L 335.045095 181.310766 
L 326.690074 176.44564 
L 318.335053 172.795275 
L 317.030136 172.510408 
L 309.980032 171.627123 
L 301.625011 171.894099 
L 298.972239 172.510408 
L 293.269989 175.558921 
L 288.267316 181.441038 
L 289.404284 190.371668 
M 476.861663 243.95545 
L 477.080456 244.041828 
L 477.309238 243.95545 
L 477.080456 243.554548 
L 476.861663 243.95545 
" clip-path="url(#pf7381ca902)" style="fill: none; stroke: #414487; stroke-width: 1.5"/>
    <path d="M 75.902266 288.608602 
L 76.039439 288.928236 
L 80.986434 297.539232 
L 84.39446 301.077 
L 92.727937 306.469862 
L 92.749481 306.479737 
L 101.104502 308.948638 
L 109.459523 310.111089 
L 117.814544 310.349821 
L 126.169566 309.83205 
L 134.524587 308.61339 
L 142.879608 306.689502 
L 143.591769 306.469862 
L 151.234629 303.474164 
L 159.58965 299.009504 
L 161.798117 297.539232 
L 167.944672 291.362949 
L 170.231066 288.608602 
L 174.069133 279.677971 
L 174.519634 270.747341 
L 171.760402 261.816711 
L 167.944672 256.29294 
L 165.334565 252.886081 
L 159.58965 248.145776 
L 153.605738 243.95545 
L 151.234629 242.722403 
L 142.879608 239.047571 
L 134.524587 236.132293 
L 130.256922 235.02482 
L 126.169566 234.096589 
L 117.814544 232.91615 
L 109.459523 232.544132 
L 101.104502 233.188037 
L 93.666532 235.02482 
L 92.749481 235.325958 
L 84.39446 240.445018 
L 81.009222 243.95545 
L 76.039439 252.677531 
L 75.952209 252.886081 
L 73.765262 261.816711 
L 73.050798 270.747341 
L 73.693694 279.677971 
L 75.902266 288.608602 
M 107.68052 502.943729 
L 109.459523 504.412002 
L 117.814544 509.778018 
L 122.373224 511.874359 
L 126.169566 513.034542 
L 134.524587 514.853186 
L 142.879608 515.956416 
L 151.234629 516.411225 
L 159.58965 516.221803 
L 167.944672 515.317425 
L 176.299693 513.49346 
L 180.795389 511.874359 
L 184.654714 509.970271 
L 193.009735 503.529818 
L 193.543987 502.943729 
L 198.824706 494.013099 
L 201.364756 486.072757 
L 201.623454 485.082468 
L 202.511694 476.151838 
L 201.924012 467.221208 
L 201.364756 465.092093 
L 198.527475 458.290577 
L 193.009735 452.791445 
L 184.654714 449.64627 
L 180.381291 449.359947 
L 176.299693 449.171157 
L 174.359693 449.359947 
L 167.944672 450.014631 
L 159.58965 451.708061 
L 151.234629 453.908399 
L 142.879608 456.478414 
L 137.653457 458.290577 
L 134.524587 459.651196 
L 126.169566 463.637578 
L 119.224285 467.221208 
L 117.814544 468.299056 
L 109.459523 475.177042 
L 108.358508 476.151838 
L 103.233004 485.082468 
L 102.876015 494.013099 
L 107.68052 502.943729 
M 107.857118 74.273475 
L 109.459523 75.593835 
L 117.814544 81.590136 
L 120.409436 83.204105 
L 126.169566 85.591114 
L 134.524587 88.57856 
L 142.879608 91.126831 
L 146.829221 92.134735 
L 151.234629 93.035017 
L 159.58965 94.382612 
L 167.944672 95.312573 
L 176.299693 95.692684 
L 184.654714 95.296241 
L 193.009735 93.736771 
L 197.185252 92.134735 
L 201.364756 89.593108 
L 207.293969 83.204105 
L 209.719778 77.510568 
L 210.739947 74.273475 
L 211.28343 65.342844 
L 209.719778 57.215379 
L 209.534641 56.412214 
L 204.301308 47.481584 
L 201.364756 44.696448 
L 193.009735 39.205743 
L 191.561345 38.550953 
L 184.654714 36.341806 
L 176.299693 34.646761 
L 167.944672 33.705393 
L 159.58965 33.363425 
L 151.234629 33.543994 
L 142.879608 34.236531 
L 134.524587 35.476931 
L 126.169566 37.349514 
L 122.214974 38.550953 
L 117.814544 40.5721 
L 109.459523 45.778277 
L 107.322646 47.481584 
L 102.292166 56.412214 
L 102.52489 65.342844 
L 107.857118 74.273475 
M 257.252017 386.845535 
L 259.849905 392.527069 
L 261.854732 395.776165 
L 268.204926 399.858001 
L 276.559947 403.54369 
L 279.80041 404.706796 
L 284.914968 405.879212 
L 293.269989 407.642194 
L 301.625011 409.392012 
L 309.980032 411.24885 
L 318.335053 413.267209 
L 319.756815 413.637426 
L 326.690074 415.111844 
L 335.045095 417.05854 
L 343.400117 419.199054 
L 351.755138 421.522685 
L 355.510774 422.568056 
L 360.110159 423.749749 
L 368.46518 425.778798 
L 376.820201 427.678859 
L 385.175222 429.277092 
L 393.530244 430.197946 
L 401.885265 429.733882 
L 410.240286 426.557419 
L 414.578743 422.568056 
L 417.35752 413.637426 
L 415.950677 404.706796 
L 411.811055 395.776165 
L 410.240286 393.661434 
L 405.099782 386.845535 
L 401.885265 383.787376 
L 395.369494 377.914905 
L 393.530244 376.665607 
L 385.175222 371.508668 
L 380.705286 368.984274 
L 376.820201 367.229675 
L 368.46518 363.865931 
L 360.110159 360.853832 
L 357.588121 360.053644 
L 351.755138 358.474554 
L 343.400117 356.538366 
L 335.045095 354.91404 
L 326.690074 353.63253 
L 318.335053 352.749179 
L 309.980032 352.334993 
L 301.625011 352.498019 
L 293.269989 353.38947 
L 284.914968 355.181206 
L 276.559947 358.076918 
L 272.514544 360.053644 
L 268.204926 363.235022 
L 262.178259 368.984274 
L 259.849905 373.388401 
L 257.707999 377.914905 
L 257.252017 386.845535 
z
M 267.748044 199.302299 
L 268.204926 199.913181 
L 276.274283 208.232929 
L 276.559947 208.425502 
L 284.914968 212.663763 
L 293.269989 215.433933 
L 301.625011 217.045026 
L 303.031334 217.163559 
L 309.980032 217.630925 
L 318.335053 217.617186 
L 326.476008 217.163559 
L 326.690074 217.148699 
L 335.045095 216.093385 
L 343.400117 214.63289 
L 351.755138 212.836224 
L 360.110159 210.745879 
L 368.46518 208.358911 
L 368.904491 208.232929 
L 376.820201 201.421157 
L 378.496432 199.302299 
L 376.820201 194.633848 
L 375.761554 190.371668 
L 368.742285 181.441038 
L 368.46518 181.21746 
L 360.110159 174.178884 
L 358.158936 172.510408 
L 351.755138 168.785776 
L 343.400117 164.353279 
L 341.731223 163.579778 
L 335.045095 161.191353 
L 326.690074 158.743131 
L 318.335053 156.822007 
L 309.980032 155.447033 
L 301.625011 154.695163 
L 293.269989 154.73634 
L 284.914968 155.875825 
L 276.559947 158.699696 
L 269.295367 163.579778 
L 268.204926 164.943197 
L 264.138113 172.510408 
L 262.776899 181.441038 
L 263.970051 190.371668 
L 267.748044 199.302299 
z
M 431.534656 235.02482 
L 435.30535 240.144059 
L 437.756787 243.95545 
L 443.660371 250.524654 
L 445.754473 252.886081 
L 452.015392 258.581902 
L 455.890205 261.816711 
L 460.370413 265.058173 
L 468.725434 270.05268 
L 470.412157 270.747341 
L 477.080456 273.217401 
L 485.435477 274.693993 
L 493.790498 274.171347 
L 502.145519 270.82807 
L 502.251042 270.747341 
L 509.74547 261.816711 
L 510.50054 260.033152 
L 512.639888 252.886081 
L 513.28244 243.95545 
L 511.886199 235.02482 
L 510.50054 231.625174 
L 507.547739 226.09419 
L 502.145519 220.399844 
L 497.654809 217.163559 
L 493.790498 215.255293 
L 485.435477 212.545187 
L 477.080456 210.91143 
L 468.725434 210.079402 
L 460.370413 209.924547 
L 452.015392 210.407988 
L 443.660371 211.644977 
L 435.30535 214.020494 
L 429.095499 217.163559 
L 427.555835 226.09419 
L 431.534656 235.02482 
z
" clip-path="url(#pf7381ca902)" style="fill: none; stroke: #355f8d; stroke-width: 1.5"/>
    <path d="M 64.970884 297.539232 
L 67.684417 304.113366 
L 69.043359 306.469862 
L 76.039439 313.472934 
L 79.45198 315.400493 
L 84.39446 317.380307 
L 92.749481 319.262192 
L 101.104502 320.154407 
L 109.459523 320.403332 
L 117.814544 320.181742 
L 126.169566 319.55958 
L 134.524587 318.553122 
L 142.879608 317.151986 
L 150.78037 315.400493 
L 151.234629 315.282959 
L 159.58965 312.618724 
L 167.944672 309.10499 
L 172.894821 306.469862 
L 176.299693 303.952407 
L 183.254789 297.539232 
L 184.654714 295.448353 
L 188.712986 288.608602 
L 191.278893 279.677971 
L 191.573131 270.747341 
L 189.598929 261.816711 
L 184.72575 252.886081 
L 184.654714 252.807069 
L 176.299693 244.415873 
L 175.786403 243.95545 
L 167.944672 239.019625 
L 160.475443 235.02482 
L 159.58965 234.645548 
L 151.234629 231.347458 
L 142.879608 228.536702 
L 134.524587 226.154898 
L 134.264593 226.09419 
L 126.169566 224.297155 
L 117.814544 222.880398 
L 109.459523 221.941967 
L 101.104502 221.575045 
L 92.749481 221.987757 
L 84.39446 223.560192 
L 78.203682 226.09419 
L 76.039439 227.320729 
L 68.676317 235.02482 
L 67.684417 236.807799 
L 64.858744 243.95545 
L 62.923506 252.886081 
L 61.942478 261.816711 
L 61.624524 270.747341 
L 61.924118 279.677971 
L 62.937723 288.608602 
L 64.970884 297.539232 
M 75.883521 56.412214 
L 76.039439 60.500586 
L 76.227895 65.342844 
L 79.14992 74.273475 
L 84.39446 81.229825 
L 86.189957 83.204105 
L 92.749481 87.510814 
L 101.104502 91.72035 
L 102.027172 92.134735 
L 109.459523 94.584596 
L 117.814544 96.973225 
L 126.169566 99.116567 
L 134.371186 101.065365 
L 134.524587 101.096777 
L 142.879608 102.749892 
L 151.234629 104.290842 
L 159.58965 105.720237 
L 167.944672 107.014168 
L 176.299693 108.124877 
L 184.654714 108.976416 
L 193.009735 109.442585 
L 201.364756 109.248649 
L 209.719778 107.759739 
L 218.074799 103.35623 
L 220.224503 101.065365 
L 224.932805 92.134735 
L 226.42982 86.299435 
L 227.029992 83.204105 
L 227.881505 74.273475 
L 227.926318 65.342844 
L 227.112418 56.412214 
L 226.42982 53.09612 
L 225.039029 47.481584 
L 220.671904 38.550953 
L 218.074799 35.504837 
L 210.287912 29.620323 
L 209.719778 29.333288 
L 201.364756 26.291715 
L 193.009735 24.430052 
L 184.654714 23.246507 
L 176.299693 22.505765 
L 167.944672 22.090431 
L 159.58965 21.932016 
L 151.234629 21.995505 
L 142.879608 22.274227 
L 134.524587 22.781024 
L 126.169566 23.548861 
L 117.814544 24.640776 
L 109.459523 26.166687 
L 101.104502 28.316826 
L 97.274394 29.620323 
L 92.749481 31.819609 
L 84.39446 37.643952 
L 83.408744 38.550953 
L 77.901279 47.481584 
L 76.039439 55.656507 
L 75.883521 56.412214 
M 84.042724 511.874359 
L 84.39446 512.204003 
L 92.749481 518.278654 
L 97.797595 520.804989 
L 101.104502 521.954585 
L 109.459523 524.171958 
L 117.814544 525.730413 
L 126.169566 526.82393 
L 134.524587 527.562926 
L 142.879608 528.006249 
L 151.234629 528.177145 
L 159.58965 528.072258 
L 167.944672 527.655568 
L 176.299693 526.831189 
L 184.654714 525.407846 
L 193.009735 523.003743 
L 197.743809 520.804989 
L 201.364756 518.434125 
L 207.459882 511.874359 
L 209.719778 507.887076 
L 211.762256 502.943729 
L 214.17913 494.013099 
L 215.792379 485.082468 
L 216.948842 476.151838 
L 217.805483 467.221208 
L 218.074799 462.779142 
L 218.360084 458.290577 
L 218.542978 449.359947 
L 218.074799 441.676062 
L 217.934549 440.429317 
L 211.643867 431.498686 
L 209.719778 430.765024 
L 201.364756 430.501491 
L 193.850198 431.498686 
L 193.009735 431.587673 
L 184.654714 433.256926 
L 176.299693 435.196144 
L 167.944672 437.350256 
L 159.58965 439.653077 
L 156.972698 440.429317 
L 151.234629 442.164809 
L 142.879608 444.7769 
L 134.524587 447.426507 
L 128.489268 449.359947 
L 126.169566 450.21516 
L 117.814544 453.286996 
L 109.459523 456.449082 
L 104.724251 458.290577 
L 101.104502 460.188132 
L 92.749481 464.872878 
L 89.040662 467.221208 
L 84.39446 472.053561 
L 80.969482 476.151838 
L 77.436622 485.082468 
L 76.771841 494.013099 
L 78.618028 502.943729 
L 84.042724 511.874359 
M 231.827633 404.706796 
L 234.784841 412.330988 
L 236.243642 413.637426 
L 243.139862 415.663591 
L 251.494883 416.292583 
L 259.849905 416.51905 
L 268.204926 416.745288 
L 276.559947 417.10181 
L 284.914968 417.632985 
L 293.269989 418.386649 
L 301.625011 419.425616 
L 309.980032 420.77406 
L 318.335053 422.424974 
L 318.952324 422.568056 
L 326.690074 424.188303 
L 335.045095 426.230218 
L 343.400117 428.579371 
L 351.755138 431.231807 
L 352.573873 431.498686 
L 360.110159 433.945701 
L 368.46518 436.803954 
L 376.820201 439.811019 
L 378.66009 440.429317 
L 385.175222 442.776277 
L 393.530244 445.581217 
L 401.885265 448.063105 
L 407.704386 449.359947 
L 410.240286 450.015253 
L 418.595307 451.009109 
L 426.950328 450.34506 
L 429.724012 449.359947 
L 435.30535 446.146361 
L 439.813837 440.429317 
L 442.182523 431.498686 
L 441.806755 422.568056 
L 439.750053 413.637426 
L 436.202781 404.706796 
L 435.30535 403.186065 
L 431.136814 395.776165 
L 426.950328 390.153262 
L 424.488091 386.845535 
L 418.595307 380.695678 
L 415.810137 377.914905 
L 410.240286 373.509861 
L 403.974096 368.984274 
L 401.885265 367.731737 
L 393.530244 363.195729 
L 387.006341 360.053644 
L 385.175222 359.281148 
L 376.820201 356.086235 
L 368.46518 353.246525 
L 361.563477 351.123014 
L 360.110159 350.710152 
L 351.755138 348.571468 
L 343.400117 346.667267 
L 335.045095 344.983926 
L 326.690074 343.536534 
L 318.335053 342.354606 
L 316.732408 342.192383 
L 309.980032 341.522452 
L 301.625011 341.050237 
L 293.269989 341.010338 
L 284.914968 341.494697 
L 279.528919 342.192383 
L 276.559947 342.64875 
L 268.204926 344.743306 
L 259.849905 348.039349 
L 254.435171 351.123014 
L 251.494883 353.354815 
L 244.778382 360.053644 
L 243.139862 362.40968 
L 239.227873 368.984274 
L 235.633317 377.914905 
L 234.784841 381.252334 
L 233.346672 386.845535 
L 231.998374 395.776165 
L 231.827633 404.706796 
z
M 248.683065 199.302299 
L 251.494883 205.647844 
L 252.872022 208.232929 
L 259.849905 216.109307 
L 261.10304 217.163559 
L 268.204926 221.468738 
L 276.559947 224.852325 
L 281.023081 226.09419 
L 284.914968 227.004396 
L 293.269989 228.27794 
L 301.625011 228.913943 
L 309.980032 229.053812 
L 318.335053 228.847429 
L 326.690074 228.400606 
L 335.045095 227.793663 
L 343.400117 227.118845 
L 351.755138 226.486802 
L 358.945765 226.09419 
L 360.110159 226.015546 
L 368.46518 225.860466 
L 373.189098 226.09419 
L 376.820201 226.257812 
L 385.175222 227.326274 
L 393.530244 229.51547 
L 401.885265 233.534653 
L 403.982293 235.02482 
L 410.240286 238.995179 
L 415.980656 243.95545 
L 418.595307 246.0126 
L 425.964542 252.886081 
L 426.950328 253.754287 
L 435.30535 261.632206 
L 435.49788 261.816711 
L 443.660371 269.105345 
L 445.611965 270.747341 
L 452.015392 275.877459 
L 457.447224 279.677971 
L 460.370413 281.667143 
L 468.725434 286.275789 
L 474.326147 288.608602 
L 477.080456 289.765866 
L 485.435477 292.07457 
L 493.790498 293.205875 
L 502.145519 292.937608 
L 510.50054 290.759052 
L 514.286934 288.608602 
L 518.855561 284.995659 
L 522.755123 279.677971 
L 526.637912 270.747341 
L 527.210583 268.537091 
L 528.59572 261.816711 
L 529.535407 252.886081 
L 529.710577 243.95545 
L 529.085109 235.02482 
L 527.451762 226.09419 
L 527.210583 225.310227 
L 523.995065 217.163559 
L 518.855561 210.199865 
L 516.717263 208.232929 
L 510.50054 204.469115 
L 502.145519 201.351133 
L 493.790498 199.365611 
L 493.421703 199.302299 
L 485.435477 198.16133 
L 477.080456 197.311905 
L 468.725434 196.671489 
L 460.370413 196.138907 
L 452.015392 195.614576 
L 443.660371 194.992383 
L 435.30535 194.129391 
L 426.950328 192.802529 
L 418.595307 190.631481 
L 417.886531 190.371668 
L 410.240286 187.810312 
L 401.885265 183.68206 
L 398.50363 181.441038 
L 393.530244 178.543204 
L 385.175222 172.687571 
L 384.945777 172.510408 
L 376.820201 167.351575 
L 370.921164 163.579778 
L 368.46518 162.230655 
L 360.110159 157.989084 
L 352.72271 154.649147 
L 351.755138 154.266 
L 343.400117 151.373407 
L 335.045095 148.948716 
L 326.690074 146.897825 
L 321.044257 145.718517 
L 318.335053 145.195476 
L 309.980032 143.853865 
L 301.625011 142.766473 
L 293.269989 141.942585 
L 284.914968 141.43451 
L 276.559947 141.380694 
L 268.204926 142.109973 
L 259.849905 144.452182 
L 257.610101 145.718517 
L 251.494883 151.634894 
L 249.765679 154.649147 
L 246.897321 163.579778 
L 245.692016 172.510408 
L 245.606696 181.441038 
L 246.529391 190.371668 
L 248.683065 199.302299 
M 400.995015 47.481584 
L 401.885265 48.468253 
L 410.240286 55.875036 
L 411.126434 56.412214 
L 418.595307 59.216826 
L 426.950328 60.506621 
L 435.30535 60.203097 
L 443.660371 58.646519 
L 451.003171 56.412214 
L 452.015392 55.910494 
L 460.370413 50.714171 
L 465.12933 47.481584 
L 468.725434 40.141329 
L 469.558497 38.550953 
L 468.725434 37.196171 
L 462.567364 29.620323 
L 460.370413 28.808004 
L 452.015392 26.516009 
L 443.660371 25.09977 
L 435.30535 24.376883 
L 426.950328 24.276398 
L 418.595307 24.873939 
L 410.240286 26.417333 
L 401.885265 29.468237 
L 401.617565 29.620323 
L 397.675391 38.550953 
L 400.995015 47.481584 
" clip-path="url(#pf7381ca902)" style="fill: none; stroke: #2a788e; stroke-width: 1.5"/>
    <path d="M 50.974375 528.462825 
L 50.974375 529.73562 
L 59.329396 538.66625 
L 67.018497 538.66625 
M 50.974375 502.15632 
L 50.974375 502.943729 
L 50.974375 503.604459 
M 50.974375 324.571005 
L 59.329396 332.008151 
L 67.684417 331.893017 
L 76.039439 331.699337 
L 84.39446 331.426266 
L 92.749481 331.068723 
L 101.104502 330.625966 
L 109.459523 330.087677 
L 117.814544 329.451381 
L 126.169566 328.70538 
L 134.524587 327.832658 
L 142.879608 326.818161 
L 151.234629 325.632113 
L 159.001715 324.331123 
L 159.58965 324.221753 
L 167.944672 322.503164 
L 176.299693 320.363934 
L 184.654714 317.535271 
L 189.491964 315.400493 
L 193.009735 313.223296 
L 200.678317 306.469862 
L 201.364756 305.480128 
L 205.990706 297.539232 
L 208.795898 288.608602 
L 209.719778 283.276422 
L 210.368298 279.677971 
L 210.9624 270.747341 
L 210.404409 261.816711 
L 209.719778 258.835781 
L 208.276857 252.886081 
L 202.661978 243.95545 
L 201.364756 242.908144 
L 193.009735 236.904521 
L 189.966279 235.02482 
L 184.654714 232.716359 
L 176.299693 229.360927 
L 167.944672 226.327572 
L 167.305526 226.09419 
L 159.58965 223.639889 
L 151.234629 221.181762 
L 142.879608 218.922059 
L 135.826917 217.163559 
L 134.524587 216.839375 
L 126.169566 214.918595 
L 117.814544 213.208366 
L 109.459523 211.699627 
L 101.104502 210.387156 
L 92.749481 209.283292 
L 84.39446 208.375374 
L 82.335217 208.232929 
L 76.039439 207.634359 
L 67.684417 207.097987 
L 59.329396 206.777737 
L 50.974375 199.942248 
M 50.974375 162.339512 
L 50.974375 154.649147 
L 50.974375 145.718517 
L 50.974375 136.787887 
L 50.974375 127.857256 
L 50.974375 118.926626 
L 50.974375 116.17663 
M 50.974375 11.759062 
L 50.974375 20.689693 
L 50.974375 29.620323 
L 50.974375 38.550953 
L 50.974375 47.481584 
L 50.974375 56.412214 
L 50.974375 65.342844 
L 50.974375 74.273475 
L 50.974375 83.204105 
L 50.974375 92.134735 
L 50.974375 101.065365 
L 59.329396 104.308089 
L 67.684417 104.551076 
L 76.039439 104.953438 
L 84.39446 105.508486 
L 92.749481 106.213079 
L 101.104502 107.054641 
L 109.459523 108.03259 
L 117.814544 109.130299 
L 123.660601 109.995996 
L 126.169566 110.334995 
L 134.524587 111.617745 
L 142.879608 112.982534 
L 151.234629 114.430475 
L 159.58965 115.965005 
L 167.944672 117.586666 
L 174.531803 118.926626 
L 176.299693 119.313007 
L 184.654714 121.180903 
L 193.009735 123.240747 
L 201.364756 125.621142 
L 207.962198 127.857256 
L 209.719778 128.661807 
L 218.074799 133.475777 
L 221.799283 136.787887 
L 226.425582 145.718517 
L 226.42982 145.734109 
L 228.431575 154.649147 
L 229.384929 163.579778 
L 229.921767 172.510408 
L 230.302186 181.441038 
L 230.704399 190.371668 
L 231.327153 199.302299 
L 232.526165 208.232929 
L 234.784841 216.197912 
L 235.123868 217.163559 
L 240.93944 226.09419 
L 243.139862 227.935726 
L 251.494883 232.860337 
L 257.22884 235.02482 
L 259.849905 235.814446 
L 268.204926 237.724216 
L 276.559947 238.938036 
L 284.914968 239.66044 
L 293.269989 239.987758 
L 301.625011 239.961003 
L 309.980032 239.657072 
L 318.335053 239.187389 
L 326.690074 238.638011 
L 335.045095 238.082882 
L 343.400117 237.615063 
L 351.755138 237.352081 
L 360.110159 237.436981 
L 368.46518 238.045853 
L 376.820201 239.342904 
L 385.175222 241.549783 
L 391.137357 243.95545 
L 393.530244 244.919987 
L 401.885265 249.42275 
L 406.877297 252.886081 
L 410.240286 255.247605 
L 418.301785 261.816711 
L 418.595307 262.064814 
L 426.950328 269.548455 
L 428.256387 270.747341 
L 435.30535 277.306325 
L 437.994808 279.677971 
L 443.660371 284.747077 
L 448.557165 288.608602 
L 452.015392 291.403359 
L 460.370413 297.026611 
L 461.29837 297.539232 
L 468.725434 301.862248 
L 477.080456 305.628662 
L 479.510826 306.469862 
L 485.435477 308.783416 
L 493.790498 311.249932 
L 502.145519 313.111365 
L 510.50054 314.5139 
L 517.976663 315.400493 
L 518.855561 315.545415 
L 527.210583 316.304744 
L 535.565604 316.74171 
L 543.920625 324.331123 
L 543.920625 333.261753 
L 543.920625 342.192383 
L 543.920625 351.123014 
L 543.920625 360.053644 
L 543.920625 368.984274 
L 543.920625 377.914905 
L 543.920625 386.845535 
L 543.920625 395.776165 
L 543.920625 404.706796 
L 543.920625 413.637426 
L 543.920625 422.568056 
L 543.920625 431.498686 
L 543.920625 440.429317 
L 543.920625 449.359947 
L 543.920625 458.290577 
L 543.920625 467.221208 
L 543.920625 476.151838 
L 543.920625 485.082468 
L 543.920625 494.013099 
L 543.920625 502.943729 
L 543.920625 511.874359 
L 543.920625 520.804989 
L 543.920625 529.73562 
L 535.565604 538.66625 
L 527.210583 538.66625 
L 521.555086 538.66625 
M 90.026494 538.66625 
L 92.749481 538.66625 
L 101.104502 538.66625 
L 109.459523 538.66625 
L 111.371646 538.66625 
M 150.44518 538.66625 
L 151.234629 538.66625 
L 159.58965 538.66625 
L 167.944672 538.66625 
L 176.299693 538.66625 
L 184.654714 538.66625 
L 193.009735 538.66625 
L 201.364756 538.66625 
L 209.719778 538.66625 
L 218.074799 538.66625 
L 225.593865 529.73562 
L 225.776415 520.804989 
L 226.093684 511.874359 
L 226.42982 505.882394 
L 226.558132 502.943729 
L 227.19092 494.013099 
L 228.048921 485.082468 
L 229.230611 476.151838 
L 230.880404 467.221208 
L 233.304591 458.290577 
L 234.784841 454.426723 
L 237.092423 449.359947 
L 243.139862 441.087263 
L 243.794285 440.429317 
L 251.494883 434.784476 
L 259.171083 431.498686 
L 259.849905 431.258308 
L 268.204926 429.137784 
L 276.559947 427.976794 
L 284.914968 427.480989 
L 293.269989 427.52603 
L 301.625011 428.077898 
L 309.980032 429.098335 
L 318.335053 430.538108 
L 322.688024 431.498686 
L 326.690074 432.355331 
L 335.045095 434.536155 
L 343.400117 437.11761 
L 351.755138 440.090341 
L 352.653824 440.429317 
L 360.110159 443.419957 
L 368.46518 447.046814 
L 373.557849 449.359947 
L 376.820201 451.060712 
L 385.175222 455.423748 
L 390.688916 458.290577 
L 393.530244 460.128294 
L 401.885265 465.13421 
L 405.663964 467.221208 
L 410.240286 470.600629 
L 418.563643 476.151838 
L 418.595307 476.182596 
L 426.950328 482.585071 
L 430.995627 485.082468 
L 435.30535 489.3797 
L 441.587524 494.013099 
L 443.660371 496.755213 
L 450.8448 502.943729 
L 452.015392 505.079606 
L 458.876787 511.874359 
L 460.370413 515.581062 
L 465.485095 520.804989 
L 468.643368 529.73562 
L 460.370413 538.66625 
L 452.015392 538.66625 
L 443.660371 538.66625 
L 435.30535 538.66625 
L 426.950328 538.66625 
L 418.595307 538.66625 
L 410.240286 538.66625 
L 401.885265 538.66625 
L 393.530244 538.66625 
L 385.175222 538.66625 
L 376.820201 538.66625 
L 368.46518 538.66625 
L 360.110159 538.66625 
L 351.755138 538.66625 
L 343.400117 538.66625 
L 335.045095 538.66625 
L 326.690074 538.66625 
L 325.018014 538.66625 
M 489.66113 538.66625 
L 493.790498 538.66625 
L 496.107317 529.73562 
L 496.135883 520.804989 
L 495.844712 511.874359 
L 494.953228 502.943729 
L 493.790498 496.950323 
L 493.489515 494.013099 
L 491.724009 485.082468 
L 489.4611 476.151838 
L 486.561912 467.221208 
L 485.435477 464.876346 
L 483.423432 458.290577 
L 479.955782 449.359947 
L 477.080456 443.490103 
L 476.020299 440.429317 
L 471.937672 431.498686 
L 468.725434 425.829742 
L 467.291307 422.568056 
L 462.444352 413.637426 
L 460.370413 410.523865 
L 457.065871 404.706796 
L 452.015392 397.536985 
L 450.889703 395.776165 
L 443.927792 386.845535 
L 443.660371 386.552394 
L 435.820222 377.914905 
L 435.30535 377.436615 
L 426.950328 370.048563 
L 425.655345 368.984274 
L 418.595307 364.064064 
L 411.956856 360.053644 
L 410.240286 359.134647 
L 401.885265 355.076756 
L 393.530244 351.622789 
L 392.227979 351.123014 
L 385.175222 348.612489 
L 376.820201 345.971031 
L 368.46518 343.585171 
L 363.229638 342.192383 
L 360.110159 341.381387 
L 351.755138 339.352806 
L 343.400117 337.482269 
L 335.045095 335.756465 
L 326.690074 334.183287 
L 321.155854 333.261753 
L 318.335053 332.767346 
L 309.980032 331.529997 
L 301.625011 330.526062 
L 293.269989 329.809071 
L 284.914968 329.424101 
L 276.559947 329.404787 
L 268.204926 329.823185 
L 259.849905 330.821166 
L 251.494883 332.636059 
L 249.494966 333.261753 
L 243.139862 335.678644 
L 234.784841 341.12743 
L 233.676009 342.192383 
L 227.056287 351.123014 
L 226.42982 352.267299 
L 222.982493 360.053644 
L 219.828832 368.984274 
L 218.074799 374.206499 
L 216.893753 377.914905 
L 213.672846 386.845535 
L 209.719778 395.218044 
L 209.437034 395.776165 
L 203.269251 404.706796 
L 201.364756 406.617066 
L 193.009735 413.534419 
L 192.87033 413.637426 
L 184.654714 418.336706 
L 176.299693 422.29074 
L 175.698665 422.568056 
L 167.944672 425.678428 
L 159.58965 428.77343 
L 151.736484 431.498686 
L 151.234629 431.666 
L 142.879608 434.376566 
L 134.524587 436.911861 
L 126.169566 439.276894 
L 121.638113 440.429317 
L 117.814544 441.492457 
L 109.459523 443.534154 
L 101.104502 445.34289 
L 92.749481 446.890036 
L 84.39446 448.180762 
L 76.039439 449.192604 
L 73.502442 449.359947 
L 67.684417 449.979039 
L 59.329396 450.461076 
L 50.974375 449.359947 
L 50.974375 440.429317 
L 50.974375 431.498686 
L 50.974375 422.568056 
L 50.974375 416.294247 
M 242.783284 83.204105 
L 242.523521 74.273475 
L 242.44569 65.342844 
L 242.465689 56.412214 
L 242.537661 47.481584 
L 242.627116 38.550953 
L 242.717194 29.620323 
L 242.791903 20.689693 
L 243.139862 11.759062 
L 251.494883 11.759062 
L 259.849905 11.759062 
L 268.204926 11.759062 
L 276.559947 11.759062 
L 284.914968 11.759062 
L 293.269989 11.759062 
L 301.625011 11.759062 
L 309.980032 11.759062 
L 318.335053 11.759062 
L 326.690074 11.759062 
L 335.045095 11.759062 
L 343.400117 11.759062 
L 351.755138 11.759062 
L 360.110159 11.759062 
L 364.506775 20.689693 
L 368.46518 29.605426 
L 368.468811 29.620323 
L 373.079989 38.550953 
L 376.820201 44.487591 
L 378.529032 47.481584 
L 385.175222 56.3225 
L 385.246753 56.412214 
L 393.530244 64.475403 
L 394.642894 65.342844 
L 401.885265 69.967762 
L 410.240286 73.491679 
L 413.528209 74.273475 
L 418.595307 75.327491 
L 426.950328 75.795425 
L 435.30535 75.267115 
L 441.91795 74.273475 
L 443.660371 73.98649 
L 452.015392 71.988897 
L 460.370413 69.575379 
L 468.725434 66.942237 
L 473.831392 65.342844 
L 477.080456 64.011067 
L 485.435477 60.849583 
L 493.790498 57.992372 
L 499.491254 56.412214 
L 502.145519 55.248532 
L 510.50054 52.6182 
L 518.855561 50.813086 
L 527.210583 49.814061 
L 535.565604 49.647578 
L 543.920625 56.412214 
L 543.920625 65.342844 
L 543.920625 74.273475 
L 543.920625 83.204105 
L 543.920625 92.134735 
L 543.920625 101.065365 
L 543.920625 109.995996 
L 543.920625 118.926626 
L 543.920625 127.857256 
L 543.920625 136.787887 
L 543.920625 145.718517 
L 543.920625 154.649147 
L 543.920625 163.579778 
L 543.920625 172.510408 
L 543.920625 181.441038 
L 535.565604 186.904387 
L 527.210583 186.87655 
L 518.855561 186.821855 
L 510.50054 186.734656 
L 502.145519 186.606617 
L 493.790498 186.425088 
L 485.435477 186.172478 
L 477.080456 185.822904 
L 468.725434 185.340268 
L 460.370413 184.672837 
L 452.015392 183.747333 
L 443.660371 182.458633 
L 438.785694 181.441038 
L 435.30535 180.693486 
L 426.950328 178.370156 
L 418.595307 175.30065 
L 412.60425 172.510408 
L 410.240286 171.384885 
L 401.885265 166.880867 
L 396.370978 163.579778 
L 393.530244 161.890297 
L 385.175222 156.954808 
L 381.103278 154.649147 
L 376.820201 152.322579 
L 368.46518 148.333342 
L 362.05452 145.718517 
L 360.110159 144.966202 
L 351.755138 142.210547 
L 343.400117 139.965731 
L 335.045095 138.068393 
L 328.742176 136.787887 
L 326.690074 136.383191 
L 318.335053 134.835561 
L 309.980032 133.364151 
L 301.625011 131.904331 
L 293.269989 130.381422 
L 284.914968 128.712767 
L 280.89604 127.857256 
L 276.559947 126.779377 
L 268.204926 124.405739 
L 259.849905 121.172685 
L 255.601002 118.926626 
L 251.494883 115.302433 
L 247.558569 109.995996 
L 244.662849 101.065365 
L 243.38907 92.134735 
L 243.139862 88.655043 
L 242.783284 83.204105 
z
" clip-path="url(#pf7381ca902)" style="fill: none; stroke: #21918c; stroke-width: 1.5"/>
    <path d="M 65.470068 404.706796 
L 64.249575 395.776165 
L 63.890443 386.845535 
L 64.321921 377.914905 
L 65.768777 368.984274 
L 67.684417 363.054378 
L 68.916557 360.053644 
L 75.856723 351.123014 
L 76.039439 350.978045 
L 84.39446 346.1781 
L 92.749481 343.249809 
L 96.879564 342.192383 
L 101.104502 341.330529 
L 109.459523 339.974262 
L 117.814544 338.892061 
L 126.169566 337.990919 
L 134.524587 337.222152 
L 142.879608 336.569873 
L 151.234629 336.045248 
L 159.58965 335.684344 
L 167.944672 335.565566 
L 176.299693 335.865764 
L 184.654714 336.962799 
L 193.009735 339.790199 
L 196.505099 342.192383 
L 201.364756 350.910123 
L 201.436146 351.123014 
L 202.273709 360.053644 
L 201.473303 368.984274 
L 201.364756 369.419872 
L 199.345708 377.914905 
L 195.730009 386.845535 
L 193.009735 391.304193 
L 190.106732 395.776165 
L 184.654714 401.614494 
L 181.447451 404.706796 
L 176.299693 408.409213 
L 168.001474 413.637426 
L 167.944672 413.666566 
L 159.58965 417.671793 
L 151.234629 421.190772 
L 147.563183 422.568056 
L 142.879608 424.178819 
L 134.524587 426.693966 
L 126.169566 428.829072 
L 117.814544 430.52164 
L 110.739252 431.498686 
L 109.459523 431.683946 
L 101.104502 432.161996 
L 92.749481 431.711207 
L 91.622425 431.498686 
L 84.39446 429.774674 
L 76.039439 425.118199 
L 73.45996 422.568056 
L 68.003342 413.637426 
L 67.684417 412.739895 
L 65.470068 404.706796 
z
M 74.211969 181.441038 
L 70.333367 172.510408 
L 68.81351 163.579778 
L 68.783033 154.649147 
L 70.185348 145.718517 
L 73.682923 136.787887 
L 76.039439 133.453136 
L 81.937557 127.857256 
L 84.39446 126.35933 
L 92.749481 123.128234 
L 101.104502 121.470807 
L 109.459523 120.779375 
L 117.814544 120.733492 
L 126.169566 121.163761 
L 134.524587 121.969774 
L 142.879608 123.082132 
L 151.234629 124.479041 
L 159.58965 126.161182 
L 166.755234 127.857256 
L 167.944672 128.17431 
L 176.299693 130.73026 
L 184.654714 133.807357 
L 191.259759 136.787887 
L 193.009735 137.821118 
L 201.364756 143.830502 
L 203.466052 145.718517 
L 209.703825 154.649147 
L 209.719778 154.687373 
L 212.958248 163.579778 
L 214.541539 172.510408 
L 214.935788 181.441038 
L 214.3131 190.371668 
L 212.523815 199.302299 
L 209.719778 206.369769 
L 208.526429 208.232929 
L 201.364756 214.354206 
L 193.009735 216.517826 
L 184.654714 216.652796 
L 176.299693 215.840044 
L 167.944672 214.496187 
L 159.58965 212.867483 
L 151.234629 211.098508 
L 142.879608 209.253813 
L 138.419155 208.232929 
L 134.524587 207.278637 
L 126.169566 205.186169 
L 117.814544 203.072249 
L 109.459523 200.876866 
L 103.790832 199.302299 
L 101.104502 198.369021 
L 92.749481 195.199644 
L 84.39446 191.124623 
L 83.117509 190.371668 
L 76.039439 183.737596 
L 74.211969 181.441038 
z
M 243.012311 511.874359 
L 240.256811 502.943729 
L 239.327244 494.013099 
L 239.549885 485.082468 
L 240.797245 476.151838 
L 243.139862 467.391357 
L 243.188987 467.221208 
L 247.259898 458.290577 
L 251.494883 452.407331 
L 254.318393 449.359947 
L 259.849905 445.026998 
L 268.204926 440.700515 
L 268.971189 440.429317 
L 276.559947 438.16684 
L 284.914968 436.743744 
L 293.269989 436.157897 
L 301.625011 436.296241 
L 309.980032 437.066731 
L 318.335053 438.381091 
L 326.690074 440.209994 
L 327.482256 440.429317 
L 335.045095 442.618942 
L 343.400117 445.538382 
L 351.755138 448.939466 
L 352.710539 449.359947 
L 360.110159 453.079975 
L 368.46518 457.670575 
L 369.566753 458.290577 
L 376.820201 463.383196 
L 382.168883 467.221208 
L 385.175222 470.162216 
L 391.580342 476.151838 
L 393.530244 478.959445 
L 398.299064 485.082468 
L 401.885265 493.964978 
L 401.908549 494.013099 
L 402.549391 502.943729 
L 401.885265 504.717172 
L 399.015723 511.874359 
L 393.530244 516.972306 
L 388.205926 520.804989 
L 385.175222 522.134857 
L 376.820201 525.099273 
L 368.46518 527.209944 
L 360.110159 528.736545 
L 352.694162 529.73562 
L 351.755138 529.839468 
L 343.400117 530.581073 
L 335.045095 531.103235 
L 326.690074 531.440274 
L 318.335053 531.613826 
L 309.980032 531.636006 
L 301.625011 531.50039 
L 293.269989 531.178355 
L 284.914968 530.622092 
L 276.559947 529.751083 
L 276.449723 529.73562 
L 268.204926 528.303959 
L 259.849905 525.973125 
L 251.494883 521.906716 
L 249.954417 520.804989 
L 243.139862 512.11096 
L 243.012311 511.874359 
z
M 237.017848 297.539232 
L 235.302611 288.608602 
L 235.815809 279.677971 
L 238.421536 270.747341 
L 243.139862 263.73442 
L 245.191256 261.816711 
L 251.494883 258.514783 
L 259.849905 256.202737 
L 268.204926 254.838323 
L 276.559947 253.842006 
L 284.914968 252.983713 
L 285.801505 252.886081 
L 293.269989 252.24308 
L 301.625011 251.442035 
L 309.980032 250.576023 
L 318.335053 249.718711 
L 326.690074 248.93544 
L 335.045095 248.290634 
L 343.400117 247.873558 
L 351.755138 247.800918 
L 360.110159 248.215439 
L 368.46518 249.286671 
L 376.820201 251.154106 
L 382.033879 252.886081 
L 385.175222 254.013222 
L 393.530244 258.008457 
L 399.739821 261.816711 
L 401.885265 263.269781 
L 410.240286 269.744552 
L 411.420598 270.747341 
L 418.595307 277.418894 
L 420.989984 279.677971 
L 426.950328 285.813614 
L 429.839346 288.608602 
L 435.30535 294.327425 
L 438.816353 297.539232 
L 443.660371 302.402995 
L 448.626698 306.469862 
L 452.015392 309.645009 
L 460.050829 315.400493 
L 460.370413 315.667565 
L 468.725434 321.256978 
L 474.759124 324.331123 
L 477.080456 325.742659 
L 485.435477 330.121977 
L 491.879573 333.261753 
L 493.790498 334.4882 
L 502.145519 340.194949 
L 504.651242 342.192383 
L 510.50054 349.570957 
L 511.502427 351.123014 
L 514.697354 360.053644 
L 515.931383 368.984274 
L 515.56181 377.914905 
L 513.530681 386.845535 
L 510.50054 393.794289 
L 508.871006 395.776165 
L 502.145519 401.114621 
L 493.790498 401.768275 
L 485.435477 398.529687 
L 481.692047 395.776165 
L 477.080456 392.683568 
L 470.604523 386.845535 
L 468.725434 385.274653 
L 461.162601 377.914905 
L 460.370413 377.202497 
L 452.015392 369.429383 
L 451.535653 368.984274 
L 443.660371 362.478238 
L 440.342408 360.053644 
L 435.30535 356.704286 
L 426.950328 352.161358 
L 424.817089 351.123014 
L 418.595307 348.284748 
L 410.240286 345.148665 
L 401.885265 342.534944 
L 400.75205 342.192383 
L 393.530244 340.062858 
L 385.175222 337.855729 
L 376.820201 335.828023 
L 368.46518 333.910358 
L 365.618384 333.261753 
L 360.110159 331.96216 
L 351.755138 330.039639 
L 343.400117 328.181045 
L 335.045095 326.381743 
L 326.690074 324.649802 
L 325.054107 324.331123 
L 318.335053 322.835772 
L 309.980032 321.090863 
L 301.625011 319.463254 
L 293.269989 317.978461 
L 284.914968 316.629277 
L 276.816818 315.400493 
L 276.559947 315.347893 
L 268.204926 313.782402 
L 259.849905 312.066065 
L 251.494883 309.823182 
L 243.779128 306.469862 
L 243.139862 305.92132 
L 237.017848 297.539232 
z
M 257.624201 83.204105 
L 256.630072 74.273475 
L 256.649382 65.342844 
L 257.665542 56.412214 
L 259.849905 47.865265 
L 259.971628 47.481584 
L 264.89616 38.550953 
L 268.204926 35.054703 
L 276.559947 29.725269 
L 276.819777 29.620323 
L 284.914968 27.085461 
L 293.269989 25.638549 
L 301.625011 24.984277 
L 309.980032 24.958529 
L 318.335053 25.528826 
L 326.690074 26.818478 
L 335.045095 29.185013 
L 336.070208 29.620323 
L 343.400117 33.061873 
L 350.896018 38.550953 
L 351.755138 39.240375 
L 359.779351 47.481584 
L 360.110159 47.840018 
L 367.211322 56.412214 
L 368.46518 57.940758 
L 374.626959 65.342844 
L 376.820201 67.913143 
L 383.099416 74.273475 
L 385.175222 76.306215 
L 393.530244 82.363809 
L 395.253454 83.204105 
L 401.885265 86.373458 
L 410.240286 88.478485 
L 418.595307 89.220601 
L 426.950328 88.939183 
L 435.30535 87.939601 
L 443.660371 86.467776 
L 452.015392 84.68502 
L 458.416507 83.204105 
L 460.370413 82.74394 
L 468.725434 80.829265 
L 477.080456 79.15038 
L 485.435477 77.911474 
L 493.790498 77.383878 
L 502.145519 78.008816 
L 510.50054 80.46721 
L 514.950129 83.204105 
L 518.855561 86.40658 
L 523.048041 92.134735 
L 527.023508 101.065365 
L 527.210583 101.728089 
L 529.082863 109.995996 
L 530.114854 118.926626 
L 530.370079 127.857256 
L 529.903994 136.787887 
L 528.529095 145.718517 
L 527.210583 150.25009 
L 525.582272 154.649147 
L 519.447412 163.579778 
L 518.855561 164.128446 
L 510.50054 169.3509 
L 502.145519 172.184654 
L 500.582565 172.510408 
L 493.790498 173.658838 
L 485.435477 174.37979 
L 477.080456 174.569131 
L 468.725434 174.301741 
L 460.370413 173.587714 
L 452.784646 172.510408 
L 452.015392 172.391833 
L 443.660371 170.571823 
L 435.30535 168.141705 
L 426.950328 165.042095 
L 423.649121 163.579778 
L 418.595307 161.069573 
L 410.240286 156.48223 
L 407.083635 154.649147 
L 401.885265 151.28076 
L 393.530244 146.194989 
L 392.681844 145.718517 
L 385.175222 141.195887 
L 376.820201 137.335433 
L 375.380384 136.787887 
L 368.46518 134.109852 
L 360.110159 131.76821 
L 351.755138 130.01184 
L 343.400117 128.581461 
L 338.823992 127.857256 
L 335.045095 127.2474 
L 326.690074 125.883136 
L 318.335053 124.441654 
L 309.980032 122.850001 
L 301.625011 121.012856 
L 293.790115 118.926626 
L 293.269989 118.764706 
L 284.914968 115.649452 
L 276.559947 111.539509 
L 274.047502 109.995996 
L 268.204926 104.935815 
L 264.769843 101.065365 
L 260.007583 92.134735 
L 259.849905 91.613511 
L 257.624201 83.204105 
z
" clip-path="url(#pf7381ca902)" style="fill: none; stroke: #22a884; stroke-width: 1.5"/>
    <path d="M 82.195303 404.706796 
L 78.98483 395.776165 
L 77.993855 386.845535 
L 78.918878 377.914905 
L 82.195098 368.984274 
L 84.39446 365.807298 
L 89.729316 360.053644 
L 92.749481 357.965124 
L 101.104502 353.799016 
L 108.904043 351.123014 
L 109.459523 350.975865 
L 117.814544 349.335778 
L 126.169566 348.234833 
L 134.524587 347.593023 
L 142.879608 347.40571 
L 151.234629 347.756666 
L 159.58965 348.833031 
L 167.944672 351.002194 
L 168.249716 351.123014 
L 176.299693 356.654771 
L 179.285448 360.053644 
L 182.132792 368.984274 
L 181.37469 377.914905 
L 177.753459 386.845535 
L 176.299693 388.875717 
L 170.98318 395.776165 
L 167.944672 398.469152 
L 160.072456 404.706796 
L 159.58965 404.99668 
L 151.234629 409.420359 
L 142.879608 413.167848 
L 141.58561 413.637426 
L 134.524587 415.827258 
L 126.169566 417.777022 
L 117.814544 418.968278 
L 109.459523 419.213824 
L 101.104502 418.182994 
L 92.749481 415.243084 
L 90.187402 413.637426 
L 84.39446 407.982866 
L 82.195303 404.706796 
z
M 91.157265 172.510408 
L 88.259354 163.579778 
L 88.588073 154.649147 
L 92.3841 145.718517 
L 92.749481 145.296758 
L 101.104502 138.417838 
L 104.31604 136.787887 
L 109.459523 135.078553 
L 117.814544 133.544551 
L 126.169566 133.002306 
L 134.524587 133.214401 
L 142.879608 134.030248 
L 151.234629 135.388624 
L 157.42659 136.787887 
L 159.58965 137.381853 
L 167.944672 140.315233 
L 176.299693 144.001995 
L 179.469773 145.718517 
L 184.654714 149.680534 
L 189.969947 154.649147 
L 193.009735 159.302279 
L 195.407404 163.579778 
L 197.702951 172.510408 
L 197.424751 181.441038 
L 194.206704 190.371668 
L 193.009735 192.007713 
L 184.654714 198.739793 
L 183.203404 199.302299 
L 176.299693 201.038224 
L 167.944672 201.562739 
L 159.58965 201.121263 
L 151.234629 200.08723 
L 146.806373 199.302299 
L 142.879608 198.515081 
L 134.524587 196.439713 
L 126.169566 194.073744 
L 117.814544 191.39169 
L 115.000358 190.371668 
L 109.459523 187.697542 
L 101.104502 182.935755 
L 98.883167 181.441038 
L 92.749481 174.617735 
L 91.157265 172.510408 
z
M 251.081923 485.082468 
L 251.494883 482.272849 
L 252.449258 476.151838 
L 255.784376 467.221208 
L 259.849905 460.939431 
L 262.007455 458.290577 
L 268.204926 453.151676 
L 274.937132 449.359947 
L 276.559947 448.649883 
L 284.914968 446.186678 
L 293.269989 444.905561 
L 301.625011 444.61244 
L 309.980032 445.156855 
L 318.335053 446.405041 
L 326.690074 448.29785 
L 330.220321 449.359947 
L 335.045095 450.997743 
L 343.400117 454.469748 
L 351.260959 458.290577 
L 351.755138 458.591678 
L 360.110159 464.135588 
L 364.460428 467.221208 
L 368.46518 471.181933 
L 373.435585 476.151838 
L 376.820201 481.727999 
L 378.968547 485.082468 
L 381.047088 494.013099 
L 379.15983 502.943729 
L 376.820201 505.981386 
L 371.284739 511.874359 
L 368.46518 513.511989 
L 360.110159 517.376958 
L 351.755138 520.135883 
L 349.088555 520.804989 
L 343.400117 521.888398 
L 335.045095 523.038731 
L 326.690074 523.780385 
L 318.335053 524.16426 
L 309.980032 524.219152 
L 301.625011 523.932727 
L 293.269989 523.243966 
L 284.914968 522.049769 
L 279.177401 520.804989 
L 276.559947 520.070139 
L 268.204926 516.668544 
L 260.771742 511.874359 
L 259.849905 510.915197 
L 254.229534 502.943729 
L 251.522332 494.013099 
L 251.494883 493.512272 
L 251.081923 485.082468 
z
M 276.044054 288.608602 
L 276.264451 279.677971 
L 276.559947 279.386233 
L 284.914968 272.308921 
L 287.075114 270.747341 
L 293.269989 268.56424 
L 301.625011 265.945251 
L 309.980032 263.623961 
L 317.535477 261.816711 
L 318.335053 261.678194 
L 326.690074 260.43694 
L 335.045095 259.507699 
L 343.400117 258.972077 
L 351.755138 258.94206 
L 360.110159 259.554231 
L 368.46518 260.962694 
L 371.603407 261.816711 
L 376.820201 263.502178 
L 385.175222 267.191264 
L 391.476899 270.747341 
L 393.530244 272.19011 
L 401.885265 278.917846 
L 402.748843 279.677971 
L 410.240286 287.691475 
L 411.105005 288.608602 
L 417.970178 297.539232 
L 418.595307 298.704644 
L 423.443024 306.469862 
L 426.859452 315.400493 
L 424.032514 324.331123 
L 418.595307 326.41882 
L 410.240286 327.391367 
L 401.885265 327.320583 
L 393.530244 326.731859 
L 385.175222 325.811118 
L 376.820201 324.667636 
L 374.785352 324.331123 
L 368.46518 323.165323 
L 360.110159 321.482528 
L 351.755138 319.696888 
L 343.400117 317.828851 
L 335.045095 315.898461 
L 332.937395 315.400493 
L 326.690074 313.511991 
L 318.335053 310.983741 
L 309.980032 308.43697 
L 303.559227 306.469862 
L 301.625011 305.557589 
L 293.269989 301.702324 
L 284.914968 297.718585 
L 284.548586 297.539232 
L 276.559947 289.188914 
L 276.044054 288.608602 
z
M 273.496046 83.204105 
L 271.843231 74.273475 
L 272.245203 65.342844 
L 274.906275 56.412214 
L 276.559947 53.574378 
L 281.554347 47.481584 
L 284.914968 44.911027 
L 293.269989 40.959129 
L 301.625011 39.062271 
L 309.980032 38.692128 
L 318.335053 39.608093 
L 326.690074 41.823726 
L 335.045095 45.578501 
L 337.998859 47.481584 
L 343.400117 51.502733 
L 348.677823 56.412214 
L 351.755138 59.731427 
L 356.510667 65.342844 
L 360.110159 70.212967 
L 363.203615 74.273475 
L 368.46518 81.996545 
L 369.434326 83.204105 
L 375.449925 92.134735 
L 376.820201 95.121877 
L 381.599475 101.065365 
L 385.175222 108.423094 
L 390.461633 109.995996 
L 385.175222 111.400922 
L 376.820201 113.190278 
L 368.46518 114.286167 
L 360.110159 114.961033 
L 351.755138 115.284055 
L 343.400117 115.274548 
L 335.045095 114.9143 
L 326.690074 114.14835 
L 318.335053 112.932356 
L 309.980032 111.238985 
L 305.39118 109.995996 
L 301.625011 108.746164 
L 293.269989 105.070062 
L 286.476976 101.065365 
L 284.914968 99.770153 
L 277.752331 92.134735 
L 276.559947 89.949857 
L 273.496046 83.204105 
z
M 401.651323 127.857256 
L 393.856537 118.926626 
L 397.409127 109.995996 
L 401.885265 109.674987 
L 410.240286 108.244472 
L 418.595307 106.419274 
L 426.950328 104.242871 
L 435.30535 101.843125 
L 437.85185 101.065365 
L 443.660371 99.695234 
L 452.015392 97.696476 
L 460.370413 95.825273 
L 468.725434 94.279897 
L 477.080456 93.337814 
L 485.435477 93.332706 
L 493.790498 94.773384 
L 502.145519 98.544862 
L 505.277934 101.065365 
L 510.50054 107.5542 
L 511.842281 109.995996 
L 514.547173 118.926626 
L 515.246881 127.857256 
L 514.155204 136.787887 
L 510.839354 145.718517 
L 510.50054 146.23335 
L 502.709419 154.649147 
L 502.145519 155.041869 
L 493.790498 159.028108 
L 485.435477 161.25521 
L 477.080456 162.260589 
L 468.725434 162.295038 
L 460.370413 161.474331 
L 452.015392 159.86148 
L 443.660371 157.473884 
L 436.13631 154.649147 
L 435.30535 154.245054 
L 426.950328 149.498088 
L 420.824004 145.718517 
L 418.595307 143.744999 
L 410.240286 136.825959 
L 410.189431 136.787887 
L 401.885265 128.031888 
L 401.651323 127.857256 
z
" clip-path="url(#pf7381ca902)" style="fill: none; stroke: #44bf70; stroke-width: 1.5"/>
    <path d="M 99.159917 395.776165 
L 96.210986 386.845535 
L 97.680045 377.914905 
L 101.104502 372.924763 
L 104.836501 368.984274 
L 109.459523 366.276136 
L 117.814544 363.054192 
L 126.169566 361.24602 
L 134.524587 360.764869 
L 142.879608 361.769423 
L 151.234629 364.81085 
L 157.110825 368.984274 
L 159.58965 376.240035 
L 159.977861 377.914905 
L 159.58965 378.976691 
L 156.430533 386.845535 
L 151.234629 392.333134 
L 147.366597 395.776165 
L 142.879608 398.341024 
L 134.524587 401.973594 
L 126.169566 404.33696 
L 121.232708 404.706796 
L 117.814544 404.901101 
L 116.32426 404.706796 
L 109.459523 403.247379 
L 101.104502 397.975989 
L 99.159917 395.776165 
z
M 117.69005 172.510408 
L 113.506133 163.579778 
L 116.527867 154.649147 
L 117.814544 153.641582 
L 126.169566 149.756108 
L 134.524587 148.324111 
L 142.879608 148.643399 
L 151.234629 150.342027 
L 159.58965 153.235815 
L 162.476653 154.649147 
L 167.944672 159.142924 
L 172.211364 163.579778 
L 174.98628 172.510408 
L 169.94543 181.441038 
L 167.944672 182.605028 
L 159.58965 184.845815 
L 151.234629 185.09937 
L 142.879608 184.063379 
L 134.524587 182.09661 
L 132.568586 181.441038 
L 126.169566 178.060001 
L 117.814544 172.609623 
L 117.69005 172.510408 
z
M 264.979926 494.013099 
L 263.687346 485.082468 
L 265.278582 476.151838 
L 268.204926 470.295629 
L 270.125782 467.221208 
L 276.559947 461.323785 
L 281.39854 458.290577 
L 284.914968 456.736888 
L 293.269989 454.505656 
L 301.625011 453.64862 
L 309.980032 453.936409 
L 318.335053 455.169497 
L 326.690074 457.244897 
L 329.729584 458.290577 
L 335.045095 460.582858 
L 343.400117 465.049371 
L 346.913904 467.221208 
L 351.755138 471.499395 
L 356.632442 476.151838 
L 360.110159 482.142846 
L 361.80818 485.082468 
L 362.552069 494.013099 
L 360.110159 499.102807 
L 357.863632 502.943729 
L 351.755138 507.30074 
L 343.400117 511.560407 
L 342.555004 511.874359 
L 335.045095 513.765655 
L 326.690074 515.126198 
L 318.335053 515.834832 
L 309.980032 515.953746 
L 301.625011 515.467598 
L 293.269989 514.271767 
L 284.914968 512.184377 
L 284.050712 511.874359 
L 276.559947 507.982139 
L 270.098725 502.943729 
L 268.204926 500.174215 
L 264.979926 494.013099 
z
M 291.650888 74.273475 
L 293.269989 66.465436 
L 293.641516 65.342844 
L 301.625011 58.602215 
L 309.276157 56.412214 
L 309.980032 56.288875 
L 311.50689 56.412214 
L 318.335053 57.159133 
L 326.690074 60.639407 
L 333.60781 65.342844 
L 335.045095 66.824724 
L 340.817783 74.273475 
L 343.400117 80.577523 
L 344.435719 83.204105 
L 343.400117 89.673302 
L 342.686138 92.134735 
L 335.045095 96.421739 
L 326.690074 97.826019 
L 318.335053 97.203089 
L 309.980032 95.073658 
L 303.200644 92.134735 
L 301.625011 91.013861 
L 294.16661 83.204105 
L 293.269989 80.578113 
L 291.650888 74.273475 
z
M 321.561641 288.608602 
L 325.372881 279.677971 
L 326.690074 279.061934 
L 335.045095 276.09432 
L 343.400117 274.328566 
L 351.755138 273.82689 
L 360.110159 274.644538 
L 368.46518 276.798218 
L 375.592591 279.677971 
L 376.820201 280.526935 
L 385.175222 287.537111 
L 386.29753 288.608602 
L 390.645655 297.539232 
L 386.236755 306.469862 
L 385.175222 306.890793 
L 376.820201 308.286104 
L 368.46518 308.290296 
L 360.110159 307.459904 
L 354.382264 306.469862 
L 351.755138 305.750247 
L 343.400117 302.795522 
L 335.045095 299.527144 
L 330.399421 297.539232 
L 326.690074 293.858869 
L 321.561641 288.608602 
z
M 440.454605 127.857256 
L 443.660371 122.309558 
L 446.166438 118.926626 
L 452.015392 116.059495 
L 460.370413 112.990553 
L 468.725434 111.218094 
L 477.080456 111.324392 
L 485.435477 114.197485 
L 491.217729 118.926626 
L 493.790498 126.125008 
L 494.189115 127.857256 
L 493.790498 129.482129 
L 491.202816 136.787887 
L 485.435477 141.857728 
L 477.110357 145.718517 
L 477.080456 145.726488 
L 468.725434 146.324093 
L 462.919978 145.718517 
L 460.370413 145.276477 
L 452.015392 141.723599 
L 444.143005 136.787887 
L 443.660371 135.76824 
L 440.454605 127.857256 
z
" clip-path="url(#pf7381ca902)" style="fill: none; stroke: #7ad151; stroke-width: 1.5"/>
    <path d="M 282.071984 494.013099 
L 279.206934 485.082468 
L 281.694309 476.151838 
L 284.914968 472.466723 
L 291.937494 467.221208 
L 293.269989 466.63809 
L 301.625011 464.815017 
L 309.980032 464.69442 
L 318.335053 465.955271 
L 322.61076 467.221208 
L 326.690074 469.006097 
L 335.045095 474.195139 
L 337.58046 476.151838 
L 343.277274 485.082468 
L 342.092568 494.013099 
L 335.045095 500.222552 
L 330.123671 502.943729 
L 326.690074 503.970691 
L 318.335053 505.334091 
L 309.980032 505.61981 
L 301.625011 504.82565 
L 293.920072 502.943729 
L 293.269989 502.681032 
L 284.914968 496.928783 
L 282.071984 494.013099 
z
" clip-path="url(#pf7381ca902)" style="fill: none; stroke: #bddf26; stroke-width: 1.5"/>
    <path clip-path="url(#pf7381ca902)" style="fill: none; stroke: #fde725; stroke-width: 1.5"/>
   </g>
   <g id="patch_3">
    <path d="M 50.974375 538.66625 
L 50.974375 11.759062 
" style="fill: none; stroke: #000000; stroke-width: 0.8; stroke-linejoin: miter; stroke-linecap: square"/>
   </g>
   <g id="patch_4">
    <path d="M 543.920625 538.66625 
L 543.920625 11.759062 
" style="fill: none; stroke: #000000; stroke-width: 0.8; stroke-linejoin: miter; stroke-linecap: square"/>
   </g>
   <g id="patch_5">
    <path d="M 50.974375 538.66625 
L 543.920625 538.66625 
" style="fill: none; stroke: #000000; stroke-width: 0.8; stroke-linejoin: miter; stroke-linecap: square"/>
   </g>
   <g id="patch_6">
    <path d="M 50.974375 11.759062 
L 543.920625 11.759062 
" style="fill: none; stroke: #000000; stroke-width: 0.8; stroke-linejoin: miter; stroke-linecap: square"/>
   </g>
  </g>
 </g>
 <defs>
  <clipPath id="pf7381ca902">
   <rect x="50.974375" y="11.759062" width="492.94625" height="526.907187"/>
  </clipPath>
 </defs>
</svg>