<?xml version="1.0" encoding="utf-8" standalone="no"?>
<!DOCTYPE svg PUBLIC "-//W3C//DTD SVG 1.1//EN"
  "http://www.w3.org/Graphics/SVG/1.1/DTD/svg11.dtd">
<svg xmlns:xlink="http://www.w3.org/1999/xlink" width="708.48pt" height="708.48pt" viewBox="0 0 708.48 708.48" xmlns="http://www.w3.org/2000/svg" version="1.1">
 <metadata>
  <rdf:RDF xmlns:dc="http://purl.org/dc/elements/1.1/" xmlns:cc="http://creativecommons.org/ns#" xmlns:rdf="http://www.w3.org/1999/02/22-rdf-syntax-ns#">
   <cc:Work>
    <dc:type rdf:resource="http://purl.org/dc/dcmitype/StillImage"/>
    <dc:date>2025-03-03T21:32:17.520613</dc:date>
    <dc:format>image/svg+xml</dc:format>
    <dc:creator>
     <cc:Agent>
      <dc:title>Matplotlib v3.10.1, https://matplotlib.org/</dc:title>
     </cc:Agent>
    </dc:creator>
   </cc:Work>
  </rdf:RDF>
 </metadata>
 <defs>
  <style type="text/css">*{stroke-linejoin: round; stroke-linecap: butt}</style>
 </defs>
 <g id="figure_1">
  <g id="patch_1">
   <path d="M 0 708.48 
L 708.48 708.48 
L 708.48 0 
L 0 0 
z
" style="fill: #ffffff"/>
  </g>
  <g id="patch_2">
   <path d="M 7.2 701.28 
L 701.28 701.28 
L 701.28 7.2 
L 7.2 7.2 
z
" style="fill: #ffffff"/>
  </g>
  <g id="pane3d_1">
   <g id="patch_3">
    <path d="M 649.265605 475.241366 
L 465.744542 96.034674 
L 475.004233 13.491653 
L 675.675393 426.132285 
" style="fill: #f2f2f2; opacity: 0.5; stroke: #f2f2f2; stroke-linejoin: miter"/>
   </g>
  </g>
  <g id="pane3d_2">
   <g id="patch_4">
    <path d="M 80.696174 271.176094 
L 465.744542 96.034674 
L 475.004233 13.491653 
L 54.810292 203.907144 
" style="fill: #e6e6e6; opacity: 0.5; stroke: #e6e6e6; stroke-linejoin: miter"/>
   </g>
  </g>
  <g id="pane3d_3">
   <g id="patch_5">
    <path d="M 258.771108 656.783622 
L 649.265605 475.241366 
L 465.744542 96.034674 
L 80.696174 271.176094 
" style="fill: #ececec; opacity: 0.5; stroke: #ececec; stroke-linejoin: miter"/>
   </g>
  </g>
  <g id="grid3d_1">
   <g id="Line3DCollection_1">
    <path d="M 267.643897 652.658632 
L 89.443933 267.197126 
L 64.363558 199.577977 
" style="fill: none; stroke: #b0b0b0; stroke-width: 0.8"/>
    <path d="M 330.211685 623.570648 
L 151.131743 239.138078 
L 131.722375 169.05359 
" style="fill: none; stroke: #b0b0b0; stroke-width: 0.8"/>
    <path d="M 392.611069 594.560957 
L 212.656475 211.153207 
L 198.88688 138.617259 
" style="fill: none; stroke: #b0b0b0; stroke-width: 0.8"/>
    <path d="M 454.842728 565.629241 
L 274.018774 183.24222 
L 265.857911 108.268601 
" style="fill: none; stroke: #b0b0b0; stroke-width: 0.8"/>
    <path d="M 516.907337 536.775188 
L 335.219283 155.404824 
L 332.636305 78.00724 
" style="fill: none; stroke: #b0b0b0; stroke-width: 0.8"/>
    <path d="M 578.805567 507.998484 
L 396.25864 127.640728 
L 399.222889 47.832799 
" style="fill: none; stroke: #b0b0b0; stroke-width: 0.8"/>
    <path d="M 640.538088 479.298819 
L 457.137482 99.949644 
L 465.618491 17.744904 
" style="fill: none; stroke: #b0b0b0; stroke-width: 0.8"/>
   </g>
  </g>
  <g id="grid3d_2">
   <g id="Line3DCollection_2">
    <path d="M 675.675393 426.132285 
L 649.265605 475.241366 
L 258.771108 656.783622 
" style="fill: none; stroke: #b0b0b0; stroke-width: 0.8"/>
    <path d="M 641.682933 356.233501 
L 618.220497 411.093347 
L 228.643528 591.544673 
" style="fill: none; stroke: #b0b0b0; stroke-width: 0.8"/>
    <path d="M 607.912236 286.790729 
L 587.360885 347.328616 
L 198.697479 526.698815 
" style="fill: none; stroke: #b0b0b0; stroke-width: 0.8"/>
    <path d="M 574.361139 217.79952 
L 556.685112 283.943747 
L 168.931326 462.242508 
" style="fill: none; stroke: #b0b0b0; stroke-width: 0.8"/>
    <path d="M 541.027507 149.255484 
L 526.19154 220.935357 
L 139.343453 398.17225 
" style="fill: none; stroke: #b0b0b0; stroke-width: 0.8"/>
    <path d="M 507.909231 81.154287 
L 495.878549 158.300101 
L 109.932261 334.484584 
" style="fill: none; stroke: #b0b0b0; stroke-width: 0.8"/>
    <path d="M 475.004233 13.491653 
L 465.744542 96.034674 
L 80.696174 271.176094 
" style="fill: none; stroke: #b0b0b0; stroke-width: 0.8"/>
   </g>
  </g>
  <g id="grid3d_3">
   <g id="Line3DCollection_3">
    <path d="M 80.696174 271.176094 
L 465.744542 96.034674 
L 649.265605 475.241366 
" style="fill: none; stroke: #b0b0b0; stroke-width: 0.8"/>
    <path d="M 77.700283 263.39075 
L 466.816924 86.475209 
L 652.31975 469.562174 
" style="fill: none; stroke: #b0b0b0; stroke-width: 0.8"/>
    <path d="M 74.640265 255.438764 
L 467.912067 76.712852 
L 655.439912 463.760224 
" style="fill: none; stroke: #b0b0b0; stroke-width: 0.8"/>
    <path d="M 71.514039 247.314725 
L 469.030703 66.741074 
L 658.628253 457.831494 
" style="fill: none; stroke: #b0b0b0; stroke-width: 0.8"/>
    <path d="M 68.319434 239.01299 
L 470.173596 56.553064 
L 661.887033 451.771781 
" style="fill: none; stroke: #b0b0b0; stroke-width: 0.8"/>
    <path d="M 65.05418 230.527663 
L 471.341543 46.141711 
L 665.218614 445.576697 
" style="fill: none; stroke: #b0b0b0; stroke-width: 0.8"/>
    <path d="M 61.715909 221.852587 
L 472.535379 35.499588 
L 668.625461 439.241655 
" style="fill: none; stroke: #b0b0b0; stroke-width: 0.8"/>
    <path d="M 58.302143 212.981325 
L 473.755972 24.618939 
L 672.110154 432.761857 
" style="fill: none; stroke: #b0b0b0; stroke-width: 0.8"/>
    <path d="M 54.810292 203.907144 
L 475.004233 13.491653 
L 675.675393 426.132285 
" style="fill: none; stroke: #b0b0b0; stroke-width: 0.8"/>
   </g>
  </g>
  <g id="axis3d_1">
   <g id="line2d_1">
    <path d="M 649.265605 475.241366 
L 258.771108 656.783622 
" style="fill: none; stroke: #000000; stroke-width: 0.8; stroke-linecap: square"/>
   </g>
   <g id="xtick_1">
    <g id="line2d_2">
     <path d="M 266.192587 649.519328 
L 270.547782 658.939981 
" style="fill: none; stroke: #000000; stroke-width: 0.8; stroke-linecap: square"/>
    </g>
    <g id="text_1">
     <!-- −3 -->
     <g transform="translate(264.818213 675.193584) scale(0.12 -0.12)">
      <defs>
       <path id="DejaVuSerif-2212" d="M 678 2259 
L 4684 2259 
L 4684 1753 
L 678 1753 
L 678 2259 
z
" transform="scale(0.015625)"/>
       <path id="DejaVuSerif-33" d="M 622 4469 
Q 988 4606 1323 4678 
Q 1659 4750 1953 4750 
Q 2638 4750 3022 4454 
Q 3406 4159 3406 3634 
Q 3406 3213 3140 2930 
Q 2875 2647 2388 2547 
Q 2963 2466 3280 2130 
Q 3597 1794 3597 1259 
Q 3597 606 3158 257 
Q 2719 -91 1894 -91 
Q 1528 -91 1179 -12 
Q 831 66 488 225 
L 488 1131 
L 838 1131 
Q 869 681 1141 450 
Q 1413 219 1906 219 
Q 2384 219 2661 495 
Q 2938 772 2938 1253 
Q 2938 1803 2653 2086 
Q 2369 2369 1819 2369 
L 1522 2369 
L 1522 2688 
L 1678 2688 
Q 2225 2688 2498 2914 
Q 2772 3141 2772 3597 
Q 2772 4006 2547 4223 
Q 2322 4441 1900 4441 
Q 1478 4441 1245 4241 
Q 1013 4041 972 3647 
L 622 3647 
L 622 4469 
z
" transform="scale(0.015625)"/>
      </defs>
      <use xlink:href="#DejaVuSerif-2212"/>
      <use xlink:href="#DejaVuSerif-33" transform="translate(83.789062 0)"/>
     </g>
    </g>
   </g>
   <g id="xtick_2">
    <g id="line2d_3">
     <path d="M 328.753244 620.439799 
L 333.129839 629.835077 
" style="fill: none; stroke: #000000; stroke-width: 0.8; stroke-linecap: square"/>
    </g>
    <g id="text_2">
     <!-- −2 -->
     <g transform="translate(327.244714 646.149481) scale(0.12 -0.12)">
      <defs>
       <path id="DejaVuSerif-32" d="M 819 3553 
L 469 3553 
L 469 4384 
Q 803 4563 1142 4656 
Q 1481 4750 1806 4750 
Q 2534 4750 2956 4397 
Q 3378 4044 3378 3438 
Q 3378 2753 2422 1800 
Q 2347 1728 2309 1691 
L 1131 513 
L 3078 513 
L 3078 1088 
L 3444 1088 
L 3444 0 
L 434 0 
L 434 341 
L 1850 1753 
Q 2319 2222 2519 2614 
Q 2719 3006 2719 3438 
Q 2719 3909 2473 4175 
Q 2228 4441 1797 4441 
Q 1350 4441 1106 4219 
Q 863 3997 819 3553 
z
" transform="scale(0.015625)"/>
      </defs>
      <use xlink:href="#DejaVuSerif-2212"/>
      <use xlink:href="#DejaVuSerif-32" transform="translate(83.789062 0)"/>
     </g>
    </g>
   </g>
   <g id="xtick_3">
    <g id="line2d_4">
     <path d="M 391.145539 591.438528 
L 395.543404 600.808533 
" style="fill: none; stroke: #000000; stroke-width: 0.8; stroke-linecap: square"/>
    </g>
    <g id="text_3">
     <!-- −1 -->
     <g transform="translate(389.503549 617.183385) scale(0.12 -0.12)">
      <defs>
       <path id="DejaVuSerif-31" d="M 909 0 
L 909 331 
L 1722 331 
L 1722 4213 
L 781 3603 
L 781 4013 
L 1919 4750 
L 2350 4750 
L 2350 331 
L 3163 331 
L 3163 0 
L 909 0 
z
" transform="scale(0.015625)"/>
      </defs>
      <use xlink:href="#DejaVuSerif-2212"/>
      <use xlink:href="#DejaVuSerif-31" transform="translate(83.789062 0)"/>
     </g>
    </g>
   </g>
   <g id="xtick_4">
    <g id="line2d_5">
     <path d="M 453.370153 562.515199 
L 457.789158 571.860033 
" style="fill: none; stroke: #000000; stroke-width: 0.8; stroke-linecap: square"/>
    </g>
    <g id="text_4">
     <!-- 0 -->
     <g transform="translate(456.623203 588.294982) scale(0.12 -0.12)">
      <defs>
       <path id="DejaVuSerif-30" d="M 2034 219 
Q 2513 219 2750 744 
Q 2988 1269 2988 2328 
Q 2988 3391 2750 3916 
Q 2513 4441 2034 4441 
Q 1556 4441 1318 3916 
Q 1081 3391 1081 2328 
Q 1081 1269 1318 744 
Q 1556 219 2034 219 
z
M 2034 -91 
Q 1275 -91 848 546 
Q 422 1184 422 2328 
Q 422 3475 848 4112 
Q 1275 4750 2034 4750 
Q 2797 4750 3222 4112 
Q 3647 3475 3647 2328 
Q 3647 1184 3222 546 
Q 2797 -91 2034 -91 
z
" transform="scale(0.015625)"/>
      </defs>
      <use xlink:href="#DejaVuSerif-30"/>
     </g>
    </g>
   </g>
   <g id="xtick_5">
    <g id="line2d_6">
     <path d="M 515.42776 533.669498 
L 519.867775 542.989263 
" style="fill: none; stroke: #000000; stroke-width: 0.8; stroke-linecap: square"/>
    </g>
    <g id="text_5">
     <!-- 1 -->
     <g transform="translate(518.548724 559.483961) scale(0.12 -0.12)">
      <use xlink:href="#DejaVuSerif-31"/>
     </g>
    </g>
   </g>
   <g id="xtick_6">
    <g id="line2d_7">
     <path d="M 577.319032 504.901114 
L 581.779928 514.19591 
" style="fill: none; stroke: #000000; stroke-width: 0.8; stroke-linecap: square"/>
    </g>
    <g id="text_6">
     <!-- 2 -->
     <g transform="translate(580.308592 530.75001) scale(0.12 -0.12)">
      <use xlink:href="#DejaVuSerif-32"/>
     </g>
    </g>
   </g>
   <g id="xtick_7">
    <g id="line2d_8">
     <path d="M 639.044635 476.209735 
L 643.526286 485.479663 
" style="fill: none; stroke: #000000; stroke-width: 0.8; stroke-linecap: square"/>
    </g>
    <g id="text_7">
     <!-- 3 -->
     <g transform="translate(641.903469 502.092822) scale(0.12 -0.12)">
      <use xlink:href="#DejaVuSerif-33"/>
     </g>
    </g>
   </g>
   <g id="text_8">
    <!-- x -->
    <g transform="translate(463.598548 598.318611) scale(0.12 -0.12)">
     <defs>
      <path id="DejaVuSerif-78" d="M 1863 2028 
L 2559 2988 
L 2113 2988 
L 2113 3322 
L 3391 3322 
L 3391 2988 
L 2950 2988 
L 2059 1759 
L 3097 331 
L 3531 331 
L 3531 0 
L 1997 0 
L 1997 331 
L 2419 331 
L 1697 1325 
L 972 331 
L 1403 331 
L 1403 0 
L 141 0 
L 141 331 
L 581 331 
L 1497 1594 
L 488 2988 
L 78 2988 
L 78 3322 
L 1563 3322 
L 1563 2988 
L 1166 2988 
L 1863 2028 
z
" transform="scale(0.015625)"/>
     </defs>
     <use xlink:href="#DejaVuSerif-78"/>
    </g>
   </g>
  </g>
  <g id="axis3d_2">
   <g id="line2d_9">
    <path d="M 80.696174 271.176094 
L 258.771108 656.783622 
" style="fill: none; stroke: #000000; stroke-width: 0.8; stroke-linecap: square"/>
   </g>
   <g id="xtick_8">
    <g id="line2d_10">
     <path d="M 261.921342 655.319068 
L 252.469357 659.713328 
" style="fill: none; stroke: #000000; stroke-width: 0.8; stroke-linecap: square"/>
    </g>
    <g id="text_9">
     <!-- 0.000 -->
     <g transform="translate(229.38106 672.658657) scale(0.12 -0.12)">
      <defs>
       <path id="DejaVuSerif-2e" d="M 603 325 
Q 603 500 722 622 
Q 841 744 1019 744 
Q 1191 744 1312 622 
Q 1434 500 1434 325 
Q 1434 153 1312 31 
Q 1191 -91 1019 -91 
Q 841 -91 722 29 
Q 603 150 603 325 
z
" transform="scale(0.015625)"/>
      </defs>
      <use xlink:href="#DejaVuSerif-30"/>
      <use xlink:href="#DejaVuSerif-2e" transform="translate(63.623047 0)"/>
      <use xlink:href="#DejaVuSerif-30" transform="translate(95.410156 0)"/>
      <use xlink:href="#DejaVuSerif-30" transform="translate(159.033203 0)"/>
      <use xlink:href="#DejaVuSerif-30" transform="translate(222.65625 0)"/>
     </g>
    </g>
   </g>
   <g id="xtick_9">
    <g id="line2d_11">
     <path d="M 231.786281 590.088956 
L 222.356747 594.456698 
" style="fill: none; stroke: #000000; stroke-width: 0.8; stroke-linecap: square"/>
    </g>
    <g id="text_10">
     <!-- 0.001 -->
     <g transform="translate(199.363568 607.558002) scale(0.12 -0.12)">
      <use xlink:href="#DejaVuSerif-30"/>
      <use xlink:href="#DejaVuSerif-2e" transform="translate(63.623047 0)"/>
      <use xlink:href="#DejaVuSerif-30" transform="translate(95.410156 0)"/>
      <use xlink:href="#DejaVuSerif-30" transform="translate(159.033203 0)"/>
      <use xlink:href="#DejaVuSerif-31" transform="translate(222.65625 0)"/>
     </g>
    </g>
   </g>
   <g id="xtick_10">
    <g id="line2d_12">
     <path d="M 201.832784 525.251856 
L 192.425602 529.59332 
" style="fill: none; stroke: #000000; stroke-width: 0.8; stroke-linecap: square"/>
    </g>
    <g id="text_11">
     <!-- 0.002 -->
     <g transform="translate(169.526505 542.848655) scale(0.12 -0.12)">
      <use xlink:href="#DejaVuSerif-30"/>
      <use xlink:href="#DejaVuSerif-2e" transform="translate(63.623047 0)"/>
      <use xlink:href="#DejaVuSerif-30" transform="translate(95.410156 0)"/>
      <use xlink:href="#DejaVuSerif-30" transform="translate(159.033203 0)"/>
      <use xlink:href="#DejaVuSerif-32" transform="translate(222.65625 0)"/>
     </g>
    </g>
   </g>
   <g id="xtick_11">
    <g id="line2d_13">
     <path d="M 172.059215 460.804227 
L 162.674287 465.119649 
" style="fill: none; stroke: #000000; stroke-width: 0.8; stroke-linecap: square"/>
    </g>
    <g id="text_12">
     <!-- 0.003 -->
     <g transform="translate(139.868249 478.527098) scale(0.12 -0.12)">
      <use xlink:href="#DejaVuSerif-30"/>
      <use xlink:href="#DejaVuSerif-2e" transform="translate(63.623047 0)"/>
      <use xlink:href="#DejaVuSerif-30" transform="translate(95.410156 0)"/>
      <use xlink:href="#DejaVuSerif-30" transform="translate(159.033203 0)"/>
      <use xlink:href="#DejaVuSerif-33" transform="translate(222.65625 0)"/>
     </g>
    </g>
   </g>
   <g id="xtick_12">
    <g id="line2d_14">
     <path d="M 142.463958 396.74257 
L 133.101186 401.032183 
" style="fill: none; stroke: #000000; stroke-width: 0.8; stroke-linecap: square"/>
    </g>
    <g id="text_13">
     <!-- 0.004 -->
     <g transform="translate(110.387199 414.589855) scale(0.12 -0.12)">
      <defs>
       <path id="DejaVuSerif-34" d="M 2234 1581 
L 2234 4063 
L 641 1581 
L 2234 1581 
z
M 3609 0 
L 1484 0 
L 1484 331 
L 2234 331 
L 2234 1247 
L 197 1247 
L 197 1588 
L 2241 4750 
L 2859 4750 
L 2859 1581 
L 3750 1581 
L 3750 1247 
L 2859 1247 
L 2859 331 
L 3609 331 
L 3609 0 
z
" transform="scale(0.015625)"/>
      </defs>
      <use xlink:href="#DejaVuSerif-30"/>
      <use xlink:href="#DejaVuSerif-2e" transform="translate(63.623047 0)"/>
      <use xlink:href="#DejaVuSerif-30" transform="translate(95.410156 0)"/>
      <use xlink:href="#DejaVuSerif-30" transform="translate(159.033203 0)"/>
      <use xlink:href="#DejaVuSerif-34" transform="translate(222.65625 0)"/>
     </g>
    </g>
   </g>
   <g id="xtick_13">
    <g id="line2d_15">
     <path d="M 113.045416 333.063429 
L 103.704704 337.327464 
" style="fill: none; stroke: #000000; stroke-width: 0.8; stroke-linecap: square"/>
    </g>
    <g id="text_14">
     <!-- 0.005 -->
     <g transform="translate(81.08177 351.033493) scale(0.12 -0.12)">
      <defs>
       <path id="DejaVuSerif-35" d="M 3219 4666 
L 3219 4153 
L 1081 4153 
L 1081 2816 
Q 1244 2928 1461 2984 
Q 1678 3041 1947 3041 
Q 2703 3041 3140 2622 
Q 3578 2203 3578 1478 
Q 3578 738 3136 323 
Q 2694 -91 1894 -91 
Q 1572 -91 1234 -12 
Q 897 66 544 225 
L 544 1131 
L 897 1131 
Q 925 688 1179 453 
Q 1434 219 1894 219 
Q 2388 219 2653 544 
Q 2919 869 2919 1478 
Q 2919 2084 2655 2407 
Q 2391 2731 1894 2731 
Q 1613 2731 1398 2631 
Q 1184 2531 1019 2322 
L 750 2322 
L 750 4666 
L 3219 4666 
z
" transform="scale(0.015625)"/>
      </defs>
      <use xlink:href="#DejaVuSerif-30"/>
      <use xlink:href="#DejaVuSerif-2e" transform="translate(63.623047 0)"/>
      <use xlink:href="#DejaVuSerif-30" transform="translate(95.410156 0)"/>
      <use xlink:href="#DejaVuSerif-30" transform="translate(159.033203 0)"/>
      <use xlink:href="#DejaVuSerif-35" transform="translate(222.65625 0)"/>
     </g>
    </g>
   </g>
   <g id="xtick_14">
    <g id="line2d_16">
     <path d="M 83.80201 269.763387 
L 74.483261 274.002072 
" style="fill: none; stroke: #000000; stroke-width: 0.8; stroke-linecap: square"/>
    </g>
    <g id="text_15">
     <!-- 0.006 -->
     <g transform="translate(51.950397 287.854617) scale(0.12 -0.12)">
      <defs>
       <path id="DejaVuSerif-36" d="M 2094 219 
Q 2534 219 2771 542 
Q 3009 866 3009 1472 
Q 3009 2078 2771 2401 
Q 2534 2725 2094 2725 
Q 1647 2725 1412 2412 
Q 1178 2100 1178 1509 
Q 1178 888 1415 553 
Q 1653 219 2094 219 
z
M 1075 2569 
Q 1288 2803 1556 2918 
Q 1825 3034 2163 3034 
Q 2859 3034 3264 2615 
Q 3669 2197 3669 1472 
Q 3669 763 3233 336 
Q 2797 -91 2069 -91 
Q 1278 -91 853 498 
Q 428 1088 428 2181 
Q 428 3406 931 4078 
Q 1434 4750 2350 4750 
Q 2597 4750 2869 4703 
Q 3141 4656 3425 4563 
L 3425 3794 
L 3072 3794 
Q 3034 4109 2831 4275 
Q 2628 4441 2284 4441 
Q 1678 4441 1381 3981 
Q 1084 3522 1075 2569 
z
" transform="scale(0.015625)"/>
      </defs>
      <use xlink:href="#DejaVuSerif-30"/>
      <use xlink:href="#DejaVuSerif-2e" transform="translate(63.623047 0)"/>
      <use xlink:href="#DejaVuSerif-30" transform="translate(95.410156 0)"/>
      <use xlink:href="#DejaVuSerif-30" transform="translate(159.033203 0)"/>
      <use xlink:href="#DejaVuSerif-36" transform="translate(222.65625 0)"/>
     </g>
    </g>
   </g>
   <g id="text_16">
    <!-- t -->
    <g transform="translate(140.753629 481.088943) scale(0.12 -0.12)">
     <defs>
      <path id="DejaVuSerif-74" d="M 691 2988 
L 184 2988 
L 184 3322 
L 691 3322 
L 691 4353 
L 1269 4353 
L 1269 3322 
L 2350 3322 
L 2350 2988 
L 1269 2988 
L 1269 878 
Q 1269 456 1350 337 
Q 1431 219 1650 219 
Q 1875 219 1978 351 
Q 2081 484 2088 781 
L 2522 781 
Q 2497 328 2275 118 
Q 2053 -91 1600 -91 
Q 1103 -91 897 129 
Q 691 350 691 878 
L 691 2988 
z
" transform="scale(0.015625)"/>
     </defs>
     <use xlink:href="#DejaVuSerif-74"/>
    </g>
   </g>
  </g>
  <g id="axis3d_3">
   <g id="line2d_17">
    <path d="M 80.696174 271.176094 
L 54.810292 203.907144 
" style="fill: none; stroke: #000000; stroke-width: 0.8; stroke-linecap: square"/>
   </g>
   <g id="xtick_15">
    <g id="line2d_18">
     <path d="M 83.80201 269.763387 
L 74.483261 274.002072 
" style="fill: none; stroke: #000000; stroke-width: 0.8; stroke-linecap: square"/>
    </g>
    <g id="text_17">
     <!-- 0 -->
     <g transform="translate(58.969247 273.866346) scale(0.12 -0.12)">
      <use xlink:href="#DejaVuSerif-30"/>
     </g>
    </g>
   </g>
   <g id="xtick_16">
    <g id="line2d_19">
     <path d="M 80.839206 261.96361 
L 71.421168 266.245609 
" style="fill: none; stroke: #000000; stroke-width: 0.8; stroke-linecap: square"/>
    </g>
    <g id="text_18">
     <!-- 250 -->
     <g transform="translate(48.149688 266.015343) scale(0.12 -0.12)">
      <use xlink:href="#DejaVuSerif-32"/>
      <use xlink:href="#DejaVuSerif-35" transform="translate(63.623047 0)"/>
      <use xlink:href="#DejaVuSerif-30" transform="translate(127.246094 0)"/>
     </g>
    </g>
   </g>
   <g id="xtick_17">
    <g id="line2d_20">
     <path d="M 77.812988 253.996891 
L 68.293523 258.323098 
" style="fill: none; stroke: #000000; stroke-width: 0.8; stroke-linecap: square"/>
    </g>
    <g id="text_19">
     <!-- 500 -->
     <g transform="translate(44.896984 257.996344) scale(0.12 -0.12)">
      <use xlink:href="#DejaVuSerif-35"/>
      <use xlink:href="#DejaVuSerif-30" transform="translate(63.623047 0)"/>
      <use xlink:href="#DejaVuSerif-30" transform="translate(127.246094 0)"/>
     </g>
    </g>
   </g>
   <g id="xtick_18">
    <g id="line2d_21">
     <path d="M 74.721298 245.857814 
L 65.098198 250.229149 
" style="fill: none; stroke: #000000; stroke-width: 0.8; stroke-linecap: square"/>
    </g>
    <g id="text_20">
     <!-- 750 -->
     <g transform="translate(41.573926 249.803897) scale(0.12 -0.12)">
      <defs>
       <path id="DejaVuSerif-37" d="M 3609 4347 
L 1784 0 
L 1319 0 
L 3059 4153 
L 903 4153 
L 903 3578 
L 538 3578 
L 538 4666 
L 3609 4666 
L 3609 4347 
z
" transform="scale(0.015625)"/>
      </defs>
      <use xlink:href="#DejaVuSerif-37"/>
      <use xlink:href="#DejaVuSerif-35" transform="translate(63.623047 0)"/>
      <use xlink:href="#DejaVuSerif-30" transform="translate(127.246094 0)"/>
     </g>
    </g>
   </g>
   <g id="xtick_19">
    <g id="line2d_22">
     <path d="M 71.561988 237.540724 
L 61.832972 241.958137 
" style="fill: none; stroke: #000000; stroke-width: 0.8; stroke-linecap: square"/>
    </g>
    <g id="text_21">
     <!-- 1000 -->
     <g transform="translate(34.360706 241.432314) scale(0.12 -0.12)">
      <use xlink:href="#DejaVuSerif-31"/>
      <use xlink:href="#DejaVuSerif-30" transform="translate(63.623047 0)"/>
      <use xlink:href="#DejaVuSerif-30" transform="translate(127.246094 0)"/>
      <use xlink:href="#DejaVuSerif-30" transform="translate(190.869141 0)"/>
     </g>
    </g>
   </g>
   <g id="xtick_20">
    <g id="line2d_23">
     <path d="M 68.332816 229.039716 
L 58.495525 233.504187 
" style="fill: none; stroke: #000000; stroke-width: 0.8; stroke-linecap: square"/>
    </g>
    <g id="text_22">
     <!-- 1250 -->
     <g transform="translate(30.889915 232.875655) scale(0.12 -0.12)">
      <use xlink:href="#DejaVuSerif-31"/>
      <use xlink:href="#DejaVuSerif-32" transform="translate(63.623047 0)"/>
      <use xlink:href="#DejaVuSerif-35" transform="translate(127.246094 0)"/>
      <use xlink:href="#DejaVuSerif-30" transform="translate(190.869141 0)"/>
     </g>
    </g>
   </g>
   <g id="xtick_21">
    <g id="line2d_24">
     <path d="M 65.031438 220.348621 
L 55.083436 224.861162 
" style="fill: none; stroke: #000000; stroke-width: 0.8; stroke-linecap: square"/>
    </g>
    <g id="text_23">
     <!-- 1500 -->
     <g transform="translate(27.341534 224.127712) scale(0.12 -0.12)">
      <use xlink:href="#DejaVuSerif-31"/>
      <use xlink:href="#DejaVuSerif-35" transform="translate(63.623047 0)"/>
      <use xlink:href="#DejaVuSerif-30" transform="translate(127.246094 0)"/>
      <use xlink:href="#DejaVuSerif-30" transform="translate(190.869141 0)"/>
     </g>
    </g>
   </g>
   <g id="xtick_22">
    <g id="line2d_25">
     <path d="M 61.655405 211.460991 
L 51.594172 216.022648 
" style="fill: none; stroke: #000000; stroke-width: 0.8; stroke-linecap: square"/>
    </g>
    <g id="text_24">
     <!-- 1750 -->
     <g transform="translate(23.712933 215.182) scale(0.12 -0.12)">
      <use xlink:href="#DejaVuSerif-31"/>
      <use xlink:href="#DejaVuSerif-37" transform="translate(63.623047 0)"/>
      <use xlink:href="#DejaVuSerif-35" transform="translate(127.246094 0)"/>
      <use xlink:href="#DejaVuSerif-30" transform="translate(190.869141 0)"/>
     </g>
    </g>
   </g>
   <g id="xtick_23">
    <g id="line2d_26">
     <path d="M 58.202156 202.370084 
L 48.025084 206.981936 
" style="fill: none; stroke: #000000; stroke-width: 0.8; stroke-linecap: square"/>
    </g>
    <g id="text_25">
     <!-- 2000 -->
     <g transform="translate(20.00136 206.031734) scale(0.12 -0.12)">
      <use xlink:href="#DejaVuSerif-32"/>
      <use xlink:href="#DejaVuSerif-30" transform="translate(63.623047 0)"/>
      <use xlink:href="#DejaVuSerif-30" transform="translate(127.246094 0)"/>
      <use xlink:href="#DejaVuSerif-30" transform="translate(190.869141 0)"/>
     </g>
    </g>
   </g>
   <g id="text_26">
    <!-- u -->
    <g transform="translate(23.842475 227.767037) scale(0.12 -0.12)">
     <defs>
      <path id="DejaVuSerif-75" d="M 2266 3322 
L 3341 3322 
L 3341 331 
L 3884 331 
L 3884 0 
L 2766 0 
L 2766 588 
Q 2606 256 2353 82 
Q 2100 -91 1766 -91 
Q 1213 -91 952 223 
Q 691 538 691 1209 
L 691 2988 
L 172 2988 
L 172 3322 
L 1269 3322 
L 1269 1388 
Q 1269 781 1417 556 
Q 1566 331 1947 331 
Q 2347 331 2556 625 
Q 2766 919 2766 1478 
L 2766 2988 
L 2266 2988 
L 2266 3322 
z
" transform="scale(0.015625)"/>
     </defs>
     <use xlink:href="#DejaVuSerif-75"/>
    </g>
   </g>
  </g>
  <g id="axes_1">
   <g id="Line3DCollection_4">
    <path d="M 258.771108 656.783622 
L 312.535473 631.679616 
L 315.574147 630.005935 
L 317.07386 628.998356 
L 318.546973 627.747013 
L 319.97454 626.059639 
L 321.326628 623.615059 
L 322.561269 619.927818 
L 323.634992 614.417895 
L 324.54466 606.818886 
L 325.412601 598.159056 
L 326.534741 591.603101 
L 328.190967 590.747775 
L 330.317299 595.683301 
L 332.57072 602.885877 
L 334.688304 609.126345 
L 336.606313 613.299285 
L 338.365314 615.634807 
L 340.022678 616.705644 
L 341.621578 617.000864 
L 343.188642 616.847168 
L 344.738874 616.441379 
L 347.817281 615.274829 
L 353.950218 612.522458 
L 367.735363 606.038019 
L 372.333466 603.705243 
L 375.406767 601.946489 
L 378.498364 599.813086 
L 380.057762 598.502919 
L 381.631994 596.953384 
L 383.226729 595.100532 
L 384.847758 592.895898 
L 388.177008 587.549113 
L 389.869183 584.77213 
L 391.548885 582.407898 
L 393.182696 580.872126 
L 394.744179 580.403723 
L 396.227575 580.92801 
L 397.649795 582.101927 
L 400.424661 584.778835 
L 401.822809 585.756827 
L 403.242526 586.378491 
L 404.685205 586.668493 
L 406.148517 586.684573 
L 407.628749 586.489789 
L 410.625282 585.678434 
L 413.651127 584.545581 
L 419.740117 581.89965 
L 435.004949 574.850929 
L 647.753013 475.944576 
L 647.753013 475.944576 
" clip-path="url(#p609e446d32)" style="fill: none; stroke: #1f77b4; stroke-opacity: 0.5; stroke-width: 1.5"/>
    <path d="M 251.581795 641.214321 
L 282.31267 626.951222 
L 296.12427 620.519278 
L 305.331858 616.258696 
L 314.520256 611.881071 
L 317.558765 610.210543 
L 319.057956 609.184464 
L 320.53464 607.927684 
L 321.970929 606.241552 
L 323.334139 603.74776 
L 324.59374 600.02751 
L 325.701576 594.398429 
L 326.654675 586.56898 
L 327.562213 577.528343 
L 328.688537 570.400361 
L 330.31133 569.132153 
L 332.38606 574.0672 
L 334.595848 581.634565 
L 336.686234 588.359138 
L 338.586334 592.901926 
L 340.33523 595.49971 
L 341.986159 596.730007 
L 343.58013 597.105364 
L 345.144606 597.0147 
L 346.69206 596.629688 
L 349.766933 595.495877 
L 357.423995 592.039425 
L 368.137437 586.835918 
L 371.203833 585.116387 
L 374.282056 583.081334 
L 375.830686 581.84179 
L 377.389536 580.399188 
L 378.96464 578.645075 
L 380.559503 576.573762 
L 382.180676 574.10995 
L 387.170399 565.718301 
L 388.818407 563.692664 
L 390.413559 562.68924 
L 391.940001 562.789732 
L 393.400394 563.784993 
L 397.624526 567.87395 
L 399.045388 568.724839 
L 400.484891 569.227439 
L 401.945428 569.395282 
L 403.421987 569.320956 
L 404.911089 569.067406 
L 407.919085 568.172021 
L 412.469737 566.356569 
L 423.140572 561.523758 
L 467.352448 541.001063 
L 485.626066 532.502936 
L 506.919876 522.624371 
L 517.565613 517.667571 
L 535.797777 509.197014 
L 570.699494 492.988913 
L 640.342559 460.647879 
L 640.342559 460.647879 
" clip-path="url(#p609e446d32)" style="fill: none; stroke: #1f77b4; stroke-opacity: 0.5; stroke-width: 1.5"/>
    <path d="M 244.408872 625.686879 
L 255.156042 620.675224 
L 261.303394 617.841896 
L 270.509025 613.546048 
L 276.653854 610.724773 
L 282.784847 607.848666 
L 288.925094 605.026701 
L 295.055225 602.160355 
L 301.189872 599.33057 
L 310.380846 595.033265 
L 314.972223 592.857403 
L 318.02083 591.294556 
L 319.537565 590.435497 
L 321.039578 589.422119 
L 322.517894 588.145038 
L 323.961646 586.457189 
L 325.337891 583.943327 
L 326.61798 580.165212 
L 327.760492 574.451444 
L 328.755388 566.399771 
L 329.701739 556.975425 
L 330.838157 549.293976 
L 332.430438 547.558494 
L 334.456687 552.467569 
L 338.683474 567.583549 
L 340.565295 572.520003 
L 342.302457 575.377011 
L 343.946818 576.783033 
L 345.535536 577.239297 
L 347.096947 577.210373 
L 348.641909 576.854918 
L 351.71288 575.748325 
L 359.361875 572.266795 
L 365.4789 569.161098 
L 368.54209 567.386347 
L 371.617243 565.200416 
L 373.164955 563.813648 
L 374.722834 562.201376 
L 376.296584 560.243467 
L 377.891241 557.891734 
L 379.508922 555.198775 
L 382.806114 549.286289 
L 384.454887 546.820033 
L 386.072059 545.239983 
L 387.632358 544.860087 
L 389.133723 545.50055 
L 390.583939 546.855732 
L 393.424044 549.852608 
L 394.847364 550.981242 
L 396.289068 551.68406 
L 397.746889 552.047584 
L 399.219574 552.130644 
L 400.708506 551.950185 
L 402.204398 551.646083 
L 405.222386 550.661726 
L 408.256219 549.454289 
L 414.34289 546.784429 
L 447.875264 531.236647 
L 458.531116 526.30919 
L 467.668275 522.049741 
L 478.314499 517.125722 
L 490.48184 511.473283 
L 519.353026 498.066155 
L 528.453652 493.864693 
L 539.084073 488.910402 
L 548.177379 484.708833 
L 558.797832 479.763392 
L 569.406293 474.8403 
L 619.342017 451.68328 
L 628.423916 447.447417 
L 632.960069 445.337841 
L 632.960069 445.337841 
" clip-path="url(#p609e446d32)" style="fill: none; stroke: #1f77b4; stroke-opacity: 0.5; stroke-width: 1.5"/>
    <path d="M 237.234469 610.144209 
L 247.987645 605.179766 
L 255.661374 601.622529 
L 264.861587 597.335236 
L 275.600657 592.377404 
L 283.264851 588.822701 
L 293.989724 583.843197 
L 315.423643 573.87373 
L 319.997361 571.568315 
L 321.512554 570.696013 
L 323.016962 569.696032 
L 324.497431 568.405501 
L 325.947125 566.707692 
L 327.336299 564.186281 
L 328.635419 560.35115 
L 329.810632 554.560817 
L 330.846986 546.310931 
L 331.83165 536.501981 
L 332.982948 528.284607 
L 334.548474 526.036089 
L 336.528719 530.88457 
L 340.680108 546.797174 
L 342.543059 552.151788 
L 344.267253 555.267988 
L 345.904202 556.852957 
L 347.488108 557.410211 
L 349.045327 557.419935 
L 350.588239 557.111765 
L 353.654676 556.007814 
L 358.240304 553.913341 
L 362.823868 551.524261 
L 365.883386 549.655793 
L 368.954725 547.252668 
L 370.499834 545.736833 
L 372.056241 543.887839 
L 373.627133 541.70953 
L 375.218638 539.08427 
L 380.101859 530.211201 
L 381.724756 528.14349 
L 383.312352 527.143089 
L 384.847729 527.357977 
L 386.331921 528.519727 
L 390.649548 533.088002 
L 392.094195 534.043442 
L 393.550523 534.646431 
L 395.024917 534.851933 
L 396.50841 534.842851 
L 398.003935 534.606982 
L 401.0155 533.760197 
L 405.564869 531.969761 
L 420.791753 525.056441 
L 426.888738 522.203384 
L 432.976751 519.407361 
L 439.070646 516.559139 
L 445.15656 513.753568 
L 454.290994 509.49553 
L 460.369528 506.707058 
L 466.45873 503.855821 
L 472.535036 501.060834 
L 481.66048 496.805026 
L 487.730405 494.01907 
L 496.84944 489.770158 
L 531.746351 473.601486 
L 543.875864 467.970804 
L 572.656142 454.617493 
L 581.725548 450.434265 
L 592.326524 445.493574 
L 598.364399 442.71472 
L 607.446136 438.480897 
L 616.504089 434.296096 
L 625.559984 430.108577 
L 625.559984 430.108577 
" clip-path="url(#p609e446d32)" style="fill: none; stroke: #1f77b4; stroke-opacity: 0.5; stroke-width: 1.5"/>
    <path d="M 230.082692 594.662597 
L 248.490805 586.125172 
L 265.356475 578.321133 
L 283.736754 569.793123 
L 294.454516 564.835362 
L 321.97029 551.880832 
L 324.989286 549.995321 
L 326.473588 548.713918 
L 327.927621 546.993155 
L 329.328693 544.466174 
L 330.646831 540.592245 
L 331.851664 534.715088 
L 332.929393 526.298415 
L 333.952803 516.117904 
L 335.121459 507.357122 
L 336.666459 504.59332 
L 338.601241 509.307768 
L 342.676368 526.000447 
L 344.51895 531.780862 
L 346.229837 535.17467 
L 347.858139 536.928319 
L 349.436962 537.591895 
L 350.989959 537.63877 
L 352.529939 537.350626 
L 355.591521 536.201446 
L 358.64542 534.69269 
L 360.172181 533.870862 
L 363.227324 531.872111 
L 364.758028 530.677522 
L 366.293123 529.238092 
L 367.83496 527.552368 
L 369.387499 525.484817 
L 370.954899 522.999721 
L 372.540131 520.149558 
L 375.763958 513.912003 
L 377.383338 511.332894 
L 378.983762 509.738546 
L 380.545728 509.429068 
L 382.064643 510.204478 
L 383.543472 511.740532 
L 386.447268 515.06192 
L 387.89702 516.31847 
L 389.359209 517.106534 
L 390.831152 517.552492 
L 392.314861 517.676088 
L 393.809794 517.534274 
L 395.309552 517.263393 
L 398.329996 516.31028 
L 401.363588 515.108908 
L 405.923845 513.128224 
L 412.010962 510.365369 
L 425.712129 504.02152 
L 439.404234 497.686515 
L 453.091317 491.335001 
L 463.729807 486.406912 
L 510.78336 464.612485 
L 563.794408 440.053617 
L 584.960759 430.25628 
L 595.540627 425.350435 
L 618.194447 414.849012 
L 618.194447 414.849012 
" clip-path="url(#p609e446d32)" style="fill: none; stroke: #1f77b4; stroke-opacity: 0.5; stroke-width: 1.5"/>
    <path d="M 222.934209 579.18151 
L 322.418361 533.016548 
L 325.45279 531.342342 
L 326.957345 530.326006 
L 328.445013 529.054053 
L 329.90355 527.316564 
L 331.314768 524.773855 
L 332.651602 520.877421 
L 333.883907 514.909586 
L 335.002009 506.34767 
L 336.065117 495.821308 
L 337.254387 486.529149 
L 338.784032 483.24254 
L 340.675634 487.771471 
L 344.672485 505.195005 
L 346.492374 511.382439 
L 348.189358 515.067176 
L 349.807764 516.965652 
L 351.380854 517.721522 
L 352.92914 517.772882 
L 354.465484 517.448259 
L 355.994966 516.844381 
L 357.521589 516.070909 
L 359.047141 515.148485 
L 360.572758 514.035774 
L 362.100224 512.737117 
L 363.63126 511.160379 
L 365.168642 509.237921 
L 366.715774 506.932399 
L 368.276929 504.160768 
L 373.053896 494.835475 
L 374.654436 492.688424 
L 376.234478 491.724617 
L 377.780137 492.057537 
L 379.289459 493.367369 
L 382.236261 496.9414 
L 383.699407 498.414802 
L 385.165868 499.500918 
L 386.641068 500.157606 
L 388.125959 500.444867 
L 389.618572 500.46542 
L 391.119169 500.258247 
L 394.135122 499.447771 
L 398.683622 497.674242 
L 406.284504 494.296724 
L 435.181261 480.933974 
L 465.559652 466.879657 
L 489.834832 455.641891 
L 532.255284 436.004547 
L 610.828638 399.635413 
L 610.828638 399.635413 
" clip-path="url(#p609e446d32)" style="fill: none; stroke: #1f77b4; stroke-opacity: 0.5; stroke-width: 1.5"/>
    <path d="M 215.796985 563.72578 
L 237.252907 553.812836 
L 246.436969 549.547777 
L 260.216976 543.195502 
L 275.511809 536.113601 
L 321.337358 514.87598 
L 325.902259 512.582575 
L 327.417008 511.716621 
L 328.921308 510.688309 
L 330.410325 509.402171 
L 331.874247 507.665727 
L 333.29353 505.085582 
L 334.647253 501.158383 
L 335.906909 495.124964 
L 337.062599 486.405834 
L 338.16907 475.62107 
L 339.383203 465.844198 
L 340.903271 462.057806 
L 342.75459 466.363189 
L 346.667744 484.355203 
L 348.461684 490.879716 
L 350.142621 494.804203 
L 351.750258 496.803192 
L 353.315506 497.529227 
L 354.858469 497.473043 
L 356.38993 496.891439 
L 357.916121 495.915092 
L 359.441011 494.593498 
L 360.967508 492.889341 
L 362.498955 490.767581 
L 364.039098 488.185174 
L 367.160244 481.861707 
L 368.743181 478.617838 
L 370.333592 475.951309 
L 371.918584 474.358125 
L 373.483823 474.099582 
L 375.0203 475.048812 
L 376.528756 476.742266 
L 379.494838 480.406976 
L 380.971656 481.752877 
L 382.452024 482.666752 
L 383.939187 483.162299 
L 385.432972 483.330938 
L 386.932837 483.248435 
L 388.438377 482.969075 
L 391.460047 482.068587 
L 396.009784 480.250948 
L 403.607735 476.851324 
L 438.556275 460.710216 
L 462.839599 449.473541 
L 493.154067 435.464616 
L 506.786934 429.147692 
L 520.404055 422.865275 
L 530.994805 417.961504 
L 603.477321 384.433675 
L 603.477321 384.433675 
" clip-path="url(#p609e446d32)" style="fill: none; stroke: #1f77b4; stroke-opacity: 0.5; stroke-width: 1.5"/>
    <path d="M 208.670071 548.292483 
L 326.345215 493.794221 
L 329.374461 492.080929 
L 330.879172 491.048773 
L 332.367498 489.714483 
L 333.834744 487.948559 
L 335.260648 485.306963 
L 336.627757 481.296358 
L 337.913308 475.191806 
L 339.107542 466.364623 
L 340.262719 455.473802 
L 341.514414 445.495606 
L 343.034095 441.367175 
L 344.845869 445.37293 
L 348.658858 463.344343 
L 350.421105 469.972124 
L 352.081281 473.888578 
L 353.675349 475.732098 
L 355.230559 476.070137 
L 356.7667 475.41196 
L 358.294455 473.955278 
L 359.821494 471.802516 
L 361.354416 469.092597 
L 366.027945 459.488673 
L 367.60685 457.272971 
L 369.180635 456.39403 
L 370.738071 456.836171 
L 372.272431 458.313907 
L 375.282975 462.228499 
L 376.77284 463.882894 
L 378.262345 465.055617 
L 379.754457 465.784492 
L 381.250061 466.157526 
L 382.751681 466.188182 
L 384.25638 466.028635 
L 385.765045 465.696168 
L 388.790103 464.726367 
L 394.859671 462.177607 
L 400.933711 459.457256 
L 407.012161 456.637392 
L 416.1229 452.455444 
L 423.715012 448.941466 
L 446.477912 438.402642 
L 452.540699 435.618547 
L 461.640571 431.38888 
L 467.695779 428.624542 
L 473.762135 425.790105 
L 479.815049 423.019181 
L 485.875854 420.200967 
L 491.928965 417.413192 
L 508.576551 409.706671 
L 517.646009 405.53011 
L 538.802422 395.756915 
L 552.395686 389.468946 
L 565.975043 383.203799 
L 575.034807 378.994871 
L 581.053662 376.245989 
L 587.096182 373.424599 
L 593.113805 370.670079 
L 596.12714 369.27857 
L 596.12714 369.27857 
" clip-path="url(#p609e446d32)" style="fill: none; stroke: #1f77b4; stroke-opacity: 0.5; stroke-width: 1.5"/>
    <path d="M 201.557028 532.892028 
L 311.551005 482.088247 
L 317.648175 479.288547 
L 328.297881 474.154994 
L 331.320344 472.341418 
L 332.821991 471.239693 
L 334.306846 469.789848 
L 335.770281 467.843734 
L 337.198245 465.025071 
L 338.572245 460.766366 
L 339.880883 454.513315 
L 341.121452 445.770604 
L 342.345383 435.345665 
L 343.667496 426.162038 
L 345.208608 422.397104 
L 346.97515 425.899304 
L 350.638931 441.76346 
L 352.353746 447.554312 
L 353.984182 450.607754 
L 355.561188 451.453013 
L 357.10884 450.550158 
L 358.646631 448.434591 
L 363.305055 440.044533 
L 364.877726 438.593037 
L 366.447431 438.522593 
L 368.00339 439.748279 
L 369.541178 441.674012 
L 371.061004 443.851771 
L 372.568722 445.788822 
L 374.070435 447.267538 
L 375.569366 448.314618 
L 377.07061 448.866565 
L 378.573533 449.098239 
L 380.079226 449.061409 
L 383.099041 448.429391 
L 386.127586 447.3649 
L 389.16037 446.119446 
L 392.194048 444.815871 
L 466.491896 410.587386 
L 472.550435 407.772103 
L 481.625171 403.605651 
L 487.682882 400.778889 
L 493.726225 398.01543 
L 499.779631 395.198065 
L 505.821977 392.42428 
L 514.894371 388.214219 
L 520.928687 385.457057 
L 526.977186 382.638308 
L 533.009682 379.875513 
L 539.052374 377.06968 
L 548.098357 372.916106 
L 554.143037 370.09334 
L 560.165954 367.338913 
L 569.220057 363.134785 
L 576.752334 359.664808 
L 588.805258 354.095635 
L 588.805258 354.095635 
" clip-path="url(#p609e446d32)" style="fill: none; stroke: #1f77b4; stroke-opacity: 0.5; stroke-width: 1.5"/>
    <path d="M 194.449419 517.49969 
L 251.007266 491.402447 
L 260.169578 487.194234 
L 278.473293 478.731997 
L 289.147714 473.822386 
L 299.815359 468.904016 
L 325.689345 456.789373 
L 328.721971 455.197828 
L 331.738989 453.30576 
L 333.235318 452.102642 
L 334.722156 450.664781 
L 336.192056 448.800721 
L 337.636544 446.250902 
L 339.050992 442.777766 
L 340.424899 437.93561 
L 341.761942 431.522363 
L 344.439957 415.911275 
L 345.899137 410.181761 
L 347.493176 408.438611 
L 349.190309 410.730238 
L 350.913074 414.994888 
L 352.600817 418.85705 
L 354.23715 421.082415 
L 355.83136 421.359144 
L 357.405362 420.253982 
L 358.97739 418.653694 
L 360.556194 417.471857 
L 362.140483 417.546178 
L 363.720126 418.948526 
L 365.285338 421.376471 
L 368.360503 426.782256 
L 369.876801 428.916832 
L 371.386483 430.415361 
L 372.893421 431.354008 
L 374.399566 431.867166 
L 375.907791 431.978939 
L 377.416846 431.873908 
L 378.92775 431.578342 
L 381.953908 430.641768 
L 386.500403 428.806568 
L 406.219309 419.829519 
L 412.286157 417.014798 
L 422.897425 412.11777 
L 445.616794 401.653635 
L 454.702379 397.441389 
L 462.268123 393.953164 
L 472.852434 389.091378 
L 481.92847 384.88293 
L 490.993124 380.717686 
L 519.682991 367.491155 
L 528.742128 363.291628 
L 539.293123 358.446802 
L 548.344747 354.252366 
L 563.410597 347.309766 
L 581.475554 338.986704 
L 581.475554 338.986704 
" clip-path="url(#p609e446d32)" style="fill: none; stroke: #1f77b4; stroke-opacity: 0.5; stroke-width: 1.5"/>
    <path d="M 187.354364 502.1363 
L 208.761039 492.27705 
L 217.923838 488.035578 
L 228.619929 483.127678 
L 237.774723 478.886345 
L 248.46087 473.982538 
L 254.559797 471.157525 
L 266.759949 465.544013 
L 321.56387 440.148638 
L 324.595636 438.595729 
L 327.619091 436.891503 
L 330.623178 434.801451 
L 332.112154 433.470368 
L 333.591228 431.88618 
L 335.056313 429.924985 
L 336.50227 427.411944 
L 337.932266 424.317874 
L 339.343845 420.470828 
L 343.613248 406.958344 
L 345.115463 403.717227 
L 346.672376 401.9529 
L 348.266819 401.455027 
L 349.87043 401.419799 
L 351.456606 400.705107 
L 353.019154 398.646656 
L 354.564931 394.990788 
L 356.116501 390.558743 
L 357.696303 387.064781 
L 359.309298 386.291147 
L 360.937726 389.058159 
L 362.552068 394.278181 
L 364.134809 400.183129 
L 365.685433 405.409234 
L 367.213438 409.272967 
L 368.728269 411.912925 
L 370.237888 413.468344 
L 371.746097 414.274369 
L 373.254429 414.592391 
L 374.764768 414.52208 
L 376.275915 414.259142 
L 377.788363 413.844715 
L 382.33188 412.111744 
L 388.394035 409.462404 
L 458.044688 377.382441 
L 471.646098 371.122452 
L 480.713726 366.925698 
L 491.280674 362.072397 
L 500.34133 357.878381 
L 509.390735 353.722755 
L 565.135487 328.04096 
L 574.169588 323.858757 
L 574.169588 323.858757 
" clip-path="url(#p609e446d32)" style="fill: none; stroke: #1f77b4; stroke-opacity: 0.5; stroke-width: 1.5"/>
    <path d="M 180.270787 486.798614 
L 189.435319 482.557208 
L 197.075494 479.04062 
L 207.773362 474.139515 
L 213.875788 471.311358 
L 223.038943 467.11558 
L 229.135004 464.277948 
L 235.242216 461.49228 
L 241.337119 458.662028 
L 247.438855 455.869989 
L 256.579095 451.638543 
L 267.247222 446.751143 
L 273.33592 443.929751 
L 282.473555 439.747005 
L 288.556708 436.91265 
L 294.646312 434.139932 
L 300.727594 431.312506 
L 306.811702 428.524956 
L 321.988999 421.211739 
L 325.003119 419.412743 
L 326.503092 418.378132 
L 327.993943 417.164918 
L 329.478022 415.789281 
L 330.946091 414.060524 
L 332.40064 411.973035 
L 333.838672 409.410322 
L 335.259038 406.269304 
L 339.530671 395.19111 
L 341.018513 392.398086 
L 342.560955 390.889392 
L 344.156275 390.927384 
L 345.778524 392.031824 
L 347.402492 393.561034 
L 349.006237 394.732307 
L 350.575824 394.761132 
L 352.109628 393.091615 
L 353.608976 389.002634 
L 355.086278 382.051016 
L 358.089839 362.83793 
L 359.681969 357.048783 
L 361.324894 358.450514 
L 362.963256 366.085948 
L 364.556404 375.741885 
L 366.102887 384.014995 
L 367.620231 389.830587 
L 369.125513 393.351033 
L 370.628083 395.26434 
L 372.131861 396.152238 
L 373.638832 396.360304 
L 375.147448 396.238579 
L 376.658719 395.854565 
L 379.684207 394.786511 
L 387.256816 391.476075 
L 397.86103 386.590445 
L 406.945006 382.427013 
L 417.541062 377.533294 
L 431.15479 371.27628 
L 440.229104 367.080117 
L 453.828293 360.835809 
L 476.481969 350.391753 
L 488.552543 344.83993 
L 514.184771 333.034379 
L 566.864622 308.782367 
L 566.864622 308.782367 
" clip-path="url(#p609e446d32)" style="fill: none; stroke: #1f77b4; stroke-opacity: 0.5; stroke-width: 1.5"/>
    <path d="M 173.189251 471.460044 
L 179.307126 468.668731 
L 185.412063 465.845376 
L 194.580018 461.653429 
L 199.155115 459.534134 
L 205.256468 456.716864 
L 214.415283 452.527112 
L 220.505868 449.684866 
L 225.08482 447.600002 
L 238.801916 441.29245 
L 244.893693 438.48043 
L 254.035548 434.299327 
L 258.599412 432.179761 
L 267.727189 427.952732 
L 270.772414 426.564304 
L 301.18623 412.600527 
L 307.258521 409.75341 
L 311.813988 407.636825 
L 316.361411 405.425736 
L 320.888403 402.91377 
L 323.880764 400.801502 
L 325.363324 399.487805 
L 326.832818 397.907309 
L 328.289658 396.031732 
L 329.723994 393.642258 
L 331.142747 390.795609 
L 332.545493 387.41417 
L 335.357847 379.904852 
L 336.808924 376.664308 
L 338.322367 374.664883 
L 339.899981 374.206392 
L 341.526251 375.178809 
L 343.177595 377.188178 
L 346.447081 381.501588 
L 348.043174 382.978103 
L 349.609216 383.607015 
L 351.150618 383.341309 
L 352.666571 381.754093 
L 354.161269 378.472763 
L 355.638036 372.767331 
L 357.106673 363.843562 
L 360.132148 339.826335 
L 361.74132 332.788847 
L 363.38432 335.086526 
L 364.99711 344.709409 
L 366.551406 356.114184 
L 368.062301 365.280553 
L 369.554427 371.329928 
L 371.0439 374.822603 
L 372.537945 376.55877 
L 374.036994 377.279861 
L 375.541055 377.372208 
L 377.048945 377.103465 
L 378.558312 376.682122 
L 383.095604 374.846236 
L 405.79414 364.47326 
L 416.382336 359.576741 
L 422.42757 356.81684 
L 428.474442 354.021327 
L 437.537066 349.875517 
L 443.582305 347.064539 
L 452.638605 342.921111 
L 466.224301 336.649834 
L 496.37421 322.803838 
L 502.407027 319.998146 
L 508.425349 317.257192 
L 514.453399 314.462902 
L 520.471853 311.706492 
L 526.491713 308.937137 
L 559.574502 293.712587 
L 559.574502 293.712587 
" clip-path="url(#p609e446d32)" style="fill: none; stroke: #1f77b4; stroke-opacity: 0.5; stroke-width: 1.5"/>
    <path d="M 166.13383 456.188245 
L 170.705434 454.057036 
L 240.838184 421.855062 
L 243.880431 420.44732 
L 254.523836 415.510435 
L 257.568534 414.12448 
L 280.377645 403.670125 
L 284.932974 401.553336 
L 313.761556 388.046394 
L 315.273793 387.275485 
L 318.278335 385.449665 
L 319.772249 384.397268 
L 321.254333 383.146078 
L 322.729205 381.743849 
L 324.183091 379.953845 
L 325.620231 377.798274 
L 327.036771 375.163695 
L 328.428887 371.917108 
L 332.611775 360.751634 
L 334.084311 358.098551 
L 335.625693 356.824214 
L 337.239363 357.264133 
L 338.894409 358.939214 
L 343.845953 365.814813 
L 345.446946 367.400178 
L 347.020796 368.372997 
L 348.572931 368.773395 
L 350.110373 368.73593 
L 351.632504 368.05837 
L 353.144252 366.75934 
L 354.644834 364.463269 
L 356.134244 360.553453 
L 357.617809 354.35665 
L 359.104705 344.832158 
L 362.189372 318.929982 
L 363.81687 310.99389 
L 365.451318 313.221009 
L 367.031552 323.468305 
L 368.545943 335.632402 
L 370.02262 345.436918 
L 371.49156 351.781913 
L 372.965772 355.458975 
L 374.450693 357.265265 
L 375.944712 357.974882 
L 377.444498 358.103344 
L 378.950495 357.803262 
L 380.458068 357.368176 
L 383.479848 356.153341 
L 386.503218 354.836097 
L 401.622525 347.934192 
L 407.669231 345.13926 
L 413.713222 342.363846 
L 427.307008 336.113799 
L 436.362411 331.974349 
L 442.403678 329.158506 
L 446.927598 327.099691 
L 455.974398 322.965234 
L 458.99152 321.56985 
L 469.551589 316.670158 
L 472.563508 315.299926 
L 490.632912 307.034308 
L 496.666336 304.207228 
L 499.671847 302.850618 
L 513.215556 296.622958 
L 519.232056 293.858123 
L 540.281141 284.171449 
L 544.779763 282.134802 
L 552.294133 278.666143 
L 552.294133 278.666143 
" clip-path="url(#p609e446d32)" style="fill: none; stroke: #1f77b4; stroke-opacity: 0.5; stroke-width: 1.5"/>
    <path d="M 159.068734 440.883222 
L 163.656634 438.808064 
L 174.321566 433.86274 
L 177.376205 432.475142 
L 200.248925 422.005185 
L 204.813399 419.886401 
L 216.992315 414.27742 
L 227.65368 409.413803 
L 233.732295 406.585369 
L 238.301246 404.515185 
L 309.66183 371.548286 
L 314.176276 369.002574 
L 317.156068 366.850285 
L 318.629364 365.500118 
L 320.08623 363.86184 
L 321.527585 361.917387 
L 322.940103 359.41946 
L 324.332875 356.45205 
L 325.703554 352.91634 
L 328.446893 345.116338 
L 329.871397 341.805656 
L 331.37182 339.808579 
L 332.95421 339.462995 
L 334.599823 340.611311 
L 336.281826 342.861718 
L 339.619203 347.802463 
L 341.247256 349.74936 
L 342.843422 351.089746 
L 344.416392 351.971889 
L 345.968653 352.36685 
L 347.507144 352.415736 
L 349.036452 352.214383 
L 350.557073 351.698971 
L 352.073038 350.97304 
L 353.583294 349.871118 
L 355.088073 348.208937 
L 356.588328 345.710175 
L 358.083855 341.654381 
L 359.580802 335.274963 
L 361.091575 325.59995 
L 364.243068 298.674602 
L 365.890969 290.015667 
L 367.518049 291.782158 
L 369.066162 302.258105 
L 370.541452 314.895738 
L 371.983976 325.247912 
L 373.428814 331.983981 
L 374.888024 335.855126 
L 376.362333 337.845783 
L 377.85101 338.589238 
L 379.346606 338.759999 
L 380.849124 338.508043 
L 383.862384 337.526411 
L 400.478879 330.022683 
L 414.068436 323.782644 
L 423.121422 319.650745 
L 426.140252 318.250626 
L 468.349802 298.836859 
L 472.864267 296.782422 
L 481.893262 292.654053 
L 486.410725 290.564467 
L 492.429219 287.799662 
L 508.966571 280.227572 
L 511.97709 278.826337 
L 545.025801 263.633925 
L 545.025801 263.633925 
" clip-path="url(#p609e446d32)" style="fill: none; stroke: #1f77b4; stroke-opacity: 0.5; stroke-width: 1.5"/>
    <path d="M 152.029636 425.644131 
L 161.173556 421.427457 
L 167.280016 418.653639 
L 173.370308 415.837134 
L 182.518876 411.663951 
L 191.652412 407.455211 
L 228.166558 390.685139 
L 234.252369 387.9191 
L 240.327081 385.1085 
L 246.407349 382.334283 
L 255.51713 378.133262 
L 261.5951 375.373293 
L 267.663194 372.562988 
L 273.736501 369.798093 
L 281.322001 366.317197 
L 294.966893 360.028367 
L 302.539467 356.483456 
L 307.070812 354.221033 
L 310.078386 352.539038 
L 313.061899 350.513965 
L 314.536349 349.241336 
L 315.998819 347.766348 
L 317.440253 345.938937 
L 318.857604 343.676962 
L 320.249859 340.917674 
L 321.61357 337.550333 
L 325.694139 325.917592 
L 327.145811 323.199719 
L 328.683982 321.994712 
L 330.308527 322.518353 
L 331.989499 324.385746 
L 337.031142 331.797487 
L 338.653885 333.509081 
L 340.246227 334.670074 
L 341.813228 335.318065 
L 343.363257 335.612236 
L 344.899786 335.589092 
L 346.42766 335.352226 
L 347.950031 334.973609 
L 350.98257 333.812634 
L 352.4949 333.049838 
L 354.004713 332.095764 
L 355.512538 330.886669 
L 357.017394 329.145502 
L 358.520546 326.563255 
L 360.024336 322.511546 
L 361.535814 316.065644 
L 363.070259 306.309597 
L 366.289699 278.63379 
L 367.960078 269.307144 
L 369.582948 270.522334 
L 371.10113 281.033803 
L 372.537228 294.124892 
L 373.945716 304.948833 
L 375.365038 312.127528 
L 376.808489 316.22806 
L 378.272332 318.379393 
L 379.754123 319.23207 
L 381.246156 319.418701 
L 382.74501 319.219025 
L 385.754825 318.234383 
L 390.279698 316.307476 
L 396.31857 313.524347 
L 402.353307 310.791688 
L 406.881119 308.690954 
L 432.513705 296.937154 
L 473.166472 278.284929 
L 482.194919 274.118305 
L 488.202857 271.396875 
L 494.221462 268.603789 
L 500.227745 265.872498 
L 506.240959 263.095559 
L 512.247657 260.345623 
L 521.261365 256.189788 
L 527.257295 253.473125 
L 533.265725 250.692083 
L 537.762517 248.644869 
L 537.762517 248.644869 
" clip-path="url(#p609e446d32)" style="fill: none; stroke: #1f77b4; stroke-opacity: 0.5; stroke-width: 1.5"/>
    <path d="M 144.991569 410.401987 
L 161.758597 402.727578 
L 175.460885 396.430949 
L 198.289437 385.974506 
L 221.092789 375.519043 
L 246.9071 363.668005 
L 260.56615 357.422855 
L 302.979697 337.736005 
L 305.986887 336.092135 
L 308.973194 334.167003 
L 310.45095 332.987566 
L 311.916278 331.617792 
L 313.36163 329.938274 
L 314.783263 327.867184 
L 316.178716 325.330301 
L 317.540659 322.17112 
L 318.880714 318.502513 
L 321.552642 310.35786 
L 322.953391 307.004189 
L 324.439805 304.969675 
L 326.026692 304.70009 
L 327.693726 306.03471 
L 329.401739 308.397556 
L 332.800373 313.679693 
L 334.452667 315.748847 
L 336.068295 317.216093 
L 337.653283 318.132477 
L 339.216266 318.635895 
L 340.761264 318.7631 
L 342.295023 318.649756 
L 343.821542 318.378487 
L 346.859121 317.444794 
L 351.398427 315.54764 
L 354.418464 313.956855 
L 355.926868 312.968497 
L 357.433873 311.688933 
L 358.940445 309.978328 
L 360.447215 307.355942 
L 361.95891 303.308531 
L 363.484608 296.882526 
L 365.041811 287.024568 
L 368.32862 258.72631 
L 370.023837 248.700031 
L 371.645369 249.379083 
L 373.136464 259.801416 
L 374.533115 273.34761 
L 375.906963 284.641991 
L 377.300339 292.236447 
L 378.726252 296.636795 
L 380.180332 298.903567 
L 381.65409 299.903297 
L 383.142468 300.111204 
L 384.638116 299.943521 
L 386.139423 299.525749 
L 389.149396 298.382112 
L 399.704099 293.617403 
L 408.747999 289.494056 
L 419.298044 284.633368 
L 425.322392 281.885021 
L 438.874677 275.664433 
L 450.912913 270.153252 
L 530.514222 233.657077 
L 530.514222 233.657077 
" clip-path="url(#p609e446d32)" style="fill: none; stroke: #1f77b4; stroke-opacity: 0.5; stroke-width: 1.5"/>
    <path d="M 137.972022 395.204671 
L 147.105664 391.000558 
L 209.471116 362.453552 
L 214.023322 360.348751 
L 230.718457 352.679034 
L 235.273248 350.605927 
L 241.344783 347.84325 
L 247.409966 345.056109 
L 256.510482 340.910381 
L 261.055568 338.814691 
L 267.11626 336.032696 
L 280.748925 329.788248 
L 289.828697 325.588429 
L 292.855067 324.19202 
L 298.897514 321.300508 
L 303.402698 318.823552 
L 306.372106 316.731772 
L 307.840423 315.454958 
L 309.28771 313.877621 
L 310.718958 312.038535 
L 312.114975 309.654155 
L 313.482496 306.767139 
L 314.818979 303.292186 
L 318.7973 291.187374 
L 320.22794 288.392361 
L 321.765892 287.283258 
L 323.399965 287.861906 
L 325.108884 289.941963 
L 330.238373 297.82884 
L 331.879481 299.587957 
L 333.48857 300.853193 
L 335.066582 301.566663 
L 336.622026 301.855074 
L 338.165433 301.932208 
L 341.218646 301.355908 
L 342.737639 300.904902 
L 348.789287 298.485751 
L 350.300449 297.851132 
L 356.335942 294.753439 
L 357.844011 293.801312 
L 359.35089 292.481663 
L 360.858839 290.774459 
L 362.369465 288.19372 
L 363.888533 284.097404 
L 365.427479 277.730648 
L 367.006489 267.80841 
L 368.648938 254.174611 
L 370.359423 238.950399 
L 372.082223 228.162761 
L 373.705257 228.300979 
L 375.171572 238.602576 
L 376.529649 252.534934 
L 377.86703 264.368462 
L 379.234548 272.335101 
L 380.641743 277.060271 
L 382.085003 279.480117 
L 383.552146 280.559254 
L 385.03449 280.873113 
L 386.528646 280.678959 
L 388.0262 280.320259 
L 391.033758 279.156882 
L 394.045326 277.845815 
L 400.069336 275.149114 
L 406.096569 272.352509 
L 412.117887 269.631508 
L 416.635893 267.543231 
L 430.181454 261.331498 
L 436.19813 258.583304 
L 445.223446 254.43035 
L 451.233403 251.707504 
L 457.248992 248.923289 
L 463.25655 246.192594 
L 472.273358 242.034393 
L 478.274162 239.32211 
L 484.284484 236.536214 
L 490.283238 233.815183 
L 499.289527 229.667065 
L 509.783098 224.883035 
L 518.782343 220.738414 
L 523.277529 218.683051 
L 523.277529 218.683051 
" clip-path="url(#p609e446d32)" style="fill: none; stroke: #1f77b4; stroke-opacity: 0.5; stroke-width: 1.5"/>
    <path d="M 130.942486 379.975008 
L 133.996868 378.605525 
L 147.697173 372.339089 
L 153.780631 369.546315 
L 202.407443 347.274246 
L 205.443632 345.885071 
L 211.5253 343.153008 
L 214.552144 341.729092 
L 219.109867 339.674492 
L 229.716702 334.767981 
L 232.751478 333.391431 
L 247.911851 326.476644 
L 253.97004 323.693966 
L 260.027905 320.919168 
L 281.218039 311.210905 
L 285.759186 309.157172 
L 297.827863 303.306842 
L 302.300039 300.482357 
L 305.225483 297.858679 
L 306.656297 296.099506 
L 308.06026 293.936845 
L 309.436885 291.329128 
L 310.768448 287.995708 
L 312.077901 284.191381 
L 314.678477 275.703682 
L 316.057411 272.317492 
L 317.528931 270.225204 
L 319.123935 270.078619 
L 320.81099 271.556339 
L 322.546518 274.069783 
L 324.292638 277.04062 
L 326.004942 279.66738 
L 327.681022 281.855655 
L 329.315549 283.43255 
L 330.910883 284.362342 
L 332.48504 284.965343 
L 334.033843 285.088095 
L 335.57113 285.006916 
L 337.100052 284.771756 
L 341.650936 283.288095 
L 349.202454 280.074364 
L 356.742925 276.481828 
L 359.756998 274.61996 
L 361.264216 273.327267 
L 362.773295 271.58076 
L 364.287327 269.051541 
L 365.813448 264.952788 
L 367.364861 258.570923 
L 368.964214 248.675397 
L 370.636965 234.825598 
L 372.382442 219.243187 
L 374.134387 207.751755 
L 375.76305 207.239306 
L 377.205697 217.467213 
L 378.526823 231.698821 
L 379.826567 244.090076 
L 381.16683 252.466606 
L 382.555789 257.468493 
L 383.986214 260.10884 
L 385.447259 261.244349 
L 386.923854 261.646268 
L 388.414641 261.487822 
L 391.4099 260.625614 
L 403.445906 255.298868 
L 407.962206 253.201653 
L 418.489305 248.432772 
L 421.498309 247.039253 
L 444.048106 236.683028 
L 447.0523 235.311671 
L 457.560093 230.542994 
L 462.066435 228.462015 
L 471.0754 224.313818 
L 475.57478 222.268347 
L 481.574187 219.529391 
L 490.57633 215.383977 
L 493.573321 214.02126 
L 504.056488 209.268527 
L 507.05632 207.879078 
L 516.041381 203.779414 
L 516.041381 203.779414 
" clip-path="url(#p609e446d32)" style="fill: none; stroke: #1f77b4; stroke-opacity: 0.5; stroke-width: 1.5"/>
    <path d="M 123.958882 364.863647 
L 126.9951 363.452162 
L 292.251924 287.687534 
L 296.746223 285.192228 
L 299.703637 283.060804 
L 301.163491 281.749792 
L 302.599178 280.120382 
L 304.016725 278.221022 
L 305.392673 275.735501 
L 306.73612 272.732439 
L 308.042681 269.109622 
L 311.920755 256.554935 
L 313.333008 253.717106 
L 314.869322 252.658813 
L 316.516797 253.355839 
L 318.252065 255.606616 
L 323.468086 263.949999 
L 325.128764 265.800373 
L 326.753323 267.143521 
L 328.341267 267.901544 
L 329.903677 268.235965 
L 331.451086 268.327098 
L 334.507347 267.787321 
L 336.026336 267.346967 
L 342.073127 264.972149 
L 346.598655 263.000244 
L 358.653913 257.330039 
L 361.66632 255.444524 
L 363.173733 254.211578 
L 364.683999 252.431451 
L 366.201019 249.921701 
L 367.733595 245.861132 
L 369.296875 239.453227 
L 370.91542 229.570557 
L 372.617138 215.573613 
L 374.398094 199.580474 
L 376.180173 187.446799 
L 377.818235 186.226096 
L 379.239427 196.344069 
L 380.523619 210.893077 
L 381.786035 223.790317 
L 383.096977 232.63533 
L 384.467854 237.889648 
L 385.884954 240.751541 
L 387.338753 241.980775 
L 388.810929 242.423105 
L 390.296931 242.340758 
L 393.288212 241.489848 
L 400.801117 238.245112 
L 411.327986 233.394183 
L 414.33368 232.028295 
L 424.848902 227.263233 
L 427.85438 225.875189 
L 450.379306 215.5347 
L 453.380261 214.164534 
L 459.374611 211.477382 
L 465.381913 208.670842 
L 468.376879 207.332185 
L 474.372471 204.600966 
L 508.831956 188.80893 
L 508.831956 188.80893 
" clip-path="url(#p609e446d32)" style="fill: none; stroke: #1f77b4; stroke-opacity: 0.5; stroke-width: 1.5"/>
    <path d="M 116.945585 349.667648 
L 121.514101 347.598308 
L 130.646037 343.456093 
L 135.200875 341.357996 
L 141.273818 338.563731 
L 145.839854 336.505844 
L 156.461573 331.616411 
L 161.0202 329.547005 
L 167.094585 326.781102 
L 176.193408 322.599059 
L 180.749108 320.536318 
L 189.854571 316.402032 
L 192.885041 315.009146 
L 203.485952 310.121601 
L 206.520073 308.751912 
L 248.912431 289.412821 
L 253.446475 287.321967 
L 270.072134 279.708321 
L 276.119499 276.977958 
L 280.646767 274.870091 
L 289.683493 270.490245 
L 291.186209 269.723178 
L 294.165079 267.899403 
L 295.643856 266.857791 
L 297.105083 265.605204 
L 298.552372 264.167567 
L 299.972094 262.371886 
L 301.359344 260.132215 
L 302.712312 257.39188 
L 304.01851 253.953505 
L 305.293853 249.966659 
L 307.827409 241.194709 
L 309.179108 237.683602 
L 310.643405 235.641994 
L 312.243445 235.555418 
L 313.951917 237.19006 
L 315.717589 239.897488 
L 317.49295 243.001242 
L 319.234376 245.795198 
L 320.932964 248.086348 
L 322.583736 249.724795 
L 324.193191 250.757325 
L 325.773642 251.354575 
L 327.328935 251.54051 
L 328.869038 251.476571 
L 330.398714 251.235984 
L 333.436193 250.35183 
L 337.969142 248.582132 
L 354.540308 241.114129 
L 360.561286 238.183892 
L 362.066492 237.335834 
L 363.572217 236.321027 
L 365.079531 235.089623 
L 366.590799 233.355595 
L 368.110787 230.801864 
L 369.649069 226.807018 
L 371.223468 220.393821 
L 372.860539 210.481807 
L 374.589519 196.405888 
L 376.406293 179.983122 
L 378.219781 167.219677 
L 379.869853 165.302818 
L 381.273169 175.211068 
L 383.745529 203.471835 
L 385.025674 212.811846 
L 386.377216 218.350626 
L 387.781863 221.390215 
L 389.226399 222.772447 
L 390.695003 223.228539 
L 392.176292 223.215335 
L 395.164289 222.360179 
L 399.664388 220.507635 
L 405.675055 217.747155 
L 411.680655 215.048693 
L 417.690168 212.260478 
L 420.692695 210.89291 
L 431.195484 206.140223 
L 434.197838 204.752558 
L 456.696822 194.438104 
L 459.694232 193.071619 
L 467.185089 189.663039 
L 483.663238 182.115198 
L 488.151948 180.080353 
L 494.136813 177.358024 
L 501.616133 173.952096 
L 501.616133 173.952096 
" clip-path="url(#p609e446d32)" style="fill: none; stroke: #1f77b4; stroke-opacity: 0.5; stroke-width: 1.5"/>
    <path d="M 109.972305 334.573349 
L 120.602506 329.692776 
L 126.686454 326.937383 
L 135.792492 322.757104 
L 141.874628 320.011645 
L 147.939411 317.218268 
L 154.014714 314.464137 
L 163.111099 310.289255 
L 173.730647 305.460714 
L 182.819459 301.287293 
L 188.88724 298.547235 
L 194.939588 295.751681 
L 201.004104 293.014723 
L 207.054783 290.22485 
L 213.113499 287.479388 
L 222.188023 283.311651 
L 228.244433 280.578814 
L 234.28966 277.795552 
L 243.364353 273.677307 
L 256.961017 267.450204 
L 272.062488 260.556142 
L 284.122708 254.912794 
L 288.618234 252.530147 
L 291.58793 250.637336 
L 293.054235 249.476417 
L 294.506823 248.144604 
L 295.933633 246.49462 
L 297.331746 244.470258 
L 298.692897 241.94699 
L 300.008722 238.786803 
L 301.28469 235.008898 
L 305.066496 222.049294 
L 306.460206 219.157664 
L 307.993978 218.126084 
L 309.660018 219.007039 
L 311.417308 221.359147 
L 314.984728 227.51103 
L 316.719822 230.164595 
L 318.402612 232.156054 
L 320.03913 233.520761 
L 321.638364 234.353883 
L 323.207721 234.735355 
L 324.757114 234.807728 
L 326.292707 234.659856 
L 329.336326 233.895622 
L 333.870347 232.188728 
L 344.413163 227.527157 
L 359.457558 220.601374 
L 362.465344 219.089212 
L 363.969529 218.243305 
L 365.474545 217.260569 
L 366.981807 215.991959 
L 368.493755 214.305096 
L 370.016424 211.745173 
L 371.56023 207.762344 
L 373.144588 201.395766 
L 374.799532 191.436861 
L 376.55475 177.279713 
L 378.406444 160.490152 
L 380.253692 147.040484 
L 381.917517 144.469983 
L 383.306425 154.092895 
L 385.703883 183.183056 
L 386.953671 192.971839 
L 388.283637 198.856537 
L 389.676335 202.048667 
L 391.111452 203.579584 
L 392.575032 204.092001 
L 394.05356 204.091176 
L 395.542037 203.774341 
L 398.532969 202.718728 
L 407.53504 198.717424 
L 455.513614 176.805782 
L 463.000649 173.392321 
L 480.957292 165.219108 
L 486.944632 162.461086 
L 492.923487 159.751475 
L 494.422665 159.043413 
L 494.422665 159.043413 
" clip-path="url(#p609e446d32)" style="fill: none; stroke: #1f77b4; stroke-opacity: 0.5; stroke-width: 1.5"/>
    <path d="M 102.988492 319.446311 
L 125.77715 309.083295 
L 130.323719 306.987187 
L 186.402303 281.390544 
L 190.948074 279.337432 
L 204.567764 273.130736 
L 213.636597 268.963391 
L 218.175607 266.908989 
L 224.226314 264.17239 
L 228.755564 262.079019 
L 239.337625 257.292221 
L 243.865827 255.209098 
L 249.904929 252.449082 
L 258.964622 248.338061 
L 263.48864 246.250398 
L 283.070212 237.059491 
L 286.057721 235.400214 
L 289.009514 233.351116 
L 290.465529 232.095975 
L 291.898471 230.567431 
L 293.309081 228.755338 
L 294.678521 226.427164 
L 296.006464 223.543027 
L 297.290682 220.036824 
L 299.753 211.284316 
L 300.995462 206.771422 
L 302.32199 203.161416 
L 303.781179 201.181706 
L 305.385077 201.134294 
L 307.117672 202.955951 
L 308.913208 205.84749 
L 312.489705 212.074252 
L 314.205936 214.398832 
L 315.875863 216.156181 
L 317.497546 217.255131 
L 319.083337 217.845141 
L 320.646793 218.119515 
L 322.187699 218.038596 
L 323.718468 217.806284 
L 325.241077 217.444852 
L 329.776813 215.802598 
L 335.802531 213.242543 
L 364.365961 200.052041 
L 367.373286 198.227979 
L 368.880397 196.957022 
L 370.393214 195.250682 
L 371.917703 192.760012 
L 373.467305 188.728835 
L 375.060592 182.431184 
L 376.732159 172.459928 
L 378.513478 158.171329 
L 380.398358 141.10386 
L 382.281452 126.934381 
L 383.961671 123.693254 
L 385.33792 133.038043 
L 387.660445 162.94247 
L 388.881199 173.113153 
L 390.187893 179.38006 
L 391.567324 182.758848 
L 392.994866 184.377722 
L 394.450894 185.013778 
L 395.92753 185.00257 
L 397.412781 184.720728 
L 398.904159 184.260245 
L 404.895132 181.730942 
L 410.891942 179.021389 
L 419.887716 174.896821 
L 424.382447 172.862842 
L 430.375252 170.133215 
L 446.850267 162.599184 
L 451.33984 160.561865 
L 457.324091 157.84894 
L 463.308804 155.117561 
L 476.768744 148.975209 
L 487.228289 144.227835 
L 487.228289 144.227835 
" clip-path="url(#p609e446d32)" style="fill: none; stroke: #1f77b4; stroke-opacity: 0.5; stroke-width: 1.5"/>
    <path d="M 96.036717 304.399001 
L 102.09101 301.581036 
L 105.140783 300.234722 
L 109.68408 298.132136 
L 120.319974 293.335334 
L 123.348131 291.936956 
L 186.965486 262.960132 
L 189.984447 261.556351 
L 199.062124 257.44529 
L 202.083561 256.058896 
L 212.652079 251.187857 
L 214.175637 250.563171 
L 217.190092 249.150862 
L 223.232435 246.400899 
L 232.287579 242.246351 
L 235.308644 240.881675 
L 245.880056 236.116659 
L 248.894778 234.725127 
L 277.523202 221.52657 
L 283.491407 218.201685 
L 284.969395 217.217418 
L 287.872096 214.65805 
L 289.287151 212.954839 
L 290.667544 210.830791 
L 292.013546 208.26115 
L 293.30008 204.930144 
L 294.547726 201.025375 
L 298.233391 187.652409 
L 299.607978 184.693405 
L 301.14254 183.726162 
L 302.826497 184.765792 
L 304.606723 187.23781 
L 308.235502 193.733294 
L 309.995222 196.50498 
L 311.699319 198.621849 
L 313.346602 200.003321 
L 314.958087 200.926337 
L 316.532644 201.325906 
L 318.084936 201.407592 
L 319.624566 201.313428 
L 322.667615 200.552393 
L 327.199166 198.88903 
L 330.208785 197.576097 
L 334.7215 195.602292 
L 337.726165 194.198358 
L 339.230572 193.56727 
L 340.731214 192.813036 
L 343.737474 191.488648 
L 348.243678 189.405446 
L 355.753353 185.992481 
L 363.260408 182.541706 
L 367.765379 180.143715 
L 369.268644 179.202774 
L 370.775175 177.980081 
L 372.289114 176.224752 
L 373.815175 173.786752 
L 375.369454 169.781646 
L 376.972386 163.451489 
L 378.658149 153.56554 
L 380.465475 139.110186 
L 382.383077 121.768388 
L 384.301836 106.951936 
L 386.003051 102.937591 
L 387.367517 112.040075 
L 389.617396 142.670894 
L 390.805436 153.329347 
L 392.091926 159.864506 
L 393.454254 163.534073 
L 394.875454 165.203545 
L 396.324556 165.94071 
L 397.796857 165.98235 
L 400.768448 165.275529 
L 408.24947 162.112139 
L 411.247686 160.710275 
L 415.739228 158.697668 
L 426.224858 153.864769 
L 427.716462 153.255258 
L 430.71322 151.850671 
L 436.699084 149.127723 
L 441.191282 147.043196 
L 444.179185 145.72455 
L 448.668911 143.654026 
L 478.555392 130.083232 
L 480.059306 129.324623 
L 480.059306 129.324623 
" clip-path="url(#p609e446d32)" style="fill: none; stroke: #1f77b4; stroke-opacity: 0.5; stroke-width: 1.5"/>
    <path d="M 89.061129 289.28477 
L 92.111434 287.942673 
L 96.655388 285.848828 
L 133.032113 269.259792 
L 134.56772 268.637066 
L 137.586188 267.223302 
L 143.643872 264.467025 
L 152.719824 260.307205 
L 155.748019 258.933606 
L 166.350186 254.153794 
L 169.371699 252.763135 
L 199.590136 238.952856 
L 202.614395 237.593608 
L 225.26501 227.323671 
L 228.282383 225.950187 
L 235.82221 222.505748 
L 273.475047 205.186375 
L 276.475056 203.707259 
L 279.456011 202.041853 
L 282.395735 199.948256 
L 283.845979 198.682958 
L 285.266143 197.084691 
L 286.666366 195.239906 
L 288.016473 192.808506 
L 289.322305 189.817307 
L 290.579479 186.180769 
L 292.973577 177.09919 
L 294.184362 172.458303 
L 295.486457 168.755007 
L 296.940523 166.821582 
L 298.550929 166.846043 
L 300.307549 168.843181 
L 302.132059 171.903256 
L 305.766218 178.430696 
L 307.503501 180.855105 
L 309.189405 182.682481 
L 310.823854 183.858359 
L 312.415453 184.461158 
L 313.985692 184.792654 
L 315.527805 184.710827 
L 317.060079 184.497186 
L 318.583523 184.156484 
L 323.115895 182.531565 
L 333.641632 177.972738 
L 336.643776 176.570749 
L 341.149328 174.564103 
L 344.150511 173.151072 
L 348.65392 171.128842 
L 366.656731 162.783215 
L 368.156756 162.06258 
L 369.657803 161.204162 
L 371.160747 160.191627 
L 372.666423 159.023062 
L 374.180945 157.27307 
L 375.709259 154.808947 
L 377.266972 150.887609 
L 378.879067 144.529929 
L 380.57919 134.662418 
L 382.409515 120.161162 
L 384.361738 102.44118 
L 386.314763 87.083769 
L 388.040517 82.248058 
L 389.396054 91.060489 
L 391.57464 122.377081 
L 392.728163 133.55897 
L 393.99307 140.393704 
L 395.340377 144.281827 
L 396.750933 146.116674 
L 398.197033 146.850529 
L 399.662122 147.013524 
L 402.63054 146.298884 
L 407.110847 144.499866 
L 410.104678 143.136641 
L 419.081539 139.084142 
L 420.582555 138.328394 
L 423.572147 137.004048 
L 432.548709 132.884762 
L 434.03788 132.280891 
L 437.031444 130.879224 
L 443.011498 128.150567 
L 451.980371 124.043498 
L 453.467272 123.434014 
L 456.459 122.035143 
L 462.43566 119.295203 
L 472.879991 114.597558 
L 472.879991 114.597558 
" clip-path="url(#p609e446d32)" style="fill: none; stroke: #1f77b4; stroke-opacity: 0.5; stroke-width: 1.5"/>
    <path d="M 82.134715 274.294591 
L 88.18749 271.498946 
L 98.810389 266.699591 
L 103.35158 264.615728 
L 115.466864 259.086969 
L 123.040764 255.647836 
L 145.74845 245.342476 
L 151.79054 242.562533 
L 156.335024 240.528389 
L 166.904987 235.670495 
L 169.932311 234.314701 
L 197.118889 221.959229 
L 206.168976 217.819636 
L 212.211299 215.116227 
L 215.226722 213.738659 
L 222.762127 210.286312 
L 228.791136 207.53777 
L 251.394169 197.290568 
L 254.404417 195.912573 
L 264.932708 191.049692 
L 267.939419 189.653522 
L 272.434382 187.427006 
L 275.417581 185.812025 
L 278.369455 183.880532 
L 279.819325 182.644181 
L 281.255384 181.249356 
L 282.661178 179.518797 
L 284.025383 177.314627 
L 285.350844 174.638462 
L 286.614009 171.205837 
L 287.828712 167.122523 
L 291.417884 153.322257 
L 292.779867 150.370234 
L 294.313355 149.435661 
L 296.015549 150.627135 
L 297.822724 153.273335 
L 301.511452 160.095351 
L 303.293696 162.961495 
L 305.017121 165.174996 
L 306.678734 166.637549 
L 308.297718 167.576279 
L 309.880354 168.043465 
L 311.434525 168.123496 
L 312.976402 168.048423 
L 316.019004 167.296756 
L 319.038765 166.207401 
L 322.050233 164.999328 
L 337.063839 158.300308 
L 341.563513 156.229368 
L 356.55871 149.424062 
L 365.551044 145.276972 
L 368.548179 143.859075 
L 371.546803 142.277884 
L 373.049146 141.247699 
L 374.554502 140.066277 
L 376.06885 138.370923 
L 377.599494 135.8715 
L 379.160684 131.998425 
L 380.780444 125.674638 
L 382.495035 115.780768 
L 384.346784 101.264176 
L 386.332472 83.212679 
L 388.322042 67.251982 
L 390.072365 61.679652 
L 391.424428 70.067449 
L 393.53152 102.084662 
L 394.649994 113.784718 
L 395.891248 120.96715 
L 397.224656 125.035453 
L 398.623637 127.05286 
L 400.065089 127.825795 
L 401.52617 128.02878 
L 403.005457 127.757519 
L 405.978865 126.815992 
L 437.3622 112.67468 
L 441.845641 110.606134 
L 452.292851 105.901862 
L 455.27954 104.530168 
L 465.731168 99.72549 
L 465.731168 99.72549 
" clip-path="url(#p609e446d32)" style="fill: none; stroke: #1f77b4; stroke-opacity: 0.5; stroke-width: 1.5"/>
   </g>
  </g>
 </g>
 <defs>
  <clipPath id="p609e446d32">
   <rect x="7.2" y="7.2" width="694.08" height="694.08"/>
  </clipPath>
 </defs>
</svg>