<?xml version="1.0" encoding="utf-8" standalone="no"?>
<!DOCTYPE svg PUBLIC "-//W3C//DTD SVG 1.1//EN"
  "http://www.w3.org/Graphics/SVG/1.1/DTD/svg11.dtd">
<svg xmlns:xlink="http://www.w3.org/1999/xlink" width="564.48pt" height="564.48pt" viewBox="0 0 564.48 564.48" xmlns="http://www.w3.org/2000/svg" version="1.1">
 <metadata>
  <rdf:RDF xmlns:dc="http://purl.org/dc/elements/1.1/" xmlns:cc="http://creativecommons.org/ns#" xmlns:rdf="http://www.w3.org/1999/02/22-rdf-syntax-ns#">
   <cc:Work>
    <dc:type rdf:resource="http://purl.org/dc/dcmitype/StillImage"/>
    <dc:date>2024-12-11T10:02:41.479845</dc:date>
    <dc:format>image/svg+xml</dc:format>
    <dc:creator>
     <cc:Agent>
      <dc:title>Matplotlib v3.9.3, https://matplotlib.org/</dc:title>
     </cc:Agent>
    </dc:creator>
   </cc:Work>
  </rdf:RDF>
 </metadata>
 <defs>
  <style type="text/css">*{stroke-linejoin: round; stroke-linecap: butt}</style>
 </defs>
 <g id="figure_1">
  <g id="patch_1">
   <path d="M 0 564.48 
L 564.48 564.48 
L 564.48 0 
L 0 0 
z
" style="fill: #ffffff"/>
  </g>
  <g id="axes_1">
   <g id="patch_2">
    <path d="M 50.974375 538.66625 
L 543.920625 538.66625 
L 543.920625 11.759062 
L 50.974375 11.759062 
z
" style="fill: #ffffff"/>
   </g>
   <g id="matplotlib.axis_1">
    <g id="xtick_1">
     <g id="line2d_1">
      <defs>
       <path id="md3b6673848" d="M 0 0 
L 0 3.5 
" style="stroke: #000000; stroke-width: 0.8"/>
      </defs>
      <g>
       <use xlink:href="#md3b6673848" x="50.974375" y="538.66625" style="fill-opacity: 0; stroke: #000000; stroke-width: 0.8"/>
      </g>
     </g>
     <g id="text_1">
      <!-- −1.00 -->
      <g transform="translate(32.587188 554.784375) scale(0.12 -0.12)">
       <defs>
        <path id="DejaVuSerif-2212" d="M 678 2259 
L 4684 2259 
L 4684 1753 
L 678 1753 
L 678 2259 
z
" transform="scale(0.015625)"/>
        <path id="DejaVuSerif-31" d="M 909 0 
L 909 331 
L 1722 331 
L 1722 4213 
L 781 3603 
L 781 4013 
L 1919 4750 
L 2350 4750 
L 2350 331 
L 3163 331 
L 3163 0 
L 909 0 
z
" transform="scale(0.015625)"/>
        <path id="DejaVuSerif-2e" d="M 603 325 
Q 603 500 722 622 
Q 841 744 1019 744 
Q 1191 744 1312 622 
Q 1434 500 1434 325 
Q 1434 153 1312 31 
Q 1191 -91 1019 -91 
Q 841 -91 722 29 
Q 603 150 603 325 
z
" transform="scale(0.015625)"/>
        <path id="DejaVuSerif-30" d="M 2034 219 
Q 2513 219 2750 744 
Q 2988 1269 2988 2328 
Q 2988 3391 2750 3916 
Q 2513 4441 2034 4441 
Q 1556 4441 1318 3916 
Q 1081 3391 1081 2328 
Q 1081 1269 1318 744 
Q 1556 219 2034 219 
z
M 2034 -91 
Q 1275 -91 848 546 
Q 422 1184 422 2328 
Q 422 3475 848 4112 
Q 1275 4750 2034 4750 
Q 2797 4750 3222 4112 
Q 3647 3475 3647 2328 
Q 3647 1184 3222 546 
Q 2797 -91 2034 -91 
z
" transform="scale(0.015625)"/>
       </defs>
       <use xlink:href="#DejaVuSerif-2212"/>
       <use xlink:href="#DejaVuSerif-31" x="83.789062"/>
       <use xlink:href="#DejaVuSerif-2e" x="147.412109"/>
       <use xlink:href="#DejaVuSerif-30" x="179.199219"/>
       <use xlink:href="#DejaVuSerif-30" x="242.822266"/>
      </g>
     </g>
    </g>
    <g id="xtick_2">
     <g id="line2d_2">
      <g>
       <use xlink:href="#md3b6673848" x="112.592656" y="538.66625" style="fill-opacity: 0; stroke: #000000; stroke-width: 0.8"/>
      </g>
     </g>
     <g id="text_2">
      <!-- −0.75 -->
      <g transform="translate(94.205469 554.784375) scale(0.12 -0.12)">
       <defs>
        <path id="DejaVuSerif-37" d="M 3609 4347 
L 1784 0 
L 1319 0 
L 3059 4153 
L 903 4153 
L 903 3578 
L 538 3578 
L 538 4666 
L 3609 4666 
L 3609 4347 
z
" transform="scale(0.015625)"/>
        <path id="DejaVuSerif-35" d="M 3219 4666 
L 3219 4153 
L 1081 4153 
L 1081 2816 
Q 1244 2928 1461 2984 
Q 1678 3041 1947 3041 
Q 2703 3041 3140 2622 
Q 3578 2203 3578 1478 
Q 3578 738 3136 323 
Q 2694 -91 1894 -91 
Q 1572 -91 1234 -12 
Q 897 66 544 225 
L 544 1131 
L 897 1131 
Q 925 688 1179 453 
Q 1434 219 1894 219 
Q 2388 219 2653 544 
Q 2919 869 2919 1478 
Q 2919 2084 2655 2407 
Q 2391 2731 1894 2731 
Q 1613 2731 1398 2631 
Q 1184 2531 1019 2322 
L 750 2322 
L 750 4666 
L 3219 4666 
z
" transform="scale(0.015625)"/>
       </defs>
       <use xlink:href="#DejaVuSerif-2212"/>
       <use xlink:href="#DejaVuSerif-30" x="83.789062"/>
       <use xlink:href="#DejaVuSerif-2e" x="147.412109"/>
       <use xlink:href="#DejaVuSerif-37" x="179.199219"/>
       <use xlink:href="#DejaVuSerif-35" x="242.822266"/>
      </g>
     </g>
    </g>
    <g id="xtick_3">
     <g id="line2d_3">
      <g>
       <use xlink:href="#md3b6673848" x="174.210938" y="538.66625" style="fill-opacity: 0; stroke: #000000; stroke-width: 0.8"/>
      </g>
     </g>
     <g id="text_3">
      <!-- −0.50 -->
      <g transform="translate(155.82375 554.784375) scale(0.12 -0.12)">
       <use xlink:href="#DejaVuSerif-2212"/>
       <use xlink:href="#DejaVuSerif-30" x="83.789062"/>
       <use xlink:href="#DejaVuSerif-2e" x="147.412109"/>
       <use xlink:href="#DejaVuSerif-35" x="179.199219"/>
       <use xlink:href="#DejaVuSerif-30" x="242.822266"/>
      </g>
     </g>
    </g>
    <g id="xtick_4">
     <g id="line2d_4">
      <g>
       <use xlink:href="#md3b6673848" x="235.829219" y="538.66625" style="fill-opacity: 0; stroke: #000000; stroke-width: 0.8"/>
      </g>
     </g>
     <g id="text_4">
      <!-- −0.25 -->
      <g transform="translate(217.442031 554.784375) scale(0.12 -0.12)">
       <defs>
        <path id="DejaVuSerif-32" d="M 819 3553 
L 469 3553 
L 469 4384 
Q 803 4563 1142 4656 
Q 1481 4750 1806 4750 
Q 2534 4750 2956 4397 
Q 3378 4044 3378 3438 
Q 3378 2753 2422 1800 
Q 2347 1728 2309 1691 
L 1131 513 
L 3078 513 
L 3078 1088 
L 3444 1088 
L 3444 0 
L 434 0 
L 434 341 
L 1850 1753 
Q 2319 2222 2519 2614 
Q 2719 3006 2719 3438 
Q 2719 3909 2473 4175 
Q 2228 4441 1797 4441 
Q 1350 4441 1106 4219 
Q 863 3997 819 3553 
z
" transform="scale(0.015625)"/>
       </defs>
       <use xlink:href="#DejaVuSerif-2212"/>
       <use xlink:href="#DejaVuSerif-30" x="83.789062"/>
       <use xlink:href="#DejaVuSerif-2e" x="147.412109"/>
       <use xlink:href="#DejaVuSerif-32" x="179.199219"/>
       <use xlink:href="#DejaVuSerif-35" x="242.822266"/>
      </g>
     </g>
    </g>
    <g id="xtick_5">
     <g id="line2d_5">
      <g>
       <use xlink:href="#md3b6673848" x="297.4475" y="538.66625" style="fill-opacity: 0; stroke: #000000; stroke-width: 0.8"/>
      </g>
     </g>
     <g id="text_5">
      <!-- 0.00 -->
      <g transform="translate(284.088125 554.784375) scale(0.12 -0.12)">
       <use xlink:href="#DejaVuSerif-30"/>
       <use xlink:href="#DejaVuSerif-2e" x="63.623047"/>
       <use xlink:href="#DejaVuSerif-30" x="95.410156"/>
       <use xlink:href="#DejaVuSerif-30" x="159.033203"/>
      </g>
     </g>
    </g>
    <g id="xtick_6">
     <g id="line2d_6">
      <g>
       <use xlink:href="#md3b6673848" x="359.065781" y="538.66625" style="fill-opacity: 0; stroke: #000000; stroke-width: 0.8"/>
      </g>
     </g>
     <g id="text_6">
      <!-- 0.25 -->
      <g transform="translate(345.706406 554.784375) scale(0.12 -0.12)">
       <use xlink:href="#DejaVuSerif-30"/>
       <use xlink:href="#DejaVuSerif-2e" x="63.623047"/>
       <use xlink:href="#DejaVuSerif-32" x="95.410156"/>
       <use xlink:href="#DejaVuSerif-35" x="159.033203"/>
      </g>
     </g>
    </g>
    <g id="xtick_7">
     <g id="line2d_7">
      <g>
       <use xlink:href="#md3b6673848" x="420.684063" y="538.66625" style="fill-opacity: 0; stroke: #000000; stroke-width: 0.8"/>
      </g>
     </g>
     <g id="text_7">
      <!-- 0.50 -->
      <g transform="translate(407.324688 554.784375) scale(0.12 -0.12)">
       <use xlink:href="#DejaVuSerif-30"/>
       <use xlink:href="#DejaVuSerif-2e" x="63.623047"/>
       <use xlink:href="#DejaVuSerif-35" x="95.410156"/>
       <use xlink:href="#DejaVuSerif-30" x="159.033203"/>
      </g>
     </g>
    </g>
    <g id="xtick_8">
     <g id="line2d_8">
      <g>
       <use xlink:href="#md3b6673848" x="482.302344" y="538.66625" style="fill-opacity: 0; stroke: #000000; stroke-width: 0.8"/>
      </g>
     </g>
     <g id="text_8">
      <!-- 0.75 -->
      <g transform="translate(468.942969 554.784375) scale(0.12 -0.12)">
       <use xlink:href="#DejaVuSerif-30"/>
       <use xlink:href="#DejaVuSerif-2e" x="63.623047"/>
       <use xlink:href="#DejaVuSerif-37" x="95.410156"/>
       <use xlink:href="#DejaVuSerif-35" x="159.033203"/>
      </g>
     </g>
    </g>
    <g id="xtick_9">
     <g id="line2d_9">
      <g>
       <use xlink:href="#md3b6673848" x="543.920625" y="538.66625" style="fill-opacity: 0; stroke: #000000; stroke-width: 0.8"/>
      </g>
     </g>
     <g id="text_9">
      <!-- 1.00 -->
      <g transform="translate(530.56125 554.784375) scale(0.12 -0.12)">
       <use xlink:href="#DejaVuSerif-31"/>
       <use xlink:href="#DejaVuSerif-2e" x="63.623047"/>
       <use xlink:href="#DejaVuSerif-30" x="95.410156"/>
       <use xlink:href="#DejaVuSerif-30" x="159.033203"/>
      </g>
     </g>
    </g>
   </g>
   <g id="matplotlib.axis_2">
    <g id="ytick_1">
     <g id="line2d_10">
      <defs>
       <path id="m859f492775" d="M 0 0 
L -3.5 0 
" style="stroke: #000000; stroke-width: 0.8"/>
      </defs>
      <g>
       <use xlink:href="#m859f492775" x="50.974375" y="538.66625" style="fill-opacity: 0; stroke: #000000; stroke-width: 0.8"/>
      </g>
     </g>
     <g id="text_10">
      <!-- −1.00 -->
      <g transform="translate(7.2 543.225312) scale(0.12 -0.12)">
       <use xlink:href="#DejaVuSerif-2212"/>
       <use xlink:href="#DejaVuSerif-31" x="83.789062"/>
       <use xlink:href="#DejaVuSerif-2e" x="147.412109"/>
       <use xlink:href="#DejaVuSerif-30" x="179.199219"/>
       <use xlink:href="#DejaVuSerif-30" x="242.822266"/>
      </g>
     </g>
    </g>
    <g id="ytick_2">
     <g id="line2d_11">
      <g>
       <use xlink:href="#m859f492775" x="50.974375" y="472.802852" style="fill-opacity: 0; stroke: #000000; stroke-width: 0.8"/>
      </g>
     </g>
     <g id="text_11">
      <!-- −0.75 -->
      <g transform="translate(7.2 477.361914) scale(0.12 -0.12)">
       <use xlink:href="#DejaVuSerif-2212"/>
       <use xlink:href="#DejaVuSerif-30" x="83.789062"/>
       <use xlink:href="#DejaVuSerif-2e" x="147.412109"/>
       <use xlink:href="#DejaVuSerif-37" x="179.199219"/>
       <use xlink:href="#DejaVuSerif-35" x="242.822266"/>
      </g>
     </g>
    </g>
    <g id="ytick_3">
     <g id="line2d_12">
      <g>
       <use xlink:href="#m859f492775" x="50.974375" y="406.939453" style="fill-opacity: 0; stroke: #000000; stroke-width: 0.8"/>
      </g>
     </g>
     <g id="text_12">
      <!-- −0.50 -->
      <g transform="translate(7.2 411.498516) scale(0.12 -0.12)">
       <use xlink:href="#DejaVuSerif-2212"/>
       <use xlink:href="#DejaVuSerif-30" x="83.789062"/>
       <use xlink:href="#DejaVuSerif-2e" x="147.412109"/>
       <use xlink:href="#DejaVuSerif-35" x="179.199219"/>
       <use xlink:href="#DejaVuSerif-30" x="242.822266"/>
      </g>
     </g>
    </g>
    <g id="ytick_4">
     <g id="line2d_13">
      <g>
       <use xlink:href="#m859f492775" x="50.974375" y="341.076055" style="fill-opacity: 0; stroke: #000000; stroke-width: 0.8"/>
      </g>
     </g>
     <g id="text_13">
      <!-- −0.25 -->
      <g transform="translate(7.2 345.635117) scale(0.12 -0.12)">
       <use xlink:href="#DejaVuSerif-2212"/>
       <use xlink:href="#DejaVuSerif-30" x="83.789062"/>
       <use xlink:href="#DejaVuSerif-2e" x="147.412109"/>
       <use xlink:href="#DejaVuSerif-32" x="179.199219"/>
       <use xlink:href="#DejaVuSerif-35" x="242.822266"/>
      </g>
     </g>
    </g>
    <g id="ytick_5">
     <g id="line2d_14">
      <g>
       <use xlink:href="#m859f492775" x="50.974375" y="275.212656" style="fill-opacity: 0; stroke: #000000; stroke-width: 0.8"/>
      </g>
     </g>
     <g id="text_14">
      <!-- 0.00 -->
      <g transform="translate(17.255625 279.771719) scale(0.12 -0.12)">
       <use xlink:href="#DejaVuSerif-30"/>
       <use xlink:href="#DejaVuSerif-2e" x="63.623047"/>
       <use xlink:href="#DejaVuSerif-30" x="95.410156"/>
       <use xlink:href="#DejaVuSerif-30" x="159.033203"/>
      </g>
     </g>
    </g>
    <g id="ytick_6">
     <g id="line2d_15">
      <g>
       <use xlink:href="#m859f492775" x="50.974375" y="209.349258" style="fill-opacity: 0; stroke: #000000; stroke-width: 0.8"/>
      </g>
     </g>
     <g id="text_15">
      <!-- 0.25 -->
      <g transform="translate(17.255625 213.90832) scale(0.12 -0.12)">
       <use xlink:href="#DejaVuSerif-30"/>
       <use xlink:href="#DejaVuSerif-2e" x="63.623047"/>
       <use xlink:href="#DejaVuSerif-32" x="95.410156"/>
       <use xlink:href="#DejaVuSerif-35" x="159.033203"/>
      </g>
     </g>
    </g>
    <g id="ytick_7">
     <g id="line2d_16">
      <g>
       <use xlink:href="#m859f492775" x="50.974375" y="143.485859" style="fill-opacity: 0; stroke: #000000; stroke-width: 0.8"/>
      </g>
     </g>
     <g id="text_16">
      <!-- 0.50 -->
      <g transform="translate(17.255625 148.044922) scale(0.12 -0.12)">
       <use xlink:href="#DejaVuSerif-30"/>
       <use xlink:href="#DejaVuSerif-2e" x="63.623047"/>
       <use xlink:href="#DejaVuSerif-35" x="95.410156"/>
       <use xlink:href="#DejaVuSerif-30" x="159.033203"/>
      </g>
     </g>
    </g>
    <g id="ytick_8">
     <g id="line2d_17">
      <g>
       <use xlink:href="#m859f492775" x="50.974375" y="77.622461" style="fill-opacity: 0; stroke: #000000; stroke-width: 0.8"/>
      </g>
     </g>
     <g id="text_17">
      <!-- 0.75 -->
      <g transform="translate(17.255625 82.181523) scale(0.12 -0.12)">
       <use xlink:href="#DejaVuSerif-30"/>
       <use xlink:href="#DejaVuSerif-2e" x="63.623047"/>
       <use xlink:href="#DejaVuSerif-37" x="95.410156"/>
       <use xlink:href="#DejaVuSerif-35" x="159.033203"/>
      </g>
     </g>
    </g>
    <g id="ytick_9">
     <g id="line2d_18">
      <g>
       <use xlink:href="#m859f492775" x="50.974375" y="11.759062" style="fill-opacity: 0; stroke: #000000; stroke-width: 0.8"/>
      </g>
     </g>
     <g id="text_18">
      <!-- 1.00 -->
      <g transform="translate(17.255625 16.318125) scale(0.12 -0.12)">
       <use xlink:href="#DejaVuSerif-31"/>
       <use xlink:href="#DejaVuSerif-2e" x="63.623047"/>
       <use xlink:href="#DejaVuSerif-30" x="95.410156"/>
       <use xlink:href="#DejaVuSerif-30" x="159.033203"/>
      </g>
     </g>
    </g>
   </g>
   <g id="QuadContourSet_1">
    <path clip-path="url(#p6bdc2b10cf)" style="fill: none; stroke: #440154; stroke-width: 1.5"/>
    <path d="M 100.522298 280.58926 
L 101.275013 281.471208 
L 111.33514 287.757038 
L 121.395268 289.271489 
L 131.455395 286.821886 
L 141.399382 280.58926 
L 141.515523 280.185367 
L 143.43137 269.836052 
L 141.515523 266.778491 
L 134.600116 259.082844 
L 131.455395 257.434494 
L 121.395268 254.842952 
L 111.33514 255.467737 
L 103.747511 259.082844 
L 101.275013 262.197774 
L 98.167417 269.836052 
L 100.522298 280.58926 
z
M 326.23365 388.121339 
L 332.657946 390.014037 
L 342.718074 391.832984 
L 352.778202 390.364341 
L 354.678317 388.121339 
L 352.778202 387.173363 
L 342.718074 384.035041 
L 332.657946 383.20826 
L 326.23365 388.121339 
" clip-path="url(#p6bdc2b10cf)" style="fill: none; stroke: #482878; stroke-width: 1.5"/>
    <path d="M 79.150565 280.58926 
L 81.154758 286.293769 
L 83.614262 291.342468 
L 91.214885 299.115764 
L 96.433693 302.095676 
L 101.275013 303.931846 
L 111.33514 305.686201 
L 121.395268 305.855964 
L 131.455395 304.722889 
L 141.515523 302.350019 
L 142.243134 302.095676 
L 151.575651 297.488172 
L 160.153533 291.342468 
L 161.635778 289.31765 
L 166.801238 280.58926 
L 167.526267 269.836052 
L 162.957303 259.082844 
L 161.635778 257.632666 
L 151.576304 248.329636 
L 151.575651 248.329244 
L 141.515523 243.381905 
L 131.455395 239.783155 
L 121.549172 237.576429 
L 121.395268 237.547848 
L 111.33514 237.017737 
L 106.044283 237.576429 
L 101.275013 238.273408 
L 91.214885 242.817065 
L 85.195657 248.329636 
L 81.154758 255.435696 
L 79.725879 259.082844 
L 78.166195 269.836052 
L 79.150565 280.58926 
z
M 114.998805 495.653418 
L 121.395268 502.028957 
L 127.914102 506.406626 
L 131.455395 507.641813 
L 141.515523 509.838883 
L 151.575651 510.719158 
L 161.635778 510.325772 
L 171.695906 508.476081 
L 177.25721 506.406626 
L 181.756033 503.775671 
L 190.089529 495.653418 
L 191.816161 492.128555 
L 194.424865 484.90021 
L 194.935407 474.147003 
L 191.816161 464.360315 
L 191.248184 463.393795 
L 181.756033 457.447116 
L 171.695906 456.102253 
L 161.635778 457.151668 
L 151.575651 459.482042 
L 141.515523 462.644244 
L 139.56868 463.393795 
L 131.455395 467.920172 
L 121.585553 474.147003 
L 121.395268 474.397906 
L 114.115549 484.90021 
L 114.998805 495.653418 
z
M 114.211999 65.525102 
L 121.395268 74.54222 
L 123.010716 76.27831 
L 131.455395 80.596217 
L 141.515523 84.750291 
L 148.633974 87.031518 
L 151.575651 87.686683 
L 161.635778 89.195186 
L 171.695906 89.809419 
L 181.756033 89.127161 
L 189.743732 87.031518 
L 191.816161 86.03052 
L 201.372139 76.27831 
L 201.876288 73.998081 
L 203.199634 65.525102 
L 201.876288 60.605854 
L 199.814564 54.771894 
L 191.816161 46.855241 
L 187.328153 44.018686 
L 181.756033 41.943565 
L 171.695906 39.807491 
L 161.635778 38.96578 
L 151.575651 39.183963 
L 141.515523 40.425882 
L 131.455395 42.796363 
L 127.966162 44.018686 
L 121.395268 48.527093 
L 114.990051 54.771894 
L 114.211999 65.525102 
z
M 269.424273 388.121339 
L 272.297181 391.116123 
L 282.357309 398.565711 
L 282.876774 398.874547 
L 292.417436 401.786326 
L 302.477564 404.526552 
L 312.537691 407.270746 
L 320.696526 409.627755 
L 322.597819 410.02538 
L 332.657946 412.231076 
L 342.718074 414.614097 
L 352.778202 417.143255 
L 362.838329 419.707329 
L 366.127149 420.380963 
L 372.898457 421.59467 
L 382.958584 422.672925 
L 393.018712 422.343025 
L 399.437397 420.380963 
L 403.078839 417.279976 
L 406.884952 409.627755 
L 404.775033 398.874547 
L 403.078839 396.309266 
L 397.588942 388.121339 
L 393.018712 383.972867 
L 385.22417 377.368131 
L 382.958584 376.047213 
L 372.898457 370.89823 
L 363.599121 366.614923 
L 362.838329 366.346069 
L 352.778202 363.39704 
L 342.718074 360.970559 
L 332.657946 359.070777 
L 322.597819 357.798015 
L 312.537691 357.313266 
L 302.477564 357.850474 
L 292.417436 359.741209 
L 282.357309 363.367785 
L 276.484973 366.614923 
L 272.297181 371.656417 
L 268.507969 377.368131 
L 269.424273 388.121339 
z
M 271.037249 183.810389 
L 272.297181 188.766446 
L 274.138529 194.563597 
L 282.357309 203.637353 
L 284.587423 205.316805 
L 292.417436 208.710161 
L 302.477564 211.106083 
L 312.537691 211.946104 
L 322.597819 211.614923 
L 332.657946 210.308408 
L 342.718074 208.119263 
L 352.067447 205.316805 
L 352.778202 204.788472 
L 362.31928 194.563597 
L 358.589615 183.810389 
L 352.778202 178.494207 
L 346.733429 173.057181 
L 342.718074 170.96232 
L 332.657946 166.561061 
L 322.597819 163.126694 
L 318.933259 162.303973 
L 312.537691 161.240267 
L 302.477564 160.583231 
L 292.417436 161.241842 
L 287.977946 162.303973 
L 282.357309 164.672524 
L 273.213383 173.057181 
L 272.297181 176.680701 
L 271.037249 183.810389 
M 442.688776 226.823221 
L 443.319349 232.091237 
L 443.875528 237.576429 
L 451.242822 248.329636 
L 453.379477 250.396222 
L 463.358403 259.082844 
L 463.439605 259.139268 
L 473.499732 263.904049 
L 483.55986 266.01169 
L 493.619987 264.080756 
L 499.948266 259.082844 
L 503.680115 251.815411 
L 504.732146 248.329636 
L 504.004403 237.576429 
L 503.680115 236.866231 
L 497.024894 226.823221 
L 493.619987 224.21256 
L 483.55986 219.642671 
L 473.499732 217.452675 
L 463.439605 217.269514 
L 453.379477 219.420616 
L 443.319349 226.052507 
L 442.688776 226.823221 
" clip-path="url(#p6bdc2b10cf)" style="fill: none; stroke: #3e4989; stroke-width: 1.5"/>
    <path d="M 70.009431 302.095676 
L 71.09463 303.819015 
L 80.866205 312.848884 
L 81.154758 313.009743 
L 91.214885 316.468665 
L 101.275013 317.988405 
L 111.33514 318.402002 
L 121.395268 318.051638 
L 131.455395 317.046477 
L 141.515523 315.399763 
L 151.575651 313.018706 
L 152.144725 312.848884 
L 161.635778 309.207357 
L 171.695906 303.767853 
L 174.157361 302.095676 
L 181.756033 293.74977 
L 183.564557 291.342468 
L 187.637525 280.58926 
L 188.011216 269.836052 
L 184.732044 259.082844 
L 181.756033 254.857335 
L 176.65886 248.329636 
L 171.695906 244.561411 
L 161.635778 238.071469 
L 160.754238 237.576429 
L 151.575651 233.660774 
L 141.515523 230.147362 
L 131.455395 227.331767 
L 128.993107 226.823221 
L 121.395268 225.33981 
L 111.33514 224.130851 
L 101.275013 223.817322 
L 91.214885 224.800898 
L 84.289927 226.823221 
L 81.154758 228.098583 
L 71.09463 237.103371 
L 70.787661 237.576429 
L 66.476536 248.329636 
L 64.510952 259.082844 
L 63.850643 269.836052 
L 64.294341 280.58926 
L 66.05505 291.342468 
L 70.009431 302.095676 
z
M 86.132317 506.406626 
L 91.214885 511.60689 
L 98.943916 517.159834 
L 101.275013 518.160966 
L 111.33514 521.396151 
L 121.395268 523.512364 
L 131.455395 524.873983 
L 141.515523 525.662082 
L 151.575651 525.949922 
L 161.635778 525.735685 
L 171.695906 524.926081 
L 181.756033 523.250375 
L 191.816161 520.103269 
L 197.214878 517.159834 
L 201.876288 513.223617 
L 206.779798 506.406626 
L 211.00598 495.653418 
L 211.936416 491.620161 
L 213.220075 484.90021 
L 214.422774 474.147003 
L 214.930447 463.393795 
L 214.498996 452.640587 
L 211.936416 442.317602 
L 211.696884 441.887379 
L 201.876288 435.774972 
L 191.816161 435.531017 
L 181.756033 436.842878 
L 171.695906 438.869408 
L 161.635778 441.342735 
L 159.734637 441.887379 
L 151.575651 444.303082 
L 141.515523 447.46407 
L 131.455395 450.745937 
L 125.784212 452.640587 
L 121.395268 454.464316 
L 111.33514 458.748064 
L 101.395817 463.393795 
L 101.275013 463.481187 
L 91.214885 471.27624 
L 88.064106 474.147003 
L 82.654552 484.90021 
L 82.095328 495.653418 
L 86.132317 506.406626 
z
M 86.105097 76.27831 
L 91.214885 81.215704 
L 98.938712 87.031518 
L 101.275013 88.099892 
L 111.33514 92.07482 
L 121.395268 95.337279 
L 129.961563 97.784726 
L 131.455395 98.124137 
L 141.515523 100.26067 
L 151.575651 102.168846 
L 161.635778 103.849436 
L 171.695906 105.242126 
L 181.756033 106.213109 
L 191.816161 106.525169 
L 201.876288 105.628443 
L 211.936416 102.035626 
L 216.886553 97.784726 
L 221.996543 88.752709 
L 222.603491 87.031518 
L 224.521048 76.27831 
L 224.803236 65.525102 
L 223.495201 54.771894 
L 221.996543 49.914223 
L 219.622516 44.018686 
L 211.936416 35.034484 
L 209.52562 33.265478 
L 201.876288 29.688746 
L 191.816161 26.941222 
L 181.756033 25.349913 
L 171.695906 24.473498 
L 161.635778 24.11171 
L 151.575651 24.164027 
L 141.515523 24.608298 
L 131.455395 25.476318 
L 121.395268 26.857957 
L 111.33514 28.93733 
L 101.275013 32.070746 
L 98.430881 33.265478 
L 91.214885 38.268532 
L 85.443148 44.018686 
L 81.189441 54.771894 
L 81.37722 65.525102 
L 86.105097 76.27831 
M 237.582267 398.874547 
L 242.116798 407.567663 
L 244.657832 409.627755 
L 252.176926 411.905681 
L 262.237054 413.2954 
L 272.297181 414.226 
L 282.357309 415.143023 
L 292.417436 416.237121 
L 302.477564 417.66652 
L 312.537691 419.506805 
L 316.447232 420.380963 
L 322.597819 421.557777 
L 332.657946 423.846365 
L 342.718074 426.542175 
L 352.778202 429.639268 
L 357.386485 431.134171 
L 362.838329 432.88992 
L 372.898457 436.143048 
L 382.958584 439.470267 
L 390.877883 441.887379 
L 393.018712 442.608906 
L 403.078839 444.947982 
L 413.138967 446.149709 
L 423.199094 445.133873 
L 429.641357 441.887379 
L 433.259222 437.846538 
L 436.357036 431.134171 
L 436.769687 420.380963 
L 434.275407 409.627755 
L 433.259222 407.570416 
L 429.246864 398.874547 
L 423.199094 390.164593 
L 421.783242 388.121339 
L 413.138967 379.229518 
L 411.225951 377.368131 
L 403.078839 371.465944 
L 395.523504 366.614923 
L 393.018712 365.314921 
L 382.958584 360.711393 
L 372.898457 356.718329 
L 370.484405 355.861716 
L 362.838329 353.493469 
L 352.778202 350.793969 
L 342.718074 348.448191 
L 332.657946 346.437885 
L 324.387559 345.108508 
L 322.597819 344.835836 
L 312.537691 343.785908 
L 302.477564 343.254052 
L 292.417436 343.381513 
L 282.357309 344.346543 
L 278.338466 345.108508 
L 272.297181 346.574345 
L 262.237054 350.61443 
L 253.956914 355.861716 
L 252.176926 357.548303 
L 244.776786 366.614923 
L 242.116798 372.210367 
L 239.909737 377.368131 
L 237.592126 388.121339 
L 237.582267 398.874547 
M 250.709442 194.563597 
L 252.176926 198.580416 
L 255.169578 205.316805 
L 262.237054 213.608819 
L 265.206534 216.070013 
L 272.297181 220.038061 
L 282.357309 223.632529 
L 292.417436 225.745462 
L 302.477564 226.754032 
L 306.144408 226.823221 
L 312.537691 226.927809 
L 315.683485 226.823221 
L 322.597819 226.570381 
L 332.657946 225.820168 
L 342.718074 224.840706 
L 352.778202 223.824366 
L 362.838329 223.008032 
L 372.898457 222.688972 
L 382.958584 223.243964 
L 393.018712 225.553973 
L 395.62465 226.823221 
L 403.078839 229.869544 
L 413.138967 237.561274 
L 413.152875 237.576429 
L 423.199094 246.37926 
L 424.970875 248.329636 
L 433.259222 256.089402 
L 436.251762 259.082844 
L 443.319349 265.457982 
L 448.477523 269.836052 
L 453.379477 273.726644 
L 463.439605 280.444095 
L 463.729325 280.58926 
L 473.499732 285.275779 
L 483.55986 288.376823 
L 493.619987 289.646941 
L 503.680115 288.535371 
L 513.740242 283.644882 
L 516.796898 280.58926 
L 523.109469 269.836052 
L 523.80037 267.585655 
L 525.740389 259.082844 
L 526.677959 248.329636 
L 526.246747 237.576429 
L 524.150712 226.823221 
L 523.80037 225.878181 
L 518.789885 216.070013 
L 513.740242 210.919528 
L 504.391112 205.316805 
L 503.680115 205.033121 
L 493.619987 202.275966 
L 483.55986 200.617833 
L 473.499732 199.56883 
L 463.439605 198.878244 
L 453.379477 198.356003 
L 443.319349 197.817838 
L 433.259222 197.010308 
L 423.199094 195.449508 
L 420.000206 194.563597 
L 413.138967 192.915834 
L 403.078839 188.810904 
L 395.749041 183.810389 
L 393.018712 182.248371 
L 382.958584 175.092883 
L 380.498215 173.057181 
L 372.898457 168.262952 
L 363.330955 162.303973 
L 362.838329 162.051614 
L 352.778202 157.44048 
L 342.718074 153.571277 
L 336.411577 151.550765 
L 332.657946 150.521261 
L 322.597819 148.282431 
L 312.537691 146.518279 
L 302.477564 145.197424 
L 292.417436 144.365249 
L 282.357309 144.183744 
L 272.297181 145.087947 
L 262.237054 148.296731 
L 257.770104 151.550765 
L 252.176926 159.723235 
L 251.112546 162.303973 
L 249.027708 173.057181 
L 248.965796 183.810389 
L 250.709442 194.563597 
z
M 405.530846 44.018686 
L 413.138967 51.599112 
L 418.558663 54.771894 
L 423.199094 56.109395 
L 433.259222 56.465028 
L 443.319349 54.805311 
L 443.424406 54.771894 
L 453.379477 48.447718 
L 459.020165 44.018686 
L 456.347896 33.265478 
L 453.379477 32.029224 
L 443.319349 29.3894 
L 433.259222 28.273123 
L 423.199094 28.528494 
L 413.138967 30.544681 
L 407.171821 33.265478 
L 405.530846 44.018686 
" clip-path="url(#p6bdc2b10cf)" style="fill: none; stroke: #31688e; stroke-width: 1.5"/>
    <path d="M 50.974375 527.156059 
L 50.974375 527.913042 
L 61.034503 538.66625 
L 65.064087 538.66625 
M 50.974375 462.965256 
L 50.974375 463.393795 
L 50.974375 464.285196 
M 50.974375 324.433686 
L 61.034503 331.998659 
L 71.09463 331.831387 
L 81.154758 331.549992 
L 91.214885 331.148801 
L 101.275013 330.624349 
L 111.33514 329.962103 
L 121.395268 329.155088 
L 131.455395 328.177526 
L 141.515523 327.003262 
L 151.575651 325.587835 
L 161.635778 323.842172 
L 162.895317 323.602092 
L 171.695906 321.59443 
L 181.756033 318.588889 
L 191.816161 314.019341 
L 193.79347 312.848884 
L 201.876288 304.705836 
L 203.733443 302.095676 
L 208.183907 291.342468 
L 210.309999 280.58926 
L 210.963195 269.836052 
L 210.060034 259.082844 
L 206.243986 248.329636 
L 201.876288 243.691473 
L 194.692485 237.576429 
L 191.816161 236.197169 
L 181.756033 231.561829 
L 171.695906 227.650212 
L 169.557199 226.823221 
L 161.635778 224.278795 
L 151.575651 221.280915 
L 141.515523 218.573149 
L 131.455395 216.130145 
L 131.171713 216.070013 
L 121.395268 213.90398 
L 111.33514 211.986292 
L 101.275013 210.359432 
L 91.214885 209.037859 
L 81.154758 208.006661 
L 71.09463 207.273121 
L 61.034503 206.833011 
L 50.974375 205.316805 
L 50.974375 199.834769 
M 50.974375 162.349937 
L 50.974375 162.303973 
L 50.974375 151.550765 
L 50.974375 140.797557 
L 50.974375 130.044349 
L 50.974375 119.291142 
L 50.974375 115.735459 
M 50.974375 11.759062 
L 50.974375 22.51227 
L 50.974375 33.265478 
L 50.974375 44.018686 
L 50.974375 54.771894 
L 50.974375 65.525102 
L 50.974375 76.27831 
L 50.974375 87.031518 
L 50.974375 97.784726 
L 61.034503 104.300793 
L 71.09463 104.657258 
L 81.154758 105.244543 
L 91.214885 106.055604 
L 101.275013 107.073741 
L 111.33514 108.293937 
L 112.957192 108.537934 
L 121.395268 109.641744 
L 131.455395 111.130505 
L 141.515523 112.746413 
L 151.575651 114.483163 
L 161.635778 116.346749 
L 171.695906 118.341996 
L 176.341976 119.291142 
L 181.756033 120.519697 
L 191.816161 122.951625 
L 201.876288 125.81924 
L 211.936416 129.653673 
L 212.835508 130.044349 
L 221.996543 137.385754 
L 224.502102 140.797557 
L 227.955815 151.550765 
L 229.281857 162.303973 
L 229.938533 173.057181 
L 230.393248 183.810389 
L 230.960064 194.563597 
L 232.056671 205.090814 
L 232.083636 205.316805 
L 234.622729 216.070013 
L 241.772032 226.823221 
L 242.116798 227.102794 
L 252.176926 233.147766 
L 262.237054 236.424778 
L 267.797258 237.576429 
L 272.297181 238.374709 
L 282.357309 239.495091 
L 292.417436 239.992632 
L 302.477564 239.96166 
L 312.537691 239.541171 
L 322.597819 238.920638 
L 332.657946 238.243729 
L 342.718074 237.659387 
L 345.615573 237.576429 
L 352.778202 237.35677 
L 361.385773 237.576429 
L 362.838329 237.613274 
L 372.898457 238.682533 
L 382.958584 240.851135 
L 393.018712 244.558333 
L 399.737937 248.329636 
L 403.078839 250.219375 
L 413.138967 257.475551 
L 415.02058 259.082844 
L 423.199094 266.110201 
L 427.273429 269.836052 
L 433.259222 275.4511 
L 439.039709 280.58926 
L 443.319349 284.494299 
L 452.110901 291.342468 
L 453.379477 292.374378 
L 463.439605 298.96842 
L 469.712739 302.095676 
L 473.499732 304.17448 
L 483.55986 308.220732 
L 493.619987 311.166853 
L 501.752513 312.848884 
L 503.680115 313.358355 
L 513.740242 315.042612 
L 523.80037 316.141919 
L 533.860497 316.765903 
L 543.920625 323.602092 
L 543.920625 334.3553 
L 543.920625 345.108508 
L 543.920625 355.861716 
L 543.920625 366.614923 
L 543.920625 377.368131 
L 543.920625 388.121339 
L 543.920625 398.874547 
L 543.920625 409.627755 
L 543.920625 420.380963 
L 543.920625 431.134171 
L 543.920625 441.887379 
L 543.920625 452.640587 
L 543.920625 463.393795 
L 543.920625 474.147003 
L 543.920625 484.90021 
L 543.920625 495.653418 
L 543.920625 506.406626 
L 543.920625 517.159834 
L 543.920625 527.913042 
L 533.860497 538.66625 
L 523.80037 538.66625 
L 521.290097 538.66625 
M 89.989018 538.66625 
L 91.214885 538.66625 
L 101.275013 538.66625 
L 111.33514 538.66625 
L 111.473261 538.66625 
M 150.540257 538.66625 
L 151.575651 538.66625 
L 161.635778 538.66625 
L 171.695906 538.66625 
L 181.756033 538.66625 
L 191.816161 538.66625 
L 201.876288 538.66625 
L 211.936416 538.66625 
L 221.996543 538.66625 
L 225.586267 527.913042 
L 225.846295 517.159834 
L 226.303958 506.406626 
L 227.006456 495.653418 
L 228.028462 484.90021 
L 229.536965 474.147003 
L 231.833488 463.393795 
L 232.056671 462.628816 
L 235.458703 452.640587 
L 242.116798 442.179784 
L 242.375519 441.887379 
L 252.176926 434.418322 
L 260.372987 431.134171 
L 262.237054 430.530539 
L 272.297181 428.452752 
L 282.357309 427.5428 
L 292.417436 427.46816 
L 302.477564 428.137943 
L 312.537691 429.486147 
L 320.998504 431.134171 
L 322.597819 431.431155 
L 332.657946 433.868375 
L 342.718074 436.884873 
L 352.778202 440.463175 
L 356.452351 441.887379 
L 362.838329 444.591956 
L 372.898457 449.145833 
L 380.20812 452.640587 
L 382.958584 454.248777 
L 393.018712 459.886963 
L 399.567333 463.393795 
L 403.078839 465.968628 
L 413.138967 472.507627 
L 416.165133 474.147003 
L 423.199094 479.957987 
L 430.809583 484.90021 
L 433.259222 487.736911 
L 443.058653 495.653418 
L 443.319349 496.101373 
L 453.379477 506.126773 
L 453.940185 506.406626 
L 462.677859 517.159834 
L 463.439605 520.801544 
L 469.434886 527.913042 
L 463.439605 538.66625 
L 453.379477 538.66625 
L 443.319349 538.66625 
L 433.259222 538.66625 
L 423.199094 538.66625 
L 413.138967 538.66625 
L 403.078839 538.66625 
L 393.018712 538.66625 
L 382.958584 538.66625 
L 372.898457 538.66625 
L 362.838329 538.66625 
L 352.778202 538.66625 
L 342.718074 538.66625 
L 332.657946 538.66625 
L 325.12002 538.66625 
M 489.774088 538.66625 
L 493.619987 538.66625 
L 496.167786 527.913042 
L 496.132331 517.159834 
L 495.435758 506.406626 
L 493.784878 495.653418 
L 493.619987 495.233308 
L 491.702103 484.90021 
L 488.983594 474.147003 
L 485.351501 463.393795 
L 483.55986 459.943077 
L 481.288739 452.640587 
L 476.866528 441.887379 
L 473.499732 435.792986 
L 471.718626 431.134171 
L 466.253993 420.380963 
L 463.439605 416.023518 
L 460.16352 409.627755 
L 453.379477 399.427931 
L 453.058768 398.874547 
L 445.058533 388.121339 
L 443.319349 386.209393 
L 435.329688 377.368131 
L 433.259222 375.503989 
L 423.199094 367.196236 
L 422.43397 366.614923 
L 413.138967 360.762607 
L 403.642235 355.861716 
L 403.078839 355.603912 
L 393.018712 351.413341 
L 382.958584 347.905501 
L 373.898033 345.108508 
L 372.898457 344.814672 
L 362.838329 342.061504 
L 352.778202 339.597257 
L 342.718074 337.348924 
L 332.657946 335.297387 
L 327.411409 334.3553 
L 322.597819 333.448003 
L 312.537691 331.859266 
L 302.477564 330.592869 
L 292.417436 329.732356 
L 282.357309 329.355933 
L 272.297181 329.535368 
L 262.237054 330.442109 
L 252.176926 332.419752 
L 246.400204 334.3553 
L 242.116798 336.186621 
L 232.056671 343.862741 
L 231.040691 345.108508 
L 224.731514 355.861716 
L 221.996543 362.547652 
L 220.613718 366.614923 
L 217.107414 377.368131 
L 213.135687 388.121339 
L 211.936416 390.692684 
L 207.681445 398.874547 
L 201.876288 406.003172 
L 198.34057 409.627755 
L 191.816161 414.211583 
L 181.756033 419.808166 
L 180.653397 420.380963 
L 171.695906 424.179429 
L 161.635778 428.022146 
L 152.837897 431.134171 
L 151.575651 431.557022 
L 141.515523 434.815261 
L 131.455395 437.81835 
L 121.395268 440.561665 
L 115.76439 441.887379 
L 111.33514 443.083174 
L 101.275013 445.346268 
L 91.214885 447.220192 
L 81.154758 448.705547 
L 71.09463 449.77548 
L 61.034503 450.422841 
L 50.974375 441.887379 
L 50.974375 431.134171 
L 50.974375 420.380963 
L 50.974375 416.122297 
M 246.843552 108.537934 
L 244.055109 97.784726 
L 242.97997 87.031518 
L 242.568201 76.27831 
L 242.453512 65.525102 
L 242.482537 54.771894 
L 242.577646 44.018686 
L 242.688694 33.265478 
L 242.786732 22.51227 
L 252.176926 11.759062 
L 262.237054 11.759062 
L 272.297181 11.759062 
L 282.357309 11.759062 
L 292.417436 11.759062 
L 302.477564 11.759062 
L 312.537691 11.759062 
L 322.597819 11.759062 
L 332.657946 11.759062 
L 342.718074 11.759062 
L 352.778202 11.759062 
L 362.838329 11.759062 
L 365.282896 22.51227 
L 370.254377 33.265478 
L 372.898457 37.371532 
L 376.326805 44.018686 
L 382.958584 53.420882 
L 383.92962 54.771894 
L 393.018712 63.978722 
L 394.98368 65.525102 
L 403.078839 70.540014 
L 413.138967 74.225534 
L 423.199094 75.721688 
L 433.259222 75.445148 
L 443.319349 73.922705 
L 453.379477 71.52846 
L 463.439605 68.587948 
L 473.202189 65.525102 
L 473.499732 65.397167 
L 483.55986 61.413266 
L 493.619987 57.849058 
L 503.680115 54.934588 
L 504.610875 54.771894 
L 513.740242 51.714054 
L 523.80037 49.799931 
L 533.860497 49.239649 
L 543.920625 54.771894 
L 543.920625 65.525102 
L 543.920625 76.27831 
L 543.920625 87.031518 
L 543.920625 97.784726 
L 543.920625 108.537934 
L 543.920625 119.291142 
L 543.920625 130.044349 
L 543.920625 140.797557 
L 543.920625 151.550765 
L 543.920625 162.303973 
L 543.920625 173.057181 
L 543.920625 183.810389 
L 533.860497 186.920493 
L 523.80037 186.877656 
L 513.740242 186.792807 
L 503.680115 186.653629 
L 493.619987 186.439848 
L 483.55986 186.120354 
L 473.499732 185.646015 
L 463.439605 184.941456 
L 453.379477 183.888685 
L 452.848589 183.810389 
L 443.319349 182.383038 
L 433.259222 180.216592 
L 423.199094 177.126528 
L 413.70941 173.057181 
L 413.138967 172.802265 
L 403.078839 167.580317 
L 394.232241 162.303973 
L 393.018712 161.576489 
L 382.958584 155.687177 
L 375.232405 151.550765 
L 372.898457 150.354385 
L 362.838329 145.984196 
L 352.778202 142.542783 
L 346.57767 140.797557 
L 342.718074 139.780954 
L 332.657946 137.550327 
L 322.597819 135.620962 
L 312.537691 133.830014 
L 302.477564 132.0702 
L 292.417436 130.219467 
L 291.468026 130.044349 
L 282.357309 128.124928 
L 272.297181 125.616753 
L 262.237054 122.228528 
L 256.117775 119.291142 
L 252.176926 115.942227 
L 246.843552 108.537934 
z
" clip-path="url(#p6bdc2b10cf)" style="fill: none; stroke: #26828e; stroke-width: 1.5"/>
    <path d="M 70.015337 409.627755 
L 67.437906 398.874547 
L 66.606138 388.121339 
L 67.184324 377.368131 
L 69.619399 366.614923 
L 71.09463 363.373218 
L 75.91797 355.861716 
L 81.154758 351.501197 
L 91.214885 346.438845 
L 95.200071 345.108508 
L 101.275013 343.612251 
L 111.33514 341.816121 
L 121.395268 340.495741 
L 131.455395 339.491952 
L 141.515523 338.746468 
L 151.575651 338.280809 
L 161.635778 338.196311 
L 171.695906 338.739925 
L 181.756033 340.540289 
L 191.464996 345.108508 
L 191.816161 345.477167 
L 197.334986 355.861716 
L 197.954409 366.614923 
L 196.005471 377.368131 
L 191.816161 387.43337 
L 191.523301 388.121339 
L 183.656352 398.874547 
L 181.756033 400.603547 
L 171.695906 408.625449 
L 170.276502 409.627755 
L 161.635778 414.24837 
L 151.575651 418.842309 
L 147.653899 420.380963 
L 141.515523 422.506395 
L 131.455395 425.400649 
L 121.395268 427.645218 
L 111.33514 429.088253 
L 101.275013 429.478021 
L 91.214885 428.242004 
L 81.154758 424.152911 
L 76.664365 420.380963 
L 71.09463 412.088511 
L 70.015337 409.627755 
z
M 80.949184 183.810389 
L 74.521245 173.057181 
L 72.412342 162.303973 
L 72.901463 151.550765 
L 76.289741 140.797557 
L 81.154758 134.198782 
L 86.023505 130.044349 
L 91.214885 127.370703 
L 101.275013 124.534794 
L 111.33514 123.373266 
L 121.395268 123.245713 
L 131.455395 123.849644 
L 141.515523 125.007968 
L 151.575651 126.647875 
L 161.635778 128.766138 
L 166.603583 130.044349 
L 171.695906 131.601736 
L 181.756033 135.368695 
L 191.816161 140.310771 
L 192.641312 140.797557 
L 201.876288 149.089495 
L 203.991413 151.550765 
L 209.20797 162.303973 
L 211.467573 173.057181 
L 211.647728 183.810389 
L 209.792604 194.563597 
L 204.567443 205.316805 
L 201.876288 208.159032 
L 191.816161 212.564266 
L 181.756033 213.317961 
L 171.695906 212.530616 
L 161.635778 210.965864 
L 151.575651 209.028401 
L 141.515523 206.889722 
L 134.596413 205.316805 
L 131.455395 204.516327 
L 121.395268 201.813086 
L 111.33514 198.958293 
L 101.275013 195.748133 
L 97.953201 194.563597 
L 91.214885 191.099272 
L 81.154758 183.99747 
L 80.949184 183.810389 
z
M 241.845694 495.653418 
L 241.839264 484.90021 
L 242.116798 483.120825 
L 243.558001 474.147003 
L 247.283292 463.393795 
L 252.176926 455.502999 
L 254.489677 452.640587 
L 262.237054 446.319479 
L 271.19125 441.887379 
L 272.297181 441.458746 
L 282.357309 438.98269 
L 292.417436 437.915908 
L 302.477564 437.980236 
L 312.537691 438.996092 
L 322.597819 440.821796 
L 326.740715 441.887379 
L 332.657946 443.510035 
L 342.718074 447.0367 
L 352.778202 451.292048 
L 355.654243 452.640587 
L 362.838329 456.746157 
L 372.898457 463.019842 
L 373.492101 463.393795 
L 382.958584 471.657912 
L 385.89452 474.147003 
L 393.018712 483.903829 
L 393.846504 484.90021 
L 397.697976 495.653418 
L 396.356089 506.406626 
L 393.018712 510.801662 
L 387.063089 517.159834 
L 382.958584 519.321314 
L 372.898457 523.363965 
L 362.838329 526.052308 
L 352.778202 527.873007 
L 352.483903 527.913042 
L 342.718074 528.967496 
L 332.657946 529.676954 
L 322.597819 530.073224 
L 312.537691 530.195835 
L 302.477564 530.047922 
L 292.417436 529.579263 
L 282.357309 528.687749 
L 276.859562 527.913042 
L 272.297181 527.089815 
L 262.237054 524.177266 
L 252.176926 518.630816 
L 250.465702 517.159834 
L 243.994832 506.406626 
L 242.116798 497.258778 
L 241.845694 495.653418 
z
M 249.566554 302.095676 
L 242.689441 291.342468 
L 242.247115 280.58926 
L 246.82889 269.836052 
L 252.176926 265.221682 
L 262.237054 260.415696 
L 266.570575 259.082844 
L 272.297181 258.013485 
L 282.357309 256.54389 
L 292.417436 255.278005 
L 302.477564 254.010563 
L 312.537691 252.730961 
L 322.597819 251.557543 
L 332.657946 250.601537 
L 342.718074 250.001376 
L 352.778202 249.955623 
L 362.838329 250.712486 
L 372.898457 252.534336 
L 382.958584 255.62564 
L 390.542655 259.082844 
L 393.018712 260.36893 
L 403.078839 267.030532 
L 406.663984 269.836052 
L 413.138967 275.652252 
L 418.418583 280.58926 
L 423.199094 285.733203 
L 428.790001 291.342468 
L 433.259222 296.450601 
L 439.160894 302.095676 
L 443.319349 306.790678 
L 450.479711 312.848884 
L 453.379477 315.868443 
L 463.439605 323.07479 
L 464.403526 323.602092 
L 473.499732 329.717351 
L 482.759146 334.3553 
L 483.55986 334.90977 
L 493.619987 341.788567 
L 497.998867 345.108508 
L 503.680115 352.640007 
L 505.621986 355.861716 
L 508.125213 366.614923 
L 507.265913 377.368131 
L 503.680115 385.685541 
L 500.630104 388.121339 
L 493.619987 391.036373 
L 483.55986 388.472989 
L 483.081581 388.121339 
L 473.499732 381.560074 
L 468.834481 377.368131 
L 463.439605 372.829562 
L 456.351718 366.614923 
L 453.379477 364.191503 
L 443.319349 356.927689 
L 441.67541 355.861716 
L 433.259222 350.856424 
L 423.199094 346.593741 
L 419.166157 345.108508 
L 413.138967 342.973569 
L 403.078839 339.969602 
L 393.018712 337.455318 
L 382.958584 335.162161 
L 379.440611 334.3553 
L 372.898457 332.811655 
L 362.838329 330.506408 
L 352.778202 328.276939 
L 342.718074 326.089547 
L 332.657946 323.945989 
L 330.970214 323.602092 
L 322.597819 321.586164 
L 312.537691 319.297386 
L 302.477564 317.136072 
L 292.417436 315.129874 
L 282.357309 313.242451 
L 280.091525 312.848884 
L 272.297181 310.784175 
L 262.237054 307.814663 
L 252.176926 303.659316 
L 249.566554 302.095676 
z
M 261.563857 87.031518 
L 259.669458 76.27831 
L 259.580815 65.525102 
L 261.221266 54.771894 
L 262.237054 51.712147 
L 265.710697 44.018686 
L 272.297181 36.632147 
L 277.53212 33.265478 
L 282.357309 31.144971 
L 292.417436 28.677554 
L 302.477564 27.676493 
L 312.537691 27.766211 
L 322.597819 28.914667 
L 332.657946 31.496319 
L 336.645779 33.265478 
L 342.718074 36.322712 
L 352.472262 44.018686 
L 352.778202 44.290482 
L 362.337821 54.771894 
L 362.838329 55.362752 
L 371.182733 65.525102 
L 372.898457 67.664335 
L 380.942482 76.27831 
L 382.958584 78.443876 
L 393.018712 85.903549 
L 395.611105 87.031518 
L 403.078839 90.348507 
L 413.138967 92.105703 
L 423.199094 92.0996 
L 433.259222 90.924006 
L 443.319349 89.062614 
L 452.398413 87.031518 
L 453.379477 86.823434 
L 463.439605 84.575121 
L 473.499732 82.546759 
L 483.55986 81.125989 
L 493.619987 80.780359 
L 503.680115 82.347811 
L 513.148095 87.031518 
L 513.740242 87.438428 
L 521.767409 97.784726 
L 523.80037 102.620526 
L 525.60439 108.537934 
L 527.224096 119.291142 
L 527.457221 130.044349 
L 526.355032 140.797557 
L 523.80037 149.936983 
L 523.21079 151.550765 
L 515.276666 162.303973 
L 513.740242 163.509251 
L 503.680115 168.453744 
L 493.619987 170.93513 
L 483.55986 172.046401 
L 473.499732 172.217755 
L 463.439605 171.59258 
L 453.379477 170.194611 
L 443.319349 167.966808 
L 433.259222 164.811481 
L 427.076099 162.303973 
L 423.199094 160.437294 
L 413.138967 154.924779 
L 407.367389 151.550765 
L 403.078839 148.532467 
L 393.018712 142.190692 
L 390.42166 140.797557 
L 382.958584 136.33284 
L 372.898457 132.324289 
L 364.365574 130.044349 
L 362.838329 129.617505 
L 352.778202 127.490212 
L 342.718074 125.921119 
L 332.657946 124.510206 
L 322.597819 122.989642 
L 312.537691 121.210682 
L 303.639731 119.291142 
L 302.477564 118.998979 
L 292.417436 115.825611 
L 282.357309 111.521936 
L 277.142471 108.537934 
L 272.297181 104.453635 
L 266.440195 97.784726 
L 262.237054 88.792268 
L 261.563857 87.031518 
z
" clip-path="url(#p6bdc2b10cf)" style="fill: none; stroke: #1f9e89; stroke-width: 1.5"/>
    <path d="M 87.1948 398.874547 
L 84.603241 388.121339 
L 85.841443 377.368131 
L 91.214885 367.399493 
L 91.796276 366.614923 
L 101.275013 359.948264 
L 110.527755 355.861716 
L 111.33514 355.614287 
L 121.395268 353.604082 
L 131.455395 352.579463 
L 141.515523 352.472759 
L 151.575651 353.460746 
L 161.010719 355.861716 
L 161.635778 356.153097 
L 171.695906 365.185106 
L 172.650008 366.614923 
L 173.632029 377.368131 
L 171.695906 382.120118 
L 169.103006 388.121339 
L 161.635778 396.306641 
L 158.946345 398.874547 
L 151.575651 403.45947 
L 141.515523 408.544718 
L 138.616215 409.627755 
L 131.455395 411.719515 
L 121.395268 413.458202 
L 111.33514 413.673082 
L 101.275013 411.742258 
L 96.885894 409.627755 
L 91.214885 404.80565 
L 87.1948 398.874547 
z
M 100.908023 173.057181 
L 97.052929 162.303973 
L 99.297156 151.550765 
L 101.275013 149.178768 
L 111.33514 141.607637 
L 113.414389 140.797557 
L 121.395268 139.026372 
L 131.455395 138.369122 
L 141.515523 138.908326 
L 151.575651 140.44421 
L 153.005453 140.797557 
L 161.635778 143.676872 
L 171.695906 148.27008 
L 177.133588 151.550765 
L 181.756033 156.211683 
L 186.590871 162.303973 
L 189.880919 173.057181 
L 187.68475 183.810389 
L 181.756033 190.394163 
L 173.260713 194.563597 
L 171.695906 194.983785 
L 161.635778 195.692811 
L 151.575651 195.026755 
L 148.687886 194.563597 
L 141.515523 193.143127 
L 131.455395 190.336041 
L 121.395268 186.864067 
L 114.166635 183.810389 
L 111.33514 181.877724 
L 101.275013 173.432199 
L 100.908023 173.057181 
z
M 257.161606 495.653418 
L 256.007892 484.90021 
L 258.048432 474.147003 
L 262.237054 465.813304 
L 263.787574 463.393795 
L 272.297181 455.886256 
L 278.130107 452.640587 
L 282.357309 450.954837 
L 292.417436 448.732948 
L 302.477564 448.141692 
L 312.537691 448.87284 
L 322.597819 450.691538 
L 329.542629 452.640587 
L 332.657946 453.692274 
L 342.718074 458.17628 
L 352.373364 463.393795 
L 352.778202 463.705775 
L 362.838329 472.199919 
L 365.040164 474.147003 
L 371.969498 484.90021 
L 372.898457 491.959498 
L 373.440053 495.653418 
L 372.898457 496.898021 
L 367.939453 506.406626 
L 362.838329 510.014334 
L 352.778202 515.152975 
L 347.062453 517.159834 
L 342.718074 518.18263 
L 332.657946 519.818511 
L 322.597819 520.732231 
L 312.537691 521.024073 
L 302.477564 520.707503 
L 292.417436 519.673154 
L 282.357309 517.692838 
L 280.571271 517.159834 
L 272.297181 513.550648 
L 262.628425 506.406626 
L 262.237054 505.830703 
L 257.161606 495.653418 
z
M 279.055101 76.27831 
L 279.546802 65.525102 
L 282.357309 58.894397 
L 284.985307 54.771894 
L 292.417436 49.084118 
L 302.477564 45.569394 
L 312.537691 45.107699 
L 322.597819 47.064523 
L 332.657946 51.421652 
L 337.562079 54.771894 
L 342.718074 59.232694 
L 348.637511 65.525102 
L 352.778202 71.303476 
L 356.298357 76.27831 
L 361.837181 87.031518 
L 362.838329 94.038654 
L 363.604301 97.784726 
L 362.838329 98.96837 
L 352.778202 106.700269 
L 345.493204 108.537934 
L 342.718074 108.86731 
L 332.657946 109.138833 
L 324.232348 108.537934 
L 322.597819 108.392505 
L 312.537691 106.25727 
L 302.477564 102.919403 
L 292.417436 97.926484 
L 292.208389 97.784726 
L 282.391096 87.031518 
L 282.357309 86.944688 
L 279.055101 76.27831 
z
M 295.907589 291.342468 
L 294.728167 280.58926 
L 302.477564 275.17043 
L 311.658522 269.836052 
L 312.537691 269.590391 
L 322.597819 267.175645 
L 332.657946 265.398425 
L 342.718074 264.370227 
L 352.778202 264.275805 
L 362.838329 265.342618 
L 372.898457 267.772071 
L 378.287968 269.836052 
L 382.958584 272.289479 
L 393.018712 279.031934 
L 394.960065 280.58926 
L 403.078839 289.604435 
L 404.629342 291.342468 
L 410.722414 302.095676 
L 411.47474 312.848884 
L 403.078839 318.009039 
L 393.018712 319.635963 
L 382.958584 319.467713 
L 372.898457 318.4609 
L 362.838329 316.962155 
L 352.778202 315.096396 
L 342.718074 312.959629 
L 342.248641 312.848884 
L 332.657946 309.637268 
L 322.597819 306.175836 
L 312.537691 302.596228 
L 311.154114 302.095676 
L 302.477564 295.975539 
L 295.907589 291.342468 
z
M 418.368935 130.044349 
L 418.301228 119.291142 
L 423.199094 115.957902 
L 433.259222 110.037869 
L 436.09536 108.537934 
L 443.319349 106.336343 
L 453.379477 103.514504 
L 463.439605 101.199627 
L 473.499732 99.822191 
L 483.55986 100.057208 
L 493.619987 102.940309 
L 501.426269 108.537934 
L 503.680115 111.762042 
L 507.018738 119.291142 
L 507.849761 130.044349 
L 504.988997 140.797557 
L 503.680115 142.741407 
L 494.539948 151.550765 
L 493.619987 152.064955 
L 483.55986 155.322202 
L 473.499732 156.51444 
L 463.439605 156.105173 
L 453.379477 154.322508 
L 444.20532 151.550765 
L 443.319349 151.150698 
L 433.259222 145.154739 
L 426.828645 140.797557 
L 423.199094 135.886459 
L 418.368935 130.044349 
z
" clip-path="url(#p6bdc2b10cf)" style="fill: none; stroke: #35b779; stroke-width: 1.5"/>
    <path d="M 119.201432 388.121339 
L 120.016826 377.368131 
L 121.395268 376.67713 
L 131.455395 375.838074 
L 135.488706 377.368131 
L 131.970229 388.121339 
L 131.455395 388.365079 
L 121.395268 389.100878 
L 119.201432 388.121339 
z
M 272.230708 484.90021 
L 272.297181 484.621448 
L 275.467224 474.147003 
L 282.357309 466.798141 
L 287.586183 463.393795 
L 292.417436 461.534896 
L 302.477564 459.946799 
L 312.537691 460.327387 
L 322.597819 462.283085 
L 325.918766 463.393795 
L 332.657946 466.65713 
L 342.718074 473.18422 
L 343.964601 474.147003 
L 351.011728 484.90021 
L 350.123217 495.653418 
L 342.718074 502.583196 
L 336.348211 506.406626 
L 332.657946 507.572631 
L 322.597819 509.446999 
L 312.537691 510.076831 
L 302.477564 509.521303 
L 292.417436 507.584924 
L 289.054825 506.406626 
L 282.357309 502.371439 
L 275.42106 495.653418 
L 272.297181 485.194115 
L 272.230708 484.90021 
z
" clip-path="url(#p6bdc2b10cf)" style="fill: none; stroke: #6ece58; stroke-width: 1.5"/>
    <path d="M 301.876519 484.90021 
L 302.477564 484.274354 
L 312.537691 482.561068 
L 317.029716 484.90021 
L 312.537691 487.757468 
L 302.477564 485.54045 
L 301.876519 484.90021 
z
" clip-path="url(#p6bdc2b10cf)" style="fill: none; stroke: #b5de2b; stroke-width: 1.5"/>
    <path clip-path="url(#p6bdc2b10cf)" style="fill: none; stroke: #fde725; stroke-width: 1.5"/>
   </g>
   <g id="patch_3">
    <path d="M 50.974375 538.66625 
L 50.974375 11.759062 
" style="fill: none; stroke: #000000; stroke-width: 0.8; stroke-linejoin: miter; stroke-linecap: square"/>
   </g>
   <g id="patch_4">
    <path d="M 543.920625 538.66625 
L 543.920625 11.759062 
" style="fill: none; stroke: #000000; stroke-width: 0.8; stroke-linejoin: miter; stroke-linecap: square"/>
   </g>
   <g id="patch_5">
    <path d="M 50.974375 538.66625 
L 543.920625 538.66625 
" style="fill: none; stroke: #000000; stroke-width: 0.8; stroke-linejoin: miter; stroke-linecap: square"/>
   </g>
   <g id="patch_6">
    <path d="M 50.974375 11.759062 
L 543.920625 11.759062 
" style="fill: none; stroke: #000000; stroke-width: 0.8; stroke-linejoin: miter; stroke-linecap: square"/>
   </g>
  </g>
 </g>
 <defs>
  <clipPath id="p6bdc2b10cf">
   <rect x="50.974375" y="11.759062" width="492.94625" height="526.907187"/>
  </clipPath>
 </defs>
</svg>