<?xml version="1.0" encoding="utf-8" standalone="no"?>
<!DOCTYPE svg PUBLIC "-//W3C//DTD SVG 1.1//EN"
  "http://www.w3.org/Graphics/SVG/1.1/DTD/svg11.dtd">
<svg xmlns:xlink="http://www.w3.org/1999/xlink" width="499.078125pt" height="269.638125pt" viewBox="0 0 499.078125 269.638125" xmlns="http://www.w3.org/2000/svg" version="1.1">
 <metadata>
  <rdf:RDF xmlns:dc="http://purl.org/dc/elements/1.1/" xmlns:cc="http://creativecommons.org/ns#" xmlns:rdf="http://www.w3.org/1999/02/22-rdf-syntax-ns#">
   <cc:Work>
    <dc:type rdf:resource="http://purl.org/dc/dcmitype/StillImage"/>
    <dc:date>2024-12-10T11:22:51.169381</dc:date>
    <dc:format>image/svg+xml</dc:format>
    <dc:creator>
     <cc:Agent>
      <dc:title>Matplotlib v3.9.2, https://matplotlib.org/</dc:title>
     </cc:Agent>
    </dc:creator>
   </cc:Work>
  </rdf:RDF>
 </metadata>
 <defs>
  <style type="text/css">*{stroke-linejoin: round; stroke-linecap: butt}</style>
 </defs>
 <g id="figure_1">
  <g id="patch_1">
   <path d="M 0 269.638125 
L 499.078125 269.638125 
L 499.078125 0 
L 0 0 
z
" style="fill: #ffffff"/>
  </g>
  <g id="axes_1">
   <g id="patch_2">
    <path d="M 45.478125 245.76 
L 491.878125 245.76 
L 491.878125 24 
L 45.478125 24 
z
" style="fill: #ffffff"/>
   </g>
   <g id="matplotlib.axis_1">
    <g id="xtick_1">
     <g id="line2d_1">
      <defs>
       <path id="mf1705eee94" d="M 0 0 
L 0 3.5 
" style="stroke: #000000; stroke-width: 0.8"/>
      </defs>
      <g>
       <use xlink:href="#mf1705eee94" x="65.769034" y="245.76" style="stroke: #000000; stroke-width: 0.8"/>
      </g>
     </g>
     <g id="text_1">
      <!-- $\mathdefault{10^{0}}$ -->
      <g transform="translate(56.969034 260.358437) scale(0.1 -0.1)">
       <defs>
        <path id="DejaVuSans-31" d="M 794 531 
L 1825 531 
L 1825 4091 
L 703 3866 
L 703 4441 
L 1819 4666 
L 2450 4666 
L 2450 531 
L 3481 531 
L 3481 0 
L 794 0 
L 794 531 
z
" transform="scale(0.015625)"/>
        <path id="DejaVuSans-30" d="M 2034 4250 
Q 1547 4250 1301 3770 
Q 1056 3291 1056 2328 
Q 1056 1369 1301 889 
Q 1547 409 2034 409 
Q 2525 409 2770 889 
Q 3016 1369 3016 2328 
Q 3016 3291 2770 3770 
Q 2525 4250 2034 4250 
z
M 2034 4750 
Q 2819 4750 3233 4129 
Q 3647 3509 3647 2328 
Q 3647 1150 3233 529 
Q 2819 -91 2034 -91 
Q 1250 -91 836 529 
Q 422 1150 422 2328 
Q 422 3509 836 4129 
Q 1250 4750 2034 4750 
z
" transform="scale(0.015625)"/>
       </defs>
       <use xlink:href="#DejaVuSans-31" transform="translate(0 0.765625)"/>
       <use xlink:href="#DejaVuSans-30" transform="translate(63.623047 0.765625)"/>
       <use xlink:href="#DejaVuSans-30" transform="translate(128.203125 39.046875) scale(0.7)"/>
      </g>
     </g>
    </g>
    <g id="xtick_2">
     <g id="line2d_2">
      <g>
       <use xlink:href="#mf1705eee94" x="295.899316" y="245.76" style="stroke: #000000; stroke-width: 0.8"/>
      </g>
     </g>
     <g id="text_2">
      <!-- $\mathdefault{10^{1}}$ -->
      <g transform="translate(287.099316 260.358437) scale(0.1 -0.1)">
       <use xlink:href="#DejaVuSans-31" transform="translate(0 0.684375)"/>
       <use xlink:href="#DejaVuSans-30" transform="translate(63.623047 0.684375)"/>
       <use xlink:href="#DejaVuSans-31" transform="translate(128.203125 38.965625) scale(0.7)"/>
      </g>
     </g>
    </g>
    <g id="xtick_3">
     <g id="line2d_3">
      <defs>
       <path id="m2f1b591c11" d="M 0 0 
L 0 2 
" style="stroke: #000000; stroke-width: 0.6"/>
      </defs>
      <g>
       <use xlink:href="#m2f1b591c11" x="55.23885" y="245.76" style="stroke: #000000; stroke-width: 0.6"/>
      </g>
     </g>
    </g>
    <g id="xtick_4">
     <g id="line2d_4">
      <g>
       <use xlink:href="#m2f1b591c11" x="135.045152" y="245.76" style="stroke: #000000; stroke-width: 0.6"/>
      </g>
     </g>
    </g>
    <g id="xtick_5">
     <g id="line2d_5">
      <g>
       <use xlink:href="#m2f1b591c11" x="175.569083" y="245.76" style="stroke: #000000; stroke-width: 0.6"/>
      </g>
     </g>
    </g>
    <g id="xtick_6">
     <g id="line2d_6">
      <g>
       <use xlink:href="#m2f1b591c11" x="204.32127" y="245.76" style="stroke: #000000; stroke-width: 0.6"/>
      </g>
     </g>
    </g>
    <g id="xtick_7">
     <g id="line2d_7">
      <g>
       <use xlink:href="#m2f1b591c11" x="226.623198" y="245.76" style="stroke: #000000; stroke-width: 0.6"/>
      </g>
     </g>
    </g>
    <g id="xtick_8">
     <g id="line2d_8">
      <g>
       <use xlink:href="#m2f1b591c11" x="244.845201" y="245.76" style="stroke: #000000; stroke-width: 0.6"/>
      </g>
     </g>
    </g>
    <g id="xtick_9">
     <g id="line2d_9">
      <g>
       <use xlink:href="#m2f1b591c11" x="260.251685" y="245.76" style="stroke: #000000; stroke-width: 0.6"/>
      </g>
     </g>
    </g>
    <g id="xtick_10">
     <g id="line2d_10">
      <g>
       <use xlink:href="#m2f1b591c11" x="273.597388" y="245.76" style="stroke: #000000; stroke-width: 0.6"/>
      </g>
     </g>
    </g>
    <g id="xtick_11">
     <g id="line2d_11">
      <g>
       <use xlink:href="#m2f1b591c11" x="285.369132" y="245.76" style="stroke: #000000; stroke-width: 0.6"/>
      </g>
     </g>
    </g>
    <g id="xtick_12">
     <g id="line2d_12">
      <g>
       <use xlink:href="#m2f1b591c11" x="365.175434" y="245.76" style="stroke: #000000; stroke-width: 0.6"/>
      </g>
     </g>
    </g>
    <g id="xtick_13">
     <g id="line2d_13">
      <g>
       <use xlink:href="#m2f1b591c11" x="405.699365" y="245.76" style="stroke: #000000; stroke-width: 0.6"/>
      </g>
     </g>
    </g>
    <g id="xtick_14">
     <g id="line2d_14">
      <g>
       <use xlink:href="#m2f1b591c11" x="434.451552" y="245.76" style="stroke: #000000; stroke-width: 0.6"/>
      </g>
     </g>
    </g>
    <g id="xtick_15">
     <g id="line2d_15">
      <g>
       <use xlink:href="#m2f1b591c11" x="456.753481" y="245.76" style="stroke: #000000; stroke-width: 0.6"/>
      </g>
     </g>
    </g>
    <g id="xtick_16">
     <g id="line2d_16">
      <g>
       <use xlink:href="#m2f1b591c11" x="474.975483" y="245.76" style="stroke: #000000; stroke-width: 0.6"/>
      </g>
     </g>
    </g>
    <g id="xtick_17">
     <g id="line2d_17">
      <g>
       <use xlink:href="#m2f1b591c11" x="490.381967" y="245.76" style="stroke: #000000; stroke-width: 0.6"/>
      </g>
     </g>
    </g>
   </g>
   <g id="matplotlib.axis_2">
    <g id="ytick_1">
     <g id="line2d_18">
      <defs>
       <path id="m8127b66148" d="M 0 0 
L -3.5 0 
" style="stroke: #000000; stroke-width: 0.8"/>
      </defs>
      <g>
       <use xlink:href="#m8127b66148" x="45.478125" y="235.68" style="stroke: #000000; stroke-width: 0.8"/>
      </g>
     </g>
     <g id="text_3">
      <!-- $\mathdefault{10^{0}}$ -->
      <g transform="translate(20.878125 239.479219) scale(0.1 -0.1)">
       <use xlink:href="#DejaVuSans-31" transform="translate(0 0.765625)"/>
       <use xlink:href="#DejaVuSans-30" transform="translate(63.623047 0.765625)"/>
       <use xlink:href="#DejaVuSans-30" transform="translate(128.203125 39.046875) scale(0.7)"/>
      </g>
     </g>
    </g>
    <g id="ytick_2">
     <g id="line2d_19">
      <g>
       <use xlink:href="#m8127b66148" x="45.478125" y="202.08" style="stroke: #000000; stroke-width: 0.8"/>
      </g>
     </g>
     <g id="text_4">
      <!-- $\mathdefault{10^{1}}$ -->
      <g transform="translate(20.878125 205.879219) scale(0.1 -0.1)">
       <use xlink:href="#DejaVuSans-31" transform="translate(0 0.684375)"/>
       <use xlink:href="#DejaVuSans-30" transform="translate(63.623047 0.684375)"/>
       <use xlink:href="#DejaVuSans-31" transform="translate(128.203125 38.965625) scale(0.7)"/>
      </g>
     </g>
    </g>
    <g id="ytick_3">
     <g id="line2d_20">
      <g>
       <use xlink:href="#m8127b66148" x="45.478125" y="168.48" style="stroke: #000000; stroke-width: 0.8"/>
      </g>
     </g>
     <g id="text_5">
      <!-- $\mathdefault{10^{2}}$ -->
      <g transform="translate(20.878125 172.279219) scale(0.1 -0.1)">
       <defs>
        <path id="DejaVuSans-32" d="M 1228 531 
L 3431 531 
L 3431 0 
L 469 0 
L 469 531 
Q 828 903 1448 1529 
Q 2069 2156 2228 2338 
Q 2531 2678 2651 2914 
Q 2772 3150 2772 3378 
Q 2772 3750 2511 3984 
Q 2250 4219 1831 4219 
Q 1534 4219 1204 4116 
Q 875 4013 500 3803 
L 500 4441 
Q 881 4594 1212 4672 
Q 1544 4750 1819 4750 
Q 2544 4750 2975 4387 
Q 3406 4025 3406 3419 
Q 3406 3131 3298 2873 
Q 3191 2616 2906 2266 
Q 2828 2175 2409 1742 
Q 1991 1309 1228 531 
z
" transform="scale(0.015625)"/>
       </defs>
       <use xlink:href="#DejaVuSans-31" transform="translate(0 0.765625)"/>
       <use xlink:href="#DejaVuSans-30" transform="translate(63.623047 0.765625)"/>
       <use xlink:href="#DejaVuSans-32" transform="translate(128.203125 39.046875) scale(0.7)"/>
      </g>
     </g>
    </g>
    <g id="ytick_4">
     <g id="line2d_21">
      <g>
       <use xlink:href="#m8127b66148" x="45.478125" y="134.88" style="stroke: #000000; stroke-width: 0.8"/>
      </g>
     </g>
     <g id="text_6">
      <!-- $\mathdefault{10^{3}}$ -->
      <g transform="translate(20.878125 138.679219) scale(0.1 -0.1)">
       <defs>
        <path id="DejaVuSans-33" d="M 2597 2516 
Q 3050 2419 3304 2112 
Q 3559 1806 3559 1356 
Q 3559 666 3084 287 
Q 2609 -91 1734 -91 
Q 1441 -91 1130 -33 
Q 819 25 488 141 
L 488 750 
Q 750 597 1062 519 
Q 1375 441 1716 441 
Q 2309 441 2620 675 
Q 2931 909 2931 1356 
Q 2931 1769 2642 2001 
Q 2353 2234 1838 2234 
L 1294 2234 
L 1294 2753 
L 1863 2753 
Q 2328 2753 2575 2939 
Q 2822 3125 2822 3475 
Q 2822 3834 2567 4026 
Q 2313 4219 1838 4219 
Q 1578 4219 1281 4162 
Q 984 4106 628 3988 
L 628 4550 
Q 988 4650 1302 4700 
Q 1616 4750 1894 4750 
Q 2613 4750 3031 4423 
Q 3450 4097 3450 3541 
Q 3450 3153 3228 2886 
Q 3006 2619 2597 2516 
z
" transform="scale(0.015625)"/>
       </defs>
       <use xlink:href="#DejaVuSans-31" transform="translate(0 0.765625)"/>
       <use xlink:href="#DejaVuSans-30" transform="translate(63.623047 0.765625)"/>
       <use xlink:href="#DejaVuSans-33" transform="translate(128.203125 39.046875) scale(0.7)"/>
      </g>
     </g>
    </g>
    <g id="ytick_5">
     <g id="line2d_22">
      <g>
       <use xlink:href="#m8127b66148" x="45.478125" y="101.28" style="stroke: #000000; stroke-width: 0.8"/>
      </g>
     </g>
     <g id="text_7">
      <!-- $\mathdefault{10^{4}}$ -->
      <g transform="translate(20.878125 105.079219) scale(0.1 -0.1)">
       <defs>
        <path id="DejaVuSans-34" d="M 2419 4116 
L 825 1625 
L 2419 1625 
L 2419 4116 
z
M 2253 4666 
L 3047 4666 
L 3047 1625 
L 3713 1625 
L 3713 1100 
L 3047 1100 
L 3047 0 
L 2419 0 
L 2419 1100 
L 313 1100 
L 313 1709 
L 2253 4666 
z
" transform="scale(0.015625)"/>
       </defs>
       <use xlink:href="#DejaVuSans-31" transform="translate(0 0.684375)"/>
       <use xlink:href="#DejaVuSans-30" transform="translate(63.623047 0.684375)"/>
       <use xlink:href="#DejaVuSans-34" transform="translate(128.203125 38.965625) scale(0.7)"/>
      </g>
     </g>
    </g>
    <g id="ytick_6">
     <g id="line2d_23">
      <g>
       <use xlink:href="#m8127b66148" x="45.478125" y="67.68" style="stroke: #000000; stroke-width: 0.8"/>
      </g>
     </g>
     <g id="text_8">
      <!-- $\mathdefault{10^{5}}$ -->
      <g transform="translate(20.878125 71.479219) scale(0.1 -0.1)">
       <defs>
        <path id="DejaVuSans-35" d="M 691 4666 
L 3169 4666 
L 3169 4134 
L 1269 4134 
L 1269 2991 
Q 1406 3038 1543 3061 
Q 1681 3084 1819 3084 
Q 2600 3084 3056 2656 
Q 3513 2228 3513 1497 
Q 3513 744 3044 326 
Q 2575 -91 1722 -91 
Q 1428 -91 1123 -41 
Q 819 9 494 109 
L 494 744 
Q 775 591 1075 516 
Q 1375 441 1709 441 
Q 2250 441 2565 725 
Q 2881 1009 2881 1497 
Q 2881 1984 2565 2268 
Q 2250 2553 1709 2553 
Q 1456 2553 1204 2497 
Q 953 2441 691 2322 
L 691 4666 
z
" transform="scale(0.015625)"/>
       </defs>
       <use xlink:href="#DejaVuSans-31" transform="translate(0 0.684375)"/>
       <use xlink:href="#DejaVuSans-30" transform="translate(63.623047 0.684375)"/>
       <use xlink:href="#DejaVuSans-35" transform="translate(128.203125 38.965625) scale(0.7)"/>
      </g>
     </g>
    </g>
    <g id="ytick_7">
     <g id="line2d_24">
      <g>
       <use xlink:href="#m8127b66148" x="45.478125" y="34.08" style="stroke: #000000; stroke-width: 0.8"/>
      </g>
     </g>
     <g id="text_9">
      <!-- $\mathdefault{10^{6}}$ -->
      <g transform="translate(20.878125 37.879219) scale(0.1 -0.1)">
       <defs>
        <path id="DejaVuSans-36" d="M 2113 2584 
Q 1688 2584 1439 2293 
Q 1191 2003 1191 1497 
Q 1191 994 1439 701 
Q 1688 409 2113 409 
Q 2538 409 2786 701 
Q 3034 994 3034 1497 
Q 3034 2003 2786 2293 
Q 2538 2584 2113 2584 
z
M 3366 4563 
L 3366 3988 
Q 3128 4100 2886 4159 
Q 2644 4219 2406 4219 
Q 1781 4219 1451 3797 
Q 1122 3375 1075 2522 
Q 1259 2794 1537 2939 
Q 1816 3084 2150 3084 
Q 2853 3084 3261 2657 
Q 3669 2231 3669 1497 
Q 3669 778 3244 343 
Q 2819 -91 2113 -91 
Q 1303 -91 875 529 
Q 447 1150 447 2328 
Q 447 3434 972 4092 
Q 1497 4750 2381 4750 
Q 2619 4750 2861 4703 
Q 3103 4656 3366 4563 
z
" transform="scale(0.015625)"/>
       </defs>
       <use xlink:href="#DejaVuSans-31" transform="translate(0 0.765625)"/>
       <use xlink:href="#DejaVuSans-30" transform="translate(63.623047 0.765625)"/>
       <use xlink:href="#DejaVuSans-36" transform="translate(128.203125 39.046875) scale(0.7)"/>
      </g>
     </g>
    </g>
    <g id="ytick_8">
     <g id="line2d_25">
      <defs>
       <path id="mbc7d8974df" d="M 0 0 
L -2 0 
" style="stroke: #000000; stroke-width: 0.6"/>
      </defs>
      <g>
       <use xlink:href="#mbc7d8974df" x="45.478125" y="243.134118" style="stroke: #000000; stroke-width: 0.6"/>
      </g>
     </g>
    </g>
    <g id="ytick_9">
     <g id="line2d_26">
      <g>
       <use xlink:href="#mbc7d8974df" x="45.478125" y="240.884706" style="stroke: #000000; stroke-width: 0.6"/>
      </g>
     </g>
    </g>
    <g id="ytick_10">
     <g id="line2d_27">
      <g>
       <use xlink:href="#mbc7d8974df" x="45.478125" y="238.936176" style="stroke: #000000; stroke-width: 0.6"/>
      </g>
     </g>
    </g>
    <g id="ytick_11">
     <g id="line2d_28">
      <g>
       <use xlink:href="#mbc7d8974df" x="45.478125" y="237.217452" style="stroke: #000000; stroke-width: 0.6"/>
      </g>
     </g>
    </g>
    <g id="ytick_12">
     <g id="line2d_29">
      <g>
       <use xlink:href="#mbc7d8974df" x="45.478125" y="225.565392" style="stroke: #000000; stroke-width: 0.6"/>
      </g>
     </g>
    </g>
    <g id="ytick_13">
     <g id="line2d_30">
      <g>
       <use xlink:href="#mbc7d8974df" x="45.478125" y="219.648726" style="stroke: #000000; stroke-width: 0.6"/>
      </g>
     </g>
    </g>
    <g id="ytick_14">
     <g id="line2d_31">
      <g>
       <use xlink:href="#mbc7d8974df" x="45.478125" y="215.450784" style="stroke: #000000; stroke-width: 0.6"/>
      </g>
     </g>
    </g>
    <g id="ytick_15">
     <g id="line2d_32">
      <g>
       <use xlink:href="#mbc7d8974df" x="45.478125" y="212.194608" style="stroke: #000000; stroke-width: 0.6"/>
      </g>
     </g>
    </g>
    <g id="ytick_16">
     <g id="line2d_33">
      <g>
       <use xlink:href="#mbc7d8974df" x="45.478125" y="209.534118" style="stroke: #000000; stroke-width: 0.6"/>
      </g>
     </g>
    </g>
    <g id="ytick_17">
     <g id="line2d_34">
      <g>
       <use xlink:href="#mbc7d8974df" x="45.478125" y="207.284706" style="stroke: #000000; stroke-width: 0.6"/>
      </g>
     </g>
    </g>
    <g id="ytick_18">
     <g id="line2d_35">
      <g>
       <use xlink:href="#mbc7d8974df" x="45.478125" y="205.336176" style="stroke: #000000; stroke-width: 0.6"/>
      </g>
     </g>
    </g>
    <g id="ytick_19">
     <g id="line2d_36">
      <g>
       <use xlink:href="#mbc7d8974df" x="45.478125" y="203.617452" style="stroke: #000000; stroke-width: 0.6"/>
      </g>
     </g>
    </g>
    <g id="ytick_20">
     <g id="line2d_37">
      <g>
       <use xlink:href="#mbc7d8974df" x="45.478125" y="191.965392" style="stroke: #000000; stroke-width: 0.6"/>
      </g>
     </g>
    </g>
    <g id="ytick_21">
     <g id="line2d_38">
      <g>
       <use xlink:href="#mbc7d8974df" x="45.478125" y="186.048726" style="stroke: #000000; stroke-width: 0.6"/>
      </g>
     </g>
    </g>
    <g id="ytick_22">
     <g id="line2d_39">
      <g>
       <use xlink:href="#mbc7d8974df" x="45.478125" y="181.850784" style="stroke: #000000; stroke-width: 0.6"/>
      </g>
     </g>
    </g>
    <g id="ytick_23">
     <g id="line2d_40">
      <g>
       <use xlink:href="#mbc7d8974df" x="45.478125" y="178.594608" style="stroke: #000000; stroke-width: 0.6"/>
      </g>
     </g>
    </g>
    <g id="ytick_24">
     <g id="line2d_41">
      <g>
       <use xlink:href="#mbc7d8974df" x="45.478125" y="175.934118" style="stroke: #000000; stroke-width: 0.6"/>
      </g>
     </g>
    </g>
    <g id="ytick_25">
     <g id="line2d_42">
      <g>
       <use xlink:href="#mbc7d8974df" x="45.478125" y="173.684706" style="stroke: #000000; stroke-width: 0.6"/>
      </g>
     </g>
    </g>
    <g id="ytick_26">
     <g id="line2d_43">
      <g>
       <use xlink:href="#mbc7d8974df" x="45.478125" y="171.736176" style="stroke: #000000; stroke-width: 0.6"/>
      </g>
     </g>
    </g>
    <g id="ytick_27">
     <g id="line2d_44">
      <g>
       <use xlink:href="#mbc7d8974df" x="45.478125" y="170.017452" style="stroke: #000000; stroke-width: 0.6"/>
      </g>
     </g>
    </g>
    <g id="ytick_28">
     <g id="line2d_45">
      <g>
       <use xlink:href="#mbc7d8974df" x="45.478125" y="158.365392" style="stroke: #000000; stroke-width: 0.6"/>
      </g>
     </g>
    </g>
    <g id="ytick_29">
     <g id="line2d_46">
      <g>
       <use xlink:href="#mbc7d8974df" x="45.478125" y="152.448726" style="stroke: #000000; stroke-width: 0.6"/>
      </g>
     </g>
    </g>
    <g id="ytick_30">
     <g id="line2d_47">
      <g>
       <use xlink:href="#mbc7d8974df" x="45.478125" y="148.250784" style="stroke: #000000; stroke-width: 0.6"/>
      </g>
     </g>
    </g>
    <g id="ytick_31">
     <g id="line2d_48">
      <g>
       <use xlink:href="#mbc7d8974df" x="45.478125" y="144.994608" style="stroke: #000000; stroke-width: 0.6"/>
      </g>
     </g>
    </g>
    <g id="ytick_32">
     <g id="line2d_49">
      <g>
       <use xlink:href="#mbc7d8974df" x="45.478125" y="142.334118" style="stroke: #000000; stroke-width: 0.6"/>
      </g>
     </g>
    </g>
    <g id="ytick_33">
     <g id="line2d_50">
      <g>
       <use xlink:href="#mbc7d8974df" x="45.478125" y="140.084706" style="stroke: #000000; stroke-width: 0.6"/>
      </g>
     </g>
    </g>
    <g id="ytick_34">
     <g id="line2d_51">
      <g>
       <use xlink:href="#mbc7d8974df" x="45.478125" y="138.136176" style="stroke: #000000; stroke-width: 0.6"/>
      </g>
     </g>
    </g>
    <g id="ytick_35">
     <g id="line2d_52">
      <g>
       <use xlink:href="#mbc7d8974df" x="45.478125" y="136.417452" style="stroke: #000000; stroke-width: 0.6"/>
      </g>
     </g>
    </g>
    <g id="ytick_36">
     <g id="line2d_53">
      <g>
       <use xlink:href="#mbc7d8974df" x="45.478125" y="124.765392" style="stroke: #000000; stroke-width: 0.6"/>
      </g>
     </g>
    </g>
    <g id="ytick_37">
     <g id="line2d_54">
      <g>
       <use xlink:href="#mbc7d8974df" x="45.478125" y="118.848726" style="stroke: #000000; stroke-width: 0.6"/>
      </g>
     </g>
    </g>
    <g id="ytick_38">
     <g id="line2d_55">
      <g>
       <use xlink:href="#mbc7d8974df" x="45.478125" y="114.650784" style="stroke: #000000; stroke-width: 0.6"/>
      </g>
     </g>
    </g>
    <g id="ytick_39">
     <g id="line2d_56">
      <g>
       <use xlink:href="#mbc7d8974df" x="45.478125" y="111.394608" style="stroke: #000000; stroke-width: 0.6"/>
      </g>
     </g>
    </g>
    <g id="ytick_40">
     <g id="line2d_57">
      <g>
       <use xlink:href="#mbc7d8974df" x="45.478125" y="108.734118" style="stroke: #000000; stroke-width: 0.6"/>
      </g>
     </g>
    </g>
    <g id="ytick_41">
     <g id="line2d_58">
      <g>
       <use xlink:href="#mbc7d8974df" x="45.478125" y="106.484706" style="stroke: #000000; stroke-width: 0.6"/>
      </g>
     </g>
    </g>
    <g id="ytick_42">
     <g id="line2d_59">
      <g>
       <use xlink:href="#mbc7d8974df" x="45.478125" y="104.536176" style="stroke: #000000; stroke-width: 0.6"/>
      </g>
     </g>
    </g>
    <g id="ytick_43">
     <g id="line2d_60">
      <g>
       <use xlink:href="#mbc7d8974df" x="45.478125" y="102.817452" style="stroke: #000000; stroke-width: 0.6"/>
      </g>
     </g>
    </g>
    <g id="ytick_44">
     <g id="line2d_61">
      <g>
       <use xlink:href="#mbc7d8974df" x="45.478125" y="91.165392" style="stroke: #000000; stroke-width: 0.6"/>
      </g>
     </g>
    </g>
    <g id="ytick_45">
     <g id="line2d_62">
      <g>
       <use xlink:href="#mbc7d8974df" x="45.478125" y="85.248726" style="stroke: #000000; stroke-width: 0.6"/>
      </g>
     </g>
    </g>
    <g id="ytick_46">
     <g id="line2d_63">
      <g>
       <use xlink:href="#mbc7d8974df" x="45.478125" y="81.050784" style="stroke: #000000; stroke-width: 0.6"/>
      </g>
     </g>
    </g>
    <g id="ytick_47">
     <g id="line2d_64">
      <g>
       <use xlink:href="#mbc7d8974df" x="45.478125" y="77.794608" style="stroke: #000000; stroke-width: 0.6"/>
      </g>
     </g>
    </g>
    <g id="ytick_48">
     <g id="line2d_65">
      <g>
       <use xlink:href="#mbc7d8974df" x="45.478125" y="75.134118" style="stroke: #000000; stroke-width: 0.6"/>
      </g>
     </g>
    </g>
    <g id="ytick_49">
     <g id="line2d_66">
      <g>
       <use xlink:href="#mbc7d8974df" x="45.478125" y="72.884706" style="stroke: #000000; stroke-width: 0.6"/>
      </g>
     </g>
    </g>
    <g id="ytick_50">
     <g id="line2d_67">
      <g>
       <use xlink:href="#mbc7d8974df" x="45.478125" y="70.936176" style="stroke: #000000; stroke-width: 0.6"/>
      </g>
     </g>
    </g>
    <g id="ytick_51">
     <g id="line2d_68">
      <g>
       <use xlink:href="#mbc7d8974df" x="45.478125" y="69.217452" style="stroke: #000000; stroke-width: 0.6"/>
      </g>
     </g>
    </g>
    <g id="ytick_52">
     <g id="line2d_69">
      <g>
       <use xlink:href="#mbc7d8974df" x="45.478125" y="57.565392" style="stroke: #000000; stroke-width: 0.6"/>
      </g>
     </g>
    </g>
    <g id="ytick_53">
     <g id="line2d_70">
      <g>
       <use xlink:href="#mbc7d8974df" x="45.478125" y="51.648726" style="stroke: #000000; stroke-width: 0.6"/>
      </g>
     </g>
    </g>
    <g id="ytick_54">
     <g id="line2d_71">
      <g>
       <use xlink:href="#mbc7d8974df" x="45.478125" y="47.450784" style="stroke: #000000; stroke-width: 0.6"/>
      </g>
     </g>
    </g>
    <g id="ytick_55">
     <g id="line2d_72">
      <g>
       <use xlink:href="#mbc7d8974df" x="45.478125" y="44.194608" style="stroke: #000000; stroke-width: 0.6"/>
      </g>
     </g>
    </g>
    <g id="ytick_56">
     <g id="line2d_73">
      <g>
       <use xlink:href="#mbc7d8974df" x="45.478125" y="41.534118" style="stroke: #000000; stroke-width: 0.6"/>
      </g>
     </g>
    </g>
    <g id="ytick_57">
     <g id="line2d_74">
      <g>
       <use xlink:href="#mbc7d8974df" x="45.478125" y="39.284706" style="stroke: #000000; stroke-width: 0.6"/>
      </g>
     </g>
    </g>
    <g id="ytick_58">
     <g id="line2d_75">
      <g>
       <use xlink:href="#mbc7d8974df" x="45.478125" y="37.336176" style="stroke: #000000; stroke-width: 0.6"/>
      </g>
     </g>
    </g>
    <g id="ytick_59">
     <g id="line2d_76">
      <g>
       <use xlink:href="#mbc7d8974df" x="45.478125" y="35.617452" style="stroke: #000000; stroke-width: 0.6"/>
      </g>
     </g>
    </g>
    <g id="text_10">
     <!-- eigenvalue -->
     <g transform="translate(14.798438 162.422969) rotate(-90) scale(0.1 -0.1)">
      <defs>
       <path id="DejaVuSans-65" d="M 3597 1894 
L 3597 1613 
L 953 1613 
Q 991 1019 1311 708 
Q 1631 397 2203 397 
Q 2534 397 2845 478 
Q 3156 559 3463 722 
L 3463 178 
Q 3153 47 2828 -22 
Q 2503 -91 2169 -91 
Q 1331 -91 842 396 
Q 353 884 353 1716 
Q 353 2575 817 3079 
Q 1281 3584 2069 3584 
Q 2775 3584 3186 3129 
Q 3597 2675 3597 1894 
z
M 3022 2063 
Q 3016 2534 2758 2815 
Q 2500 3097 2075 3097 
Q 1594 3097 1305 2825 
Q 1016 2553 972 2059 
L 3022 2063 
z
" transform="scale(0.015625)"/>
       <path id="DejaVuSans-69" d="M 603 3500 
L 1178 3500 
L 1178 0 
L 603 0 
L 603 3500 
z
M 603 4863 
L 1178 4863 
L 1178 4134 
L 603 4134 
L 603 4863 
z
" transform="scale(0.015625)"/>
       <path id="DejaVuSans-67" d="M 2906 1791 
Q 2906 2416 2648 2759 
Q 2391 3103 1925 3103 
Q 1463 3103 1205 2759 
Q 947 2416 947 1791 
Q 947 1169 1205 825 
Q 1463 481 1925 481 
Q 2391 481 2648 825 
Q 2906 1169 2906 1791 
z
M 3481 434 
Q 3481 -459 3084 -895 
Q 2688 -1331 1869 -1331 
Q 1566 -1331 1297 -1286 
Q 1028 -1241 775 -1147 
L 775 -588 
Q 1028 -725 1275 -790 
Q 1522 -856 1778 -856 
Q 2344 -856 2625 -561 
Q 2906 -266 2906 331 
L 2906 616 
Q 2728 306 2450 153 
Q 2172 0 1784 0 
Q 1141 0 747 490 
Q 353 981 353 1791 
Q 353 2603 747 3093 
Q 1141 3584 1784 3584 
Q 2172 3584 2450 3431 
Q 2728 3278 2906 2969 
L 2906 3500 
L 3481 3500 
L 3481 434 
z
" transform="scale(0.015625)"/>
       <path id="DejaVuSans-6e" d="M 3513 2113 
L 3513 0 
L 2938 0 
L 2938 2094 
Q 2938 2591 2744 2837 
Q 2550 3084 2163 3084 
Q 1697 3084 1428 2787 
Q 1159 2491 1159 1978 
L 1159 0 
L 581 0 
L 581 3500 
L 1159 3500 
L 1159 2956 
Q 1366 3272 1645 3428 
Q 1925 3584 2291 3584 
Q 2894 3584 3203 3211 
Q 3513 2838 3513 2113 
z
" transform="scale(0.015625)"/>
       <path id="DejaVuSans-76" d="M 191 3500 
L 800 3500 
L 1894 563 
L 2988 3500 
L 3597 3500 
L 2284 0 
L 1503 0 
L 191 3500 
z
" transform="scale(0.015625)"/>
       <path id="DejaVuSans-61" d="M 2194 1759 
Q 1497 1759 1228 1600 
Q 959 1441 959 1056 
Q 959 750 1161 570 
Q 1363 391 1709 391 
Q 2188 391 2477 730 
Q 2766 1069 2766 1631 
L 2766 1759 
L 2194 1759 
z
M 3341 1997 
L 3341 0 
L 2766 0 
L 2766 531 
Q 2569 213 2275 61 
Q 1981 -91 1556 -91 
Q 1019 -91 701 211 
Q 384 513 384 1019 
Q 384 1609 779 1909 
Q 1175 2209 1959 2209 
L 2766 2209 
L 2766 2266 
Q 2766 2663 2505 2880 
Q 2244 3097 1772 3097 
Q 1472 3097 1187 3025 
Q 903 2953 641 2809 
L 641 3341 
Q 956 3463 1253 3523 
Q 1550 3584 1831 3584 
Q 2591 3584 2966 3190 
Q 3341 2797 3341 1997 
z
" transform="scale(0.015625)"/>
       <path id="DejaVuSans-6c" d="M 603 4863 
L 1178 4863 
L 1178 0 
L 603 0 
L 603 4863 
z
" transform="scale(0.015625)"/>
       <path id="DejaVuSans-75" d="M 544 1381 
L 544 3500 
L 1119 3500 
L 1119 1403 
Q 1119 906 1312 657 
Q 1506 409 1894 409 
Q 2359 409 2629 706 
Q 2900 1003 2900 1516 
L 2900 3500 
L 3475 3500 
L 3475 0 
L 2900 0 
L 2900 538 
Q 2691 219 2414 64 
Q 2138 -91 1772 -91 
Q 1169 -91 856 284 
Q 544 659 544 1381 
z
M 1991 3584 
L 1991 3584 
z
" transform="scale(0.015625)"/>
      </defs>
      <use xlink:href="#DejaVuSans-65"/>
      <use xlink:href="#DejaVuSans-69" x="61.523438"/>
      <use xlink:href="#DejaVuSans-67" x="89.306641"/>
      <use xlink:href="#DejaVuSans-65" x="152.783203"/>
      <use xlink:href="#DejaVuSans-6e" x="214.306641"/>
      <use xlink:href="#DejaVuSans-76" x="277.685547"/>
      <use xlink:href="#DejaVuSans-61" x="336.865234"/>
      <use xlink:href="#DejaVuSans-6c" x="398.144531"/>
      <use xlink:href="#DejaVuSans-75" x="425.927734"/>
      <use xlink:href="#DejaVuSans-65" x="489.306641"/>
     </g>
    </g>
   </g>
   <g id="line2d_77">
    <defs>
     <path id="m1020383609" d="M 0 3 
C 0.795609 3 1.55874 2.683901 2.12132 2.12132 
C 2.683901 1.55874 3 0.795609 3 0 
C 3 -0.795609 2.683901 -1.55874 2.12132 -2.12132 
C 1.55874 -2.683901 0.795609 -3 0 -3 
C -0.795609 -3 -1.55874 -2.683901 -2.12132 -2.12132 
C -2.683901 -1.55874 -3 -0.795609 -3 0 
C -3 0.795609 -2.683901 1.55874 -2.12132 2.12132 
C -1.55874 2.683901 -0.795609 3 0 3 
z
" style="stroke: #1f77b4"/>
    </defs>
    <g clip-path="url(#p4ad6ae3c2a)">
     <use xlink:href="#m1020383609" x="-1" y="202.277398" style="fill: #1f77b4; stroke: #1f77b4"/>
     <use xlink:href="#m1020383609" x="65.769034" y="202.271529" style="fill: #1f77b4; stroke: #1f77b4"/>
     <use xlink:href="#m1020383609" x="135.045152" y="190.438196" style="fill: #1f77b4; stroke: #1f77b4"/>
     <use xlink:href="#m1020383609" x="175.569083" y="182.042313" style="fill: #1f77b4; stroke: #1f77b4"/>
     <use xlink:href="#m1020383609" x="204.32127" y="175.52996" style="fill: #1f77b4; stroke: #1f77b4"/>
     <use xlink:href="#m1020383609" x="226.623198" y="170.20898" style="fill: #1f77b4; stroke: #1f77b4"/>
     <use xlink:href="#m1020383609" x="244.845201" y="165.710156" style="fill: #1f77b4; stroke: #1f77b4"/>
     <use xlink:href="#m1020383609" x="260.251685" y="161.813097" style="fill: #1f77b4; stroke: #1f77b4"/>
     <use xlink:href="#m1020383609" x="273.597388" y="158.375648" style="fill: #1f77b4; stroke: #1f77b4"/>
     <use xlink:href="#m1020383609" x="285.369132" y="155.300744" style="fill: #1f77b4; stroke: #1f77b4"/>
     <use xlink:href="#m1020383609" x="295.899316" y="152.519156" style="fill: #1f77b4; stroke: #1f77b4"/>
     <use xlink:href="#m1020383609" x="305.425027" y="149.979765" style="fill: #1f77b4; stroke: #1f77b4"/>
     <use xlink:href="#m1020383609" x="314.121319" y="147.643751" style="fill: #1f77b4; stroke: #1f77b4"/>
     <use xlink:href="#m1020383609" x="322.121132" y="145.48094" style="fill: #1f77b4; stroke: #1f77b4"/>
     <use xlink:href="#m1020383609" x="329.527802" y="143.467412" style="fill: #1f77b4; stroke: #1f77b4"/>
     <use xlink:href="#m1020383609" x="336.423247" y="141.583881" style="fill: #1f77b4; stroke: #1f77b4"/>
     <use xlink:href="#m1020383609" x="342.873506" y="139.814577" style="fill: #1f77b4; stroke: #1f77b4"/>
     <use xlink:href="#m1020383609" x="348.932592" y="138.146432" style="fill: #1f77b4; stroke: #1f77b4"/>
     <use xlink:href="#m1020383609" x="354.64525" y="136.568502" style="fill: #1f77b4; stroke: #1f77b4"/>
     <use xlink:href="#m1020383609" x="360.048961" y="135.071529" style="fill: #1f77b4; stroke: #1f77b4"/>
     <use xlink:href="#m1020383609" x="365.175434" y="133.647608" style="fill: #1f77b4; stroke: #1f77b4"/>
     <use xlink:href="#m1020383609" x="370.051734" y="132.28994" style="fill: #1f77b4; stroke: #1f77b4"/>
     <use xlink:href="#m1020383609" x="374.701144" y="130.992634" style="fill: #1f77b4; stroke: #1f77b4"/>
     <use xlink:href="#m1020383609" x="379.143845" y="129.750549" style="fill: #1f77b4; stroke: #1f77b4"/>
     <use xlink:href="#m1020383609" x="383.397437" y="128.559176" style="fill: #1f77b4; stroke: #1f77b4"/>
     <use xlink:href="#m1020383609" x="387.477363" y="127.414535" style="fill: #1f77b4; stroke: #1f77b4"/>
     <use xlink:href="#m1020383609" x="391.39725" y="126.313099" style="fill: #1f77b4; stroke: #1f77b4"/>
     <use xlink:href="#m1020383609" x="395.169181" y="125.251725" style="fill: #1f77b4; stroke: #1f77b4"/>
     <use xlink:href="#m1020383609" x="398.80392" y="124.227599" style="fill: #1f77b4; stroke: #1f77b4"/>
     <use xlink:href="#m1020383609" x="402.311098" y="123.238194" style="fill: #1f77b4; stroke: #1f77b4"/>
     <use xlink:href="#m1020383609" x="405.699365" y="122.281245" style="fill: #1f77b4; stroke: #1f77b4"/>
     <use xlink:href="#m1020383609" x="408.976522" y="121.354583" style="fill: #1f77b4; stroke: #1f77b4"/>
     <use xlink:href="#m1020383609" x="412.149623" y="120.45735" style="fill: #1f77b4; stroke: #1f77b4"/>
     <use xlink:href="#m1020383609" x="415.225076" y="119.58197" style="fill: #1f77b4; stroke: #1f77b4"/>
     <use xlink:href="#m1020383609" x="418.208709" y="118.75621" style="fill: #1f77b4; stroke: #1f77b4"/>
     <use xlink:href="#m1020383609" x="421.105849" y="117.870215" style="fill: #1f77b4; stroke: #1f77b4"/>
     <use xlink:href="#m1020383609" x="423.921368" y="117.263038" style="fill: #1f77b4; stroke: #1f77b4"/>
     <use xlink:href="#m1020383609" x="426.659739" y="116.056505" style="fill: #1f77b4; stroke: #1f77b4"/>
     <use xlink:href="#m1020383609" x="429.325079" y="115.806495" style="fill: #1f77b4; stroke: #1f77b4"/>
     <use xlink:href="#m1020383609" x="431.921181" y="113.938469" style="fill: #1f77b4; stroke: #1f77b4"/>
     <use xlink:href="#m1020383609" x="434.451552" y="113.853811" style="fill: #1f77b4; stroke: #1f77b4"/>
     <use xlink:href="#m1020383609" x="436.919438" y="111.400566" style="fill: #1f77b4; stroke: #1f77b4"/>
     <use xlink:href="#m1020383609" x="439.327851" y="111.358713" style="fill: #1f77b4; stroke: #1f77b4"/>
     <use xlink:href="#m1020383609" x="441.679591" y="108.385294" style="fill: #1f77b4; stroke: #1f77b4"/>
     <use xlink:href="#m1020383609" x="443.977262" y="108.361676" style="fill: #1f77b4; stroke: #1f77b4"/>
     <use xlink:href="#m1020383609" x="446.223296" y="104.786131" style="fill: #1f77b4; stroke: #1f77b4"/>
     <use xlink:href="#m1020383609" x="448.419963" y="104.767367" style="fill: #1f77b4; stroke: #1f77b4"/>
     <use xlink:href="#m1020383609" x="450.569386" y="100.478945" style="fill: #1f77b4; stroke: #1f77b4"/>
     <use xlink:href="#m1020383609" x="452.673555" y="100.466448" style="fill: #1f77b4; stroke: #1f77b4"/>
     <use xlink:href="#m1020383609" x="454.734335" y="95.186214" style="fill: #1f77b4; stroke: #1f77b4"/>
     <use xlink:href="#m1020383609" x="456.753481" y="95.173542" style="fill: #1f77b4; stroke: #1f77b4"/>
     <use xlink:href="#m1020383609" x="458.732641" y="88.547259" style="fill: #1f77b4; stroke: #1f77b4"/>
     <use xlink:href="#m1020383609" x="460.673368" y="88.538709" style="fill: #1f77b4; stroke: #1f77b4"/>
     <use xlink:href="#m1020383609" x="462.577127" y="79.621325" style="fill: #1f77b4; stroke: #1f77b4"/>
     <use xlink:href="#m1020383609" x="464.445299" y="79.610709" style="fill: #1f77b4; stroke: #1f77b4"/>
     <use xlink:href="#m1020383609" x="466.279191" y="66.690549" style="fill: #1f77b4; stroke: #1f77b4"/>
     <use xlink:href="#m1020383609" x="468.080038" y="66.684045" style="fill: #1f77b4; stroke: #1f77b4"/>
     <use xlink:href="#m1020383609" x="469.84901" y="41.189849" style="fill: #1f77b4; stroke: #1f77b4"/>
     <use xlink:href="#m1020383609" x="471.587216" y="41.178567" style="fill: #1f77b4; stroke: #1f77b4"/>
    </g>
   </g>
   <g id="line2d_78">
    <path d="M 429.842361 235.68 
L 429.842361 34.08 
" clip-path="url(#p4ad6ae3c2a)" style="fill: none; stroke-dasharray: 5.55,2.4; stroke-dashoffset: 0; stroke: #ff7f0e; stroke-width: 1.5"/>
   </g>
   <g id="patch_3">
    <path d="M 45.478125 245.76 
L 45.478125 24 
" style="fill: none; stroke: #000000; stroke-width: 0.8; stroke-linejoin: miter; stroke-linecap: square"/>
   </g>
   <g id="patch_4">
    <path d="M 491.878125 245.76 
L 491.878125 24 
" style="fill: none; stroke: #000000; stroke-width: 0.8; stroke-linejoin: miter; stroke-linecap: square"/>
   </g>
   <g id="patch_5">
    <path d="M 45.478125 245.76 
L 491.878125 245.76 
" style="fill: none; stroke: #000000; stroke-width: 0.8; stroke-linejoin: miter; stroke-linecap: square"/>
   </g>
   <g id="patch_6">
    <path d="M 45.478125 24 
L 491.878125 24 
" style="fill: none; stroke: #000000; stroke-width: 0.8; stroke-linejoin: miter; stroke-linecap: square"/>
   </g>
   <g id="text_11">
    <!-- $2\pi/N$ -->
    <g transform="translate(434.71866 189.304902) scale(0.1 -0.1)">
     <defs>
      <path id="DejaVuSans-Oblique-3c0" d="M 584 3500 
L 3938 3500 
L 3825 2925 
L 3384 2925 
L 2966 775 
Q 2922 550 2981 450 
Q 3038 353 3209 353 
Q 3256 353 3325 363 
Q 3397 369 3419 372 
L 3338 -44 
Q 3222 -84 3103 -103 
Q 2981 -122 2866 -122 
Q 2491 -122 2388 81 
Q 2284 288 2391 838 
L 2797 2925 
L 1506 2925 
L 938 0 
L 350 0 
L 919 2925 
L 472 2925 
L 584 3500 
z
" transform="scale(0.015625)"/>
      <path id="DejaVuSans-2f" d="M 1625 4666 
L 2156 4666 
L 531 -594 
L 0 -594 
L 1625 4666 
z
" transform="scale(0.015625)"/>
      <path id="DejaVuSans-Oblique-4e" d="M 1081 4666 
L 1931 4666 
L 3219 666 
L 4000 4666 
L 4616 4666 
L 3706 0 
L 2853 0 
L 1569 4025 
L 788 0 
L 172 0 
L 1081 4666 
z
" transform="scale(0.015625)"/>
     </defs>
     <use xlink:href="#DejaVuSans-32" transform="translate(0 0.78125)"/>
     <use xlink:href="#DejaVuSans-Oblique-3c0" transform="translate(63.623047 0.78125)"/>
     <use xlink:href="#DejaVuSans-2f" transform="translate(123.828125 0.78125)"/>
     <use xlink:href="#DejaVuSans-Oblique-4e" transform="translate(157.519531 0.78125)"/>
    </g>
   </g>
   <g id="text_12">
    <!-- N=60      max |$\lambda$| = 0.047438191112363415$N^4$ -->
    <g transform="translate(126.478125 18) scale(0.12 -0.12)">
     <defs>
      <path id="DejaVuSans-4e" d="M 628 4666 
L 1478 4666 
L 3547 763 
L 3547 4666 
L 4159 4666 
L 4159 0 
L 3309 0 
L 1241 3903 
L 1241 0 
L 628 0 
L 628 4666 
z
" transform="scale(0.015625)"/>
      <path id="DejaVuSans-3d" d="M 678 2906 
L 4684 2906 
L 4684 2381 
L 678 2381 
L 678 2906 
z
M 678 1631 
L 4684 1631 
L 4684 1100 
L 678 1100 
L 678 1631 
z
" transform="scale(0.015625)"/>
      <path id="DejaVuSans-20" transform="scale(0.015625)"/>
      <path id="DejaVuSans-6d" d="M 3328 2828 
Q 3544 3216 3844 3400 
Q 4144 3584 4550 3584 
Q 5097 3584 5394 3201 
Q 5691 2819 5691 2113 
L 5691 0 
L 5113 0 
L 5113 2094 
Q 5113 2597 4934 2840 
Q 4756 3084 4391 3084 
Q 3944 3084 3684 2787 
Q 3425 2491 3425 1978 
L 3425 0 
L 2847 0 
L 2847 2094 
Q 2847 2600 2669 2842 
Q 2491 3084 2119 3084 
Q 1678 3084 1418 2786 
Q 1159 2488 1159 1978 
L 1159 0 
L 581 0 
L 581 3500 
L 1159 3500 
L 1159 2956 
Q 1356 3278 1631 3431 
Q 1906 3584 2284 3584 
Q 2666 3584 2933 3390 
Q 3200 3197 3328 2828 
z
" transform="scale(0.015625)"/>
      <path id="DejaVuSans-78" d="M 3513 3500 
L 2247 1797 
L 3578 0 
L 2900 0 
L 1881 1375 
L 863 0 
L 184 0 
L 1544 1831 
L 300 3500 
L 978 3500 
L 1906 2253 
L 2834 3500 
L 3513 3500 
z
" transform="scale(0.015625)"/>
      <path id="DejaVuSans-7c" d="M 1344 4891 
L 1344 -1509 
L 813 -1509 
L 813 4891 
L 1344 4891 
z
" transform="scale(0.015625)"/>
      <path id="DejaVuSans-Oblique-3bb" d="M 2350 4316 
L 3125 0 
L 2516 0 
L 2038 2588 
L 328 0 
L -281 0 
L 1903 3356 
L 1794 3975 
Q 1725 4369 1391 4369 
L 1091 4369 
L 1184 4863 
L 1550 4856 
Q 2253 4847 2350 4316 
z
" transform="scale(0.015625)"/>
      <path id="DejaVuSans-2e" d="M 684 794 
L 1344 794 
L 1344 0 
L 684 0 
L 684 794 
z
" transform="scale(0.015625)"/>
      <path id="DejaVuSans-37" d="M 525 4666 
L 3525 4666 
L 3525 4397 
L 1831 0 
L 1172 0 
L 2766 4134 
L 525 4134 
L 525 4666 
z
" transform="scale(0.015625)"/>
      <path id="DejaVuSans-38" d="M 2034 2216 
Q 1584 2216 1326 1975 
Q 1069 1734 1069 1313 
Q 1069 891 1326 650 
Q 1584 409 2034 409 
Q 2484 409 2743 651 
Q 3003 894 3003 1313 
Q 3003 1734 2745 1975 
Q 2488 2216 2034 2216 
z
M 1403 2484 
Q 997 2584 770 2862 
Q 544 3141 544 3541 
Q 544 4100 942 4425 
Q 1341 4750 2034 4750 
Q 2731 4750 3128 4425 
Q 3525 4100 3525 3541 
Q 3525 3141 3298 2862 
Q 3072 2584 2669 2484 
Q 3125 2378 3379 2068 
Q 3634 1759 3634 1313 
Q 3634 634 3220 271 
Q 2806 -91 2034 -91 
Q 1263 -91 848 271 
Q 434 634 434 1313 
Q 434 1759 690 2068 
Q 947 2378 1403 2484 
z
M 1172 3481 
Q 1172 3119 1398 2916 
Q 1625 2713 2034 2713 
Q 2441 2713 2670 2916 
Q 2900 3119 2900 3481 
Q 2900 3844 2670 4047 
Q 2441 4250 2034 4250 
Q 1625 4250 1398 4047 
Q 1172 3844 1172 3481 
z
" transform="scale(0.015625)"/>
      <path id="DejaVuSans-39" d="M 703 97 
L 703 672 
Q 941 559 1184 500 
Q 1428 441 1663 441 
Q 2288 441 2617 861 
Q 2947 1281 2994 2138 
Q 2813 1869 2534 1725 
Q 2256 1581 1919 1581 
Q 1219 1581 811 2004 
Q 403 2428 403 3163 
Q 403 3881 828 4315 
Q 1253 4750 1959 4750 
Q 2769 4750 3195 4129 
Q 3622 3509 3622 2328 
Q 3622 1225 3098 567 
Q 2575 -91 1691 -91 
Q 1453 -91 1209 -44 
Q 966 3 703 97 
z
M 1959 2075 
Q 2384 2075 2632 2365 
Q 2881 2656 2881 3163 
Q 2881 3666 2632 3958 
Q 2384 4250 1959 4250 
Q 1534 4250 1286 3958 
Q 1038 3666 1038 3163 
Q 1038 2656 1286 2365 
Q 1534 2075 1959 2075 
z
" transform="scale(0.015625)"/>
     </defs>
     <use xlink:href="#DejaVuSans-4e" transform="translate(0 0.684375)"/>
     <use xlink:href="#DejaVuSans-3d" transform="translate(74.804688 0.684375)"/>
     <use xlink:href="#DejaVuSans-36" transform="translate(158.59375 0.684375)"/>
     <use xlink:href="#DejaVuSans-30" transform="translate(222.216797 0.684375)"/>
     <use xlink:href="#DejaVuSans-20" transform="translate(285.839844 0.684375)"/>
     <use xlink:href="#DejaVuSans-20" transform="translate(317.626953 0.684375)"/>
     <use xlink:href="#DejaVuSans-20" transform="translate(349.414062 0.684375)"/>
     <use xlink:href="#DejaVuSans-20" transform="translate(381.201172 0.684375)"/>
     <use xlink:href="#DejaVuSans-20" transform="translate(412.988281 0.684375)"/>
     <use xlink:href="#DejaVuSans-20" transform="translate(444.775391 0.684375)"/>
     <use xlink:href="#DejaVuSans-6d" transform="translate(476.5625 0.684375)"/>
     <use xlink:href="#DejaVuSans-61" transform="translate(573.974609 0.684375)"/>
     <use xlink:href="#DejaVuSans-78" transform="translate(635.253906 0.684375)"/>
     <use xlink:href="#DejaVuSans-20" transform="translate(694.433594 0.684375)"/>
     <use xlink:href="#DejaVuSans-7c" transform="translate(726.220703 0.684375)"/>
     <use xlink:href="#DejaVuSans-Oblique-3bb" transform="translate(759.912109 0.684375)"/>
     <use xlink:href="#DejaVuSans-7c" transform="translate(819.091797 0.684375)"/>
     <use xlink:href="#DejaVuSans-20" transform="translate(852.783203 0.684375)"/>
     <use xlink:href="#DejaVuSans-3d" transform="translate(884.570312 0.684375)"/>
     <use xlink:href="#DejaVuSans-20" transform="translate(968.359375 0.684375)"/>
     <use xlink:href="#DejaVuSans-30" transform="translate(1000.146484 0.684375)"/>
     <use xlink:href="#DejaVuSans-2e" transform="translate(1063.769531 0.684375)"/>
     <use xlink:href="#DejaVuSans-30" transform="translate(1095.556641 0.684375)"/>
     <use xlink:href="#DejaVuSans-34" transform="translate(1159.179688 0.684375)"/>
     <use xlink:href="#DejaVuSans-37" transform="translate(1222.802734 0.684375)"/>
     <use xlink:href="#DejaVuSans-34" transform="translate(1286.425781 0.684375)"/>
     <use xlink:href="#DejaVuSans-33" transform="translate(1350.048828 0.684375)"/>
     <use xlink:href="#DejaVuSans-38" transform="translate(1413.671875 0.684375)"/>
     <use xlink:href="#DejaVuSans-31" transform="translate(1477.294922 0.684375)"/>
     <use xlink:href="#DejaVuSans-39" transform="translate(1540.917969 0.684375)"/>
     <use xlink:href="#DejaVuSans-31" transform="translate(1604.541016 0.684375)"/>
     <use xlink:href="#DejaVuSans-31" transform="translate(1668.164062 0.684375)"/>
     <use xlink:href="#DejaVuSans-31" transform="translate(1731.787109 0.684375)"/>
     <use xlink:href="#DejaVuSans-32" transform="translate(1795.410156 0.684375)"/>
     <use xlink:href="#DejaVuSans-33" transform="translate(1859.033203 0.684375)"/>
     <use xlink:href="#DejaVuSans-36" transform="translate(1922.65625 0.684375)"/>
     <use xlink:href="#DejaVuSans-33" transform="translate(1986.279297 0.684375)"/>
     <use xlink:href="#DejaVuSans-34" transform="translate(2049.902344 0.684375)"/>
     <use xlink:href="#DejaVuSans-31" transform="translate(2113.525391 0.684375)"/>
     <use xlink:href="#DejaVuSans-35" transform="translate(2177.148438 0.684375)"/>
     <use xlink:href="#DejaVuSans-Oblique-4e" transform="translate(2240.771484 0.684375)"/>
     <use xlink:href="#DejaVuSans-34" transform="translate(2322.592943 38.965625) scale(0.7)"/>
    </g>
   </g>
  </g>
 </g>
 <defs>
  <clipPath id="p4ad6ae3c2a">
   <rect x="45.478125" y="24" width="446.4" height="221.76"/>
  </clipPath>
 </defs>
</svg>