<?xml version="1.0" encoding="utf-8" standalone="no"?>
<!DOCTYPE svg PUBLIC "-//W3C//DTD SVG 1.1//EN"
  "http://www.w3.org/Graphics/SVG/1.1/DTD/svg11.dtd">
<svg xmlns:xlink="http://www.w3.org/1999/xlink" width="708.48pt" height="564.48pt" viewBox="0 0 708.48 564.48" xmlns="http://www.w3.org/2000/svg" version="1.1">
 <metadata>
  <rdf:RDF xmlns:dc="http://purl.org/dc/elements/1.1/" xmlns:cc="http://creativecommons.org/ns#" xmlns:rdf="http://www.w3.org/1999/02/22-rdf-syntax-ns#">
   <cc:Work>
    <dc:type rdf:resource="http://purl.org/dc/dcmitype/StillImage"/>
    <dc:date>2025-04-04T21:18:50.667909</dc:date>
    <dc:format>image/svg+xml</dc:format>
    <dc:creator>
     <cc:Agent>
      <dc:title>Matplotlib v3.10.1, https://matplotlib.org/</dc:title>
     </cc:Agent>
    </dc:creator>
   </cc:Work>
  </rdf:RDF>
 </metadata>
 <defs>
  <style type="text/css">*{stroke-linejoin: round; stroke-linecap: butt}</style>
 </defs>
 <g id="figure_1">
  <g id="patch_1">
   <path d="M 0 564.48 
L 708.48 564.48 
L 708.48 0 
L 0 0 
z
" style="fill: #ffffff"/>
  </g>
  <g id="axes_1">
   <g id="patch_2">
    <path d="M 43.339375 257.14625 
L 347.76 257.14625 
L 347.76 23.937 
L 43.339375 23.937 
z
" style="fill: #ffffff"/>
   </g>
   <g id="matplotlib.axis_1">
    <g id="xtick_1">
     <g id="line2d_1">
      <defs>
       <path id="m4da9b7c37f" d="M 0 0 
L 0 3.5 
" style="stroke: #000000; stroke-width: 0.8"/>
      </defs>
      <g>
       <use xlink:href="#m4da9b7c37f" x="57.176676" y="257.14625" style="fill-opacity: 0; stroke: #000000; stroke-width: 0.8"/>
      </g>
     </g>
     <g id="text_1">
      <!-- −1.0 -->
      <g transform="translate(42.606989 273.264375) scale(0.12 -0.12)">
       <defs>
        <path id="DejaVuSerif-2212" d="M 678 2259 
L 4684 2259 
L 4684 1753 
L 678 1753 
L 678 2259 
z
" transform="scale(0.015625)"/>
        <path id="DejaVuSerif-31" d="M 909 0 
L 909 331 
L 1722 331 
L 1722 4213 
L 781 3603 
L 781 4013 
L 1919 4750 
L 2350 4750 
L 2350 331 
L 3163 331 
L 3163 0 
L 909 0 
z
" transform="scale(0.015625)"/>
        <path id="DejaVuSerif-2e" d="M 603 325 
Q 603 500 722 622 
Q 841 744 1019 744 
Q 1191 744 1312 622 
Q 1434 500 1434 325 
Q 1434 153 1312 31 
Q 1191 -91 1019 -91 
Q 841 -91 722 29 
Q 603 150 603 325 
z
" transform="scale(0.015625)"/>
        <path id="DejaVuSerif-30" d="M 2034 219 
Q 2513 219 2750 744 
Q 2988 1269 2988 2328 
Q 2988 3391 2750 3916 
Q 2513 4441 2034 4441 
Q 1556 4441 1318 3916 
Q 1081 3391 1081 2328 
Q 1081 1269 1318 744 
Q 1556 219 2034 219 
z
M 2034 -91 
Q 1275 -91 848 546 
Q 422 1184 422 2328 
Q 422 3475 848 4112 
Q 1275 4750 2034 4750 
Q 2797 4750 3222 4112 
Q 3647 3475 3647 2328 
Q 3647 1184 3222 546 
Q 2797 -91 2034 -91 
z
" transform="scale(0.015625)"/>
       </defs>
       <use xlink:href="#DejaVuSerif-2212"/>
       <use xlink:href="#DejaVuSerif-31" transform="translate(83.789062 0)"/>
       <use xlink:href="#DejaVuSerif-2e" transform="translate(147.412109 0)"/>
       <use xlink:href="#DejaVuSerif-30" transform="translate(179.199219 0)"/>
      </g>
     </g>
    </g>
    <g id="xtick_2">
     <g id="line2d_2">
      <g>
       <use xlink:href="#m4da9b7c37f" x="126.363182" y="257.14625" style="fill-opacity: 0; stroke: #000000; stroke-width: 0.8"/>
      </g>
     </g>
     <g id="text_2">
      <!-- −0.5 -->
      <g transform="translate(111.793494 273.264375) scale(0.12 -0.12)">
       <defs>
        <path id="DejaVuSerif-35" d="M 3219 4666 
L 3219 4153 
L 1081 4153 
L 1081 2816 
Q 1244 2928 1461 2984 
Q 1678 3041 1947 3041 
Q 2703 3041 3140 2622 
Q 3578 2203 3578 1478 
Q 3578 738 3136 323 
Q 2694 -91 1894 -91 
Q 1572 -91 1234 -12 
Q 897 66 544 225 
L 544 1131 
L 897 1131 
Q 925 688 1179 453 
Q 1434 219 1894 219 
Q 2388 219 2653 544 
Q 2919 869 2919 1478 
Q 2919 2084 2655 2407 
Q 2391 2731 1894 2731 
Q 1613 2731 1398 2631 
Q 1184 2531 1019 2322 
L 750 2322 
L 750 4666 
L 3219 4666 
z
" transform="scale(0.015625)"/>
       </defs>
       <use xlink:href="#DejaVuSerif-2212"/>
       <use xlink:href="#DejaVuSerif-30" transform="translate(83.789062 0)"/>
       <use xlink:href="#DejaVuSerif-2e" transform="translate(147.412109 0)"/>
       <use xlink:href="#DejaVuSerif-35" transform="translate(179.199219 0)"/>
      </g>
     </g>
    </g>
    <g id="xtick_3">
     <g id="line2d_3">
      <g>
       <use xlink:href="#m4da9b7c37f" x="195.549687" y="257.14625" style="fill-opacity: 0; stroke: #000000; stroke-width: 0.8"/>
      </g>
     </g>
     <g id="text_3">
      <!-- 0.0 -->
      <g transform="translate(186.007812 273.264375) scale(0.12 -0.12)">
       <use xlink:href="#DejaVuSerif-30"/>
       <use xlink:href="#DejaVuSerif-2e" transform="translate(63.623047 0)"/>
       <use xlink:href="#DejaVuSerif-30" transform="translate(95.410156 0)"/>
      </g>
     </g>
    </g>
    <g id="xtick_4">
     <g id="line2d_4">
      <g>
       <use xlink:href="#m4da9b7c37f" x="264.736193" y="257.14625" style="fill-opacity: 0; stroke: #000000; stroke-width: 0.8"/>
      </g>
     </g>
     <g id="text_4">
      <!-- 0.5 -->
      <g transform="translate(255.194318 273.264375) scale(0.12 -0.12)">
       <use xlink:href="#DejaVuSerif-30"/>
       <use xlink:href="#DejaVuSerif-2e" transform="translate(63.623047 0)"/>
       <use xlink:href="#DejaVuSerif-35" transform="translate(95.410156 0)"/>
      </g>
     </g>
    </g>
    <g id="xtick_5">
     <g id="line2d_5">
      <g>
       <use xlink:href="#m4da9b7c37f" x="333.922699" y="257.14625" style="fill-opacity: 0; stroke: #000000; stroke-width: 0.8"/>
      </g>
     </g>
     <g id="text_5">
      <!-- 1.0 -->
      <g transform="translate(324.380824 273.264375) scale(0.12 -0.12)">
       <use xlink:href="#DejaVuSerif-31"/>
       <use xlink:href="#DejaVuSerif-2e" transform="translate(63.623047 0)"/>
       <use xlink:href="#DejaVuSerif-30" transform="translate(95.410156 0)"/>
      </g>
     </g>
    </g>
   </g>
   <g id="matplotlib.axis_2">
    <g id="ytick_1">
     <g id="line2d_6">
      <defs>
       <path id="m4a9680a4f5" d="M 0 0 
L -3.5 0 
" style="stroke: #000000; stroke-width: 0.8"/>
      </defs>
      <g>
       <use xlink:href="#m4a9680a4f5" x="43.339375" y="242.014509" style="fill-opacity: 0; stroke: #000000; stroke-width: 0.8"/>
      </g>
     </g>
     <g id="text_6">
      <!-- −2 -->
      <g transform="translate(18.64875 246.573572) scale(0.12 -0.12)">
       <defs>
        <path id="DejaVuSerif-32" d="M 819 3553 
L 469 3553 
L 469 4384 
Q 803 4563 1142 4656 
Q 1481 4750 1806 4750 
Q 2534 4750 2956 4397 
Q 3378 4044 3378 3438 
Q 3378 2753 2422 1800 
Q 2347 1728 2309 1691 
L 1131 513 
L 3078 513 
L 3078 1088 
L 3444 1088 
L 3444 0 
L 434 0 
L 434 341 
L 1850 1753 
Q 2319 2222 2519 2614 
Q 2719 3006 2719 3438 
Q 2719 3909 2473 4175 
Q 2228 4441 1797 4441 
Q 1350 4441 1106 4219 
Q 863 3997 819 3553 
z
" transform="scale(0.015625)"/>
       </defs>
       <use xlink:href="#DejaVuSerif-2212"/>
       <use xlink:href="#DejaVuSerif-32" transform="translate(83.789062 0)"/>
      </g>
     </g>
    </g>
    <g id="ytick_2">
     <g id="line2d_7">
      <g>
       <use xlink:href="#m4a9680a4f5" x="43.339375" y="210.551445" style="fill-opacity: 0; stroke: #000000; stroke-width: 0.8"/>
      </g>
     </g>
     <g id="text_7">
      <!-- −1 -->
      <g transform="translate(18.64875 215.110508) scale(0.12 -0.12)">
       <use xlink:href="#DejaVuSerif-2212"/>
       <use xlink:href="#DejaVuSerif-31" transform="translate(83.789062 0)"/>
      </g>
     </g>
    </g>
    <g id="ytick_3">
     <g id="line2d_8">
      <g>
       <use xlink:href="#m4a9680a4f5" x="43.339375" y="179.088382" style="fill-opacity: 0; stroke: #000000; stroke-width: 0.8"/>
      </g>
     </g>
     <g id="text_8">
      <!-- 0 -->
      <g transform="translate(28.704375 183.647444) scale(0.12 -0.12)">
       <use xlink:href="#DejaVuSerif-30"/>
      </g>
     </g>
    </g>
    <g id="ytick_4">
     <g id="line2d_9">
      <g>
       <use xlink:href="#m4a9680a4f5" x="43.339375" y="147.625318" style="fill-opacity: 0; stroke: #000000; stroke-width: 0.8"/>
      </g>
     </g>
     <g id="text_9">
      <!-- 1 -->
      <g transform="translate(28.704375 152.184381) scale(0.12 -0.12)">
       <use xlink:href="#DejaVuSerif-31"/>
      </g>
     </g>
    </g>
    <g id="ytick_5">
     <g id="line2d_10">
      <g>
       <use xlink:href="#m4a9680a4f5" x="43.339375" y="116.162254" style="fill-opacity: 0; stroke: #000000; stroke-width: 0.8"/>
      </g>
     </g>
     <g id="text_10">
      <!-- 2 -->
      <g transform="translate(28.704375 120.721317) scale(0.12 -0.12)">
       <use xlink:href="#DejaVuSerif-32"/>
      </g>
     </g>
    </g>
    <g id="ytick_6">
     <g id="line2d_11">
      <g>
       <use xlink:href="#m4a9680a4f5" x="43.339375" y="84.699191" style="fill-opacity: 0; stroke: #000000; stroke-width: 0.8"/>
      </g>
     </g>
     <g id="text_11">
      <!-- 3 -->
      <g transform="translate(28.704375 89.258253) scale(0.12 -0.12)">
       <defs>
        <path id="DejaVuSerif-33" d="M 622 4469 
Q 988 4606 1323 4678 
Q 1659 4750 1953 4750 
Q 2638 4750 3022 4454 
Q 3406 4159 3406 3634 
Q 3406 3213 3140 2930 
Q 2875 2647 2388 2547 
Q 2963 2466 3280 2130 
Q 3597 1794 3597 1259 
Q 3597 606 3158 257 
Q 2719 -91 1894 -91 
Q 1528 -91 1179 -12 
Q 831 66 488 225 
L 488 1131 
L 838 1131 
Q 869 681 1141 450 
Q 1413 219 1906 219 
Q 2384 219 2661 495 
Q 2938 772 2938 1253 
Q 2938 1803 2653 2086 
Q 2369 2369 1819 2369 
L 1522 2369 
L 1522 2688 
L 1678 2688 
Q 2225 2688 2498 2914 
Q 2772 3141 2772 3597 
Q 2772 4006 2547 4223 
Q 2322 4441 1900 4441 
Q 1478 4441 1245 4241 
Q 1013 4041 972 3647 
L 622 3647 
L 622 4469 
z
" transform="scale(0.015625)"/>
       </defs>
       <use xlink:href="#DejaVuSerif-33"/>
      </g>
     </g>
    </g>
    <g id="ytick_7">
     <g id="line2d_12">
      <g>
       <use xlink:href="#m4a9680a4f5" x="43.339375" y="53.236127" style="fill-opacity: 0; stroke: #000000; stroke-width: 0.8"/>
      </g>
     </g>
     <g id="text_12">
      <!-- 4 -->
      <g transform="translate(28.704375 57.79519) scale(0.12 -0.12)">
       <defs>
        <path id="DejaVuSerif-34" d="M 2234 1581 
L 2234 4063 
L 641 1581 
L 2234 1581 
z
M 3609 0 
L 1484 0 
L 1484 331 
L 2234 331 
L 2234 1247 
L 197 1247 
L 197 1588 
L 2241 4750 
L 2859 4750 
L 2859 1581 
L 3750 1581 
L 3750 1247 
L 2859 1247 
L 2859 331 
L 3609 331 
L 3609 0 
z
" transform="scale(0.015625)"/>
       </defs>
       <use xlink:href="#DejaVuSerif-34"/>
      </g>
     </g>
    </g>
   </g>
   <g id="line2d_13">
    <path d="M 57.176676 179.088382 
L 58.56736 105.802826 
L 59.958043 61.538846 
L 61.348727 39.641425 
L 62.73941 34.53742 
L 64.130094 41.602088 
L 65.520777 57.038438 
L 66.911461 77.768468 
L 72.474195 172.029194 
L 73.864879 191.919218 
L 75.255562 208.919828 
L 76.646246 222.759331 
L 78.036929 233.343616 
L 79.427613 240.719205 
L 80.818296 245.041228 
L 82.20898 246.54583 
L 83.599663 245.526596 
L 84.990347 242.314585 
L 86.38103 237.261576 
L 87.771714 230.726214 
L 89.162397 223.062701 
L 91.943764 205.693619 
L 96.115815 178.929443 
L 97.506499 170.779277 
L 98.897182 163.318718 
L 100.287866 156.679887 
L 101.678549 150.962546 
L 103.069233 146.235675 
L 104.459916 142.53946 
L 105.8506 139.887608 
L 107.241283 138.269879 
L 108.631967 137.654775 
L 110.02265 137.992303 
L 111.413334 139.216772 
L 112.804017 141.249549 
L 114.194701 144.001758 
L 115.585384 147.376866 
L 116.976068 151.273132 
L 119.757435 160.209747 
L 128.101536 188.924128 
L 129.49222 193.060534 
L 130.882903 196.824899 
L 132.273587 200.167225 
L 133.66427 203.047043 
L 135.054954 205.433438 
L 136.445637 207.304942 
L 137.836321 208.649287 
L 139.227004 209.463051 
L 140.617688 209.751197 
L 142.008372 209.526523 
L 143.399055 208.80904 
L 144.789739 207.625289 
L 146.180422 206.007607 
L 147.571106 203.993364 
L 148.961789 201.624168 
L 150.352473 198.945065 
L 153.13384 192.849714 
L 157.30589 182.618286 
L 161.477941 172.27592 
L 164.259308 165.928742 
L 167.040675 160.378338 
L 168.431359 157.978975 
L 169.822042 155.862669 
L 171.212726 154.04812 
L 172.603409 152.549393 
L 173.994093 151.375901 
L 175.384776 150.532448 
L 176.77546 150.019335 
L 178.166143 149.832506 
L 179.556827 149.963756 
L 180.94751 150.400973 
L 182.338194 151.128425 
L 183.728877 152.127079 
L 185.119561 153.374955 
L 186.510245 154.847502 
L 189.291612 158.357932 
L 192.072979 162.425909 
L 201.807763 177.509433 
L 204.58913 181.122045 
L 205.979814 182.69508 
L 207.370498 184.090198 
L 208.761181 185.294214 
L 210.151865 186.296985 
L 211.542548 187.09148 
L 212.933232 187.673811 
L 214.323915 188.043229 
L 215.714599 188.202072 
L 217.105282 188.155676 
L 218.495966 187.912249 
L 219.886649 187.482709 
L 221.277333 186.880488 
L 222.668016 186.121304 
L 225.449383 184.204781 
L 228.23075 181.894265 
L 236.574852 174.413554 
L 239.356219 172.333346 
L 242.137586 170.716354 
L 243.528269 170.117124 
L 244.918953 169.671535 
L 246.309636 169.386848 
L 247.70032 169.267502 
L 249.091003 169.31503 
L 250.481687 169.528024 
L 251.872371 169.902142 
L 253.263054 170.430162 
L 254.653738 171.102081 
L 257.435105 172.824637 
L 260.216472 174.9409 
L 269.951256 183.001876 
L 272.732623 184.747523 
L 274.123307 185.426402 
L 275.513991 185.956119 
L 276.904674 186.325413 
L 278.295358 186.526348 
L 279.686041 186.554587 
L 281.076725 186.409623 
L 282.467408 186.094928 
L 283.858092 185.618034 
L 285.248775 184.990523 
L 288.030142 183.349551 
L 290.811509 181.339495 
L 296.374244 177.104324 
L 299.155611 175.376087 
L 300.546294 174.713522 
L 301.936978 174.218249 
L 303.327661 173.909384 
L 304.718345 173.800297 
L 306.109028 173.897604 
L 307.499712 174.200259 
L 308.890395 174.698798 
L 310.281079 175.374792 
L 313.062446 177.139381 
L 317.234496 180.143682 
L 318.62518 181.014309 
L 320.015864 181.716607 
L 321.406547 182.192996 
L 322.797231 182.396048 
L 324.187914 182.295549 
L 325.578598 181.887151 
L 326.969281 181.202849 
L 331.141332 178.63894 
L 332.532015 178.386499 
L 333.922699 179.088382 
L 333.922699 179.088382 
" clip-path="url(#p7bc5fa4ff6)" style="fill: none; stroke: #1f77b4; stroke-width: 1.5; stroke-linecap: square"/>
   </g>
   <g id="patch_3">
    <path d="M 43.339375 257.14625 
L 43.339375 23.937 
" style="fill: none; stroke: #000000; stroke-width: 0.8; stroke-linejoin: miter; stroke-linecap: square"/>
   </g>
   <g id="patch_4">
    <path d="M 347.76 257.14625 
L 347.76 23.937 
" style="fill: none; stroke: #000000; stroke-width: 0.8; stroke-linejoin: miter; stroke-linecap: square"/>
   </g>
   <g id="patch_5">
    <path d="M 43.339375 257.14625 
L 347.76 257.14625 
" style="fill: none; stroke: #000000; stroke-width: 0.8; stroke-linejoin: miter; stroke-linecap: square"/>
   </g>
   <g id="patch_6">
    <path d="M 43.339375 23.937 
L 347.76 23.937 
" style="fill: none; stroke: #000000; stroke-width: 0.8; stroke-linejoin: miter; stroke-linecap: square"/>
   </g>
   <g id="text_13">
    <!-- N = 12,   eig = 1060.0971652568 -->
    <g transform="translate(72.119187 17.937) scale(0.144 -0.144)">
     <defs>
      <path id="DejaVuSerif-4e" d="M 313 0 
L 313 331 
L 941 331 
L 941 4331 
L 313 4331 
L 313 4666 
L 1509 4666 
L 4306 984 
L 4306 4331 
L 3681 4331 
L 3681 4666 
L 5319 4666 
L 5319 4331 
L 4691 4331 
L 4691 -91 
L 4313 -91 
L 1325 3841 
L 1325 331 
L 1953 331 
L 1953 0 
L 313 0 
z
" transform="scale(0.015625)"/>
      <path id="DejaVuSerif-20" transform="scale(0.015625)"/>
      <path id="DejaVuSerif-3d" d="M 678 2894 
L 4684 2894 
L 4684 2394 
L 678 2394 
L 678 2894 
z
M 678 1619 
L 4684 1619 
L 4684 1119 
L 678 1119 
L 678 1619 
z
" transform="scale(0.015625)"/>
      <path id="DejaVuSerif-2c" d="M 231 -622 
Q 525 -406 662 -114 
Q 800 178 800 594 
L 800 709 
L 1416 709 
Q 1391 175 1164 -208 
Q 938 -591 481 -872 
L 231 -622 
z
" transform="scale(0.015625)"/>
      <path id="DejaVuSerif-65" d="M 3469 1600 
L 991 1600 
L 991 1575 
Q 991 903 1244 561 
Q 1497 219 1991 219 
Q 2369 219 2611 417 
Q 2853 616 2950 1006 
L 3413 1006 
Q 3275 459 2904 184 
Q 2534 -91 1931 -91 
Q 1203 -91 761 389 
Q 319 869 319 1663 
Q 319 2450 753 2931 
Q 1188 3413 1894 3413 
Q 2647 3413 3050 2948 
Q 3453 2484 3469 1600 
z
M 2791 1931 
Q 2772 2513 2545 2808 
Q 2319 3103 1894 3103 
Q 1497 3103 1269 2806 
Q 1041 2509 991 1931 
L 2791 1931 
z
" transform="scale(0.015625)"/>
      <path id="DejaVuSerif-69" d="M 622 4353 
Q 622 4497 726 4603 
Q 831 4709 978 4709 
Q 1122 4709 1226 4603 
Q 1331 4497 1331 4353 
Q 1331 4206 1228 4103 
Q 1125 4000 978 4000 
Q 831 4000 726 4103 
Q 622 4206 622 4353 
z
M 1356 331 
L 1900 331 
L 1900 0 
L 231 0 
L 231 331 
L 781 331 
L 781 2988 
L 231 2988 
L 231 3322 
L 1356 3322 
L 1356 331 
z
" transform="scale(0.015625)"/>
      <path id="DejaVuSerif-67" d="M 3359 2988 
L 3359 72 
Q 3359 -644 2965 -1033 
Q 2572 -1422 1844 -1422 
Q 1516 -1422 1216 -1362 
Q 916 -1303 641 -1184 
L 641 -488 
L 941 -488 
Q 997 -813 1206 -963 
Q 1416 -1113 1806 -1113 
Q 2313 -1113 2548 -827 
Q 2784 -541 2784 72 
L 2784 519 
Q 2616 206 2355 57 
Q 2094 -91 1709 -91 
Q 1097 -91 708 395 
Q 319 881 319 1663 
Q 319 2444 706 2928 
Q 1094 3413 1709 3413 
Q 2094 3413 2355 3264 
Q 2616 3116 2784 2803 
L 2784 3322 
L 3909 3322 
L 3909 2988 
L 3359 2988 
z
M 2784 1825 
Q 2784 2422 2554 2737 
Q 2325 3053 1888 3053 
Q 1444 3053 1217 2703 
Q 991 2353 991 1663 
Q 991 975 1217 622 
Q 1444 269 1888 269 
Q 2325 269 2554 583 
Q 2784 897 2784 1497 
L 2784 1825 
z
" transform="scale(0.015625)"/>
      <path id="DejaVuSerif-36" d="M 2094 219 
Q 2534 219 2771 542 
Q 3009 866 3009 1472 
Q 3009 2078 2771 2401 
Q 2534 2725 2094 2725 
Q 1647 2725 1412 2412 
Q 1178 2100 1178 1509 
Q 1178 888 1415 553 
Q 1653 219 2094 219 
z
M 1075 2569 
Q 1288 2803 1556 2918 
Q 1825 3034 2163 3034 
Q 2859 3034 3264 2615 
Q 3669 2197 3669 1472 
Q 3669 763 3233 336 
Q 2797 -91 2069 -91 
Q 1278 -91 853 498 
Q 428 1088 428 2181 
Q 428 3406 931 4078 
Q 1434 4750 2350 4750 
Q 2597 4750 2869 4703 
Q 3141 4656 3425 4563 
L 3425 3794 
L 3072 3794 
Q 3034 4109 2831 4275 
Q 2628 4441 2284 4441 
Q 1678 4441 1381 3981 
Q 1084 3522 1075 2569 
z
" transform="scale(0.015625)"/>
      <path id="DejaVuSerif-39" d="M 2994 2091 
Q 2784 1856 2512 1740 
Q 2241 1625 1900 1625 
Q 1206 1625 804 2044 
Q 403 2463 403 3188 
Q 403 3897 839 4323 
Q 1275 4750 2003 4750 
Q 2794 4750 3217 4161 
Q 3641 3572 3641 2478 
Q 3641 1253 3137 581 
Q 2634 -91 1722 -91 
Q 1475 -91 1203 -44 
Q 931 3 647 97 
L 647 872 
L 997 872 
Q 1038 556 1241 387 
Q 1444 219 1784 219 
Q 2391 219 2687 676 
Q 2984 1134 2994 2091 
z
M 1978 4441 
Q 1534 4441 1298 4117 
Q 1063 3794 1063 3188 
Q 1063 2581 1298 2256 
Q 1534 1931 1978 1931 
Q 2422 1931 2658 2245 
Q 2894 2559 2894 3150 
Q 2894 3772 2656 4106 
Q 2419 4441 1978 4441 
z
" transform="scale(0.015625)"/>
      <path id="DejaVuSerif-37" d="M 3609 4347 
L 1784 0 
L 1319 0 
L 3059 4153 
L 903 4153 
L 903 3578 
L 538 3578 
L 538 4666 
L 3609 4666 
L 3609 4347 
z
" transform="scale(0.015625)"/>
      <path id="DejaVuSerif-38" d="M 2981 1275 
Q 2981 1775 2732 2051 
Q 2484 2328 2034 2328 
Q 1584 2328 1336 2051 
Q 1088 1775 1088 1275 
Q 1088 772 1336 495 
Q 1584 219 2034 219 
Q 2484 219 2732 495 
Q 2981 772 2981 1275 
z
M 2853 3541 
Q 2853 3966 2637 4203 
Q 2422 4441 2034 4441 
Q 1650 4441 1433 4203 
Q 1216 3966 1216 3541 
Q 1216 3113 1433 2875 
Q 1650 2638 2034 2638 
Q 2422 2638 2637 2875 
Q 2853 3113 2853 3541 
z
M 2516 2484 
Q 3047 2413 3344 2092 
Q 3641 1772 3641 1275 
Q 3641 619 3225 264 
Q 2809 -91 2034 -91 
Q 1263 -91 845 264 
Q 428 619 428 1275 
Q 428 1772 725 2092 
Q 1022 2413 1556 2484 
Q 1084 2569 832 2842 
Q 581 3116 581 3541 
Q 581 4103 968 4426 
Q 1356 4750 2034 4750 
Q 2713 4750 3100 4426 
Q 3488 4103 3488 3541 
Q 3488 3116 3236 2842 
Q 2984 2569 2516 2484 
z
" transform="scale(0.015625)"/>
     </defs>
     <use xlink:href="#DejaVuSerif-4e"/>
     <use xlink:href="#DejaVuSerif-20" transform="translate(87.5 0)"/>
     <use xlink:href="#DejaVuSerif-3d" transform="translate(119.287109 0)"/>
     <use xlink:href="#DejaVuSerif-20" transform="translate(203.076172 0)"/>
     <use xlink:href="#DejaVuSerif-31" transform="translate(234.863281 0)"/>
     <use xlink:href="#DejaVuSerif-32" transform="translate(298.486328 0)"/>
     <use xlink:href="#DejaVuSerif-2c" transform="translate(362.109375 0)"/>
     <use xlink:href="#DejaVuSerif-20" transform="translate(393.896484 0)"/>
     <use xlink:href="#DejaVuSerif-20" transform="translate(425.683594 0)"/>
     <use xlink:href="#DejaVuSerif-20" transform="translate(457.470703 0)"/>
     <use xlink:href="#DejaVuSerif-65" transform="translate(489.257812 0)"/>
     <use xlink:href="#DejaVuSerif-69" transform="translate(548.4375 0)"/>
     <use xlink:href="#DejaVuSerif-67" transform="translate(580.419922 0)"/>
     <use xlink:href="#DejaVuSerif-20" transform="translate(644.433594 0)"/>
     <use xlink:href="#DejaVuSerif-3d" transform="translate(676.220703 0)"/>
     <use xlink:href="#DejaVuSerif-20" transform="translate(760.009766 0)"/>
     <use xlink:href="#DejaVuSerif-31" transform="translate(791.796875 0)"/>
     <use xlink:href="#DejaVuSerif-30" transform="translate(855.419922 0)"/>
     <use xlink:href="#DejaVuSerif-36" transform="translate(919.042969 0)"/>
     <use xlink:href="#DejaVuSerif-30" transform="translate(982.666016 0)"/>
     <use xlink:href="#DejaVuSerif-2e" transform="translate(1046.289062 0)"/>
     <use xlink:href="#DejaVuSerif-30" transform="translate(1078.076172 0)"/>
     <use xlink:href="#DejaVuSerif-39" transform="translate(1141.699219 0)"/>
     <use xlink:href="#DejaVuSerif-37" transform="translate(1205.322266 0)"/>
     <use xlink:href="#DejaVuSerif-31" transform="translate(1268.945312 0)"/>
     <use xlink:href="#DejaVuSerif-36" transform="translate(1332.568359 0)"/>
     <use xlink:href="#DejaVuSerif-35" transform="translate(1396.191406 0)"/>
     <use xlink:href="#DejaVuSerif-32" transform="translate(1459.814453 0)"/>
     <use xlink:href="#DejaVuSerif-35" transform="translate(1523.4375 0)"/>
     <use xlink:href="#DejaVuSerif-36" transform="translate(1587.060547 0)"/>
     <use xlink:href="#DejaVuSerif-38" transform="translate(1650.683594 0)"/>
    </g>
   </g>
  </g>
  <g id="axes_2">
   <g id="patch_7">
    <path d="M 396.859375 257.14625 
L 701.28 257.14625 
L 701.28 23.937 
L 396.859375 23.937 
z
" style="fill: #ffffff"/>
   </g>
   <g id="matplotlib.axis_3">
    <g id="xtick_6">
     <g id="line2d_14">
      <g>
       <use xlink:href="#m4da9b7c37f" x="410.696676" y="257.14625" style="fill-opacity: 0; stroke: #000000; stroke-width: 0.8"/>
      </g>
     </g>
     <g id="text_14">
      <!-- −1.0 -->
      <g transform="translate(396.126989 273.264375) scale(0.12 -0.12)">
       <use xlink:href="#DejaVuSerif-2212"/>
       <use xlink:href="#DejaVuSerif-31" transform="translate(83.789062 0)"/>
       <use xlink:href="#DejaVuSerif-2e" transform="translate(147.412109 0)"/>
       <use xlink:href="#DejaVuSerif-30" transform="translate(179.199219 0)"/>
      </g>
     </g>
    </g>
    <g id="xtick_7">
     <g id="line2d_15">
      <g>
       <use xlink:href="#m4da9b7c37f" x="479.883182" y="257.14625" style="fill-opacity: 0; stroke: #000000; stroke-width: 0.8"/>
      </g>
     </g>
     <g id="text_15">
      <!-- −0.5 -->
      <g transform="translate(465.313494 273.264375) scale(0.12 -0.12)">
       <use xlink:href="#DejaVuSerif-2212"/>
       <use xlink:href="#DejaVuSerif-30" transform="translate(83.789062 0)"/>
       <use xlink:href="#DejaVuSerif-2e" transform="translate(147.412109 0)"/>
       <use xlink:href="#DejaVuSerif-35" transform="translate(179.199219 0)"/>
      </g>
     </g>
    </g>
    <g id="xtick_8">
     <g id="line2d_16">
      <g>
       <use xlink:href="#m4da9b7c37f" x="549.069687" y="257.14625" style="fill-opacity: 0; stroke: #000000; stroke-width: 0.8"/>
      </g>
     </g>
     <g id="text_16">
      <!-- 0.0 -->
      <g transform="translate(539.527812 273.264375) scale(0.12 -0.12)">
       <use xlink:href="#DejaVuSerif-30"/>
       <use xlink:href="#DejaVuSerif-2e" transform="translate(63.623047 0)"/>
       <use xlink:href="#DejaVuSerif-30" transform="translate(95.410156 0)"/>
      </g>
     </g>
    </g>
    <g id="xtick_9">
     <g id="line2d_17">
      <g>
       <use xlink:href="#m4da9b7c37f" x="618.256193" y="257.14625" style="fill-opacity: 0; stroke: #000000; stroke-width: 0.8"/>
      </g>
     </g>
     <g id="text_17">
      <!-- 0.5 -->
      <g transform="translate(608.714318 273.264375) scale(0.12 -0.12)">
       <use xlink:href="#DejaVuSerif-30"/>
       <use xlink:href="#DejaVuSerif-2e" transform="translate(63.623047 0)"/>
       <use xlink:href="#DejaVuSerif-35" transform="translate(95.410156 0)"/>
      </g>
     </g>
    </g>
    <g id="xtick_10">
     <g id="line2d_18">
      <g>
       <use xlink:href="#m4da9b7c37f" x="687.442699" y="257.14625" style="fill-opacity: 0; stroke: #000000; stroke-width: 0.8"/>
      </g>
     </g>
     <g id="text_18">
      <!-- 1.0 -->
      <g transform="translate(677.900824 273.264375) scale(0.12 -0.12)">
       <use xlink:href="#DejaVuSerif-31"/>
       <use xlink:href="#DejaVuSerif-2e" transform="translate(63.623047 0)"/>
       <use xlink:href="#DejaVuSerif-30" transform="translate(95.410156 0)"/>
      </g>
     </g>
    </g>
   </g>
   <g id="matplotlib.axis_4">
    <g id="ytick_8">
     <g id="line2d_19">
      <g>
       <use xlink:href="#m4a9680a4f5" x="396.859375" y="242.391575" style="fill-opacity: 0; stroke: #000000; stroke-width: 0.8"/>
      </g>
     </g>
     <g id="text_19">
      <!-- −0.4 -->
      <g transform="translate(360.72 246.950637) scale(0.12 -0.12)">
       <use xlink:href="#DejaVuSerif-2212"/>
       <use xlink:href="#DejaVuSerif-30" transform="translate(83.789062 0)"/>
       <use xlink:href="#DejaVuSerif-2e" transform="translate(147.412109 0)"/>
       <use xlink:href="#DejaVuSerif-34" transform="translate(179.199219 0)"/>
      </g>
     </g>
    </g>
    <g id="ytick_9">
     <g id="line2d_20">
      <g>
       <use xlink:href="#m4a9680a4f5" x="396.859375" y="197.960433" style="fill-opacity: 0; stroke: #000000; stroke-width: 0.8"/>
      </g>
     </g>
     <g id="text_20">
      <!-- −0.2 -->
      <g transform="translate(360.72 202.519495) scale(0.12 -0.12)">
       <use xlink:href="#DejaVuSerif-2212"/>
       <use xlink:href="#DejaVuSerif-30" transform="translate(83.789062 0)"/>
       <use xlink:href="#DejaVuSerif-2e" transform="translate(147.412109 0)"/>
       <use xlink:href="#DejaVuSerif-32" transform="translate(179.199219 0)"/>
      </g>
     </g>
    </g>
    <g id="ytick_10">
     <g id="line2d_21">
      <g>
       <use xlink:href="#m4a9680a4f5" x="396.859375" y="153.529291" style="fill-opacity: 0; stroke: #000000; stroke-width: 0.8"/>
      </g>
     </g>
     <g id="text_21">
      <!-- 0.0 -->
      <g transform="translate(370.775625 158.088353) scale(0.12 -0.12)">
       <use xlink:href="#DejaVuSerif-30"/>
       <use xlink:href="#DejaVuSerif-2e" transform="translate(63.623047 0)"/>
       <use xlink:href="#DejaVuSerif-30" transform="translate(95.410156 0)"/>
      </g>
     </g>
    </g>
    <g id="ytick_11">
     <g id="line2d_22">
      <g>
       <use xlink:href="#m4a9680a4f5" x="396.859375" y="109.098149" style="fill-opacity: 0; stroke: #000000; stroke-width: 0.8"/>
      </g>
     </g>
     <g id="text_22">
      <!-- 0.2 -->
      <g transform="translate(370.775625 113.657211) scale(0.12 -0.12)">
       <use xlink:href="#DejaVuSerif-30"/>
       <use xlink:href="#DejaVuSerif-2e" transform="translate(63.623047 0)"/>
       <use xlink:href="#DejaVuSerif-32" transform="translate(95.410156 0)"/>
      </g>
     </g>
    </g>
    <g id="ytick_12">
     <g id="line2d_23">
      <g>
       <use xlink:href="#m4a9680a4f5" x="396.859375" y="64.667006" style="fill-opacity: 0; stroke: #000000; stroke-width: 0.8"/>
      </g>
     </g>
     <g id="text_23">
      <!-- 0.4 -->
      <g transform="translate(370.775625 69.226069) scale(0.12 -0.12)">
       <use xlink:href="#DejaVuSerif-30"/>
       <use xlink:href="#DejaVuSerif-2e" transform="translate(63.623047 0)"/>
       <use xlink:href="#DejaVuSerif-34" transform="translate(95.410156 0)"/>
      </g>
     </g>
    </g>
   </g>
   <g id="line2d_24">
    <path d="M 410.696676 153.529291 
L 413.478043 121.062983 
L 414.868727 106.812017 
L 416.25941 94.832825 
L 417.650094 85.707016 
L 419.040777 79.852151 
L 420.431461 77.507601 
L 421.822144 78.735148 
L 423.212828 83.427992 
L 424.603511 91.325203 
L 425.994195 102.030341 
L 427.384879 115.033672 
L 430.166246 145.484008 
L 432.947613 177.34982 
L 434.338296 192.118466 
L 435.72898 205.284632 
L 437.119663 216.321607 
L 438.510347 224.801546 
L 439.90103 230.410211 
L 441.291714 232.956281 
L 442.682397 232.375089 
L 444.073081 228.726867 
L 445.463764 222.189896 
L 446.854448 213.049123 
L 448.245131 201.681017 
L 449.635815 188.535527 
L 452.417182 158.958552 
L 455.198549 128.609074 
L 456.589233 114.465523 
L 457.979916 101.645024 
L 459.3706 90.554185 
L 460.761283 81.529456 
L 462.151967 74.829012 
L 463.54265 70.627837 
L 464.933334 69.015936 
L 466.324017 69.999519 
L 467.714701 73.504882 
L 469.105384 79.384646 
L 470.496068 87.425966 
L 471.886752 97.360287 
L 473.277435 108.874204 
L 476.058802 135.232332 
L 481.621536 190.837702 
L 483.01222 203.270742 
L 484.402903 214.506536 
L 485.793587 224.305337 
L 487.18427 232.471774 
L 488.574954 238.85708 
L 489.965637 243.359916 
L 491.356321 245.92588 
L 492.747004 246.54583 
L 494.137688 245.253175 
L 495.528372 242.120293 
L 496.919055 237.254256 
L 498.309739 230.792029 
L 499.700422 222.895334 
L 501.091106 213.745331 
L 502.481789 203.537271 
L 505.263156 180.76736 
L 513.607257 108.019916 
L 516.388625 86.852121 
L 517.779308 77.415834 
L 519.169992 68.850197 
L 520.560675 61.210334 
L 521.951359 54.532957 
L 523.342042 48.837419 
L 524.732726 44.127004 
L 526.123409 40.390407 
L 527.514093 37.603342 
L 528.904776 35.730232 
L 530.29546 34.725928 
L 531.686143 34.53742 
L 533.076827 35.10551 
L 534.46751 36.366398 
L 535.858194 38.253182 
L 537.248877 40.697234 
L 538.639561 43.629443 
L 540.030245 46.981324 
L 542.811612 54.678918 
L 545.592979 63.287642 
L 556.718447 98.978176 
L 559.499814 106.873317 
L 562.281181 114.05733 
L 565.062548 120.478802 
L 567.843915 126.127793 
L 570.625282 131.026092 
L 573.406649 135.218072 
L 576.188016 138.762587 
L 578.969383 141.726167 
L 581.75075 144.177682 
L 584.532118 146.184482 
L 587.313485 147.809917 
L 590.094852 149.112029 
L 592.876219 150.143128 
L 595.657586 150.949922 
L 598.438953 151.573893 
L 602.611003 152.24583 
L 606.783054 152.691294 
L 612.345788 153.066123 
L 620.689889 153.371812 
L 630.424674 153.491248 
L 687.442699 153.529291 
L 687.442699 153.529291 
" clip-path="url(#pce9613090f)" style="fill: none; stroke: #1f77b4; stroke-width: 1.5; stroke-linecap: square"/>
   </g>
   <g id="patch_8">
    <path d="M 396.859375 257.14625 
L 396.859375 23.937 
" style="fill: none; stroke: #000000; stroke-width: 0.8; stroke-linejoin: miter; stroke-linecap: square"/>
   </g>
   <g id="patch_9">
    <path d="M 701.28 257.14625 
L 701.28 23.937 
" style="fill: none; stroke: #000000; stroke-width: 0.8; stroke-linejoin: miter; stroke-linecap: square"/>
   </g>
   <g id="patch_10">
    <path d="M 396.859375 257.14625 
L 701.28 257.14625 
" style="fill: none; stroke: #000000; stroke-width: 0.8; stroke-linejoin: miter; stroke-linecap: square"/>
   </g>
   <g id="patch_11">
    <path d="M 396.859375 23.937 
L 701.28 23.937 
" style="fill: none; stroke: #000000; stroke-width: 0.8; stroke-linejoin: miter; stroke-linecap: square"/>
   </g>
   <g id="text_24">
    <!-- N = 24,   eig =  501.3517186350 -->
    <g transform="translate(427.931938 17.937) scale(0.144 -0.144)">
     <use xlink:href="#DejaVuSerif-4e"/>
     <use xlink:href="#DejaVuSerif-20" transform="translate(87.5 0)"/>
     <use xlink:href="#DejaVuSerif-3d" transform="translate(119.287109 0)"/>
     <use xlink:href="#DejaVuSerif-20" transform="translate(203.076172 0)"/>
     <use xlink:href="#DejaVuSerif-32" transform="translate(234.863281 0)"/>
     <use xlink:href="#DejaVuSerif-34" transform="translate(298.486328 0)"/>
     <use xlink:href="#DejaVuSerif-2c" transform="translate(362.109375 0)"/>
     <use xlink:href="#DejaVuSerif-20" transform="translate(393.896484 0)"/>
     <use xlink:href="#DejaVuSerif-20" transform="translate(425.683594 0)"/>
     <use xlink:href="#DejaVuSerif-20" transform="translate(457.470703 0)"/>
     <use xlink:href="#DejaVuSerif-65" transform="translate(489.257812 0)"/>
     <use xlink:href="#DejaVuSerif-69" transform="translate(548.4375 0)"/>
     <use xlink:href="#DejaVuSerif-67" transform="translate(580.419922 0)"/>
     <use xlink:href="#DejaVuSerif-20" transform="translate(644.433594 0)"/>
     <use xlink:href="#DejaVuSerif-3d" transform="translate(676.220703 0)"/>
     <use xlink:href="#DejaVuSerif-20" transform="translate(760.009766 0)"/>
     <use xlink:href="#DejaVuSerif-20" transform="translate(791.796875 0)"/>
     <use xlink:href="#DejaVuSerif-35" transform="translate(823.583984 0)"/>
     <use xlink:href="#DejaVuSerif-30" transform="translate(887.207031 0)"/>
     <use xlink:href="#DejaVuSerif-31" transform="translate(950.830078 0)"/>
     <use xlink:href="#DejaVuSerif-2e" transform="translate(1014.453125 0)"/>
     <use xlink:href="#DejaVuSerif-33" transform="translate(1046.240234 0)"/>
     <use xlink:href="#DejaVuSerif-35" transform="translate(1109.863281 0)"/>
     <use xlink:href="#DejaVuSerif-31" transform="translate(1173.486328 0)"/>
     <use xlink:href="#DejaVuSerif-37" transform="translate(1237.109375 0)"/>
     <use xlink:href="#DejaVuSerif-31" transform="translate(1300.732422 0)"/>
     <use xlink:href="#DejaVuSerif-38" transform="translate(1364.355469 0)"/>
     <use xlink:href="#DejaVuSerif-36" transform="translate(1427.978516 0)"/>
     <use xlink:href="#DejaVuSerif-33" transform="translate(1491.601562 0)"/>
     <use xlink:href="#DejaVuSerif-35" transform="translate(1555.224609 0)"/>
     <use xlink:href="#DejaVuSerif-30" transform="translate(1618.847656 0)"/>
    </g>
   </g>
  </g>
  <g id="axes_3">
   <g id="patch_12">
    <path d="M 43.339375 538.66625 
L 347.76 538.66625 
L 347.76 305.457 
L 43.339375 305.457 
z
" style="fill: #ffffff"/>
   </g>
   <g id="matplotlib.axis_5">
    <g id="xtick_11">
     <g id="line2d_25">
      <g>
       <use xlink:href="#m4da9b7c37f" x="57.176676" y="538.66625" style="fill-opacity: 0; stroke: #000000; stroke-width: 0.8"/>
      </g>
     </g>
     <g id="text_25">
      <!-- −1.0 -->
      <g transform="translate(42.606989 554.784375) scale(0.12 -0.12)">
       <use xlink:href="#DejaVuSerif-2212"/>
       <use xlink:href="#DejaVuSerif-31" transform="translate(83.789062 0)"/>
       <use xlink:href="#DejaVuSerif-2e" transform="translate(147.412109 0)"/>
       <use xlink:href="#DejaVuSerif-30" transform="translate(179.199219 0)"/>
      </g>
     </g>
    </g>
    <g id="xtick_12">
     <g id="line2d_26">
      <g>
       <use xlink:href="#m4da9b7c37f" x="126.363182" y="538.66625" style="fill-opacity: 0; stroke: #000000; stroke-width: 0.8"/>
      </g>
     </g>
     <g id="text_26">
      <!-- −0.5 -->
      <g transform="translate(111.793494 554.784375) scale(0.12 -0.12)">
       <use xlink:href="#DejaVuSerif-2212"/>
       <use xlink:href="#DejaVuSerif-30" transform="translate(83.789062 0)"/>
       <use xlink:href="#DejaVuSerif-2e" transform="translate(147.412109 0)"/>
       <use xlink:href="#DejaVuSerif-35" transform="translate(179.199219 0)"/>
      </g>
     </g>
    </g>
    <g id="xtick_13">
     <g id="line2d_27">
      <g>
       <use xlink:href="#m4da9b7c37f" x="195.549687" y="538.66625" style="fill-opacity: 0; stroke: #000000; stroke-width: 0.8"/>
      </g>
     </g>
     <g id="text_27">
      <!-- 0.0 -->
      <g transform="translate(186.007812 554.784375) scale(0.12 -0.12)">
       <use xlink:href="#DejaVuSerif-30"/>
       <use xlink:href="#DejaVuSerif-2e" transform="translate(63.623047 0)"/>
       <use xlink:href="#DejaVuSerif-30" transform="translate(95.410156 0)"/>
      </g>
     </g>
    </g>
    <g id="xtick_14">
     <g id="line2d_28">
      <g>
       <use xlink:href="#m4da9b7c37f" x="264.736193" y="538.66625" style="fill-opacity: 0; stroke: #000000; stroke-width: 0.8"/>
      </g>
     </g>
     <g id="text_28">
      <!-- 0.5 -->
      <g transform="translate(255.194318 554.784375) scale(0.12 -0.12)">
       <use xlink:href="#DejaVuSerif-30"/>
       <use xlink:href="#DejaVuSerif-2e" transform="translate(63.623047 0)"/>
       <use xlink:href="#DejaVuSerif-35" transform="translate(95.410156 0)"/>
      </g>
     </g>
    </g>
    <g id="xtick_15">
     <g id="line2d_29">
      <g>
       <use xlink:href="#m4da9b7c37f" x="333.922699" y="538.66625" style="fill-opacity: 0; stroke: #000000; stroke-width: 0.8"/>
      </g>
     </g>
     <g id="text_29">
      <!-- 1.0 -->
      <g transform="translate(324.380824 554.784375) scale(0.12 -0.12)">
       <use xlink:href="#DejaVuSerif-31"/>
       <use xlink:href="#DejaVuSerif-2e" transform="translate(63.623047 0)"/>
       <use xlink:href="#DejaVuSerif-30" transform="translate(95.410156 0)"/>
      </g>
     </g>
    </g>
   </g>
   <g id="matplotlib.axis_6">
    <g id="ytick_13">
     <g id="line2d_30">
      <g>
       <use xlink:href="#m4a9680a4f5" x="43.339375" y="523.874231" style="fill-opacity: 0; stroke: #000000; stroke-width: 0.8"/>
      </g>
     </g>
     <g id="text_30">
      <!-- −0.4 -->
      <g transform="translate(7.2 528.433293) scale(0.12 -0.12)">
       <use xlink:href="#DejaVuSerif-2212"/>
       <use xlink:href="#DejaVuSerif-30" transform="translate(83.789062 0)"/>
       <use xlink:href="#DejaVuSerif-2e" transform="translate(147.412109 0)"/>
       <use xlink:href="#DejaVuSerif-34" transform="translate(179.199219 0)"/>
      </g>
     </g>
    </g>
    <g id="ytick_14">
     <g id="line2d_31">
      <g>
       <use xlink:href="#m4a9680a4f5" x="43.339375" y="479.447075" style="fill-opacity: 0; stroke: #000000; stroke-width: 0.8"/>
      </g>
     </g>
     <g id="text_31">
      <!-- −0.2 -->
      <g transform="translate(7.2 484.006137) scale(0.12 -0.12)">
       <use xlink:href="#DejaVuSerif-2212"/>
       <use xlink:href="#DejaVuSerif-30" transform="translate(83.789062 0)"/>
       <use xlink:href="#DejaVuSerif-2e" transform="translate(147.412109 0)"/>
       <use xlink:href="#DejaVuSerif-32" transform="translate(179.199219 0)"/>
      </g>
     </g>
    </g>
    <g id="ytick_15">
     <g id="line2d_32">
      <g>
       <use xlink:href="#m4a9680a4f5" x="43.339375" y="435.019919" style="fill-opacity: 0; stroke: #000000; stroke-width: 0.8"/>
      </g>
     </g>
     <g id="text_32">
      <!-- 0.0 -->
      <g transform="translate(17.255625 439.578981) scale(0.12 -0.12)">
       <use xlink:href="#DejaVuSerif-30"/>
       <use xlink:href="#DejaVuSerif-2e" transform="translate(63.623047 0)"/>
       <use xlink:href="#DejaVuSerif-30" transform="translate(95.410156 0)"/>
      </g>
     </g>
    </g>
    <g id="ytick_16">
     <g id="line2d_33">
      <g>
       <use xlink:href="#m4a9680a4f5" x="43.339375" y="390.592763" style="fill-opacity: 0; stroke: #000000; stroke-width: 0.8"/>
      </g>
     </g>
     <g id="text_33">
      <!-- 0.2 -->
      <g transform="translate(17.255625 395.151826) scale(0.12 -0.12)">
       <use xlink:href="#DejaVuSerif-30"/>
       <use xlink:href="#DejaVuSerif-2e" transform="translate(63.623047 0)"/>
       <use xlink:href="#DejaVuSerif-32" transform="translate(95.410156 0)"/>
      </g>
     </g>
    </g>
    <g id="ytick_17">
     <g id="line2d_34">
      <g>
       <use xlink:href="#m4a9680a4f5" x="43.339375" y="346.165607" style="fill-opacity: 0; stroke: #000000; stroke-width: 0.8"/>
      </g>
     </g>
     <g id="text_34">
      <!-- 0.4 -->
      <g transform="translate(17.255625 350.72467) scale(0.12 -0.12)">
       <use xlink:href="#DejaVuSerif-30"/>
       <use xlink:href="#DejaVuSerif-2e" transform="translate(63.623047 0)"/>
       <use xlink:href="#DejaVuSerif-34" transform="translate(95.410156 0)"/>
      </g>
     </g>
    </g>
   </g>
   <g id="line2d_35">
    <path d="M 57.176676 435.019919 
L 59.958043 402.528911 
L 61.348727 388.302919 
L 62.73941 376.360857 
L 64.130094 367.257448 
L 65.520777 361.399413 
L 66.911461 359.030486 
L 68.302144 360.224879 
L 69.692828 364.889113 
L 71.083511 372.771689 
L 72.474195 383.479749 
L 73.864879 396.50157 
L 76.646246 427.010132 
L 79.427613 458.914194 
L 80.818296 473.68248 
L 82.20898 486.834266 
L 83.599663 497.845293 
L 84.990347 506.291965 
L 86.38103 511.865199 
L 87.771714 514.37885 
L 89.162397 513.772688 
L 90.553081 510.1101 
L 91.943764 503.570942 
L 93.334448 494.440114 
L 94.725131 483.09258 
L 96.115815 469.975645 
L 98.897182 440.466003 
L 101.678549 410.17437 
L 103.069233 396.049329 
L 104.459916 383.23838 
L 105.8506 372.147806 
L 107.241283 363.114636 
L 108.631967 356.398377 
L 110.02265 352.175907 
L 111.413334 350.539456 
L 112.804017 351.497558 
L 114.194701 354.978714 
L 115.585384 360.837447 
L 116.976068 368.86238 
L 118.366752 378.785905 
L 119.757435 390.295016 
L 122.538802 416.660515 
L 128.101536 472.321344 
L 129.49222 484.769213 
L 130.882903 496.017827 
L 132.273587 505.826609 
L 133.66427 513.999647 
L 135.054954 520.387942 
L 136.445637 524.890214 
L 137.836321 527.452379 
L 139.227004 528.06583 
L 140.617688 526.764657 
L 142.008372 523.62201 
L 143.399055 518.745754 
L 144.789739 512.273613 
L 146.180422 504.36798 
L 147.571106 495.21056 
L 148.961789 484.997 
L 151.743156 462.222603 
L 160.087257 389.5031 
L 162.868625 368.349122 
L 164.259308 358.918995 
L 165.649992 350.358725 
L 167.040675 342.723312 
L 168.431359 336.049418 
L 169.822042 330.356413 
L 171.212726 325.647651 
L 172.603409 321.911934 
L 173.994093 319.125111 
L 175.384776 317.251742 
L 176.77546 316.24681 
L 178.166143 316.05742 
L 179.556827 316.624463 
L 180.94751 317.884197 
L 182.338194 319.769751 
L 183.728877 322.212495 
L 185.119561 325.1433 
L 186.510245 328.493646 
L 189.291612 336.187635 
L 192.072979 344.791895 
L 203.198447 380.464384 
L 205.979814 388.359267 
L 208.761181 395.545938 
L 211.542548 401.97258 
L 214.323915 407.628127 
L 217.105282 412.532725 
L 219.886649 416.72897 
L 222.668016 420.274268 
L 225.449383 423.234464 
L 228.23075 425.678766 
L 231.012118 427.675901 
L 233.793485 429.291362 
L 236.574852 430.585603 
L 239.356219 431.612989 
L 242.137586 432.421351 
L 244.918953 433.051972 
L 249.091003 433.739694 
L 253.263054 434.199613 
L 258.825788 434.576996 
L 265.779206 434.822019 
L 276.904674 434.969461 
L 303.327661 435.018539 
L 333.922699 435.019919 
L 333.922699 435.019919 
" clip-path="url(#p3ba30f1a33)" style="fill: none; stroke: #1f77b4; stroke-width: 1.5; stroke-linecap: square"/>
   </g>
   <g id="patch_13">
    <path d="M 43.339375 538.66625 
L 43.339375 305.457 
" style="fill: none; stroke: #000000; stroke-width: 0.8; stroke-linejoin: miter; stroke-linecap: square"/>
   </g>
   <g id="patch_14">
    <path d="M 347.76 538.66625 
L 347.76 305.457 
" style="fill: none; stroke: #000000; stroke-width: 0.8; stroke-linejoin: miter; stroke-linecap: square"/>
   </g>
   <g id="patch_15">
    <path d="M 43.339375 538.66625 
L 347.76 538.66625 
" style="fill: none; stroke: #000000; stroke-width: 0.8; stroke-linejoin: miter; stroke-linecap: square"/>
   </g>
   <g id="patch_16">
    <path d="M 43.339375 305.457 
L 347.76 305.457 
" style="fill: none; stroke: #000000; stroke-width: 0.8; stroke-linejoin: miter; stroke-linecap: square"/>
   </g>
   <g id="text_35">
    <!-- N = 36,   eig =  501.3483797471 -->
    <g transform="translate(74.411937 299.457) scale(0.144 -0.144)">
     <use xlink:href="#DejaVuSerif-4e"/>
     <use xlink:href="#DejaVuSerif-20" transform="translate(87.5 0)"/>
     <use xlink:href="#DejaVuSerif-3d" transform="translate(119.287109 0)"/>
     <use xlink:href="#DejaVuSerif-20" transform="translate(203.076172 0)"/>
     <use xlink:href="#DejaVuSerif-33" transform="translate(234.863281 0)"/>
     <use xlink:href="#DejaVuSerif-36" transform="translate(298.486328 0)"/>
     <use xlink:href="#DejaVuSerif-2c" transform="translate(362.109375 0)"/>
     <use xlink:href="#DejaVuSerif-20" transform="translate(393.896484 0)"/>
     <use xlink:href="#DejaVuSerif-20" transform="translate(425.683594 0)"/>
     <use xlink:href="#DejaVuSerif-20" transform="translate(457.470703 0)"/>
     <use xlink:href="#DejaVuSerif-65" transform="translate(489.257812 0)"/>
     <use xlink:href="#DejaVuSerif-69" transform="translate(548.4375 0)"/>
     <use xlink:href="#DejaVuSerif-67" transform="translate(580.419922 0)"/>
     <use xlink:href="#DejaVuSerif-20" transform="translate(644.433594 0)"/>
     <use xlink:href="#DejaVuSerif-3d" transform="translate(676.220703 0)"/>
     <use xlink:href="#DejaVuSerif-20" transform="translate(760.009766 0)"/>
     <use xlink:href="#DejaVuSerif-20" transform="translate(791.796875 0)"/>
     <use xlink:href="#DejaVuSerif-35" transform="translate(823.583984 0)"/>
     <use xlink:href="#DejaVuSerif-30" transform="translate(887.207031 0)"/>
     <use xlink:href="#DejaVuSerif-31" transform="translate(950.830078 0)"/>
     <use xlink:href="#DejaVuSerif-2e" transform="translate(1014.453125 0)"/>
     <use xlink:href="#DejaVuSerif-33" transform="translate(1046.240234 0)"/>
     <use xlink:href="#DejaVuSerif-34" transform="translate(1109.863281 0)"/>
     <use xlink:href="#DejaVuSerif-38" transform="translate(1173.486328 0)"/>
     <use xlink:href="#DejaVuSerif-33" transform="translate(1237.109375 0)"/>
     <use xlink:href="#DejaVuSerif-37" transform="translate(1300.732422 0)"/>
     <use xlink:href="#DejaVuSerif-39" transform="translate(1364.355469 0)"/>
     <use xlink:href="#DejaVuSerif-37" transform="translate(1427.978516 0)"/>
     <use xlink:href="#DejaVuSerif-34" transform="translate(1491.601562 0)"/>
     <use xlink:href="#DejaVuSerif-37" transform="translate(1555.224609 0)"/>
     <use xlink:href="#DejaVuSerif-31" transform="translate(1618.847656 0)"/>
    </g>
   </g>
  </g>
  <g id="axes_4">
   <g id="patch_17">
    <path d="M 396.859375 538.66625 
L 701.28 538.66625 
L 701.28 305.457 
L 396.859375 305.457 
z
" style="fill: #ffffff"/>
   </g>
   <g id="matplotlib.axis_7">
    <g id="xtick_16">
     <g id="line2d_36">
      <g>
       <use xlink:href="#m4da9b7c37f" x="410.696676" y="538.66625" style="fill-opacity: 0; stroke: #000000; stroke-width: 0.8"/>
      </g>
     </g>
     <g id="text_36">
      <!-- −1.0 -->
      <g transform="translate(396.126989 554.784375) scale(0.12 -0.12)">
       <use xlink:href="#DejaVuSerif-2212"/>
       <use xlink:href="#DejaVuSerif-31" transform="translate(83.789062 0)"/>
       <use xlink:href="#DejaVuSerif-2e" transform="translate(147.412109 0)"/>
       <use xlink:href="#DejaVuSerif-30" transform="translate(179.199219 0)"/>
      </g>
     </g>
    </g>
    <g id="xtick_17">
     <g id="line2d_37">
      <g>
       <use xlink:href="#m4da9b7c37f" x="479.883182" y="538.66625" style="fill-opacity: 0; stroke: #000000; stroke-width: 0.8"/>
      </g>
     </g>
     <g id="text_37">
      <!-- −0.5 -->
      <g transform="translate(465.313494 554.784375) scale(0.12 -0.12)">
       <use xlink:href="#DejaVuSerif-2212"/>
       <use xlink:href="#DejaVuSerif-30" transform="translate(83.789062 0)"/>
       <use xlink:href="#DejaVuSerif-2e" transform="translate(147.412109 0)"/>
       <use xlink:href="#DejaVuSerif-35" transform="translate(179.199219 0)"/>
      </g>
     </g>
    </g>
    <g id="xtick_18">
     <g id="line2d_38">
      <g>
       <use xlink:href="#m4da9b7c37f" x="549.069687" y="538.66625" style="fill-opacity: 0; stroke: #000000; stroke-width: 0.8"/>
      </g>
     </g>
     <g id="text_38">
      <!-- 0.0 -->
      <g transform="translate(539.527812 554.784375) scale(0.12 -0.12)">
       <use xlink:href="#DejaVuSerif-30"/>
       <use xlink:href="#DejaVuSerif-2e" transform="translate(63.623047 0)"/>
       <use xlink:href="#DejaVuSerif-30" transform="translate(95.410156 0)"/>
      </g>
     </g>
    </g>
    <g id="xtick_19">
     <g id="line2d_39">
      <g>
       <use xlink:href="#m4da9b7c37f" x="618.256193" y="538.66625" style="fill-opacity: 0; stroke: #000000; stroke-width: 0.8"/>
      </g>
     </g>
     <g id="text_39">
      <!-- 0.5 -->
      <g transform="translate(608.714318 554.784375) scale(0.12 -0.12)">
       <use xlink:href="#DejaVuSerif-30"/>
       <use xlink:href="#DejaVuSerif-2e" transform="translate(63.623047 0)"/>
       <use xlink:href="#DejaVuSerif-35" transform="translate(95.410156 0)"/>
      </g>
     </g>
    </g>
    <g id="xtick_20">
     <g id="line2d_40">
      <g>
       <use xlink:href="#m4da9b7c37f" x="687.442699" y="538.66625" style="fill-opacity: 0; stroke: #000000; stroke-width: 0.8"/>
      </g>
     </g>
     <g id="text_40">
      <!-- 1.0 -->
      <g transform="translate(677.900824 554.784375) scale(0.12 -0.12)">
       <use xlink:href="#DejaVuSerif-31"/>
       <use xlink:href="#DejaVuSerif-2e" transform="translate(63.623047 0)"/>
       <use xlink:href="#DejaVuSerif-30" transform="translate(95.410156 0)"/>
      </g>
     </g>
    </g>
   </g>
   <g id="matplotlib.axis_8">
    <g id="ytick_18">
     <g id="line2d_41">
      <g>
       <use xlink:href="#m4a9680a4f5" x="396.859375" y="523.874231" style="fill-opacity: 0; stroke: #000000; stroke-width: 0.8"/>
      </g>
     </g>
     <g id="text_41">
      <!-- −0.4 -->
      <g transform="translate(360.72 528.433293) scale(0.12 -0.12)">
       <use xlink:href="#DejaVuSerif-2212"/>
       <use xlink:href="#DejaVuSerif-30" transform="translate(83.789062 0)"/>
       <use xlink:href="#DejaVuSerif-2e" transform="translate(147.412109 0)"/>
       <use xlink:href="#DejaVuSerif-34" transform="translate(179.199219 0)"/>
      </g>
     </g>
    </g>
    <g id="ytick_19">
     <g id="line2d_42">
      <g>
       <use xlink:href="#m4a9680a4f5" x="396.859375" y="479.447075" style="fill-opacity: 0; stroke: #000000; stroke-width: 0.8"/>
      </g>
     </g>
     <g id="text_42">
      <!-- −0.2 -->
      <g transform="translate(360.72 484.006137) scale(0.12 -0.12)">
       <use xlink:href="#DejaVuSerif-2212"/>
       <use xlink:href="#DejaVuSerif-30" transform="translate(83.789062 0)"/>
       <use xlink:href="#DejaVuSerif-2e" transform="translate(147.412109 0)"/>
       <use xlink:href="#DejaVuSerif-32" transform="translate(179.199219 0)"/>
      </g>
     </g>
    </g>
    <g id="ytick_20">
     <g id="line2d_43">
      <g>
       <use xlink:href="#m4a9680a4f5" x="396.859375" y="435.019919" style="fill-opacity: 0; stroke: #000000; stroke-width: 0.8"/>
      </g>
     </g>
     <g id="text_43">
      <!-- 0.0 -->
      <g transform="translate(370.775625 439.578982) scale(0.12 -0.12)">
       <use xlink:href="#DejaVuSerif-30"/>
       <use xlink:href="#DejaVuSerif-2e" transform="translate(63.623047 0)"/>
       <use xlink:href="#DejaVuSerif-30" transform="translate(95.410156 0)"/>
      </g>
     </g>
    </g>
    <g id="ytick_21">
     <g id="line2d_44">
      <g>
       <use xlink:href="#m4a9680a4f5" x="396.859375" y="390.592763" style="fill-opacity: 0; stroke: #000000; stroke-width: 0.8"/>
      </g>
     </g>
     <g id="text_44">
      <!-- 0.2 -->
      <g transform="translate(370.775625 395.151826) scale(0.12 -0.12)">
       <use xlink:href="#DejaVuSerif-30"/>
       <use xlink:href="#DejaVuSerif-2e" transform="translate(63.623047 0)"/>
       <use xlink:href="#DejaVuSerif-32" transform="translate(95.410156 0)"/>
      </g>
     </g>
    </g>
    <g id="ytick_22">
     <g id="line2d_45">
      <g>
       <use xlink:href="#m4a9680a4f5" x="396.859375" y="346.165608" style="fill-opacity: 0; stroke: #000000; stroke-width: 0.8"/>
      </g>
     </g>
     <g id="text_45">
      <!-- 0.4 -->
      <g transform="translate(370.775625 350.72467) scale(0.12 -0.12)">
       <use xlink:href="#DejaVuSerif-30"/>
       <use xlink:href="#DejaVuSerif-2e" transform="translate(63.623047 0)"/>
       <use xlink:href="#DejaVuSerif-34" transform="translate(95.410156 0)"/>
      </g>
     </g>
    </g>
   </g>
   <g id="line2d_46">
    <path d="M 410.696676 435.019919 
L 413.478043 402.528911 
L 414.868727 388.302919 
L 416.25941 376.360857 
L 417.650094 367.257448 
L 419.040777 361.399413 
L 420.431461 359.030487 
L 421.822144 360.22488 
L 423.212828 364.889113 
L 424.603511 372.771689 
L 425.994195 383.479749 
L 427.384879 396.50157 
L 430.166246 427.010133 
L 432.947613 458.914194 
L 434.338296 473.682481 
L 435.72898 486.834267 
L 437.119663 497.845292 
L 438.510347 506.291964 
L 439.90103 511.865198 
L 441.291714 514.37885 
L 442.682397 513.772688 
L 444.073081 510.1101 
L 445.463764 503.570942 
L 446.854448 494.440114 
L 448.245131 483.09258 
L 449.635815 469.975645 
L 452.417182 440.466003 
L 455.198549 410.17437 
L 456.589233 396.049329 
L 457.979916 383.23838 
L 459.3706 372.147806 
L 460.761283 363.114636 
L 462.151967 356.398378 
L 463.54265 352.175908 
L 464.933334 350.539457 
L 466.324017 351.497559 
L 467.714701 354.978715 
L 469.105384 360.837448 
L 470.496068 368.862381 
L 471.886752 378.785906 
L 473.277435 390.295016 
L 476.058802 416.660515 
L 481.621536 472.321344 
L 483.01222 484.769213 
L 484.402903 496.017827 
L 485.793587 505.826609 
L 487.18427 513.999647 
L 488.574954 520.387942 
L 489.965637 524.890214 
L 491.356321 527.452379 
L 492.747004 528.06583 
L 494.137688 526.764657 
L 495.528372 523.62201 
L 496.919055 518.745754 
L 498.309739 512.273613 
L 499.700422 504.36798 
L 501.091106 495.21056 
L 502.481789 484.997 
L 505.263156 462.222603 
L 513.607257 389.503101 
L 516.388625 368.349123 
L 517.779308 358.918996 
L 519.169992 350.358726 
L 520.560675 342.723313 
L 521.951359 336.049419 
L 523.342042 330.356414 
L 524.732726 325.647651 
L 526.123409 321.911935 
L 527.514093 319.125111 
L 528.904776 317.251742 
L 530.29546 316.24681 
L 531.686143 316.05742 
L 533.076827 316.624463 
L 534.46751 317.884198 
L 535.858194 319.769751 
L 537.248877 322.212496 
L 538.639561 325.143301 
L 540.030245 328.493648 
L 542.811612 336.187636 
L 545.592979 344.791897 
L 556.718447 380.464383 
L 559.499814 388.359267 
L 562.281181 395.545939 
L 565.062548 401.972581 
L 567.843915 407.628129 
L 570.625282 412.532726 
L 573.406649 416.72897 
L 576.188016 420.274267 
L 578.969383 423.234463 
L 581.75075 425.678766 
L 584.532118 427.675901 
L 587.313485 429.291363 
L 590.094852 430.585604 
L 592.876219 431.61299 
L 595.657586 432.421352 
L 598.438953 433.051972 
L 602.611003 433.739693 
L 606.783054 434.199613 
L 612.345788 434.576997 
L 619.299206 434.822019 
L 630.424674 434.969461 
L 656.847661 435.018539 
L 687.442699 435.019919 
L 687.442699 435.019919 
" clip-path="url(#pc85e25fdc1)" style="fill: none; stroke: #1f77b4; stroke-width: 1.5; stroke-linecap: square"/>
   </g>
   <g id="patch_18">
    <path d="M 396.859375 538.66625 
L 396.859375 305.457 
" style="fill: none; stroke: #000000; stroke-width: 0.8; stroke-linejoin: miter; stroke-linecap: square"/>
   </g>
   <g id="patch_19">
    <path d="M 701.28 538.66625 
L 701.28 305.457 
" style="fill: none; stroke: #000000; stroke-width: 0.8; stroke-linejoin: miter; stroke-linecap: square"/>
   </g>
   <g id="patch_20">
    <path d="M 396.859375 538.66625 
L 701.28 538.66625 
" style="fill: none; stroke: #000000; stroke-width: 0.8; stroke-linejoin: miter; stroke-linecap: square"/>
   </g>
   <g id="patch_21">
    <path d="M 396.859375 305.457 
L 701.28 305.457 
" style="fill: none; stroke: #000000; stroke-width: 0.8; stroke-linejoin: miter; stroke-linecap: square"/>
   </g>
   <g id="text_46">
    <!-- N = 48,   eig =  501.3483797111 -->
    <g transform="translate(427.931938 299.457) scale(0.144 -0.144)">
     <use xlink:href="#DejaVuSerif-4e"/>
     <use xlink:href="#DejaVuSerif-20" transform="translate(87.5 0)"/>
     <use xlink:href="#DejaVuSerif-3d" transform="translate(119.287109 0)"/>
     <use xlink:href="#DejaVuSerif-20" transform="translate(203.076172 0)"/>
     <use xlink:href="#DejaVuSerif-34" transform="translate(234.863281 0)"/>
     <use xlink:href="#DejaVuSerif-38" transform="translate(298.486328 0)"/>
     <use xlink:href="#DejaVuSerif-2c" transform="translate(362.109375 0)"/>
     <use xlink:href="#DejaVuSerif-20" transform="translate(393.896484 0)"/>
     <use xlink:href="#DejaVuSerif-20" transform="translate(425.683594 0)"/>
     <use xlink:href="#DejaVuSerif-20" transform="translate(457.470703 0)"/>
     <use xlink:href="#DejaVuSerif-65" transform="translate(489.257812 0)"/>
     <use xlink:href="#DejaVuSerif-69" transform="translate(548.4375 0)"/>
     <use xlink:href="#DejaVuSerif-67" transform="translate(580.419922 0)"/>
     <use xlink:href="#DejaVuSerif-20" transform="translate(644.433594 0)"/>
     <use xlink:href="#DejaVuSerif-3d" transform="translate(676.220703 0)"/>
     <use xlink:href="#DejaVuSerif-20" transform="translate(760.009766 0)"/>
     <use xlink:href="#DejaVuSerif-20" transform="translate(791.796875 0)"/>
     <use xlink:href="#DejaVuSerif-35" transform="translate(823.583984 0)"/>
     <use xlink:href="#DejaVuSerif-30" transform="translate(887.207031 0)"/>
     <use xlink:href="#DejaVuSerif-31" transform="translate(950.830078 0)"/>
     <use xlink:href="#DejaVuSerif-2e" transform="translate(1014.453125 0)"/>
     <use xlink:href="#DejaVuSerif-33" transform="translate(1046.240234 0)"/>
     <use xlink:href="#DejaVuSerif-34" transform="translate(1109.863281 0)"/>
     <use xlink:href="#DejaVuSerif-38" transform="translate(1173.486328 0)"/>
     <use xlink:href="#DejaVuSerif-33" transform="translate(1237.109375 0)"/>
     <use xlink:href="#DejaVuSerif-37" transform="translate(1300.732422 0)"/>
     <use xlink:href="#DejaVuSerif-39" transform="translate(1364.355469 0)"/>
     <use xlink:href="#DejaVuSerif-37" transform="translate(1427.978516 0)"/>
     <use xlink:href="#DejaVuSerif-31" transform="translate(1491.601562 0)"/>
     <use xlink:href="#DejaVuSerif-31" transform="translate(1555.224609 0)"/>
     <use xlink:href="#DejaVuSerif-31" transform="translate(1618.847656 0)"/>
    </g>
   </g>
  </g>
 </g>
 <defs>
  <clipPath id="p7bc5fa4ff6">
   <rect x="43.339375" y="23.937" width="304.420625" height="233.20925"/>
  </clipPath>
  <clipPath id="pce9613090f">
   <rect x="396.859375" y="23.937" width="304.420625" height="233.20925"/>
  </clipPath>
  <clipPath id="p3ba30f1a33">
   <rect x="43.339375" y="305.457" width="304.420625" height="233.20925"/>
  </clipPath>
  <clipPath id="pc85e25fdc1">
   <rect x="396.859375" y="305.457" width="304.420625" height="233.20925"/>
  </clipPath>
 </defs>
</svg>