<?xml version="1.0" encoding="utf-8" standalone="no"?>
<!DOCTYPE svg PUBLIC "-//W3C//DTD SVG 1.1//EN"
  "http://www.w3.org/Graphics/SVG/1.1/DTD/svg11.dtd">
<svg xmlns:xlink="http://www.w3.org/1999/xlink" width="568.8pt" height="568.8pt" viewBox="0 0 568.8 568.8" xmlns="http://www.w3.org/2000/svg" version="1.1">
 <metadata>
  <rdf:RDF xmlns:dc="http://purl.org/dc/elements/1.1/" xmlns:cc="http://creativecommons.org/ns#" xmlns:rdf="http://www.w3.org/1999/02/22-rdf-syntax-ns#">
   <cc:Work>
    <dc:type rdf:resource="http://purl.org/dc/dcmitype/StillImage"/>
    <dc:date>2026-01-16T13:45:18.273382</dc:date>
    <dc:format>image/svg+xml</dc:format>
    <dc:creator>
     <cc:Agent>
      <dc:title>Matplotlib v3.10.5, https://matplotlib.org/</dc:title>
     </cc:Agent>
    </dc:creator>
   </cc:Work>
  </rdf:RDF>
 </metadata>
 <defs>
  <style type="text/css">*{stroke-linejoin: round; stroke-linecap: butt}</style>
 </defs>
 <g id="figure_1">
  <g id="patch_1">
   <path d="M 0 568.8 
L 568.8 568.8 
L 568.8 0 
L 0 0 
z
" style="fill: #ffffff"/>
  </g>
  <g id="patch_2">
   <path d="M 7.2 561.6 
L 561.6 561.6 
L 561.6 7.2 
L 7.2 7.2 
z
" style="fill: #ffffff"/>
  </g>
  <g id="pane3d_1">
   <g id="patch_3">
    <path d="M 520.053232 381.050469 
L 373.464831 78.157157 
L 380.861057 12.22549 
L 541.148187 341.824335 
" style="fill: #f2f2f2; opacity: 0.5; stroke: #f2f2f2; stroke-linejoin: miter"/>
   </g>
  </g>
  <g id="pane3d_2">
   <g id="patch_4">
    <path d="M 65.90545 218.052274 
L 373.464831 78.157157 
L 380.861057 12.22549 
L 45.228967 164.320852 
" style="fill: #e6e6e6; opacity: 0.5; stroke: #e6e6e6; stroke-linejoin: miter"/>
   </g>
  </g>
  <g id="pane3d_3">
   <g id="patch_5">
    <path d="M 208.143727 526.058288 
L 520.053232 381.050469 
L 373.464831 78.157157 
L 65.90545 218.052274 
" style="fill: #ececec; opacity: 0.5; stroke: #ececec; stroke-linejoin: miter"/>
   </g>
  </g>
  <g id="grid3d_1">
   <g id="Line3DCollection_1">
    <path d="M 215.230913 522.76343 
L 72.892768 214.874053 
L 52.859689 160.862907 
" style="fill: none; stroke: #b0b0b0; stroke-width: 0.8"/>
    <path d="M 265.207259 499.529252 
L 122.166226 192.461743 
L 106.662893 136.481395 
" style="fill: none; stroke: #b0b0b0; stroke-width: 0.8"/>
    <path d="M 315.04909 476.357611 
L 171.309425 170.108682 
L 160.31089 112.170217 
" style="fill: none; stroke: #b0b0b0; stroke-width: 0.8"/>
    <path d="M 364.756951 453.248253 
L 220.32288 147.814636 
L 213.804348 87.92907 
" style="fill: none; stroke: #b0b0b0; stroke-width: 0.8"/>
    <path d="M 414.331379 430.200928 
L 269.207103 125.579372 
L 267.143936 63.75765 
" style="fill: none; stroke: #b0b0b0; stroke-width: 0.8"/>
    <path d="M 463.772912 407.215387 
L 317.962607 103.402656 
L 320.330316 39.655659 
" style="fill: none; stroke: #b0b0b0; stroke-width: 0.8"/>
    <path d="M 513.082083 384.291381 
L 366.589897 81.284259 
L 373.364148 15.622797 
" style="fill: none; stroke: #b0b0b0; stroke-width: 0.8"/>
   </g>
  </g>
  <g id="grid3d_2">
   <g id="Line3DCollection_2">
    <path d="M 541.148187 341.824335 
L 520.053232 381.050469 
L 208.143727 526.058288 
" style="fill: none; stroke: #b0b0b0; stroke-width: 0.8"/>
    <path d="M 513.996534 285.992319 
L 495.255791 329.811906 
L 184.079166 473.948338 
" style="fill: none; stroke: #b0b0b0; stroke-width: 0.8"/>
    <path d="M 487.022015 230.524545 
L 470.606516 278.879496 
L 160.159605 422.152373 
" style="fill: none; stroke: #b0b0b0; stroke-width: 0.8"/>
    <path d="M 460.222902 175.417459 
L 446.104083 228.250503 
L 136.383736 370.667563 
" style="fill: none; stroke: #b0b0b0; stroke-width: 0.8"/>
    <path d="M 433.59749 120.667555 
L 421.747184 177.922225 
L 112.750268 319.491112 
" style="fill: none; stroke: #b0b0b0; stroke-width: 0.8"/>
    <path d="M 407.144096 66.271371 
L 397.534526 127.891989 
L 89.257926 268.620259 
" style="fill: none; stroke: #b0b0b0; stroke-width: 0.8"/>
    <path d="M 380.861057 12.22549 
L 373.464831 78.157157 
L 65.90545 218.052274 
" style="fill: none; stroke: #b0b0b0; stroke-width: 0.8"/>
   </g>
  </g>
  <g id="grid3d_3">
   <g id="Line3DCollection_3">
    <path d="M 65.90545 218.052274 
L 373.464831 78.157157 
L 520.053232 381.050469 
" style="fill: none; stroke: #b0b0b0; stroke-width: 0.8"/>
    <path d="M 63.512467 211.833691 
L 374.321402 70.521485 
L 522.492747 376.514184 
" style="fill: none; stroke: #b0b0b0; stroke-width: 0.8"/>
    <path d="M 61.068261 205.482 
L 375.196153 62.723751 
L 524.984992 371.879847 
" style="fill: none; stroke: #b0b0b0; stroke-width: 0.8"/>
    <path d="M 58.571172 198.992882 
L 376.08967 54.758742 
L 527.531696 367.144243 
" style="fill: none; stroke: #b0b0b0; stroke-width: 0.8"/>
    <path d="M 56.019465 192.361828 
L 377.002561 46.621016 
L 530.134664 362.304016 
" style="fill: none; stroke: #b0b0b0; stroke-width: 0.8"/>
    <path d="M 53.411327 185.58413 
L 377.935465 38.304893 
L 532.795781 357.355661 
" style="fill: none; stroke: #b0b0b0; stroke-width: 0.8"/>
    <path d="M 50.744865 178.654867 
L 378.889047 29.804443 
L 535.517017 352.295513 
" style="fill: none; stroke: #b0b0b0; stroke-width: 0.8"/>
    <path d="M 48.018102 171.5689 
L 379.864002 21.113468 
L 538.300434 347.119741 
" style="fill: none; stroke: #b0b0b0; stroke-width: 0.8"/>
    <path d="M 45.228967 164.320852 
L 380.861057 12.22549 
L 541.148187 341.824335 
" style="fill: none; stroke: #b0b0b0; stroke-width: 0.8"/>
   </g>
  </g>
  <g id="axis3d_1">
   <g id="line2d_1">
    <path d="M 520.053232 381.050469 
L 208.143727 526.058288 
" style="fill: none; stroke: #000000; stroke-width: 0.8; stroke-linecap: square"/>
   </g>
   <g id="xtick_1">
    <g id="line2d_2">
     <path d="M 214.071672 520.255894 
L 217.550407 527.78069 
" style="fill: none; stroke: #000000; stroke-width: 0.8; stroke-linecap: square"/>
    </g>
    <g id="text_1">
     <!-- −3 -->
     <g transform="translate(213.876217 543.771493) scale(0.1 -0.1)">
      <defs>
       <path id="DejaVuSans-2212" d="M 678 2272 
L 4684 2272 
L 4684 1741 
L 678 1741 
L 678 2272 
z
" transform="scale(0.015625)"/>
       <path id="DejaVuSans-33" d="M 2597 2516 
Q 3050 2419 3304 2112 
Q 3559 1806 3559 1356 
Q 3559 666 3084 287 
Q 2609 -91 1734 -91 
Q 1441 -91 1130 -33 
Q 819 25 488 141 
L 488 750 
Q 750 597 1062 519 
Q 1375 441 1716 441 
Q 2309 441 2620 675 
Q 2931 909 2931 1356 
Q 2931 1769 2642 2001 
Q 2353 2234 1838 2234 
L 1294 2234 
L 1294 2753 
L 1863 2753 
Q 2328 2753 2575 2939 
Q 2822 3125 2822 3475 
Q 2822 3834 2567 4026 
Q 2313 4219 1838 4219 
Q 1578 4219 1281 4162 
Q 984 4106 628 3988 
L 628 4550 
Q 988 4650 1302 4700 
Q 1616 4750 1894 4750 
Q 2613 4750 3031 4423 
Q 3450 4097 3450 3541 
Q 3450 3153 3228 2886 
Q 3006 2619 2597 2516 
z
" transform="scale(0.015625)"/>
      </defs>
      <use xlink:href="#DejaVuSans-2212"/>
      <use xlink:href="#DejaVuSans-33" transform="translate(83.789062 0)"/>
     </g>
    </g>
   </g>
   <g id="xtick_2">
    <g id="line2d_3">
     <path d="M 264.042321 497.02847 
L 267.53815 504.532997 
" style="fill: none; stroke: #000000; stroke-width: 0.8; stroke-linecap: square"/>
    </g>
    <g id="text_2">
     <!-- −2 -->
     <g transform="translate(263.711355 520.581182) scale(0.1 -0.1)">
      <defs>
       <path id="DejaVuSans-32" d="M 1228 531 
L 3431 531 
L 3431 0 
L 469 0 
L 469 531 
Q 828 903 1448 1529 
Q 2069 2156 2228 2338 
Q 2531 2678 2651 2914 
Q 2772 3150 2772 3378 
Q 2772 3750 2511 3984 
Q 2250 4219 1831 4219 
Q 1534 4219 1204 4116 
Q 875 4013 500 3803 
L 500 4441 
Q 881 4594 1212 4672 
Q 1544 4750 1819 4750 
Q 2544 4750 2975 4387 
Q 3406 4025 3406 3419 
Q 3406 3131 3298 2873 
Q 3191 2616 2906 2266 
Q 2828 2175 2409 1742 
Q 1991 1309 1228 531 
z
" transform="scale(0.015625)"/>
      </defs>
      <use xlink:href="#DejaVuSans-2212"/>
      <use xlink:href="#DejaVuSans-32" transform="translate(83.789062 0)"/>
     </g>
    </g>
   </g>
   <g id="xtick_3">
    <g id="line2d_4">
     <path d="M 313.878491 473.863554 
L 317.391308 481.347895 
" style="fill: none; stroke: #000000; stroke-width: 0.8; stroke-linecap: square"/>
    </g>
    <g id="text_3">
     <!-- −1 -->
     <g transform="translate(313.412717 497.453122) scale(0.1 -0.1)">
      <defs>
       <path id="DejaVuSans-31" d="M 794 531 
L 1825 531 
L 1825 4091 
L 703 3866 
L 703 4441 
L 1819 4666 
L 2450 4666 
L 2450 531 
L 3481 531 
L 3481 0 
L 794 0 
L 794 531 
z
" transform="scale(0.015625)"/>
      </defs>
      <use xlink:href="#DejaVuSans-2212"/>
      <use xlink:href="#DejaVuSans-31" transform="translate(83.789062 0)"/>
     </g>
    </g>
   </g>
   <g id="xtick_4">
    <g id="line2d_5">
     <path d="M 363.580724 450.760895 
L 367.110427 458.22513 
" style="fill: none; stroke: #000000; stroke-width: 0.8; stroke-linecap: square"/>
    </g>
    <g id="text_4">
     <!-- 0 -->
     <g transform="translate(367.170683 474.387063) scale(0.1 -0.1)">
      <defs>
       <path id="DejaVuSans-30" d="M 2034 4250 
Q 1547 4250 1301 3770 
Q 1056 3291 1056 2328 
Q 1056 1369 1301 889 
Q 1547 409 2034 409 
Q 2525 409 2770 889 
Q 3016 1369 3016 2328 
Q 3016 3291 2770 3770 
Q 2525 4250 2034 4250 
z
M 2034 4750 
Q 2819 4750 3233 4129 
Q 3647 3509 3647 2328 
Q 3647 1150 3233 529 
Q 2819 -91 2034 -91 
Q 1250 -91 836 529 
Q 422 1150 422 2328 
Q 422 3509 836 4129 
Q 1250 4750 2034 4750 
z
" transform="scale(0.015625)"/>
      </defs>
      <use xlink:href="#DejaVuSans-30"/>
     </g>
    </g>
   </g>
   <g id="xtick_5">
    <g id="line2d_6">
     <path d="M 413.149559 427.720242 
L 416.696044 435.164453 
" style="fill: none; stroke: #000000; stroke-width: 0.8; stroke-linecap: square"/>
    </g>
    <g id="text_5">
     <!-- 1 -->
     <g transform="translate(416.606102 451.382757) scale(0.1 -0.1)">
      <use xlink:href="#DejaVuSans-31"/>
     </g>
    </g>
   </g>
   <g id="xtick_6">
    <g id="line2d_7">
     <path d="M 462.585533 404.741346 
L 466.148698 412.165613 
" style="fill: none; stroke: #000000; stroke-width: 0.8; stroke-linecap: square"/>
    </g>
    <g id="text_6">
     <!-- 2 -->
     <g transform="translate(465.909349 428.439956) scale(0.1 -0.1)">
      <use xlink:href="#DejaVuSans-32"/>
     </g>
    </g>
   </g>
   <g id="xtick_7">
    <g id="line2d_8">
     <path d="M 511.88918 381.823959 
L 515.468921 389.228361 
" style="fill: none; stroke: #000000; stroke-width: 0.8; stroke-linecap: square"/>
    </g>
    <g id="text_7">
     <!-- 3 -->
     <g transform="translate(515.080954 405.558414) scale(0.1 -0.1)">
      <use xlink:href="#DejaVuSans-33"/>
     </g>
    </g>
   </g>
   <g id="text_8">
    <!-- x -->
    <g transform="translate(373.922769 485.35171) scale(0.1 -0.1)">
     <defs>
      <path id="DejaVuSans-78" d="M 3513 3500 
L 2247 1797 
L 3578 0 
L 2900 0 
L 1881 1375 
L 863 0 
L 184 0 
L 1544 1831 
L 300 3500 
L 978 3500 
L 1906 2253 
L 2834 3500 
L 3513 3500 
z
" transform="scale(0.015625)"/>
     </defs>
     <use xlink:href="#DejaVuSans-78"/>
    </g>
   </g>
  </g>
  <g id="axis3d_2">
   <g id="line2d_9">
    <path d="M 65.90545 218.052274 
L 208.143727 526.058288 
" style="fill: none; stroke: #000000; stroke-width: 0.8; stroke-linecap: square"/>
   </g>
   <g id="xtick_8">
    <g id="line2d_10">
     <path d="M 210.659993 524.888467 
L 203.110171 528.398405 
" style="fill: none; stroke: #000000; stroke-width: 0.8; stroke-linecap: square"/>
    </g>
    <g id="text_9">
     <!-- 0.000 -->
     <g transform="translate(181.623994 540.409484) scale(0.1 -0.1)">
      <defs>
       <path id="DejaVuSans-2e" d="M 684 794 
L 1344 794 
L 1344 0 
L 684 0 
L 684 794 
z
" transform="scale(0.015625)"/>
      </defs>
      <use xlink:href="#DejaVuSans-30"/>
      <use xlink:href="#DejaVuSans-2e" transform="translate(63.623047 0)"/>
      <use xlink:href="#DejaVuSans-30" transform="translate(95.410156 0)"/>
      <use xlink:href="#DejaVuSans-30" transform="translate(159.033203 0)"/>
      <use xlink:href="#DejaVuSans-30" transform="translate(222.65625 0)"/>
     </g>
    </g>
   </g>
   <g id="xtick_9">
    <g id="line2d_11">
     <path d="M 186.589457 472.785577 
L 179.057567 476.274334 
" style="fill: none; stroke: #000000; stroke-width: 0.8; stroke-linecap: square"/>
    </g>
    <g id="text_10">
     <!-- 0.001 -->
     <g transform="translate(157.669431 488.437758) scale(0.1 -0.1)">
      <use xlink:href="#DejaVuSans-30"/>
      <use xlink:href="#DejaVuSans-2e" transform="translate(63.623047 0)"/>
      <use xlink:href="#DejaVuSans-30" transform="translate(95.410156 0)"/>
      <use xlink:href="#DejaVuSans-30" transform="translate(159.033203 0)"/>
      <use xlink:href="#DejaVuSans-31" transform="translate(222.65625 0)"/>
     </g>
    </g>
   </g>
   <g id="xtick_10">
    <g id="line2d_12">
     <path d="M 162.663946 420.996607 
L 155.14991 424.464374 
" style="fill: none; stroke: #000000; stroke-width: 0.8; stroke-linecap: square"/>
    </g>
    <g id="text_11">
     <!-- 0.002 -->
     <g transform="translate(133.858766 436.778232) scale(0.1 -0.1)">
      <use xlink:href="#DejaVuSans-30"/>
      <use xlink:href="#DejaVuSans-2e" transform="translate(63.623047 0)"/>
      <use xlink:href="#DejaVuSans-30" transform="translate(95.410156 0)"/>
      <use xlink:href="#DejaVuSans-30" transform="translate(159.033203 0)"/>
      <use xlink:href="#DejaVuSans-32" transform="translate(222.65625 0)"/>
     </g>
    </g>
   </g>
   <g id="xtick_11">
    <g id="line2d_13">
     <path d="M 138.882153 369.518729 
L 131.385893 372.965695 
" style="fill: none; stroke: #000000; stroke-width: 0.8; stroke-linecap: square"/>
    </g>
    <g id="text_12">
     <!-- 0.003 -->
     <g transform="translate(110.190707 385.428104) scale(0.1 -0.1)">
      <use xlink:href="#DejaVuSans-30"/>
      <use xlink:href="#DejaVuSans-2e" transform="translate(63.623047 0)"/>
      <use xlink:href="#DejaVuSans-30" transform="translate(95.410156 0)"/>
      <use xlink:href="#DejaVuSans-30" transform="translate(159.033203 0)"/>
      <use xlink:href="#DejaVuSans-33" transform="translate(222.65625 0)"/>
     </g>
    </g>
   </g>
   <g id="xtick_12">
    <g id="line2d_14">
     <path d="M 115.242788 318.349149 
L 107.764226 321.775499 
" style="fill: none; stroke: #000000; stroke-width: 0.8; stroke-linecap: square"/>
    </g>
    <g id="text_13">
     <!-- 0.004 -->
     <g transform="translate(86.663976 334.3846) scale(0.1 -0.1)">
      <defs>
       <path id="DejaVuSans-34" d="M 2419 4116 
L 825 1625 
L 2419 1625 
L 2419 4116 
z
M 2253 4666 
L 3047 4666 
L 3047 1625 
L 3713 1625 
L 3713 1100 
L 3047 1100 
L 3047 0 
L 2419 0 
L 2419 1100 
L 313 1100 
L 313 1709 
L 2253 4666 
z
" transform="scale(0.015625)"/>
      </defs>
      <use xlink:href="#DejaVuSans-30"/>
      <use xlink:href="#DejaVuSans-2e" transform="translate(63.623047 0)"/>
      <use xlink:href="#DejaVuSans-30" transform="translate(95.410156 0)"/>
      <use xlink:href="#DejaVuSans-30" transform="translate(159.033203 0)"/>
      <use xlink:href="#DejaVuSans-34" transform="translate(222.65625 0)"/>
     </g>
    </g>
   </g>
   <g id="xtick_13">
    <g id="line2d_15">
     <path d="M 91.744575 267.485104 
L 84.283633 270.891024 
" style="fill: none; stroke: #000000; stroke-width: 0.8; stroke-linecap: square"/>
    </g>
    <g id="text_14">
     <!-- 0.005 -->
     <g transform="translate(63.277311 283.644984) scale(0.1 -0.1)">
      <defs>
       <path id="DejaVuSans-35" d="M 691 4666 
L 3169 4666 
L 3169 4134 
L 1269 4134 
L 1269 2991 
Q 1406 3038 1543 3061 
Q 1681 3084 1819 3084 
Q 2600 3084 3056 2656 
Q 3513 2228 3513 1497 
Q 3513 744 3044 326 
Q 2575 -91 1722 -91 
Q 1428 -91 1123 -41 
Q 819 9 494 109 
L 494 744 
Q 775 591 1075 516 
Q 1375 441 1709 441 
Q 2250 441 2565 725 
Q 2881 1009 2881 1497 
Q 2881 1984 2565 2268 
Q 2250 2553 1709 2553 
Q 1456 2553 1204 2497 
Q 953 2441 691 2322 
L 691 4666 
z
" transform="scale(0.015625)"/>
      </defs>
      <use xlink:href="#DejaVuSans-30"/>
      <use xlink:href="#DejaVuSans-2e" transform="translate(63.623047 0)"/>
      <use xlink:href="#DejaVuSans-30" transform="translate(95.410156 0)"/>
      <use xlink:href="#DejaVuSans-30" transform="translate(159.033203 0)"/>
      <use xlink:href="#DejaVuSans-35" transform="translate(222.65625 0)"/>
     </g>
    </g>
   </g>
   <g id="xtick_14">
    <g id="line2d_16">
     <path d="M 68.386253 216.923867 
L 60.942854 220.309539 
" style="fill: none; stroke: #000000; stroke-width: 0.8; stroke-linecap: square"/>
    </g>
    <g id="text_15">
     <!-- 0.006 -->
     <g transform="translate(40.029465 233.206549) scale(0.1 -0.1)">
      <defs>
       <path id="DejaVuSans-36" d="M 2113 2584 
Q 1688 2584 1439 2293 
Q 1191 2003 1191 1497 
Q 1191 994 1439 701 
Q 1688 409 2113 409 
Q 2538 409 2786 701 
Q 3034 994 3034 1497 
Q 3034 2003 2786 2293 
Q 2538 2584 2113 2584 
z
M 3366 4563 
L 3366 3988 
Q 3128 4100 2886 4159 
Q 2644 4219 2406 4219 
Q 1781 4219 1451 3797 
Q 1122 3375 1075 2522 
Q 1259 2794 1537 2939 
Q 1816 3084 2150 3084 
Q 2853 3084 3261 2657 
Q 3669 2231 3669 1497 
Q 3669 778 3244 343 
Q 2819 -91 2113 -91 
Q 1303 -91 875 529 
Q 447 1150 447 2328 
Q 447 3434 972 4092 
Q 1497 4750 2381 4750 
Q 2619 4750 2861 4703 
Q 3103 4656 3366 4563 
z
" transform="scale(0.015625)"/>
      </defs>
      <use xlink:href="#DejaVuSans-30"/>
      <use xlink:href="#DejaVuSans-2e" transform="translate(63.623047 0)"/>
      <use xlink:href="#DejaVuSans-30" transform="translate(95.410156 0)"/>
      <use xlink:href="#DejaVuSans-30" transform="translate(159.033203 0)"/>
      <use xlink:href="#DejaVuSans-36" transform="translate(222.65625 0)"/>
     </g>
    </g>
   </g>
   <g id="text_16">
    <!-- t -->
    <g transform="translate(108.691108 388.941639) scale(0.1 -0.1)">
     <defs>
      <path id="DejaVuSans-74" d="M 1172 4494 
L 1172 3500 
L 2356 3500 
L 2356 3053 
L 1172 3053 
L 1172 1153 
Q 1172 725 1289 603 
Q 1406 481 1766 481 
L 2356 481 
L 2356 0 
L 1766 0 
Q 1100 0 847 248 
Q 594 497 594 1153 
L 594 3053 
L 172 3053 
L 172 3500 
L 594 3500 
L 594 4494 
L 1172 4494 
z
" transform="scale(0.015625)"/>
     </defs>
     <use xlink:href="#DejaVuSans-74"/>
    </g>
   </g>
  </g>
  <g id="axis3d_3">
   <g id="line2d_17">
    <path d="M 65.90545 218.052274 
L 45.228967 164.320852 
" style="fill: none; stroke: #000000; stroke-width: 0.8; stroke-linecap: square"/>
   </g>
   <g id="xtick_15">
    <g id="line2d_18">
     <path d="M 68.386253 216.923867 
L 60.942854 220.309539 
" style="fill: none; stroke: #000000; stroke-width: 0.8; stroke-linecap: square"/>
    </g>
    <g id="text_17">
     <!-- 0 -->
     <g transform="translate(44.816141 219.223329) scale(0.1 -0.1)">
      <use xlink:href="#DejaVuSans-30"/>
     </g>
    </g>
   </g>
   <g id="xtick_16">
    <g id="line2d_19">
     <path d="M 66.019698 210.693755 
L 58.496991 214.114024 
" style="fill: none; stroke: #000000; stroke-width: 0.8; stroke-linecap: square"/>
    </g>
    <g id="text_18">
     <!-- 250 -->
     <g transform="translate(35.872018 212.939097) scale(0.1 -0.1)">
      <use xlink:href="#DejaVuSans-32"/>
      <use xlink:href="#DejaVuSans-35" transform="translate(63.623047 0)"/>
      <use xlink:href="#DejaVuSans-30" transform="translate(127.246094 0)"/>
     </g>
    </g>
   </g>
   <g id="xtick_17">
    <g id="line2d_20">
     <path d="M 63.60249 204.330297 
L 55.998768 207.785877 
" style="fill: none; stroke: #000000; stroke-width: 0.8; stroke-linecap: square"/>
    </g>
    <g id="text_19">
     <!-- 500 -->
     <g transform="translate(33.235158 206.520405) scale(0.1 -0.1)">
      <use xlink:href="#DejaVuSans-35"/>
      <use xlink:href="#DejaVuSans-30" transform="translate(63.623047 0)"/>
      <use xlink:href="#DejaVuSans-30" transform="translate(127.246094 0)"/>
     </g>
    </g>
   </g>
   <g id="xtick_18">
    <g id="line2d_21">
     <path d="M 61.132987 197.829167 
L 53.446486 201.320793 
" style="fill: none; stroke: #000000; stroke-width: 0.8; stroke-linecap: square"/>
    </g>
    <g id="text_20">
     <!-- 750 -->
     <g transform="translate(30.541267 199.96289) scale(0.1 -0.1)">
      <defs>
       <path id="DejaVuSans-37" d="M 525 4666 
L 3525 4666 
L 3525 4397 
L 1831 0 
L 1172 0 
L 2766 4134 
L 525 4134 
L 525 4666 
z
" transform="scale(0.015625)"/>
      </defs>
      <use xlink:href="#DejaVuSans-37"/>
      <use xlink:href="#DejaVuSans-35" transform="translate(63.623047 0)"/>
      <use xlink:href="#DejaVuSans-30" transform="translate(127.246094 0)"/>
     </g>
    </g>
   </g>
   <g id="xtick_19">
    <g id="line2d_22">
     <path d="M 58.609472 191.185848 
L 50.838369 194.714279 
" style="fill: none; stroke: #000000; stroke-width: 0.8; stroke-linecap: square"/>
    </g>
    <g id="text_21">
     <!-- 1000 -->
     <g transform="translate(24.607227 193.261999) scale(0.1 -0.1)">
      <use xlink:href="#DejaVuSans-31"/>
      <use xlink:href="#DejaVuSans-30" transform="translate(63.623047 0)"/>
      <use xlink:href="#DejaVuSans-30" transform="translate(127.246094 0)"/>
      <use xlink:href="#DejaVuSans-30" transform="translate(190.869141 0)"/>
     </g>
    </g>
   </g>
   <g id="xtick_20">
    <g id="line2d_23">
     <path d="M 56.030154 184.395624 
L 48.172567 187.961643 
" style="fill: none; stroke: #000000; stroke-width: 0.8; stroke-linecap: square"/>
    </g>
    <g id="text_22">
     <!-- 1250 -->
     <g transform="translate(21.793584 186.412979) scale(0.1 -0.1)">
      <use xlink:href="#DejaVuSans-31"/>
      <use xlink:href="#DejaVuSans-32" transform="translate(63.623047 0)"/>
      <use xlink:href="#DejaVuSans-35" transform="translate(127.246094 0)"/>
      <use xlink:href="#DejaVuSans-30" transform="translate(190.869141 0)"/>
     </g>
    </g>
   </g>
   <g id="xtick_21">
    <g id="line2d_24">
     <path d="M 53.393161 177.453566 
L 45.447143 181.057982 
" style="fill: none; stroke: #000000; stroke-width: 0.8; stroke-linecap: square"/>
    </g>
    <g id="text_23">
     <!-- 1500 -->
     <g transform="translate(18.917047 179.410862) scale(0.1 -0.1)">
      <use xlink:href="#DejaVuSans-31"/>
      <use xlink:href="#DejaVuSans-35" transform="translate(63.623047 0)"/>
      <use xlink:href="#DejaVuSans-30" transform="translate(127.246094 0)"/>
      <use xlink:href="#DejaVuSans-30" transform="translate(190.869141 0)"/>
     </g>
    </g>
   </g>
   <g id="xtick_22">
    <g id="line2d_25">
     <path d="M 50.696537 170.354526 
L 42.660075 173.998173 
" style="fill: none; stroke: #000000; stroke-width: 0.8; stroke-linecap: square"/>
    </g>
    <g id="text_24">
     <!-- 1750 -->
     <g transform="translate(15.975484 172.250458) scale(0.1 -0.1)">
      <use xlink:href="#DejaVuSans-31"/>
      <use xlink:href="#DejaVuSans-37" transform="translate(63.623047 0)"/>
      <use xlink:href="#DejaVuSans-35" transform="translate(127.246094 0)"/>
      <use xlink:href="#DejaVuSans-30" transform="translate(190.869141 0)"/>
     </g>
    </g>
   </g>
   <g id="xtick_23">
    <g id="line2d_26">
     <path d="M 47.938236 163.093117 
L 39.809247 166.776857 
" style="fill: none; stroke: #000000; stroke-width: 0.8; stroke-linecap: square"/>
    </g>
    <g id="text_25">
     <!-- 2000 -->
     <g transform="translate(12.966665 164.926337) scale(0.1 -0.1)">
      <use xlink:href="#DejaVuSans-32"/>
      <use xlink:href="#DejaVuSans-30" transform="translate(63.623047 0)"/>
      <use xlink:href="#DejaVuSans-30" transform="translate(127.246094 0)"/>
      <use xlink:href="#DejaVuSans-30" transform="translate(190.869141 0)"/>
     </g>
    </g>
   </g>
   <g id="text_26">
    <!-- u -->
    <g transform="translate(12.245165 180.566521) scale(0.1 -0.1)">
     <defs>
      <path id="DejaVuSans-75" d="M 544 1381 
L 544 3500 
L 1119 3500 
L 1119 1403 
Q 1119 906 1312 657 
Q 1506 409 1894 409 
Q 2359 409 2629 706 
Q 2900 1003 2900 1516 
L 2900 3500 
L 3475 3500 
L 3475 0 
L 2900 0 
L 2900 538 
Q 2691 219 2414 64 
Q 2138 -91 1772 -91 
Q 1169 -91 856 284 
Q 544 659 544 1381 
z
M 1991 3584 
L 1991 3584 
z
" transform="scale(0.015625)"/>
     </defs>
     <use xlink:href="#DejaVuSans-75"/>
    </g>
   </g>
  </g>
  <g id="axes_1">
   <g id="Line3DCollection_4">
    <path d="M 208.143727 526.058288 
L 251.088292 506.006333 
L 253.515449 504.669471 
L 254.713353 503.864662 
L 255.890009 502.865145 
L 257.030286 501.517347 
L 258.110273 499.564726 
L 259.096449 496.619523 
L 259.954091 492.218443 
L 260.680693 486.148696 
L 261.373965 479.231611 
L 262.270281 473.995008 
L 263.5932 473.311812 
L 265.291619 477.254089 
L 267.09155 483.007184 
L 268.782982 487.99179 
L 270.315001 491.324948 
L 271.720012 493.190458 
L 273.04384 494.045794 
L 274.32097 494.281603 
L 275.572671 494.158838 
L 278.042183 493.399306 
L 281.720356 491.825452 
L 292.732752 486.700454 
L 298.85225 483.661657 
L 301.307065 482.256843 
L 303.776494 480.552776 
L 305.022071 479.506273 
L 306.279497 478.268574 
L 307.5533 476.788599 
L 308.848105 475.027636 
L 311.507361 470.756864 
L 312.858995 468.538735 
L 314.200666 466.650292 
L 315.505681 465.423586 
L 316.752923 465.049447 
L 317.937793 465.468224 
L 319.073799 466.405896 
L 321.290237 468.54409 
L 322.407016 469.325266 
L 323.541022 469.821823 
L 324.693369 470.053464 
L 325.862197 470.066308 
L 327.04454 469.910724 
L 329.438036 469.26265 
L 333.068369 467.853955 
L 339.155993 465.132397 
L 368.411714 451.549139 
L 518.845041 381.612161 
L 518.845041 381.612161 
" clip-path="url(#pe861caf68d)" style="fill: none; stroke: #1f77b4; stroke-opacity: 0.5; stroke-width: 1.5"/>
    <path d="M 202.401227 513.622228 
L 233.079447 499.386086 
L 241.657196 495.388297 
L 250.22973 491.377434 
L 253.888481 489.538924 
L 255.100673 488.857799 
L 256.29816 488.038213 
L 257.477669 487.034353 
L 258.624912 485.687547 
L 259.713783 483.695617 
L 260.719896 480.724048 
L 261.604786 476.227791 
L 262.366079 469.973978 
L 263.090979 462.752722 
L 263.990637 457.05921 
L 265.286851 456.046222 
L 266.944052 459.988116 
L 270.378838 471.403876 
L 271.896553 475.032451 
L 273.293493 477.107444 
L 274.612181 478.090151 
L 275.885374 478.389969 
L 277.135007 478.317551 
L 278.371044 478.010021 
L 280.827114 477.104383 
L 286.943232 474.343524 
L 295.50065 470.187196 
L 297.94995 468.813712 
L 300.408696 467.188202 
L 301.645672 466.198111 
L 302.890812 465.045824 
L 304.148935 463.644718 
L 305.42284 461.990246 
L 306.71776 460.022263 
L 310.703327 453.31939 
L 312.019682 451.701401 
L 313.293818 450.899911 
L 314.513071 450.98018 
L 315.679568 451.77515 
L 319.053615 455.041226 
L 320.188536 455.720878 
L 321.338347 456.122332 
L 322.504958 456.256397 
L 323.684367 456.197029 
L 324.873795 455.994505 
L 327.276448 455.279311 
L 330.911304 453.829209 
L 340.653157 449.406349 
L 366.232072 437.526732 
L 426.994353 409.29848 
L 441.544152 402.547227 
L 460.932263 393.536762 
L 512.925903 369.393846 
L 512.925903 369.393846 
" clip-path="url(#pe861caf68d)" style="fill: none; stroke: #1f77b4; stroke-opacity: 0.5; stroke-width: 1.5"/>
    <path d="M 196.671817 501.219602 
L 207.70963 496.077956 
L 222.427663 489.268543 
L 229.776594 485.840242 
L 254.255786 474.405762 
L 256.68125 473.062379 
L 257.880991 472.252937 
L 259.061803 471.232863 
L 260.215008 469.884684 
L 261.31429 467.876724 
L 262.336768 464.858935 
L 263.249356 460.295033 
L 264.044034 453.863718 
L 264.799937 446.335972 
L 265.707656 440.200375 
L 266.979499 438.814149 
L 268.597976 442.735299 
L 271.974145 454.809266 
L 273.477259 458.752284 
L 274.864826 461.034335 
L 276.178268 462.157402 
L 277.447264 462.521845 
L 278.694449 462.498742 
L 279.928496 462.214821 
L 282.38145 461.330923 
L 288.491124 458.550033 
L 294.599745 455.399564 
L 297.050328 453.824592 
L 298.280163 452.905727 
L 299.516406 451.798038 
L 300.76077 450.510228 
L 302.017811 448.946338 
L 303.291551 447.067879 
L 305.895423 442.532313 
L 307.217332 440.194235 
L 308.534298 438.2243 
L 309.826022 436.962227 
L 311.07232 436.658783 
L 312.271542 437.170357 
L 313.42991 438.252815 
L 315.698458 440.646586 
L 316.835343 441.548087 
L 317.986911 442.109467 
L 319.151353 442.399834 
L 320.327668 442.466178 
L 322.711812 442.079133 
L 325.122446 441.292872 
L 327.545735 440.328426 
L 332.407495 438.195862 
L 368.922484 421.259757 
L 376.213251 417.891927 
L 404.149938 404.920365 
L 423.554058 395.925948 
L 434.469636 390.84117 
L 446.579134 385.228902 
L 485.289533 367.257593 
L 493.743477 363.338547 
L 507.0291 357.164873 
L 507.0291 357.164873 
" clip-path="url(#pe861caf68d)" style="fill: none; stroke: #1f77b4; stroke-opacity: 0.5; stroke-width: 1.5"/>
    <path d="M 190.941225 488.804815 
L 199.53038 484.839439 
L 206.881655 481.415457 
L 217.911937 476.31561 
L 232.601789 469.489425 
L 239.946097 466.099704 
L 257.048514 457.992119 
L 259.460436 456.496623 
L 260.642969 455.465805 
L 261.800919 454.109671 
L 262.91053 452.095681 
L 263.948208 449.03235 
L 264.886916 444.407291 
L 265.714708 437.817652 
L 266.501215 429.982703 
L 267.420819 423.419032 
L 268.671291 421.623017 
L 270.253023 425.495766 
L 273.568966 438.206042 
L 275.057008 442.483067 
L 276.434217 444.972148 
L 277.741738 446.23815 
L 279.006891 446.68326 
L 280.250728 446.691027 
L 281.483137 446.444874 
L 283.932469 445.563088 
L 287.595264 443.890116 
L 291.256409 441.981826 
L 293.700215 440.489378 
L 296.153463 438.569869 
L 297.387627 437.359089 
L 298.630815 435.882195 
L 299.885573 434.14226 
L 301.156796 432.04532 
L 305.057294 424.957909 
L 306.353591 423.306315 
L 307.621692 422.507239 
L 308.848082 422.678882 
L 310.033589 423.606836 
L 313.482315 427.25577 
L 314.636234 428.018932 
L 315.799484 428.500573 
L 316.977164 428.664718 
L 318.162112 428.657464 
L 319.35667 428.469062 
L 321.762173 427.792689 
L 325.396005 426.362568 
L 341.209659 419.142795 
L 349.724378 415.19663 
L 374.035293 403.906413 
L 380.107319 401.090927 
L 387.38612 397.734888 
L 405.586827 389.280413 
L 414.071744 385.34834 
L 469.730906 359.553411 
L 478.190591 355.623274 
L 501.118245 345.000419 
L 501.118245 345.000419 
" clip-path="url(#pe861caf68d)" style="fill: none; stroke: #1f77b4; stroke-opacity: 0.5; stroke-width: 1.5"/>
    <path d="M 185.228706 476.438796 
L 206.055996 466.781556 
L 223.194098 458.851826 
L 237.867557 452.041296 
L 248.86782 446.954518 
L 258.624401 442.26664 
L 261.03584 440.760578 
L 262.221434 439.737051 
L 263.382851 438.362582 
L 264.501964 436.344143 
L 265.554834 433.249822 
L 266.5172 428.555413 
L 267.378042 421.832551 
L 268.195496 413.700816 
L 269.128966 406.703096 
L 270.363043 404.495494 
L 271.90846 408.261184 
L 275.163489 421.594548 
L 276.635261 426.211685 
L 278.001841 428.922506 
L 279.302455 430.323242 
L 280.563548 430.853277 
L 281.804013 430.890718 
L 283.03408 430.660562 
L 285.479534 429.742649 
L 287.918852 428.537522 
L 290.357946 427.117838 
L 292.801329 425.330386 
L 294.027495 424.180634 
L 295.259045 422.834153 
L 296.499143 421.182686 
L 297.751112 419.197703 
L 300.299683 414.391191 
L 301.592373 411.93884 
L 302.885861 409.878764 
L 304.164208 408.605271 
L 305.411837 408.358073 
L 306.625078 408.977435 
L 307.806301 410.204367 
L 310.125722 412.857342 
L 311.28372 413.861018 
L 312.45165 414.490488 
L 313.627372 414.8467 
L 314.812493 414.945423 
L 317.204518 414.615781 
L 319.617113 413.854477 
L 323.252107 412.39977 
L 332.976096 407.992275 
L 341.488734 404.038766 
L 354.854439 397.856992 
L 369.429019 391.088477 
L 377.921744 387.163703 
L 400.961109 376.483256 
L 411.859436 371.44783 
L 422.760168 366.383464 
L 434.858392 360.781571 
L 484.37864 337.847295 
L 495.234984 332.811763 
L 495.234984 332.811763 
" clip-path="url(#pe861caf68d)" style="fill: none; stroke: #1f77b4; stroke-opacity: 0.5; stroke-width: 1.5"/>
    <path d="M 179.518818 464.073198 
L 258.982301 427.198695 
L 261.406067 425.861415 
L 262.607838 425.049611 
L 263.79612 424.033631 
L 264.961134 422.645804 
L 266.088352 420.614801 
L 267.156155 417.502504 
L 268.140465 412.735665 
L 269.033555 405.89679 
L 269.882718 397.488804 
L 270.832653 390.066644 
L 272.054465 387.441448 
L 273.565392 391.058955 
L 276.757898 404.976093 
L 278.211544 409.918338 
L 279.567018 412.861541 
L 280.859729 414.377958 
L 282.116243 414.981713 
L 283.352944 415.022738 
L 284.580107 414.763443 
L 285.801788 414.281093 
L 288.239729 412.926487 
L 289.458323 412.037704 
L 290.678395 411.000395 
L 291.901318 409.740967 
L 293.129309 408.205394 
L 294.365089 406.363845 
L 295.61207 404.149991 
L 299.427697 396.701365 
L 300.706136 394.986396 
L 301.968203 394.216551 
L 303.202807 394.482473 
L 304.408385 395.528708 
L 307.930854 399.560371 
L 309.102197 400.427912 
L 310.280521 400.952445 
L 311.466586 401.181896 
L 312.658818 401.198313 
L 313.857428 401.032832 
L 316.266435 400.38546 
L 319.899573 398.968845 
L 325.970818 396.271035 
L 357.548384 381.668531 
L 415.706738 354.746681 
L 471.268236 329.032457 
L 489.351506 320.659822 
L 489.351506 320.659822 
" clip-path="url(#pe861caf68d)" style="fill: none; stroke: #1f77b4; stroke-opacity: 0.5; stroke-width: 1.5"/>
    <path d="M 173.817924 451.727853 
L 194.623896 442.105342 
L 261.765082 410.876953 
L 262.974996 410.185268 
L 264.176564 409.363898 
L 265.365923 408.336589 
L 266.535239 406.949595 
L 267.668899 404.888691 
L 268.750192 401.75182 
L 269.756348 396.932596 
L 270.679462 389.968146 
L 271.563261 381.353759 
L 272.533056 373.544432 
L 273.747218 370.520032 
L 275.225969 373.958979 
L 278.351622 388.330193 
L 279.78454 393.541682 
L 281.127197 396.676386 
L 282.411305 398.273089 
L 283.661555 398.853013 
L 284.894006 398.808136 
L 286.117268 398.343577 
L 287.33632 397.563714 
L 288.554334 396.508085 
L 289.773632 395.14688 
L 290.996883 393.452113 
L 292.22708 391.389403 
L 294.720112 386.3385 
L 295.984491 383.747443 
L 297.25484 381.617539 
L 298.520861 380.344975 
L 299.771103 380.138462 
L 300.998372 380.896666 
L 302.20326 382.249321 
L 304.572433 385.176527 
L 305.752049 386.251572 
L 306.934501 386.981534 
L 308.12238 387.377355 
L 309.315548 387.512057 
L 310.513573 387.446157 
L 312.92162 386.901483 
L 315.340035 386.047807 
L 318.976745 384.527966 
L 327.475898 380.659467 
L 348.108732 371.129743 
L 365.086089 363.266996 
L 375.988052 358.238869 
L 388.097186 352.635953 
L 437.662427 329.704858 
L 450.934052 323.57529 
L 483.479603 308.517355 
L 483.479603 308.517355 
" clip-path="url(#pe861caf68d)" style="fill: none; stroke: #1f77b4; stroke-opacity: 0.5; stroke-width: 1.5"/>
    <path d="M 168.125264 439.400427 
L 262.118896 395.869658 
L 264.538522 394.501157 
L 265.740417 393.676717 
L 266.929226 392.610946 
L 268.101196 391.200405 
L 269.240144 389.090417 
L 270.33213 385.886925 
L 271.35897 381.010882 
L 272.312871 373.960124 
L 273.235574 365.261024 
L 274.235372 357.290888 
L 275.449225 353.993283 
L 276.896389 357.192901 
L 279.942034 371.54766 
L 281.349638 376.841635 
L 282.675712 379.969922 
L 283.948982 381.442443 
L 285.191214 381.712454 
L 286.418214 381.186732 
L 287.638517 380.023199 
L 288.858247 378.303669 
L 290.082677 376.139107 
L 293.815682 368.467924 
L 295.07684 366.69812 
L 296.333909 365.996061 
L 297.57792 366.349224 
L 298.803497 367.529573 
L 301.208186 370.656374 
L 302.398223 371.97783 
L 303.587973 372.914549 
L 304.779805 373.496742 
L 305.974426 373.794704 
L 307.173853 373.819191 
L 308.375739 373.691752 
L 310.788873 373.052161 
L 313.208578 372.164289 
L 318.05712 370.092979 
L 359.28343 351.08887 
L 366.552831 347.711679 
L 412.503028 326.495851 
L 420.959652 322.575023 
L 434.230937 316.454427 
L 446.29262 310.875789 
L 477.608608 296.412136 
L 477.608608 296.412136 
" clip-path="url(#pe861caf68d)" style="fill: none; stroke: #1f77b4; stroke-opacity: 0.5; stroke-width: 1.5"/>
    <path d="M 162.443684 427.099234 
L 263.678598 380.182724 
L 266.092806 378.73412 
L 267.292254 377.854111 
L 268.47829 376.69604 
L 269.647216 375.141572 
L 270.78781 372.89015 
L 271.8853 369.488487 
L 272.930581 364.49383 
L 273.921491 357.510544 
L 274.899113 349.18357 
L 275.955157 341.848101 
L 277.186129 338.84084 
L 278.597163 341.638241 
L 281.523627 354.309818 
L 282.893345 358.935291 
L 284.195664 361.374243 
L 285.455306 362.049398 
L 286.691501 361.328238 
L 287.91982 359.638418 
L 291.64076 352.936816 
L 292.896939 351.777426 
L 294.150749 351.721158 
L 295.393579 352.700181 
L 296.621895 354.23837 
L 299.040162 357.525096 
L 300.239662 358.706229 
L 301.436942 359.542589 
L 302.636068 359.98346 
L 303.836536 360.16851 
L 305.039216 360.139093 
L 307.451309 359.634265 
L 311.080173 358.324681 
L 323.20297 352.888832 
L 331.691051 348.948992 
L 336.537214 346.726937 
L 345.016804 342.816833 
L 359.548398 336.086126 
L 366.805665 332.752734 
L 471.760217 284.284687 
L 471.760217 284.284687 
" clip-path="url(#pe861caf68d)" style="fill: none; stroke: #1f77b4; stroke-opacity: 0.5; stroke-width: 1.5"/>
    <path d="M 156.766444 414.804524 
L 215.353452 387.779109 
L 234.842693 378.798617 
L 245.793523 373.727799 
L 256.739993 368.673996 
L 262.807361 365.696672 
L 265.223029 364.305908 
L 266.427201 363.529289 
L 267.622401 362.568293 
L 268.810021 361.419794 
L 269.984111 359.930866 
L 271.137903 357.894185 
L 272.267701 355.12 
L 273.365116 351.252303 
L 274.433086 346.129688 
L 276.572165 333.660251 
L 277.737692 329.083772 
L 279.010939 327.691422 
L 280.366533 329.52187 
L 283.090694 336.013204 
L 284.397723 337.790725 
L 285.671107 338.011764 
L 286.928349 337.129011 
L 288.184015 335.850772 
L 289.445093 334.906774 
L 290.710552 334.966138 
L 291.9723 336.08627 
L 293.222521 338.025604 
L 295.678825 342.343503 
L 296.889976 344.048507 
L 298.095842 345.245465 
L 299.299517 345.995214 
L 300.502558 346.405102 
L 301.707261 346.494381 
L 302.912626 346.410487 
L 304.119468 346.174402 
L 306.536627 345.426309 
L 311.380226 343.414024 
L 316.225794 341.252074 
L 323.496874 337.892594 
L 373.10256 315.019967 
L 383.975368 309.99768 
L 394.83809 304.99775 
L 403.283937 301.102803 
L 421.373765 292.74393 
L 428.598127 289.428684 
L 439.442174 284.409878 
L 456.286795 276.649227 
L 465.905578 272.216351 
L 465.905578 272.216351 
" clip-path="url(#pe861caf68d)" style="fill: none; stroke: #1f77b4; stroke-opacity: 0.5; stroke-width: 1.5"/>
    <path d="M 151.099233 402.532936 
L 171.857667 392.963798 
L 204.779921 377.78848 
L 215.742271 372.742539 
L 226.695625 367.68475 
L 235.211513 363.75883 
L 255.874843 354.206528 
L 261.930971 351.134588 
L 264.337873 349.623425 
L 265.535941 348.748877 
L 266.725268 347.685667 
L 267.906686 346.420289 
L 269.076931 344.853774 
L 270.231896 342.84647 
L 271.374113 340.375065 
L 272.501619 337.302217 
L 275.911827 326.509051 
L 277.111729 323.920191 
L 278.355321 322.510927 
L 279.628891 322.113248 
L 280.909783 322.08511 
L 282.176749 321.514245 
L 283.424843 319.870047 
L 284.65954 316.949903 
L 285.898865 313.409784 
L 287.16074 310.618964 
L 288.449128 310.00102 
L 289.749843 312.211185 
L 291.039308 316.380705 
L 292.30353 321.097312 
L 293.542099 325.271691 
L 294.762601 328.357868 
L 295.97258 330.466548 
L 297.178396 331.708947 
L 298.383086 332.352764 
L 299.587874 332.606785 
L 300.794265 332.550624 
L 302.001301 332.340601 
L 304.418873 331.578184 
L 306.838535 330.625356 
L 311.680712 328.509181 
L 389.040431 292.865645 
L 396.272621 289.549303 
L 407.124676 284.532241 
L 423.985234 276.769885 
L 460.069899 260.132825 
L 460.069899 260.132825 
" clip-path="url(#pe861caf68d)" style="fill: none; stroke: #1f77b4; stroke-opacity: 0.5; stroke-width: 1.5"/>
    <path d="M 145.441189 390.28188 
L 156.424262 385.211794 
L 163.74983 381.855736 
L 172.283358 377.911355 
L 182.037343 373.427173 
L 205.179545 362.777877 
L 212.478272 359.399761 
L 240.442588 346.528288 
L 257.429605 338.515964 
L 259.843417 337.185533 
L 262.245001 335.630665 
L 264.621242 333.562808 
L 265.793869 332.181953 
L 266.955698 330.514561 
L 268.104334 328.467581 
L 269.238858 325.958677 
L 272.650847 317.109911 
L 273.839269 314.878969 
L 275.071302 313.673892 
L 276.345572 313.704239 
L 277.641352 314.586416 
L 278.938505 315.80788 
L 280.219505 316.74344 
L 281.473221 316.766464 
L 282.698354 315.432929 
L 283.895966 312.166834 
L 285.075969 306.614193 
L 287.475079 291.267641 
L 288.746801 286.64353 
L 290.059096 287.76317 
L 291.367746 293.862013 
L 292.640281 301.574742 
L 293.875543 308.182932 
L 295.087529 312.828166 
L 296.289881 315.640141 
L 297.490066 317.168405 
L 298.691217 317.877617 
L 299.894918 318.043811 
L 301.099932 317.946583 
L 303.51516 317.237706 
L 305.933475 316.271299 
L 310.772353 314.142508 
L 321.662044 309.122607 
L 332.543539 304.130671 
L 344.628527 298.559818 
L 377.216304 283.559178 
L 386.86212 279.112267 
L 403.730756 271.335212 
L 412.156715 267.461901 
L 454.23502 248.09048 
L 454.23502 248.09048 
" clip-path="url(#pe861caf68d)" style="fill: none; stroke: #1f77b4; stroke-opacity: 0.5; stroke-width: 1.5"/>
    <path d="M 139.784775 378.030118 
L 144.67146 375.800543 
L 151.98379 372.4124 
L 156.870761 370.197034 
L 161.73909 367.926385 
L 166.622008 365.709609 
L 171.490305 363.446863 
L 176.366594 361.218403 
L 183.667639 357.8339 
L 188.545151 355.627403 
L 193.405918 353.354218 
L 198.278737 351.142447 
L 203.140203 348.882736 
L 208.006584 346.654789 
L 215.297444 343.278427 
L 220.163979 341.074664 
L 225.020128 338.813026 
L 229.881134 336.594018 
L 237.164133 333.219554 
L 242.023026 331.015773 
L 246.8733 328.741624 
L 250.512003 327.050991 
L 254.14428 325.284872 
L 257.760239 323.278426 
L 260.150403 321.591242 
L 261.334605 320.541919 
L 262.508371 319.27949 
L 263.672029 317.781362 
L 264.817713 315.872758 
L 265.950949 313.598982 
L 267.0714 310.898041 
L 269.317782 304.899934 
L 270.476837 302.311533 
L 271.685708 300.714481 
L 272.945836 300.348259 
L 274.244827 301.124982 
L 275.563846 302.729976 
L 278.175366 306.175335 
L 279.450253 307.354709 
L 280.701137 307.857056 
L 281.93234 307.644821 
L 283.143215 306.377025 
L 284.337113 303.756045 
L 285.516689 299.198802 
L 286.68977 292.070895 
L 289.106384 272.88701 
L 290.391718 267.265781 
L 291.704073 269.101063 
L 292.992298 276.787391 
L 294.2338 285.897014 
L 295.440634 293.218699 
L 296.632478 298.050668 
L 297.822203 300.840461 
L 299.015578 302.227233 
L 300.212951 302.803209 
L 301.414328 302.876971 
L 302.618763 302.662311 
L 303.824378 302.325762 
L 307.448564 300.859338 
L 329.203554 290.90525 
L 336.451796 287.551674 
L 348.521974 282.012205 
L 358.174245 277.56531 
L 390.711379 262.594606 
L 400.338893 258.174748 
L 448.411998 236.053415 
L 448.411998 236.053415 
" clip-path="url(#pe861caf68d)" style="fill: none; stroke: #1f77b4; stroke-opacity: 0.5; stroke-width: 1.5"/>
    <path d="M 134.149221 365.83169 
L 137.800813 364.129375 
L 209.617568 331.142658 
L 213.258533 329.449897 
L 224.186408 324.427125 
L 233.895814 319.974625 
L 252.067633 311.403032 
L 254.475346 310.061419 
L 256.868705 308.488275 
L 259.230589 306.368842 
L 260.391888 304.939067 
L 261.539811 303.217294 
L 262.671279 301.11291 
L 263.78324 298.519682 
L 267.124343 289.601201 
L 268.300539 287.482038 
L 269.531726 286.464154 
L 270.820653 286.815542 
L 272.14263 288.153521 
L 276.097701 293.645442 
L 277.376502 294.91176 
L 278.633623 295.688804 
L 279.873399 296.008624 
L 281.101439 295.978699 
L 282.317249 295.437495 
L 283.524765 294.399888 
L 284.723363 292.565889 
L 285.913037 289.442903 
L 287.098043 284.493175 
L 288.285709 276.885438 
L 290.749602 256.19594 
L 292.049575 249.856946 
L 293.355098 251.635868 
L 294.617318 259.820949 
L 295.826946 269.537084 
L 297.006449 277.368493 
L 298.179773 282.43659 
L 299.357307 285.373663 
L 300.543396 286.816446 
L 301.736752 287.383256 
L 302.934713 287.485866 
L 305.341818 286.898647 
L 307.75548 285.928291 
L 310.170412 284.876136 
L 322.247038 279.363203 
L 327.076875 277.130737 
L 334.316347 273.824984 
L 339.145188 271.571785 
L 343.966966 269.385117 
L 348.792746 267.144212 
L 353.613214 264.94292 
L 360.847217 261.593622 
L 365.660878 259.419119 
L 369.277044 257.737774 
L 376.50573 254.390894 
L 380.113883 252.751549 
L 387.329522 249.46102 
L 390.941455 247.785689 
L 395.754816 245.561876 
L 402.963986 242.272258 
L 407.78057 240.019511 
L 412.579069 237.849566 
L 416.18826 236.169662 
L 439.002089 225.672018 
L 442.596766 224.03499 
L 442.596766 224.03499 
" clip-path="url(#pe861caf68d)" style="fill: none; stroke: #1f77b4; stroke-opacity: 0.5; stroke-width: 1.5"/>
    <path d="M 128.505939 353.606723 
L 132.170548 351.94918 
L 144.348783 346.336202 
L 151.662928 343.004908 
L 156.521941 340.733294 
L 161.39883 338.527793 
L 166.258701 336.266762 
L 169.913665 334.611905 
L 188.143846 326.211135 
L 191.793319 324.557565 
L 248.792955 298.225083 
L 252.398892 296.191682 
L 254.779017 294.472531 
L 255.95582 293.394077 
L 257.119499 292.085494 
L 258.270789 290.532353 
L 259.399045 288.537121 
L 260.511529 286.166887 
L 261.606366 283.34272 
L 263.797622 277.112427 
L 264.935452 274.468004 
L 266.133923 272.872828 
L 267.397865 272.596791 
L 268.712307 273.514014 
L 270.055816 275.311538 
L 272.721563 279.257984 
L 274.021978 280.813078 
L 275.296925 281.883718 
L 276.553342 282.588335 
L 277.793219 282.903812 
L 279.022096 282.94286 
L 280.243639 282.782028 
L 281.458243 282.37034 
L 282.669128 281.790498 
L 283.875452 280.910333 
L 285.077402 279.582657 
L 286.275739 277.586758 
L 287.470299 274.347172 
L 288.665993 269.251578 
L 289.872731 261.523612 
L 292.390003 240.01685 
L 293.706272 233.100481 
L 295.00591 234.511475 
L 296.242474 242.879192 
L 297.42087 252.973567 
L 298.573093 261.242419 
L 299.727165 266.62289 
L 300.892716 269.714986 
L 302.070328 271.305034 
L 303.259417 271.898872 
L 304.454032 272.035269 
L 305.654176 271.834018 
L 308.061033 271.049934 
L 321.333544 265.056292 
L 332.188274 260.072029 
L 339.419393 256.771653 
L 344.243294 254.519225 
L 347.856014 252.877704 
L 355.080525 249.579085 
L 358.694615 247.904543 
L 363.510425 245.689302 
L 374.340779 240.712926 
L 385.165031 235.738495 
L 392.372346 232.454591 
L 397.187238 230.200795 
L 401.984604 228.036614 
L 405.591662 226.361511 
L 415.199675 221.936288 
L 433.189428 213.699186 
L 436.791148 212.027928 
L 436.791148 212.027928 
" clip-path="url(#pe861caf68d)" style="fill: none; stroke: #1f77b4; stroke-opacity: 0.5; stroke-width: 1.5"/>
    <path d="M 122.883423 341.43442 
L 132.624783 336.954353 
L 210.399405 301.280328 
L 217.671288 297.925922 
L 241.896804 286.7846 
L 247.926982 283.745092 
L 250.319725 282.271093 
L 251.508778 281.42381 
L 252.686503 280.407291 
L 253.854658 279.229137 
L 255.006011 277.769483 
L 256.138127 275.962719 
L 257.250198 273.758723 
L 258.33947 271.069042 
L 261.598846 261.77733 
L 262.758376 259.606414 
L 263.986998 258.643909 
L 265.284612 259.06217 
L 266.627297 260.55376 
L 270.654335 266.473926 
L 271.95051 267.841071 
L 273.222401 268.76842 
L 274.474051 269.286006 
L 275.712145 269.520977 
L 276.939456 269.502491 
L 278.159853 269.313293 
L 279.375855 269.01087 
L 281.798111 268.083535 
L 283.006092 267.474248 
L 284.212063 266.712177 
L 285.416446 265.746406 
L 286.618458 264.355639 
L 287.819108 262.293056 
L 289.020268 259.056733 
L 290.227569 253.908035 
L 291.453215 246.115342 
L 294.02476 224.009147 
L 295.358984 216.55944 
L 296.655259 217.53008 
L 297.867915 225.92617 
L 299.015006 236.382746 
L 300.140043 245.028425 
L 301.273734 250.762444 
L 302.426697 254.037766 
L 303.59595 255.756154 
L 304.779538 256.437235 
L 305.971307 256.586307 
L 307.168525 256.426815 
L 309.57263 255.640327 
L 314.393741 253.524577 
L 320.421145 250.780713 
L 430.989563 200.055342 
L 430.989563 200.055342 
" clip-path="url(#pe861caf68d)" style="fill: none; stroke: #1f77b4; stroke-opacity: 0.5; stroke-width: 1.5"/>
    <path d="M 117.26173 329.259678 
L 134.303519 321.45326 
L 161.046994 309.185303 
L 185.329216 298.060942 
L 193.81854 294.161647 
L 222.901492 280.839672 
L 230.162654 277.493185 
L 241.045752 272.431879 
L 244.659906 270.600823 
L 247.053888 269.184569 
L 249.423269 267.424508 
L 250.593708 266.330394 
L 251.74819 264.98887 
L 252.883727 263.334576 
L 253.998352 261.308228 
L 255.086211 258.784816 
L 256.156587 255.854497 
L 258.290803 249.348913 
L 259.409659 246.670151 
L 260.59694 245.045072 
L 261.864474 244.82974 
L 263.196026 245.895775 
L 264.56031 247.78311 
L 267.274987 252.002245 
L 268.594765 253.654992 
L 269.885256 254.826963 
L 271.151274 255.558929 
L 272.399715 255.961037 
L 273.63379 256.062642 
L 274.858887 255.972108 
L 276.078203 255.75543 
L 278.504485 255.009639 
L 282.130279 253.494276 
L 284.542549 252.223629 
L 285.747394 251.434173 
L 286.951122 250.412114 
L 288.154505 249.04576 
L 289.358045 246.951116 
L 290.56552 243.718225 
L 291.784178 238.58542 
L 293.028003 230.711325 
L 295.653358 208.107945 
L 297.007422 200.099403 
L 298.302629 200.641799 
L 299.493649 208.966691 
L 300.60923 219.786784 
L 301.706599 228.80823 
L 302.819565 234.87434 
L 303.95852 238.389141 
L 305.119975 240.199737 
L 306.297147 240.998277 
L 307.485996 241.164344 
L 308.680653 241.030406 
L 311.081721 240.253658 
L 313.488247 239.253391 
L 323.123266 234.874627 
L 347.191023 223.85613 
L 354.407543 220.529456 
L 368.826073 213.936747 
L 376.034388 210.616928 
L 400.032818 199.624924 
L 412.021326 194.127657 
L 425.199949 188.083765 
L 425.199949 188.083765 
" clip-path="url(#pe861caf68d)" style="fill: none; stroke: #1f77b4; stroke-opacity: 0.5; stroke-width: 1.5"/>
    <path d="M 111.654831 317.120744 
L 120.167497 313.207237 
L 131.115665 308.203987 
L 138.402684 304.844393 
L 145.697116 301.519363 
L 162.696838 293.73562 
L 167.548929 291.504435 
L 178.466766 286.507823 
L 185.736527 283.15317 
L 190.591546 280.967762 
L 195.432231 278.715472 
L 200.282648 276.523555 
L 205.123367 274.28395 
L 209.968452 272.078954 
L 214.809461 269.856822 
L 228.119219 263.775072 
L 232.951138 261.514409 
L 236.576359 259.834668 
L 240.194902 258.08941 
L 243.793441 256.110929 
L 246.165272 254.440108 
L 247.338097 253.420247 
L 248.494125 252.16034 
L 249.637342 250.691361 
L 250.752417 248.786825 
L 251.844732 246.480806 
L 252.912255 243.70517 
L 256.08996 234.036388 
L 257.232691 231.803857 
L 258.461138 230.917955 
L 259.766362 231.380153 
L 261.13137 233.041609 
L 265.228576 239.341293 
L 266.53942 240.746397 
L 267.824688 241.757011 
L 269.085133 242.326899 
L 270.327552 242.557269 
L 271.560356 242.61888 
L 273.999126 242.158557 
L 276.422057 241.33746 
L 278.83915 240.384192 
L 283.664697 238.218474 
L 286.074145 236.884801 
L 287.278722 236.124284 
L 288.48235 235.070208 
L 289.686832 233.70657 
L 290.893453 231.645191 
L 292.106816 228.373237 
L 293.336057 223.287759 
L 294.5973 215.362319 
L 297.275472 192.311833 
L 298.651568 183.695152 
L 299.947975 183.805554 
L 301.119202 192.034008 
L 302.203973 203.162551 
L 303.272213 212.614643 
L 304.364525 218.978037 
L 305.488529 222.752291 
L 306.641341 224.685155 
L 307.813228 225.547122 
L 308.997259 225.797819 
L 310.190724 225.642737 
L 311.386902 225.356223 
L 314.9907 223.937424 
L 329.42925 217.342807 
L 334.239043 215.150506 
L 347.462973 209.077823 
L 354.669675 205.792528 
L 375.078586 196.438251 
L 409.842038 180.507802 
L 418.220799 176.680519 
L 419.419603 176.123184 
L 419.419603 176.123184 
" clip-path="url(#pe861caf68d)" style="fill: none; stroke: #1f77b4; stroke-opacity: 0.5; stroke-width: 1.5"/>
    <path d="M 106.039952 304.955971 
L 108.479656 303.86209 
L 121.84637 297.722744 
L 124.282039 296.625998 
L 172.8236 274.406847 
L 177.672351 272.195315 
L 184.93637 268.846624 
L 187.360413 267.747098 
L 201.892774 261.132353 
L 206.725356 258.873536 
L 210.356388 257.226048 
L 213.987627 255.586699 
L 236.937323 244.957926 
L 241.725363 242.260054 
L 242.912687 241.460804 
L 245.2494 239.365127 
L 246.39227 237.959979 
L 247.513693 236.232542 
L 248.613279 234.149615 
L 249.676873 231.487028 
L 250.722805 228.448303 
L 252.800028 221.668709 
L 253.901459 218.963972 
L 255.076843 217.292746 
L 256.350861 217.17566 
L 257.698405 218.355997 
L 259.084667 220.363623 
L 260.479389 222.736595 
L 261.847101 224.834733 
L 263.185878 226.582629 
L 264.491465 227.842182 
L 265.765747 228.584858 
L 267.023112 229.066508 
L 268.260227 229.164557 
L 269.488143 229.099715 
L 270.709377 228.91188 
L 274.34442 227.726798 
L 281.580704 224.580355 
L 283.990381 223.467283 
L 286.399224 222.290257 
L 288.806731 220.80308 
L 290.010629 219.770535 
L 291.216014 218.375503 
L 292.425354 216.355276 
L 293.644352 213.081376 
L 294.883551 207.983829 
L 296.161042 200.079726 
L 298.89137 176.570595 
L 300.290745 167.391754 
L 301.591648 166.982434 
L 302.74397 175.152027 
L 303.799226 186.519598 
L 304.837403 196.417177 
L 305.907945 203.107974 
L 307.017384 207.103257 
L 308.159942 209.212248 
L 309.32696 210.119241 
L 310.506398 210.440276 
L 311.697172 210.313717 
L 314.089651 209.625023 
L 323.703473 205.370258 
L 328.511833 203.16043 
L 335.719465 199.885928 
L 339.32461 198.215889 
L 346.532301 194.890191 
L 350.132471 193.257875 
L 354.931886 191.076477 
L 359.732235 188.873675 
L 372.922583 182.854571 
L 377.722882 180.620788 
L 382.511485 178.463751 
L 387.308777 176.238318 
L 392.096459 174.069008 
L 396.888572 171.864027 
L 404.066697 168.603284 
L 408.861598 166.368196 
L 413.639692 164.218827 
L 413.639692 164.218827 
" clip-path="url(#pe861caf68d)" style="fill: none; stroke: #1f77b4; stroke-opacity: 0.5; stroke-width: 1.5"/>
    <path d="M 100.461763 292.885693 
L 102.886958 291.758262 
L 234.886703 231.240873 
L 238.476548 229.247734 
L 240.838797 227.545248 
L 242.004863 226.49807 
L 243.151626 225.196571 
L 244.283899 223.679447 
L 245.382944 221.694124 
L 246.456029 219.295413 
L 247.499652 216.401669 
L 250.597284 206.373547 
L 251.725328 204.106817 
L 252.952467 203.2615 
L 254.268396 203.818253 
L 255.65445 205.616073 
L 259.820774 212.280393 
L 261.14725 213.758389 
L 262.444874 214.831236 
L 263.713253 215.43671 
L 264.961236 215.703831 
L 266.197236 215.776624 
L 268.638441 215.345474 
L 271.060588 214.541462 
L 273.475645 213.59933 
L 278.296436 211.521772 
L 287.925636 206.992666 
L 290.331811 205.486601 
L 291.535865 204.501779 
L 292.742198 203.079893 
L 293.953926 201.075218 
L 295.178079 197.831817 
L 296.426757 192.71347 
L 297.719578 184.819636 
L 299.078835 173.639504 
L 300.501382 160.864901 
L 301.924827 151.173065 
L 303.233237 150.198023 
L 304.368422 158.279806 
L 306.402538 180.202639 
L 307.44966 187.267639 
L 308.544655 191.464553 
L 309.676571 193.750504 
L 310.837801 194.732362 
L 312.013709 195.085675 
L 313.20066 195.0199 
L 315.589962 194.340231 
L 322.792924 191.182767 
L 339.602041 183.489092 
L 343.199868 181.867941 
L 367.184614 170.865191 
L 369.579123 169.785317 
L 407.881127 152.261075 
L 407.881127 152.261075 
" clip-path="url(#pe861caf68d)" style="fill: none; stroke: #1f77b4; stroke-opacity: 0.5; stroke-width: 1.5"/>
    <path d="M 94.859855 280.74781 
L 99.728852 278.554159 
L 104.578051 276.310366 
L 109.441363 274.110432 
L 116.716835 270.76168 
L 121.579205 268.571716 
L 128.851931 265.230256 
L 230.434869 218.72765 
L 234.035457 216.89175 
L 236.414846 215.435001 
L 237.596026 214.603007 
L 238.763189 213.602497 
L 239.919218 212.454177 
L 241.053229 211.019867 
L 242.161302 209.230919 
L 243.241992 207.042061 
L 244.285325 204.295642 
L 245.304011 201.111128 
L 247.327702 194.104487 
L 248.407379 191.299973 
L 249.576994 189.669227 
L 250.855034 189.600074 
L 252.219685 190.905753 
L 253.630025 193.068325 
L 256.439076 197.779152 
L 257.795832 199.60922 
L 259.114395 200.917938 
L 260.399956 201.742676 
L 261.662349 202.219733 
L 262.904647 202.36825 
L 264.134813 202.317178 
L 265.356649 202.125008 
L 267.782851 201.418786 
L 271.403568 200.00523 
L 285.842267 193.47181 
L 289.44916 191.699582 
L 290.651451 191.022191 
L 291.854156 190.211609 
L 293.058132 189.228019 
L 294.265265 187.842954 
L 295.479363 185.803149 
L 296.708074 182.612245 
L 297.965633 177.489671 
L 299.273252 169.572398 
L 300.654284 158.329184 
L 302.105441 145.211415 
L 303.553974 135.016547 
L 304.871978 133.485446 
L 305.992884 141.399712 
L 307.967694 163.973147 
L 308.990217 171.433528 
L 310.069768 175.857657 
L 311.191737 178.285545 
L 312.345568 179.38961 
L 313.518623 179.753916 
L 314.70181 179.74337 
L 317.088488 179.060309 
L 320.682966 177.58058 
L 327.882847 174.296058 
L 344.673027 166.61536 
L 348.266738 164.99613 
L 369.826898 155.138514 
L 386.576524 147.4955 
L 391.362863 145.289079 
L 396.143305 143.114604 
L 402.11745 140.394102 
L 402.11745 140.394102 
" clip-path="url(#pe861caf68d)" style="fill: none; stroke: #1f77b4; stroke-opacity: 0.5; stroke-width: 1.5"/>
    <path d="M 89.289912 268.69116 
L 100.208734 263.686341 
L 112.343392 258.156907 
L 135.36887 247.634625 
L 142.639811 244.335068 
L 153.529028 239.343485 
L 168.04914 232.738201 
L 174.092944 229.97507 
L 184.96481 224.991548 
L 195.837502 220.050131 
L 207.905735 214.534074 
L 228.393449 205.061879 
L 231.984274 203.158727 
L 234.356334 201.646835 
L 235.527553 200.719544 
L 236.687815 199.655752 
L 237.827487 198.337819 
L 238.944237 196.720849 
L 240.031463 194.705376 
L 241.082486 192.18116 
L 242.101671 189.163539 
L 245.122409 178.811988 
L 246.235642 176.502283 
L 247.46075 175.678304 
L 248.791508 176.381971 
L 250.195152 178.260729 
L 253.044648 183.174578 
L 254.430563 185.294127 
L 255.7747 186.884815 
L 257.081878 187.974881 
L 258.359274 188.640342 
L 259.612806 188.945045 
L 260.850392 189.002853 
L 262.076955 188.88474 
L 264.508061 188.274304 
L 268.129634 186.910913 
L 277.75288 182.641452 
L 290.970036 176.447607 
L 293.373651 174.986969 
L 294.577584 173.97366 
L 295.785261 172.62627 
L 297.001501 170.581518 
L 298.234623 167.400213 
L 299.500138 162.314875 
L 300.822033 154.360149 
L 302.224022 143.052053 
L 303.703072 129.641304 
L 305.178571 118.898312 
L 306.50756 116.845111 
L 307.616958 124.531462 
L 309.53194 147.767378 
L 310.530215 155.58622 
L 311.592531 160.286653 
L 312.704956 162.836384 
L 313.851264 164.059211 
L 315.020305 164.468507 
L 316.201288 164.467848 
L 317.390217 164.214774 
L 319.779239 163.371598 
L 328.168614 159.625621 
L 336.557791 155.797397 
L 396.371631 128.485714 
L 396.371631 128.485714 
" clip-path="url(#pe861caf68d)" style="fill: none; stroke: #1f77b4; stroke-opacity: 0.5; stroke-width: 1.5"/>
    <path d="M 83.711555 256.60836 
L 105.545709 246.65657 
L 160.011016 221.802012 
L 164.848526 219.613555 
L 172.092302 216.284866 
L 176.928721 214.110011 
L 184.168656 210.785939 
L 196.238057 205.298554 
L 203.471377 201.979055 
L 208.298298 199.810277 
L 213.115511 197.580868 
L 217.937782 195.399876 
L 222.750763 193.150868 
L 226.355146 191.416865 
L 229.939051 189.476105 
L 232.296811 187.839377 
L 233.45981 186.836827 
L 234.60438 185.615894 
L 235.731113 184.168476 
L 236.82496 182.308834 
L 237.885661 180.005115 
L 238.911437 177.204517 
L 240.878226 170.213406 
L 241.870649 166.608708 
L 242.93022 163.725197 
L 244.095755 162.143894 
L 245.376877 162.106023 
L 246.760796 163.561081 
L 248.19499 165.870713 
L 251.051736 170.844371 
L 252.422584 172.701142 
L 253.756447 174.104833 
L 255.051774 174.982625 
L 256.318433 175.453899 
L 257.567252 175.673057 
L 258.798058 175.608422 
L 261.23696 175.134166 
L 264.859903 173.822407 
L 270.874397 171.227323 
L 292.488164 161.241568 
L 294.89028 159.784589 
L 296.094093 158.769406 
L 297.302463 157.406458 
L 298.520157 155.417022 
L 299.75791 152.197099 
L 301.030556 147.166817 
L 302.365728 139.202225 
L 303.788567 127.789132 
L 305.294124 114.156402 
L 306.798255 102.838458 
L 308.140339 100.249591 
L 309.239625 107.713789 
L 311.094753 131.600106 
L 312.069837 139.723991 
L 313.113566 144.729716 
L 314.215394 147.42854 
L 315.35565 148.721625 
L 316.51866 149.229678 
L 317.698131 149.220725 
L 318.884483 148.995602 
L 320.075729 148.627789 
L 326.057514 146.089064 
L 330.849376 143.883779 
L 335.637608 141.71961 
L 340.426643 139.524055 
L 347.604624 136.274392 
L 352.392794 134.056655 
L 357.174048 131.902988 
L 361.959001 129.698585 
L 366.738952 127.531622 
L 373.911346 124.239599 
L 378.685155 122.096645 
L 383.466213 119.887141 
L 388.239263 117.729391 
L 390.625086 116.651694 
L 390.625086 116.651694 
" clip-path="url(#pe861caf68d)" style="fill: none; stroke: #1f77b4; stroke-opacity: 0.5; stroke-width: 1.5"/>
    <path d="M 78.158788 244.589244 
L 84.217441 241.813335 
L 122.980802 224.163007 
L 125.400592 223.060475 
L 130.227436 220.813226 
L 135.07698 218.653252 
L 137.489106 217.52831 
L 148.367887 212.573222 
L 153.200025 210.368455 
L 164.068768 205.413902 
L 171.305914 202.086566 
L 173.722111 200.999666 
L 185.78961 195.526526 
L 189.402962 193.85445 
L 201.459035 188.382146 
L 206.276877 186.178624 
L 213.505285 182.904272 
L 215.911406 181.791599 
L 225.51545 177.166745 
L 229.069745 174.952502 
L 231.388293 172.908194 
L 232.518575 171.547745 
L 233.621171 169.851151 
L 234.696297 167.798636 
L 235.723923 165.137978 
L 236.720486 162.019023 
L 239.664431 151.337298 
L 240.762389 148.973778 
L 241.988128 148.201187 
L 243.333198 149.031597 
L 244.755162 151.006134 
L 247.653668 156.194436 
L 249.059254 158.408335 
L 250.42041 160.099195 
L 251.736186 161.202653 
L 253.023369 161.939917 
L 254.281054 162.259075 
L 255.520955 162.324322 
L 256.750742 162.249107 
L 259.181393 161.641227 
L 262.800993 160.312607 
L 267.606604 158.171896 
L 270.009026 157.112377 
L 294.003424 146.081056 
L 296.404207 144.588108 
L 297.607556 143.611476 
L 298.816824 142.209397 
L 300.035773 140.262033 
L 301.277261 137.062933 
L 302.557611 132.006687 
L 303.904123 124.110234 
L 305.347734 112.563945 
L 306.879429 98.712094 
L 308.412048 86.877377 
L 309.770901 83.670898 
L 310.860776 90.941554 
L 312.657879 115.408079 
L 313.606832 123.921573 
L 314.634422 129.141566 
L 315.722589 132.072652 
L 316.85778 133.406151 
L 318.015258 133.994965 
L 319.191265 134.028226 
L 321.564839 133.463648 
L 327.540344 130.936874 
L 332.329201 128.709486 
L 334.720059 127.64892 
L 341.898279 124.349245 
L 344.288862 123.271377 
L 356.239391 117.847203 
L 361.019776 115.653074 
L 364.598894 114.060146 
L 369.3817 111.826281 
L 374.149792 109.713255 
L 376.540376 108.596795 
L 384.898823 104.747676 
L 384.898823 104.747676 
" clip-path="url(#pe861caf68d)" style="fill: none; stroke: #1f77b4; stroke-opacity: 0.5; stroke-width: 1.5"/>
    <path d="M 72.587002 232.516674 
L 77.451192 230.351158 
L 82.281772 228.099416 
L 84.714882 227.023908 
L 89.560257 224.818554 
L 96.832222 221.530441 
L 99.251955 220.42407 
L 105.29881 217.654782 
L 116.185251 212.69337 
L 123.434714 209.370693 
L 127.065127 207.733563 
L 131.89752 205.525889 
L 218.694643 165.968938 
L 224.665901 162.830941 
L 227.014021 161.158669 
L 228.172411 160.148006 
L 229.306774 158.871382 
L 230.425209 157.39785 
L 231.503614 155.455757 
L 232.546654 153.066521 
L 233.550829 150.161818 
L 236.430248 139.200927 
L 237.470303 136.242899 
L 238.631745 134.698566 
L 239.918066 134.718105 
L 241.321175 136.313329 
L 242.778512 138.75758 
L 245.681315 143.971406 
L 247.068979 145.907916 
L 248.415603 147.367542 
L 249.721128 148.30678 
L 250.992426 148.78827 
L 252.246663 149.053053 
L 254.702345 148.817047 
L 255.919204 148.544909 
L 260.741508 146.736277 
L 261.945692 146.27726 
L 264.346449 145.205836 
L 287.129216 134.868183 
L 290.723638 133.195285 
L 295.516081 130.897289 
L 297.915534 129.402856 
L 299.118201 128.469458 
L 300.327933 127.071643 
L 301.548682 125.103412 
L 302.792913 121.971223 
L 304.080582 116.892993 
L 305.438565 109.011267 
L 306.900546 97.428314 
L 308.459894 83.274386 
L 310.019884 71.007575 
L 311.398338 67.145025 
L 312.481081 74.184 
L 314.221238 99.198291 
L 315.142619 108.129882 
L 316.152971 113.589162 
L 317.22914 116.69482 
L 318.355828 118.160414 
L 319.510908 118.746585 
L 320.681155 118.876777 
L 323.052195 118.305955 
L 326.630863 116.86898 
L 329.022201 115.780097 
L 339.779412 110.881657 
L 346.949487 107.591355 
L 349.337629 106.511684 
L 355.306695 103.809892 
L 362.470628 100.52935 
L 364.857067 99.44585 
L 373.203065 95.689131 
L 375.589517 94.592638 
L 379.164308 92.984356 
L 379.164308 92.984356 
" clip-path="url(#pe861caf68d)" style="fill: none; stroke: #1f77b4; stroke-opacity: 0.5; stroke-width: 1.5"/>
    <path d="M 67.054492 220.54319 
L 71.889178 218.310154 
L 80.374273 214.476645 
L 85.208872 212.252559 
L 88.847554 210.623813 
L 100.939568 205.104311 
L 108.199685 201.821689 
L 113.024357 199.588056 
L 116.655648 197.958981 
L 129.945634 191.926399 
L 134.765187 189.691993 
L 138.391354 188.064404 
L 148.045223 183.677315 
L 170.953838 173.274165 
L 174.564111 171.610207 
L 219.057338 151.157256 
L 221.440184 149.867282 
L 223.798008 148.324491 
L 226.103159 146.222826 
L 227.226044 144.840533 
L 228.31571 143.079941 
L 229.37443 140.94234 
L 230.383389 138.200513 
L 231.353639 134.938945 
L 234.220509 123.915911 
L 235.3084 121.557967 
L 236.533282 120.811472 
L 237.892918 121.763168 
L 239.336408 123.876834 
L 242.282799 129.325955 
L 243.706375 131.615302 
L 245.08297 133.383348 
L 246.410192 134.551569 
L 247.703364 135.301385 
L 248.967503 135.674552 
L 250.208905 135.738477 
L 251.440487 135.678512 
L 253.870781 135.078114 
L 256.282831 134.207986 
L 258.688257 133.243032 
L 270.680452 127.892155 
L 275.472924 125.703152 
L 286.252082 120.802207 
L 298.223899 115.09416 
L 300.626314 113.327628 
L 301.835907 111.973455 
L 303.058517 109.977028 
L 304.305526 106.883389 
L 305.599317 101.832231 
L 306.968855 93.929452 
L 308.44795 82.334249 
L 310.034029 67.915522 
L 311.623208 55.166832 
L 313.021287 50.715905 
L 314.101255 57.415701 
L 315.784305 82.989616 
L 316.677692 92.335096 
L 317.66915 98.072101 
L 318.734217 101.32168 
L 319.85166 102.933094 
L 321.003027 103.550479 
L 322.170073 103.712615 
L 323.351662 103.495944 
L 325.726686 102.743894 
L 353.178858 90.381084 
L 357.954729 88.159872 
L 361.53156 86.542698 
L 365.105857 84.942977 
L 373.454149 81.105215 
L 373.454149 81.105215 
" clip-path="url(#pe861caf68d)" style="fill: none; stroke: #1f77b4; stroke-opacity: 0.5; stroke-width: 1.5"/>
   </g>
  </g>
 </g>
 <defs>
  <clipPath id="pe861caf68d">
   <rect x="7.2" y="7.2" width="554.4" height="554.4"/>
  </clipPath>
 </defs>
</svg>