<?xml version="1.0" encoding="utf-8" standalone="no"?>
<!DOCTYPE svg PUBLIC "-//W3C//DTD SVG 1.1//EN"
  "http://www.w3.org/Graphics/SVG/1.1/DTD/svg11.dtd">
<svg xmlns:xlink="http://www.w3.org/1999/xlink" width="449.28pt" height="334.08pt" viewBox="0 0 449.28 334.08" xmlns="http://www.w3.org/2000/svg" version="1.1">
 <metadata>
  <rdf:RDF xmlns:dc="http://purl.org/dc/elements/1.1/" xmlns:cc="http://creativecommons.org/ns#" xmlns:rdf="http://www.w3.org/1999/02/22-rdf-syntax-ns#">
   <cc:Work>
    <dc:type rdf:resource="http://purl.org/dc/dcmitype/StillImage"/>
    <dc:date>2025-03-03T21:32:18.569302</dc:date>
    <dc:format>image/svg+xml</dc:format>
    <dc:creator>
     <cc:Agent>
      <dc:title>Matplotlib v3.10.1, https://matplotlib.org/</dc:title>
     </cc:Agent>
    </dc:creator>
   </cc:Work>
  </rdf:RDF>
 </metadata>
 <defs>
  <style type="text/css">*{stroke-linejoin: round; stroke-linecap: butt}</style>
 </defs>
 <g id="figure_1">
  <g id="patch_1">
   <path d="M 0 334.08 
L 449.28 334.08 
L 449.28 0 
L 0 0 
z
" style="fill: #ffffff"/>
  </g>
  <g id="axes_1">
   <g id="patch_2">
    <path d="M 60.35375 292.6525 
L 442.08 292.6525 
L 442.08 11.759062 
L 60.35375 11.759062 
z
" style="fill: #ffffff"/>
   </g>
   <g id="matplotlib.axis_1">
    <g id="xtick_1">
     <g id="line2d_1">
      <defs>
       <path id="m97a23e0fd5" d="M 0 0 
L 0 3.5 
" style="stroke: #000000; stroke-width: 0.8"/>
      </defs>
      <g>
       <use xlink:href="#m97a23e0fd5" x="68.956016" y="292.6525" style="fill-opacity: 0; stroke: #000000; stroke-width: 0.8"/>
      </g>
     </g>
     <g id="text_1">
      <!-- −3 -->
      <g transform="translate(60.110704 308.770625) scale(0.12 -0.12)">
       <defs>
        <path id="DejaVuSerif-2212" d="M 678 2259 
L 4684 2259 
L 4684 1753 
L 678 1753 
L 678 2259 
z
" transform="scale(0.015625)"/>
        <path id="DejaVuSerif-33" d="M 622 4469 
Q 988 4606 1323 4678 
Q 1659 4750 1953 4750 
Q 2638 4750 3022 4454 
Q 3406 4159 3406 3634 
Q 3406 3213 3140 2930 
Q 2875 2647 2388 2547 
Q 2963 2466 3280 2130 
Q 3597 1794 3597 1259 
Q 3597 606 3158 257 
Q 2719 -91 1894 -91 
Q 1528 -91 1179 -12 
Q 831 66 488 225 
L 488 1131 
L 838 1131 
Q 869 681 1141 450 
Q 1413 219 1906 219 
Q 2384 219 2661 495 
Q 2938 772 2938 1253 
Q 2938 1803 2653 2086 
Q 2369 2369 1819 2369 
L 1522 2369 
L 1522 2688 
L 1678 2688 
Q 2225 2688 2498 2914 
Q 2772 3141 2772 3597 
Q 2772 4006 2547 4223 
Q 2322 4441 1900 4441 
Q 1478 4441 1245 4241 
Q 1013 4041 972 3647 
L 622 3647 
L 622 4469 
z
" transform="scale(0.015625)"/>
       </defs>
       <use xlink:href="#DejaVuSerif-2212"/>
       <use xlink:href="#DejaVuSerif-33" transform="translate(83.789062 0)"/>
      </g>
     </g>
    </g>
    <g id="xtick_2">
     <g id="line2d_2">
      <g>
       <use xlink:href="#m97a23e0fd5" x="129.709636" y="292.6525" style="fill-opacity: 0; stroke: #000000; stroke-width: 0.8"/>
      </g>
     </g>
     <g id="text_2">
      <!-- −2 -->
      <g transform="translate(120.864323 308.770625) scale(0.12 -0.12)">
       <defs>
        <path id="DejaVuSerif-32" d="M 819 3553 
L 469 3553 
L 469 4384 
Q 803 4563 1142 4656 
Q 1481 4750 1806 4750 
Q 2534 4750 2956 4397 
Q 3378 4044 3378 3438 
Q 3378 2753 2422 1800 
Q 2347 1728 2309 1691 
L 1131 513 
L 3078 513 
L 3078 1088 
L 3444 1088 
L 3444 0 
L 434 0 
L 434 341 
L 1850 1753 
Q 2319 2222 2519 2614 
Q 2719 3006 2719 3438 
Q 2719 3909 2473 4175 
Q 2228 4441 1797 4441 
Q 1350 4441 1106 4219 
Q 863 3997 819 3553 
z
" transform="scale(0.015625)"/>
       </defs>
       <use xlink:href="#DejaVuSerif-2212"/>
       <use xlink:href="#DejaVuSerif-32" transform="translate(83.789062 0)"/>
      </g>
     </g>
    </g>
    <g id="xtick_3">
     <g id="line2d_3">
      <g>
       <use xlink:href="#m97a23e0fd5" x="190.463255" y="292.6525" style="fill-opacity: 0; stroke: #000000; stroke-width: 0.8"/>
      </g>
     </g>
     <g id="text_3">
      <!-- −1 -->
      <g transform="translate(181.617943 308.770625) scale(0.12 -0.12)">
       <defs>
        <path id="DejaVuSerif-31" d="M 909 0 
L 909 331 
L 1722 331 
L 1722 4213 
L 781 3603 
L 781 4013 
L 1919 4750 
L 2350 4750 
L 2350 331 
L 3163 331 
L 3163 0 
L 909 0 
z
" transform="scale(0.015625)"/>
       </defs>
       <use xlink:href="#DejaVuSerif-2212"/>
       <use xlink:href="#DejaVuSerif-31" transform="translate(83.789062 0)"/>
      </g>
     </g>
    </g>
    <g id="xtick_4">
     <g id="line2d_4">
      <g>
       <use xlink:href="#m97a23e0fd5" x="251.216875" y="292.6525" style="fill-opacity: 0; stroke: #000000; stroke-width: 0.8"/>
      </g>
     </g>
     <g id="text_4">
      <!-- 0 -->
      <g transform="translate(247.399375 308.770625) scale(0.12 -0.12)">
       <defs>
        <path id="DejaVuSerif-30" d="M 2034 219 
Q 2513 219 2750 744 
Q 2988 1269 2988 2328 
Q 2988 3391 2750 3916 
Q 2513 4441 2034 4441 
Q 1556 4441 1318 3916 
Q 1081 3391 1081 2328 
Q 1081 1269 1318 744 
Q 1556 219 2034 219 
z
M 2034 -91 
Q 1275 -91 848 546 
Q 422 1184 422 2328 
Q 422 3475 848 4112 
Q 1275 4750 2034 4750 
Q 2797 4750 3222 4112 
Q 3647 3475 3647 2328 
Q 3647 1184 3222 546 
Q 2797 -91 2034 -91 
z
" transform="scale(0.015625)"/>
       </defs>
       <use xlink:href="#DejaVuSerif-30"/>
      </g>
     </g>
    </g>
    <g id="xtick_5">
     <g id="line2d_5">
      <g>
       <use xlink:href="#m97a23e0fd5" x="311.970495" y="292.6525" style="fill-opacity: 0; stroke: #000000; stroke-width: 0.8"/>
      </g>
     </g>
     <g id="text_5">
      <!-- 1 -->
      <g transform="translate(308.152995 308.770625) scale(0.12 -0.12)">
       <use xlink:href="#DejaVuSerif-31"/>
      </g>
     </g>
    </g>
    <g id="xtick_6">
     <g id="line2d_6">
      <g>
       <use xlink:href="#m97a23e0fd5" x="372.724114" y="292.6525" style="fill-opacity: 0; stroke: #000000; stroke-width: 0.8"/>
      </g>
     </g>
     <g id="text_6">
      <!-- 2 -->
      <g transform="translate(368.906614 308.770625) scale(0.12 -0.12)">
       <use xlink:href="#DejaVuSerif-32"/>
      </g>
     </g>
    </g>
    <g id="xtick_7">
     <g id="line2d_7">
      <g>
       <use xlink:href="#m97a23e0fd5" x="433.477734" y="292.6525" style="fill-opacity: 0; stroke: #000000; stroke-width: 0.8"/>
      </g>
     </g>
     <g id="text_7">
      <!-- 3 -->
      <g transform="translate(429.660234 308.770625) scale(0.12 -0.12)">
       <use xlink:href="#DejaVuSerif-33"/>
      </g>
     </g>
    </g>
    <g id="text_8">
     <!-- x -->
     <g transform="translate(247.833438 324.384375) scale(0.12 -0.12)">
      <defs>
       <path id="DejaVuSerif-78" d="M 1863 2028 
L 2559 2988 
L 2113 2988 
L 2113 3322 
L 3391 3322 
L 3391 2988 
L 2950 2988 
L 2059 1759 
L 3097 331 
L 3531 331 
L 3531 0 
L 1997 0 
L 1997 331 
L 2419 331 
L 1697 1325 
L 972 331 
L 1403 331 
L 1403 0 
L 141 0 
L 141 331 
L 581 331 
L 1497 1594 
L 488 2988 
L 78 2988 
L 78 3322 
L 1563 3322 
L 1563 2988 
L 1166 2988 
L 1863 2028 
z
" transform="scale(0.015625)"/>
      </defs>
      <use xlink:href="#DejaVuSerif-78"/>
     </g>
    </g>
   </g>
   <g id="matplotlib.axis_2">
    <g id="ytick_1">
     <g id="line2d_8">
      <defs>
       <path id="m01544c352d" d="M 0 0 
L -3.5 0 
" style="stroke: #000000; stroke-width: 0.8"/>
      </defs>
      <g>
       <use xlink:href="#m01544c352d" x="60.35375" y="292.6525" style="fill-opacity: 0; stroke: #000000; stroke-width: 0.8"/>
      </g>
     </g>
     <g id="text_9">
      <!-- 0 -->
      <g transform="translate(45.71875 297.211562) scale(0.12 -0.12)">
       <use xlink:href="#DejaVuSerif-30"/>
      </g>
     </g>
    </g>
    <g id="ytick_2">
     <g id="line2d_9">
      <g>
       <use xlink:href="#m01544c352d" x="60.35375" y="257.54082" style="fill-opacity: 0; stroke: #000000; stroke-width: 0.8"/>
      </g>
     </g>
     <g id="text_10">
      <!-- 250 -->
      <g transform="translate(30.44875 262.099883) scale(0.12 -0.12)">
       <defs>
        <path id="DejaVuSerif-35" d="M 3219 4666 
L 3219 4153 
L 1081 4153 
L 1081 2816 
Q 1244 2928 1461 2984 
Q 1678 3041 1947 3041 
Q 2703 3041 3140 2622 
Q 3578 2203 3578 1478 
Q 3578 738 3136 323 
Q 2694 -91 1894 -91 
Q 1572 -91 1234 -12 
Q 897 66 544 225 
L 544 1131 
L 897 1131 
Q 925 688 1179 453 
Q 1434 219 1894 219 
Q 2388 219 2653 544 
Q 2919 869 2919 1478 
Q 2919 2084 2655 2407 
Q 2391 2731 1894 2731 
Q 1613 2731 1398 2631 
Q 1184 2531 1019 2322 
L 750 2322 
L 750 4666 
L 3219 4666 
z
" transform="scale(0.015625)"/>
       </defs>
       <use xlink:href="#DejaVuSerif-32"/>
       <use xlink:href="#DejaVuSerif-35" transform="translate(63.623047 0)"/>
       <use xlink:href="#DejaVuSerif-30" transform="translate(127.246094 0)"/>
      </g>
     </g>
    </g>
    <g id="ytick_3">
     <g id="line2d_10">
      <g>
       <use xlink:href="#m01544c352d" x="60.35375" y="222.429141" style="fill-opacity: 0; stroke: #000000; stroke-width: 0.8"/>
      </g>
     </g>
     <g id="text_11">
      <!-- 500 -->
      <g transform="translate(30.44875 226.988203) scale(0.12 -0.12)">
       <use xlink:href="#DejaVuSerif-35"/>
       <use xlink:href="#DejaVuSerif-30" transform="translate(63.623047 0)"/>
       <use xlink:href="#DejaVuSerif-30" transform="translate(127.246094 0)"/>
      </g>
     </g>
    </g>
    <g id="ytick_4">
     <g id="line2d_11">
      <g>
       <use xlink:href="#m01544c352d" x="60.35375" y="187.317461" style="fill-opacity: 0; stroke: #000000; stroke-width: 0.8"/>
      </g>
     </g>
     <g id="text_12">
      <!-- 750 -->
      <g transform="translate(30.44875 191.876523) scale(0.12 -0.12)">
       <defs>
        <path id="DejaVuSerif-37" d="M 3609 4347 
L 1784 0 
L 1319 0 
L 3059 4153 
L 903 4153 
L 903 3578 
L 538 3578 
L 538 4666 
L 3609 4666 
L 3609 4347 
z
" transform="scale(0.015625)"/>
       </defs>
       <use xlink:href="#DejaVuSerif-37"/>
       <use xlink:href="#DejaVuSerif-35" transform="translate(63.623047 0)"/>
       <use xlink:href="#DejaVuSerif-30" transform="translate(127.246094 0)"/>
      </g>
     </g>
    </g>
    <g id="ytick_5">
     <g id="line2d_12">
      <g>
       <use xlink:href="#m01544c352d" x="60.35375" y="152.205781" style="fill-opacity: 0; stroke: #000000; stroke-width: 0.8"/>
      </g>
     </g>
     <g id="text_13">
      <!-- 1000 -->
      <g transform="translate(22.81375 156.764844) scale(0.12 -0.12)">
       <use xlink:href="#DejaVuSerif-31"/>
       <use xlink:href="#DejaVuSerif-30" transform="translate(63.623047 0)"/>
       <use xlink:href="#DejaVuSerif-30" transform="translate(127.246094 0)"/>
       <use xlink:href="#DejaVuSerif-30" transform="translate(190.869141 0)"/>
      </g>
     </g>
    </g>
    <g id="ytick_6">
     <g id="line2d_13">
      <g>
       <use xlink:href="#m01544c352d" x="60.35375" y="117.094102" style="fill-opacity: 0; stroke: #000000; stroke-width: 0.8"/>
      </g>
     </g>
     <g id="text_14">
      <!-- 1250 -->
      <g transform="translate(22.81375 121.653164) scale(0.12 -0.12)">
       <use xlink:href="#DejaVuSerif-31"/>
       <use xlink:href="#DejaVuSerif-32" transform="translate(63.623047 0)"/>
       <use xlink:href="#DejaVuSerif-35" transform="translate(127.246094 0)"/>
       <use xlink:href="#DejaVuSerif-30" transform="translate(190.869141 0)"/>
      </g>
     </g>
    </g>
    <g id="ytick_7">
     <g id="line2d_14">
      <g>
       <use xlink:href="#m01544c352d" x="60.35375" y="81.982422" style="fill-opacity: 0; stroke: #000000; stroke-width: 0.8"/>
      </g>
     </g>
     <g id="text_15">
      <!-- 1500 -->
      <g transform="translate(22.81375 86.541484) scale(0.12 -0.12)">
       <use xlink:href="#DejaVuSerif-31"/>
       <use xlink:href="#DejaVuSerif-35" transform="translate(63.623047 0)"/>
       <use xlink:href="#DejaVuSerif-30" transform="translate(127.246094 0)"/>
       <use xlink:href="#DejaVuSerif-30" transform="translate(190.869141 0)"/>
      </g>
     </g>
    </g>
    <g id="ytick_8">
     <g id="line2d_15">
      <g>
       <use xlink:href="#m01544c352d" x="60.35375" y="46.870742" style="fill-opacity: 0; stroke: #000000; stroke-width: 0.8"/>
      </g>
     </g>
     <g id="text_16">
      <!-- 1750 -->
      <g transform="translate(22.81375 51.429805) scale(0.12 -0.12)">
       <use xlink:href="#DejaVuSerif-31"/>
       <use xlink:href="#DejaVuSerif-37" transform="translate(63.623047 0)"/>
       <use xlink:href="#DejaVuSerif-35" transform="translate(127.246094 0)"/>
       <use xlink:href="#DejaVuSerif-30" transform="translate(190.869141 0)"/>
      </g>
     </g>
    </g>
    <g id="ytick_9">
     <g id="line2d_16">
      <g>
       <use xlink:href="#m01544c352d" x="60.35375" y="11.759062" style="fill-opacity: 0; stroke: #000000; stroke-width: 0.8"/>
      </g>
     </g>
     <g id="text_17">
      <!-- 2000 -->
      <g transform="translate(22.81375 16.318125) scale(0.12 -0.12)">
       <use xlink:href="#DejaVuSerif-32"/>
       <use xlink:href="#DejaVuSerif-30" transform="translate(63.623047 0)"/>
       <use xlink:href="#DejaVuSerif-30" transform="translate(127.246094 0)"/>
       <use xlink:href="#DejaVuSerif-30" transform="translate(190.869141 0)"/>
      </g>
     </g>
    </g>
    <g id="text_18">
     <!-- u -->
     <g transform="translate(16.318125 156.070156) rotate(-90) scale(0.12 -0.12)">
      <defs>
       <path id="DejaVuSerif-75" d="M 2266 3322 
L 3341 3322 
L 3341 331 
L 3884 331 
L 3884 0 
L 2766 0 
L 2766 588 
Q 2606 256 2353 82 
Q 2100 -91 1766 -91 
Q 1213 -91 952 223 
Q 691 538 691 1209 
L 691 2988 
L 172 2988 
L 172 3322 
L 1269 3322 
L 1269 1388 
Q 1269 781 1417 556 
Q 1566 331 1947 331 
Q 2347 331 2556 625 
Q 2766 919 2766 1478 
L 2766 2988 
L 2266 2988 
L 2266 3322 
z
" transform="scale(0.015625)"/>
      </defs>
      <use xlink:href="#DejaVuSerif-75"/>
     </g>
    </g>
   </g>
   <g id="line2d_17">
    <path d="M 60.35375 292.746784 
L 61.844868 292.608515 
L 70.791577 292.541283 
L 72.282695 292.770128 
L 73.773813 292.569216 
L 76.75605 292.713174 
L 78.247168 292.562858 
L 79.738286 292.726978 
L 82.720522 292.592911 
L 84.211641 292.76082 
L 85.702759 292.548516 
L 87.193877 292.722797 
L 90.176113 292.581977 
L 91.667231 292.766067 
L 93.15835 292.576807 
L 96.140586 292.709064 
L 97.631704 292.553417 
L 99.122822 292.753865 
L 100.61394 292.602162 
L 103.596177 292.738449 
L 105.087295 292.542033 
L 106.578413 292.738533 
L 109.560649 292.619521 
L 111.051768 292.731904 
L 112.542886 292.576893 
L 115.525122 292.695567 
L 117.01624 292.542893 
L 118.507358 292.760267 
L 119.998477 292.565679 
L 122.980713 292.700367 
L 124.471831 292.557252 
L 125.962949 292.708366 
L 128.945186 292.57875 
L 130.436304 292.753758 
L 131.927422 292.525764 
L 133.41854 292.708675 
L 136.400776 292.576262 
L 137.891895 292.720844 
L 139.383013 292.597401 
L 142.365249 292.729819 
L 143.856367 292.516565 
L 145.347485 292.735465 
L 146.838604 292.600236 
L 154.294194 292.682414 
L 155.785313 292.551115 
L 157.276431 292.734475 
L 158.767549 292.566428 
L 161.749785 292.675938 
L 163.240903 292.553859 
L 164.732021 292.701788 
L 167.714258 292.585377 
L 169.205376 292.726585 
L 170.696494 292.543426 
L 172.187612 292.686859 
L 175.169849 292.566953 
L 176.660967 292.724379 
L 178.152085 292.575367 
L 181.134321 292.693367 
L 182.625439 292.562317 
L 184.116558 292.701667 
L 187.098794 292.588573 
L 188.589912 292.739874 
L 190.08103 292.53848 
L 191.572148 292.717445 
L 194.554385 292.617969 
L 196.045503 292.701755 
L 199.027739 292.622835 
L 200.518857 292.729354 
L 202.009976 292.540224 
L 203.501094 292.740846 
L 204.992212 292.600448 
L 212.447803 292.686151 
L 213.938921 292.54438 
L 215.430039 292.766387 
L 216.921157 292.549162 
L 218.412275 292.675594 
L 219.903394 292.677743 
L 221.394512 292.567701 
L 222.88563 292.710678 
L 225.867866 292.589537 
L 227.358984 292.740107 
L 228.850103 292.51479 
L 230.341221 292.706786 
L 233.323457 292.555505 
L 234.814575 292.711506 
L 236.305693 292.511234 
L 239.28793 292.593279 
L 240.779048 292.420647 
L 242.270166 292.533129 
L 245.252402 292.187583 
L 246.743521 292.089713 
L 248.234639 291.599983 
L 249.725757 291.31314 
L 251.216875 290.592464 
L 252.707993 289.548677 
L 254.199111 288.294482 
L 255.690229 286.045638 
L 257.181348 283.158671 
L 258.672466 278.919848 
L 260.163584 272.786248 
L 261.654702 264.789714 
L 263.14582 253.828166 
L 264.636938 240.384807 
L 269.110293 194.872284 
L 270.601411 186.287788 
L 272.092529 185.415112 
L 273.583647 192.638007 
L 275.074766 205.463031 
L 278.057002 237.328915 
L 279.54812 251.307173 
L 281.039238 262.790765 
L 282.530356 271.341264 
L 284.021475 277.827447 
L 285.512593 282.439322 
L 287.003711 285.50399 
L 288.494829 287.947064 
L 289.985947 289.302185 
L 291.477065 290.41778 
L 292.968184 291.198421 
L 294.459302 291.530103 
L 295.95042 292.014129 
L 300.423774 292.532385 
L 301.914893 292.381518 
L 303.406011 292.614517 
L 306.388247 292.540779 
L 307.879365 292.694491 
L 309.370483 292.55203 
L 312.35272 292.677455 
L 313.843838 292.541149 
L 315.334956 292.726943 
L 316.826074 292.58394 
L 319.808311 292.697514 
L 321.299429 292.548593 
L 322.790547 292.704683 
L 325.772783 292.594108 
L 327.263901 292.71657 
L 328.75502 292.548176 
L 330.246138 292.683099 
L 333.228374 292.555446 
L 334.719492 292.729375 
L 336.21061 292.551657 
L 339.192847 292.634226 
L 340.683965 292.428718 
L 342.175083 292.497398 
L 345.157319 291.848797 
L 346.648438 291.365442 
L 348.139556 290.008034 
L 349.630674 288.06571 
L 351.121792 284.135951 
L 352.61291 277.118161 
L 354.104028 264.878104 
L 355.595146 243.473004 
L 357.086265 209.13584 
L 358.577383 158.925976 
L 360.068501 98.083117 
L 361.559619 46.514457 
L 363.050737 30.496764 
L 364.541855 60.805905 
L 367.524092 177.079354 
L 369.01521 222.345915 
L 370.506328 251.729109 
L 371.997446 269.715042 
L 373.488564 280.012296 
L 374.979683 285.582254 
L 376.470801 288.974165 
L 377.961919 290.546908 
L 379.453037 291.499214 
L 380.944155 292.158307 
L 382.435273 292.201508 
L 383.926392 292.559371 
L 386.908628 292.516598 
L 388.399746 292.746763 
L 389.890864 292.542135 
L 392.873101 292.713099 
L 394.364219 292.524821 
L 395.855337 292.778998 
L 397.346455 292.574143 
L 400.328691 292.741433 
L 401.81981 292.526728 
L 403.310928 292.738748 
L 406.293164 292.5769 
L 407.784282 292.76861 
L 409.2754 292.539733 
L 410.766519 292.699961 
L 412.257637 292.692081 
L 413.748755 292.548598 
L 415.239873 292.777899 
L 416.730991 292.57877 
L 419.713228 292.740357 
L 421.204346 292.539567 
L 422.695464 292.746918 
L 425.6777 292.588983 
L 427.168818 292.769336 
L 428.659937 292.537342 
L 430.151055 292.718528 
L 433.133291 292.578368 
L 434.624409 292.745648 
L 436.115527 292.598264 
L 439.097764 292.744555 
L 440.588882 292.522746 
L 440.588882 292.522746 
" clip-path="url(#p87459f2c8b)" style="fill: none; stroke: #1f77b4; stroke-width: 2; stroke-linecap: square"/>
   </g>
   <g id="patch_3">
    <path d="M 60.35375 292.6525 
L 60.35375 11.759062 
" style="fill: none; stroke: #000000; stroke-width: 0.8; stroke-linejoin: miter; stroke-linecap: square"/>
   </g>
   <g id="patch_4">
    <path d="M 442.08 292.6525 
L 442.08 11.759062 
" style="fill: none; stroke: #000000; stroke-width: 0.8; stroke-linejoin: miter; stroke-linecap: square"/>
   </g>
   <g id="patch_5">
    <path d="M 60.35375 292.6525 
L 442.08 292.6525 
" style="fill: none; stroke: #000000; stroke-width: 0.8; stroke-linejoin: miter; stroke-linecap: square"/>
   </g>
   <g id="patch_6">
    <path d="M 60.35375 11.759062 
L 442.08 11.759062 
" style="fill: none; stroke: #000000; stroke-width: 0.8; stroke-linejoin: miter; stroke-linecap: square"/>
   </g>
  </g>
 </g>
 <defs>
  <clipPath id="p87459f2c8b">
   <rect x="60.35375" y="11.759062" width="381.72625" height="280.893438"/>
  </clipPath>
 </defs>
</svg>