<?xml version="1.0" encoding="utf-8" standalone="no"?>
<!DOCTYPE svg PUBLIC "-//W3C//DTD SVG 1.1//EN"
  "http://www.w3.org/Graphics/SVG/1.1/DTD/svg11.dtd">
<svg xmlns:xlink="http://www.w3.org/1999/xlink" width="564.48pt" height="276.48pt" viewBox="0 0 564.48 276.48" xmlns="http://www.w3.org/2000/svg" version="1.1">
 <metadata>
  <rdf:RDF xmlns:dc="http://purl.org/dc/elements/1.1/" xmlns:cc="http://creativecommons.org/ns#" xmlns:rdf="http://www.w3.org/1999/02/22-rdf-syntax-ns#">
   <cc:Work>
    <dc:type rdf:resource="http://purl.org/dc/dcmitype/StillImage"/>
    <dc:date>2025-03-03T21:32:16.008198</dc:date>
    <dc:format>image/svg+xml</dc:format>
    <dc:creator>
     <cc:Agent>
      <dc:title>Matplotlib v3.10.1, https://matplotlib.org/</dc:title>
     </cc:Agent>
    </dc:creator>
   </cc:Work>
  </rdf:RDF>
 </metadata>
 <defs>
  <style type="text/css">*{stroke-linejoin: round; stroke-linecap: butt}</style>
 </defs>
 <g id="figure_1">
  <g id="patch_1">
   <path d="M 0 276.48 
L 564.48 276.48 
L 564.48 0 
L 0 0 
z
" style="fill: #ffffff"/>
  </g>
  <g id="axes_1">
   <g id="patch_2">
    <path d="M 50.974375 250.66625 
L 543.920625 250.66625 
L 543.920625 24.14175 
L 50.974375 24.14175 
z
" style="fill: #ffffff"/>
   </g>
   <g id="matplotlib.axis_1">
    <g id="xtick_1">
     <g id="line2d_1">
      <defs>
       <path id="mfa72cbc282" d="M 0 0 
L 0 3.5 
" style="stroke: #000000; stroke-width: 0.8"/>
      </defs>
      <g>
       <use xlink:href="#mfa72cbc282" x="50.974375" y="250.66625" style="fill-opacity: 0; stroke: #000000; stroke-width: 0.8"/>
      </g>
     </g>
     <g id="text_1">
      <!-- −1.00 -->
      <g transform="translate(32.587188 266.784375) scale(0.12 -0.12)">
       <defs>
        <path id="DejaVuSerif-2212" d="M 678 2259 
L 4684 2259 
L 4684 1753 
L 678 1753 
L 678 2259 
z
" transform="scale(0.015625)"/>
        <path id="DejaVuSerif-31" d="M 909 0 
L 909 331 
L 1722 331 
L 1722 4213 
L 781 3603 
L 781 4013 
L 1919 4750 
L 2350 4750 
L 2350 331 
L 3163 331 
L 3163 0 
L 909 0 
z
" transform="scale(0.015625)"/>
        <path id="DejaVuSerif-2e" d="M 603 325 
Q 603 500 722 622 
Q 841 744 1019 744 
Q 1191 744 1312 622 
Q 1434 500 1434 325 
Q 1434 153 1312 31 
Q 1191 -91 1019 -91 
Q 841 -91 722 29 
Q 603 150 603 325 
z
" transform="scale(0.015625)"/>
        <path id="DejaVuSerif-30" d="M 2034 219 
Q 2513 219 2750 744 
Q 2988 1269 2988 2328 
Q 2988 3391 2750 3916 
Q 2513 4441 2034 4441 
Q 1556 4441 1318 3916 
Q 1081 3391 1081 2328 
Q 1081 1269 1318 744 
Q 1556 219 2034 219 
z
M 2034 -91 
Q 1275 -91 848 546 
Q 422 1184 422 2328 
Q 422 3475 848 4112 
Q 1275 4750 2034 4750 
Q 2797 4750 3222 4112 
Q 3647 3475 3647 2328 
Q 3647 1184 3222 546 
Q 2797 -91 2034 -91 
z
" transform="scale(0.015625)"/>
       </defs>
       <use xlink:href="#DejaVuSerif-2212"/>
       <use xlink:href="#DejaVuSerif-31" transform="translate(83.789062 0)"/>
       <use xlink:href="#DejaVuSerif-2e" transform="translate(147.412109 0)"/>
       <use xlink:href="#DejaVuSerif-30" transform="translate(179.199219 0)"/>
       <use xlink:href="#DejaVuSerif-30" transform="translate(242.822266 0)"/>
      </g>
     </g>
    </g>
    <g id="xtick_2">
     <g id="line2d_2">
      <g>
       <use xlink:href="#mfa72cbc282" x="112.592656" y="250.66625" style="fill-opacity: 0; stroke: #000000; stroke-width: 0.8"/>
      </g>
     </g>
     <g id="text_2">
      <!-- −0.75 -->
      <g transform="translate(94.205469 266.784375) scale(0.12 -0.12)">
       <defs>
        <path id="DejaVuSerif-37" d="M 3609 4347 
L 1784 0 
L 1319 0 
L 3059 4153 
L 903 4153 
L 903 3578 
L 538 3578 
L 538 4666 
L 3609 4666 
L 3609 4347 
z
" transform="scale(0.015625)"/>
        <path id="DejaVuSerif-35" d="M 3219 4666 
L 3219 4153 
L 1081 4153 
L 1081 2816 
Q 1244 2928 1461 2984 
Q 1678 3041 1947 3041 
Q 2703 3041 3140 2622 
Q 3578 2203 3578 1478 
Q 3578 738 3136 323 
Q 2694 -91 1894 -91 
Q 1572 -91 1234 -12 
Q 897 66 544 225 
L 544 1131 
L 897 1131 
Q 925 688 1179 453 
Q 1434 219 1894 219 
Q 2388 219 2653 544 
Q 2919 869 2919 1478 
Q 2919 2084 2655 2407 
Q 2391 2731 1894 2731 
Q 1613 2731 1398 2631 
Q 1184 2531 1019 2322 
L 750 2322 
L 750 4666 
L 3219 4666 
z
" transform="scale(0.015625)"/>
       </defs>
       <use xlink:href="#DejaVuSerif-2212"/>
       <use xlink:href="#DejaVuSerif-30" transform="translate(83.789062 0)"/>
       <use xlink:href="#DejaVuSerif-2e" transform="translate(147.412109 0)"/>
       <use xlink:href="#DejaVuSerif-37" transform="translate(179.199219 0)"/>
       <use xlink:href="#DejaVuSerif-35" transform="translate(242.822266 0)"/>
      </g>
     </g>
    </g>
    <g id="xtick_3">
     <g id="line2d_3">
      <g>
       <use xlink:href="#mfa72cbc282" x="174.210938" y="250.66625" style="fill-opacity: 0; stroke: #000000; stroke-width: 0.8"/>
      </g>
     </g>
     <g id="text_3">
      <!-- −0.50 -->
      <g transform="translate(155.82375 266.784375) scale(0.12 -0.12)">
       <use xlink:href="#DejaVuSerif-2212"/>
       <use xlink:href="#DejaVuSerif-30" transform="translate(83.789062 0)"/>
       <use xlink:href="#DejaVuSerif-2e" transform="translate(147.412109 0)"/>
       <use xlink:href="#DejaVuSerif-35" transform="translate(179.199219 0)"/>
       <use xlink:href="#DejaVuSerif-30" transform="translate(242.822266 0)"/>
      </g>
     </g>
    </g>
    <g id="xtick_4">
     <g id="line2d_4">
      <g>
       <use xlink:href="#mfa72cbc282" x="235.829219" y="250.66625" style="fill-opacity: 0; stroke: #000000; stroke-width: 0.8"/>
      </g>
     </g>
     <g id="text_4">
      <!-- −0.25 -->
      <g transform="translate(217.442031 266.784375) scale(0.12 -0.12)">
       <defs>
        <path id="DejaVuSerif-32" d="M 819 3553 
L 469 3553 
L 469 4384 
Q 803 4563 1142 4656 
Q 1481 4750 1806 4750 
Q 2534 4750 2956 4397 
Q 3378 4044 3378 3438 
Q 3378 2753 2422 1800 
Q 2347 1728 2309 1691 
L 1131 513 
L 3078 513 
L 3078 1088 
L 3444 1088 
L 3444 0 
L 434 0 
L 434 341 
L 1850 1753 
Q 2319 2222 2519 2614 
Q 2719 3006 2719 3438 
Q 2719 3909 2473 4175 
Q 2228 4441 1797 4441 
Q 1350 4441 1106 4219 
Q 863 3997 819 3553 
z
" transform="scale(0.015625)"/>
       </defs>
       <use xlink:href="#DejaVuSerif-2212"/>
       <use xlink:href="#DejaVuSerif-30" transform="translate(83.789062 0)"/>
       <use xlink:href="#DejaVuSerif-2e" transform="translate(147.412109 0)"/>
       <use xlink:href="#DejaVuSerif-32" transform="translate(179.199219 0)"/>
       <use xlink:href="#DejaVuSerif-35" transform="translate(242.822266 0)"/>
      </g>
     </g>
    </g>
    <g id="xtick_5">
     <g id="line2d_5">
      <g>
       <use xlink:href="#mfa72cbc282" x="297.4475" y="250.66625" style="fill-opacity: 0; stroke: #000000; stroke-width: 0.8"/>
      </g>
     </g>
     <g id="text_5">
      <!-- 0.00 -->
      <g transform="translate(284.088125 266.784375) scale(0.12 -0.12)">
       <use xlink:href="#DejaVuSerif-30"/>
       <use xlink:href="#DejaVuSerif-2e" transform="translate(63.623047 0)"/>
       <use xlink:href="#DejaVuSerif-30" transform="translate(95.410156 0)"/>
       <use xlink:href="#DejaVuSerif-30" transform="translate(159.033203 0)"/>
      </g>
     </g>
    </g>
    <g id="xtick_6">
     <g id="line2d_6">
      <g>
       <use xlink:href="#mfa72cbc282" x="359.065781" y="250.66625" style="fill-opacity: 0; stroke: #000000; stroke-width: 0.8"/>
      </g>
     </g>
     <g id="text_6">
      <!-- 0.25 -->
      <g transform="translate(345.706406 266.784375) scale(0.12 -0.12)">
       <use xlink:href="#DejaVuSerif-30"/>
       <use xlink:href="#DejaVuSerif-2e" transform="translate(63.623047 0)"/>
       <use xlink:href="#DejaVuSerif-32" transform="translate(95.410156 0)"/>
       <use xlink:href="#DejaVuSerif-35" transform="translate(159.033203 0)"/>
      </g>
     </g>
    </g>
    <g id="xtick_7">
     <g id="line2d_7">
      <g>
       <use xlink:href="#mfa72cbc282" x="420.684063" y="250.66625" style="fill-opacity: 0; stroke: #000000; stroke-width: 0.8"/>
      </g>
     </g>
     <g id="text_7">
      <!-- 0.50 -->
      <g transform="translate(407.324688 266.784375) scale(0.12 -0.12)">
       <use xlink:href="#DejaVuSerif-30"/>
       <use xlink:href="#DejaVuSerif-2e" transform="translate(63.623047 0)"/>
       <use xlink:href="#DejaVuSerif-35" transform="translate(95.410156 0)"/>
       <use xlink:href="#DejaVuSerif-30" transform="translate(159.033203 0)"/>
      </g>
     </g>
    </g>
    <g id="xtick_8">
     <g id="line2d_8">
      <g>
       <use xlink:href="#mfa72cbc282" x="482.302344" y="250.66625" style="fill-opacity: 0; stroke: #000000; stroke-width: 0.8"/>
      </g>
     </g>
     <g id="text_8">
      <!-- 0.75 -->
      <g transform="translate(468.942969 266.784375) scale(0.12 -0.12)">
       <use xlink:href="#DejaVuSerif-30"/>
       <use xlink:href="#DejaVuSerif-2e" transform="translate(63.623047 0)"/>
       <use xlink:href="#DejaVuSerif-37" transform="translate(95.410156 0)"/>
       <use xlink:href="#DejaVuSerif-35" transform="translate(159.033203 0)"/>
      </g>
     </g>
    </g>
    <g id="xtick_9">
     <g id="line2d_9">
      <g>
       <use xlink:href="#mfa72cbc282" x="543.920625" y="250.66625" style="fill-opacity: 0; stroke: #000000; stroke-width: 0.8"/>
      </g>
     </g>
     <g id="text_9">
      <!-- 1.00 -->
      <g transform="translate(530.56125 266.784375) scale(0.12 -0.12)">
       <use xlink:href="#DejaVuSerif-31"/>
       <use xlink:href="#DejaVuSerif-2e" transform="translate(63.623047 0)"/>
       <use xlink:href="#DejaVuSerif-30" transform="translate(95.410156 0)"/>
       <use xlink:href="#DejaVuSerif-30" transform="translate(159.033203 0)"/>
      </g>
     </g>
    </g>
   </g>
   <g id="matplotlib.axis_2">
    <g id="ytick_1">
     <g id="line2d_10">
      <defs>
       <path id="me79d2b4452" d="M 0 0 
L -3.5 0 
" style="stroke: #000000; stroke-width: 0.8"/>
      </defs>
      <g>
       <use xlink:href="#me79d2b4452" x="50.974375" y="245.833152" style="fill-opacity: 0; stroke: #000000; stroke-width: 0.8"/>
      </g>
     </g>
     <g id="text_10">
      <!-- −0.20 -->
      <g transform="translate(7.2 250.392214) scale(0.12 -0.12)">
       <use xlink:href="#DejaVuSerif-2212"/>
       <use xlink:href="#DejaVuSerif-30" transform="translate(83.789062 0)"/>
       <use xlink:href="#DejaVuSerif-2e" transform="translate(147.412109 0)"/>
       <use xlink:href="#DejaVuSerif-32" transform="translate(179.199219 0)"/>
       <use xlink:href="#DejaVuSerif-30" transform="translate(242.822266 0)"/>
      </g>
     </g>
    </g>
    <g id="ytick_2">
     <g id="line2d_11">
      <g>
       <use xlink:href="#me79d2b4452" x="50.974375" y="218.725826" style="fill-opacity: 0; stroke: #000000; stroke-width: 0.8"/>
      </g>
     </g>
     <g id="text_11">
      <!-- −0.15 -->
      <g transform="translate(7.2 223.284889) scale(0.12 -0.12)">
       <use xlink:href="#DejaVuSerif-2212"/>
       <use xlink:href="#DejaVuSerif-30" transform="translate(83.789062 0)"/>
       <use xlink:href="#DejaVuSerif-2e" transform="translate(147.412109 0)"/>
       <use xlink:href="#DejaVuSerif-31" transform="translate(179.199219 0)"/>
       <use xlink:href="#DejaVuSerif-35" transform="translate(242.822266 0)"/>
      </g>
     </g>
    </g>
    <g id="ytick_3">
     <g id="line2d_12">
      <g>
       <use xlink:href="#me79d2b4452" x="50.974375" y="191.618501" style="fill-opacity: 0; stroke: #000000; stroke-width: 0.8"/>
      </g>
     </g>
     <g id="text_12">
      <!-- −0.10 -->
      <g transform="translate(7.2 196.177564) scale(0.12 -0.12)">
       <use xlink:href="#DejaVuSerif-2212"/>
       <use xlink:href="#DejaVuSerif-30" transform="translate(83.789062 0)"/>
       <use xlink:href="#DejaVuSerif-2e" transform="translate(147.412109 0)"/>
       <use xlink:href="#DejaVuSerif-31" transform="translate(179.199219 0)"/>
       <use xlink:href="#DejaVuSerif-30" transform="translate(242.822266 0)"/>
      </g>
     </g>
    </g>
    <g id="ytick_4">
     <g id="line2d_13">
      <g>
       <use xlink:href="#me79d2b4452" x="50.974375" y="164.511176" style="fill-opacity: 0; stroke: #000000; stroke-width: 0.8"/>
      </g>
     </g>
     <g id="text_13">
      <!-- −0.05 -->
      <g transform="translate(7.2 169.070238) scale(0.12 -0.12)">
       <use xlink:href="#DejaVuSerif-2212"/>
       <use xlink:href="#DejaVuSerif-30" transform="translate(83.789062 0)"/>
       <use xlink:href="#DejaVuSerif-2e" transform="translate(147.412109 0)"/>
       <use xlink:href="#DejaVuSerif-30" transform="translate(179.199219 0)"/>
       <use xlink:href="#DejaVuSerif-35" transform="translate(242.822266 0)"/>
      </g>
     </g>
    </g>
    <g id="ytick_5">
     <g id="line2d_14">
      <g>
       <use xlink:href="#me79d2b4452" x="50.974375" y="137.40385" style="fill-opacity: 0; stroke: #000000; stroke-width: 0.8"/>
      </g>
     </g>
     <g id="text_14">
      <!-- 0.00 -->
      <g transform="translate(17.255625 141.962913) scale(0.12 -0.12)">
       <use xlink:href="#DejaVuSerif-30"/>
       <use xlink:href="#DejaVuSerif-2e" transform="translate(63.623047 0)"/>
       <use xlink:href="#DejaVuSerif-30" transform="translate(95.410156 0)"/>
       <use xlink:href="#DejaVuSerif-30" transform="translate(159.033203 0)"/>
      </g>
     </g>
    </g>
    <g id="ytick_6">
     <g id="line2d_15">
      <g>
       <use xlink:href="#me79d2b4452" x="50.974375" y="110.296525" style="fill-opacity: 0; stroke: #000000; stroke-width: 0.8"/>
      </g>
     </g>
     <g id="text_15">
      <!-- 0.05 -->
      <g transform="translate(17.255625 114.855587) scale(0.12 -0.12)">
       <use xlink:href="#DejaVuSerif-30"/>
       <use xlink:href="#DejaVuSerif-2e" transform="translate(63.623047 0)"/>
       <use xlink:href="#DejaVuSerif-30" transform="translate(95.410156 0)"/>
       <use xlink:href="#DejaVuSerif-35" transform="translate(159.033203 0)"/>
      </g>
     </g>
    </g>
    <g id="ytick_7">
     <g id="line2d_16">
      <g>
       <use xlink:href="#me79d2b4452" x="50.974375" y="83.189199" style="fill-opacity: 0; stroke: #000000; stroke-width: 0.8"/>
      </g>
     </g>
     <g id="text_16">
      <!-- 0.10 -->
      <g transform="translate(17.255625 87.748262) scale(0.12 -0.12)">
       <use xlink:href="#DejaVuSerif-30"/>
       <use xlink:href="#DejaVuSerif-2e" transform="translate(63.623047 0)"/>
       <use xlink:href="#DejaVuSerif-31" transform="translate(95.410156 0)"/>
       <use xlink:href="#DejaVuSerif-30" transform="translate(159.033203 0)"/>
      </g>
     </g>
    </g>
    <g id="ytick_8">
     <g id="line2d_17">
      <g>
       <use xlink:href="#me79d2b4452" x="50.974375" y="56.081874" style="fill-opacity: 0; stroke: #000000; stroke-width: 0.8"/>
      </g>
     </g>
     <g id="text_17">
      <!-- 0.15 -->
      <g transform="translate(17.255625 60.640937) scale(0.12 -0.12)">
       <use xlink:href="#DejaVuSerif-30"/>
       <use xlink:href="#DejaVuSerif-2e" transform="translate(63.623047 0)"/>
       <use xlink:href="#DejaVuSerif-31" transform="translate(95.410156 0)"/>
       <use xlink:href="#DejaVuSerif-35" transform="translate(159.033203 0)"/>
      </g>
     </g>
    </g>
    <g id="ytick_9">
     <g id="line2d_18">
      <g>
       <use xlink:href="#me79d2b4452" x="50.974375" y="28.974549" style="fill-opacity: 0; stroke: #000000; stroke-width: 0.8"/>
      </g>
     </g>
     <g id="text_18">
      <!-- 0.20 -->
      <g transform="translate(17.255625 33.533611) scale(0.12 -0.12)">
       <use xlink:href="#DejaVuSerif-30"/>
       <use xlink:href="#DejaVuSerif-2e" transform="translate(63.623047 0)"/>
       <use xlink:href="#DejaVuSerif-32" transform="translate(95.410156 0)"/>
       <use xlink:href="#DejaVuSerif-30" transform="translate(159.033203 0)"/>
      </g>
     </g>
    </g>
   </g>
   <g id="line2d_19">
    <path d="M 50.974375 137.400961 
L 53.439106 111.745519 
L 55.903838 87.709763 
L 58.368569 66.780343 
L 60.8333 50.301224 
L 63.298031 39.298101 
L 65.762763 34.448902 
L 68.227494 36.065765 
L 70.692225 44.056591 
L 73.156956 57.917938 
L 75.621688 76.771874 
L 78.086419 99.430371 
L 85.480613 175.376887 
L 87.945344 198.041861 
L 90.410075 216.896083 
L 92.874806 230.752421 
L 95.339538 238.740107 
L 97.804269 240.359141 
L 100.269 235.510268 
L 102.733731 224.499727 
L 105.198463 208.019301 
L 107.663194 187.103096 
L 110.127925 163.063457 
L 115.057388 111.752707 
L 117.522119 87.706034 
L 119.98685 66.78178 
L 122.451581 50.296093 
L 124.916313 39.28568 
L 127.381044 34.442402 
L 129.845775 36.069873 
L 132.310506 44.06471 
L 134.775238 57.923468 
L 137.239969 76.774637 
L 139.7047 99.433612 
L 147.098894 175.375751 
L 149.563625 198.034418 
L 152.028356 216.884977 
L 154.493088 230.742855 
L 156.957819 238.736795 
L 159.42255 240.363774 
L 161.887281 235.520824 
L 164.352013 224.511691 
L 166.816744 208.027887 
L 169.281475 187.105269 
L 171.746206 163.058908 
L 176.675669 111.742379 
L 179.1404 87.697743 
L 181.605131 66.777501 
L 184.069863 50.296131 
L 186.534594 39.288941 
L 188.999325 34.447087 
L 191.464056 36.074261 
L 193.928788 44.067725 
L 196.393519 57.924873 
L 198.85825 76.774875 
L 201.322981 99.433413 
L 208.717175 175.376134 
L 211.181906 198.03427 
L 213.646638 216.883691 
L 216.111369 230.740129 
L 218.5761 238.73285 
L 221.040831 240.35939 
L 223.505563 235.517173 
L 225.970294 224.510039 
L 228.435025 208.029221 
L 230.899756 187.109986 
L 233.364488 163.066629 
L 238.29395 111.752133 
L 240.758681 87.705763 
L 243.223413 66.782092 
L 245.688144 50.296195 
L 248.152875 39.284236 
L 250.617606 34.438318 
L 253.082338 36.062964 
L 255.547069 44.055979 
L 258.0118 57.914895 
L 260.476531 76.768584 
L 262.941263 99.432046 
L 270.335456 175.38748 
L 272.800188 198.046394 
L 275.264919 216.894223 
L 277.72965 230.746946 
L 280.194381 238.734465 
L 282.659113 240.355229 
L 285.123844 235.507691 
L 287.588575 224.496645 
L 290.053306 208.014039 
L 292.518038 187.095488 
L 294.982769 163.055211 
L 299.912231 111.751768 
L 302.376963 87.71155 
L 304.841694 66.793093 
L 307.306425 50.31061 
L 309.771156 39.299711 
L 312.235888 34.452335 
L 314.700619 36.073269 
L 317.16535 44.060956 
L 319.630081 57.913837 
L 322.094813 76.761805 
L 324.559544 99.420833 
L 331.953738 175.37641 
L 334.418469 198.039846 
L 336.8832 216.893472 
L 339.347931 230.752293 
L 341.812663 238.745183 
L 344.277394 240.369682 
L 346.742125 235.523601 
L 349.206856 224.511471 
L 351.671588 208.025403 
L 354.136319 187.101572 
L 356.60105 163.055059 
L 361.530513 111.740362 
L 363.995244 87.696961 
L 366.459975 66.777725 
L 368.924706 50.29695 
L 371.389438 39.289902 
L 373.854169 34.447811 
L 376.3189 36.074508 
L 378.783631 44.067412 
L 381.248363 57.924044 
L 383.713094 76.773659 
L 386.177825 99.431976 
L 393.572019 175.375042 
L 396.03675 198.033599 
L 398.501481 216.883564 
L 400.966213 230.740622 
L 403.430944 238.733948 
L 405.895675 240.360944 
L 408.360406 235.518886 
L 410.825138 224.51148 
L 413.289869 208.029901 
L 415.7546 187.10947 
L 418.219331 163.064685 
L 423.148794 111.748018 
L 425.613525 87.701687 
L 428.078256 66.779165 
L 430.542988 50.295518 
L 433.007719 39.286592 
L 435.47245 34.44388 
L 437.937181 36.071109 
L 440.401913 44.065282 
L 442.866644 57.923351 
L 445.331375 76.774036 
L 447.796106 99.432745 
L 455.1903 175.37446 
L 457.655031 198.033157 
L 460.119763 216.884034 
L 462.584494 230.742526 
L 465.049225 238.737168 
L 467.513956 240.36455 
L 469.978688 235.521311 
L 472.443419 224.511064 
L 474.90815 208.025649 
L 477.372881 187.101729 
L 479.837613 163.055391 
L 484.767075 111.745059 
L 487.231806 87.705405 
L 489.696538 66.789018 
L 492.161269 50.308272 
L 494.626 39.297347 
L 497.090731 34.44812 
L 499.555463 36.066938 
L 502.020194 44.054626 
L 504.484925 57.91121 
L 506.949656 76.765862 
L 509.414388 99.431302 
L 516.808581 175.377706 
L 519.273313 198.035622 
L 521.738044 216.889157 
L 524.202775 230.750601 
L 526.667506 238.742058 
L 529.132238 240.359557 
L 531.596969 235.51031 
L 534.0617 224.506376 
L 536.526431 208.026817 
L 538.991163 187.098229 
L 541.455894 163.062508 
L 543.920625 137.407111 
L 543.920625 137.407111 
" clip-path="url(#p6ffbbea8a9)" style="fill: none; stroke: #1f77b4; stroke-width: 1.5; stroke-linecap: square"/>
   </g>
   <g id="line2d_20">
    <defs>
     <path id="m36c4450126" d="M 0 3 
C 0.795609 3 1.55874 2.683901 2.12132 2.12132 
C 2.683901 1.55874 3 0.795609 3 0 
C 3 -0.795609 2.683901 -1.55874 2.12132 -2.12132 
C 1.55874 -2.683901 0.795609 -3 0 -3 
C -0.795609 -3 -1.55874 -2.683901 -2.12132 -2.12132 
C -2.683901 -1.55874 -3 -0.795609 -3 0 
C -3 0.795609 -2.683901 1.55874 -2.12132 2.12132 
C -1.55874 2.683901 -0.795609 3 0 3 
z
" style="stroke: #ff7f0e"/>
    </defs>
    <g clip-path="url(#p6ffbbea8a9)">
     <use xlink:href="#m36c4450126" x="50.974375" y="137.40385" style="fill-opacity: 0; stroke: #ff7f0e"/>
     <use xlink:href="#m36c4450126" x="51.312158" y="133.851324" style="fill-opacity: 0; stroke: #ff7f0e"/>
     <use xlink:href="#m36c4450126" x="52.324581" y="123.245506" style="fill-opacity: 0; stroke: #ff7f0e"/>
     <use xlink:href="#m36c4450126" x="54.008868" y="105.990141" style="fill-opacity: 0; stroke: #ff7f0e"/>
     <use xlink:href="#m36c4450126" x="56.360404" y="83.552387" style="fill-opacity: 0; stroke: #ff7f0e"/>
     <use xlink:href="#m36c4450126" x="59.372743" y="59.468447" style="fill-opacity: 0; stroke: #ff7f0e"/>
     <use xlink:href="#m36c4450126" x="63.037628" y="40.172941" style="fill-opacity: 0; stroke: #ff7f0e"/>
     <use xlink:href="#m36c4450126" x="67.345015" y="34.743066" style="fill-opacity: 0; stroke: #ff7f0e"/>
     <use xlink:href="#m36c4450126" x="72.283096" y="52.380664" style="fill-opacity: 0; stroke: #ff7f0e"/>
     <use xlink:href="#m36c4450126" x="77.838338" y="97.013816" style="fill-opacity: 0; stroke: #ff7f0e"/>
     <use xlink:href="#m36c4450126" x="83.995512" y="160.475637" style="fill-opacity: 0; stroke: #ff7f0e"/>
     <use xlink:href="#m36c4450126" x="90.737744" y="219.043034" style="fill-opacity: 0; stroke: #ff7f0e"/>
     <use xlink:href="#m36c4450126" x="98.046553" y="240.169775" style="fill-opacity: 0; stroke: #ff7f0e"/>
     <use xlink:href="#m36c4450126" x="105.901906" y="202.451233" style="fill-opacity: 0; stroke: #ff7f0e"/>
     <use xlink:href="#m36c4450126" x="114.282273" y="119.718124" style="fill-opacity: 0; stroke: #ff7f0e"/>
     <use xlink:href="#m36c4450126" x="123.164682" y="46.516516" style="fill-opacity: 0; stroke: #ff7f0e"/>
     <use xlink:href="#m36c4450126" x="132.524788" y="45.043006" style="fill-opacity: 0; stroke: #ff7f0e"/>
     <use xlink:href="#m36c4450126" x="142.336937" y="126.224298" style="fill-opacity: 0; stroke: #ff7f0e"/>
     <use xlink:href="#m36c4450126" x="152.574232" y="220.425937" style="fill-opacity: 0; stroke: #ff7f0e"/>
     <use xlink:href="#m36c4450126" x="163.208615" y="230.344331" style="fill-opacity: 0; stroke: #ff7f0e"/>
     <use xlink:href="#m36c4450126" x="174.210938" y="137.40385" style="fill-opacity: 0; stroke: #ff7f0e"/>
     <use xlink:href="#m36c4450126" x="185.551043" y="42.976804" style="fill-opacity: 0; stroke: #ff7f0e"/>
     <use xlink:href="#m36c4450126" x="197.197849" y="63.571363" style="fill-opacity: 0; stroke: #ff7f0e"/>
     <use xlink:href="#m36c4450126" x="209.119432" y="179.281172" style="fill-opacity: 0; stroke: #ff7f0e"/>
     <use xlink:href="#m36c4450126" x="221.283116" y="240.169775" style="fill-opacity: 0; stroke: #ff7f0e"/>
     <use xlink:href="#m36c4450126" x="233.655561" y="160.082378" style="fill-opacity: 0; stroke: #ff7f0e"/>
     <use xlink:href="#m36c4450126" x="246.202856" y="47.522296" style="fill-opacity: 0; stroke: #ff7f0e"/>
     <use xlink:href="#m36c4450126" x="258.890609" y="64.120661" style="fill-opacity: 0; stroke: #ff7f0e"/>
     <use xlink:href="#m36c4450126" x="271.684043" y="188.169828" style="fill-opacity: 0; stroke: #ff7f0e"/>
     <use xlink:href="#m36c4450126" x="284.548093" y="237.217163" style="fill-opacity: 0; stroke: #ff7f0e"/>
     <use xlink:href="#m36c4450126" x="297.4475" y="137.40385" style="fill-opacity: 0; stroke: #ff7f0e"/>
     <use xlink:href="#m36c4450126" x="310.346907" y="37.590538" style="fill-opacity: 0; stroke: #ff7f0e"/>
     <use xlink:href="#m36c4450126" x="323.210957" y="86.637872" style="fill-opacity: 0; stroke: #ff7f0e"/>
     <use xlink:href="#m36c4450126" x="336.004391" y="210.687039" style="fill-opacity: 0; stroke: #ff7f0e"/>
     <use xlink:href="#m36c4450126" x="348.692144" y="227.285405" style="fill-opacity: 0; stroke: #ff7f0e"/>
     <use xlink:href="#m36c4450126" x="361.239439" y="114.725323" style="fill-opacity: 0; stroke: #ff7f0e"/>
     <use xlink:href="#m36c4450126" x="373.611884" y="34.637925" style="fill-opacity: 0; stroke: #ff7f0e"/>
     <use xlink:href="#m36c4450126" x="385.775568" y="95.526529" style="fill-opacity: 0; stroke: #ff7f0e"/>
     <use xlink:href="#m36c4450126" x="397.697151" y="211.236337" style="fill-opacity: 0; stroke: #ff7f0e"/>
     <use xlink:href="#m36c4450126" x="409.343957" y="231.830897" style="fill-opacity: 0; stroke: #ff7f0e"/>
     <use xlink:href="#m36c4450126" x="420.684063" y="137.40385" style="fill-opacity: 0; stroke: #ff7f0e"/>
     <use xlink:href="#m36c4450126" x="431.686385" y="44.463369" style="fill-opacity: 0; stroke: #ff7f0e"/>
     <use xlink:href="#m36c4450126" x="442.320768" y="54.381764" style="fill-opacity: 0; stroke: #ff7f0e"/>
     <use xlink:href="#m36c4450126" x="452.558063" y="148.583402" style="fill-opacity: 0; stroke: #ff7f0e"/>
     <use xlink:href="#m36c4450126" x="462.370212" y="229.764694" style="fill-opacity: 0; stroke: #ff7f0e"/>
     <use xlink:href="#m36c4450126" x="471.730318" y="228.291185" style="fill-opacity: 0; stroke: #ff7f0e"/>
     <use xlink:href="#m36c4450126" x="480.612727" y="155.089576" style="fill-opacity: 0; stroke: #ff7f0e"/>
     <use xlink:href="#m36c4450126" x="488.993094" y="72.356467" style="fill-opacity: 0; stroke: #ff7f0e"/>
     <use xlink:href="#m36c4450126" x="496.848447" y="34.637925" style="fill-opacity: 0; stroke: #ff7f0e"/>
     <use xlink:href="#m36c4450126" x="504.157256" y="55.764666" style="fill-opacity: 0; stroke: #ff7f0e"/>
     <use xlink:href="#m36c4450126" x="510.899488" y="114.332063" style="fill-opacity: 0; stroke: #ff7f0e"/>
     <use xlink:href="#m36c4450126" x="517.056662" y="177.793885" style="fill-opacity: 0; stroke: #ff7f0e"/>
     <use xlink:href="#m36c4450126" x="522.611904" y="222.427036" style="fill-opacity: 0; stroke: #ff7f0e"/>
     <use xlink:href="#m36c4450126" x="527.549985" y="240.064635" style="fill-opacity: 0; stroke: #ff7f0e"/>
     <use xlink:href="#m36c4450126" x="531.857372" y="234.634759" style="fill-opacity: 0; stroke: #ff7f0e"/>
     <use xlink:href="#m36c4450126" x="535.522257" y="215.339253" style="fill-opacity: 0; stroke: #ff7f0e"/>
     <use xlink:href="#m36c4450126" x="538.534596" y="191.255314" style="fill-opacity: 0; stroke: #ff7f0e"/>
     <use xlink:href="#m36c4450126" x="540.886132" y="168.817559" style="fill-opacity: 0; stroke: #ff7f0e"/>
     <use xlink:href="#m36c4450126" x="542.570419" y="151.562195" style="fill-opacity: 0; stroke: #ff7f0e"/>
     <use xlink:href="#m36c4450126" x="543.582842" y="140.956376" style="fill-opacity: 0; stroke: #ff7f0e"/>
     <use xlink:href="#m36c4450126" x="543.920625" y="137.40385" style="fill-opacity: 0; stroke: #ff7f0e"/>
    </g>
   </g>
   <g id="patch_3">
    <path d="M 50.974375 250.66625 
L 50.974375 24.14175 
" style="fill: none; stroke: #000000; stroke-width: 0.8; stroke-linejoin: miter; stroke-linecap: square"/>
   </g>
   <g id="patch_4">
    <path d="M 543.920625 250.66625 
L 543.920625 24.14175 
" style="fill: none; stroke: #000000; stroke-width: 0.8; stroke-linejoin: miter; stroke-linecap: square"/>
   </g>
   <g id="patch_5">
    <path d="M 50.974375 250.66625 
L 543.920625 250.66625 
" style="fill: none; stroke: #000000; stroke-width: 0.8; stroke-linejoin: miter; stroke-linecap: square"/>
   </g>
   <g id="patch_6">
    <path d="M 50.974375 24.14175 
L 543.920625 24.14175 
" style="fill: none; stroke: #000000; stroke-width: 0.8; stroke-linejoin: miter; stroke-linecap: square"/>
   </g>
   <g id="text_19">
    <!-- eigenmode N/4 -->
    <g transform="translate(241.747625 18.14175) scale(0.144 -0.144)">
     <defs>
      <path id="DejaVuSerif-65" d="M 3469 1600 
L 991 1600 
L 991 1575 
Q 991 903 1244 561 
Q 1497 219 1991 219 
Q 2369 219 2611 417 
Q 2853 616 2950 1006 
L 3413 1006 
Q 3275 459 2904 184 
Q 2534 -91 1931 -91 
Q 1203 -91 761 389 
Q 319 869 319 1663 
Q 319 2450 753 2931 
Q 1188 3413 1894 3413 
Q 2647 3413 3050 2948 
Q 3453 2484 3469 1600 
z
M 2791 1931 
Q 2772 2513 2545 2808 
Q 2319 3103 1894 3103 
Q 1497 3103 1269 2806 
Q 1041 2509 991 1931 
L 2791 1931 
z
" transform="scale(0.015625)"/>
      <path id="DejaVuSerif-69" d="M 622 4353 
Q 622 4497 726 4603 
Q 831 4709 978 4709 
Q 1122 4709 1226 4603 
Q 1331 4497 1331 4353 
Q 1331 4206 1228 4103 
Q 1125 4000 978 4000 
Q 831 4000 726 4103 
Q 622 4206 622 4353 
z
M 1356 331 
L 1900 331 
L 1900 0 
L 231 0 
L 231 331 
L 781 331 
L 781 2988 
L 231 2988 
L 231 3322 
L 1356 3322 
L 1356 331 
z
" transform="scale(0.015625)"/>
      <path id="DejaVuSerif-67" d="M 3359 2988 
L 3359 72 
Q 3359 -644 2965 -1033 
Q 2572 -1422 1844 -1422 
Q 1516 -1422 1216 -1362 
Q 916 -1303 641 -1184 
L 641 -488 
L 941 -488 
Q 997 -813 1206 -963 
Q 1416 -1113 1806 -1113 
Q 2313 -1113 2548 -827 
Q 2784 -541 2784 72 
L 2784 519 
Q 2616 206 2355 57 
Q 2094 -91 1709 -91 
Q 1097 -91 708 395 
Q 319 881 319 1663 
Q 319 2444 706 2928 
Q 1094 3413 1709 3413 
Q 2094 3413 2355 3264 
Q 2616 3116 2784 2803 
L 2784 3322 
L 3909 3322 
L 3909 2988 
L 3359 2988 
z
M 2784 1825 
Q 2784 2422 2554 2737 
Q 2325 3053 1888 3053 
Q 1444 3053 1217 2703 
Q 991 2353 991 1663 
Q 991 975 1217 622 
Q 1444 269 1888 269 
Q 2325 269 2554 583 
Q 2784 897 2784 1497 
L 2784 1825 
z
" transform="scale(0.015625)"/>
      <path id="DejaVuSerif-6e" d="M 263 0 
L 263 331 
L 781 331 
L 781 2988 
L 231 2988 
L 231 3322 
L 1356 3322 
L 1356 2731 
Q 1516 3069 1770 3241 
Q 2025 3413 2363 3413 
Q 2913 3413 3172 3097 
Q 3431 2781 3431 2113 
L 3431 331 
L 3944 331 
L 3944 0 
L 2356 0 
L 2356 331 
L 2853 331 
L 2853 1931 
Q 2853 2541 2703 2767 
Q 2553 2994 2175 2994 
Q 1775 2994 1565 2701 
Q 1356 2409 1356 1850 
L 1356 331 
L 1856 331 
L 1856 0 
L 263 0 
z
" transform="scale(0.015625)"/>
      <path id="DejaVuSerif-6d" d="M 3316 2675 
Q 3481 3041 3739 3227 
Q 3997 3413 4341 3413 
Q 4863 3413 5119 3089 
Q 5375 2766 5375 2113 
L 5375 331 
L 5894 331 
L 5894 0 
L 4300 0 
L 4300 331 
L 4800 331 
L 4800 2047 
Q 4800 2556 4650 2772 
Q 4500 2988 4153 2988 
Q 3769 2988 3567 2697 
Q 3366 2406 3366 1850 
L 3366 331 
L 3866 331 
L 3866 0 
L 2291 0 
L 2291 331 
L 2791 331 
L 2791 2069 
Q 2791 2566 2641 2777 
Q 2491 2988 2144 2988 
Q 1759 2988 1557 2697 
Q 1356 2406 1356 1850 
L 1356 331 
L 1856 331 
L 1856 0 
L 263 0 
L 263 331 
L 781 331 
L 781 2994 
L 231 2994 
L 231 3322 
L 1356 3322 
L 1356 2731 
Q 1516 3063 1762 3238 
Q 2009 3413 2322 3413 
Q 2709 3413 2968 3220 
Q 3228 3028 3316 2675 
z
" transform="scale(0.015625)"/>
      <path id="DejaVuSerif-6f" d="M 1925 219 
Q 2388 219 2623 584 
Q 2859 950 2859 1663 
Q 2859 2375 2623 2739 
Q 2388 3103 1925 3103 
Q 1463 3103 1227 2739 
Q 991 2375 991 1663 
Q 991 950 1228 584 
Q 1466 219 1925 219 
z
M 1925 -91 
Q 1200 -91 759 389 
Q 319 869 319 1663 
Q 319 2456 758 2934 
Q 1197 3413 1925 3413 
Q 2653 3413 3092 2934 
Q 3531 2456 3531 1663 
Q 3531 869 3092 389 
Q 2653 -91 1925 -91 
z
" transform="scale(0.015625)"/>
      <path id="DejaVuSerif-64" d="M 3359 331 
L 3909 331 
L 3909 0 
L 2784 0 
L 2784 519 
Q 2616 206 2355 57 
Q 2094 -91 1709 -91 
Q 1097 -91 708 395 
Q 319 881 319 1663 
Q 319 2444 706 2928 
Q 1094 3413 1709 3413 
Q 2094 3413 2355 3264 
Q 2616 3116 2784 2803 
L 2784 4531 
L 2241 4531 
L 2241 4863 
L 3359 4863 
L 3359 331 
z
M 2784 1497 
L 2784 1825 
Q 2784 2422 2554 2737 
Q 2325 3053 1888 3053 
Q 1444 3053 1217 2703 
Q 991 2353 991 1663 
Q 991 975 1217 622 
Q 1444 269 1888 269 
Q 2325 269 2554 583 
Q 2784 897 2784 1497 
z
" transform="scale(0.015625)"/>
      <path id="DejaVuSerif-20" transform="scale(0.015625)"/>
      <path id="DejaVuSerif-4e" d="M 313 0 
L 313 331 
L 941 331 
L 941 4331 
L 313 4331 
L 313 4666 
L 1509 4666 
L 4306 984 
L 4306 4331 
L 3681 4331 
L 3681 4666 
L 5319 4666 
L 5319 4331 
L 4691 4331 
L 4691 -91 
L 4313 -91 
L 1325 3841 
L 1325 331 
L 1953 331 
L 1953 0 
L 313 0 
z
" transform="scale(0.015625)"/>
      <path id="DejaVuSerif-2f" d="M 1656 4666 
L 2156 4666 
L 500 -594 
L 0 -594 
L 1656 4666 
z
" transform="scale(0.015625)"/>
      <path id="DejaVuSerif-34" d="M 2234 1581 
L 2234 4063 
L 641 1581 
L 2234 1581 
z
M 3609 0 
L 1484 0 
L 1484 331 
L 2234 331 
L 2234 1247 
L 197 1247 
L 197 1588 
L 2241 4750 
L 2859 4750 
L 2859 1581 
L 3750 1581 
L 3750 1247 
L 2859 1247 
L 2859 331 
L 3609 331 
L 3609 0 
z
" transform="scale(0.015625)"/>
     </defs>
     <use xlink:href="#DejaVuSerif-65"/>
     <use xlink:href="#DejaVuSerif-69" transform="translate(59.179688 0)"/>
     <use xlink:href="#DejaVuSerif-67" transform="translate(91.162109 0)"/>
     <use xlink:href="#DejaVuSerif-65" transform="translate(155.175781 0)"/>
     <use xlink:href="#DejaVuSerif-6e" transform="translate(214.355469 0)"/>
     <use xlink:href="#DejaVuSerif-6d" transform="translate(278.759766 0)"/>
     <use xlink:href="#DejaVuSerif-6f" transform="translate(373.583984 0)"/>
     <use xlink:href="#DejaVuSerif-64" transform="translate(433.789062 0)"/>
     <use xlink:href="#DejaVuSerif-65" transform="translate(497.802734 0)"/>
     <use xlink:href="#DejaVuSerif-20" transform="translate(556.982422 0)"/>
     <use xlink:href="#DejaVuSerif-4e" transform="translate(588.769531 0)"/>
     <use xlink:href="#DejaVuSerif-2f" transform="translate(676.269531 0)"/>
     <use xlink:href="#DejaVuSerif-34" transform="translate(709.960938 0)"/>
    </g>
   </g>
  </g>
 </g>
 <defs>
  <clipPath id="p6ffbbea8a9">
   <rect x="50.974375" y="24.14175" width="492.94625" height="226.5245"/>
  </clipPath>
 </defs>
</svg>