<?xml version="1.0" encoding="utf-8" standalone="no"?>
<!DOCTYPE svg PUBLIC "-//W3C//DTD SVG 1.1//EN"
  "http://www.w3.org/Graphics/SVG/1.1/DTD/svg11.dtd">
<svg xmlns:xlink="http://www.w3.org/1999/xlink" width="449.28pt" height="334.08pt" viewBox="0 0 449.28 334.08" xmlns="http://www.w3.org/2000/svg" version="1.1">
 <metadata>
  <rdf:RDF xmlns:dc="http://purl.org/dc/elements/1.1/" xmlns:cc="http://creativecommons.org/ns#" xmlns:rdf="http://www.w3.org/1999/02/22-rdf-syntax-ns#">
   <cc:Work>
    <dc:type rdf:resource="http://purl.org/dc/dcmitype/StillImage"/>
    <dc:date>2025-04-04T21:18:00.227106</dc:date>
    <dc:format>image/svg+xml</dc:format>
    <dc:creator>
     <cc:Agent>
      <dc:title>Matplotlib v3.10.1, https://matplotlib.org/</dc:title>
     </cc:Agent>
    </dc:creator>
   </cc:Work>
  </rdf:RDF>
 </metadata>
 <defs>
  <style type="text/css">*{stroke-linejoin: round; stroke-linecap: butt}</style>
 </defs>
 <g id="figure_1">
  <g id="patch_1">
   <path d="M 0 334.08 
L 449.28 334.08 
L 449.28 0 
L 0 0 
z
" style="fill: #ffffff"/>
  </g>
  <g id="axes_1">
   <g id="patch_2">
    <path d="M 43.339375 308.26625 
L 442.08 308.26625 
L 442.08 24.14175 
L 43.339375 24.14175 
z
" style="fill: #ffffff"/>
   </g>
   <g id="matplotlib.axis_1">
    <g id="xtick_1">
     <g id="line2d_1">
      <path d="M 60.501967 308.26625 
L 60.501967 24.14175 
" clip-path="url(#p619fa2ed45)" style="fill: none; stroke: #b0b0b0; stroke-width: 0.8; stroke-linecap: square"/>
     </g>
     <g id="line2d_2">
      <defs>
       <path id="m2bd9255cc5" d="M 0 0 
L 0 3.5 
" style="stroke: #000000; stroke-width: 0.8"/>
      </defs>
      <g>
       <use xlink:href="#m2bd9255cc5" x="60.501967" y="308.26625" style="fill-opacity: 0; stroke: #000000; stroke-width: 0.8"/>
      </g>
     </g>
     <g id="text_1">
      <!-- −1.25 -->
      <g transform="translate(42.114779 324.384375) scale(0.12 -0.12)">
       <defs>
        <path id="DejaVuSerif-2212" d="M 678 2259 
L 4684 2259 
L 4684 1753 
L 678 1753 
L 678 2259 
z
" transform="scale(0.015625)"/>
        <path id="DejaVuSerif-31" d="M 909 0 
L 909 331 
L 1722 331 
L 1722 4213 
L 781 3603 
L 781 4013 
L 1919 4750 
L 2350 4750 
L 2350 331 
L 3163 331 
L 3163 0 
L 909 0 
z
" transform="scale(0.015625)"/>
        <path id="DejaVuSerif-2e" d="M 603 325 
Q 603 500 722 622 
Q 841 744 1019 744 
Q 1191 744 1312 622 
Q 1434 500 1434 325 
Q 1434 153 1312 31 
Q 1191 -91 1019 -91 
Q 841 -91 722 29 
Q 603 150 603 325 
z
" transform="scale(0.015625)"/>
        <path id="DejaVuSerif-32" d="M 819 3553 
L 469 3553 
L 469 4384 
Q 803 4563 1142 4656 
Q 1481 4750 1806 4750 
Q 2534 4750 2956 4397 
Q 3378 4044 3378 3438 
Q 3378 2753 2422 1800 
Q 2347 1728 2309 1691 
L 1131 513 
L 3078 513 
L 3078 1088 
L 3444 1088 
L 3444 0 
L 434 0 
L 434 341 
L 1850 1753 
Q 2319 2222 2519 2614 
Q 2719 3006 2719 3438 
Q 2719 3909 2473 4175 
Q 2228 4441 1797 4441 
Q 1350 4441 1106 4219 
Q 863 3997 819 3553 
z
" transform="scale(0.015625)"/>
        <path id="DejaVuSerif-35" d="M 3219 4666 
L 3219 4153 
L 1081 4153 
L 1081 2816 
Q 1244 2928 1461 2984 
Q 1678 3041 1947 3041 
Q 2703 3041 3140 2622 
Q 3578 2203 3578 1478 
Q 3578 738 3136 323 
Q 2694 -91 1894 -91 
Q 1572 -91 1234 -12 
Q 897 66 544 225 
L 544 1131 
L 897 1131 
Q 925 688 1179 453 
Q 1434 219 1894 219 
Q 2388 219 2653 544 
Q 2919 869 2919 1478 
Q 2919 2084 2655 2407 
Q 2391 2731 1894 2731 
Q 1613 2731 1398 2631 
Q 1184 2531 1019 2322 
L 750 2322 
L 750 4666 
L 3219 4666 
z
" transform="scale(0.015625)"/>
       </defs>
       <use xlink:href="#DejaVuSerif-2212"/>
       <use xlink:href="#DejaVuSerif-31" transform="translate(83.789062 0)"/>
       <use xlink:href="#DejaVuSerif-2e" transform="translate(147.412109 0)"/>
       <use xlink:href="#DejaVuSerif-32" transform="translate(179.199219 0)"/>
       <use xlink:href="#DejaVuSerif-35" transform="translate(242.822266 0)"/>
      </g>
     </g>
    </g>
    <g id="xtick_2">
     <g id="line2d_3">
      <path d="M 104.902039 308.26625 
L 104.902039 24.14175 
" clip-path="url(#p619fa2ed45)" style="fill: none; stroke: #b0b0b0; stroke-width: 0.8; stroke-linecap: square"/>
     </g>
     <g id="line2d_4">
      <g>
       <use xlink:href="#m2bd9255cc5" x="104.902039" y="308.26625" style="fill-opacity: 0; stroke: #000000; stroke-width: 0.8"/>
      </g>
     </g>
     <g id="text_2">
      <!-- −1.00 -->
      <g transform="translate(86.514851 324.384375) scale(0.12 -0.12)">
       <defs>
        <path id="DejaVuSerif-30" d="M 2034 219 
Q 2513 219 2750 744 
Q 2988 1269 2988 2328 
Q 2988 3391 2750 3916 
Q 2513 4441 2034 4441 
Q 1556 4441 1318 3916 
Q 1081 3391 1081 2328 
Q 1081 1269 1318 744 
Q 1556 219 2034 219 
z
M 2034 -91 
Q 1275 -91 848 546 
Q 422 1184 422 2328 
Q 422 3475 848 4112 
Q 1275 4750 2034 4750 
Q 2797 4750 3222 4112 
Q 3647 3475 3647 2328 
Q 3647 1184 3222 546 
Q 2797 -91 2034 -91 
z
" transform="scale(0.015625)"/>
       </defs>
       <use xlink:href="#DejaVuSerif-2212"/>
       <use xlink:href="#DejaVuSerif-31" transform="translate(83.789062 0)"/>
       <use xlink:href="#DejaVuSerif-2e" transform="translate(147.412109 0)"/>
       <use xlink:href="#DejaVuSerif-30" transform="translate(179.199219 0)"/>
       <use xlink:href="#DejaVuSerif-30" transform="translate(242.822266 0)"/>
      </g>
     </g>
    </g>
    <g id="xtick_3">
     <g id="line2d_5">
      <path d="M 149.30211 308.26625 
L 149.30211 24.14175 
" clip-path="url(#p619fa2ed45)" style="fill: none; stroke: #b0b0b0; stroke-width: 0.8; stroke-linecap: square"/>
     </g>
     <g id="line2d_6">
      <g>
       <use xlink:href="#m2bd9255cc5" x="149.30211" y="308.26625" style="fill-opacity: 0; stroke: #000000; stroke-width: 0.8"/>
      </g>
     </g>
     <g id="text_3">
      <!-- −0.75 -->
      <g transform="translate(130.914923 324.384375) scale(0.12 -0.12)">
       <defs>
        <path id="DejaVuSerif-37" d="M 3609 4347 
L 1784 0 
L 1319 0 
L 3059 4153 
L 903 4153 
L 903 3578 
L 538 3578 
L 538 4666 
L 3609 4666 
L 3609 4347 
z
" transform="scale(0.015625)"/>
       </defs>
       <use xlink:href="#DejaVuSerif-2212"/>
       <use xlink:href="#DejaVuSerif-30" transform="translate(83.789062 0)"/>
       <use xlink:href="#DejaVuSerif-2e" transform="translate(147.412109 0)"/>
       <use xlink:href="#DejaVuSerif-37" transform="translate(179.199219 0)"/>
       <use xlink:href="#DejaVuSerif-35" transform="translate(242.822266 0)"/>
      </g>
     </g>
    </g>
    <g id="xtick_4">
     <g id="line2d_7">
      <path d="M 193.702182 308.26625 
L 193.702182 24.14175 
" clip-path="url(#p619fa2ed45)" style="fill: none; stroke: #b0b0b0; stroke-width: 0.8; stroke-linecap: square"/>
     </g>
     <g id="line2d_8">
      <g>
       <use xlink:href="#m2bd9255cc5" x="193.702182" y="308.26625" style="fill-opacity: 0; stroke: #000000; stroke-width: 0.8"/>
      </g>
     </g>
     <g id="text_4">
      <!-- −0.50 -->
      <g transform="translate(175.314995 324.384375) scale(0.12 -0.12)">
       <use xlink:href="#DejaVuSerif-2212"/>
       <use xlink:href="#DejaVuSerif-30" transform="translate(83.789062 0)"/>
       <use xlink:href="#DejaVuSerif-2e" transform="translate(147.412109 0)"/>
       <use xlink:href="#DejaVuSerif-35" transform="translate(179.199219 0)"/>
       <use xlink:href="#DejaVuSerif-30" transform="translate(242.822266 0)"/>
      </g>
     </g>
    </g>
    <g id="xtick_5">
     <g id="line2d_9">
      <path d="M 238.102254 308.26625 
L 238.102254 24.14175 
" clip-path="url(#p619fa2ed45)" style="fill: none; stroke: #b0b0b0; stroke-width: 0.8; stroke-linecap: square"/>
     </g>
     <g id="line2d_10">
      <g>
       <use xlink:href="#m2bd9255cc5" x="238.102254" y="308.26625" style="fill-opacity: 0; stroke: #000000; stroke-width: 0.8"/>
      </g>
     </g>
     <g id="text_5">
      <!-- −0.25 -->
      <g transform="translate(219.715066 324.384375) scale(0.12 -0.12)">
       <use xlink:href="#DejaVuSerif-2212"/>
       <use xlink:href="#DejaVuSerif-30" transform="translate(83.789062 0)"/>
       <use xlink:href="#DejaVuSerif-2e" transform="translate(147.412109 0)"/>
       <use xlink:href="#DejaVuSerif-32" transform="translate(179.199219 0)"/>
       <use xlink:href="#DejaVuSerif-35" transform="translate(242.822266 0)"/>
      </g>
     </g>
    </g>
    <g id="xtick_6">
     <g id="line2d_11">
      <path d="M 282.502325 308.26625 
L 282.502325 24.14175 
" clip-path="url(#p619fa2ed45)" style="fill: none; stroke: #b0b0b0; stroke-width: 0.8; stroke-linecap: square"/>
     </g>
     <g id="line2d_12">
      <g>
       <use xlink:href="#m2bd9255cc5" x="282.502325" y="308.26625" style="fill-opacity: 0; stroke: #000000; stroke-width: 0.8"/>
      </g>
     </g>
     <g id="text_6">
      <!-- 0.00 -->
      <g transform="translate(269.14295 324.384375) scale(0.12 -0.12)">
       <use xlink:href="#DejaVuSerif-30"/>
       <use xlink:href="#DejaVuSerif-2e" transform="translate(63.623047 0)"/>
       <use xlink:href="#DejaVuSerif-30" transform="translate(95.410156 0)"/>
       <use xlink:href="#DejaVuSerif-30" transform="translate(159.033203 0)"/>
      </g>
     </g>
    </g>
    <g id="xtick_7">
     <g id="line2d_13">
      <path d="M 326.902397 308.26625 
L 326.902397 24.14175 
" clip-path="url(#p619fa2ed45)" style="fill: none; stroke: #b0b0b0; stroke-width: 0.8; stroke-linecap: square"/>
     </g>
     <g id="line2d_14">
      <g>
       <use xlink:href="#m2bd9255cc5" x="326.902397" y="308.26625" style="fill-opacity: 0; stroke: #000000; stroke-width: 0.8"/>
      </g>
     </g>
     <g id="text_7">
      <!-- 0.25 -->
      <g transform="translate(313.543022 324.384375) scale(0.12 -0.12)">
       <use xlink:href="#DejaVuSerif-30"/>
       <use xlink:href="#DejaVuSerif-2e" transform="translate(63.623047 0)"/>
       <use xlink:href="#DejaVuSerif-32" transform="translate(95.410156 0)"/>
       <use xlink:href="#DejaVuSerif-35" transform="translate(159.033203 0)"/>
      </g>
     </g>
    </g>
    <g id="xtick_8">
     <g id="line2d_15">
      <path d="M 371.302469 308.26625 
L 371.302469 24.14175 
" clip-path="url(#p619fa2ed45)" style="fill: none; stroke: #b0b0b0; stroke-width: 0.8; stroke-linecap: square"/>
     </g>
     <g id="line2d_16">
      <g>
       <use xlink:href="#m2bd9255cc5" x="371.302469" y="308.26625" style="fill-opacity: 0; stroke: #000000; stroke-width: 0.8"/>
      </g>
     </g>
     <g id="text_8">
      <!-- 0.50 -->
      <g transform="translate(357.943094 324.384375) scale(0.12 -0.12)">
       <use xlink:href="#DejaVuSerif-30"/>
       <use xlink:href="#DejaVuSerif-2e" transform="translate(63.623047 0)"/>
       <use xlink:href="#DejaVuSerif-35" transform="translate(95.410156 0)"/>
       <use xlink:href="#DejaVuSerif-30" transform="translate(159.033203 0)"/>
      </g>
     </g>
    </g>
    <g id="xtick_9">
     <g id="line2d_17">
      <path d="M 415.702541 308.26625 
L 415.702541 24.14175 
" clip-path="url(#p619fa2ed45)" style="fill: none; stroke: #b0b0b0; stroke-width: 0.8; stroke-linecap: square"/>
     </g>
     <g id="line2d_18">
      <g>
       <use xlink:href="#m2bd9255cc5" x="415.702541" y="308.26625" style="fill-opacity: 0; stroke: #000000; stroke-width: 0.8"/>
      </g>
     </g>
     <g id="text_9">
      <!-- 0.75 -->
      <g transform="translate(402.343166 324.384375) scale(0.12 -0.12)">
       <use xlink:href="#DejaVuSerif-30"/>
       <use xlink:href="#DejaVuSerif-2e" transform="translate(63.623047 0)"/>
       <use xlink:href="#DejaVuSerif-37" transform="translate(95.410156 0)"/>
       <use xlink:href="#DejaVuSerif-35" transform="translate(159.033203 0)"/>
      </g>
     </g>
    </g>
   </g>
   <g id="matplotlib.axis_2">
    <g id="ytick_1">
     <g id="line2d_19">
      <path d="M 43.339375 272.916579 
L 442.08 272.916579 
" clip-path="url(#p619fa2ed45)" style="fill: none; stroke: #b0b0b0; stroke-width: 0.8; stroke-linecap: square"/>
     </g>
     <g id="line2d_20">
      <defs>
       <path id="me4f1beb91d" d="M 0 0 
L -3.5 0 
" style="stroke: #000000; stroke-width: 0.8"/>
      </defs>
      <g>
       <use xlink:href="#me4f1beb91d" x="43.339375" y="272.916579" style="fill-opacity: 0; stroke: #000000; stroke-width: 0.8"/>
      </g>
     </g>
     <g id="text_10">
      <!-- −0.6 -->
      <g transform="translate(7.2 277.475641) scale(0.12 -0.12)">
       <defs>
        <path id="DejaVuSerif-36" d="M 2094 219 
Q 2534 219 2771 542 
Q 3009 866 3009 1472 
Q 3009 2078 2771 2401 
Q 2534 2725 2094 2725 
Q 1647 2725 1412 2412 
Q 1178 2100 1178 1509 
Q 1178 888 1415 553 
Q 1653 219 2094 219 
z
M 1075 2569 
Q 1288 2803 1556 2918 
Q 1825 3034 2163 3034 
Q 2859 3034 3264 2615 
Q 3669 2197 3669 1472 
Q 3669 763 3233 336 
Q 2797 -91 2069 -91 
Q 1278 -91 853 498 
Q 428 1088 428 2181 
Q 428 3406 931 4078 
Q 1434 4750 2350 4750 
Q 2597 4750 2869 4703 
Q 3141 4656 3425 4563 
L 3425 3794 
L 3072 3794 
Q 3034 4109 2831 4275 
Q 2628 4441 2284 4441 
Q 1678 4441 1381 3981 
Q 1084 3522 1075 2569 
z
" transform="scale(0.015625)"/>
       </defs>
       <use xlink:href="#DejaVuSerif-2212"/>
       <use xlink:href="#DejaVuSerif-30" transform="translate(83.789062 0)"/>
       <use xlink:href="#DejaVuSerif-2e" transform="translate(147.412109 0)"/>
       <use xlink:href="#DejaVuSerif-36" transform="translate(179.199219 0)"/>
      </g>
     </g>
    </g>
    <g id="ytick_2">
     <g id="line2d_21">
      <path d="M 43.339375 237.345719 
L 442.08 237.345719 
" clip-path="url(#p619fa2ed45)" style="fill: none; stroke: #b0b0b0; stroke-width: 0.8; stroke-linecap: square"/>
     </g>
     <g id="line2d_22">
      <g>
       <use xlink:href="#me4f1beb91d" x="43.339375" y="237.345719" style="fill-opacity: 0; stroke: #000000; stroke-width: 0.8"/>
      </g>
     </g>
     <g id="text_11">
      <!-- −0.4 -->
      <g transform="translate(7.2 241.904782) scale(0.12 -0.12)">
       <defs>
        <path id="DejaVuSerif-34" d="M 2234 1581 
L 2234 4063 
L 641 1581 
L 2234 1581 
z
M 3609 0 
L 1484 0 
L 1484 331 
L 2234 331 
L 2234 1247 
L 197 1247 
L 197 1588 
L 2241 4750 
L 2859 4750 
L 2859 1581 
L 3750 1581 
L 3750 1247 
L 2859 1247 
L 2859 331 
L 3609 331 
L 3609 0 
z
" transform="scale(0.015625)"/>
       </defs>
       <use xlink:href="#DejaVuSerif-2212"/>
       <use xlink:href="#DejaVuSerif-30" transform="translate(83.789062 0)"/>
       <use xlink:href="#DejaVuSerif-2e" transform="translate(147.412109 0)"/>
       <use xlink:href="#DejaVuSerif-34" transform="translate(179.199219 0)"/>
      </g>
     </g>
    </g>
    <g id="ytick_3">
     <g id="line2d_23">
      <path d="M 43.339375 201.77486 
L 442.08 201.77486 
" clip-path="url(#p619fa2ed45)" style="fill: none; stroke: #b0b0b0; stroke-width: 0.8; stroke-linecap: square"/>
     </g>
     <g id="line2d_24">
      <g>
       <use xlink:href="#me4f1beb91d" x="43.339375" y="201.77486" style="fill-opacity: 0; stroke: #000000; stroke-width: 0.8"/>
      </g>
     </g>
     <g id="text_12">
      <!-- −0.2 -->
      <g transform="translate(7.2 206.333922) scale(0.12 -0.12)">
       <use xlink:href="#DejaVuSerif-2212"/>
       <use xlink:href="#DejaVuSerif-30" transform="translate(83.789062 0)"/>
       <use xlink:href="#DejaVuSerif-2e" transform="translate(147.412109 0)"/>
       <use xlink:href="#DejaVuSerif-32" transform="translate(179.199219 0)"/>
      </g>
     </g>
    </g>
    <g id="ytick_4">
     <g id="line2d_25">
      <path d="M 43.339375 166.204 
L 442.08 166.204 
" clip-path="url(#p619fa2ed45)" style="fill: none; stroke: #b0b0b0; stroke-width: 0.8; stroke-linecap: square"/>
     </g>
     <g id="line2d_26">
      <g>
       <use xlink:href="#me4f1beb91d" x="43.339375" y="166.204" style="fill-opacity: 0; stroke: #000000; stroke-width: 0.8"/>
      </g>
     </g>
     <g id="text_13">
      <!-- 0.0 -->
      <g transform="translate(17.255625 170.763062) scale(0.12 -0.12)">
       <use xlink:href="#DejaVuSerif-30"/>
       <use xlink:href="#DejaVuSerif-2e" transform="translate(63.623047 0)"/>
       <use xlink:href="#DejaVuSerif-30" transform="translate(95.410156 0)"/>
      </g>
     </g>
    </g>
    <g id="ytick_5">
     <g id="line2d_27">
      <path d="M 43.339375 130.63314 
L 442.08 130.63314 
" clip-path="url(#p619fa2ed45)" style="fill: none; stroke: #b0b0b0; stroke-width: 0.8; stroke-linecap: square"/>
     </g>
     <g id="line2d_28">
      <g>
       <use xlink:href="#me4f1beb91d" x="43.339375" y="130.63314" style="fill-opacity: 0; stroke: #000000; stroke-width: 0.8"/>
      </g>
     </g>
     <g id="text_14">
      <!-- 0.2 -->
      <g transform="translate(17.255625 135.192203) scale(0.12 -0.12)">
       <use xlink:href="#DejaVuSerif-30"/>
       <use xlink:href="#DejaVuSerif-2e" transform="translate(63.623047 0)"/>
       <use xlink:href="#DejaVuSerif-32" transform="translate(95.410156 0)"/>
      </g>
     </g>
    </g>
    <g id="ytick_6">
     <g id="line2d_29">
      <path d="M 43.339375 95.062281 
L 442.08 95.062281 
" clip-path="url(#p619fa2ed45)" style="fill: none; stroke: #b0b0b0; stroke-width: 0.8; stroke-linecap: square"/>
     </g>
     <g id="line2d_30">
      <g>
       <use xlink:href="#me4f1beb91d" x="43.339375" y="95.062281" style="fill-opacity: 0; stroke: #000000; stroke-width: 0.8"/>
      </g>
     </g>
     <g id="text_15">
      <!-- 0.4 -->
      <g transform="translate(17.255625 99.621343) scale(0.12 -0.12)">
       <use xlink:href="#DejaVuSerif-30"/>
       <use xlink:href="#DejaVuSerif-2e" transform="translate(63.623047 0)"/>
       <use xlink:href="#DejaVuSerif-34" transform="translate(95.410156 0)"/>
      </g>
     </g>
    </g>
    <g id="ytick_7">
     <g id="line2d_31">
      <path d="M 43.339375 59.491421 
L 442.08 59.491421 
" clip-path="url(#p619fa2ed45)" style="fill: none; stroke: #b0b0b0; stroke-width: 0.8; stroke-linecap: square"/>
     </g>
     <g id="line2d_32">
      <g>
       <use xlink:href="#me4f1beb91d" x="43.339375" y="59.491421" style="fill-opacity: 0; stroke: #000000; stroke-width: 0.8"/>
      </g>
     </g>
     <g id="text_16">
      <!-- 0.6 -->
      <g transform="translate(17.255625 64.050484) scale(0.12 -0.12)">
       <use xlink:href="#DejaVuSerif-30"/>
       <use xlink:href="#DejaVuSerif-2e" transform="translate(63.623047 0)"/>
       <use xlink:href="#DejaVuSerif-36" transform="translate(95.410156 0)"/>
      </g>
     </g>
    </g>
   </g>
   <g id="line2d_33">
    <defs>
     <path id="m7fa85c98d8" d="M 0 3 
C 0.795609 3 1.55874 2.683901 2.12132 2.12132 
C 2.683901 1.55874 3 0.795609 3 0 
C 3 -0.795609 2.683901 -1.55874 2.12132 -2.12132 
C 1.55874 -2.683901 0.795609 -3 0 -3 
C -0.795609 -3 -1.55874 -2.683901 -2.12132 -2.12132 
C -2.683901 -1.55874 -3 -0.795609 -3 0 
C -3 0.795609 -2.683901 1.55874 -2.12132 2.12132 
C -1.55874 2.683901 -0.795609 3 0 3 
z
" style="stroke: #1f77b4"/>
    </defs>
    <g clip-path="url(#p619fa2ed45)">
     <use xlink:href="#m7fa85c98d8" x="254.670112" y="59.041857" style="fill-opacity: 0; stroke: #1f77b4"/>
     <use xlink:href="#m7fa85c98d8" x="254.670112" y="273.366143" style="fill-opacity: 0; stroke: #1f77b4"/>
     <use xlink:href="#m7fa85c98d8" x="274.744288" y="113.431252" style="fill-opacity: 0; stroke: #1f77b4"/>
     <use xlink:href="#m7fa85c98d8" x="274.744288" y="218.976748" style="fill-opacity: 0; stroke: #1f77b4"/>
     <use xlink:href="#m7fa85c98d8" x="278.919963" y="130.499546" style="fill-opacity: 0; stroke: #1f77b4"/>
     <use xlink:href="#m7fa85c98d8" x="278.919963" y="201.908454" style="fill-opacity: 0; stroke: #1f77b4"/>
     <use xlink:href="#m7fa85c98d8" x="280.513869" y="138.443308" style="fill-opacity: 0; stroke: #1f77b4"/>
     <use xlink:href="#m7fa85c98d8" x="280.513869" y="193.964692" style="fill-opacity: 0; stroke: #1f77b4"/>
     <use xlink:href="#m7fa85c98d8" x="281.211133" y="142.434248" style="fill-opacity: 0; stroke: #1f77b4"/>
     <use xlink:href="#m7fa85c98d8" x="281.211133" y="189.973752" style="fill-opacity: 0; stroke: #1f77b4"/>
     <use xlink:href="#m7fa85c98d8" x="280.633867" y="144.562082" style="fill-opacity: 0; stroke: #1f77b4"/>
     <use xlink:href="#m7fa85c98d8" x="280.633867" y="187.845918" style="fill-opacity: 0; stroke: #1f77b4"/>
     <use xlink:href="#m7fa85c98d8" x="279.627537" y="146.452494" style="fill-opacity: 0; stroke: #1f77b4"/>
     <use xlink:href="#m7fa85c98d8" x="279.627537" y="185.955506" style="fill-opacity: 0; stroke: #1f77b4"/>
     <use xlink:href="#m7fa85c98d8" x="278.628124" y="148.086791" style="fill-opacity: 0; stroke: #1f77b4"/>
     <use xlink:href="#m7fa85c98d8" x="278.628124" y="184.321209" style="fill-opacity: 0; stroke: #1f77b4"/>
     <use xlink:href="#m7fa85c98d8" x="277.684674" y="149.538944" style="fill-opacity: 0; stroke: #1f77b4"/>
     <use xlink:href="#m7fa85c98d8" x="277.684674" y="182.869056" style="fill-opacity: 0; stroke: #1f77b4"/>
     <use xlink:href="#m7fa85c98d8" x="276.814554" y="150.860037" style="fill-opacity: 0; stroke: #1f77b4"/>
     <use xlink:href="#m7fa85c98d8" x="276.814554" y="181.547963" style="fill-opacity: 0; stroke: #1f77b4"/>
     <use xlink:href="#m7fa85c98d8" x="276.020862" y="152.084929" style="fill-opacity: 0; stroke: #1f77b4"/>
     <use xlink:href="#m7fa85c98d8" x="276.020862" y="180.323071" style="fill-opacity: 0; stroke: #1f77b4"/>
     <use xlink:href="#m7fa85c98d8" x="266.595043" y="162.540084" style="fill-opacity: 0; stroke: #1f77b4"/>
     <use xlink:href="#m7fa85c98d8" x="266.595043" y="169.867916" style="fill-opacity: 0; stroke: #1f77b4"/>
     <use xlink:href="#m7fa85c98d8" x="265.95665" y="166.204" style="fill-opacity: 0; stroke: #1f77b4"/>
     <use xlink:href="#m7fa85c98d8" x="268.304087" y="159.467094" style="fill-opacity: 0; stroke: #1f77b4"/>
     <use xlink:href="#m7fa85c98d8" x="268.304087" y="172.940906" style="fill-opacity: 0; stroke: #1f77b4"/>
     <use xlink:href="#m7fa85c98d8" x="275.300678" y="153.237335" style="fill-opacity: 0; stroke: #1f77b4"/>
     <use xlink:href="#m7fa85c98d8" x="275.300678" y="179.170665" style="fill-opacity: 0; stroke: #1f77b4"/>
     <use xlink:href="#m7fa85c98d8" x="270.610368" y="157.290922" style="fill-opacity: 0; stroke: #1f77b4"/>
     <use xlink:href="#m7fa85c98d8" x="270.610368" y="175.117078" style="fill-opacity: 0; stroke: #1f77b4"/>
     <use xlink:href="#m7fa85c98d8" x="274.656445" y="154.325652" style="fill-opacity: 0; stroke: #1f77b4"/>
     <use xlink:href="#m7fa85c98d8" x="274.656445" y="178.082348" style="fill-opacity: 0; stroke: #1f77b4"/>
     <use xlink:href="#m7fa85c98d8" x="274.145259" y="155.439679" style="fill-opacity: 0; stroke: #1f77b4"/>
     <use xlink:href="#m7fa85c98d8" x="274.145259" y="176.968321" style="fill-opacity: 0; stroke: #1f77b4"/>
     <use xlink:href="#m7fa85c98d8" x="273.043803" y="155.983194" style="fill-opacity: 0; stroke: #1f77b4"/>
     <use xlink:href="#m7fa85c98d8" x="273.043803" y="176.424806" style="fill-opacity: 0; stroke: #1f77b4"/>
     <use xlink:href="#m7fa85c98d8" x="273.890149" y="156.985192" style="fill-opacity: 0; stroke: #1f77b4"/>
     <use xlink:href="#m7fa85c98d8" x="273.890149" y="175.422808" style="fill-opacity: 0; stroke: #1f77b4"/>
     <use xlink:href="#m7fa85c98d8" x="273.880448" y="158.526486" style="fill-opacity: 0; stroke: #1f77b4"/>
     <use xlink:href="#m7fa85c98d8" x="273.880448" y="173.881514" style="fill-opacity: 0; stroke: #1f77b4"/>
     <use xlink:href="#m7fa85c98d8" x="273.872703" y="160.055433" style="fill-opacity: 0; stroke: #1f77b4"/>
     <use xlink:href="#m7fa85c98d8" x="273.872703" y="172.352567" style="fill-opacity: 0; stroke: #1f77b4"/>
     <use xlink:href="#m7fa85c98d8" x="273.872124" y="161.585598" style="fill-opacity: 0; stroke: #1f77b4"/>
     <use xlink:href="#m7fa85c98d8" x="273.872124" y="170.822402" style="fill-opacity: 0; stroke: #1f77b4"/>
     <use xlink:href="#m7fa85c98d8" x="273.876128" y="163.120446" style="fill-opacity: 0; stroke: #1f77b4"/>
     <use xlink:href="#m7fa85c98d8" x="273.876128" y="169.287554" style="fill-opacity: 0; stroke: #1f77b4"/>
     <use xlink:href="#m7fa85c98d8" x="273.882441" y="166.204" style="fill-opacity: 0; stroke: #1f77b4"/>
     <use xlink:href="#m7fa85c98d8" x="273.880599" y="164.660602" style="fill-opacity: 0; stroke: #1f77b4"/>
     <use xlink:href="#m7fa85c98d8" x="273.880599" y="167.747398" style="fill-opacity: 0; stroke: #1f77b4"/>
    </g>
   </g>
   <g id="line2d_34">
    <defs>
     <path id="m16845a3e6b" d="M 0 -3 
L -0.673542 -0.927051 
L -2.85317 -0.927051 
L -1.089814 0.354102 
L -1.763356 2.427051 
L -0 1.145898 
L 1.763356 2.427051 
L 1.089814 0.354102 
L 2.85317 -0.927051 
L 0.673542 -0.927051 
z
" style="stroke: #ff7f0e; stroke-linejoin: bevel"/>
    </defs>
    <g clip-path="url(#p619fa2ed45)">
     <use xlink:href="#m16845a3e6b" x="250.694081" y="43.732979" style="fill-opacity: 0; stroke: #ff7f0e; stroke-linejoin: bevel"/>
     <use xlink:href="#m16845a3e6b" x="250.694081" y="288.675021" style="fill-opacity: 0; stroke: #ff7f0e; stroke-linejoin: bevel"/>
     <use xlink:href="#m16845a3e6b" x="273.635997" y="105.892288" style="fill-opacity: 0; stroke: #ff7f0e; stroke-linejoin: bevel"/>
     <use xlink:href="#m16845a3e6b" x="273.635997" y="226.515712" style="fill-opacity: 0; stroke: #ff7f0e; stroke-linejoin: bevel"/>
     <use xlink:href="#m16845a3e6b" x="278.408197" y="125.39891" style="fill-opacity: 0; stroke: #ff7f0e; stroke-linejoin: bevel"/>
     <use xlink:href="#m16845a3e6b" x="278.408197" y="207.00909" style="fill-opacity: 0; stroke: #ff7f0e; stroke-linejoin: bevel"/>
     <use xlink:href="#m16845a3e6b" x="280.229804" y="134.477495" style="fill-opacity: 0; stroke: #ff7f0e; stroke-linejoin: bevel"/>
     <use xlink:href="#m16845a3e6b" x="280.229804" y="197.930505" style="fill-opacity: 0; stroke: #ff7f0e; stroke-linejoin: bevel"/>
     <use xlink:href="#m16845a3e6b" x="281.026676" y="139.038569" style="fill-opacity: 0; stroke: #ff7f0e; stroke-linejoin: bevel"/>
     <use xlink:href="#m16845a3e6b" x="281.026676" y="193.369431" style="fill-opacity: 0; stroke: #ff7f0e; stroke-linejoin: bevel"/>
     <use xlink:href="#m16845a3e6b" x="280.366945" y="141.47038" style="fill-opacity: 0; stroke: #ff7f0e; stroke-linejoin: bevel"/>
     <use xlink:href="#m16845a3e6b" x="280.366945" y="190.93762" style="fill-opacity: 0; stroke: #ff7f0e; stroke-linejoin: bevel"/>
     <use xlink:href="#m16845a3e6b" x="279.216853" y="143.63085" style="fill-opacity: 0; stroke: #ff7f0e; stroke-linejoin: bevel"/>
     <use xlink:href="#m16845a3e6b" x="279.216853" y="188.77715" style="fill-opacity: 0; stroke: #ff7f0e; stroke-linejoin: bevel"/>
     <use xlink:href="#m16845a3e6b" x="278.074667" y="145.498619" style="fill-opacity: 0; stroke: #ff7f0e; stroke-linejoin: bevel"/>
     <use xlink:href="#m16845a3e6b" x="278.074667" y="186.909381" style="fill-opacity: 0; stroke: #ff7f0e; stroke-linejoin: bevel"/>
     <use xlink:href="#m16845a3e6b" x="276.996438" y="147.158222" style="fill-opacity: 0; stroke: #ff7f0e; stroke-linejoin: bevel"/>
     <use xlink:href="#m16845a3e6b" x="276.996438" y="185.249778" style="fill-opacity: 0; stroke: #ff7f0e; stroke-linejoin: bevel"/>
     <use xlink:href="#m16845a3e6b" x="276.002015" y="148.668043" style="fill-opacity: 0; stroke: #ff7f0e; stroke-linejoin: bevel"/>
     <use xlink:href="#m16845a3e6b" x="276.002015" y="183.739957" style="fill-opacity: 0; stroke: #ff7f0e; stroke-linejoin: bevel"/>
     <use xlink:href="#m16845a3e6b" x="275.094939" y="150.067919" style="fill-opacity: 0; stroke: #ff7f0e; stroke-linejoin: bevel"/>
     <use xlink:href="#m16845a3e6b" x="275.094939" y="182.340081" style="fill-opacity: 0; stroke: #ff7f0e; stroke-linejoin: bevel"/>
     <use xlink:href="#m16845a3e6b" x="264.322574" y="162.016667" style="fill-opacity: 0; stroke: #ff7f0e; stroke-linejoin: bevel"/>
     <use xlink:href="#m16845a3e6b" x="264.322574" y="170.391333" style="fill-opacity: 0; stroke: #ff7f0e; stroke-linejoin: bevel"/>
     <use xlink:href="#m16845a3e6b" x="263.592983" y="166.204" style="fill-opacity: 0; stroke: #ff7f0e; stroke-linejoin: bevel"/>
     <use xlink:href="#m16845a3e6b" x="266.275767" y="158.504679" style="fill-opacity: 0; stroke: #ff7f0e; stroke-linejoin: bevel"/>
     <use xlink:href="#m16845a3e6b" x="266.275767" y="173.903321" style="fill-opacity: 0; stroke: #ff7f0e; stroke-linejoin: bevel"/>
     <use xlink:href="#m16845a3e6b" x="274.271871" y="151.384955" style="fill-opacity: 0; stroke: #ff7f0e; stroke-linejoin: bevel"/>
     <use xlink:href="#m16845a3e6b" x="274.271871" y="181.023045" style="fill-opacity: 0; stroke: #ff7f0e; stroke-linejoin: bevel"/>
     <use xlink:href="#m16845a3e6b" x="268.911516" y="156.017625" style="fill-opacity: 0; stroke: #ff7f0e; stroke-linejoin: bevel"/>
     <use xlink:href="#m16845a3e6b" x="268.911516" y="176.390375" style="fill-opacity: 0; stroke: #ff7f0e; stroke-linejoin: bevel"/>
     <use xlink:href="#m16845a3e6b" x="273.535605" y="152.628745" style="fill-opacity: 0; stroke: #ff7f0e; stroke-linejoin: bevel"/>
     <use xlink:href="#m16845a3e6b" x="273.535605" y="179.779255" style="fill-opacity: 0; stroke: #ff7f0e; stroke-linejoin: bevel"/>
     <use xlink:href="#m16845a3e6b" x="272.951392" y="153.901919" style="fill-opacity: 0; stroke: #ff7f0e; stroke-linejoin: bevel"/>
     <use xlink:href="#m16845a3e6b" x="272.951392" y="178.506081" style="fill-opacity: 0; stroke: #ff7f0e; stroke-linejoin: bevel"/>
     <use xlink:href="#m16845a3e6b" x="271.692586" y="154.523078" style="fill-opacity: 0; stroke: #ff7f0e; stroke-linejoin: bevel"/>
     <use xlink:href="#m16845a3e6b" x="271.692586" y="177.884922" style="fill-opacity: 0; stroke: #ff7f0e; stroke-linejoin: bevel"/>
     <use xlink:href="#m16845a3e6b" x="272.659838" y="155.668219" style="fill-opacity: 0; stroke: #ff7f0e; stroke-linejoin: bevel"/>
     <use xlink:href="#m16845a3e6b" x="272.659838" y="176.739781" style="fill-opacity: 0; stroke: #ff7f0e; stroke-linejoin: bevel"/>
     <use xlink:href="#m16845a3e6b" x="272.648751" y="157.429698" style="fill-opacity: 0; stroke: #ff7f0e; stroke-linejoin: bevel"/>
     <use xlink:href="#m16845a3e6b" x="272.648751" y="174.978302" style="fill-opacity: 0; stroke: #ff7f0e; stroke-linejoin: bevel"/>
     <use xlink:href="#m16845a3e6b" x="272.6399" y="159.177066" style="fill-opacity: 0; stroke: #ff7f0e; stroke-linejoin: bevel"/>
     <use xlink:href="#m16845a3e6b" x="272.6399" y="173.230934" style="fill-opacity: 0; stroke: #ff7f0e; stroke-linejoin: bevel"/>
     <use xlink:href="#m16845a3e6b" x="272.639238" y="160.925826" style="fill-opacity: 0; stroke: #ff7f0e; stroke-linejoin: bevel"/>
     <use xlink:href="#m16845a3e6b" x="272.639238" y="171.482174" style="fill-opacity: 0; stroke: #ff7f0e; stroke-linejoin: bevel"/>
     <use xlink:href="#m16845a3e6b" x="272.643814" y="162.679939" style="fill-opacity: 0; stroke: #ff7f0e; stroke-linejoin: bevel"/>
     <use xlink:href="#m16845a3e6b" x="272.643814" y="169.728061" style="fill-opacity: 0; stroke: #ff7f0e; stroke-linejoin: bevel"/>
     <use xlink:href="#m16845a3e6b" x="272.651029" y="166.204" style="fill-opacity: 0; stroke: #ff7f0e; stroke-linejoin: bevel"/>
     <use xlink:href="#m16845a3e6b" x="272.648924" y="164.440117" style="fill-opacity: 0; stroke: #ff7f0e; stroke-linejoin: bevel"/>
     <use xlink:href="#m16845a3e6b" x="272.648924" y="167.967883" style="fill-opacity: 0; stroke: #ff7f0e; stroke-linejoin: bevel"/>
    </g>
   </g>
   <g id="line2d_35">
    <path d="M 282.502325 166.204 
L 282.584421 132.696281 
L 282.756619 121.576109 
L 283.106079 110.548142 
L 283.708649 99.696356 
L 284.632334 89.140363 
L 285.921454 79.034144 
L 286.706331 74.205274 
L 287.580201 69.557456 
L 288.535157 65.114418 
L 289.559563 60.899003 
L 291.752339 53.233058 
L 293.99977 46.69426 
L 296.110053 41.35728 
L 299.538941 33.15009 
L 299.756621 32.298368 
L 299.789933 31.671234 
L 299.633439 31.250185 
L 299.284846 31.01686 
L 298.744714 30.953527 
L 298.016099 31.043451 
L 296.015822 31.622647 
L 293.343841 32.648479 
L 288.245366 34.852362 
L 279.851598 38.772631 
L 272.711514 42.33721 
L 265.114729 46.403055 
L 259.898868 49.390846 
L 254.624531 52.603111 
L 249.339167 56.042942 
L 244.085424 59.713073 
L 238.901761 63.615252 
L 233.822996 67.749851 
L 228.880765 72.115627 
L 224.103903 76.709612 
L 219.518758 81.527073 
L 215.149431 86.561536 
L 211.017968 91.804844 
L 207.144506 97.247243 
L 203.547381 102.87748 
L 200.24321 108.682922 
L 197.246948 114.649667 
L 194.571926 120.762673 
L 192.229882 127.005882 
L 190.230975 133.362344 
L 188.583793 139.814349 
L 187.295364 146.343549 
L 186.371153 152.931091 
L 185.815065 159.557737 
L 185.629442 166.204 
L 185.815065 172.850263 
L 186.371153 179.476909 
L 187.295364 186.064451 
L 188.583793 192.593651 
L 190.230975 199.045656 
L 192.229882 205.402118 
L 194.571926 211.645327 
L 197.246948 217.758333 
L 200.24321 223.725078 
L 203.547381 229.53052 
L 207.144506 235.160757 
L 211.017968 240.603156 
L 215.149431 245.846464 
L 219.518758 250.880927 
L 224.103903 255.698388 
L 228.880765 260.292373 
L 233.822996 264.658149 
L 238.901761 268.792748 
L 244.085424 272.694927 
L 249.339167 276.365058 
L 254.624531 279.804889 
L 259.898868 283.017154 
L 267.684431 287.415507 
L 275.153348 291.315299 
L 282.089951 294.708652 
L 290.076386 298.368701 
L 294.759295 300.322599 
L 297.104171 301.136835 
L 298.744714 301.454473 
L 299.284846 301.39114 
L 299.633439 301.157815 
L 299.789933 300.736766 
L 299.756621 300.109632 
L 299.145684 298.163524 
L 293.99977 285.71374 
L 291.752339 279.174942 
L 290.638153 275.475656 
L 289.559563 271.508997 
L 288.535157 267.293582 
L 287.580201 262.850544 
L 286.706331 258.202726 
L 285.921454 253.373856 
L 285.229831 248.387757 
L 284.126829 238.035493 
L 283.371116 227.314397 
L 282.904436 216.361839 
L 282.653029 205.279392 
L 282.518763 188.55159 
L 282.502325 166.204 
L 282.502325 166.204 
" clip-path="url(#p619fa2ed45)" style="fill: none; stroke: #2ca02c; stroke-width: 1.5; stroke-linecap: square"/>
   </g>
   <g id="patch_3">
    <path d="M 43.339375 308.26625 
L 43.339375 24.14175 
" style="fill: none; stroke: #000000; stroke-width: 0.8; stroke-linejoin: miter; stroke-linecap: square"/>
   </g>
   <g id="patch_4">
    <path d="M 442.08 308.26625 
L 442.08 24.14175 
" style="fill: none; stroke: #000000; stroke-width: 0.8; stroke-linejoin: miter; stroke-linecap: square"/>
   </g>
   <g id="patch_5">
    <path d="M 43.339375 308.26625 
L 442.08 308.26625 
" style="fill: none; stroke: #000000; stroke-width: 0.8; stroke-linejoin: miter; stroke-linecap: square"/>
   </g>
   <g id="patch_6">
    <path d="M 43.339375 24.14175 
L 442.08 24.14175 
" style="fill: none; stroke: #000000; stroke-width: 0.8; stroke-linejoin: miter; stroke-linecap: square"/>
   </g>
   <g id="text_17">
    <!-- Adams-Bashforth, N =50 -->
    <g transform="translate(151.404687 18.14175) scale(0.144 -0.144)">
     <defs>
      <path id="DejaVuSerif-41" d="M 1281 1691 
L 2994 1691 
L 2138 3909 
L 1281 1691 
z
M -38 0 
L -38 331 
L 372 331 
L 2034 4666 
L 2559 4666 
L 4225 331 
L 4684 331 
L 4684 0 
L 2988 0 
L 2988 331 
L 3506 331 
L 3116 1356 
L 1153 1356 
L 763 331 
L 1275 331 
L 1275 0 
L -38 0 
z
" transform="scale(0.015625)"/>
      <path id="DejaVuSerif-64" d="M 3359 331 
L 3909 331 
L 3909 0 
L 2784 0 
L 2784 519 
Q 2616 206 2355 57 
Q 2094 -91 1709 -91 
Q 1097 -91 708 395 
Q 319 881 319 1663 
Q 319 2444 706 2928 
Q 1094 3413 1709 3413 
Q 2094 3413 2355 3264 
Q 2616 3116 2784 2803 
L 2784 4531 
L 2241 4531 
L 2241 4863 
L 3359 4863 
L 3359 331 
z
M 2784 1497 
L 2784 1825 
Q 2784 2422 2554 2737 
Q 2325 3053 1888 3053 
Q 1444 3053 1217 2703 
Q 991 2353 991 1663 
Q 991 975 1217 622 
Q 1444 269 1888 269 
Q 2325 269 2554 583 
Q 2784 897 2784 1497 
z
" transform="scale(0.015625)"/>
      <path id="DejaVuSerif-61" d="M 2547 1044 
L 2547 1747 
L 1806 1747 
Q 1378 1747 1168 1562 
Q 959 1378 959 997 
Q 959 650 1171 447 
Q 1384 244 1747 244 
Q 2106 244 2326 466 
Q 2547 688 2547 1044 
z
M 3122 2075 
L 3122 331 
L 3634 331 
L 3634 0 
L 2547 0 
L 2547 359 
Q 2356 128 2106 18 
Q 1856 -91 1522 -91 
Q 969 -91 644 203 
Q 319 497 319 997 
Q 319 1513 691 1797 
Q 1063 2081 1741 2081 
L 2547 2081 
L 2547 2309 
Q 2547 2688 2317 2895 
Q 2088 3103 1672 3103 
Q 1328 3103 1125 2947 
Q 922 2791 872 2484 
L 575 2484 
L 575 3156 
Q 875 3284 1158 3348 
Q 1441 3413 1709 3413 
Q 2400 3413 2761 3070 
Q 3122 2728 3122 2075 
z
" transform="scale(0.015625)"/>
      <path id="DejaVuSerif-6d" d="M 3316 2675 
Q 3481 3041 3739 3227 
Q 3997 3413 4341 3413 
Q 4863 3413 5119 3089 
Q 5375 2766 5375 2113 
L 5375 331 
L 5894 331 
L 5894 0 
L 4300 0 
L 4300 331 
L 4800 331 
L 4800 2047 
Q 4800 2556 4650 2772 
Q 4500 2988 4153 2988 
Q 3769 2988 3567 2697 
Q 3366 2406 3366 1850 
L 3366 331 
L 3866 331 
L 3866 0 
L 2291 0 
L 2291 331 
L 2791 331 
L 2791 2069 
Q 2791 2566 2641 2777 
Q 2491 2988 2144 2988 
Q 1759 2988 1557 2697 
Q 1356 2406 1356 1850 
L 1356 331 
L 1856 331 
L 1856 0 
L 263 0 
L 263 331 
L 781 331 
L 781 2994 
L 231 2994 
L 231 3322 
L 1356 3322 
L 1356 2731 
Q 1516 3063 1762 3238 
Q 2009 3413 2322 3413 
Q 2709 3413 2968 3220 
Q 3228 3028 3316 2675 
z
" transform="scale(0.015625)"/>
      <path id="DejaVuSerif-73" d="M 359 184 
L 359 959 
L 691 959 
Q 703 588 923 403 
Q 1144 219 1575 219 
Q 1963 219 2166 364 
Q 2369 509 2369 788 
Q 2369 1006 2220 1140 
Q 2072 1275 1594 1428 
L 1178 1569 
Q 750 1706 558 1912 
Q 366 2119 366 2438 
Q 366 2894 700 3153 
Q 1034 3413 1625 3413 
Q 1888 3413 2178 3344 
Q 2469 3275 2778 3144 
L 2778 2419 
L 2447 2419 
Q 2434 2741 2221 2922 
Q 2009 3103 1644 3103 
Q 1281 3103 1095 2975 
Q 909 2847 909 2591 
Q 909 2381 1050 2254 
Q 1191 2128 1613 1997 
L 2069 1856 
Q 2541 1709 2748 1489 
Q 2956 1269 2956 922 
Q 2956 450 2595 179 
Q 2234 -91 1600 -91 
Q 1278 -91 972 -22 
Q 666 47 359 184 
z
" transform="scale(0.015625)"/>
      <path id="DejaVuSerif-2d" d="M 281 1959 
L 1881 1959 
L 1881 1472 
L 281 1472 
L 281 1959 
z
" transform="scale(0.015625)"/>
      <path id="DejaVuSerif-42" d="M 1581 331 
L 2516 331 
Q 3078 331 3337 575 
Q 3597 819 3597 1350 
Q 3597 1878 3339 2120 
Q 3081 2363 2516 2363 
L 1581 2363 
L 1581 331 
z
M 1581 2694 
L 2375 2694 
Q 2888 2694 3123 2891 
Q 3359 3088 3359 3513 
Q 3359 3941 3123 4136 
Q 2888 4331 2375 4331 
L 1581 4331 
L 1581 2694 
z
M 353 0 
L 353 331 
L 947 331 
L 947 4331 
L 353 4331 
L 353 4666 
L 2656 4666 
Q 3363 4666 3720 4377 
Q 4078 4088 4078 3513 
Q 4078 3097 3829 2850 
Q 3581 2603 3103 2547 
Q 3697 2472 4005 2167 
Q 4313 1863 4313 1350 
Q 4313 656 3875 328 
Q 3438 0 2509 0 
L 353 0 
z
" transform="scale(0.015625)"/>
      <path id="DejaVuSerif-68" d="M 263 0 
L 263 331 
L 781 331 
L 781 4531 
L 231 4531 
L 231 4863 
L 1356 4863 
L 1356 2731 
Q 1516 3069 1770 3241 
Q 2025 3413 2363 3413 
Q 2913 3413 3172 3097 
Q 3431 2781 3431 2113 
L 3431 331 
L 3944 331 
L 3944 0 
L 2356 0 
L 2356 331 
L 2853 331 
L 2853 1931 
Q 2853 2541 2704 2764 
Q 2556 2988 2175 2988 
Q 1775 2988 1565 2697 
Q 1356 2406 1356 1850 
L 1356 331 
L 1856 331 
L 1856 0 
L 263 0 
z
" transform="scale(0.015625)"/>
      <path id="DejaVuSerif-66" d="M 2753 4078 
L 2450 4078 
Q 2447 4313 2317 4434 
Q 2188 4556 1941 4556 
Q 1619 4556 1487 4379 
Q 1356 4203 1356 3750 
L 1356 3322 
L 2284 3322 
L 2284 2988 
L 1356 2988 
L 1356 331 
L 2094 331 
L 2094 0 
L 231 0 
L 231 331 
L 781 331 
L 781 2988 
L 231 2988 
L 231 3322 
L 781 3322 
L 781 3738 
Q 781 4294 1070 4578 
Q 1359 4863 1919 4863 
Q 2128 4863 2337 4825 
Q 2547 4788 2753 4709 
L 2753 4078 
z
" transform="scale(0.015625)"/>
      <path id="DejaVuSerif-6f" d="M 1925 219 
Q 2388 219 2623 584 
Q 2859 950 2859 1663 
Q 2859 2375 2623 2739 
Q 2388 3103 1925 3103 
Q 1463 3103 1227 2739 
Q 991 2375 991 1663 
Q 991 950 1228 584 
Q 1466 219 1925 219 
z
M 1925 -91 
Q 1200 -91 759 389 
Q 319 869 319 1663 
Q 319 2456 758 2934 
Q 1197 3413 1925 3413 
Q 2653 3413 3092 2934 
Q 3531 2456 3531 1663 
Q 3531 869 3092 389 
Q 2653 -91 1925 -91 
z
" transform="scale(0.015625)"/>
      <path id="DejaVuSerif-72" d="M 3059 3328 
L 3059 2497 
L 2728 2497 
Q 2713 2744 2591 2866 
Q 2469 2988 2234 2988 
Q 1809 2988 1582 2694 
Q 1356 2400 1356 1850 
L 1356 331 
L 2022 331 
L 2022 0 
L 263 0 
L 263 331 
L 781 331 
L 781 2994 
L 231 2994 
L 231 3322 
L 1356 3322 
L 1356 2731 
Q 1525 3078 1790 3245 
Q 2056 3413 2438 3413 
Q 2578 3413 2733 3391 
Q 2888 3369 3059 3328 
z
" transform="scale(0.015625)"/>
      <path id="DejaVuSerif-74" d="M 691 2988 
L 184 2988 
L 184 3322 
L 691 3322 
L 691 4353 
L 1269 4353 
L 1269 3322 
L 2350 3322 
L 2350 2988 
L 1269 2988 
L 1269 878 
Q 1269 456 1350 337 
Q 1431 219 1650 219 
Q 1875 219 1978 351 
Q 2081 484 2088 781 
L 2522 781 
Q 2497 328 2275 118 
Q 2053 -91 1600 -91 
Q 1103 -91 897 129 
Q 691 350 691 878 
L 691 2988 
z
" transform="scale(0.015625)"/>
      <path id="DejaVuSerif-2c" d="M 231 -622 
Q 525 -406 662 -114 
Q 800 178 800 594 
L 800 709 
L 1416 709 
Q 1391 175 1164 -208 
Q 938 -591 481 -872 
L 231 -622 
z
" transform="scale(0.015625)"/>
      <path id="DejaVuSerif-20" transform="scale(0.015625)"/>
      <path id="DejaVuSerif-4e" d="M 313 0 
L 313 331 
L 941 331 
L 941 4331 
L 313 4331 
L 313 4666 
L 1509 4666 
L 4306 984 
L 4306 4331 
L 3681 4331 
L 3681 4666 
L 5319 4666 
L 5319 4331 
L 4691 4331 
L 4691 -91 
L 4313 -91 
L 1325 3841 
L 1325 331 
L 1953 331 
L 1953 0 
L 313 0 
z
" transform="scale(0.015625)"/>
      <path id="DejaVuSerif-3d" d="M 678 2894 
L 4684 2894 
L 4684 2394 
L 678 2394 
L 678 2894 
z
M 678 1619 
L 4684 1619 
L 4684 1119 
L 678 1119 
L 678 1619 
z
" transform="scale(0.015625)"/>
     </defs>
     <use xlink:href="#DejaVuSerif-41"/>
     <use xlink:href="#DejaVuSerif-64" transform="translate(72.216797 0)"/>
     <use xlink:href="#DejaVuSerif-61" transform="translate(136.230469 0)"/>
     <use xlink:href="#DejaVuSerif-6d" transform="translate(195.849609 0)"/>
     <use xlink:href="#DejaVuSerif-73" transform="translate(290.673828 0)"/>
     <use xlink:href="#DejaVuSerif-2d" transform="translate(341.992188 0)"/>
     <use xlink:href="#DejaVuSerif-42" transform="translate(375.78125 0)"/>
     <use xlink:href="#DejaVuSerif-61" transform="translate(449.267578 0)"/>
     <use xlink:href="#DejaVuSerif-73" transform="translate(508.886719 0)"/>
     <use xlink:href="#DejaVuSerif-68" transform="translate(560.205078 0)"/>
     <use xlink:href="#DejaVuSerif-66" transform="translate(624.609375 0)"/>
     <use xlink:href="#DejaVuSerif-6f" transform="translate(661.621094 0)"/>
     <use xlink:href="#DejaVuSerif-72" transform="translate(721.826172 0)"/>
     <use xlink:href="#DejaVuSerif-74" transform="translate(769.628906 0)"/>
     <use xlink:href="#DejaVuSerif-68" transform="translate(809.814453 0)"/>
     <use xlink:href="#DejaVuSerif-2c" transform="translate(874.21875 0)"/>
     <use xlink:href="#DejaVuSerif-20" transform="translate(906.005859 0)"/>
     <use xlink:href="#DejaVuSerif-4e" transform="translate(937.792969 0)"/>
     <use xlink:href="#DejaVuSerif-20" transform="translate(1025.292969 0)"/>
     <use xlink:href="#DejaVuSerif-3d" transform="translate(1057.080078 0)"/>
     <use xlink:href="#DejaVuSerif-35" transform="translate(1140.869141 0)"/>
     <use xlink:href="#DejaVuSerif-30" transform="translate(1204.492188 0)"/>
    </g>
   </g>
   <g id="legend_1">
    <g id="patch_7">
     <path d="M 341.04 69.98175 
L 433.68 69.98175 
Q 436.08 69.98175 436.08 67.58175 
L 436.08 32.54175 
Q 436.08 30.14175 433.68 30.14175 
L 341.04 30.14175 
Q 338.64 30.14175 338.64 32.54175 
L 338.64 67.58175 
Q 338.64 69.98175 341.04 69.98175 
z
" style="fill: #ffffff; opacity: 0.8; stroke: #cccccc; stroke-linejoin: miter"/>
    </g>
    <g id="line2d_36">
     <g>
      <use xlink:href="#m7fa85c98d8" x="355.44" y="40.366125" style="fill-opacity: 0; stroke: #1f77b4"/>
     </g>
    </g>
    <g id="text_18">
     <!-- $dt=7/N^2$ -->
     <g transform="translate(377.04 44.566125) scale(0.12 -0.12)">
      <defs>
       <path id="DejaVuSans-Oblique-64" d="M 2675 525 
Q 2444 222 2128 65 
Q 1813 -91 1428 -91 
Q 903 -91 598 267 
Q 294 625 294 1247 
Q 294 1766 478 2236 
Q 663 2706 1013 3078 
Q 1244 3325 1534 3454 
Q 1825 3584 2144 3584 
Q 2481 3584 2739 3421 
Q 2997 3259 3138 2956 
L 3513 4863 
L 4091 4863 
L 3144 0 
L 2566 0 
L 2675 525 
z
M 891 1350 
Q 891 897 1095 644 
Q 1300 391 1663 391 
Q 1931 391 2161 520 
Q 2391 650 2566 903 
Q 2750 1166 2856 1509 
Q 2963 1853 2963 2188 
Q 2963 2622 2758 2865 
Q 2553 3109 2194 3109 
Q 1922 3109 1687 2981 
Q 1453 2853 1288 2613 
Q 1106 2353 998 2009 
Q 891 1666 891 1350 
z
" transform="scale(0.015625)"/>
       <path id="DejaVuSans-Oblique-74" d="M 2706 3500 
L 2619 3053 
L 1472 3053 
L 1100 1153 
Q 1081 1047 1072 975 
Q 1063 903 1063 863 
Q 1063 663 1183 572 
Q 1303 481 1569 481 
L 2150 481 
L 2053 0 
L 1503 0 
Q 991 0 739 200 
Q 488 400 488 806 
Q 488 878 497 964 
Q 506 1050 525 1153 
L 897 3053 
L 409 3053 
L 500 3500 
L 978 3500 
L 1172 4494 
L 1747 4494 
L 1556 3500 
L 2706 3500 
z
" transform="scale(0.015625)"/>
       <path id="DejaVuSans-3d" d="M 678 2906 
L 4684 2906 
L 4684 2381 
L 678 2381 
L 678 2906 
z
M 678 1631 
L 4684 1631 
L 4684 1100 
L 678 1100 
L 678 1631 
z
" transform="scale(0.015625)"/>
       <path id="DejaVuSans-37" d="M 525 4666 
L 3525 4666 
L 3525 4397 
L 1831 0 
L 1172 0 
L 2766 4134 
L 525 4134 
L 525 4666 
z
" transform="scale(0.015625)"/>
       <path id="DejaVuSans-2f" d="M 1625 4666 
L 2156 4666 
L 531 -594 
L 0 -594 
L 1625 4666 
z
" transform="scale(0.015625)"/>
       <path id="DejaVuSans-Oblique-4e" d="M 1081 4666 
L 1931 4666 
L 3219 666 
L 4000 4666 
L 4616 4666 
L 3706 0 
L 2853 0 
L 1569 4025 
L 788 0 
L 172 0 
L 1081 4666 
z
" transform="scale(0.015625)"/>
       <path id="DejaVuSans-32" d="M 1228 531 
L 3431 531 
L 3431 0 
L 469 0 
L 469 531 
Q 828 903 1448 1529 
Q 2069 2156 2228 2338 
Q 2531 2678 2651 2914 
Q 2772 3150 2772 3378 
Q 2772 3750 2511 3984 
Q 2250 4219 1831 4219 
Q 1534 4219 1204 4116 
Q 875 4013 500 3803 
L 500 4441 
Q 881 4594 1212 4672 
Q 1544 4750 1819 4750 
Q 2544 4750 2975 4387 
Q 3406 4025 3406 3419 
Q 3406 3131 3298 2873 
Q 3191 2616 2906 2266 
Q 2828 2175 2409 1742 
Q 1991 1309 1228 531 
z
" transform="scale(0.015625)"/>
      </defs>
      <use xlink:href="#DejaVuSans-Oblique-64" transform="translate(0 0.765625)"/>
      <use xlink:href="#DejaVuSans-Oblique-74" transform="translate(63.476562 0.765625)"/>
      <use xlink:href="#DejaVuSans-3d" transform="translate(122.167969 0.765625)"/>
      <use xlink:href="#DejaVuSans-37" transform="translate(225.439453 0.765625)"/>
      <use xlink:href="#DejaVuSans-2f" transform="translate(289.0625 0.765625)"/>
      <use xlink:href="#DejaVuSans-Oblique-4e" transform="translate(322.753906 0.765625)"/>
      <use xlink:href="#DejaVuSans-32" transform="translate(404.575365 39.046875) scale(0.7)"/>
     </g>
    </g>
    <g id="line2d_37">
     <g>
      <use xlink:href="#m16845a3e6b" x="355.44" y="58.486125" style="fill-opacity: 0; stroke: #ff7f0e; stroke-linejoin: bevel"/>
     </g>
    </g>
    <g id="text_19">
     <!-- $dt=8/N^2$ -->
     <g transform="translate(377.04 62.686125) scale(0.12 -0.12)">
      <defs>
       <path id="DejaVuSans-38" d="M 2034 2216 
Q 1584 2216 1326 1975 
Q 1069 1734 1069 1313 
Q 1069 891 1326 650 
Q 1584 409 2034 409 
Q 2484 409 2743 651 
Q 3003 894 3003 1313 
Q 3003 1734 2745 1975 
Q 2488 2216 2034 2216 
z
M 1403 2484 
Q 997 2584 770 2862 
Q 544 3141 544 3541 
Q 544 4100 942 4425 
Q 1341 4750 2034 4750 
Q 2731 4750 3128 4425 
Q 3525 4100 3525 3541 
Q 3525 3141 3298 2862 
Q 3072 2584 2669 2484 
Q 3125 2378 3379 2068 
Q 3634 1759 3634 1313 
Q 3634 634 3220 271 
Q 2806 -91 2034 -91 
Q 1263 -91 848 271 
Q 434 634 434 1313 
Q 434 1759 690 2068 
Q 947 2378 1403 2484 
z
M 1172 3481 
Q 1172 3119 1398 2916 
Q 1625 2713 2034 2713 
Q 2441 2713 2670 2916 
Q 2900 3119 2900 3481 
Q 2900 3844 2670 4047 
Q 2441 4250 2034 4250 
Q 1625 4250 1398 4047 
Q 1172 3844 1172 3481 
z
" transform="scale(0.015625)"/>
      </defs>
      <use xlink:href="#DejaVuSans-Oblique-64" transform="translate(0 0.765625)"/>
      <use xlink:href="#DejaVuSans-Oblique-74" transform="translate(63.476562 0.765625)"/>
      <use xlink:href="#DejaVuSans-3d" transform="translate(122.167969 0.765625)"/>
      <use xlink:href="#DejaVuSans-38" transform="translate(225.439453 0.765625)"/>
      <use xlink:href="#DejaVuSans-2f" transform="translate(289.0625 0.765625)"/>
      <use xlink:href="#DejaVuSans-Oblique-4e" transform="translate(322.753906 0.765625)"/>
      <use xlink:href="#DejaVuSans-32" transform="translate(404.575365 39.046875) scale(0.7)"/>
     </g>
    </g>
   </g>
  </g>
 </g>
 <defs>
  <clipPath id="p619fa2ed45">
   <rect x="43.339375" y="24.14175" width="398.740625" height="284.1245"/>
  </clipPath>
 </defs>
</svg>