<?xml version="1.0" encoding="utf-8" standalone="no"?>
<!DOCTYPE svg PUBLIC "-//W3C//DTD SVG 1.1//EN"
  "http://www.w3.org/Graphics/SVG/1.1/DTD/svg11.dtd">
<svg xmlns:xlink="http://www.w3.org/1999/xlink" width="348.45321pt" height="708.48pt" viewBox="0 0 348.45321 708.48" xmlns="http://www.w3.org/2000/svg" version="1.1">
 <metadata>
  <rdf:RDF xmlns:dc="http://purl.org/dc/elements/1.1/" xmlns:cc="http://creativecommons.org/ns#" xmlns:rdf="http://www.w3.org/1999/02/22-rdf-syntax-ns#">
   <cc:Work>
    <dc:type rdf:resource="http://purl.org/dc/dcmitype/StillImage"/>
    <dc:date>2025-03-03T21:32:01.501857</dc:date>
    <dc:format>image/svg+xml</dc:format>
    <dc:creator>
     <cc:Agent>
      <dc:title>Matplotlib v3.10.1, https://matplotlib.org/</dc:title>
     </cc:Agent>
    </dc:creator>
   </cc:Work>
  </rdf:RDF>
 </metadata>
 <defs>
  <style type="text/css">*{stroke-linejoin: round; stroke-linecap: butt}</style>
 </defs>
 <g id="figure_1">
  <g id="patch_1">
   <path d="M 0 708.48 
L 348.45321 708.48 
L 348.45321 0 
L 0 0 
z
" style="fill: #ffffff"/>
  </g>
  <g id="axes_1">
   <g id="patch_2">
    <path d="M 55.139375 667.0525 
L 337.251357 667.0525 
L 337.251357 7.2 
L 55.139375 7.2 
z
" style="fill: #ffffff"/>
   </g>
   <g id="matplotlib.axis_1">
    <g id="xtick_1">
     <g id="line2d_1">
      <defs>
       <path id="mfcfd87b804" d="M 0 0 
L 0 3.5 
" style="stroke: #000000; stroke-width: 0.8"/>
      </defs>
      <g>
       <use xlink:href="#mfcfd87b804" x="67.962647" y="667.0525" style="fill-opacity: 0; stroke: #000000; stroke-width: 0.8"/>
      </g>
     </g>
     <g id="text_1">
      <!-- 0.0 -->
      <g transform="translate(58.420772 683.170625) scale(0.12 -0.12)">
       <defs>
        <path id="DejaVuSerif-30" d="M 2034 219 
Q 2513 219 2750 744 
Q 2988 1269 2988 2328 
Q 2988 3391 2750 3916 
Q 2513 4441 2034 4441 
Q 1556 4441 1318 3916 
Q 1081 3391 1081 2328 
Q 1081 1269 1318 744 
Q 1556 219 2034 219 
z
M 2034 -91 
Q 1275 -91 848 546 
Q 422 1184 422 2328 
Q 422 3475 848 4112 
Q 1275 4750 2034 4750 
Q 2797 4750 3222 4112 
Q 3647 3475 3647 2328 
Q 3647 1184 3222 546 
Q 2797 -91 2034 -91 
z
" transform="scale(0.015625)"/>
        <path id="DejaVuSerif-2e" d="M 603 325 
Q 603 500 722 622 
Q 841 744 1019 744 
Q 1191 744 1312 622 
Q 1434 500 1434 325 
Q 1434 153 1312 31 
Q 1191 -91 1019 -91 
Q 841 -91 722 29 
Q 603 150 603 325 
z
" transform="scale(0.015625)"/>
       </defs>
       <use xlink:href="#DejaVuSerif-30"/>
       <use xlink:href="#DejaVuSerif-2e" transform="translate(63.623047 0)"/>
       <use xlink:href="#DejaVuSerif-30" transform="translate(95.410156 0)"/>
      </g>
     </g>
    </g>
    <g id="xtick_2">
     <g id="line2d_2">
      <g>
       <use xlink:href="#mfcfd87b804" x="111.284512" y="667.0525" style="fill-opacity: 0; stroke: #000000; stroke-width: 0.8"/>
      </g>
     </g>
     <g id="text_2">
      <!-- 2.5 -->
      <g transform="translate(101.742637 683.170625) scale(0.12 -0.12)">
       <defs>
        <path id="DejaVuSerif-32" d="M 819 3553 
L 469 3553 
L 469 4384 
Q 803 4563 1142 4656 
Q 1481 4750 1806 4750 
Q 2534 4750 2956 4397 
Q 3378 4044 3378 3438 
Q 3378 2753 2422 1800 
Q 2347 1728 2309 1691 
L 1131 513 
L 3078 513 
L 3078 1088 
L 3444 1088 
L 3444 0 
L 434 0 
L 434 341 
L 1850 1753 
Q 2319 2222 2519 2614 
Q 2719 3006 2719 3438 
Q 2719 3909 2473 4175 
Q 2228 4441 1797 4441 
Q 1350 4441 1106 4219 
Q 863 3997 819 3553 
z
" transform="scale(0.015625)"/>
        <path id="DejaVuSerif-35" d="M 3219 4666 
L 3219 4153 
L 1081 4153 
L 1081 2816 
Q 1244 2928 1461 2984 
Q 1678 3041 1947 3041 
Q 2703 3041 3140 2622 
Q 3578 2203 3578 1478 
Q 3578 738 3136 323 
Q 2694 -91 1894 -91 
Q 1572 -91 1234 -12 
Q 897 66 544 225 
L 544 1131 
L 897 1131 
Q 925 688 1179 453 
Q 1434 219 1894 219 
Q 2388 219 2653 544 
Q 2919 869 2919 1478 
Q 2919 2084 2655 2407 
Q 2391 2731 1894 2731 
Q 1613 2731 1398 2631 
Q 1184 2531 1019 2322 
L 750 2322 
L 750 4666 
L 3219 4666 
z
" transform="scale(0.015625)"/>
       </defs>
       <use xlink:href="#DejaVuSerif-32"/>
       <use xlink:href="#DejaVuSerif-2e" transform="translate(63.623047 0)"/>
       <use xlink:href="#DejaVuSerif-35" transform="translate(95.410156 0)"/>
      </g>
     </g>
    </g>
    <g id="xtick_3">
     <g id="line2d_3">
      <g>
       <use xlink:href="#mfcfd87b804" x="154.606376" y="667.0525" style="fill-opacity: 0; stroke: #000000; stroke-width: 0.8"/>
      </g>
     </g>
     <g id="text_3">
      <!-- 5.0 -->
      <g transform="translate(145.064501 683.170625) scale(0.12 -0.12)">
       <use xlink:href="#DejaVuSerif-35"/>
       <use xlink:href="#DejaVuSerif-2e" transform="translate(63.623047 0)"/>
       <use xlink:href="#DejaVuSerif-30" transform="translate(95.410156 0)"/>
      </g>
     </g>
    </g>
    <g id="xtick_4">
     <g id="line2d_4">
      <g>
       <use xlink:href="#mfcfd87b804" x="197.928241" y="667.0525" style="fill-opacity: 0; stroke: #000000; stroke-width: 0.8"/>
      </g>
     </g>
     <g id="text_4">
      <!-- 7.5 -->
      <g transform="translate(188.386366 683.170625) scale(0.12 -0.12)">
       <defs>
        <path id="DejaVuSerif-37" d="M 3609 4347 
L 1784 0 
L 1319 0 
L 3059 4153 
L 903 4153 
L 903 3578 
L 538 3578 
L 538 4666 
L 3609 4666 
L 3609 4347 
z
" transform="scale(0.015625)"/>
       </defs>
       <use xlink:href="#DejaVuSerif-37"/>
       <use xlink:href="#DejaVuSerif-2e" transform="translate(63.623047 0)"/>
       <use xlink:href="#DejaVuSerif-35" transform="translate(95.410156 0)"/>
      </g>
     </g>
    </g>
    <g id="xtick_5">
     <g id="line2d_5">
      <g>
       <use xlink:href="#mfcfd87b804" x="241.250105" y="667.0525" style="fill-opacity: 0; stroke: #000000; stroke-width: 0.8"/>
      </g>
     </g>
     <g id="text_5">
      <!-- 10.0 -->
      <g transform="translate(227.89073 683.170625) scale(0.12 -0.12)">
       <defs>
        <path id="DejaVuSerif-31" d="M 909 0 
L 909 331 
L 1722 331 
L 1722 4213 
L 781 3603 
L 781 4013 
L 1919 4750 
L 2350 4750 
L 2350 331 
L 3163 331 
L 3163 0 
L 909 0 
z
" transform="scale(0.015625)"/>
       </defs>
       <use xlink:href="#DejaVuSerif-31"/>
       <use xlink:href="#DejaVuSerif-30" transform="translate(63.623047 0)"/>
       <use xlink:href="#DejaVuSerif-2e" transform="translate(127.246094 0)"/>
       <use xlink:href="#DejaVuSerif-30" transform="translate(159.033203 0)"/>
      </g>
     </g>
    </g>
    <g id="xtick_6">
     <g id="line2d_6">
      <g>
       <use xlink:href="#mfcfd87b804" x="284.57197" y="667.0525" style="fill-opacity: 0; stroke: #000000; stroke-width: 0.8"/>
      </g>
     </g>
     <g id="text_6">
      <!-- 12.5 -->
      <g transform="translate(271.212595 683.170625) scale(0.12 -0.12)">
       <use xlink:href="#DejaVuSerif-31"/>
       <use xlink:href="#DejaVuSerif-32" transform="translate(63.623047 0)"/>
       <use xlink:href="#DejaVuSerif-2e" transform="translate(127.246094 0)"/>
       <use xlink:href="#DejaVuSerif-35" transform="translate(159.033203 0)"/>
      </g>
     </g>
    </g>
    <g id="xtick_7">
     <g id="line2d_7">
      <g>
       <use xlink:href="#mfcfd87b804" x="327.893835" y="667.0525" style="fill-opacity: 0; stroke: #000000; stroke-width: 0.8"/>
      </g>
     </g>
     <g id="text_7">
      <!-- 15.0 -->
      <g transform="translate(314.53446 683.170625) scale(0.12 -0.12)">
       <use xlink:href="#DejaVuSerif-31"/>
       <use xlink:href="#DejaVuSerif-35" transform="translate(63.623047 0)"/>
       <use xlink:href="#DejaVuSerif-2e" transform="translate(127.246094 0)"/>
       <use xlink:href="#DejaVuSerif-30" transform="translate(159.033203 0)"/>
      </g>
     </g>
    </g>
    <g id="text_8">
     <!-- q -->
     <g transform="translate(192.354429 698.784375) scale(0.12 -0.12)">
      <defs>
       <path id="DejaVuSerif-71" d="M 3359 2988 
L 3359 -997 
L 3909 -997 
L 3909 -1331 
L 2241 -1331 
L 2241 -997 
L 2784 -997 
L 2784 519 
Q 2616 206 2355 57 
Q 2094 -91 1709 -91 
Q 1097 -91 708 395 
Q 319 881 319 1663 
Q 319 2444 706 2928 
Q 1094 3413 1709 3413 
Q 2094 3413 2355 3264 
Q 2616 3116 2784 2803 
L 2784 3322 
L 3909 3322 
L 3909 2988 
L 3359 2988 
z
M 2784 1825 
Q 2784 2422 2554 2737 
Q 2325 3053 1888 3053 
Q 1444 3053 1217 2703 
Q 991 2353 991 1663 
Q 991 975 1217 622 
Q 1444 269 1888 269 
Q 2325 269 2554 583 
Q 2784 897 2784 1497 
L 2784 1825 
z
" transform="scale(0.015625)"/>
      </defs>
      <use xlink:href="#DejaVuSerif-71"/>
     </g>
    </g>
   </g>
   <g id="matplotlib.axis_2">
    <g id="ytick_1">
     <g id="line2d_8">
      <defs>
       <path id="mde1526dec0" d="M 0 0 
L -3.5 0 
" style="stroke: #000000; stroke-width: 0.8"/>
      </defs>
      <g>
       <use xlink:href="#mde1526dec0" x="55.139375" y="612.978409" style="fill-opacity: 0; stroke: #000000; stroke-width: 0.8"/>
      </g>
     </g>
     <g id="text_9">
      <!-- −20 -->
      <g transform="translate(22.81375 617.537471) scale(0.12 -0.12)">
       <defs>
        <path id="DejaVuSerif-2212" d="M 678 2259 
L 4684 2259 
L 4684 1753 
L 678 1753 
L 678 2259 
z
" transform="scale(0.015625)"/>
       </defs>
       <use xlink:href="#DejaVuSerif-2212"/>
       <use xlink:href="#DejaVuSerif-32" transform="translate(83.789062 0)"/>
       <use xlink:href="#DejaVuSerif-30" transform="translate(147.412109 0)"/>
      </g>
     </g>
    </g>
    <g id="ytick_2">
     <g id="line2d_9">
      <g>
       <use xlink:href="#mde1526dec0" x="55.139375" y="501.746626" style="fill-opacity: 0; stroke: #000000; stroke-width: 0.8"/>
      </g>
     </g>
     <g id="text_10">
      <!-- −10 -->
      <g transform="translate(22.81375 506.305688) scale(0.12 -0.12)">
       <use xlink:href="#DejaVuSerif-2212"/>
       <use xlink:href="#DejaVuSerif-31" transform="translate(83.789062 0)"/>
       <use xlink:href="#DejaVuSerif-30" transform="translate(147.412109 0)"/>
      </g>
     </g>
    </g>
    <g id="ytick_3">
     <g id="line2d_10">
      <g>
       <use xlink:href="#mde1526dec0" x="55.139375" y="390.514843" style="fill-opacity: 0; stroke: #000000; stroke-width: 0.8"/>
      </g>
     </g>
     <g id="text_11">
      <!-- 0 -->
      <g transform="translate(40.504375 395.073905) scale(0.12 -0.12)">
       <use xlink:href="#DejaVuSerif-30"/>
      </g>
     </g>
    </g>
    <g id="ytick_4">
     <g id="line2d_11">
      <g>
       <use xlink:href="#mde1526dec0" x="55.139375" y="279.28306" style="fill-opacity: 0; stroke: #000000; stroke-width: 0.8"/>
      </g>
     </g>
     <g id="text_12">
      <!-- 10 -->
      <g transform="translate(32.869375 283.842122) scale(0.12 -0.12)">
       <use xlink:href="#DejaVuSerif-31"/>
       <use xlink:href="#DejaVuSerif-30" transform="translate(63.623047 0)"/>
      </g>
     </g>
    </g>
    <g id="ytick_5">
     <g id="line2d_12">
      <g>
       <use xlink:href="#mde1526dec0" x="55.139375" y="168.051277" style="fill-opacity: 0; stroke: #000000; stroke-width: 0.8"/>
      </g>
     </g>
     <g id="text_13">
      <!-- 20 -->
      <g transform="translate(32.869375 172.610339) scale(0.12 -0.12)">
       <use xlink:href="#DejaVuSerif-32"/>
       <use xlink:href="#DejaVuSerif-30" transform="translate(63.623047 0)"/>
      </g>
     </g>
    </g>
    <g id="ytick_6">
     <g id="line2d_13">
      <g>
       <use xlink:href="#mde1526dec0" x="55.139375" y="56.819494" style="fill-opacity: 0; stroke: #000000; stroke-width: 0.8"/>
      </g>
     </g>
     <g id="text_14">
      <!-- 30 -->
      <g transform="translate(32.869375 61.378556) scale(0.12 -0.12)">
       <defs>
        <path id="DejaVuSerif-33" d="M 622 4469 
Q 988 4606 1323 4678 
Q 1659 4750 1953 4750 
Q 2638 4750 3022 4454 
Q 3406 4159 3406 3634 
Q 3406 3213 3140 2930 
Q 2875 2647 2388 2547 
Q 2963 2466 3280 2130 
Q 3597 1794 3597 1259 
Q 3597 606 3158 257 
Q 2719 -91 1894 -91 
Q 1528 -91 1179 -12 
Q 831 66 488 225 
L 488 1131 
L 838 1131 
Q 869 681 1141 450 
Q 1413 219 1906 219 
Q 2384 219 2661 495 
Q 2938 772 2938 1253 
Q 2938 1803 2653 2086 
Q 2369 2369 1819 2369 
L 1522 2369 
L 1522 2688 
L 1678 2688 
Q 2225 2688 2498 2914 
Q 2772 3141 2772 3597 
Q 2772 4006 2547 4223 
Q 2322 4441 1900 4441 
Q 1478 4441 1245 4241 
Q 1013 4041 972 3647 
L 622 3647 
L 622 4469 
z
" transform="scale(0.015625)"/>
       </defs>
       <use xlink:href="#DejaVuSerif-33"/>
       <use xlink:href="#DejaVuSerif-30" transform="translate(63.623047 0)"/>
      </g>
     </g>
    </g>
    <g id="text_15">
     <!-- $\lambda$ -->
     <g transform="translate(16.318125 340.72625) rotate(-90) scale(0.12 -0.12)">
      <defs>
       <path id="DejaVuSans-Oblique-3bb" d="M 2350 4316 
L 3125 0 
L 2516 0 
L 2038 2588 
L 328 0 
L -281 0 
L 1903 3356 
L 1794 3975 
Q 1725 4369 1391 4369 
L 1091 4369 
L 1184 4863 
L 1550 4856 
Q 2253 4847 2350 4316 
z
" transform="scale(0.015625)"/>
      </defs>
      <use xlink:href="#DejaVuSans-Oblique-3bb" transform="translate(0 0.015625)"/>
     </g>
    </g>
   </g>
   <g id="line2d_14">
    <path d="M 67.962647 390.514843 
L 71.428396 390.736342 
L 74.894145 391.389673 
L 78.359894 392.444102 
L 81.825644 393.856165 
L 85.291393 395.577431 
L 88.757142 397.560628 
L 92.222891 399.763248 
L 95.68864 402.148966 
L 99.154389 404.687678 
L 102.620139 407.354855 
L 106.085888 410.130668 
L 109.551637 412.999109 
L 113.017386 415.947228 
L 116.483135 418.964494 
L 119.948884 422.042289 
L 123.414634 425.173508 
L 126.880383 428.352245 
L 130.346132 431.573556 
L 133.811881 434.833264 
L 137.27763 438.127817 
L 140.743379 441.454168 
L 144.209129 444.809688 
L 147.674878 448.192092 
L 151.140627 451.599379 
L 154.606376 455.029789 
L 158.072125 458.481764 
L 161.537874 461.953918 
L 165.003624 465.445011 
L 168.469373 468.953927 
L 171.935122 472.479662 
L 175.400871 476.021303 
L 178.86662 479.578022 
L 182.332369 483.149061 
L 185.798119 486.733726 
L 189.263868 490.331381 
L 192.729617 493.941436 
L 196.195366 497.56335 
L 199.661115 501.196619 
L 203.126864 504.840775 
L 206.592614 508.495383 
L 210.058363 512.160037 
L 213.524112 515.834357 
L 216.989861 519.517987 
L 220.45561 523.210594 
L 223.921359 526.911862 
L 227.387109 530.621498 
L 230.852858 534.339221 
L 234.318607 538.064769 
L 237.784356 541.797893 
L 241.250105 545.538356 
L 244.715855 549.285935 
L 248.181604 553.040418 
L 251.647353 556.801603 
L 255.113102 560.569298 
L 258.578851 564.34332 
L 262.0446 568.123495 
L 265.51035 571.909656 
L 268.976099 575.701645 
L 272.441848 579.499309 
L 275.907597 583.302504 
L 279.373346 587.111089 
L 282.839095 590.924932 
L 286.304845 594.743905 
L 289.770594 598.567884 
L 293.236343 602.396753 
L 296.702092 606.230397 
L 300.167841 610.068708 
L 303.63359 613.91158 
L 307.09934 617.758914 
L 310.565089 621.61061 
L 314.030838 625.466577 
L 317.496587 629.326722 
L 320.962336 633.19096 
L 324.428085 637.059205 
" clip-path="url(#p0b17652886)" style="fill: none; stroke: #1f77b4; stroke-width: 1.5; stroke-linecap: square"/>
   </g>
   <g id="line2d_15">
    <path d="M 67.962647 379.391664 
L 71.428396 381.670538 
L 74.894145 384.052492 
L 78.359894 386.529729 
L 81.825644 389.094904 
L 85.291393 391.74116 
L 88.757142 394.462145 
L 92.222891 397.252012 
L 95.68864 400.105399 
L 99.154389 403.017411 
L 102.620139 405.983585 
L 106.085888 408.999863 
L 109.551637 412.062556 
L 113.017386 415.168312 
L 116.483135 418.314088 
L 119.948884 421.497118 
L 123.414634 424.714886 
L 126.880383 427.965103 
L 130.346132 431.245684 
L 133.811881 434.554727 
L 137.27763 437.890494 
L 140.743379 441.251394 
L 144.209129 444.635972 
L 147.674878 448.042892 
L 151.140627 451.470925 
L 154.606376 454.918942 
L 158.072125 458.385899 
L 161.537874 461.870835 
L 165.003624 465.37286 
L 168.469373 468.89115 
L 171.935122 472.424938 
L 175.400871 475.973515 
L 178.86662 479.536218 
L 182.332369 483.112432 
L 185.798119 486.70158 
L 189.263868 490.303126 
L 192.729617 493.916565 
L 196.195366 497.541426 
L 199.661115 501.177266 
L 203.126864 504.823669 
L 206.592614 508.480243 
L 210.058363 512.146621 
L 213.524112 515.822454 
L 216.989861 519.507414 
L 220.45561 523.201191 
L 223.921359 526.903492 
L 227.387109 530.614037 
L 230.852858 534.332565 
L 234.318607 538.058825 
L 237.784356 541.792579 
L 241.250105 545.533601 
L 244.715855 549.281676 
L 248.181604 553.0366 
L 251.647353 556.798177 
L 255.113102 560.566221 
L 258.578851 564.340555 
L 262.0446 568.121007 
L 265.51035 571.907417 
L 268.976099 575.699627 
L 272.441848 579.49749 
L 275.907597 583.300862 
L 279.373346 587.109606 
L 282.839095 590.923592 
L 286.304845 594.742693 
L 289.770594 598.566788 
L 293.236343 602.39576 
L 296.702092 606.229497 
L 300.167841 610.067892 
L 303.63359 613.91084 
L 307.09934 617.758242 
L 310.565089 621.61 
L 314.030838 625.466022 
L 317.496587 629.326217 
L 320.962336 633.1905 
L 324.428085 637.058786 
" clip-path="url(#p0b17652886)" style="fill: none; stroke-dasharray: 5.55,2.4; stroke-dashoffset: 0; stroke: #ff7f0e; stroke-width: 1.5"/>
   </g>
   <g id="line2d_16">
    <path d="M 67.962647 379.391664 
L 71.428396 377.224045 
L 74.894145 375.176127 
L 78.359894 373.256477 
L 81.825644 371.47359 
L 85.291393 369.835652 
L 88.757142 368.350274 
L 92.222891 367.024202 
L 95.68864 365.863033 
L 99.154389 364.870961 
L 102.620139 364.050578 
L 106.085888 363.402752 
L 109.551637 362.926598 
L 113.017386 362.619554 
L 116.483135 362.477527 
L 119.948884 362.495122 
L 123.414634 362.665904 
L 126.880383 362.982681 
L 130.346132 363.437775 
L 133.811881 364.023271 
L 137.27763 364.731225 
L 140.743379 365.553835 
L 144.209129 366.483571 
L 147.674878 367.513257 
L 151.140627 368.636135 
L 154.606376 369.845891 
L 158.072125 371.136669 
L 161.537874 372.50306 
L 165.003624 373.94009 
L 168.469373 375.443199 
L 171.935122 377.00821 
L 175.400871 378.631304 
L 178.86662 380.308989 
L 182.332369 382.038073 
L 185.798119 383.815637 
L 189.263868 385.639008 
L 192.729617 387.505736 
L 196.195366 389.413576 
L 199.661115 391.360462 
L 203.126864 393.344494 
L 206.592614 395.363921 
L 210.058363 397.417125 
L 213.524112 399.50261 
L 216.989861 401.618989 
L 220.45561 403.764975 
L 223.921359 405.939371 
L 227.387109 408.141062 
L 230.852858 410.369007 
L 234.318607 412.622231 
L 237.784356 414.899824 
L 241.250105 417.200931 
L 244.715855 419.524749 
L 248.181604 421.870521 
L 251.647353 424.237535 
L 255.113102 426.625118 
L 258.578851 429.032636 
L 262.0446 431.459487 
L 265.51035 433.905101 
L 268.976099 436.368937 
L 272.441848 438.850481 
L 275.907597 441.349245 
L 279.373346 443.864764 
L 282.839095 446.396595 
L 286.304845 448.944313 
L 289.770594 451.507515 
L 293.236343 454.085816 
L 296.702092 456.678843 
L 300.167841 459.286245 
L 303.63359 461.907681 
L 307.09934 464.542826 
L 310.565089 467.191366 
L 314.030838 469.853002 
L 317.496587 472.527444 
L 320.962336 475.214414 
L 324.428085 477.913646 
" clip-path="url(#p0b17652886)" style="fill: none; stroke: #2ca02c; stroke-width: 1.5; stroke-linecap: square"/>
   </g>
   <g id="line2d_17">
    <path d="M 67.962647 346.022129 
L 71.428396 346.0592 
L 74.894145 346.170336 
L 78.359894 346.355305 
L 81.825644 346.613728 
L 85.291393 346.945078 
L 88.757142 347.348687 
L 92.222891 347.823757 
L 95.68864 348.369364 
L 99.154389 348.984473 
L 102.620139 349.667944 
L 106.085888 350.418545 
L 109.551637 351.234965 
L 113.017386 352.115823 
L 116.483135 353.059681 
L 119.948884 354.065055 
L 123.414634 355.130426 
L 126.880383 356.254249 
L 130.346132 357.434963 
L 133.811881 358.671001 
L 137.27763 359.960795 
L 140.743379 361.302788 
L 144.209129 362.695433 
L 147.674878 364.137207 
L 151.140627 365.62661 
L 154.606376 367.16217 
L 158.072125 368.742447 
L 161.537874 370.366036 
L 165.003624 372.031569 
L 168.469373 373.737717 
L 171.935122 375.483189 
L 175.400871 377.266735 
L 178.86662 379.087147 
L 182.332369 380.943256 
L 185.798119 382.833933 
L 189.263868 384.758093 
L 192.729617 386.714686 
L 196.195366 388.702705 
L 199.661115 390.721177 
L 203.126864 392.769169 
L 206.592614 394.845783 
L 210.058363 396.950156 
L 213.524112 399.081458 
L 216.989861 401.238894 
L 220.45561 403.421696 
L 223.921359 405.62913 
L 227.387109 407.86049 
L 230.852858 410.115097 
L 234.318607 412.3923 
L 237.784356 414.691473 
L 241.250105 417.012013 
L 244.715855 419.353345 
L 248.181604 421.714911 
L 251.647353 424.096178 
L 255.113102 426.496633 
L 258.578851 428.915781 
L 262.0446 431.353148 
L 265.51035 433.808276 
L 268.976099 436.280726 
L 272.441848 438.770073 
L 275.907597 441.275911 
L 279.373346 443.797845 
L 282.839095 446.335498 
L 286.304845 448.888503 
L 289.770594 451.456509 
L 293.236343 454.039175 
L 296.702092 456.636175 
L 300.167841 459.247191 
L 303.63359 461.871918 
L 307.09934 464.510061 
L 310.565089 467.161335 
L 314.030838 469.825463 
L 317.496587 472.50218 
L 320.962336 475.191227 
L 324.428085 477.892354 
" clip-path="url(#p0b17652886)" style="fill: none; stroke-dasharray: 5.55,2.4; stroke-dashoffset: 0; stroke: #d62728; stroke-width: 1.5"/>
   </g>
   <g id="line2d_18">
    <path d="M 67.962647 346.022129 
L 71.428396 345.837717 
L 74.894145 345.295753 
L 78.359894 344.427294 
L 81.825644 343.276344 
L 85.291393 341.892082 
L 88.757142 340.322735 
L 92.222891 338.611969 
L 95.68864 336.797459 
L 99.154389 334.910847 
L 102.620139 332.978366 
L 106.085888 331.021713 
L 109.551637 329.058897 
L 113.017386 327.104992 
L 116.483135 325.172741 
L 119.948884 323.27304 
L 123.414634 321.415301 
L 126.880383 319.60773 
L 130.346132 317.857525 
L 133.811881 316.171029 
L 137.27763 314.553826 
L 140.743379 313.010817 
L 144.209129 311.546268 
L 147.674878 310.163838 
L 151.140627 308.866602 
L 154.606376 307.657067 
L 158.072125 306.537184 
L 161.537874 305.508366 
L 165.003624 304.5715 
L 168.469373 303.726976 
L 171.935122 302.974712 
L 175.400871 302.314186 
L 178.86662 301.744476 
L 182.332369 301.264299 
L 185.798119 300.87206 
L 189.263868 300.565892 
L 192.729617 300.343705 
L 196.195366 300.203232 
L 199.661115 300.142068 
L 203.126864 300.15771 
L 206.592614 300.247594 
L 210.058363 300.409127 
L 213.524112 300.639712 
L 216.989861 300.936776 
L 220.45561 301.297782 
L 223.921359 301.720255 
L 227.387109 302.201784 
L 230.852858 302.74004 
L 234.318607 303.332777 
L 237.784356 303.977839 
L 241.250105 304.673162 
L 244.715855 305.416775 
L 248.181604 306.206799 
L 251.647353 307.041449 
L 255.113102 307.919027 
L 258.578851 308.837922 
L 262.0446 309.796606 
L 265.51035 310.793634 
L 268.976099 311.827634 
L 272.441848 312.897308 
L 275.907597 314.001426 
L 279.373346 315.138826 
L 282.839095 316.308404 
L 286.304845 317.509116 
L 289.770594 318.739973 
L 293.236343 320.000036 
L 296.702092 321.288415 
L 300.167841 322.604266 
L 303.63359 323.946785 
L 307.09934 325.315211 
L 310.565089 326.708818 
L 314.030838 328.126916 
L 317.496587 329.568848 
L 320.962336 331.033988 
L 324.428085 332.521739 
" clip-path="url(#p0b17652886)" style="fill: none; stroke: #9467bd; stroke-width: 1.5; stroke-linecap: square"/>
   </g>
   <g id="line2d_19">
    <path d="M 67.962647 290.406238 
L 71.428396 290.379808 
L 74.894145 290.305918 
L 78.359894 290.192369 
L 81.825644 290.046517 
L 85.291393 289.875226 
L 88.757142 289.684847 
L 92.222891 289.481226 
L 95.68864 289.269707 
L 99.154389 289.055161 
L 102.620139 288.842011 
L 106.085888 288.634257 
L 109.551637 288.435515 
L 113.017386 288.249038 
L 116.483135 288.077756 
L 119.948884 287.924292 
L 123.414634 287.790996 
L 126.880383 287.679967 
L 130.346132 287.593073 
L 133.811881 287.531971 
L 137.27763 287.498126 
L 140.743379 287.492828 
L 144.209129 287.517206 
L 147.674878 287.572238 
L 151.140627 287.65877 
L 154.606376 287.777523 
L 158.072125 287.929101 
L 161.537874 288.114006 
L 165.003624 288.332641 
L 168.469373 288.585323 
L 171.935122 288.872287 
L 175.400871 289.19369 
L 178.86662 289.549626 
L 182.332369 289.940123 
L 185.798119 290.365151 
L 189.263868 290.824631 
L 192.729617 291.318435 
L 196.195366 291.846392 
L 199.661115 292.408292 
L 203.126864 293.003891 
L 206.592614 293.632912 
L 210.058363 294.295052 
L 213.524112 294.989983 
L 216.989861 295.717352 
L 220.45561 296.476791 
L 223.921359 297.267914 
L 227.387109 298.090319 
L 230.852858 298.943594 
L 234.318607 299.827316 
L 237.784356 300.741054 
L 241.250105 301.684372 
L 244.715855 302.656826 
L 248.181604 303.657971 
L 251.647353 304.687359 
L 255.113102 305.74454 
L 258.578851 306.829067 
L 262.0446 307.940492 
L 265.51035 309.078367 
L 268.976099 310.242252 
L 272.441848 311.431704 
L 275.907597 312.64629 
L 279.373346 313.885578 
L 282.839095 315.149141 
L 286.304845 316.43656 
L 289.770594 317.747419 
L 293.236343 319.08131 
L 296.702092 320.43783 
L 300.167841 321.816583 
L 303.63359 323.217182 
L 307.09934 324.639243 
L 310.565089 326.082392 
L 314.030838 327.546261 
L 317.496587 329.030488 
L 320.962336 330.53472 
L 324.428085 332.058611 
" clip-path="url(#p0b17652886)" style="fill: none; stroke-dasharray: 5.55,2.4; stroke-dashoffset: 0; stroke: #8c564b; stroke-width: 1.5"/>
   </g>
   <g id="line2d_20">
    <path d="M 67.962647 290.406238 
L 71.428396 290.377029 
L 74.894145 290.283741 
L 78.359894 290.117819 
L 81.825644 289.870796 
L 85.291393 289.534527 
L 88.757142 289.101464 
L 92.222891 288.564943 
L 95.68864 287.919472 
L 99.154389 287.160992 
L 102.620139 286.287075 
L 106.085888 285.297048 
L 109.551637 284.192024 
L 113.017386 282.974835 
L 116.483135 281.649878 
L 119.948884 280.222898 
L 123.414634 278.700719 
L 126.880383 277.090969 
L 130.346132 275.401808 
L 133.811881 273.64168 
L 137.27763 271.819106 
L 140.743379 269.942512 
L 144.209129 268.020108 
L 147.674878 266.059788 
L 151.140627 264.069083 
L 154.606376 262.055125 
L 158.072125 260.024632 
L 161.537874 257.983917 
L 165.003624 255.938896 
L 168.469373 253.89511 
L 171.935122 251.857744 
L 175.400871 249.831651 
L 178.86662 247.821379 
L 182.332369 245.831184 
L 185.798119 243.865058 
L 189.263868 241.926741 
L 192.729617 240.019736 
L 196.195366 238.147324 
L 199.661115 236.31257 
L 203.126864 234.518329 
L 206.592614 232.767259 
L 210.058363 231.061814 
L 213.524112 229.404254 
L 216.989861 227.796644 
L 220.45561 226.240853 
L 223.921359 224.738556 
L 227.387109 223.291236 
L 230.852858 221.90018 
L 234.318607 220.566485 
L 237.784356 219.291054 
L 241.250105 218.074608 
L 244.715855 216.917681 
L 248.181604 215.820631 
L 251.647353 214.783642 
L 255.113102 213.806738 
L 258.578851 212.889784 
L 262.0446 212.032501 
L 265.51035 211.234473 
L 268.976099 210.495159 
L 272.441848 209.813908 
L 275.907597 209.189963 
L 279.373346 208.62248 
L 282.839095 208.110536 
L 286.304845 207.653141 
L 289.770594 207.249248 
L 293.236343 206.897766 
L 296.702092 206.597569 
L 300.167841 206.347501 
L 303.63359 206.146392 
L 307.09934 205.993059 
L 310.565089 205.886318 
L 314.030838 205.824983 
L 317.496587 205.807882 
L 320.962336 205.833852 
L 324.428085 205.901748 
" clip-path="url(#p0b17652886)" style="fill: none; stroke: #e377c2; stroke-width: 1.5; stroke-linecap: square"/>
   </g>
   <g id="line2d_21">
    <path d="M 67.962647 212.54399 
L 71.428396 212.529166 
L 74.894145 212.484771 
L 78.359894 212.411039 
L 81.825644 212.308356 
L 85.291393 212.177258 
L 88.757142 212.018419 
L 92.222891 211.832652 
L 95.68864 211.62089 
L 99.154389 211.384186 
L 102.620139 211.123694 
L 106.085888 210.840662 
L 109.551637 210.53642 
L 113.017386 210.212365 
L 116.483135 209.869953 
L 119.948884 209.510686 
L 123.414634 209.136099 
L 126.880383 208.747753 
L 130.346132 208.347222 
L 133.811881 207.936086 
L 137.27763 207.515921 
L 140.743379 207.088293 
L 144.209129 206.65475 
L 147.674878 206.216816 
L 151.140627 205.775986 
L 154.606376 205.333724 
L 158.072125 204.891454 
L 161.537874 204.45056 
L 165.003624 204.012386 
L 168.469373 203.578227 
L 171.935122 203.149335 
L 175.400871 202.726912 
L 178.86662 202.312112 
L 182.332369 201.906041 
L 185.798119 201.509754 
L 189.263868 201.124259 
L 192.729617 200.750514 
L 196.195366 200.389429 
L 199.661115 200.041866 
L 203.126864 199.708641 
L 206.592614 199.390523 
L 210.058363 199.088236 
L 213.524112 198.80246 
L 216.989861 198.533833 
L 220.45561 198.282951 
L 223.921359 198.050367 
L 227.387109 197.836596 
L 230.852858 197.642117 
L 234.318607 197.467369 
L 237.784356 197.312755 
L 241.250105 197.178646 
L 244.715855 197.065378 
L 248.181604 196.973255 
L 251.647353 196.902551 
L 255.113102 196.853508 
L 258.578851 196.826343 
L 262.0446 196.821244 
L 265.51035 196.838373 
L 268.976099 196.877866 
L 272.441848 196.939838 
L 275.907597 197.024379 
L 279.373346 197.131559 
L 282.839095 197.261425 
L 286.304845 197.414009 
L 289.770594 197.589321 
L 293.236343 197.787354 
L 296.702092 198.008087 
L 300.167841 198.25148 
L 303.63359 198.517481 
L 307.09934 198.806025 
L 310.565089 199.117031 
L 314.030838 199.450409 
L 317.496587 199.806057 
L 320.962336 200.183862 
L 324.428085 200.583703 
" clip-path="url(#p0b17652886)" style="fill: none; stroke-dasharray: 5.55,2.4; stroke-dashoffset: 0; stroke: #7f7f7f; stroke-width: 1.5"/>
   </g>
   <g id="line2d_22">
    <path d="M 67.962647 212.54399 
L 71.428396 212.52915 
L 74.894145 212.484524 
L 78.359894 212.40979 
L 81.825644 212.304418 
L 85.291393 212.167667 
L 88.757142 211.99859 
L 92.222891 211.796045 
L 95.68864 211.558696 
L 99.154389 211.285028 
L 102.620139 210.973355 
L 106.085888 210.621839 
L 109.551637 210.228507 
L 113.017386 209.791272 
L 116.483135 209.30796 
L 119.948884 208.776339 
L 123.414634 208.194152 
L 126.880383 207.559157 
L 130.346132 206.869163 
L 133.811881 206.122074 
L 137.27763 205.315938 
L 140.743379 204.448986 
L 144.209129 203.519679 
L 147.674878 202.526748 
L 151.140627 201.469234 
L 154.606376 200.346516 
L 158.072125 199.158339 
L 161.537874 197.904828 
L 165.003624 196.586497 
L 168.469373 195.204247 
L 171.935122 193.759356 
L 175.400871 192.253462 
L 178.86662 190.688537 
L 182.332369 189.066855 
L 185.798119 187.390959 
L 189.263868 185.663621 
L 192.729617 183.887803 
L 196.195366 182.066622 
L 199.661115 180.203308 
L 203.126864 178.301172 
L 206.592614 176.363572 
L 210.058363 174.393886 
L 213.524112 172.395488 
L 216.989861 170.371726 
L 220.45561 168.325902 
L 223.921359 166.261264 
L 227.387109 164.180988 
L 230.852858 162.088174 
L 234.318607 159.98584 
L 237.784356 157.876915 
L 241.250105 155.764239 
L 244.715855 153.650561 
L 248.181604 151.53854 
L 251.647353 149.430743 
L 255.113102 147.329649 
L 258.578851 145.237648 
L 262.0446 143.157045 
L 265.51035 141.09006 
L 268.976099 139.038829 
L 272.441848 137.005408 
L 275.907597 134.991773 
L 279.373346 132.999818 
L 282.839095 131.031361 
L 286.304845 129.088141 
L 289.770594 127.171819 
L 293.236343 125.283978 
L 296.702092 123.426122 
L 300.167841 121.599678 
L 303.63359 119.805992 
L 307.09934 118.04633 
L 310.565089 116.321879 
L 314.030838 114.633741 
L 317.496587 112.982939 
L 320.962336 111.370411 
L 324.428085 109.797013 
" clip-path="url(#p0b17652886)" style="fill: none; stroke: #bcbd22; stroke-width: 1.5; stroke-linecap: square"/>
   </g>
   <g id="line2d_23">
    <path d="M 67.962647 112.435385 
L 71.428396 112.426116 
L 74.894145 112.398305 
L 78.359894 112.351947 
L 81.825644 112.287036 
L 85.291393 112.203569 
L 88.757142 112.101548 
L 92.222891 111.980981 
L 95.68864 111.84189 
L 99.154389 111.684307 
L 102.620139 111.508279 
L 106.085888 111.313872 
L 109.551637 111.10117 
L 113.017386 110.870278 
L 116.483135 110.621325 
L 119.948884 110.354463 
L 123.414634 110.069869 
L 126.880383 109.767748 
L 130.346132 109.448331 
L 133.811881 109.111878 
L 137.27763 108.758676 
L 140.743379 108.389041 
L 144.209129 108.003318 
L 147.674878 107.601879 
L 151.140627 107.185127 
L 154.606376 106.753487 
L 158.072125 106.307416 
L 161.537874 105.847391 
L 165.003624 105.373919 
L 168.469373 104.887525 
L 171.935122 104.38876 
L 175.400871 103.878192 
L 178.86662 103.35641 
L 182.332369 102.82402 
L 185.798119 102.281643 
L 189.263868 101.729914 
L 192.729617 101.169481 
L 196.195366 100.601001 
L 199.661115 100.025143 
L 203.126864 99.442579 
L 206.592614 98.85399 
L 210.058363 98.260059 
L 213.524112 97.661473 
L 216.989861 97.058917 
L 220.45561 96.453077 
L 223.921359 95.844639 
L 227.387109 95.234283 
L 230.852858 94.622685 
L 234.318607 94.010516 
L 237.784356 93.398439 
L 241.250105 92.78711 
L 244.715855 92.177176 
L 248.181604 91.569275 
L 251.647353 90.964033 
L 255.113102 90.362066 
L 258.578851 89.763977 
L 262.0446 89.170358 
L 265.51035 88.581787 
L 268.976099 87.998828 
L 272.441848 87.422033 
L 275.907597 86.851937 
L 279.373346 86.289063 
L 282.839095 85.733917 
L 286.304845 85.186991 
L 289.770594 84.648762 
L 293.236343 84.119692 
L 296.702092 83.600225 
L 300.167841 83.090794 
L 303.63359 82.591811 
L 307.09934 82.103678 
L 310.565089 81.626777 
L 314.030838 81.161476 
L 317.496587 80.70813 
L 320.962336 80.267076 
L 324.428085 79.838637 
" clip-path="url(#p0b17652886)" style="fill: none; stroke-dasharray: 5.55,2.4; stroke-dashoffset: 0; stroke: #17becf; stroke-width: 1.5"/>
   </g>
   <g id="line2d_24">
    <path d="M 67.962647 112.435385 
L 71.428396 112.426116 
L 74.894145 112.398303 
L 78.359894 112.351935 
L 81.825644 112.286987 
L 85.291393 112.203419 
L 88.757142 112.101174 
L 92.222891 111.980175 
L 95.68864 111.84032 
L 99.154389 111.681484 
L 102.620139 111.50351 
L 106.085888 111.306211 
L 109.551637 111.089367 
L 113.017386 110.852722 
L 116.483135 110.595979 
L 119.948884 110.318805 
L 123.414634 110.020823 
L 126.880383 109.70161 
L 130.346132 109.360703 
L 133.811881 108.997588 
L 137.27763 108.611708 
L 140.743379 108.202455 
L 144.209129 107.769177 
L 147.674878 107.311172 
L 151.140627 106.827694 
L 154.606376 106.317951 
L 158.072125 105.78111 
L 161.537874 105.216294 
L 165.003624 104.622592 
L 168.469373 103.99906 
L 171.935122 103.344723 
L 175.400871 102.658585 
L 178.86662 101.939633 
L 182.332369 101.186842 
L 185.798119 100.399189 
L 189.263868 99.575654 
L 192.729617 98.715233 
L 196.195366 97.81695 
L 199.661115 96.879863 
L 203.126864 95.903077 
L 206.592614 94.885754 
L 210.058363 93.827126 
L 213.524112 92.726504 
L 216.989861 91.583287 
L 220.45561 90.396978 
L 223.921359 89.167186 
L 227.387109 87.893637 
L 230.852858 86.576184 
L 234.318607 85.214808 
L 237.784356 83.809623 
L 241.250105 82.360883 
L 244.715855 80.868978 
L 248.181604 79.334434 
L 251.647353 77.757913 
L 255.113102 76.140208 
L 258.578851 74.482237 
L 262.0446 72.785038 
L 265.51035 71.04976 
L 268.976099 69.277655 
L 272.441848 67.470071 
L 275.907597 65.628439 
L 279.373346 63.754266 
L 282.839095 61.849123 
L 286.304845 59.914638 
L 289.770594 57.952482 
L 293.236343 55.964367 
L 296.702092 53.952029 
L 300.167841 51.917225 
L 303.63359 49.861727 
L 307.09934 47.78731 
L 310.565089 45.69575 
L 314.030838 43.588817 
L 317.496587 41.46827 
L 320.962336 39.335854 
L 324.428085 37.193295 
" clip-path="url(#p0b17652886)" style="fill: none; stroke: #1f77b4; stroke-width: 1.5; stroke-linecap: square"/>
   </g>
   <g id="patch_3">
    <path d="M 55.139375 667.0525 
L 55.139375 7.2 
" style="fill: none; stroke: #000000; stroke-width: 0.8; stroke-linejoin: miter; stroke-linecap: square"/>
   </g>
   <g id="patch_4">
    <path d="M 337.251357 667.0525 
L 337.251357 7.2 
" style="fill: none; stroke: #000000; stroke-width: 0.8; stroke-linejoin: miter; stroke-linecap: square"/>
   </g>
   <g id="patch_5">
    <path d="M 55.139375 667.0525 
L 337.251357 667.0525 
" style="fill: none; stroke: #000000; stroke-width: 0.8; stroke-linejoin: miter; stroke-linecap: square"/>
   </g>
   <g id="patch_6">
    <path d="M 55.139375 7.2 
L 337.251357 7.2 
" style="fill: none; stroke: #000000; stroke-width: 0.8; stroke-linejoin: miter; stroke-linecap: square"/>
   </g>
  </g>
 </g>
 <defs>
  <clipPath id="p0b17652886">
   <rect x="55.139375" y="7.2" width="282.111982" height="659.8525"/>
  </clipPath>
 </defs>
</svg>