<?xml version="1.0" encoding="utf-8" standalone="no"?>
<!DOCTYPE svg PUBLIC "-//W3C//DTD SVG 1.1//EN"
  "http://www.w3.org/Graphics/SVG/1.1/DTD/svg11.dtd">
<svg xmlns:xlink="http://www.w3.org/1999/xlink" width="603.682812pt" height="323.39625pt" viewBox="0 0 603.682812 323.39625" xmlns="http://www.w3.org/2000/svg" version="1.1">
 <metadata>
  <rdf:RDF xmlns:dc="http://purl.org/dc/elements/1.1/" xmlns:cc="http://creativecommons.org/ns#" xmlns:rdf="http://www.w3.org/1999/02/22-rdf-syntax-ns#">
   <cc:Work>
    <dc:type rdf:resource="http://purl.org/dc/dcmitype/StillImage"/>
    <dc:date>2024-12-10T11:53:41.385915</dc:date>
    <dc:format>image/svg+xml</dc:format>
    <dc:creator>
     <cc:Agent>
      <dc:title>Matplotlib v3.9.2, https://matplotlib.org/</dc:title>
     </cc:Agent>
    </dc:creator>
   </cc:Work>
  </rdf:RDF>
 </metadata>
 <defs>
  <style type="text/css">*{stroke-linejoin: round; stroke-linecap: butt}</style>
 </defs>
 <g id="figure_1">
  <g id="patch_1">
   <path d="M 0 323.39625 
L 603.682812 323.39625 
L 603.682812 0 
L 0 0 
z
" style="fill: #ffffff"/>
  </g>
  <g id="axes_1">
   <g id="patch_2">
    <path d="M 38.482813 299.518125 
L 292.119176 299.518125 
L 292.119176 22.318125 
L 38.482813 22.318125 
z
" style="fill: #ffffff"/>
   </g>
   <g id="matplotlib.axis_1">
    <g id="xtick_1">
     <g id="line2d_1">
      <defs>
       <path id="m74bc30ebdc" d="M 0 0 
L 0 3.5 
" style="stroke: #000000; stroke-width: 0.8"/>
      </defs>
      <g>
       <use xlink:href="#m74bc30ebdc" x="50.011738" y="299.518125" style="stroke: #000000; stroke-width: 0.8"/>
      </g>
     </g>
     <g id="text_1">
      <!-- −1.0 -->
      <g transform="translate(37.870332 314.116563) scale(0.1 -0.1)">
       <defs>
        <path id="DejaVuSans-2212" d="M 678 2272 
L 4684 2272 
L 4684 1741 
L 678 1741 
L 678 2272 
z
" transform="scale(0.015625)"/>
        <path id="DejaVuSans-31" d="M 794 531 
L 1825 531 
L 1825 4091 
L 703 3866 
L 703 4441 
L 1819 4666 
L 2450 4666 
L 2450 531 
L 3481 531 
L 3481 0 
L 794 0 
L 794 531 
z
" transform="scale(0.015625)"/>
        <path id="DejaVuSans-2e" d="M 684 794 
L 1344 794 
L 1344 0 
L 684 0 
L 684 794 
z
" transform="scale(0.015625)"/>
        <path id="DejaVuSans-30" d="M 2034 4250 
Q 1547 4250 1301 3770 
Q 1056 3291 1056 2328 
Q 1056 1369 1301 889 
Q 1547 409 2034 409 
Q 2525 409 2770 889 
Q 3016 1369 3016 2328 
Q 3016 3291 2770 3770 
Q 2525 4250 2034 4250 
z
M 2034 4750 
Q 2819 4750 3233 4129 
Q 3647 3509 3647 2328 
Q 3647 1150 3233 529 
Q 2819 -91 2034 -91 
Q 1250 -91 836 529 
Q 422 1150 422 2328 
Q 422 3509 836 4129 
Q 1250 4750 2034 4750 
z
" transform="scale(0.015625)"/>
       </defs>
       <use xlink:href="#DejaVuSans-2212"/>
       <use xlink:href="#DejaVuSans-31" x="83.789062"/>
       <use xlink:href="#DejaVuSans-2e" x="147.412109"/>
       <use xlink:href="#DejaVuSans-30" x="179.199219"/>
      </g>
     </g>
    </g>
    <g id="xtick_2">
     <g id="line2d_2">
      <g>
       <use xlink:href="#m74bc30ebdc" x="107.656366" y="299.518125" style="stroke: #000000; stroke-width: 0.8"/>
      </g>
     </g>
     <g id="text_2">
      <!-- −0.5 -->
      <g transform="translate(95.51496 314.116563) scale(0.1 -0.1)">
       <defs>
        <path id="DejaVuSans-35" d="M 691 4666 
L 3169 4666 
L 3169 4134 
L 1269 4134 
L 1269 2991 
Q 1406 3038 1543 3061 
Q 1681 3084 1819 3084 
Q 2600 3084 3056 2656 
Q 3513 2228 3513 1497 
Q 3513 744 3044 326 
Q 2575 -91 1722 -91 
Q 1428 -91 1123 -41 
Q 819 9 494 109 
L 494 744 
Q 775 591 1075 516 
Q 1375 441 1709 441 
Q 2250 441 2565 725 
Q 2881 1009 2881 1497 
Q 2881 1984 2565 2268 
Q 2250 2553 1709 2553 
Q 1456 2553 1204 2497 
Q 953 2441 691 2322 
L 691 4666 
z
" transform="scale(0.015625)"/>
       </defs>
       <use xlink:href="#DejaVuSans-2212"/>
       <use xlink:href="#DejaVuSans-30" x="83.789062"/>
       <use xlink:href="#DejaVuSans-2e" x="147.412109"/>
       <use xlink:href="#DejaVuSans-35" x="179.199219"/>
      </g>
     </g>
    </g>
    <g id="xtick_3">
     <g id="line2d_3">
      <g>
       <use xlink:href="#m74bc30ebdc" x="165.300994" y="299.518125" style="stroke: #000000; stroke-width: 0.8"/>
      </g>
     </g>
     <g id="text_3">
      <!-- 0.0 -->
      <g transform="translate(157.349432 314.116563) scale(0.1 -0.1)">
       <use xlink:href="#DejaVuSans-30"/>
       <use xlink:href="#DejaVuSans-2e" x="63.623047"/>
       <use xlink:href="#DejaVuSans-30" x="95.410156"/>
      </g>
     </g>
    </g>
    <g id="xtick_4">
     <g id="line2d_4">
      <g>
       <use xlink:href="#m74bc30ebdc" x="222.945622" y="299.518125" style="stroke: #000000; stroke-width: 0.8"/>
      </g>
     </g>
     <g id="text_4">
      <!-- 0.5 -->
      <g transform="translate(214.99406 314.116563) scale(0.1 -0.1)">
       <use xlink:href="#DejaVuSans-30"/>
       <use xlink:href="#DejaVuSans-2e" x="63.623047"/>
       <use xlink:href="#DejaVuSans-35" x="95.410156"/>
      </g>
     </g>
    </g>
    <g id="xtick_5">
     <g id="line2d_5">
      <g>
       <use xlink:href="#m74bc30ebdc" x="280.590251" y="299.518125" style="stroke: #000000; stroke-width: 0.8"/>
      </g>
     </g>
     <g id="text_5">
      <!-- 1.0 -->
      <g transform="translate(272.638688 314.116563) scale(0.1 -0.1)">
       <use xlink:href="#DejaVuSans-31"/>
       <use xlink:href="#DejaVuSans-2e" x="63.623047"/>
       <use xlink:href="#DejaVuSans-30" x="95.410156"/>
      </g>
     </g>
    </g>
   </g>
   <g id="matplotlib.axis_2">
    <g id="ytick_1">
     <g id="line2d_6">
      <defs>
       <path id="m940316ad1c" d="M 0 0 
L -3.5 0 
" style="stroke: #000000; stroke-width: 0.8"/>
      </defs>
      <g>
       <use xlink:href="#m940316ad1c" x="38.482813" y="299.518125" style="stroke: #000000; stroke-width: 0.8"/>
      </g>
     </g>
     <g id="text_6">
      <!-- −1.0 -->
      <g transform="translate(7.2 303.317344) scale(0.1 -0.1)">
       <use xlink:href="#DejaVuSans-2212"/>
       <use xlink:href="#DejaVuSans-31" x="83.789062"/>
       <use xlink:href="#DejaVuSans-2e" x="147.412109"/>
       <use xlink:href="#DejaVuSans-30" x="179.199219"/>
      </g>
     </g>
    </g>
    <g id="ytick_2">
     <g id="line2d_7">
      <g>
       <use xlink:href="#m940316ad1c" x="38.482813" y="244.078125" style="stroke: #000000; stroke-width: 0.8"/>
      </g>
     </g>
     <g id="text_7">
      <!-- −0.5 -->
      <g transform="translate(7.2 247.877344) scale(0.1 -0.1)">
       <use xlink:href="#DejaVuSans-2212"/>
       <use xlink:href="#DejaVuSans-30" x="83.789062"/>
       <use xlink:href="#DejaVuSans-2e" x="147.412109"/>
       <use xlink:href="#DejaVuSans-35" x="179.199219"/>
      </g>
     </g>
    </g>
    <g id="ytick_3">
     <g id="line2d_8">
      <g>
       <use xlink:href="#m940316ad1c" x="38.482813" y="188.638125" style="stroke: #000000; stroke-width: 0.8"/>
      </g>
     </g>
     <g id="text_8">
      <!-- 0.0 -->
      <g transform="translate(15.579688 192.437344) scale(0.1 -0.1)">
       <use xlink:href="#DejaVuSans-30"/>
       <use xlink:href="#DejaVuSans-2e" x="63.623047"/>
       <use xlink:href="#DejaVuSans-30" x="95.410156"/>
      </g>
     </g>
    </g>
    <g id="ytick_4">
     <g id="line2d_9">
      <g>
       <use xlink:href="#m940316ad1c" x="38.482813" y="133.198125" style="stroke: #000000; stroke-width: 0.8"/>
      </g>
     </g>
     <g id="text_9">
      <!-- 0.5 -->
      <g transform="translate(15.579688 136.997344) scale(0.1 -0.1)">
       <use xlink:href="#DejaVuSans-30"/>
       <use xlink:href="#DejaVuSans-2e" x="63.623047"/>
       <use xlink:href="#DejaVuSans-35" x="95.410156"/>
      </g>
     </g>
    </g>
    <g id="ytick_5">
     <g id="line2d_10">
      <g>
       <use xlink:href="#m940316ad1c" x="38.482813" y="77.758125" style="stroke: #000000; stroke-width: 0.8"/>
      </g>
     </g>
     <g id="text_10">
      <!-- 1.0 -->
      <g transform="translate(15.579688 81.557344) scale(0.1 -0.1)">
       <use xlink:href="#DejaVuSans-31"/>
       <use xlink:href="#DejaVuSans-2e" x="63.623047"/>
       <use xlink:href="#DejaVuSans-30" x="95.410156"/>
      </g>
     </g>
    </g>
    <g id="ytick_6">
     <g id="line2d_11">
      <g>
       <use xlink:href="#m940316ad1c" x="38.482813" y="22.318125" style="stroke: #000000; stroke-width: 0.8"/>
      </g>
     </g>
     <g id="text_11">
      <!-- 1.5 -->
      <g transform="translate(15.579688 26.117344) scale(0.1 -0.1)">
       <use xlink:href="#DejaVuSans-31"/>
       <use xlink:href="#DejaVuSans-2e" x="63.623047"/>
       <use xlink:href="#DejaVuSans-35" x="95.410156"/>
      </g>
     </g>
    </g>
   </g>
   <g id="line2d_12">
    <defs>
     <path id="m62143ed4dd" d="M 0 3 
C 0.795609 3 1.55874 2.683901 2.12132 2.12132 
C 2.683901 1.55874 3 0.795609 3 0 
C 3 -0.795609 2.683901 -1.55874 2.12132 -2.12132 
C 1.55874 -2.683901 0.795609 -3 0 -3 
C -0.795609 -3 -1.55874 -2.683901 -2.12132 -2.12132 
C -2.683901 -1.55874 -3 -0.795609 -3 0 
C -3 0.795609 -2.683901 1.55874 -2.12132 2.12132 
C -1.55874 2.683901 -0.795609 3 0 3 
z
" style="stroke: #1f77b4"/>
    </defs>
    <g clip-path="url(#pe6f79de0bb)">
     <use xlink:href="#m62143ed4dd" x="50.011738" y="182.115772" style="fill: #1f77b4; stroke: #1f77b4"/>
     <use xlink:href="#m62143ed4dd" x="64.422895" y="180.269823" style="fill: #1f77b4; stroke: #1f77b4"/>
     <use xlink:href="#m62143ed4dd" x="78.834052" y="177.550125" style="fill: #1f77b4; stroke: #1f77b4"/>
     <use xlink:href="#m62143ed4dd" x="93.245209" y="173.344332" style="fill: #1f77b4; stroke: #1f77b4"/>
     <use xlink:href="#m62143ed4dd" x="107.656366" y="166.462125" style="fill: #1f77b4; stroke: #1f77b4"/>
     <use xlink:href="#m62143ed4dd" x="122.067523" y="154.521202" style="fill: #1f77b4; stroke: #1f77b4"/>
     <use xlink:href="#m62143ed4dd" x="136.47868" y="133.198125" style="fill: #1f77b4; stroke: #1f77b4"/>
     <use xlink:href="#m62143ed4dd" x="150.889837" y="99.934125" style="fill: #1f77b4; stroke: #1f77b4"/>
     <use xlink:href="#m62143ed4dd" x="165.300994" y="77.758125" style="fill: #1f77b4; stroke: #1f77b4"/>
     <use xlink:href="#m62143ed4dd" x="179.712151" y="99.934125" style="fill: #1f77b4; stroke: #1f77b4"/>
     <use xlink:href="#m62143ed4dd" x="194.123308" y="133.198125" style="fill: #1f77b4; stroke: #1f77b4"/>
     <use xlink:href="#m62143ed4dd" x="208.534465" y="154.521202" style="fill: #1f77b4; stroke: #1f77b4"/>
     <use xlink:href="#m62143ed4dd" x="222.945622" y="166.462125" style="fill: #1f77b4; stroke: #1f77b4"/>
     <use xlink:href="#m62143ed4dd" x="237.356779" y="173.344332" style="fill: #1f77b4; stroke: #1f77b4"/>
     <use xlink:href="#m62143ed4dd" x="251.767936" y="177.550125" style="fill: #1f77b4; stroke: #1f77b4"/>
     <use xlink:href="#m62143ed4dd" x="266.179093" y="180.269823" style="fill: #1f77b4; stroke: #1f77b4"/>
     <use xlink:href="#m62143ed4dd" x="280.590251" y="182.115772" style="fill: #1f77b4; stroke: #1f77b4"/>
    </g>
   </g>
   <g id="line2d_13">
    <path d="M 49.642381 -1 
L 50.385692 324.39625 
M 61.320979 324.39625 
L 62.283254 268.670814 
L 63.450594 214.681123 
L 64.617933 174.454811 
L 65.785273 146.616605 
L 66.368943 136.792299 
L 66.952613 129.376161 
L 67.536283 124.120972 
L 68.119953 120.780905 
L 68.703623 119.115561 
L 69.287293 118.893197 
L 69.870963 119.893235 
L 70.454633 121.908172 
L 71.038302 124.744939 
L 72.205642 132.188908 
L 74.540322 150.183788 
L 76.291332 163.135201 
L 77.458672 170.527351 
L 78.626011 176.612682 
L 79.793351 181.287011 
L 80.960691 184.558302 
L 81.544361 185.693846 
L 82.128031 186.517978 
L 82.711701 187.05093 
L 83.295371 187.315108 
L 83.879041 187.334478 
L 84.462711 187.134005 
L 85.046381 186.739154 
L 86.21372 185.468071 
L 87.38106 183.719425 
L 89.13207 180.596062 
L 92.05042 175.262479 
L 93.801429 172.534849 
L 94.968769 171.028414 
L 96.136109 169.793158 
L 97.303449 168.82502 
L 98.470789 168.104001 
L 99.638128 167.598015 
L 101.389138 167.152409 
L 103.723818 166.901774 
L 106.642167 166.639032 
L 108.393177 166.287778 
L 110.144187 165.68795 
L 111.895197 164.795643 
L 113.646207 163.599279 
L 115.397216 162.113996 
L 117.148226 160.374192 
L 119.482906 157.737631 
L 122.401255 154.089734 
L 126.486945 148.610989 
L 130.572634 142.7926 
L 133.490984 138.293396 
L 135.825663 134.363106 
L 138.160343 130.048939 
L 140.495023 125.296098 
L 142.829702 120.095669 
L 145.748052 113.04745 
L 154.503101 91.240915 
L 156.254111 87.520866 
L 158.00512 84.273324 
L 159.75613 81.598897 
L 160.92347 80.177379 
L 162.09081 79.069727 
L 163.25815 78.292263 
L 164.425489 77.856539 
L 165.592829 77.769067 
L 166.760169 78.031156 
L 167.927509 78.638884 
L 169.094849 79.583192 
L 170.262189 80.850101 
L 171.429528 82.421046 
L 173.180538 85.296867 
L 174.931548 88.713683 
L 177.266228 93.929204 
L 180.184577 101.132155 
L 187.188616 118.730049 
L 190.106966 125.296098 
L 192.441646 130.048939 
L 194.776325 134.363106 
L 197.694675 139.225325 
L 200.613024 143.651175 
L 204.698714 149.412801 
L 208.784403 154.84229 
L 211.702753 158.4253 
L 214.037433 160.979738 
L 215.788442 162.639376 
L 217.539452 164.03139 
L 219.290462 165.126905 
L 221.041472 165.918928 
L 222.792481 166.429312 
L 224.543491 166.71351 
L 230.38019 167.413257 
L 231.54753 167.826502 
L 232.71487 168.435388 
L 233.88221 169.276621 
L 235.04955 170.376724 
L 236.216889 171.748208 
L 237.384229 173.385735 
L 239.135239 176.275503 
L 243.804598 184.641544 
L 244.971938 186.175447 
L 245.555608 186.739154 
L 246.139278 187.134005 
L 246.722948 187.334478 
L 247.306618 187.315108 
L 247.890288 187.05093 
L 248.473958 186.517978 
L 249.057628 185.693846 
L 249.641298 184.558302 
L 250.224967 183.09396 
L 251.392307 179.128004 
L 252.559647 173.742861 
L 253.726987 166.982905 
L 254.894327 159.01982 
L 257.229006 140.994389 
L 258.980016 128.225808 
L 260.147356 121.908172 
L 260.731026 119.893235 
L 261.314696 118.893197 
L 261.898366 119.115561 
L 262.482036 120.780905 
L 263.065706 124.120972 
L 263.649376 129.376161 
L 264.233046 136.792299 
L 264.816715 146.616605 
L 265.400385 159.09274 
L 265.984055 174.454811 
L 267.151395 214.681123 
L 268.318735 268.670814 
L 269.281009 324.39625 
M 280.216297 324.39625 
L 280.575803 188.386733 
L 280.959607 -1 
L 280.959607 -1 
" clip-path="url(#pe6f79de0bb)" style="fill: none; stroke: #ff7f0e; stroke-width: 1.5; stroke-linecap: square"/>
   </g>
   <g id="patch_3">
    <path d="M 38.482813 299.518125 
L 38.482813 22.318125 
" style="fill: none; stroke: #000000; stroke-width: 0.8; stroke-linejoin: miter; stroke-linecap: square"/>
   </g>
   <g id="patch_4">
    <path d="M 292.119176 299.518125 
L 292.119176 22.318125 
" style="fill: none; stroke: #000000; stroke-width: 0.8; stroke-linejoin: miter; stroke-linecap: square"/>
   </g>
   <g id="patch_5">
    <path d="M 38.482813 299.518125 
L 292.119176 299.518125 
" style="fill: none; stroke: #000000; stroke-width: 0.8; stroke-linejoin: miter; stroke-linecap: square"/>
   </g>
   <g id="patch_6">
    <path d="M 38.482813 22.318125 
L 292.119176 22.318125 
" style="fill: none; stroke: #000000; stroke-width: 0.8; stroke-linejoin: miter; stroke-linecap: square"/>
   </g>
   <g id="text_12">
    <!-- max error=5.893445859055158 -->
    <g transform="translate(96.127441 244.078125) scale(0.1 -0.1)">
     <defs>
      <path id="DejaVuSans-6d" d="M 3328 2828 
Q 3544 3216 3844 3400 
Q 4144 3584 4550 3584 
Q 5097 3584 5394 3201 
Q 5691 2819 5691 2113 
L 5691 0 
L 5113 0 
L 5113 2094 
Q 5113 2597 4934 2840 
Q 4756 3084 4391 3084 
Q 3944 3084 3684 2787 
Q 3425 2491 3425 1978 
L 3425 0 
L 2847 0 
L 2847 2094 
Q 2847 2600 2669 2842 
Q 2491 3084 2119 3084 
Q 1678 3084 1418 2786 
Q 1159 2488 1159 1978 
L 1159 0 
L 581 0 
L 581 3500 
L 1159 3500 
L 1159 2956 
Q 1356 3278 1631 3431 
Q 1906 3584 2284 3584 
Q 2666 3584 2933 3390 
Q 3200 3197 3328 2828 
z
" transform="scale(0.015625)"/>
      <path id="DejaVuSans-61" d="M 2194 1759 
Q 1497 1759 1228 1600 
Q 959 1441 959 1056 
Q 959 750 1161 570 
Q 1363 391 1709 391 
Q 2188 391 2477 730 
Q 2766 1069 2766 1631 
L 2766 1759 
L 2194 1759 
z
M 3341 1997 
L 3341 0 
L 2766 0 
L 2766 531 
Q 2569 213 2275 61 
Q 1981 -91 1556 -91 
Q 1019 -91 701 211 
Q 384 513 384 1019 
Q 384 1609 779 1909 
Q 1175 2209 1959 2209 
L 2766 2209 
L 2766 2266 
Q 2766 2663 2505 2880 
Q 2244 3097 1772 3097 
Q 1472 3097 1187 3025 
Q 903 2953 641 2809 
L 641 3341 
Q 956 3463 1253 3523 
Q 1550 3584 1831 3584 
Q 2591 3584 2966 3190 
Q 3341 2797 3341 1997 
z
" transform="scale(0.015625)"/>
      <path id="DejaVuSans-78" d="M 3513 3500 
L 2247 1797 
L 3578 0 
L 2900 0 
L 1881 1375 
L 863 0 
L 184 0 
L 1544 1831 
L 300 3500 
L 978 3500 
L 1906 2253 
L 2834 3500 
L 3513 3500 
z
" transform="scale(0.015625)"/>
      <path id="DejaVuSans-20" transform="scale(0.015625)"/>
      <path id="DejaVuSans-65" d="M 3597 1894 
L 3597 1613 
L 953 1613 
Q 991 1019 1311 708 
Q 1631 397 2203 397 
Q 2534 397 2845 478 
Q 3156 559 3463 722 
L 3463 178 
Q 3153 47 2828 -22 
Q 2503 -91 2169 -91 
Q 1331 -91 842 396 
Q 353 884 353 1716 
Q 353 2575 817 3079 
Q 1281 3584 2069 3584 
Q 2775 3584 3186 3129 
Q 3597 2675 3597 1894 
z
M 3022 2063 
Q 3016 2534 2758 2815 
Q 2500 3097 2075 3097 
Q 1594 3097 1305 2825 
Q 1016 2553 972 2059 
L 3022 2063 
z
" transform="scale(0.015625)"/>
      <path id="DejaVuSans-72" d="M 2631 2963 
Q 2534 3019 2420 3045 
Q 2306 3072 2169 3072 
Q 1681 3072 1420 2755 
Q 1159 2438 1159 1844 
L 1159 0 
L 581 0 
L 581 3500 
L 1159 3500 
L 1159 2956 
Q 1341 3275 1631 3429 
Q 1922 3584 2338 3584 
Q 2397 3584 2469 3576 
Q 2541 3569 2628 3553 
L 2631 2963 
z
" transform="scale(0.015625)"/>
      <path id="DejaVuSans-6f" d="M 1959 3097 
Q 1497 3097 1228 2736 
Q 959 2375 959 1747 
Q 959 1119 1226 758 
Q 1494 397 1959 397 
Q 2419 397 2687 759 
Q 2956 1122 2956 1747 
Q 2956 2369 2687 2733 
Q 2419 3097 1959 3097 
z
M 1959 3584 
Q 2709 3584 3137 3096 
Q 3566 2609 3566 1747 
Q 3566 888 3137 398 
Q 2709 -91 1959 -91 
Q 1206 -91 779 398 
Q 353 888 353 1747 
Q 353 2609 779 3096 
Q 1206 3584 1959 3584 
z
" transform="scale(0.015625)"/>
      <path id="DejaVuSans-3d" d="M 678 2906 
L 4684 2906 
L 4684 2381 
L 678 2381 
L 678 2906 
z
M 678 1631 
L 4684 1631 
L 4684 1100 
L 678 1100 
L 678 1631 
z
" transform="scale(0.015625)"/>
      <path id="DejaVuSans-38" d="M 2034 2216 
Q 1584 2216 1326 1975 
Q 1069 1734 1069 1313 
Q 1069 891 1326 650 
Q 1584 409 2034 409 
Q 2484 409 2743 651 
Q 3003 894 3003 1313 
Q 3003 1734 2745 1975 
Q 2488 2216 2034 2216 
z
M 1403 2484 
Q 997 2584 770 2862 
Q 544 3141 544 3541 
Q 544 4100 942 4425 
Q 1341 4750 2034 4750 
Q 2731 4750 3128 4425 
Q 3525 4100 3525 3541 
Q 3525 3141 3298 2862 
Q 3072 2584 2669 2484 
Q 3125 2378 3379 2068 
Q 3634 1759 3634 1313 
Q 3634 634 3220 271 
Q 2806 -91 2034 -91 
Q 1263 -91 848 271 
Q 434 634 434 1313 
Q 434 1759 690 2068 
Q 947 2378 1403 2484 
z
M 1172 3481 
Q 1172 3119 1398 2916 
Q 1625 2713 2034 2713 
Q 2441 2713 2670 2916 
Q 2900 3119 2900 3481 
Q 2900 3844 2670 4047 
Q 2441 4250 2034 4250 
Q 1625 4250 1398 4047 
Q 1172 3844 1172 3481 
z
" transform="scale(0.015625)"/>
      <path id="DejaVuSans-39" d="M 703 97 
L 703 672 
Q 941 559 1184 500 
Q 1428 441 1663 441 
Q 2288 441 2617 861 
Q 2947 1281 2994 2138 
Q 2813 1869 2534 1725 
Q 2256 1581 1919 1581 
Q 1219 1581 811 2004 
Q 403 2428 403 3163 
Q 403 3881 828 4315 
Q 1253 4750 1959 4750 
Q 2769 4750 3195 4129 
Q 3622 3509 3622 2328 
Q 3622 1225 3098 567 
Q 2575 -91 1691 -91 
Q 1453 -91 1209 -44 
Q 966 3 703 97 
z
M 1959 2075 
Q 2384 2075 2632 2365 
Q 2881 2656 2881 3163 
Q 2881 3666 2632 3958 
Q 2384 4250 1959 4250 
Q 1534 4250 1286 3958 
Q 1038 3666 1038 3163 
Q 1038 2656 1286 2365 
Q 1534 2075 1959 2075 
z
" transform="scale(0.015625)"/>
      <path id="DejaVuSans-33" d="M 2597 2516 
Q 3050 2419 3304 2112 
Q 3559 1806 3559 1356 
Q 3559 666 3084 287 
Q 2609 -91 1734 -91 
Q 1441 -91 1130 -33 
Q 819 25 488 141 
L 488 750 
Q 750 597 1062 519 
Q 1375 441 1716 441 
Q 2309 441 2620 675 
Q 2931 909 2931 1356 
Q 2931 1769 2642 2001 
Q 2353 2234 1838 2234 
L 1294 2234 
L 1294 2753 
L 1863 2753 
Q 2328 2753 2575 2939 
Q 2822 3125 2822 3475 
Q 2822 3834 2567 4026 
Q 2313 4219 1838 4219 
Q 1578 4219 1281 4162 
Q 984 4106 628 3988 
L 628 4550 
Q 988 4650 1302 4700 
Q 1616 4750 1894 4750 
Q 2613 4750 3031 4423 
Q 3450 4097 3450 3541 
Q 3450 3153 3228 2886 
Q 3006 2619 2597 2516 
z
" transform="scale(0.015625)"/>
      <path id="DejaVuSans-34" d="M 2419 4116 
L 825 1625 
L 2419 1625 
L 2419 4116 
z
M 2253 4666 
L 3047 4666 
L 3047 1625 
L 3713 1625 
L 3713 1100 
L 3047 1100 
L 3047 0 
L 2419 0 
L 2419 1100 
L 313 1100 
L 313 1709 
L 2253 4666 
z
" transform="scale(0.015625)"/>
     </defs>
     <use xlink:href="#DejaVuSans-6d"/>
     <use xlink:href="#DejaVuSans-61" x="97.412109"/>
     <use xlink:href="#DejaVuSans-78" x="158.691406"/>
     <use xlink:href="#DejaVuSans-20" x="217.871094"/>
     <use xlink:href="#DejaVuSans-65" x="249.658203"/>
     <use xlink:href="#DejaVuSans-72" x="311.181641"/>
     <use xlink:href="#DejaVuSans-72" x="350.544922"/>
     <use xlink:href="#DejaVuSans-6f" x="389.408203"/>
     <use xlink:href="#DejaVuSans-72" x="450.589844"/>
     <use xlink:href="#DejaVuSans-3d" x="491.703125"/>
     <use xlink:href="#DejaVuSans-35" x="575.492188"/>
     <use xlink:href="#DejaVuSans-2e" x="639.115234"/>
     <use xlink:href="#DejaVuSans-38" x="670.902344"/>
     <use xlink:href="#DejaVuSans-39" x="734.525391"/>
     <use xlink:href="#DejaVuSans-33" x="798.148438"/>
     <use xlink:href="#DejaVuSans-34" x="861.771484"/>
     <use xlink:href="#DejaVuSans-34" x="925.394531"/>
     <use xlink:href="#DejaVuSans-35" x="989.017578"/>
     <use xlink:href="#DejaVuSans-38" x="1052.640625"/>
     <use xlink:href="#DejaVuSans-35" x="1116.263672"/>
     <use xlink:href="#DejaVuSans-39" x="1179.886719"/>
     <use xlink:href="#DejaVuSans-30" x="1243.509766"/>
     <use xlink:href="#DejaVuSans-35" x="1307.132812"/>
     <use xlink:href="#DejaVuSans-35" x="1370.755859"/>
     <use xlink:href="#DejaVuSans-31" x="1434.378906"/>
     <use xlink:href="#DejaVuSans-35" x="1498.001953"/>
     <use xlink:href="#DejaVuSans-38" x="1561.625"/>
    </g>
   </g>
   <g id="text_13">
    <!-- equispaced points -->
    <g transform="translate(110.584744 16.318125) scale(0.12 -0.12)">
     <defs>
      <path id="DejaVuSans-71" d="M 947 1747 
Q 947 1113 1208 752 
Q 1469 391 1925 391 
Q 2381 391 2643 752 
Q 2906 1113 2906 1747 
Q 2906 2381 2643 2742 
Q 2381 3103 1925 3103 
Q 1469 3103 1208 2742 
Q 947 2381 947 1747 
z
M 2906 525 
Q 2725 213 2448 61 
Q 2172 -91 1784 -91 
Q 1150 -91 751 415 
Q 353 922 353 1747 
Q 353 2572 751 3078 
Q 1150 3584 1784 3584 
Q 2172 3584 2448 3432 
Q 2725 3281 2906 2969 
L 2906 3500 
L 3481 3500 
L 3481 -1331 
L 2906 -1331 
L 2906 525 
z
" transform="scale(0.015625)"/>
      <path id="DejaVuSans-75" d="M 544 1381 
L 544 3500 
L 1119 3500 
L 1119 1403 
Q 1119 906 1312 657 
Q 1506 409 1894 409 
Q 2359 409 2629 706 
Q 2900 1003 2900 1516 
L 2900 3500 
L 3475 3500 
L 3475 0 
L 2900 0 
L 2900 538 
Q 2691 219 2414 64 
Q 2138 -91 1772 -91 
Q 1169 -91 856 284 
Q 544 659 544 1381 
z
M 1991 3584 
L 1991 3584 
z
" transform="scale(0.015625)"/>
      <path id="DejaVuSans-69" d="M 603 3500 
L 1178 3500 
L 1178 0 
L 603 0 
L 603 3500 
z
M 603 4863 
L 1178 4863 
L 1178 4134 
L 603 4134 
L 603 4863 
z
" transform="scale(0.015625)"/>
      <path id="DejaVuSans-73" d="M 2834 3397 
L 2834 2853 
Q 2591 2978 2328 3040 
Q 2066 3103 1784 3103 
Q 1356 3103 1142 2972 
Q 928 2841 928 2578 
Q 928 2378 1081 2264 
Q 1234 2150 1697 2047 
L 1894 2003 
Q 2506 1872 2764 1633 
Q 3022 1394 3022 966 
Q 3022 478 2636 193 
Q 2250 -91 1575 -91 
Q 1294 -91 989 -36 
Q 684 19 347 128 
L 347 722 
Q 666 556 975 473 
Q 1284 391 1588 391 
Q 1994 391 2212 530 
Q 2431 669 2431 922 
Q 2431 1156 2273 1281 
Q 2116 1406 1581 1522 
L 1381 1569 
Q 847 1681 609 1914 
Q 372 2147 372 2553 
Q 372 3047 722 3315 
Q 1072 3584 1716 3584 
Q 2034 3584 2315 3537 
Q 2597 3491 2834 3397 
z
" transform="scale(0.015625)"/>
      <path id="DejaVuSans-70" d="M 1159 525 
L 1159 -1331 
L 581 -1331 
L 581 3500 
L 1159 3500 
L 1159 2969 
Q 1341 3281 1617 3432 
Q 1894 3584 2278 3584 
Q 2916 3584 3314 3078 
Q 3713 2572 3713 1747 
Q 3713 922 3314 415 
Q 2916 -91 2278 -91 
Q 1894 -91 1617 61 
Q 1341 213 1159 525 
z
M 3116 1747 
Q 3116 2381 2855 2742 
Q 2594 3103 2138 3103 
Q 1681 3103 1420 2742 
Q 1159 2381 1159 1747 
Q 1159 1113 1420 752 
Q 1681 391 2138 391 
Q 2594 391 2855 752 
Q 3116 1113 3116 1747 
z
" transform="scale(0.015625)"/>
      <path id="DejaVuSans-63" d="M 3122 3366 
L 3122 2828 
Q 2878 2963 2633 3030 
Q 2388 3097 2138 3097 
Q 1578 3097 1268 2742 
Q 959 2388 959 1747 
Q 959 1106 1268 751 
Q 1578 397 2138 397 
Q 2388 397 2633 464 
Q 2878 531 3122 666 
L 3122 134 
Q 2881 22 2623 -34 
Q 2366 -91 2075 -91 
Q 1284 -91 818 406 
Q 353 903 353 1747 
Q 353 2603 823 3093 
Q 1294 3584 2113 3584 
Q 2378 3584 2631 3529 
Q 2884 3475 3122 3366 
z
" transform="scale(0.015625)"/>
      <path id="DejaVuSans-64" d="M 2906 2969 
L 2906 4863 
L 3481 4863 
L 3481 0 
L 2906 0 
L 2906 525 
Q 2725 213 2448 61 
Q 2172 -91 1784 -91 
Q 1150 -91 751 415 
Q 353 922 353 1747 
Q 353 2572 751 3078 
Q 1150 3584 1784 3584 
Q 2172 3584 2448 3432 
Q 2725 3281 2906 2969 
z
M 947 1747 
Q 947 1113 1208 752 
Q 1469 391 1925 391 
Q 2381 391 2643 752 
Q 2906 1113 2906 1747 
Q 2906 2381 2643 2742 
Q 2381 3103 1925 3103 
Q 1469 3103 1208 2742 
Q 947 2381 947 1747 
z
" transform="scale(0.015625)"/>
      <path id="DejaVuSans-6e" d="M 3513 2113 
L 3513 0 
L 2938 0 
L 2938 2094 
Q 2938 2591 2744 2837 
Q 2550 3084 2163 3084 
Q 1697 3084 1428 2787 
Q 1159 2491 1159 1978 
L 1159 0 
L 581 0 
L 581 3500 
L 1159 3500 
L 1159 2956 
Q 1366 3272 1645 3428 
Q 1925 3584 2291 3584 
Q 2894 3584 3203 3211 
Q 3513 2838 3513 2113 
z
" transform="scale(0.015625)"/>
      <path id="DejaVuSans-74" d="M 1172 4494 
L 1172 3500 
L 2356 3500 
L 2356 3053 
L 1172 3053 
L 1172 1153 
Q 1172 725 1289 603 
Q 1406 481 1766 481 
L 2356 481 
L 2356 0 
L 1766 0 
Q 1100 0 847 248 
Q 594 497 594 1153 
L 594 3053 
L 172 3053 
L 172 3500 
L 594 3500 
L 594 4494 
L 1172 4494 
z
" transform="scale(0.015625)"/>
     </defs>
     <use xlink:href="#DejaVuSans-65"/>
     <use xlink:href="#DejaVuSans-71" x="61.523438"/>
     <use xlink:href="#DejaVuSans-75" x="125"/>
     <use xlink:href="#DejaVuSans-69" x="188.378906"/>
     <use xlink:href="#DejaVuSans-73" x="216.162109"/>
     <use xlink:href="#DejaVuSans-70" x="268.261719"/>
     <use xlink:href="#DejaVuSans-61" x="331.738281"/>
     <use xlink:href="#DejaVuSans-63" x="393.017578"/>
     <use xlink:href="#DejaVuSans-65" x="447.998047"/>
     <use xlink:href="#DejaVuSans-64" x="509.521484"/>
     <use xlink:href="#DejaVuSans-20" x="572.998047"/>
     <use xlink:href="#DejaVuSans-70" x="604.785156"/>
     <use xlink:href="#DejaVuSans-6f" x="668.261719"/>
     <use xlink:href="#DejaVuSans-69" x="729.443359"/>
     <use xlink:href="#DejaVuSans-6e" x="757.226562"/>
     <use xlink:href="#DejaVuSans-74" x="820.605469"/>
     <use xlink:href="#DejaVuSans-73" x="859.814453"/>
    </g>
   </g>
  </g>
  <g id="axes_2">
   <g id="patch_7">
    <path d="M 342.846449 299.518125 
L 596.482812 299.518125 
L 596.482812 22.318125 
L 342.846449 22.318125 
z
" style="fill: #ffffff"/>
   </g>
   <g id="matplotlib.axis_3">
    <g id="xtick_6">
     <g id="line2d_14">
      <g>
       <use xlink:href="#m74bc30ebdc" x="354.375374" y="299.518125" style="stroke: #000000; stroke-width: 0.8"/>
      </g>
     </g>
     <g id="text_14">
      <!-- −1.0 -->
      <g transform="translate(342.233968 314.116563) scale(0.1 -0.1)">
       <use xlink:href="#DejaVuSans-2212"/>
       <use xlink:href="#DejaVuSans-31" x="83.789062"/>
       <use xlink:href="#DejaVuSans-2e" x="147.412109"/>
       <use xlink:href="#DejaVuSans-30" x="179.199219"/>
      </g>
     </g>
    </g>
    <g id="xtick_7">
     <g id="line2d_15">
      <g>
       <use xlink:href="#m74bc30ebdc" x="412.020003" y="299.518125" style="stroke: #000000; stroke-width: 0.8"/>
      </g>
     </g>
     <g id="text_15">
      <!-- −0.5 -->
      <g transform="translate(399.878596 314.116563) scale(0.1 -0.1)">
       <use xlink:href="#DejaVuSans-2212"/>
       <use xlink:href="#DejaVuSans-30" x="83.789062"/>
       <use xlink:href="#DejaVuSans-2e" x="147.412109"/>
       <use xlink:href="#DejaVuSans-35" x="179.199219"/>
      </g>
     </g>
    </g>
    <g id="xtick_8">
     <g id="line2d_16">
      <g>
       <use xlink:href="#m74bc30ebdc" x="469.664631" y="299.518125" style="stroke: #000000; stroke-width: 0.8"/>
      </g>
     </g>
     <g id="text_16">
      <!-- 0.0 -->
      <g transform="translate(461.713068 314.116563) scale(0.1 -0.1)">
       <use xlink:href="#DejaVuSans-30"/>
       <use xlink:href="#DejaVuSans-2e" x="63.623047"/>
       <use xlink:href="#DejaVuSans-30" x="95.410156"/>
      </g>
     </g>
    </g>
    <g id="xtick_9">
     <g id="line2d_17">
      <g>
       <use xlink:href="#m74bc30ebdc" x="527.309259" y="299.518125" style="stroke: #000000; stroke-width: 0.8"/>
      </g>
     </g>
     <g id="text_17">
      <!-- 0.5 -->
      <g transform="translate(519.357696 314.116563) scale(0.1 -0.1)">
       <use xlink:href="#DejaVuSans-30"/>
       <use xlink:href="#DejaVuSans-2e" x="63.623047"/>
       <use xlink:href="#DejaVuSans-35" x="95.410156"/>
      </g>
     </g>
    </g>
    <g id="xtick_10">
     <g id="line2d_18">
      <g>
       <use xlink:href="#m74bc30ebdc" x="584.953887" y="299.518125" style="stroke: #000000; stroke-width: 0.8"/>
      </g>
     </g>
     <g id="text_18">
      <!-- 1.0 -->
      <g transform="translate(577.002324 314.116563) scale(0.1 -0.1)">
       <use xlink:href="#DejaVuSans-31"/>
       <use xlink:href="#DejaVuSans-2e" x="63.623047"/>
       <use xlink:href="#DejaVuSans-30" x="95.410156"/>
      </g>
     </g>
    </g>
   </g>
   <g id="matplotlib.axis_4">
    <g id="ytick_7">
     <g id="line2d_19">
      <g>
       <use xlink:href="#m940316ad1c" x="342.846449" y="299.518125" style="stroke: #000000; stroke-width: 0.8"/>
      </g>
     </g>
     <g id="text_19">
      <!-- −1.0 -->
      <g transform="translate(311.563636 303.317344) scale(0.1 -0.1)">
       <use xlink:href="#DejaVuSans-2212"/>
       <use xlink:href="#DejaVuSans-31" x="83.789062"/>
       <use xlink:href="#DejaVuSans-2e" x="147.412109"/>
       <use xlink:href="#DejaVuSans-30" x="179.199219"/>
      </g>
     </g>
    </g>
    <g id="ytick_8">
     <g id="line2d_20">
      <g>
       <use xlink:href="#m940316ad1c" x="342.846449" y="244.078125" style="stroke: #000000; stroke-width: 0.8"/>
      </g>
     </g>
     <g id="text_20">
      <!-- −0.5 -->
      <g transform="translate(311.563636 247.877344) scale(0.1 -0.1)">
       <use xlink:href="#DejaVuSans-2212"/>
       <use xlink:href="#DejaVuSans-30" x="83.789062"/>
       <use xlink:href="#DejaVuSans-2e" x="147.412109"/>
       <use xlink:href="#DejaVuSans-35" x="179.199219"/>
      </g>
     </g>
    </g>
    <g id="ytick_9">
     <g id="line2d_21">
      <g>
       <use xlink:href="#m940316ad1c" x="342.846449" y="188.638125" style="stroke: #000000; stroke-width: 0.8"/>
      </g>
     </g>
     <g id="text_21">
      <!-- 0.0 -->
      <g transform="translate(319.943324 192.437344) scale(0.1 -0.1)">
       <use xlink:href="#DejaVuSans-30"/>
       <use xlink:href="#DejaVuSans-2e" x="63.623047"/>
       <use xlink:href="#DejaVuSans-30" x="95.410156"/>
      </g>
     </g>
    </g>
    <g id="ytick_10">
     <g id="line2d_22">
      <g>
       <use xlink:href="#m940316ad1c" x="342.846449" y="133.198125" style="stroke: #000000; stroke-width: 0.8"/>
      </g>
     </g>
     <g id="text_22">
      <!-- 0.5 -->
      <g transform="translate(319.943324 136.997344) scale(0.1 -0.1)">
       <use xlink:href="#DejaVuSans-30"/>
       <use xlink:href="#DejaVuSans-2e" x="63.623047"/>
       <use xlink:href="#DejaVuSans-35" x="95.410156"/>
      </g>
     </g>
    </g>
    <g id="ytick_11">
     <g id="line2d_23">
      <g>
       <use xlink:href="#m940316ad1c" x="342.846449" y="77.758125" style="stroke: #000000; stroke-width: 0.8"/>
      </g>
     </g>
     <g id="text_23">
      <!-- 1.0 -->
      <g transform="translate(319.943324 81.557344) scale(0.1 -0.1)">
       <use xlink:href="#DejaVuSans-31"/>
       <use xlink:href="#DejaVuSans-2e" x="63.623047"/>
       <use xlink:href="#DejaVuSans-30" x="95.410156"/>
      </g>
     </g>
    </g>
    <g id="ytick_12">
     <g id="line2d_24">
      <g>
       <use xlink:href="#m940316ad1c" x="342.846449" y="22.318125" style="stroke: #000000; stroke-width: 0.8"/>
      </g>
     </g>
     <g id="text_24">
      <!-- 1.5 -->
      <g transform="translate(319.943324 26.117344) scale(0.1 -0.1)">
       <use xlink:href="#DejaVuSans-31"/>
       <use xlink:href="#DejaVuSans-2e" x="63.623047"/>
       <use xlink:href="#DejaVuSans-35" x="95.410156"/>
      </g>
     </g>
    </g>
   </g>
   <g id="line2d_25">
    <g clip-path="url(#p00cae819c2)">
     <use xlink:href="#m62143ed4dd" x="584.953887" y="182.115772" style="fill: #1f77b4; stroke: #1f77b4"/>
     <use xlink:href="#m62143ed4dd" x="582.738636" y="181.873452" style="fill: #1f77b4; stroke: #1f77b4"/>
     <use xlink:href="#m62143ed4dd" x="576.178015" y="181.073064" style="fill: #1f77b4; stroke: #1f77b4"/>
     <use xlink:href="#m62143ed4dd" x="565.524144" y="179.445214" style="fill: #1f77b4; stroke: #1f77b4"/>
     <use xlink:href="#m62143ed4dd" x="551.186446" y="176.318125" style="fill: #1f77b4; stroke: #1f77b4"/>
     <use xlink:href="#m62143ed4dd" x="533.71591" y="169.966846" style="fill: #1f77b4; stroke: #1f77b4"/>
     <use xlink:href="#m62143ed4dd" x="513.783919" y="155.471758" style="fill: #1f77b4; stroke: #1f77b4"/>
     <use xlink:href="#m62143ed4dd" x="492.156449" y="119.724204" style="fill: #1f77b4; stroke: #1f77b4"/>
     <use xlink:href="#m62143ed4dd" x="469.664631" y="77.758125" style="fill: #1f77b4; stroke: #1f77b4"/>
     <use xlink:href="#m62143ed4dd" x="447.172813" y="119.724204" style="fill: #1f77b4; stroke: #1f77b4"/>
     <use xlink:href="#m62143ed4dd" x="425.545342" y="155.471758" style="fill: #1f77b4; stroke: #1f77b4"/>
     <use xlink:href="#m62143ed4dd" x="405.613352" y="169.966846" style="fill: #1f77b4; stroke: #1f77b4"/>
     <use xlink:href="#m62143ed4dd" x="388.142816" y="176.318125" style="fill: #1f77b4; stroke: #1f77b4"/>
     <use xlink:href="#m62143ed4dd" x="373.805118" y="179.445214" style="fill: #1f77b4; stroke: #1f77b4"/>
     <use xlink:href="#m62143ed4dd" x="363.151247" y="181.073064" style="fill: #1f77b4; stroke: #1f77b4"/>
     <use xlink:href="#m62143ed4dd" x="356.590625" y="181.873452" style="fill: #1f77b4; stroke: #1f77b4"/>
     <use xlink:href="#m62143ed4dd" x="354.375374" y="182.115772" style="fill: #1f77b4; stroke: #1f77b4"/>
    </g>
   </g>
   <g id="line2d_26">
    <path d="M 353.222482 181.593 
L 353.806152 181.951311 
L 354.389822 182.118065 
L 355.557162 182.092574 
L 357.891841 181.546997 
L 359.642851 181.219717 
L 361.393861 181.082392 
L 368.3979 180.842022 
L 370.732579 180.368448 
L 373.650929 179.496416 
L 379.487628 177.639317 
L 382.405978 176.995126 
L 385.324327 176.585892 
L 393.495706 175.618685 
L 395.830386 175.035553 
L 398.165066 174.208172 
L 400.499745 173.123323 
L 402.834425 171.798092 
L 405.752775 169.869299 
L 410.422134 166.43235 
L 416.842503 161.708941 
L 425.597552 155.430309 
L 427.932232 153.454807 
L 430.266911 151.171912 
L 432.017921 149.198664 
L 433.768931 146.960399 
L 435.51994 144.427138 
L 437.27095 141.577803 
L 439.60563 137.270829 
L 441.94031 132.394279 
L 444.274989 126.99904 
L 447.193339 119.670916 
L 457.115727 93.956542 
L 459.450407 88.857133 
L 461.201417 85.538081 
L 462.952427 82.735474 
L 464.119766 81.185971 
L 465.287106 79.910489 
L 466.454446 78.922204 
L 467.621786 78.231386 
L 468.789126 77.845241 
L 469.956466 77.767809 
L 471.123805 77.999901 
L 472.291145 78.539088 
L 473.458485 79.379735 
L 474.625825 80.513088 
L 475.793165 81.927402 
L 476.960505 83.608118 
L 478.711514 86.590519 
L 480.462524 90.065686 
L 482.797204 95.33148 
L 485.715553 102.644516 
L 495.637942 128.392101 
L 497.972622 133.664756 
L 500.307301 138.40203 
L 502.641981 142.563578 
L 504.976661 146.149999 
L 506.727671 148.483663 
L 509.06235 151.171912 
L 511.39703 153.454807 
L 513.73171 155.430309 
L 517.233729 158.036872 
L 527.739788 165.553714 
L 534.160157 170.274545 
L 537.078506 172.14999 
L 539.413186 173.41822 
L 541.747866 174.43918 
L 544.082545 175.203019 
L 546.417225 175.730854 
L 549.335575 176.139776 
L 556.923284 176.995126 
L 559.841633 177.639317 
L 562.759983 178.515006 
L 568.596682 180.368448 
L 570.931362 180.842022 
L 573.266041 181.059955 
L 576.768061 181.068291 
L 579.10274 181.154126 
L 580.85375 181.417442 
L 584.35577 182.150151 
L 584.93944 182.118065 
L 585.52311 181.951311 
L 586.106779 181.593 
L 586.106779 181.593 
" clip-path="url(#p00cae819c2)" style="fill: none; stroke: #ff7f0e; stroke-width: 1.5; stroke-linecap: square"/>
   </g>
   <g id="patch_8">
    <path d="M 342.846449 299.518125 
L 342.846449 22.318125 
" style="fill: none; stroke: #000000; stroke-width: 0.8; stroke-linejoin: miter; stroke-linecap: square"/>
   </g>
   <g id="patch_9">
    <path d="M 596.482812 299.518125 
L 596.482812 22.318125 
" style="fill: none; stroke: #000000; stroke-width: 0.8; stroke-linejoin: miter; stroke-linecap: square"/>
   </g>
   <g id="patch_10">
    <path d="M 342.846449 299.518125 
L 596.482812 299.518125 
" style="fill: none; stroke: #000000; stroke-width: 0.8; stroke-linejoin: miter; stroke-linecap: square"/>
   </g>
   <g id="patch_11">
    <path d="M 342.846449 22.318125 
L 596.482812 22.318125 
" style="fill: none; stroke: #000000; stroke-width: 0.8; stroke-linejoin: miter; stroke-linecap: square"/>
   </g>
   <g id="text_25">
    <!-- max error=0.017533356948033096 -->
    <g transform="translate(400.491077 244.078125) scale(0.1 -0.1)">
     <defs>
      <path id="DejaVuSans-37" d="M 525 4666 
L 3525 4666 
L 3525 4397 
L 1831 0 
L 1172 0 
L 2766 4134 
L 525 4134 
L 525 4666 
z
" transform="scale(0.015625)"/>
      <path id="DejaVuSans-36" d="M 2113 2584 
Q 1688 2584 1439 2293 
Q 1191 2003 1191 1497 
Q 1191 994 1439 701 
Q 1688 409 2113 409 
Q 2538 409 2786 701 
Q 3034 994 3034 1497 
Q 3034 2003 2786 2293 
Q 2538 2584 2113 2584 
z
M 3366 4563 
L 3366 3988 
Q 3128 4100 2886 4159 
Q 2644 4219 2406 4219 
Q 1781 4219 1451 3797 
Q 1122 3375 1075 2522 
Q 1259 2794 1537 2939 
Q 1816 3084 2150 3084 
Q 2853 3084 3261 2657 
Q 3669 2231 3669 1497 
Q 3669 778 3244 343 
Q 2819 -91 2113 -91 
Q 1303 -91 875 529 
Q 447 1150 447 2328 
Q 447 3434 972 4092 
Q 1497 4750 2381 4750 
Q 2619 4750 2861 4703 
Q 3103 4656 3366 4563 
z
" transform="scale(0.015625)"/>
     </defs>
     <use xlink:href="#DejaVuSans-6d"/>
     <use xlink:href="#DejaVuSans-61" x="97.412109"/>
     <use xlink:href="#DejaVuSans-78" x="158.691406"/>
     <use xlink:href="#DejaVuSans-20" x="217.871094"/>
     <use xlink:href="#DejaVuSans-65" x="249.658203"/>
     <use xlink:href="#DejaVuSans-72" x="311.181641"/>
     <use xlink:href="#DejaVuSans-72" x="350.544922"/>
     <use xlink:href="#DejaVuSans-6f" x="389.408203"/>
     <use xlink:href="#DejaVuSans-72" x="450.589844"/>
     <use xlink:href="#DejaVuSans-3d" x="491.703125"/>
     <use xlink:href="#DejaVuSans-30" x="575.492188"/>
     <use xlink:href="#DejaVuSans-2e" x="639.115234"/>
     <use xlink:href="#DejaVuSans-30" x="670.902344"/>
     <use xlink:href="#DejaVuSans-31" x="734.525391"/>
     <use xlink:href="#DejaVuSans-37" x="798.148438"/>
     <use xlink:href="#DejaVuSans-35" x="861.771484"/>
     <use xlink:href="#DejaVuSans-33" x="925.394531"/>
     <use xlink:href="#DejaVuSans-33" x="989.017578"/>
     <use xlink:href="#DejaVuSans-33" x="1052.640625"/>
     <use xlink:href="#DejaVuSans-35" x="1116.263672"/>
     <use xlink:href="#DejaVuSans-36" x="1179.886719"/>
     <use xlink:href="#DejaVuSans-39" x="1243.509766"/>
     <use xlink:href="#DejaVuSans-34" x="1307.132812"/>
     <use xlink:href="#DejaVuSans-38" x="1370.755859"/>
     <use xlink:href="#DejaVuSans-30" x="1434.378906"/>
     <use xlink:href="#DejaVuSans-33" x="1498.001953"/>
     <use xlink:href="#DejaVuSans-33" x="1561.625"/>
     <use xlink:href="#DejaVuSans-30" x="1625.248047"/>
     <use xlink:href="#DejaVuSans-39" x="1688.871094"/>
     <use xlink:href="#DejaVuSans-36" x="1752.494141"/>
    </g>
   </g>
   <g id="text_26">
    <!-- Chebyshev points -->
    <g transform="translate(416.114631 16.318125) scale(0.12 -0.12)">
     <defs>
      <path id="DejaVuSans-43" d="M 4122 4306 
L 4122 3641 
Q 3803 3938 3442 4084 
Q 3081 4231 2675 4231 
Q 1875 4231 1450 3742 
Q 1025 3253 1025 2328 
Q 1025 1406 1450 917 
Q 1875 428 2675 428 
Q 3081 428 3442 575 
Q 3803 722 4122 1019 
L 4122 359 
Q 3791 134 3420 21 
Q 3050 -91 2638 -91 
Q 1578 -91 968 557 
Q 359 1206 359 2328 
Q 359 3453 968 4101 
Q 1578 4750 2638 4750 
Q 3056 4750 3426 4639 
Q 3797 4528 4122 4306 
z
" transform="scale(0.015625)"/>
      <path id="DejaVuSans-68" d="M 3513 2113 
L 3513 0 
L 2938 0 
L 2938 2094 
Q 2938 2591 2744 2837 
Q 2550 3084 2163 3084 
Q 1697 3084 1428 2787 
Q 1159 2491 1159 1978 
L 1159 0 
L 581 0 
L 581 4863 
L 1159 4863 
L 1159 2956 
Q 1366 3272 1645 3428 
Q 1925 3584 2291 3584 
Q 2894 3584 3203 3211 
Q 3513 2838 3513 2113 
z
" transform="scale(0.015625)"/>
      <path id="DejaVuSans-62" d="M 3116 1747 
Q 3116 2381 2855 2742 
Q 2594 3103 2138 3103 
Q 1681 3103 1420 2742 
Q 1159 2381 1159 1747 
Q 1159 1113 1420 752 
Q 1681 391 2138 391 
Q 2594 391 2855 752 
Q 3116 1113 3116 1747 
z
M 1159 2969 
Q 1341 3281 1617 3432 
Q 1894 3584 2278 3584 
Q 2916 3584 3314 3078 
Q 3713 2572 3713 1747 
Q 3713 922 3314 415 
Q 2916 -91 2278 -91 
Q 1894 -91 1617 61 
Q 1341 213 1159 525 
L 1159 0 
L 581 0 
L 581 4863 
L 1159 4863 
L 1159 2969 
z
" transform="scale(0.015625)"/>
      <path id="DejaVuSans-79" d="M 2059 -325 
Q 1816 -950 1584 -1140 
Q 1353 -1331 966 -1331 
L 506 -1331 
L 506 -850 
L 844 -850 
Q 1081 -850 1212 -737 
Q 1344 -625 1503 -206 
L 1606 56 
L 191 3500 
L 800 3500 
L 1894 763 
L 2988 3500 
L 3597 3500 
L 2059 -325 
z
" transform="scale(0.015625)"/>
      <path id="DejaVuSans-76" d="M 191 3500 
L 800 3500 
L 1894 563 
L 2988 3500 
L 3597 3500 
L 2284 0 
L 1503 0 
L 191 3500 
z
" transform="scale(0.015625)"/>
     </defs>
     <use xlink:href="#DejaVuSans-43"/>
     <use xlink:href="#DejaVuSans-68" x="69.824219"/>
     <use xlink:href="#DejaVuSans-65" x="133.203125"/>
     <use xlink:href="#DejaVuSans-62" x="194.726562"/>
     <use xlink:href="#DejaVuSans-79" x="258.203125"/>
     <use xlink:href="#DejaVuSans-73" x="317.382812"/>
     <use xlink:href="#DejaVuSans-68" x="369.482422"/>
     <use xlink:href="#DejaVuSans-65" x="432.861328"/>
     <use xlink:href="#DejaVuSans-76" x="494.384766"/>
     <use xlink:href="#DejaVuSans-20" x="553.564453"/>
     <use xlink:href="#DejaVuSans-70" x="585.351562"/>
     <use xlink:href="#DejaVuSans-6f" x="648.828125"/>
     <use xlink:href="#DejaVuSans-69" x="710.009766"/>
     <use xlink:href="#DejaVuSans-6e" x="737.792969"/>
     <use xlink:href="#DejaVuSans-74" x="801.171875"/>
     <use xlink:href="#DejaVuSans-73" x="840.380859"/>
    </g>
   </g>
  </g>
 </g>
 <defs>
  <clipPath id="pe6f79de0bb">
   <rect x="38.482813" y="22.318125" width="253.636364" height="277.2"/>
  </clipPath>
  <clipPath id="p00cae819c2">
   <rect x="342.846449" y="22.318125" width="253.636364" height="277.2"/>
  </clipPath>
 </defs>
</svg>