<?xml version="1.0" encoding="utf-8" standalone="no"?>
<!DOCTYPE svg PUBLIC "-//W3C//DTD SVG 1.1//EN"
  "http://www.w3.org/Graphics/SVG/1.1/DTD/svg11.dtd">
<svg xmlns:xlink="http://www.w3.org/1999/xlink" width="335.182812pt" height="599.15625pt" viewBox="0 0 335.182812 599.15625" xmlns="http://www.w3.org/2000/svg" version="1.1">
 <metadata>
  <rdf:RDF xmlns:dc="http://purl.org/dc/elements/1.1/" xmlns:cc="http://creativecommons.org/ns#" xmlns:rdf="http://www.w3.org/1999/02/22-rdf-syntax-ns#">
   <cc:Work>
    <dc:type rdf:resource="http://purl.org/dc/dcmitype/StillImage"/>
    <dc:date>2024-12-10T10:16:59.929879</dc:date>
    <dc:format>image/svg+xml</dc:format>
    <dc:creator>
     <cc:Agent>
      <dc:title>Matplotlib v3.9.2, https://matplotlib.org/</dc:title>
     </cc:Agent>
    </dc:creator>
   </cc:Work>
  </rdf:RDF>
 </metadata>
 <defs>
  <style type="text/css">*{stroke-linejoin: round; stroke-linecap: butt}</style>
 </defs>
 <g id="figure_1">
  <g id="patch_1">
   <path d="M 0 599.15625 
L 335.182812 599.15625 
L 335.182812 0 
L 0 0 
z
" style="fill: #ffffff"/>
  </g>
  <g id="axes_1">
   <g id="patch_2">
    <path d="M 48.982813 561.6 
L 327.982813 561.6 
L 327.982813 7.2 
L 48.982813 7.2 
z
" style="fill: #ffffff"/>
   </g>
   <g id="matplotlib.axis_1">
    <g id="xtick_1">
     <g id="line2d_1">
      <defs>
       <path id="m83e131205e" d="M 0 0 
L 0 3.5 
" style="stroke: #000000; stroke-width: 0.8"/>
      </defs>
      <g>
       <use xlink:href="#m83e131205e" x="61.664631" y="561.6" style="stroke: #000000; stroke-width: 0.8"/>
      </g>
     </g>
     <g id="text_1">
      <!-- 0 -->
      <g transform="translate(58.483381 576.198437) scale(0.1 -0.1)">
       <defs>
        <path id="DejaVuSans-30" d="M 2034 4250 
Q 1547 4250 1301 3770 
Q 1056 3291 1056 2328 
Q 1056 1369 1301 889 
Q 1547 409 2034 409 
Q 2525 409 2770 889 
Q 3016 1369 3016 2328 
Q 3016 3291 2770 3770 
Q 2525 4250 2034 4250 
z
M 2034 4750 
Q 2819 4750 3233 4129 
Q 3647 3509 3647 2328 
Q 3647 1150 3233 529 
Q 2819 -91 2034 -91 
Q 1250 -91 836 529 
Q 422 1150 422 2328 
Q 422 3509 836 4129 
Q 1250 4750 2034 4750 
z
" transform="scale(0.015625)"/>
       </defs>
       <use xlink:href="#DejaVuSans-30"/>
      </g>
     </g>
    </g>
    <g id="xtick_2">
     <g id="line2d_2">
      <g>
       <use xlink:href="#m83e131205e" x="95.939815" y="561.6" style="stroke: #000000; stroke-width: 0.8"/>
      </g>
     </g>
     <g id="text_2">
      <!-- 2 -->
      <g transform="translate(92.758565 576.198437) scale(0.1 -0.1)">
       <defs>
        <path id="DejaVuSans-32" d="M 1228 531 
L 3431 531 
L 3431 0 
L 469 0 
L 469 531 
Q 828 903 1448 1529 
Q 2069 2156 2228 2338 
Q 2531 2678 2651 2914 
Q 2772 3150 2772 3378 
Q 2772 3750 2511 3984 
Q 2250 4219 1831 4219 
Q 1534 4219 1204 4116 
Q 875 4013 500 3803 
L 500 4441 
Q 881 4594 1212 4672 
Q 1544 4750 1819 4750 
Q 2544 4750 2975 4387 
Q 3406 4025 3406 3419 
Q 3406 3131 3298 2873 
Q 3191 2616 2906 2266 
Q 2828 2175 2409 1742 
Q 1991 1309 1228 531 
z
" transform="scale(0.015625)"/>
       </defs>
       <use xlink:href="#DejaVuSans-32"/>
      </g>
     </g>
    </g>
    <g id="xtick_3">
     <g id="line2d_3">
      <g>
       <use xlink:href="#m83e131205e" x="130.214999" y="561.6" style="stroke: #000000; stroke-width: 0.8"/>
      </g>
     </g>
     <g id="text_3">
      <!-- 4 -->
      <g transform="translate(127.033749 576.198437) scale(0.1 -0.1)">
       <defs>
        <path id="DejaVuSans-34" d="M 2419 4116 
L 825 1625 
L 2419 1625 
L 2419 4116 
z
M 2253 4666 
L 3047 4666 
L 3047 1625 
L 3713 1625 
L 3713 1100 
L 3047 1100 
L 3047 0 
L 2419 0 
L 2419 1100 
L 313 1100 
L 313 1709 
L 2253 4666 
z
" transform="scale(0.015625)"/>
       </defs>
       <use xlink:href="#DejaVuSans-34"/>
      </g>
     </g>
    </g>
    <g id="xtick_4">
     <g id="line2d_4">
      <g>
       <use xlink:href="#m83e131205e" x="164.490184" y="561.6" style="stroke: #000000; stroke-width: 0.8"/>
      </g>
     </g>
     <g id="text_4">
      <!-- 6 -->
      <g transform="translate(161.308934 576.198437) scale(0.1 -0.1)">
       <defs>
        <path id="DejaVuSans-36" d="M 2113 2584 
Q 1688 2584 1439 2293 
Q 1191 2003 1191 1497 
Q 1191 994 1439 701 
Q 1688 409 2113 409 
Q 2538 409 2786 701 
Q 3034 994 3034 1497 
Q 3034 2003 2786 2293 
Q 2538 2584 2113 2584 
z
M 3366 4563 
L 3366 3988 
Q 3128 4100 2886 4159 
Q 2644 4219 2406 4219 
Q 1781 4219 1451 3797 
Q 1122 3375 1075 2522 
Q 1259 2794 1537 2939 
Q 1816 3084 2150 3084 
Q 2853 3084 3261 2657 
Q 3669 2231 3669 1497 
Q 3669 778 3244 343 
Q 2819 -91 2113 -91 
Q 1303 -91 875 529 
Q 447 1150 447 2328 
Q 447 3434 972 4092 
Q 1497 4750 2381 4750 
Q 2619 4750 2861 4703 
Q 3103 4656 3366 4563 
z
" transform="scale(0.015625)"/>
       </defs>
       <use xlink:href="#DejaVuSans-36"/>
      </g>
     </g>
    </g>
    <g id="xtick_5">
     <g id="line2d_5">
      <g>
       <use xlink:href="#m83e131205e" x="198.765368" y="561.6" style="stroke: #000000; stroke-width: 0.8"/>
      </g>
     </g>
     <g id="text_5">
      <!-- 8 -->
      <g transform="translate(195.584118 576.198437) scale(0.1 -0.1)">
       <defs>
        <path id="DejaVuSans-38" d="M 2034 2216 
Q 1584 2216 1326 1975 
Q 1069 1734 1069 1313 
Q 1069 891 1326 650 
Q 1584 409 2034 409 
Q 2484 409 2743 651 
Q 3003 894 3003 1313 
Q 3003 1734 2745 1975 
Q 2488 2216 2034 2216 
z
M 1403 2484 
Q 997 2584 770 2862 
Q 544 3141 544 3541 
Q 544 4100 942 4425 
Q 1341 4750 2034 4750 
Q 2731 4750 3128 4425 
Q 3525 4100 3525 3541 
Q 3525 3141 3298 2862 
Q 3072 2584 2669 2484 
Q 3125 2378 3379 2068 
Q 3634 1759 3634 1313 
Q 3634 634 3220 271 
Q 2806 -91 2034 -91 
Q 1263 -91 848 271 
Q 434 634 434 1313 
Q 434 1759 690 2068 
Q 947 2378 1403 2484 
z
M 1172 3481 
Q 1172 3119 1398 2916 
Q 1625 2713 2034 2713 
Q 2441 2713 2670 2916 
Q 2900 3119 2900 3481 
Q 2900 3844 2670 4047 
Q 2441 4250 2034 4250 
Q 1625 4250 1398 4047 
Q 1172 3844 1172 3481 
z
" transform="scale(0.015625)"/>
       </defs>
       <use xlink:href="#DejaVuSans-38"/>
      </g>
     </g>
    </g>
    <g id="xtick_6">
     <g id="line2d_6">
      <g>
       <use xlink:href="#m83e131205e" x="233.040552" y="561.6" style="stroke: #000000; stroke-width: 0.8"/>
      </g>
     </g>
     <g id="text_6">
      <!-- 10 -->
      <g transform="translate(226.678052 576.198437) scale(0.1 -0.1)">
       <defs>
        <path id="DejaVuSans-31" d="M 794 531 
L 1825 531 
L 1825 4091 
L 703 3866 
L 703 4441 
L 1819 4666 
L 2450 4666 
L 2450 531 
L 3481 531 
L 3481 0 
L 794 0 
L 794 531 
z
" transform="scale(0.015625)"/>
       </defs>
       <use xlink:href="#DejaVuSans-31"/>
       <use xlink:href="#DejaVuSans-30" x="63.623047"/>
      </g>
     </g>
    </g>
    <g id="xtick_7">
     <g id="line2d_7">
      <g>
       <use xlink:href="#m83e131205e" x="267.315736" y="561.6" style="stroke: #000000; stroke-width: 0.8"/>
      </g>
     </g>
     <g id="text_7">
      <!-- 12 -->
      <g transform="translate(260.953236 576.198437) scale(0.1 -0.1)">
       <use xlink:href="#DejaVuSans-31"/>
       <use xlink:href="#DejaVuSans-32" x="63.623047"/>
      </g>
     </g>
    </g>
    <g id="xtick_8">
     <g id="line2d_8">
      <g>
       <use xlink:href="#m83e131205e" x="301.590921" y="561.6" style="stroke: #000000; stroke-width: 0.8"/>
      </g>
     </g>
     <g id="text_8">
      <!-- 14 -->
      <g transform="translate(295.228421 576.198437) scale(0.1 -0.1)">
       <use xlink:href="#DejaVuSans-31"/>
       <use xlink:href="#DejaVuSans-34" x="63.623047"/>
      </g>
     </g>
    </g>
    <g id="text_9">
     <!-- q -->
     <g transform="translate(185.308594 589.876562) scale(0.1 -0.1)">
      <defs>
       <path id="DejaVuSans-71" d="M 947 1747 
Q 947 1113 1208 752 
Q 1469 391 1925 391 
Q 2381 391 2643 752 
Q 2906 1113 2906 1747 
Q 2906 2381 2643 2742 
Q 2381 3103 1925 3103 
Q 1469 3103 1208 2742 
Q 947 2381 947 1747 
z
M 2906 525 
Q 2725 213 2448 61 
Q 2172 -91 1784 -91 
Q 1150 -91 751 415 
Q 353 922 353 1747 
Q 353 2572 751 3078 
Q 1150 3584 1784 3584 
Q 2172 3584 2448 3432 
Q 2725 3281 2906 2969 
L 2906 3500 
L 3481 3500 
L 3481 -1331 
L 2906 -1331 
L 2906 525 
z
" transform="scale(0.015625)"/>
      </defs>
      <use xlink:href="#DejaVuSans-71"/>
     </g>
    </g>
   </g>
   <g id="matplotlib.axis_2">
    <g id="ytick_1">
     <g id="line2d_9">
      <defs>
       <path id="m94243d9705" d="M 0 0 
L -3.5 0 
" style="stroke: #000000; stroke-width: 0.8"/>
      </defs>
      <g>
       <use xlink:href="#m94243d9705" x="48.982813" y="516.16761" style="stroke: #000000; stroke-width: 0.8"/>
      </g>
     </g>
     <g id="text_10">
      <!-- −20 -->
      <g transform="translate(20.878125 519.966829) scale(0.1 -0.1)">
       <defs>
        <path id="DejaVuSans-2212" d="M 678 2272 
L 4684 2272 
L 4684 1741 
L 678 1741 
L 678 2272 
z
" transform="scale(0.015625)"/>
       </defs>
       <use xlink:href="#DejaVuSans-2212"/>
       <use xlink:href="#DejaVuSans-32" x="83.789062"/>
       <use xlink:href="#DejaVuSans-30" x="147.412109"/>
      </g>
     </g>
    </g>
    <g id="ytick_2">
     <g id="line2d_10">
      <g>
       <use xlink:href="#m94243d9705" x="48.982813" y="422.712026" style="stroke: #000000; stroke-width: 0.8"/>
      </g>
     </g>
     <g id="text_11">
      <!-- −10 -->
      <g transform="translate(20.878125 426.511245) scale(0.1 -0.1)">
       <use xlink:href="#DejaVuSans-2212"/>
       <use xlink:href="#DejaVuSans-31" x="83.789062"/>
       <use xlink:href="#DejaVuSans-30" x="147.412109"/>
      </g>
     </g>
    </g>
    <g id="ytick_3">
     <g id="line2d_11">
      <g>
       <use xlink:href="#m94243d9705" x="48.982813" y="329.256443" style="stroke: #000000; stroke-width: 0.8"/>
      </g>
     </g>
     <g id="text_12">
      <!-- 0 -->
      <g transform="translate(35.620312 333.055661) scale(0.1 -0.1)">
       <use xlink:href="#DejaVuSans-30"/>
      </g>
     </g>
    </g>
    <g id="ytick_4">
     <g id="line2d_12">
      <g>
       <use xlink:href="#m94243d9705" x="48.982813" y="235.800859" style="stroke: #000000; stroke-width: 0.8"/>
      </g>
     </g>
     <g id="text_13">
      <!-- 10 -->
      <g transform="translate(29.257812 239.600078) scale(0.1 -0.1)">
       <use xlink:href="#DejaVuSans-31"/>
       <use xlink:href="#DejaVuSans-30" x="63.623047"/>
      </g>
     </g>
    </g>
    <g id="ytick_5">
     <g id="line2d_13">
      <g>
       <use xlink:href="#m94243d9705" x="48.982813" y="142.345275" style="stroke: #000000; stroke-width: 0.8"/>
      </g>
     </g>
     <g id="text_14">
      <!-- 20 -->
      <g transform="translate(29.257812 146.144494) scale(0.1 -0.1)">
       <use xlink:href="#DejaVuSans-32"/>
       <use xlink:href="#DejaVuSans-30" x="63.623047"/>
      </g>
     </g>
    </g>
    <g id="ytick_6">
     <g id="line2d_14">
      <g>
       <use xlink:href="#m94243d9705" x="48.982813" y="48.889692" style="stroke: #000000; stroke-width: 0.8"/>
      </g>
     </g>
     <g id="text_15">
      <!-- 30 -->
      <g transform="translate(29.257812 52.68891) scale(0.1 -0.1)">
       <defs>
        <path id="DejaVuSans-33" d="M 2597 2516 
Q 3050 2419 3304 2112 
Q 3559 1806 3559 1356 
Q 3559 666 3084 287 
Q 2609 -91 1734 -91 
Q 1441 -91 1130 -33 
Q 819 25 488 141 
L 488 750 
Q 750 597 1062 519 
Q 1375 441 1716 441 
Q 2309 441 2620 675 
Q 2931 909 2931 1356 
Q 2931 1769 2642 2001 
Q 2353 2234 1838 2234 
L 1294 2234 
L 1294 2753 
L 1863 2753 
Q 2328 2753 2575 2939 
Q 2822 3125 2822 3475 
Q 2822 3834 2567 4026 
Q 2313 4219 1838 4219 
Q 1578 4219 1281 4162 
Q 984 4106 628 3988 
L 628 4550 
Q 988 4650 1302 4700 
Q 1616 4750 1894 4750 
Q 2613 4750 3031 4423 
Q 3450 4097 3450 3541 
Q 3450 3153 3228 2886 
Q 3006 2619 2597 2516 
z
" transform="scale(0.015625)"/>
       </defs>
       <use xlink:href="#DejaVuSans-33"/>
       <use xlink:href="#DejaVuSans-30" x="63.623047"/>
      </g>
     </g>
    </g>
    <g id="text_16">
     <!-- $\lambda$ -->
     <g transform="translate(14.798438 287.4) rotate(-90) scale(0.1 -0.1)">
      <defs>
       <path id="DejaVuSans-Oblique-3bb" d="M 2350 4316 
L 3125 0 
L 2516 0 
L 2038 2588 
L 328 0 
L -281 0 
L 1903 3356 
L 1794 3975 
Q 1725 4369 1391 4369 
L 1091 4369 
L 1184 4863 
L 1550 4856 
Q 2253 4847 2350 4316 
z
" transform="scale(0.015625)"/>
      </defs>
      <use xlink:href="#DejaVuSans-Oblique-3bb" transform="translate(0 0.015625)"/>
     </g>
    </g>
   </g>
   <g id="line2d_15">
    <path d="M 61.664631 329.256443 
L 65.092149 329.442543 
L 68.519668 329.991464 
L 71.947186 330.877383 
L 75.374704 332.063781 
L 78.802223 333.509967 
L 82.229741 335.176225 
L 85.65726 337.02684 
L 89.084778 339.031291 
L 92.512297 341.164285 
L 95.939815 343.405215 
L 99.367333 345.737419 
L 102.794852 348.147448 
L 106.22237 350.624422 
L 109.649889 353.159492 
L 113.077407 355.745417 
L 116.504926 358.376229 
L 119.932444 361.046965 
L 123.359962 363.753471 
L 126.787481 366.492238 
L 130.214999 369.260281 
L 133.642518 372.055041 
L 137.070036 374.874308 
L 140.497555 377.716162 
L 143.925073 380.578923 
L 147.352591 383.461111 
L 150.78011 386.361419 
L 154.207628 389.27868 
L 157.635147 392.211853 
L 161.062665 395.160002 
L 164.490184 398.122281 
L 167.917702 401.097925 
L 171.34522 404.086237 
L 174.772739 407.08658 
L 178.200257 410.098372 
L 181.627776 413.121077 
L 185.055294 416.154202 
L 188.482812 419.197289 
L 191.910331 422.249917 
L 195.337849 425.311693 
L 198.765368 428.38225 
L 202.192886 431.461247 
L 205.620405 434.548366 
L 209.047923 437.643307 
L 212.475441 440.74579 
L 215.90296 443.85555 
L 219.330478 446.972341 
L 222.757997 450.095926 
L 226.185515 453.226086 
L 229.613034 456.362611 
L 233.040552 459.505302 
L 236.46807 462.653972 
L 239.895589 465.808443 
L 243.323107 468.968545 
L 246.750626 472.134116 
L 250.178144 475.305003 
L 253.605663 478.48106 
L 257.033181 481.662146 
L 260.460699 484.848129 
L 263.888218 488.03888 
L 267.315736 491.234277 
L 270.743255 494.434204 
L 274.170773 497.638549 
L 277.598292 500.847203 
L 281.02581 504.060064 
L 284.453328 507.277032 
L 287.880847 510.498013 
L 291.308365 513.722915 
L 294.735884 516.951649 
L 298.163402 520.184132 
L 301.590921 523.42028 
L 305.018439 526.660016 
L 308.445957 529.903263 
L 311.873476 533.149948 
L 315.300994 536.4 
" clip-path="url(#p5b7b33f985)" style="fill: none; stroke: #1f77b4; stroke-width: 1.5; stroke-linecap: square"/>
   </g>
   <g id="line2d_16">
    <path d="M 61.664631 319.910884 
L 65.092149 321.825566 
L 68.519668 323.826854 
L 71.947186 325.908199 
L 75.374704 328.063428 
L 78.802223 330.286779 
L 82.229741 332.572918 
L 85.65726 334.916929 
L 89.084778 337.314311 
L 92.512297 339.760947 
L 95.939815 342.253091 
L 99.367333 344.787331 
L 102.794852 347.360568 
L 106.22237 349.969986 
L 109.649889 352.613029 
L 113.077407 355.287371 
L 116.504926 357.9909 
L 119.932444 360.721693 
L 123.359962 363.477998 
L 126.787481 366.258215 
L 130.214999 369.060885 
L 133.642518 371.884672 
L 137.070036 374.728354 
L 140.497555 377.590806 
L 143.925073 380.470998 
L 147.352591 383.367979 
L 150.78011 386.280874 
L 154.207628 389.208875 
L 157.635147 392.151233 
L 161.062665 395.107257 
L 164.490184 398.076303 
L 167.917702 401.057773 
L 171.34522 404.051113 
L 174.772739 407.055804 
L 178.200257 410.071363 
L 181.627776 413.097338 
L 185.055294 416.133305 
L 188.482812 419.178869 
L 191.910331 422.233657 
L 195.337849 425.29732 
L 198.765368 428.369529 
L 202.192886 431.449975 
L 205.620405 434.538365 
L 209.047923 437.634423 
L 212.475441 440.73789 
L 215.90296 443.848517 
L 219.330478 446.966073 
L 222.757997 450.090334 
L 226.185515 453.221092 
L 229.613034 456.358146 
L 233.040552 459.501307 
L 236.46807 462.650394 
L 239.895589 465.805235 
L 243.323107 468.965666 
L 246.750626 472.131531 
L 250.178144 475.30268 
L 253.605663 478.47897 
L 257.033181 481.660265 
L 260.460699 484.846433 
L 263.888218 488.037351 
L 267.315736 491.232898 
L 270.743255 494.432959 
L 274.170773 497.637423 
L 277.598292 500.846185 
L 281.02581 504.059142 
L 284.453328 507.276198 
L 287.880847 510.497257 
L 291.308365 513.722229 
L 294.735884 516.951027 
L 298.163402 520.183567 
L 301.590921 523.419767 
L 305.018439 526.659549 
L 308.445957 529.902839 
L 311.873476 533.149562 
L 315.300994 536.399649 
" clip-path="url(#p5b7b33f985)" style="fill: none; stroke-dasharray: 5.55,2.4; stroke-dashoffset: 0; stroke: #ff7f0e; stroke-width: 1.5"/>
   </g>
   <g id="line2d_17">
    <path d="M 61.664631 319.910884 
L 65.092149 318.089677 
L 68.519668 316.369042 
L 71.947186 314.756175 
L 75.374704 313.258215 
L 78.802223 311.88204 
L 82.229741 310.634043 
L 85.65726 309.519894 
L 89.084778 308.544294 
L 92.512297 307.710767 
L 95.939815 307.021491 
L 99.367333 306.477195 
L 102.794852 306.077137 
L 106.22237 305.819162 
L 109.649889 305.699833 
L 113.077407 305.714616 
L 116.504926 305.858105 
L 119.932444 306.124257 
L 123.359962 306.506622 
L 126.787481 306.998548 
L 130.214999 307.593362 
L 133.642518 308.284509 
L 137.070036 309.065662 
L 140.497555 309.930791 
L 143.925073 310.87422 
L 147.352591 311.890642 
L 150.78011 312.975138 
L 154.207628 314.123163 
L 157.635147 315.330538 
L 161.062665 316.593432 
L 164.490184 317.908335 
L 167.917702 319.272039 
L 171.34522 320.681609 
L 174.772739 322.134364 
L 178.200257 323.627852 
L 181.627776 325.159826 
L 185.055294 326.728228 
L 188.482812 328.331172 
L 191.910331 329.966922 
L 195.337849 331.633881 
L 198.765368 333.330579 
L 202.192886 335.055656 
L 205.620405 336.807855 
L 209.047923 338.58601 
L 212.475441 340.389042 
L 215.90296 342.215943 
L 219.330478 344.065777 
L 222.757997 345.937668 
L 226.185515 347.8308 
L 229.613034 349.744406 
L 233.040552 351.677768 
L 236.46807 353.630211 
L 239.895589 355.6011 
L 243.323107 357.589836 
L 246.750626 359.595854 
L 250.178144 361.618622 
L 253.605663 363.657632 
L 257.033181 365.712407 
L 260.460699 367.782491 
L 263.888218 369.867455 
L 267.315736 371.966886 
L 270.743255 374.080394 
L 274.170773 376.207607 
L 277.598292 378.348169 
L 281.02581 380.50174 
L 284.453328 382.667996 
L 287.880847 384.846627 
L 291.308365 387.037334 
L 294.735884 389.239832 
L 298.163402 391.453848 
L 301.590921 393.67912 
L 305.018439 395.915393 
L 308.445957 398.162427 
L 311.873476 400.419987 
L 315.300994 402.687848 
" clip-path="url(#p5b7b33f985)" style="fill: none; stroke: #2ca02c; stroke-width: 1.5; stroke-linecap: square"/>
   </g>
   <g id="line2d_18">
    <path d="M 61.664631 291.874209 
L 65.092149 291.905356 
L 68.519668 291.99873 
L 71.947186 292.154139 
L 75.374704 292.371263 
L 78.802223 292.649659 
L 82.229741 292.988766 
L 85.65726 293.387914 
L 89.084778 293.846327 
L 92.512297 294.363134 
L 95.939815 294.937378 
L 99.367333 295.568023 
L 102.794852 296.25397 
L 106.22237 296.994056 
L 109.649889 297.787074 
L 113.077407 298.631777 
L 116.504926 299.526889 
L 119.932444 300.471111 
L 123.359962 301.463132 
L 126.787481 302.501636 
L 130.214999 303.585306 
L 133.642518 304.712831 
L 137.070036 305.882915 
L 140.497555 307.094276 
L 143.925073 308.345654 
L 147.352591 309.635812 
L 150.78011 310.963542 
L 154.207628 312.327662 
L 157.635147 313.727022 
L 161.062665 315.160507 
L 164.490184 316.627031 
L 167.917702 318.125545 
L 171.34522 319.655033 
L 174.772739 321.214512 
L 178.200257 322.803037 
L 181.627776 324.419692 
L 185.055294 326.063598 
L 188.482812 327.733906 
L 191.910331 329.429802 
L 195.337849 331.1505 
L 198.765368 332.895246 
L 202.192886 334.663314 
L 205.620405 336.454008 
L 209.047923 338.266659 
L 212.475441 340.100623 
L 215.90296 341.955282 
L 219.330478 343.830043 
L 222.757997 345.724336 
L 226.185515 347.637615 
L 229.613034 349.569351 
L 233.040552 351.519041 
L 236.46807 353.486199 
L 239.895589 355.470358 
L 243.323107 357.47107 
L 246.750626 359.487902 
L 250.178144 361.520441 
L 253.605663 363.568287 
L 257.033181 365.631056 
L 260.460699 367.708378 
L 263.888218 369.799897 
L 267.315736 371.905271 
L 270.743255 374.02417 
L 274.170773 376.156274 
L 277.598292 378.301278 
L 281.02581 380.458885 
L 284.453328 382.62881 
L 287.880847 384.810777 
L 291.308365 387.004521 
L 294.735884 389.209785 
L 298.163402 391.42632 
L 301.590921 393.653888 
L 305.018439 395.892256 
L 308.445957 398.141201 
L 311.873476 400.400505 
L 315.300994 402.669959 
" clip-path="url(#p5b7b33f985)" style="fill: none; stroke-dasharray: 5.55,2.4; stroke-dashoffset: 0; stroke: #d62728; stroke-width: 1.5"/>
   </g>
   <g id="line2d_19">
    <path d="M 61.664631 291.874209 
L 65.092149 291.719268 
L 68.519668 291.263916 
L 71.947186 290.534248 
L 75.374704 289.567234 
L 78.802223 288.404194 
L 82.229741 287.085648 
L 85.65726 285.648283 
L 89.084778 284.123754 
L 92.512297 282.538645 
L 95.939815 280.914999 
L 99.367333 279.271042 
L 102.794852 277.621909 
L 106.22237 275.980262 
L 109.649889 274.356808 
L 113.077407 272.760703 
L 116.504926 271.199853 
L 119.932444 269.681154 
L 123.359962 268.210653 
L 126.787481 266.793679 
L 130.214999 265.434925 
L 133.642518 264.138509 
L 137.070036 262.908012 
L 140.497555 261.746511 
L 143.925073 260.656589 
L 147.352591 259.640353 
L 150.78011 258.699441 
L 154.207628 257.83504 
L 157.635147 257.047897 
L 161.062665 256.338339 
L 164.490184 255.706296 
L 167.917702 255.15133 
L 171.34522 254.672666 
L 174.772739 254.269228 
L 178.200257 253.939673 
L 181.627776 253.682434 
L 185.055294 253.495756 
L 188.482812 253.377732 
L 191.910331 253.326343 
L 195.337849 253.339485 
L 198.765368 253.415004 
L 202.192886 253.550722 
L 205.620405 253.744457 
L 209.047923 253.994046 
L 212.475441 254.29736 
L 215.90296 254.652316 
L 219.330478 255.056891 
L 222.757997 255.509127 
L 226.185515 256.007138 
L 229.613034 256.549111 
L 233.040552 257.133312 
L 236.46807 257.758087 
L 239.895589 258.421856 
L 243.323107 259.123118 
L 246.750626 259.860448 
L 250.178144 260.632492 
L 253.605663 261.437968 
L 257.033181 262.275658 
L 260.460699 263.144412 
L 263.888218 264.043139 
L 267.315736 264.970806 
L 270.743255 265.926435 
L 274.170773 266.9091 
L 277.598292 267.917924 
L 281.02581 268.952075 
L 284.453328 270.010765 
L 287.880847 271.093245 
L 291.308365 272.198807 
L 294.735884 273.326775 
L 298.163402 274.476509 
L 301.590921 275.647401 
L 305.018439 276.838869 
L 308.445957 278.050363 
L 311.873476 279.281356 
L 315.300994 280.531346 
" clip-path="url(#p5b7b33f985)" style="fill: none; stroke: #9467bd; stroke-width: 1.5; stroke-linecap: square"/>
   </g>
   <g id="line2d_20">
    <path d="M 61.664631 245.146417 
L 65.092149 245.124211 
L 68.519668 245.062129 
L 71.947186 244.966727 
L 75.374704 244.844185 
L 78.802223 244.700267 
L 82.229741 244.540314 
L 85.65726 244.369233 
L 89.084778 244.191518 
L 92.512297 244.011259 
L 95.939815 243.832173 
L 99.367333 243.657621 
L 102.794852 243.49064 
L 106.22237 243.333965 
L 109.649889 243.190055 
L 113.077407 243.061116 
L 116.504926 242.949123 
L 119.932444 242.855838 
L 123.359962 242.78283 
L 126.787481 242.731493 
L 130.214999 242.703057 
L 133.642518 242.698606 
L 137.070036 242.719088 
L 140.497555 242.765325 
L 143.925073 242.838029 
L 147.352591 242.937803 
L 150.78011 243.065157 
L 154.207628 243.220512 
L 157.635147 243.404207 
L 161.062665 243.616507 
L 164.490184 243.85761 
L 167.917702 244.12765 
L 171.34522 244.426703 
L 174.772739 244.754793 
L 178.200257 245.111897 
L 181.627776 245.497946 
L 185.055294 245.912834 
L 188.482812 246.356417 
L 191.910331 246.828519 
L 195.337849 247.328934 
L 198.765368 247.85743 
L 202.192886 248.413752 
L 205.620405 248.997623 
L 209.047923 249.60875 
L 212.475441 250.246822 
L 215.90296 250.911513 
L 219.330478 251.602488 
L 222.757997 252.319399 
L 226.185515 253.061892 
L 229.613034 253.829604 
L 233.040552 254.622167 
L 236.46807 255.439211 
L 239.895589 256.280361 
L 243.323107 257.14524 
L 246.750626 258.033471 
L 250.178144 258.944678 
L 253.605663 259.878483 
L 257.033181 260.834512 
L 260.460699 261.812393 
L 263.888218 262.811757 
L 267.315736 263.832237 
L 270.743255 264.873472 
L 274.170773 265.935102 
L 277.598292 267.016775 
L 281.02581 268.118143 
L 284.453328 269.238862 
L 287.880847 270.378593 
L 291.308365 271.537005 
L 294.735884 272.713771 
L 298.163402 273.90857 
L 301.590921 275.121086 
L 305.018439 276.35101 
L 308.445957 277.59804 
L 311.873476 278.861877 
L 315.300994 280.142232 
" clip-path="url(#p5b7b33f985)" style="fill: none; stroke-dasharray: 5.55,2.4; stroke-dashoffset: 0; stroke: #8c564b; stroke-width: 1.5"/>
   </g>
   <g id="line2d_21">
    <path d="M 61.664631 245.146417 
L 65.092149 245.121877 
L 68.519668 245.043497 
L 71.947186 244.904091 
L 75.374704 244.696546 
L 78.802223 244.414017 
L 82.229741 244.050162 
L 85.65726 243.599383 
L 89.084778 243.057067 
L 92.512297 242.419802 
L 95.939815 241.685547 
L 99.367333 240.853738 
L 102.794852 239.925311 
L 106.22237 238.902643 
L 109.649889 237.789431 
L 113.077407 236.5905 
L 116.504926 235.311584 
L 119.932444 233.959091 
L 123.359962 232.539879 
L 126.787481 231.061041 
L 130.214999 229.529736 
L 133.642518 227.953045 
L 137.070036 226.337864 
L 140.497555 224.690828 
L 143.925073 223.018262 
L 147.352591 221.326159 
L 150.78011 219.620163 
L 154.207628 217.90558 
L 157.635147 216.187378 
L 161.062665 214.470214 
L 164.490184 212.758444 
L 167.917702 211.056146 
L 171.34522 209.367139 
L 174.772739 207.695002 
L 178.200257 206.043087 
L 181.627776 204.414537 
L 185.055294 202.812295 
L 188.482812 201.239117 
L 191.910331 199.697579 
L 195.337849 198.19008 
L 198.765368 196.718852 
L 202.192886 195.285958 
L 205.620405 193.893296 
L 209.047923 192.542602 
L 212.475441 191.235445 
L 215.90296 189.973234 
L 219.330478 188.757214 
L 222.757997 187.588466 
L 226.185515 186.467911 
L 229.613034 185.39631 
L 233.040552 184.374266 
L 236.46807 183.402231 
L 239.895589 182.480502 
L 243.323107 181.609237 
L 246.750626 180.788455 
L 250.178144 180.018041 
L 253.605663 179.297762 
L 257.033181 178.627268 
L 260.460699 178.006106 
L 263.888218 177.433727 
L 267.315736 176.909496 
L 270.743255 176.432704 
L 274.170773 176.002575 
L 277.598292 175.618277 
L 281.02581 175.278931 
L 284.453328 174.983621 
L 287.880847 174.731398 
L 291.308365 174.521295 
L 294.735884 174.352325 
L 298.163402 174.223497 
L 301.590921 174.133814 
L 305.018439 174.082282 
L 308.445957 174.067914 
L 311.873476 174.089733 
L 315.300994 174.146778 
" clip-path="url(#p5b7b33f985)" style="fill: none; stroke: #e377c2; stroke-width: 1.5; stroke-linecap: square"/>
   </g>
   <g id="line2d_22">
    <path d="M 61.664631 179.727509 
L 65.092149 179.715054 
L 68.519668 179.677753 
L 71.947186 179.615805 
L 75.374704 179.529532 
L 78.802223 179.419385 
L 82.229741 179.285931 
L 85.65726 179.129851 
L 89.084778 178.951932 
L 92.512297 178.753056 
L 95.939815 178.534194 
L 99.367333 178.296394 
L 102.794852 178.040773 
L 106.22237 177.768506 
L 109.649889 177.480816 
L 113.077407 177.178964 
L 116.504926 176.86424 
L 119.932444 176.537957 
L 123.359962 176.201435 
L 126.787481 175.856004 
L 130.214999 175.502987 
L 133.642518 175.143699 
L 137.070036 174.779441 
L 140.497555 174.411494 
L 143.925073 174.041115 
L 147.352591 173.669532 
L 150.78011 173.297941 
L 154.207628 172.927508 
L 157.635147 172.55936 
L 161.062665 172.194585 
L 164.490184 171.834235 
L 167.917702 171.47932 
L 171.34522 171.13081 
L 174.772739 170.789634 
L 178.200257 170.456679 
L 181.627776 170.132791 
L 185.055294 169.818774 
L 188.482812 169.515395 
L 191.910331 169.223377 
L 195.337849 168.943405 
L 198.765368 168.676126 
L 202.192886 168.422149 
L 205.620405 168.182044 
L 209.047923 167.956347 
L 212.475441 167.745558 
L 215.90296 167.550144 
L 219.330478 167.370537 
L 222.757997 167.207138 
L 226.185515 167.060316 
L 229.613034 166.930412 
L 233.040552 166.817735 
L 236.46807 166.722569 
L 239.895589 166.645168 
L 243.323107 166.585763 
L 246.750626 166.544558 
L 250.178144 166.521734 
L 253.605663 166.51745 
L 257.033181 166.531841 
L 260.460699 166.565023 
L 263.888218 166.617091 
L 267.315736 166.688121 
L 270.743255 166.778172 
L 274.170773 166.887285 
L 277.598292 167.015484 
L 281.02581 167.162779 
L 284.453328 167.329164 
L 287.880847 167.514621 
L 291.308365 167.719117 
L 294.735884 167.942608 
L 298.163402 168.185038 
L 301.590921 168.446342 
L 305.018439 168.726442 
L 308.445957 169.025253 
L 311.873476 169.342681 
L 315.300994 169.678622 
" clip-path="url(#p5b7b33f985)" style="fill: none; stroke-dasharray: 5.55,2.4; stroke-dashoffset: 0; stroke: #7f7f7f; stroke-width: 1.5"/>
   </g>
   <g id="line2d_23">
    <path d="M 61.664631 179.727509 
L 65.092149 179.715041 
L 68.519668 179.677546 
L 71.947186 179.614756 
L 75.374704 179.526224 
L 78.802223 179.411327 
L 82.229741 179.269271 
L 85.65726 179.099095 
L 89.084778 178.899677 
L 92.512297 178.669744 
L 95.939815 178.407881 
L 99.367333 178.112541 
L 102.794852 177.782068 
L 106.22237 177.414709 
L 109.649889 177.008636 
L 113.077407 176.561974 
L 116.504926 176.072828 
L 119.932444 175.539313 
L 123.359962 174.959588 
L 126.787481 174.331894 
L 130.214999 173.654588 
L 133.642518 172.926186 
L 137.070036 172.145393 
L 140.497555 171.311145 
L 143.925073 170.422634 
L 147.352591 169.479341 
L 150.78011 168.481049 
L 154.207628 167.427864 
L 157.635147 166.320219 
L 161.062665 165.158869 
L 164.490184 163.944889 
L 167.917702 162.679656 
L 171.34522 161.364825 
L 174.772739 160.002308 
L 178.200257 158.59424 
L 181.627776 157.142951 
L 185.055294 155.650931 
L 188.482812 154.120797 
L 191.910331 152.555264 
L 195.337849 150.957112 
L 198.765368 149.329164 
L 202.192886 147.674258 
L 205.620405 145.995229 
L 209.047923 144.294888 
L 212.475441 142.576012 
L 215.90296 140.841328 
L 219.330478 139.093506 
L 222.757997 137.33515 
L 226.185515 135.568794 
L 229.613034 133.796901 
L 233.040552 132.021857 
L 236.46807 130.24597 
L 239.895589 128.471476 
L 243.323107 126.700531 
L 246.750626 124.935217 
L 250.178144 123.177543 
L 253.605663 121.429446 
L 257.033181 119.69279 
L 260.460699 117.969372 
L 263.888218 116.260916 
L 267.315736 114.569085 
L 270.743255 112.895469 
L 274.170773 111.241595 
L 277.598292 109.608926 
L 281.02581 107.998855 
L 284.453328 106.412714 
L 287.880847 104.851766 
L 291.308365 103.31721 
L 294.735884 101.810177 
L 298.163402 100.331731 
L 301.590921 98.882868 
L 305.018439 97.464515 
L 308.445957 96.077532 
L 311.873476 94.722706 
L 315.300994 93.400755 
" clip-path="url(#p5b7b33f985)" style="fill: none; stroke: #bcbd22; stroke-width: 1.5; stroke-linecap: square"/>
   </g>
   <g id="line2d_24">
    <path d="M 61.664631 95.617484 
L 65.092149 95.609695 
L 68.519668 95.586329 
L 71.947186 95.54738 
L 75.374704 95.492842 
L 78.802223 95.422714 
L 82.229741 95.336997 
L 85.65726 95.235699 
L 89.084778 95.118836 
L 92.512297 94.986437 
L 95.939815 94.83854 
L 99.367333 94.675202 
L 102.794852 94.496492 
L 106.22237 94.3025 
L 109.649889 94.093333 
L 113.077407 93.869118 
L 116.504926 93.630006 
L 119.932444 93.376168 
L 123.359962 93.107797 
L 126.787481 92.825113 
L 130.214999 92.528357 
L 133.642518 92.217794 
L 137.070036 91.893715 
L 140.497555 91.556431 
L 143.925073 91.20628 
L 147.352591 90.843622 
L 150.78011 90.468838 
L 154.207628 90.082332 
L 157.635147 89.684526 
L 161.062665 89.275864 
L 164.490184 88.856807 
L 167.917702 88.427834 
L 171.34522 87.989439 
L 174.772739 87.542132 
L 178.200257 87.086433 
L 181.627776 86.622877 
L 185.055294 86.152008 
L 188.482812 85.674379 
L 191.910331 85.19055 
L 195.337849 84.701087 
L 198.765368 84.206562 
L 202.192886 83.707548 
L 205.620405 83.204623 
L 209.047923 82.698363 
L 212.475441 82.189344 
L 215.90296 81.678142 
L 219.330478 81.165328 
L 222.757997 80.651471 
L 226.185515 80.137134 
L 229.613034 79.622874 
L 233.040552 79.109243 
L 236.46807 78.596784 
L 239.895589 78.086033 
L 243.323107 77.577516 
L 246.750626 77.071751 
L 250.178144 76.569244 
L 253.605663 76.070492 
L 257.033181 75.575982 
L 260.460699 75.086187 
L 263.888218 74.601571 
L 267.315736 74.122583 
L 270.743255 73.649663 
L 274.170773 73.183236 
L 277.598292 72.723716 
L 281.02581 72.271503 
L 284.453328 71.826984 
L 287.880847 71.390535 
L 291.308365 70.962517 
L 294.735884 70.543278 
L 298.163402 70.133154 
L 301.590921 69.732467 
L 305.018439 69.341528 
L 308.445957 68.960632 
L 311.873476 68.590064 
L 315.300994 68.230094 
" clip-path="url(#p5b7b33f985)" style="fill: none; stroke-dasharray: 5.55,2.4; stroke-dashoffset: 0; stroke: #17becf; stroke-width: 1.5"/>
   </g>
   <g id="line2d_25">
    <path d="M 61.664631 95.617484 
L 65.092149 95.609695 
L 68.519668 95.586328 
L 71.947186 95.54737 
L 75.374704 95.492801 
L 78.802223 95.422588 
L 82.229741 95.336683 
L 85.65726 95.235021 
L 89.084778 95.117517 
L 92.512297 94.984065 
L 95.939815 94.834533 
L 99.367333 94.668765 
L 102.794852 94.486576 
L 106.22237 94.287749 
L 109.649889 94.072037 
L 113.077407 93.839159 
L 116.504926 93.588798 
L 119.932444 93.320599 
L 123.359962 93.034173 
L 126.787481 92.729089 
L 130.214999 92.404876 
L 133.642518 92.061027 
L 137.070036 91.696992 
L 140.497555 91.312182 
L 143.925073 90.90597 
L 147.352591 90.47769 
L 150.78011 90.026643 
L 154.207628 89.552091 
L 157.635147 89.053271 
L 161.062665 88.529386 
L 164.490184 87.97962 
L 167.917702 87.403136 
L 171.34522 86.799081 
L 174.772739 86.166595 
L 178.200257 85.504819 
L 181.627776 84.812894 
L 185.055294 84.08998 
L 188.482812 83.335253 
L 191.910331 82.547924 
L 195.337849 81.72724 
L 198.765368 80.872498 
L 202.192886 79.983052 
L 205.620405 79.058322 
L 209.047923 78.097806 
L 212.475441 77.101084 
L 215.90296 76.067827 
L 219.330478 74.997807 
L 222.757997 73.890899 
L 226.185515 72.747087 
L 229.613034 71.566468 
L 233.040552 70.349255 
L 236.46807 69.095774 
L 239.895589 67.806469 
L 243.323107 66.481896 
L 246.750626 65.12272 
L 250.178144 63.729713 
L 253.605663 62.303747 
L 257.033181 60.845787 
L 260.460699 59.356887 
L 263.888218 57.838177 
L 267.315736 56.29086 
L 270.743255 54.716203 
L 274.170773 53.115525 
L 277.598292 51.490194 
L 281.02581 49.841615 
L 284.453328 48.171225 
L 287.880847 46.480483 
L 291.308365 44.770866 
L 294.735884 43.043861 
L 298.163402 41.300961 
L 301.590921 39.543658 
L 305.018439 37.773439 
L 308.445957 35.991781 
L 311.873476 34.200152 
L 315.300994 32.4 
" clip-path="url(#p5b7b33f985)" style="fill: none; stroke: #1f77b4; stroke-width: 1.5; stroke-linecap: square"/>
   </g>
   <g id="patch_3">
    <path d="M 48.982813 561.6 
L 48.982813 7.2 
" style="fill: none; stroke: #000000; stroke-width: 0.8; stroke-linejoin: miter; stroke-linecap: square"/>
   </g>
   <g id="patch_4">
    <path d="M 327.982813 561.6 
L 327.982813 7.2 
" style="fill: none; stroke: #000000; stroke-width: 0.8; stroke-linejoin: miter; stroke-linecap: square"/>
   </g>
   <g id="patch_5">
    <path d="M 48.982812 561.6 
L 327.982813 561.6 
" style="fill: none; stroke: #000000; stroke-width: 0.8; stroke-linejoin: miter; stroke-linecap: square"/>
   </g>
   <g id="patch_6">
    <path d="M 48.982812 7.2 
L 327.982813 7.2 
" style="fill: none; stroke: #000000; stroke-width: 0.8; stroke-linejoin: miter; stroke-linecap: square"/>
   </g>
  </g>
 </g>
 <defs>
  <clipPath id="p5b7b33f985">
   <rect x="48.982813" y="7.2" width="279" height="554.4"/>
  </clipPath>
 </defs>
</svg>