<?xml version="1.0" encoding="utf-8" standalone="no"?>
<!DOCTYPE svg PUBLIC "-//W3C//DTD SVG 1.1//EN"
  "http://www.w3.org/Graphics/SVG/1.1/DTD/svg11.dtd">
<svg xmlns:xlink="http://www.w3.org/1999/xlink" width="498.445312pt" height="489.71625pt" viewBox="0 0 498.445312 489.71625" xmlns="http://www.w3.org/2000/svg" version="1.1">
 <metadata>
  <rdf:RDF xmlns:dc="http://purl.org/dc/elements/1.1/" xmlns:cc="http://creativecommons.org/ns#" xmlns:rdf="http://www.w3.org/1999/02/22-rdf-syntax-ns#">
   <cc:Work>
    <dc:type rdf:resource="http://purl.org/dc/dcmitype/StillImage"/>
    <dc:date>2024-12-10T10:47:57.017838</dc:date>
    <dc:format>image/svg+xml</dc:format>
    <dc:creator>
     <cc:Agent>
      <dc:title>Matplotlib v3.9.2, https://matplotlib.org/</dc:title>
     </cc:Agent>
    </dc:creator>
   </cc:Work>
  </rdf:RDF>
 </metadata>
 <defs>
  <style type="text/css">*{stroke-linejoin: round; stroke-linecap: butt}</style>
 </defs>
 <g id="figure_1">
  <g id="patch_1">
   <path d="M 0 489.71625 
L 498.445312 489.71625 
L 498.445312 0 
L 0 0 
z
" style="fill: #ffffff"/>
  </g>
  <g id="axes_1">
   <g id="patch_2">
    <path d="M 44.845313 223.918125 
L 247.754403 223.918125 
L 247.754403 22.318125 
L 44.845313 22.318125 
z
" style="fill: #ffffff"/>
   </g>
   <g id="matplotlib.axis_1">
    <g id="xtick_1">
     <g id="line2d_1">
      <path d="M 50.203554 223.918125 
L 50.203554 22.318125 
" clip-path="url(#p97fbeb774e)" style="fill: none; stroke: #b0b0b0; stroke-width: 0.8; stroke-linecap: square"/>
     </g>
     <g id="line2d_2">
      <defs>
       <path id="mc8d999e45d" d="M 0 0 
L 0 3.5 
" style="stroke: #000000; stroke-width: 0.8"/>
      </defs>
      <g>
       <use xlink:href="#mc8d999e45d" x="50.203554" y="223.918125" style="stroke: #000000; stroke-width: 0.8"/>
      </g>
     </g>
     <g id="text_1">
      <!-- −2.0 -->
      <g transform="translate(38.062147 238.516562) scale(0.1 -0.1)">
       <defs>
        <path id="DejaVuSans-2212" d="M 678 2272 
L 4684 2272 
L 4684 1741 
L 678 1741 
L 678 2272 
z
" transform="scale(0.015625)"/>
        <path id="DejaVuSans-32" d="M 1228 531 
L 3431 531 
L 3431 0 
L 469 0 
L 469 531 
Q 828 903 1448 1529 
Q 2069 2156 2228 2338 
Q 2531 2678 2651 2914 
Q 2772 3150 2772 3378 
Q 2772 3750 2511 3984 
Q 2250 4219 1831 4219 
Q 1534 4219 1204 4116 
Q 875 4013 500 3803 
L 500 4441 
Q 881 4594 1212 4672 
Q 1544 4750 1819 4750 
Q 2544 4750 2975 4387 
Q 3406 4025 3406 3419 
Q 3406 3131 3298 2873 
Q 3191 2616 2906 2266 
Q 2828 2175 2409 1742 
Q 1991 1309 1228 531 
z
" transform="scale(0.015625)"/>
        <path id="DejaVuSans-2e" d="M 684 794 
L 1344 794 
L 1344 0 
L 684 0 
L 684 794 
z
" transform="scale(0.015625)"/>
        <path id="DejaVuSans-30" d="M 2034 4250 
Q 1547 4250 1301 3770 
Q 1056 3291 1056 2328 
Q 1056 1369 1301 889 
Q 1547 409 2034 409 
Q 2525 409 2770 889 
Q 3016 1369 3016 2328 
Q 3016 3291 2770 3770 
Q 2525 4250 2034 4250 
z
M 2034 4750 
Q 2819 4750 3233 4129 
Q 3647 3509 3647 2328 
Q 3647 1150 3233 529 
Q 2819 -91 2034 -91 
Q 1250 -91 836 529 
Q 422 1150 422 2328 
Q 422 3509 836 4129 
Q 1250 4750 2034 4750 
z
" transform="scale(0.015625)"/>
       </defs>
       <use xlink:href="#DejaVuSans-2212"/>
       <use xlink:href="#DejaVuSans-32" x="83.789062"/>
       <use xlink:href="#DejaVuSans-2e" x="147.412109"/>
       <use xlink:href="#DejaVuSans-30" x="179.199219"/>
      </g>
     </g>
    </g>
    <g id="xtick_2">
     <g id="line2d_3">
      <path d="M 96.021735 223.918125 
L 96.021735 22.318125 
" clip-path="url(#p97fbeb774e)" style="fill: none; stroke: #b0b0b0; stroke-width: 0.8; stroke-linecap: square"/>
     </g>
     <g id="line2d_4">
      <g>
       <use xlink:href="#mc8d999e45d" x="96.021735" y="223.918125" style="stroke: #000000; stroke-width: 0.8"/>
      </g>
     </g>
     <g id="text_2">
      <!-- −1.5 -->
      <g transform="translate(83.880329 238.516562) scale(0.1 -0.1)">
       <defs>
        <path id="DejaVuSans-31" d="M 794 531 
L 1825 531 
L 1825 4091 
L 703 3866 
L 703 4441 
L 1819 4666 
L 2450 4666 
L 2450 531 
L 3481 531 
L 3481 0 
L 794 0 
L 794 531 
z
" transform="scale(0.015625)"/>
        <path id="DejaVuSans-35" d="M 691 4666 
L 3169 4666 
L 3169 4134 
L 1269 4134 
L 1269 2991 
Q 1406 3038 1543 3061 
Q 1681 3084 1819 3084 
Q 2600 3084 3056 2656 
Q 3513 2228 3513 1497 
Q 3513 744 3044 326 
Q 2575 -91 1722 -91 
Q 1428 -91 1123 -41 
Q 819 9 494 109 
L 494 744 
Q 775 591 1075 516 
Q 1375 441 1709 441 
Q 2250 441 2565 725 
Q 2881 1009 2881 1497 
Q 2881 1984 2565 2268 
Q 2250 2553 1709 2553 
Q 1456 2553 1204 2497 
Q 953 2441 691 2322 
L 691 4666 
z
" transform="scale(0.015625)"/>
       </defs>
       <use xlink:href="#DejaVuSans-2212"/>
       <use xlink:href="#DejaVuSans-31" x="83.789062"/>
       <use xlink:href="#DejaVuSans-2e" x="147.412109"/>
       <use xlink:href="#DejaVuSans-35" x="179.199219"/>
      </g>
     </g>
    </g>
    <g id="xtick_3">
     <g id="line2d_5">
      <path d="M 141.839917 223.918125 
L 141.839917 22.318125 
" clip-path="url(#p97fbeb774e)" style="fill: none; stroke: #b0b0b0; stroke-width: 0.8; stroke-linecap: square"/>
     </g>
     <g id="line2d_6">
      <g>
       <use xlink:href="#mc8d999e45d" x="141.839917" y="223.918125" style="stroke: #000000; stroke-width: 0.8"/>
      </g>
     </g>
     <g id="text_3">
      <!-- −1.0 -->
      <g transform="translate(129.698511 238.516562) scale(0.1 -0.1)">
       <use xlink:href="#DejaVuSans-2212"/>
       <use xlink:href="#DejaVuSans-31" x="83.789062"/>
       <use xlink:href="#DejaVuSans-2e" x="147.412109"/>
       <use xlink:href="#DejaVuSans-30" x="179.199219"/>
      </g>
     </g>
    </g>
    <g id="xtick_4">
     <g id="line2d_7">
      <path d="M 187.658099 223.918125 
L 187.658099 22.318125 
" clip-path="url(#p97fbeb774e)" style="fill: none; stroke: #b0b0b0; stroke-width: 0.8; stroke-linecap: square"/>
     </g>
     <g id="line2d_8">
      <g>
       <use xlink:href="#mc8d999e45d" x="187.658099" y="223.918125" style="stroke: #000000; stroke-width: 0.8"/>
      </g>
     </g>
     <g id="text_4">
      <!-- −0.5 -->
      <g transform="translate(175.516693 238.516562) scale(0.1 -0.1)">
       <use xlink:href="#DejaVuSans-2212"/>
       <use xlink:href="#DejaVuSans-30" x="83.789062"/>
       <use xlink:href="#DejaVuSans-2e" x="147.412109"/>
       <use xlink:href="#DejaVuSans-35" x="179.199219"/>
      </g>
     </g>
    </g>
    <g id="xtick_5">
     <g id="line2d_9">
      <path d="M 233.476281 223.918125 
L 233.476281 22.318125 
" clip-path="url(#p97fbeb774e)" style="fill: none; stroke: #b0b0b0; stroke-width: 0.8; stroke-linecap: square"/>
     </g>
     <g id="line2d_10">
      <g>
       <use xlink:href="#mc8d999e45d" x="233.476281" y="223.918125" style="stroke: #000000; stroke-width: 0.8"/>
      </g>
     </g>
     <g id="text_5">
      <!-- 0.0 -->
      <g transform="translate(225.524718 238.516562) scale(0.1 -0.1)">
       <use xlink:href="#DejaVuSans-30"/>
       <use xlink:href="#DejaVuSans-2e" x="63.623047"/>
       <use xlink:href="#DejaVuSans-30" x="95.410156"/>
      </g>
     </g>
    </g>
   </g>
   <g id="matplotlib.axis_2">
    <g id="ytick_1">
     <g id="line2d_11">
      <path d="M 44.845313 214.754489 
L 247.754403 214.754489 
" clip-path="url(#p97fbeb774e)" style="fill: none; stroke: #b0b0b0; stroke-width: 0.8; stroke-linecap: square"/>
     </g>
     <g id="line2d_12">
      <defs>
       <path id="m6863764775" d="M 0 0 
L -3.5 0 
" style="stroke: #000000; stroke-width: 0.8"/>
      </defs>
      <g>
       <use xlink:href="#m6863764775" x="44.845313" y="214.754489" style="stroke: #000000; stroke-width: 0.8"/>
      </g>
     </g>
     <g id="text_6">
      <!-- −1.00 -->
      <g transform="translate(7.2 218.553707) scale(0.1 -0.1)">
       <use xlink:href="#DejaVuSans-2212"/>
       <use xlink:href="#DejaVuSans-31" x="83.789062"/>
       <use xlink:href="#DejaVuSans-2e" x="147.412109"/>
       <use xlink:href="#DejaVuSans-30" x="179.199219"/>
       <use xlink:href="#DejaVuSans-30" x="242.822266"/>
      </g>
     </g>
    </g>
    <g id="ytick_2">
     <g id="line2d_13">
      <path d="M 44.845313 191.845398 
L 247.754403 191.845398 
" clip-path="url(#p97fbeb774e)" style="fill: none; stroke: #b0b0b0; stroke-width: 0.8; stroke-linecap: square"/>
     </g>
     <g id="line2d_14">
      <g>
       <use xlink:href="#m6863764775" x="44.845313" y="191.845398" style="stroke: #000000; stroke-width: 0.8"/>
      </g>
     </g>
     <g id="text_7">
      <!-- −0.75 -->
      <g transform="translate(7.2 195.644616) scale(0.1 -0.1)">
       <defs>
        <path id="DejaVuSans-37" d="M 525 4666 
L 3525 4666 
L 3525 4397 
L 1831 0 
L 1172 0 
L 2766 4134 
L 525 4134 
L 525 4666 
z
" transform="scale(0.015625)"/>
       </defs>
       <use xlink:href="#DejaVuSans-2212"/>
       <use xlink:href="#DejaVuSans-30" x="83.789062"/>
       <use xlink:href="#DejaVuSans-2e" x="147.412109"/>
       <use xlink:href="#DejaVuSans-37" x="179.199219"/>
       <use xlink:href="#DejaVuSans-35" x="242.822266"/>
      </g>
     </g>
    </g>
    <g id="ytick_3">
     <g id="line2d_15">
      <path d="M 44.845313 168.936307 
L 247.754403 168.936307 
" clip-path="url(#p97fbeb774e)" style="fill: none; stroke: #b0b0b0; stroke-width: 0.8; stroke-linecap: square"/>
     </g>
     <g id="line2d_16">
      <g>
       <use xlink:href="#m6863764775" x="44.845313" y="168.936307" style="stroke: #000000; stroke-width: 0.8"/>
      </g>
     </g>
     <g id="text_8">
      <!-- −0.50 -->
      <g transform="translate(7.2 172.735526) scale(0.1 -0.1)">
       <use xlink:href="#DejaVuSans-2212"/>
       <use xlink:href="#DejaVuSans-30" x="83.789062"/>
       <use xlink:href="#DejaVuSans-2e" x="147.412109"/>
       <use xlink:href="#DejaVuSans-35" x="179.199219"/>
       <use xlink:href="#DejaVuSans-30" x="242.822266"/>
      </g>
     </g>
    </g>
    <g id="ytick_4">
     <g id="line2d_17">
      <path d="M 44.845313 146.027216 
L 247.754403 146.027216 
" clip-path="url(#p97fbeb774e)" style="fill: none; stroke: #b0b0b0; stroke-width: 0.8; stroke-linecap: square"/>
     </g>
     <g id="line2d_18">
      <g>
       <use xlink:href="#m6863764775" x="44.845313" y="146.027216" style="stroke: #000000; stroke-width: 0.8"/>
      </g>
     </g>
     <g id="text_9">
      <!-- −0.25 -->
      <g transform="translate(7.2 149.826435) scale(0.1 -0.1)">
       <use xlink:href="#DejaVuSans-2212"/>
       <use xlink:href="#DejaVuSans-30" x="83.789062"/>
       <use xlink:href="#DejaVuSans-2e" x="147.412109"/>
       <use xlink:href="#DejaVuSans-32" x="179.199219"/>
       <use xlink:href="#DejaVuSans-35" x="242.822266"/>
      </g>
     </g>
    </g>
    <g id="ytick_5">
     <g id="line2d_19">
      <path d="M 44.845313 123.118125 
L 247.754403 123.118125 
" clip-path="url(#p97fbeb774e)" style="fill: none; stroke: #b0b0b0; stroke-width: 0.8; stroke-linecap: square"/>
     </g>
     <g id="line2d_20">
      <g>
       <use xlink:href="#m6863764775" x="44.845313" y="123.118125" style="stroke: #000000; stroke-width: 0.8"/>
      </g>
     </g>
     <g id="text_10">
      <!-- 0.00 -->
      <g transform="translate(15.579688 126.917344) scale(0.1 -0.1)">
       <use xlink:href="#DejaVuSans-30"/>
       <use xlink:href="#DejaVuSans-2e" x="63.623047"/>
       <use xlink:href="#DejaVuSans-30" x="95.410156"/>
       <use xlink:href="#DejaVuSans-30" x="159.033203"/>
      </g>
     </g>
    </g>
    <g id="ytick_6">
     <g id="line2d_21">
      <path d="M 44.845313 100.209034 
L 247.754403 100.209034 
" clip-path="url(#p97fbeb774e)" style="fill: none; stroke: #b0b0b0; stroke-width: 0.8; stroke-linecap: square"/>
     </g>
     <g id="line2d_22">
      <g>
       <use xlink:href="#m6863764775" x="44.845313" y="100.209034" style="stroke: #000000; stroke-width: 0.8"/>
      </g>
     </g>
     <g id="text_11">
      <!-- 0.25 -->
      <g transform="translate(15.579688 104.008253) scale(0.1 -0.1)">
       <use xlink:href="#DejaVuSans-30"/>
       <use xlink:href="#DejaVuSans-2e" x="63.623047"/>
       <use xlink:href="#DejaVuSans-32" x="95.410156"/>
       <use xlink:href="#DejaVuSans-35" x="159.033203"/>
      </g>
     </g>
    </g>
    <g id="ytick_7">
     <g id="line2d_23">
      <path d="M 44.845313 77.299943 
L 247.754403 77.299943 
" clip-path="url(#p97fbeb774e)" style="fill: none; stroke: #b0b0b0; stroke-width: 0.8; stroke-linecap: square"/>
     </g>
     <g id="line2d_24">
      <g>
       <use xlink:href="#m6863764775" x="44.845313" y="77.299943" style="stroke: #000000; stroke-width: 0.8"/>
      </g>
     </g>
     <g id="text_12">
      <!-- 0.50 -->
      <g transform="translate(15.579688 81.099162) scale(0.1 -0.1)">
       <use xlink:href="#DejaVuSans-30"/>
       <use xlink:href="#DejaVuSans-2e" x="63.623047"/>
       <use xlink:href="#DejaVuSans-35" x="95.410156"/>
       <use xlink:href="#DejaVuSans-30" x="159.033203"/>
      </g>
     </g>
    </g>
    <g id="ytick_8">
     <g id="line2d_25">
      <path d="M 44.845313 54.390852 
L 247.754403 54.390852 
" clip-path="url(#p97fbeb774e)" style="fill: none; stroke: #b0b0b0; stroke-width: 0.8; stroke-linecap: square"/>
     </g>
     <g id="line2d_26">
      <g>
       <use xlink:href="#m6863764775" x="44.845313" y="54.390852" style="stroke: #000000; stroke-width: 0.8"/>
      </g>
     </g>
     <g id="text_13">
      <!-- 0.75 -->
      <g transform="translate(15.579688 58.190071) scale(0.1 -0.1)">
       <use xlink:href="#DejaVuSans-30"/>
       <use xlink:href="#DejaVuSans-2e" x="63.623047"/>
       <use xlink:href="#DejaVuSans-37" x="95.410156"/>
       <use xlink:href="#DejaVuSans-35" x="159.033203"/>
      </g>
     </g>
    </g>
    <g id="ytick_9">
     <g id="line2d_27">
      <path d="M 44.845313 31.481761 
L 247.754403 31.481761 
" clip-path="url(#p97fbeb774e)" style="fill: none; stroke: #b0b0b0; stroke-width: 0.8; stroke-linecap: square"/>
     </g>
     <g id="line2d_28">
      <g>
       <use xlink:href="#m6863764775" x="44.845313" y="31.481761" style="stroke: #000000; stroke-width: 0.8"/>
      </g>
     </g>
     <g id="text_14">
      <!-- 1.00 -->
      <g transform="translate(15.579688 35.28098) scale(0.1 -0.1)">
       <use xlink:href="#DejaVuSans-31"/>
       <use xlink:href="#DejaVuSans-2e" x="63.623047"/>
       <use xlink:href="#DejaVuSans-30" x="95.410156"/>
       <use xlink:href="#DejaVuSans-30" x="159.033203"/>
      </g>
     </g>
    </g>
   </g>
   <g id="line2d_29">
    <path d="M 233.476281 123.118125 
L 233.295457 117.36423 
L 232.753701 111.633043 
L 231.853149 105.947183 
L 230.597356 100.329088 
L 228.991278 94.800931 
L 227.041253 89.38453 
L 224.754978 84.101259 
L 222.141475 78.97197 
L 219.211058 74.016906 
L 215.975293 69.255622 
L 212.446949 64.706908 
L 208.639951 60.388717 
L 204.569325 56.318091 
L 200.251134 52.511093 
L 195.70242 48.98275 
L 190.941136 45.746984 
L 185.986072 42.816567 
L 180.856783 40.203064 
L 175.573513 37.916789 
L 170.157111 35.966764 
L 164.628954 34.360686 
L 159.010859 33.104893 
L 153.324999 32.204341 
L 147.593812 31.662585 
L 141.839917 31.481761 
L 136.086022 31.662585 
L 130.354835 32.204341 
L 124.668975 33.104893 
L 119.05088 34.360686 
L 113.522724 35.966764 
L 108.106322 37.916789 
L 102.823051 40.203064 
L 97.693762 42.816567 
L 92.738698 45.746984 
L 87.977414 48.98275 
L 83.428701 52.511093 
L 79.11051 56.318091 
L 75.039883 60.388717 
L 71.232886 64.706908 
L 67.704542 69.255622 
L 64.468776 74.016906 
L 61.53836 78.97197 
L 58.924856 84.101259 
L 56.638581 89.38453 
L 54.688556 94.800931 
L 53.082478 100.329088 
L 51.826686 105.947183 
L 50.926134 111.633043 
L 50.384377 117.36423 
L 50.203554 123.118125 
L 50.384377 128.87202 
L 50.926134 134.603207 
L 51.826686 140.289067 
L 53.082478 145.907162 
L 54.688556 151.435319 
L 56.638581 156.85172 
L 58.924856 162.134991 
L 61.53836 167.26428 
L 64.468776 172.219344 
L 67.704542 176.980628 
L 71.232886 181.529342 
L 75.039883 185.847533 
L 79.11051 189.918159 
L 83.428701 193.725157 
L 87.977414 197.2535 
L 92.738698 200.489266 
L 97.693762 203.419683 
L 102.823051 206.033186 
L 108.106322 208.319461 
L 113.522724 210.269486 
L 119.05088 211.875564 
L 124.668975 213.131357 
L 130.354835 214.031909 
L 136.086022 214.573665 
L 141.839917 214.754489 
L 147.593812 214.573665 
L 153.324999 214.031909 
L 159.010859 213.131357 
L 164.628954 211.875564 
L 170.157111 210.269486 
L 175.573513 208.319461 
L 180.856783 206.033186 
L 185.986072 203.419683 
L 190.941136 200.489266 
L 195.70242 197.2535 
L 200.251134 193.725157 
L 204.569325 189.918159 
L 208.639951 185.847533 
L 212.446949 181.529342 
L 215.975293 176.980628 
L 219.211058 172.219344 
L 222.141475 167.26428 
L 224.754978 162.134991 
L 227.041253 156.85172 
L 228.991278 151.435319 
L 230.597356 145.907162 
L 231.853149 140.289067 
L 232.753701 134.603207 
L 233.295457 128.87202 
L 233.476281 123.118125 
L 233.476281 123.118125 
" clip-path="url(#p97fbeb774e)" style="fill: none; stroke: #1f77b4; stroke-width: 1.5; stroke-linecap: square"/>
   </g>
   <g id="line2d_30">
    <path d="M 233.476281 123.118125 
L 233.389905 100.670957 
L 233.182092 92.920226 
L 232.749941 85.725989 
L 232.293664 81.274965 
L 231.675971 77.11526 
L 230.878179 73.253689 
L 229.886157 69.692885 
L 228.690501 66.432467 
L 227.286415 63.470059 
L 225.673365 60.802114 
L 223.854623 58.424533 
L 221.836746 56.333101 
L 219.629061 54.523753 
L 217.243164 52.992714 
L 214.692479 51.736552 
L 211.991862 50.752147 
L 209.157268 50.036627 
L 206.205458 49.587274 
L 203.153764 49.401413 
L 200.019889 49.476304 
L 196.821735 49.809034 
L 193.577271 50.396417 
L 190.304407 51.234905 
L 187.020898 52.320511 
L 183.744256 53.648743 
L 180.49167 55.214551 
L 177.279944 57.012284 
L 174.125431 59.035662 
L 171.043977 61.277748 
L 168.050873 63.730945 
L 165.160799 66.386988 
L 162.387785 69.236947 
L 159.745168 72.271242 
L 157.245545 75.479659 
L 154.900744 78.851375 
L 152.721781 82.374986 
L 150.718832 86.038537 
L 148.901199 89.829565 
L 147.277282 93.735139 
L 145.854558 97.741898 
L 144.63955 101.836109 
L 143.637815 106.003707 
L 142.853922 110.23035 
L 142.29144 114.501475 
L 141.952926 118.802349 
L 141.839917 123.118125 
L 141.952926 127.433901 
L 142.29144 131.734775 
L 142.853922 136.0059 
L 143.637815 140.232543 
L 144.63955 144.400141 
L 145.854558 148.494352 
L 147.277282 152.501111 
L 148.901199 156.406685 
L 150.718832 160.197713 
L 152.721781 163.861264 
L 154.900744 167.384875 
L 157.245545 170.756591 
L 159.745168 173.965008 
L 162.387785 176.999303 
L 165.160799 179.849262 
L 168.050873 182.505305 
L 171.043977 184.958502 
L 174.125431 187.200588 
L 177.279944 189.223966 
L 180.49167 191.021699 
L 183.744256 192.587507 
L 187.020898 193.915739 
L 190.304407 195.001345 
L 193.577271 195.839833 
L 196.821735 196.427216 
L 200.019889 196.759946 
L 203.153764 196.834837 
L 206.205458 196.648976 
L 209.157268 196.199623 
L 211.991862 195.484103 
L 214.692479 194.499698 
L 217.243164 193.243536 
L 219.629061 191.712497 
L 221.836746 189.903149 
L 223.854623 187.811717 
L 225.673365 185.434136 
L 227.286415 182.766191 
L 228.690501 179.803783 
L 229.886157 176.543365 
L 230.878179 172.982561 
L 231.675971 169.12099 
L 232.293664 164.961285 
L 232.749941 160.510261 
L 233.182092 153.316024 
L 233.389905 145.565293 
L 233.474488 131.722859 
L 233.476281 123.118125 
L 233.476281 123.118125 
" clip-path="url(#p97fbeb774e)" style="fill: none; stroke: #ff7f0e; stroke-width: 1.5; stroke-linecap: square"/>
   </g>
   <g id="line2d_31">
    <path d="M 233.476281 123.118125 
L 233.554039 102.985202 
L 233.7878 94.442403 
L 234.098707 88.851207 
L 234.575301 83.412413 
L 235.240448 78.205358 
L 236.09631 73.322658 
L 237.117602 68.861539 
L 238.249007 64.911793 
L 239.408614 61.54279 
L 240.983071 57.652551 
L 242.266658 54.56439 
L 242.396162 53.802435 
L 242.315416 53.585496 
L 242.135552 53.46528 
L 241.480918 53.47898 
L 240.448835 53.777401 
L 237.384266 55.022539 
L 232.108586 57.461307 
L 227.138568 59.9677 
L 221.813582 62.932159 
L 217.727922 65.458628 
L 213.654324 68.250509 
L 209.661645 71.311231 
L 205.809181 74.640712 
L 203.344466 77.007683 
L 200.97867 79.489797 
L 198.724229 82.083717 
L 196.59252 84.785242 
L 194.593931 87.589344 
L 192.737923 90.490226 
L 191.033071 93.48138 
L 189.487091 96.555643 
L 188.106861 99.705264 
L 186.898437 102.92197 
L 185.867061 106.197028 
L 185.017165 109.521312 
L 184.352375 112.88537 
L 183.87551 116.279487 
L 183.588586 119.693753 
L 183.49281 123.118125 
L 183.588586 126.542497 
L 183.87551 129.956763 
L 184.352375 133.35088 
L 185.017165 136.714938 
L 185.867061 140.039222 
L 186.898437 143.31428 
L 188.106861 146.530986 
L 189.487091 149.680607 
L 191.033071 152.75487 
L 192.737923 155.746024 
L 194.593931 158.646906 
L 196.59252 161.451008 
L 198.724229 164.152533 
L 200.97867 166.746453 
L 203.344466 169.228567 
L 207.074434 172.735048 
L 210.979711 175.97521 
L 215.006383 178.94613 
L 219.092184 181.649026 
L 223.164603 184.088156 
L 228.424519 186.938355 
L 234.373767 189.849883 
L 239.070174 191.930307 
L 241.01039 192.639944 
L 241.856861 192.803602 
L 242.315416 192.650754 
L 242.396162 192.433815 
L 242.266658 191.67186 
L 241.413114 189.5711 
L 239.408614 184.69346 
L 238.249007 181.324457 
L 237.117602 177.374711 
L 236.09631 172.913592 
L 235.240448 168.030892 
L 234.575301 162.823837 
L 234.098707 157.385043 
L 233.7878 151.793847 
L 233.554039 143.251048 
L 233.476815 128.875772 
L 233.476281 123.118125 
L 233.476281 123.118125 
" clip-path="url(#p97fbeb774e)" style="fill: none; stroke: #2ca02c; stroke-width: 1.5; stroke-linecap: square"/>
   </g>
   <g id="patch_3">
    <path d="M 44.845313 223.918125 
L 44.845313 22.318125 
" style="fill: none; stroke: #000000; stroke-width: 0.8; stroke-linejoin: miter; stroke-linecap: square"/>
   </g>
   <g id="patch_4">
    <path d="M 247.754403 223.918125 
L 247.754403 22.318125 
" style="fill: none; stroke: #000000; stroke-width: 0.8; stroke-linejoin: miter; stroke-linecap: square"/>
   </g>
   <g id="patch_5">
    <path d="M 44.845313 223.918125 
L 247.754403 223.918125 
" style="fill: none; stroke: #000000; stroke-width: 0.8; stroke-linejoin: miter; stroke-linecap: square"/>
   </g>
   <g id="patch_6">
    <path d="M 44.845313 22.318125 
L 247.754403 22.318125 
" style="fill: none; stroke: #000000; stroke-width: 0.8; stroke-linejoin: miter; stroke-linecap: square"/>
   </g>
   <g id="text_15">
    <!-- Adams-Bashforth -->
    <g transform="translate(94.771108 16.318125) scale(0.12 -0.12)">
     <defs>
      <path id="DejaVuSans-41" d="M 2188 4044 
L 1331 1722 
L 3047 1722 
L 2188 4044 
z
M 1831 4666 
L 2547 4666 
L 4325 0 
L 3669 0 
L 3244 1197 
L 1141 1197 
L 716 0 
L 50 0 
L 1831 4666 
z
" transform="scale(0.015625)"/>
      <path id="DejaVuSans-64" d="M 2906 2969 
L 2906 4863 
L 3481 4863 
L 3481 0 
L 2906 0 
L 2906 525 
Q 2725 213 2448 61 
Q 2172 -91 1784 -91 
Q 1150 -91 751 415 
Q 353 922 353 1747 
Q 353 2572 751 3078 
Q 1150 3584 1784 3584 
Q 2172 3584 2448 3432 
Q 2725 3281 2906 2969 
z
M 947 1747 
Q 947 1113 1208 752 
Q 1469 391 1925 391 
Q 2381 391 2643 752 
Q 2906 1113 2906 1747 
Q 2906 2381 2643 2742 
Q 2381 3103 1925 3103 
Q 1469 3103 1208 2742 
Q 947 2381 947 1747 
z
" transform="scale(0.015625)"/>
      <path id="DejaVuSans-61" d="M 2194 1759 
Q 1497 1759 1228 1600 
Q 959 1441 959 1056 
Q 959 750 1161 570 
Q 1363 391 1709 391 
Q 2188 391 2477 730 
Q 2766 1069 2766 1631 
L 2766 1759 
L 2194 1759 
z
M 3341 1997 
L 3341 0 
L 2766 0 
L 2766 531 
Q 2569 213 2275 61 
Q 1981 -91 1556 -91 
Q 1019 -91 701 211 
Q 384 513 384 1019 
Q 384 1609 779 1909 
Q 1175 2209 1959 2209 
L 2766 2209 
L 2766 2266 
Q 2766 2663 2505 2880 
Q 2244 3097 1772 3097 
Q 1472 3097 1187 3025 
Q 903 2953 641 2809 
L 641 3341 
Q 956 3463 1253 3523 
Q 1550 3584 1831 3584 
Q 2591 3584 2966 3190 
Q 3341 2797 3341 1997 
z
" transform="scale(0.015625)"/>
      <path id="DejaVuSans-6d" d="M 3328 2828 
Q 3544 3216 3844 3400 
Q 4144 3584 4550 3584 
Q 5097 3584 5394 3201 
Q 5691 2819 5691 2113 
L 5691 0 
L 5113 0 
L 5113 2094 
Q 5113 2597 4934 2840 
Q 4756 3084 4391 3084 
Q 3944 3084 3684 2787 
Q 3425 2491 3425 1978 
L 3425 0 
L 2847 0 
L 2847 2094 
Q 2847 2600 2669 2842 
Q 2491 3084 2119 3084 
Q 1678 3084 1418 2786 
Q 1159 2488 1159 1978 
L 1159 0 
L 581 0 
L 581 3500 
L 1159 3500 
L 1159 2956 
Q 1356 3278 1631 3431 
Q 1906 3584 2284 3584 
Q 2666 3584 2933 3390 
Q 3200 3197 3328 2828 
z
" transform="scale(0.015625)"/>
      <path id="DejaVuSans-73" d="M 2834 3397 
L 2834 2853 
Q 2591 2978 2328 3040 
Q 2066 3103 1784 3103 
Q 1356 3103 1142 2972 
Q 928 2841 928 2578 
Q 928 2378 1081 2264 
Q 1234 2150 1697 2047 
L 1894 2003 
Q 2506 1872 2764 1633 
Q 3022 1394 3022 966 
Q 3022 478 2636 193 
Q 2250 -91 1575 -91 
Q 1294 -91 989 -36 
Q 684 19 347 128 
L 347 722 
Q 666 556 975 473 
Q 1284 391 1588 391 
Q 1994 391 2212 530 
Q 2431 669 2431 922 
Q 2431 1156 2273 1281 
Q 2116 1406 1581 1522 
L 1381 1569 
Q 847 1681 609 1914 
Q 372 2147 372 2553 
Q 372 3047 722 3315 
Q 1072 3584 1716 3584 
Q 2034 3584 2315 3537 
Q 2597 3491 2834 3397 
z
" transform="scale(0.015625)"/>
      <path id="DejaVuSans-2d" d="M 313 2009 
L 1997 2009 
L 1997 1497 
L 313 1497 
L 313 2009 
z
" transform="scale(0.015625)"/>
      <path id="DejaVuSans-42" d="M 1259 2228 
L 1259 519 
L 2272 519 
Q 2781 519 3026 730 
Q 3272 941 3272 1375 
Q 3272 1813 3026 2020 
Q 2781 2228 2272 2228 
L 1259 2228 
z
M 1259 4147 
L 1259 2741 
L 2194 2741 
Q 2656 2741 2882 2914 
Q 3109 3088 3109 3444 
Q 3109 3797 2882 3972 
Q 2656 4147 2194 4147 
L 1259 4147 
z
M 628 4666 
L 2241 4666 
Q 2963 4666 3353 4366 
Q 3744 4066 3744 3513 
Q 3744 3084 3544 2831 
Q 3344 2578 2956 2516 
Q 3422 2416 3680 2098 
Q 3938 1781 3938 1306 
Q 3938 681 3513 340 
Q 3088 0 2303 0 
L 628 0 
L 628 4666 
z
" transform="scale(0.015625)"/>
      <path id="DejaVuSans-68" d="M 3513 2113 
L 3513 0 
L 2938 0 
L 2938 2094 
Q 2938 2591 2744 2837 
Q 2550 3084 2163 3084 
Q 1697 3084 1428 2787 
Q 1159 2491 1159 1978 
L 1159 0 
L 581 0 
L 581 4863 
L 1159 4863 
L 1159 2956 
Q 1366 3272 1645 3428 
Q 1925 3584 2291 3584 
Q 2894 3584 3203 3211 
Q 3513 2838 3513 2113 
z
" transform="scale(0.015625)"/>
      <path id="DejaVuSans-66" d="M 2375 4863 
L 2375 4384 
L 1825 4384 
Q 1516 4384 1395 4259 
Q 1275 4134 1275 3809 
L 1275 3500 
L 2222 3500 
L 2222 3053 
L 1275 3053 
L 1275 0 
L 697 0 
L 697 3053 
L 147 3053 
L 147 3500 
L 697 3500 
L 697 3744 
Q 697 4328 969 4595 
Q 1241 4863 1831 4863 
L 2375 4863 
z
" transform="scale(0.015625)"/>
      <path id="DejaVuSans-6f" d="M 1959 3097 
Q 1497 3097 1228 2736 
Q 959 2375 959 1747 
Q 959 1119 1226 758 
Q 1494 397 1959 397 
Q 2419 397 2687 759 
Q 2956 1122 2956 1747 
Q 2956 2369 2687 2733 
Q 2419 3097 1959 3097 
z
M 1959 3584 
Q 2709 3584 3137 3096 
Q 3566 2609 3566 1747 
Q 3566 888 3137 398 
Q 2709 -91 1959 -91 
Q 1206 -91 779 398 
Q 353 888 353 1747 
Q 353 2609 779 3096 
Q 1206 3584 1959 3584 
z
" transform="scale(0.015625)"/>
      <path id="DejaVuSans-72" d="M 2631 2963 
Q 2534 3019 2420 3045 
Q 2306 3072 2169 3072 
Q 1681 3072 1420 2755 
Q 1159 2438 1159 1844 
L 1159 0 
L 581 0 
L 581 3500 
L 1159 3500 
L 1159 2956 
Q 1341 3275 1631 3429 
Q 1922 3584 2338 3584 
Q 2397 3584 2469 3576 
Q 2541 3569 2628 3553 
L 2631 2963 
z
" transform="scale(0.015625)"/>
      <path id="DejaVuSans-74" d="M 1172 4494 
L 1172 3500 
L 2356 3500 
L 2356 3053 
L 1172 3053 
L 1172 1153 
Q 1172 725 1289 603 
Q 1406 481 1766 481 
L 2356 481 
L 2356 0 
L 1766 0 
Q 1100 0 847 248 
Q 594 497 594 1153 
L 594 3053 
L 172 3053 
L 172 3500 
L 594 3500 
L 594 4494 
L 1172 4494 
z
" transform="scale(0.015625)"/>
     </defs>
     <use xlink:href="#DejaVuSans-41"/>
     <use xlink:href="#DejaVuSans-64" x="66.658203"/>
     <use xlink:href="#DejaVuSans-61" x="130.134766"/>
     <use xlink:href="#DejaVuSans-6d" x="191.414062"/>
     <use xlink:href="#DejaVuSans-73" x="288.826172"/>
     <use xlink:href="#DejaVuSans-2d" x="340.925781"/>
     <use xlink:href="#DejaVuSans-42" x="373.384766"/>
     <use xlink:href="#DejaVuSans-61" x="441.988281"/>
     <use xlink:href="#DejaVuSans-73" x="503.267578"/>
     <use xlink:href="#DejaVuSans-68" x="555.367188"/>
     <use xlink:href="#DejaVuSans-66" x="618.746094"/>
     <use xlink:href="#DejaVuSans-6f" x="653.951172"/>
     <use xlink:href="#DejaVuSans-72" x="715.132812"/>
     <use xlink:href="#DejaVuSans-74" x="756.246094"/>
     <use xlink:href="#DejaVuSans-68" x="795.455078"/>
    </g>
   </g>
  </g>
  <g id="axes_2">
   <g id="patch_7">
    <path d="M 288.336222 223.918125 
L 491.245312 223.918125 
L 491.245312 22.318125 
L 288.336222 22.318125 
z
" style="fill: #ffffff"/>
   </g>
   <g id="matplotlib.axis_3">
    <g id="xtick_6">
     <g id="line2d_32">
      <path d="M 302.41258 223.918125 
L 302.41258 22.318125 
" clip-path="url(#pf83e7a0da1)" style="fill: none; stroke: #b0b0b0; stroke-width: 0.8; stroke-linecap: square"/>
     </g>
     <g id="line2d_33">
      <g>
       <use xlink:href="#mc8d999e45d" x="302.41258" y="223.918125" style="stroke: #000000; stroke-width: 0.8"/>
      </g>
     </g>
     <g id="text_16">
      <!-- −6 -->
      <g transform="translate(295.041487 238.516562) scale(0.1 -0.1)">
       <defs>
        <path id="DejaVuSans-36" d="M 2113 2584 
Q 1688 2584 1439 2293 
Q 1191 2003 1191 1497 
Q 1191 994 1439 701 
Q 1688 409 2113 409 
Q 2538 409 2786 701 
Q 3034 994 3034 1497 
Q 3034 2003 2786 2293 
Q 2538 2584 2113 2584 
z
M 3366 4563 
L 3366 3988 
Q 3128 4100 2886 4159 
Q 2644 4219 2406 4219 
Q 1781 4219 1451 3797 
Q 1122 3375 1075 2522 
Q 1259 2794 1537 2939 
Q 1816 3084 2150 3084 
Q 2853 3084 3261 2657 
Q 3669 2231 3669 1497 
Q 3669 778 3244 343 
Q 2819 -91 2113 -91 
Q 1303 -91 875 529 
Q 447 1150 447 2328 
Q 447 3434 972 4092 
Q 1497 4750 2381 4750 
Q 2619 4750 2861 4703 
Q 3103 4656 3366 4563 
z
" transform="scale(0.015625)"/>
       </defs>
       <use xlink:href="#DejaVuSans-2212"/>
       <use xlink:href="#DejaVuSans-36" x="83.789062"/>
      </g>
     </g>
    </g>
    <g id="xtick_7">
     <g id="line2d_34">
      <path d="M 359.845898 223.918125 
L 359.845898 22.318125 
" clip-path="url(#pf83e7a0da1)" style="fill: none; stroke: #b0b0b0; stroke-width: 0.8; stroke-linecap: square"/>
     </g>
     <g id="line2d_35">
      <g>
       <use xlink:href="#mc8d999e45d" x="359.845898" y="223.918125" style="stroke: #000000; stroke-width: 0.8"/>
      </g>
     </g>
     <g id="text_17">
      <!-- −4 -->
      <g transform="translate(352.474804 238.516562) scale(0.1 -0.1)">
       <defs>
        <path id="DejaVuSans-34" d="M 2419 4116 
L 825 1625 
L 2419 1625 
L 2419 4116 
z
M 2253 4666 
L 3047 4666 
L 3047 1625 
L 3713 1625 
L 3713 1100 
L 3047 1100 
L 3047 0 
L 2419 0 
L 2419 1100 
L 313 1100 
L 313 1709 
L 2253 4666 
z
" transform="scale(0.015625)"/>
       </defs>
       <use xlink:href="#DejaVuSans-2212"/>
       <use xlink:href="#DejaVuSans-34" x="83.789062"/>
      </g>
     </g>
    </g>
    <g id="xtick_8">
     <g id="line2d_36">
      <path d="M 417.279216 223.918125 
L 417.279216 22.318125 
" clip-path="url(#pf83e7a0da1)" style="fill: none; stroke: #b0b0b0; stroke-width: 0.8; stroke-linecap: square"/>
     </g>
     <g id="line2d_37">
      <g>
       <use xlink:href="#mc8d999e45d" x="417.279216" y="223.918125" style="stroke: #000000; stroke-width: 0.8"/>
      </g>
     </g>
     <g id="text_18">
      <!-- −2 -->
      <g transform="translate(409.908122 238.516562) scale(0.1 -0.1)">
       <use xlink:href="#DejaVuSans-2212"/>
       <use xlink:href="#DejaVuSans-32" x="83.789062"/>
      </g>
     </g>
    </g>
    <g id="xtick_9">
     <g id="line2d_38">
      <path d="M 474.712534 223.918125 
L 474.712534 22.318125 
" clip-path="url(#pf83e7a0da1)" style="fill: none; stroke: #b0b0b0; stroke-width: 0.8; stroke-linecap: square"/>
     </g>
     <g id="line2d_39">
      <g>
       <use xlink:href="#mc8d999e45d" x="474.712534" y="223.918125" style="stroke: #000000; stroke-width: 0.8"/>
      </g>
     </g>
     <g id="text_19">
      <!-- 0 -->
      <g transform="translate(471.531284 238.516562) scale(0.1 -0.1)">
       <use xlink:href="#DejaVuSans-30"/>
      </g>
     </g>
    </g>
   </g>
   <g id="matplotlib.axis_4">
    <g id="ytick_10">
     <g id="line2d_40">
      <path d="M 288.336222 209.268102 
L 491.245312 209.268102 
" clip-path="url(#pf83e7a0da1)" style="fill: none; stroke: #b0b0b0; stroke-width: 0.8; stroke-linecap: square"/>
     </g>
     <g id="line2d_41">
      <g>
       <use xlink:href="#m6863764775" x="288.336222" y="209.268102" style="stroke: #000000; stroke-width: 0.8"/>
      </g>
     </g>
     <g id="text_20">
      <!-- −3 -->
      <g transform="translate(266.594034 213.06732) scale(0.1 -0.1)">
       <defs>
        <path id="DejaVuSans-33" d="M 2597 2516 
Q 3050 2419 3304 2112 
Q 3559 1806 3559 1356 
Q 3559 666 3084 287 
Q 2609 -91 1734 -91 
Q 1441 -91 1130 -33 
Q 819 25 488 141 
L 488 750 
Q 750 597 1062 519 
Q 1375 441 1716 441 
Q 2309 441 2620 675 
Q 2931 909 2931 1356 
Q 2931 1769 2642 2001 
Q 2353 2234 1838 2234 
L 1294 2234 
L 1294 2753 
L 1863 2753 
Q 2328 2753 2575 2939 
Q 2822 3125 2822 3475 
Q 2822 3834 2567 4026 
Q 2313 4219 1838 4219 
Q 1578 4219 1281 4162 
Q 984 4106 628 3988 
L 628 4550 
Q 988 4650 1302 4700 
Q 1616 4750 1894 4750 
Q 2613 4750 3031 4423 
Q 3450 4097 3450 3541 
Q 3450 3153 3228 2886 
Q 3006 2619 2597 2516 
z
" transform="scale(0.015625)"/>
       </defs>
       <use xlink:href="#DejaVuSans-2212"/>
       <use xlink:href="#DejaVuSans-33" x="83.789062"/>
      </g>
     </g>
    </g>
    <g id="ytick_11">
     <g id="line2d_42">
      <path d="M 288.336222 180.551443 
L 491.245312 180.551443 
" clip-path="url(#pf83e7a0da1)" style="fill: none; stroke: #b0b0b0; stroke-width: 0.8; stroke-linecap: square"/>
     </g>
     <g id="line2d_43">
      <g>
       <use xlink:href="#m6863764775" x="288.336222" y="180.551443" style="stroke: #000000; stroke-width: 0.8"/>
      </g>
     </g>
     <g id="text_21">
      <!-- −2 -->
      <g transform="translate(266.594034 184.350661) scale(0.1 -0.1)">
       <use xlink:href="#DejaVuSans-2212"/>
       <use xlink:href="#DejaVuSans-32" x="83.789062"/>
      </g>
     </g>
    </g>
    <g id="ytick_12">
     <g id="line2d_44">
      <path d="M 288.336222 151.834784 
L 491.245312 151.834784 
" clip-path="url(#pf83e7a0da1)" style="fill: none; stroke: #b0b0b0; stroke-width: 0.8; stroke-linecap: square"/>
     </g>
     <g id="line2d_45">
      <g>
       <use xlink:href="#m6863764775" x="288.336222" y="151.834784" style="stroke: #000000; stroke-width: 0.8"/>
      </g>
     </g>
     <g id="text_22">
      <!-- −1 -->
      <g transform="translate(266.594034 155.634003) scale(0.1 -0.1)">
       <use xlink:href="#DejaVuSans-2212"/>
       <use xlink:href="#DejaVuSans-31" x="83.789062"/>
      </g>
     </g>
    </g>
    <g id="ytick_13">
     <g id="line2d_46">
      <path d="M 288.336222 123.118125 
L 491.245312 123.118125 
" clip-path="url(#pf83e7a0da1)" style="fill: none; stroke: #b0b0b0; stroke-width: 0.8; stroke-linecap: square"/>
     </g>
     <g id="line2d_47">
      <g>
       <use xlink:href="#m6863764775" x="288.336222" y="123.118125" style="stroke: #000000; stroke-width: 0.8"/>
      </g>
     </g>
     <g id="text_23">
      <!-- 0 -->
      <g transform="translate(274.973722 126.917344) scale(0.1 -0.1)">
       <use xlink:href="#DejaVuSans-30"/>
      </g>
     </g>
    </g>
    <g id="ytick_14">
     <g id="line2d_48">
      <path d="M 288.336222 94.401466 
L 491.245312 94.401466 
" clip-path="url(#pf83e7a0da1)" style="fill: none; stroke: #b0b0b0; stroke-width: 0.8; stroke-linecap: square"/>
     </g>
     <g id="line2d_49">
      <g>
       <use xlink:href="#m6863764775" x="288.336222" y="94.401466" style="stroke: #000000; stroke-width: 0.8"/>
      </g>
     </g>
     <g id="text_24">
      <!-- 1 -->
      <g transform="translate(274.973722 98.200685) scale(0.1 -0.1)">
       <use xlink:href="#DejaVuSans-31"/>
      </g>
     </g>
    </g>
    <g id="ytick_15">
     <g id="line2d_50">
      <path d="M 288.336222 65.684807 
L 491.245312 65.684807 
" clip-path="url(#pf83e7a0da1)" style="fill: none; stroke: #b0b0b0; stroke-width: 0.8; stroke-linecap: square"/>
     </g>
     <g id="line2d_51">
      <g>
       <use xlink:href="#m6863764775" x="288.336222" y="65.684807" style="stroke: #000000; stroke-width: 0.8"/>
      </g>
     </g>
     <g id="text_25">
      <!-- 2 -->
      <g transform="translate(274.973722 69.484026) scale(0.1 -0.1)">
       <use xlink:href="#DejaVuSans-32"/>
      </g>
     </g>
    </g>
    <g id="ytick_16">
     <g id="line2d_52">
      <path d="M 288.336222 36.968148 
L 491.245312 36.968148 
" clip-path="url(#pf83e7a0da1)" style="fill: none; stroke: #b0b0b0; stroke-width: 0.8; stroke-linecap: square"/>
     </g>
     <g id="line2d_53">
      <g>
       <use xlink:href="#m6863764775" x="288.336222" y="36.968148" style="stroke: #000000; stroke-width: 0.8"/>
      </g>
     </g>
     <g id="text_26">
      <!-- 3 -->
      <g transform="translate(274.973722 40.767367) scale(0.1 -0.1)">
       <use xlink:href="#DejaVuSans-33"/>
      </g>
     </g>
    </g>
   </g>
   <g id="line2d_54">
    <path d="M 474.712534 123.118125 
L 474.617249 107.763136 
L 474.340346 101.367825 
L 473.928477 96.710326 
L 473.408531 92.892829 
L 472.663864 88.958863 
L 471.631819 84.870119 
L 470.623111 81.676103 
L 469.369055 78.350963 
L 467.820535 74.874138 
L 465.916979 71.225134 
L 463.582803 67.384995 
L 461.741398 64.711078 
L 459.632531 61.942822 
L 457.215925 59.080073 
L 454.444174 56.126331 
L 451.261488 53.090449 
L 447.602336 49.98902 
L 443.390098 46.849718 
L 438.535929 43.715929 
L 435.836868 42.17048 
L 432.93826 40.653118 
L 429.825552 39.17688 
L 426.483626 37.757403 
L 422.896991 36.41334 
L 419.05006 35.166827 
L 414.927545 34.043995 
L 410.514993 33.075499 
L 405.799496 32.29707 
L 400.770623 31.750034 
L 395.421602 31.481761 
L 389.750789 31.545972 
L 383.763457 32.002804 
L 377.473902 32.918518 
L 370.907839 34.36468 
L 364.104993 36.416658 
L 357.121737 39.151227 
L 350.033497 42.643133 
L 342.936566 46.960502 
L 335.94884 52.159114 
L 329.208933 58.275763 
L 322.87313 65.321172 
L 317.109773 73.273218 
L 312.090976 82.071506 
L 307.982014 91.614419 
L 304.929266 101.7597 
L 303.048126 112.329248 
L 302.41258 123.118125 
L 303.048126 133.907002 
L 304.929266 144.47655 
L 307.982014 154.621831 
L 312.090976 164.164744 
L 317.109773 172.963032 
L 322.87313 180.915078 
L 329.208933 187.960487 
L 335.94884 194.077136 
L 342.936566 199.275748 
L 350.033497 203.593117 
L 357.121737 207.085023 
L 364.104993 209.819592 
L 370.907839 211.87157 
L 377.473902 213.317732 
L 383.763457 214.233446 
L 389.750789 214.690278 
L 395.421602 214.754489 
L 400.770623 214.486216 
L 405.799496 213.93918 
L 410.514993 213.160751 
L 414.927545 212.192255 
L 419.05006 211.069423 
L 422.896991 209.82291 
L 426.483626 208.478847 
L 429.825552 207.05937 
L 432.93826 205.583132 
L 435.836868 204.06577 
L 441.049305 200.957601 
L 445.570609 197.814425 
L 449.495984 194.689745 
L 452.908049 191.618414 
L 455.877718 188.622078 
L 458.465478 185.713107 
L 460.722762 182.897429 
L 462.693262 180.176538 
L 465.191014 176.269074 
L 467.228849 172.558329 
L 468.888326 169.02635 
L 470.234576 165.652952 
L 471.320197 162.417477 
L 472.435535 158.283451 
L 473.245666 154.314589 
L 473.816574 150.47127 
L 474.275403 145.792103 
L 474.564544 140.290697 
L 474.695631 133.044013 
L 474.712534 123.118125 
L 474.712534 123.118125 
" clip-path="url(#pf83e7a0da1)" style="fill: none; stroke: #1f77b4; stroke-width: 1.5; stroke-linecap: square"/>
   </g>
   <g id="line2d_55">
    <path d="M 474.712534 123.118125 
L 474.613955 101.613812 
L 474.361713 96.447139 
L 474.010146 93.106414 
L 473.429063 89.860143 
L 472.79197 87.489318 
L 471.938674 85.173025 
L 470.826765 82.911185 
L 469.410997 80.705829 
L 468.274612 79.269958 
L 466.966607 77.865662 
L 465.471082 76.498594 
L 463.771389 75.176904 
L 461.850163 73.911859 
L 459.689469 72.718542 
L 457.271071 71.616655 
L 454.576915 70.631409 
L 451.589894 69.794498 
L 448.294975 69.145112 
L 444.680817 68.730912 
L 440.741969 68.608829 
L 436.481773 68.845492 
L 431.916001 69.516952 
L 429.527909 70.041767 
L 427.077198 70.707316 
L 424.571346 71.524884 
L 422.019485 72.505773 
L 419.432537 73.661089 
L 416.823324 75.001475 
L 414.206655 76.53681 
L 411.599355 78.275864 
L 409.020245 80.225915 
L 406.490046 82.392348 
L 404.0312 84.778228 
L 401.667598 87.38389 
L 399.424207 90.206552 
L 397.326598 93.239975 
L 395.400384 96.474214 
L 393.67057 99.895461 
L 392.160856 103.486031 
L 390.892905 107.224491 
L 389.885634 111.085952 
L 389.154544 115.042522 
L 388.711153 119.063905 
L 388.562557 123.118125 
L 388.711153 127.172345 
L 389.154544 131.193728 
L 389.885634 135.150298 
L 390.892905 139.011759 
L 392.160856 142.750219 
L 393.67057 146.340789 
L 395.400384 149.762036 
L 397.326598 152.996275 
L 399.424207 156.029698 
L 401.667598 158.85236 
L 404.0312 161.458022 
L 406.490046 163.843902 
L 409.020245 166.010335 
L 411.599355 167.960386 
L 414.206655 169.69944 
L 416.823324 171.234775 
L 419.432537 172.575161 
L 422.019485 173.730477 
L 424.571346 174.711366 
L 427.077198 175.528934 
L 429.527909 176.194483 
L 431.916001 176.719298 
L 436.481773 177.390758 
L 440.741969 177.627421 
L 444.680817 177.505338 
L 448.294975 177.091138 
L 451.589894 176.441752 
L 454.576915 175.604841 
L 457.271071 174.619595 
L 459.689469 173.517708 
L 461.850163 172.324391 
L 463.771389 171.059346 
L 465.471082 169.737656 
L 466.966607 168.370588 
L 468.274612 166.966292 
L 469.919597 164.801862 
L 471.228869 162.577226 
L 472.249689 160.297158 
L 473.026343 157.962741 
L 473.600307 155.573642 
L 474.116488 152.30327 
L 474.422567 148.940088 
L 474.635425 143.746255 
L 474.709837 134.838127 
L 474.712534 123.118125 
L 474.712534 123.118125 
" clip-path="url(#pf83e7a0da1)" style="fill: none; stroke: #ff7f0e; stroke-width: 1.5; stroke-linecap: square"/>
   </g>
   <g id="line2d_56">
    <path d="M 474.712534 123.118125 
L 474.818108 98.060225 
L 474.838192 90.124063 
L 474.60492 87.456992 
L 474.225298 85.702741 
L 473.601468 84.17119 
L 473.020352 83.274947 
L 472.288355 82.477954 
L 471.391629 81.779733 
L 470.318556 81.180761 
L 469.059854 80.683294 
L 467.608593 80.292095 
L 465.960211 80.015032 
L 464.11258 79.863535 
L 462.066193 79.852887 
L 459.824513 80.002364 
L 457.394519 80.335178 
L 454.787433 80.878224 
L 452.019634 81.661557 
L 449.113695 82.717551 
L 446.099464 84.079663 
L 443.015063 85.780747 
L 439.907627 87.850871 
L 436.833563 90.314661 
L 433.858092 93.188273 
L 431.053837 96.476209 
L 429.74003 98.273017 
L 428.498274 100.168308 
L 427.338402 102.158127 
L 426.270033 104.237367 
L 425.302403 106.399756 
L 424.444191 108.637885 
L 423.703352 110.943257 
L 423.086951 113.306371 
L 422.601002 115.716835 
L 422.25034 118.163503 
L 422.038504 120.634644 
L 421.96765 123.118125 
L 422.038504 125.601606 
L 422.25034 128.072747 
L 422.601002 130.519415 
L 423.086951 132.929879 
L 423.703352 135.292993 
L 424.444191 137.598365 
L 425.302403 139.836494 
L 426.270033 141.998883 
L 427.338402 144.078123 
L 428.498274 146.067942 
L 429.74003 147.963233 
L 432.429796 151.45554 
L 435.329114 154.536602 
L 438.362542 157.203938 
L 441.460915 159.468272 
L 444.563306 161.35039 
L 447.617937 162.877999 
L 450.582249 164.082862 
L 453.42237 164.998377 
L 456.112221 165.657641 
L 458.632463 166.091996 
L 460.969418 166.33 
L 464.11258 166.372715 
L 466.809234 166.09758 
L 469.059854 165.552956 
L 470.318556 165.055489 
L 471.391629 164.456517 
L 472.288355 163.758296 
L 473.020352 162.961303 
L 473.601468 162.06506 
L 474.047529 161.068987 
L 474.501675 159.388348 
L 474.753056 157.490461 
L 474.876811 154.651712 
L 474.832123 149.027732 
L 474.715801 135.746392 
L 474.712534 123.118125 
L 474.712534 123.118125 
" clip-path="url(#pf83e7a0da1)" style="fill: none; stroke: #2ca02c; stroke-width: 1.5; stroke-linecap: square"/>
   </g>
   <g id="line2d_57">
    <path d="M 474.712534 123.118125 
L 474.801142 99.6459 
L 475.006503 95.178445 
L 475.340657 91.746079 
L 475.855622 88.61456 
L 476.638607 85.475336 
L 477.168954 83.354826 
L 477.06809 83.077806 
L 476.766693 82.994781 
L 475.890331 83.183713 
L 473.251727 84.152951 
L 468.347087 86.187662 
L 464.281211 88.12309 
L 460.959301 89.964409 
L 457.514464 92.211833 
L 455.205142 93.966382 
L 452.928708 95.943622 
L 450.725284 98.153826 
L 448.6373 100.601402 
L 446.70857 103.283662 
L 444.982944 106.189862 
L 443.502583 109.300652 
L 442.305975 112.588058 
L 441.425861 116.01609 
L 440.88728 119.541995 
L 440.705964 123.118125 
L 440.88728 126.694255 
L 441.425861 130.22016 
L 442.305975 133.648192 
L 443.502583 136.935598 
L 444.982944 140.046388 
L 446.70857 142.952588 
L 448.6373 145.634848 
L 450.725284 148.082424 
L 452.928708 150.292628 
L 455.205142 152.269868 
L 457.514464 154.024417 
L 460.959301 156.271841 
L 464.281211 158.11316 
L 468.347087 160.048588 
L 473.251727 162.083299 
L 476.241267 163.153295 
L 476.944191 163.222857 
L 477.14169 163.045446 
L 477.154424 162.664412 
L 476.782648 161.249391 
L 476.007728 158.331214 
L 475.452965 155.309474 
L 475.073532 151.933628 
L 474.827977 147.490984 
L 474.721454 140.264703 
L 474.712534 123.118125 
L 474.712534 123.118125 
" clip-path="url(#pf83e7a0da1)" style="fill: none; stroke: #d62728; stroke-width: 1.5; stroke-linecap: square"/>
   </g>
   <g id="patch_8">
    <path d="M 288.336222 223.918125 
L 288.336222 22.318125 
" style="fill: none; stroke: #000000; stroke-width: 0.8; stroke-linejoin: miter; stroke-linecap: square"/>
   </g>
   <g id="patch_9">
    <path d="M 491.245312 223.918125 
L 491.245312 22.318125 
" style="fill: none; stroke: #000000; stroke-width: 0.8; stroke-linejoin: miter; stroke-linecap: square"/>
   </g>
   <g id="patch_10">
    <path d="M 288.336222 223.918125 
L 491.245312 223.918125 
" style="fill: none; stroke: #000000; stroke-width: 0.8; stroke-linejoin: miter; stroke-linecap: square"/>
   </g>
   <g id="patch_11">
    <path d="M 288.336222 22.318125 
L 491.245312 22.318125 
" style="fill: none; stroke: #000000; stroke-width: 0.8; stroke-linejoin: miter; stroke-linecap: square"/>
   </g>
   <g id="text_27">
    <!-- Adams-Moulton -->
    <g transform="translate(343.02733 16.318125) scale(0.12 -0.12)">
     <defs>
      <path id="DejaVuSans-4d" d="M 628 4666 
L 1569 4666 
L 2759 1491 
L 3956 4666 
L 4897 4666 
L 4897 0 
L 4281 0 
L 4281 4097 
L 3078 897 
L 2444 897 
L 1241 4097 
L 1241 0 
L 628 0 
L 628 4666 
z
" transform="scale(0.015625)"/>
      <path id="DejaVuSans-75" d="M 544 1381 
L 544 3500 
L 1119 3500 
L 1119 1403 
Q 1119 906 1312 657 
Q 1506 409 1894 409 
Q 2359 409 2629 706 
Q 2900 1003 2900 1516 
L 2900 3500 
L 3475 3500 
L 3475 0 
L 2900 0 
L 2900 538 
Q 2691 219 2414 64 
Q 2138 -91 1772 -91 
Q 1169 -91 856 284 
Q 544 659 544 1381 
z
M 1991 3584 
L 1991 3584 
z
" transform="scale(0.015625)"/>
      <path id="DejaVuSans-6c" d="M 603 4863 
L 1178 4863 
L 1178 0 
L 603 0 
L 603 4863 
z
" transform="scale(0.015625)"/>
      <path id="DejaVuSans-6e" d="M 3513 2113 
L 3513 0 
L 2938 0 
L 2938 2094 
Q 2938 2591 2744 2837 
Q 2550 3084 2163 3084 
Q 1697 3084 1428 2787 
Q 1159 2491 1159 1978 
L 1159 0 
L 581 0 
L 581 3500 
L 1159 3500 
L 1159 2956 
Q 1366 3272 1645 3428 
Q 1925 3584 2291 3584 
Q 2894 3584 3203 3211 
Q 3513 2838 3513 2113 
z
" transform="scale(0.015625)"/>
     </defs>
     <use xlink:href="#DejaVuSans-41"/>
     <use xlink:href="#DejaVuSans-64" x="66.658203"/>
     <use xlink:href="#DejaVuSans-61" x="130.134766"/>
     <use xlink:href="#DejaVuSans-6d" x="191.414062"/>
     <use xlink:href="#DejaVuSans-73" x="288.826172"/>
     <use xlink:href="#DejaVuSans-2d" x="340.925781"/>
     <use xlink:href="#DejaVuSans-4d" x="377.009766"/>
     <use xlink:href="#DejaVuSans-6f" x="463.289062"/>
     <use xlink:href="#DejaVuSans-75" x="524.470703"/>
     <use xlink:href="#DejaVuSans-6c" x="587.849609"/>
     <use xlink:href="#DejaVuSans-74" x="615.632812"/>
     <use xlink:href="#DejaVuSans-6f" x="654.841797"/>
     <use xlink:href="#DejaVuSans-6e" x="716.023438"/>
    </g>
   </g>
  </g>
  <g id="axes_3">
   <g id="patch_12">
    <path d="M 44.845313 465.838125 
L 247.754403 465.838125 
L 247.754403 264.238125 
L 44.845313 264.238125 
z
" style="fill: #ffffff"/>
   </g>
   <g id="matplotlib.axis_5">
    <g id="xtick_10">
     <g id="line2d_58">
      <path d="M 50.834181 465.838125 
L 50.834181 264.238125 
" clip-path="url(#pe1ac9860db)" style="fill: none; stroke: #b0b0b0; stroke-width: 0.8; stroke-linecap: square"/>
     </g>
     <g id="line2d_59">
      <g>
       <use xlink:href="#mc8d999e45d" x="50.834181" y="465.838125" style="stroke: #000000; stroke-width: 0.8"/>
      </g>
     </g>
     <g id="text_28">
      <!-- −10 -->
      <g transform="translate(40.281837 480.436562) scale(0.1 -0.1)">
       <use xlink:href="#DejaVuSans-2212"/>
       <use xlink:href="#DejaVuSans-31" x="83.789062"/>
       <use xlink:href="#DejaVuSans-30" x="147.412109"/>
      </g>
     </g>
    </g>
    <g id="xtick_11">
     <g id="line2d_60">
      <path d="M 96.661928 465.838125 
L 96.661928 264.238125 
" clip-path="url(#pe1ac9860db)" style="fill: none; stroke: #b0b0b0; stroke-width: 0.8; stroke-linecap: square"/>
     </g>
     <g id="line2d_61">
      <g>
       <use xlink:href="#mc8d999e45d" x="96.661928" y="465.838125" style="stroke: #000000; stroke-width: 0.8"/>
      </g>
     </g>
     <g id="text_29">
      <!-- 0 -->
      <g transform="translate(93.480678 480.436562) scale(0.1 -0.1)">
       <use xlink:href="#DejaVuSans-30"/>
      </g>
     </g>
    </g>
    <g id="xtick_12">
     <g id="line2d_62">
      <path d="M 142.489675 465.838125 
L 142.489675 264.238125 
" clip-path="url(#pe1ac9860db)" style="fill: none; stroke: #b0b0b0; stroke-width: 0.8; stroke-linecap: square"/>
     </g>
     <g id="line2d_63">
      <g>
       <use xlink:href="#mc8d999e45d" x="142.489675" y="465.838125" style="stroke: #000000; stroke-width: 0.8"/>
      </g>
     </g>
     <g id="text_30">
      <!-- 10 -->
      <g transform="translate(136.127175 480.436562) scale(0.1 -0.1)">
       <use xlink:href="#DejaVuSans-31"/>
       <use xlink:href="#DejaVuSans-30" x="63.623047"/>
      </g>
     </g>
    </g>
    <g id="xtick_13">
     <g id="line2d_64">
      <path d="M 188.317422 465.838125 
L 188.317422 264.238125 
" clip-path="url(#pe1ac9860db)" style="fill: none; stroke: #b0b0b0; stroke-width: 0.8; stroke-linecap: square"/>
     </g>
     <g id="line2d_65">
      <g>
       <use xlink:href="#mc8d999e45d" x="188.317422" y="465.838125" style="stroke: #000000; stroke-width: 0.8"/>
      </g>
     </g>
     <g id="text_31">
      <!-- 20 -->
      <g transform="translate(181.954922 480.436562) scale(0.1 -0.1)">
       <use xlink:href="#DejaVuSans-32"/>
       <use xlink:href="#DejaVuSans-30" x="63.623047"/>
      </g>
     </g>
    </g>
    <g id="xtick_14">
     <g id="line2d_66">
      <path d="M 234.145168 465.838125 
L 234.145168 264.238125 
" clip-path="url(#pe1ac9860db)" style="fill: none; stroke: #b0b0b0; stroke-width: 0.8; stroke-linecap: square"/>
     </g>
     <g id="line2d_67">
      <g>
       <use xlink:href="#mc8d999e45d" x="234.145168" y="465.838125" style="stroke: #000000; stroke-width: 0.8"/>
      </g>
     </g>
     <g id="text_32">
      <!-- 30 -->
      <g transform="translate(227.782668 480.436562) scale(0.1 -0.1)">
       <use xlink:href="#DejaVuSans-33"/>
       <use xlink:href="#DejaVuSans-30" x="63.623047"/>
      </g>
     </g>
    </g>
   </g>
   <g id="matplotlib.axis_6">
    <g id="ytick_17">
     <g id="line2d_68">
      <path d="M 44.845313 456.693619 
L 247.754403 456.693619 
" clip-path="url(#pe1ac9860db)" style="fill: none; stroke: #b0b0b0; stroke-width: 0.8; stroke-linecap: square"/>
     </g>
     <g id="line2d_69">
      <g>
       <use xlink:href="#m6863764775" x="44.845313" y="456.693619" style="stroke: #000000; stroke-width: 0.8"/>
      </g>
     </g>
     <g id="text_33">
      <!-- −20 -->
      <g transform="translate(16.740625 460.492838) scale(0.1 -0.1)">
       <use xlink:href="#DejaVuSans-2212"/>
       <use xlink:href="#DejaVuSans-32" x="83.789062"/>
       <use xlink:href="#DejaVuSans-30" x="147.412109"/>
      </g>
     </g>
    </g>
    <g id="ytick_18">
     <g id="line2d_70">
      <path d="M 44.845313 433.779745 
L 247.754403 433.779745 
" clip-path="url(#pe1ac9860db)" style="fill: none; stroke: #b0b0b0; stroke-width: 0.8; stroke-linecap: square"/>
     </g>
     <g id="line2d_71">
      <g>
       <use xlink:href="#m6863764775" x="44.845313" y="433.779745" style="stroke: #000000; stroke-width: 0.8"/>
      </g>
     </g>
     <g id="text_34">
      <!-- −15 -->
      <g transform="translate(16.740625 437.578964) scale(0.1 -0.1)">
       <use xlink:href="#DejaVuSans-2212"/>
       <use xlink:href="#DejaVuSans-31" x="83.789062"/>
       <use xlink:href="#DejaVuSans-35" x="147.412109"/>
      </g>
     </g>
    </g>
    <g id="ytick_19">
     <g id="line2d_72">
      <path d="M 44.845313 410.865872 
L 247.754403 410.865872 
" clip-path="url(#pe1ac9860db)" style="fill: none; stroke: #b0b0b0; stroke-width: 0.8; stroke-linecap: square"/>
     </g>
     <g id="line2d_73">
      <g>
       <use xlink:href="#m6863764775" x="44.845313" y="410.865872" style="stroke: #000000; stroke-width: 0.8"/>
      </g>
     </g>
     <g id="text_35">
      <!-- −10 -->
      <g transform="translate(16.740625 414.665091) scale(0.1 -0.1)">
       <use xlink:href="#DejaVuSans-2212"/>
       <use xlink:href="#DejaVuSans-31" x="83.789062"/>
       <use xlink:href="#DejaVuSans-30" x="147.412109"/>
      </g>
     </g>
    </g>
    <g id="ytick_20">
     <g id="line2d_74">
      <path d="M 44.845313 387.951998 
L 247.754403 387.951998 
" clip-path="url(#pe1ac9860db)" style="fill: none; stroke: #b0b0b0; stroke-width: 0.8; stroke-linecap: square"/>
     </g>
     <g id="line2d_75">
      <g>
       <use xlink:href="#m6863764775" x="44.845313" y="387.951998" style="stroke: #000000; stroke-width: 0.8"/>
      </g>
     </g>
     <g id="text_36">
      <!-- −5 -->
      <g transform="translate(23.103125 391.751217) scale(0.1 -0.1)">
       <use xlink:href="#DejaVuSans-2212"/>
       <use xlink:href="#DejaVuSans-35" x="83.789062"/>
      </g>
     </g>
    </g>
    <g id="ytick_21">
     <g id="line2d_76">
      <path d="M 44.845313 365.038125 
L 247.754403 365.038125 
" clip-path="url(#pe1ac9860db)" style="fill: none; stroke: #b0b0b0; stroke-width: 0.8; stroke-linecap: square"/>
     </g>
     <g id="line2d_77">
      <g>
       <use xlink:href="#m6863764775" x="44.845313" y="365.038125" style="stroke: #000000; stroke-width: 0.8"/>
      </g>
     </g>
     <g id="text_37">
      <!-- 0 -->
      <g transform="translate(31.482813 368.837344) scale(0.1 -0.1)">
       <use xlink:href="#DejaVuSans-30"/>
      </g>
     </g>
    </g>
    <g id="ytick_22">
     <g id="line2d_78">
      <path d="M 44.845313 342.124252 
L 247.754403 342.124252 
" clip-path="url(#pe1ac9860db)" style="fill: none; stroke: #b0b0b0; stroke-width: 0.8; stroke-linecap: square"/>
     </g>
     <g id="line2d_79">
      <g>
       <use xlink:href="#m6863764775" x="44.845313" y="342.124252" style="stroke: #000000; stroke-width: 0.8"/>
      </g>
     </g>
     <g id="text_38">
      <!-- 5 -->
      <g transform="translate(31.482813 345.92347) scale(0.1 -0.1)">
       <use xlink:href="#DejaVuSans-35"/>
      </g>
     </g>
    </g>
    <g id="ytick_23">
     <g id="line2d_80">
      <path d="M 44.845313 319.210378 
L 247.754403 319.210378 
" clip-path="url(#pe1ac9860db)" style="fill: none; stroke: #b0b0b0; stroke-width: 0.8; stroke-linecap: square"/>
     </g>
     <g id="line2d_81">
      <g>
       <use xlink:href="#m6863764775" x="44.845313" y="319.210378" style="stroke: #000000; stroke-width: 0.8"/>
      </g>
     </g>
     <g id="text_39">
      <!-- 10 -->
      <g transform="translate(25.120313 323.009597) scale(0.1 -0.1)">
       <use xlink:href="#DejaVuSans-31"/>
       <use xlink:href="#DejaVuSans-30" x="63.623047"/>
      </g>
     </g>
    </g>
    <g id="ytick_24">
     <g id="line2d_82">
      <path d="M 44.845313 296.296505 
L 247.754403 296.296505 
" clip-path="url(#pe1ac9860db)" style="fill: none; stroke: #b0b0b0; stroke-width: 0.8; stroke-linecap: square"/>
     </g>
     <g id="line2d_83">
      <g>
       <use xlink:href="#m6863764775" x="44.845313" y="296.296505" style="stroke: #000000; stroke-width: 0.8"/>
      </g>
     </g>
     <g id="text_40">
      <!-- 15 -->
      <g transform="translate(25.120313 300.095723) scale(0.1 -0.1)">
       <use xlink:href="#DejaVuSans-31"/>
       <use xlink:href="#DejaVuSans-35" x="63.623047"/>
      </g>
     </g>
    </g>
    <g id="ytick_25">
     <g id="line2d_84">
      <path d="M 44.845313 273.382631 
L 247.754403 273.382631 
" clip-path="url(#pe1ac9860db)" style="fill: none; stroke: #b0b0b0; stroke-width: 0.8; stroke-linecap: square"/>
     </g>
     <g id="line2d_85">
      <g>
       <use xlink:href="#m6863764775" x="44.845313" y="273.382631" style="stroke: #000000; stroke-width: 0.8"/>
      </g>
     </g>
     <g id="text_41">
      <!-- 20 -->
      <g transform="translate(25.120313 277.18185) scale(0.1 -0.1)">
       <use xlink:href="#DejaVuSans-32"/>
       <use xlink:href="#DejaVuSans-30" x="63.623047"/>
      </g>
     </g>
    </g>
   </g>
   <g id="line2d_86">
    <path d="M 96.661928 365.038125 
L 96.772296 364.038424 
L 97.098084 363.086874 
L 97.6236 362.22931 
L 98.323532 361.507036 
L 99.164166 360.954843 
L 100.105013 360.599327 
L 101.100754 360.457612 
L 102.103429 360.536524 
L 103.064742 360.832262 
L 103.93839 361.330582 
L 104.682292 362.007482 
L 105.260619 362.830356 
L 105.645512 363.759572 
L 105.818434 364.75037 
L 105.771056 365.755029 
L 105.505659 366.725157 
L 105.035026 367.614026 
L 104.381828 368.378824 
L 103.577525 368.982712 
L 102.660858 369.396603 
L 101.67598 369.600561 
L 100.670328 369.584763 
L 99.692343 369.34997 
L 98.789129 368.90749 
L 98.004191 368.278636 
L 97.375338 367.493698 
L 96.932858 366.590485 
L 96.698064 365.612499 
L 96.661928 365.038125 
L 96.661928 365.038125 
" clip-path="url(#pe1ac9860db)" style="fill: none; stroke: #1f77b4; stroke-width: 1.5; stroke-linecap: square"/>
   </g>
   <g id="line2d_87">
    <path d="M 96.661928 365.038125 
L 96.772986 362.200287 
L 97.055068 360.84849 
L 97.540771 359.587955 
L 98.173003 358.510432 
L 99.044301 357.464293 
L 100.167943 356.514694 
L 101.244702 355.872576 
L 102.465439 355.375004 
L 103.807511 355.056644 
L 105.239804 354.94765 
L 106.72384 355.071611 
L 108.215387 355.443801 
L 109.666463 356.069861 
L 111.02763 356.944983 
L 112.250444 358.053669 
L 113.289912 359.37008 
L 114.106817 360.858971 
L 114.66977 362.477156 
L 114.956872 364.175428 
L 114.956872 365.900822 
L 114.66977 367.599094 
L 114.106817 369.217279 
L 113.289912 370.70617 
L 112.250444 372.022581 
L 111.02763 373.131267 
L 109.666463 374.006389 
L 108.215387 374.632449 
L 106.72384 375.004639 
L 105.239804 375.1286 
L 103.807511 375.019606 
L 102.465439 374.701246 
L 101.244702 374.203674 
L 100.167943 373.561556 
L 99.044301 372.611957 
L 98.173003 371.565818 
L 97.540771 370.488295 
L 97.055068 369.22776 
L 96.772986 367.875963 
L 96.666451 366.21362 
L 96.661928 365.038125 
L 96.661928 365.038125 
" clip-path="url(#pe1ac9860db)" style="fill: none; stroke: #ff7f0e; stroke-width: 1.5; stroke-linecap: square"/>
   </g>
   <g id="line2d_88">
    <path d="M 96.661928 365.038125 
L 96.556491 362.211053 
L 96.281593 358.890342 
L 96.424832 357.261954 
L 96.780921 355.754815 
L 97.443632 354.105843 
L 98.189519 352.817392 
L 99.178927 351.529663 
L 100.429902 350.292562 
L 101.949431 349.16255 
L 103.731522 348.199986 
L 105.755974 347.465933 
L 107.223657 347.132508 
L 108.770036 346.942485 
L 110.378637 346.90994 
L 112.030609 347.046764 
L 113.705044 347.362259 
L 115.379379 347.862797 
L 117.029843 348.551528 
L 118.631967 349.428184 
L 120.161112 350.488947 
L 121.593027 351.726418 
L 122.90441 353.129677 
L 124.073455 354.684428 
L 125.080372 356.373241 
L 125.907863 358.175874 
L 126.541551 360.069668 
L 126.970328 362.030019 
L 127.186631 364.030888 
L 127.186631 366.045362 
L 126.970328 368.046231 
L 126.541551 370.006582 
L 125.907863 371.900376 
L 125.080372 373.703009 
L 124.073455 375.391822 
L 122.90441 376.946573 
L 121.593027 378.349832 
L 120.161112 379.587303 
L 118.631967 380.648066 
L 117.029843 381.524722 
L 115.379379 382.213453 
L 113.705044 382.713991 
L 112.030609 383.029486 
L 110.378637 383.16631 
L 108.770036 383.133765 
L 107.223657 382.943742 
L 105.056078 382.394717 
L 103.109265 381.577807 
L 101.413168 380.552607 
L 99.983164 379.380323 
L 98.820746 378.120347 
L 97.914998 376.827221 
L 97.244706 375.548186 
L 96.666446 373.929301 
L 96.373743 372.464889 
L 96.2804 370.895994 
L 96.422319 368.965666 
L 96.657594 366.19125 
L 96.661928 365.038125 
L 96.661928 365.038125 
" clip-path="url(#pe1ac9860db)" style="fill: none; stroke: #2ca02c; stroke-width: 1.5; stroke-linecap: square"/>
   </g>
   <g id="line2d_89">
    <path d="M 96.661928 365.038125 
L 96.566775 362.063386 
L 96.307746 361.208222 
L 95.622077 359.929573 
L 94.719555 358.18724 
L 94.100874 356.467688 
L 93.74944 354.810547 
L 93.606745 352.817392 
L 93.685211 351.307134 
L 93.945079 349.66572 
L 94.422489 347.914059 
L 95.151446 346.081232 
L 96.162017 344.204355 
L 97.47852 342.328025 
L 99.117786 340.503372 
L 101.087607 338.786694 
L 103.38544 337.237751 
L 105.997469 335.917736 
L 108.898084 334.887034 
L 112.049834 334.202834 
L 115.403882 333.916718 
L 117.138622 333.93695 
L 118.900978 334.072327 
L 120.682156 334.326711 
L 122.472919 334.703217 
L 124.263657 335.204161 
L 126.044461 335.831019 
L 127.805203 336.584396 
L 129.53562 337.463993 
L 131.225399 338.468596 
L 132.864265 339.596059 
L 134.442075 340.843312 
L 135.948903 342.206364 
L 137.37513 343.680326 
L 138.711536 345.259432 
L 139.949378 346.937083 
L 141.080476 348.705886 
L 142.097286 350.557709 
L 142.992976 352.483745 
L 143.761483 354.474574 
L 144.397577 356.520242 
L 144.896908 358.610341 
L 145.25605 360.734093 
L 145.472531 362.880437 
L 145.544858 365.038125 
L 145.472531 367.195813 
L 145.25605 369.342157 
L 144.896908 371.465909 
L 144.397577 373.556008 
L 143.761483 375.601676 
L 142.992976 377.592505 
L 142.097286 379.518541 
L 141.080476 381.370364 
L 139.949378 383.139167 
L 138.711536 384.816818 
L 137.37513 386.395924 
L 135.948903 387.869886 
L 134.442075 389.232938 
L 132.864265 390.480191 
L 131.225399 391.607654 
L 129.53562 392.612257 
L 127.805203 393.491854 
L 126.044461 394.245231 
L 124.263657 394.872089 
L 122.472919 395.373033 
L 120.682156 395.749539 
L 118.900978 396.003923 
L 117.138622 396.1393 
L 113.705044 396.069175 
L 110.445361 395.578012 
L 107.41377 394.713707 
L 104.653502 393.530943 
L 102.196113 392.08881 
L 100.061281 390.44839 
L 98.257092 388.670427 
L 96.78078 386.813185 
L 95.619854 384.930571 
L 94.753531 383.070595 
L 94.154395 381.274205 
L 93.790182 379.574545 
L 93.625597 377.996601 
L 93.673109 375.892717 
L 93.96726 374.124117 
L 94.558334 372.27044 
L 95.344577 370.637147 
L 96.468078 368.429955 
L 96.632371 367.461675 
L 96.661928 365.182097 
L 96.661928 365.038125 
L 96.661928 365.038125 
" clip-path="url(#pe1ac9860db)" style="fill: none; stroke: #d62728; stroke-width: 1.5; stroke-linecap: square"/>
   </g>
   <g id="line2d_90">
    <path d="M 96.661928 365.038125 
L 96.569868 361.294365 
L 96.312576 360.967649 
L 95.744903 360.671177 
L 93.591854 359.672718 
L 92.164665 358.705351 
L 91.081653 357.750366 
L 89.940525 356.483612 
L 88.800821 354.855851 
L 87.739001 352.827875 
L 86.846918 350.375511 
L 86.228877 347.494428 
L 86.057574 345.898246 
L 85.997267 344.204355 
L 86.062341 342.419505 
L 86.266922 340.552283 
L 86.624648 338.61312 
L 87.148436 336.614294 
L 87.850238 334.56988 
L 88.740807 332.495686 
L 89.82946 330.409145 
L 91.123852 328.329186 
L 92.629763 326.276064 
L 94.350903 324.27117 
L 96.288738 322.336805 
L 98.442338 320.495933 
L 100.808258 318.771914 
L 103.380451 317.188213 
L 106.150211 315.768095 
L 109.106158 314.534316 
L 112.234257 313.5088 
L 115.517885 312.712321 
L 118.937927 312.164186 
L 122.472919 311.881931 
L 126.099227 311.881028 
L 129.791267 312.174613 
L 133.521755 312.773243 
L 137.261989 313.684676 
L 140.982161 314.913688 
L 144.651696 316.461925 
L 148.2396 318.327797 
L 151.714837 320.506418 
L 155.046697 322.98958 
L 158.205184 325.765784 
L 161.161389 328.820314 
L 163.887863 332.135348 
L 166.358967 335.690132 
L 168.55121 339.461174 
L 170.443555 343.422497 
L 172.017703 347.545919 
L 173.258334 351.801366 
L 174.15331 356.157217 
L 174.693844 360.58067 
L 174.874616 365.038125 
L 174.693844 369.49558 
L 174.15331 373.919033 
L 173.258334 378.274884 
L 172.017703 382.530331 
L 170.443555 386.653753 
L 168.55121 390.615076 
L 166.358967 394.386118 
L 163.887863 397.940902 
L 161.161389 401.255936 
L 158.205184 404.310466 
L 155.046697 407.08667 
L 151.714837 409.569832 
L 148.2396 411.748453 
L 144.651696 413.614325 
L 140.982161 415.162562 
L 137.261989 416.391574 
L 133.521755 417.303007 
L 129.791267 417.901637 
L 126.099227 418.195222 
L 122.472919 418.194319 
L 118.937927 417.912064 
L 115.517885 417.363929 
L 112.234257 416.56745 
L 109.106158 415.541934 
L 106.150211 414.308155 
L 103.380451 412.888037 
L 100.808258 411.304336 
L 98.442338 409.580317 
L 96.288738 407.739445 
L 94.350903 405.80508 
L 92.629763 403.800186 
L 91.123852 401.747064 
L 89.82946 399.667105 
L 88.740807 397.580564 
L 87.850238 395.50637 
L 87.148436 393.461956 
L 86.624648 391.46313 
L 86.266922 389.523967 
L 86.062341 387.656745 
L 85.997267 385.871895 
L 86.057574 384.178004 
L 86.496747 381.088316 
L 87.265471 378.420719 
L 88.254768 376.182439 
L 89.366102 374.358648 
L 90.515037 372.917035 
L 91.633471 371.812755 
L 93.147128 370.673233 
L 94.719555 369.831216 
L 96.470548 368.954521 
L 96.627265 368.586656 
L 96.671204 367.742848 
L 96.661928 365.038125 
L 96.661928 365.038125 
" clip-path="url(#pe1ac9860db)" style="fill: none; stroke: #9467bd; stroke-width: 1.5; stroke-linecap: square"/>
   </g>
   <g id="line2d_91">
    <path d="M 96.661928 365.038125 
L 96.753275 361.487279 
L 96.928529 360.872181 
L 96.796177 361.039267 
L 96.096732 361.602026 
L 94.904048 362.17148 
L 93.66985 362.507014 
L 92.024201 362.691377 
L 89.940525 362.593978 
L 87.426347 362.061096 
L 86.022026 361.57896 
L 84.533429 360.924224 
L 82.975275 360.075513 
L 81.365887 359.012235 
L 79.727242 357.715128 
L 78.084941 356.16684 
L 76.468087 354.352517 
L 74.909075 352.260398 
L 73.443283 349.882396 
L 72.108667 347.214652 
L 70.945265 344.258046 
L 69.994608 341.018649 
L 69.299044 337.508101 
L 68.901 333.743901 
L 68.84217 329.749593 
L 69.162663 325.554842 
L 69.900118 321.195386 
L 71.088806 316.712856 
L 72.758742 312.154466 
L 74.934818 307.572565 
L 77.635989 303.024057 
L 80.874528 298.569694 
L 84.655367 294.27325 
L 88.975545 290.200586 
L 93.82379 286.418619 
L 99.180227 282.99423 
L 105.016254 279.993099 
L 111.294573 277.47852 
L 117.969385 275.510205 
L 124.986771 274.143104 
L 132.285227 273.426264 
L 139.796375 273.401761 
L 147.445825 274.10372 
L 155.154179 275.557451 
L 162.838166 277.778722 
L 170.411874 280.77319 
L 177.788083 284.535996 
L 184.879634 289.051553 
L 191.600852 294.293521 
L 197.868959 300.224976 
L 203.605468 306.798784 
L 208.737523 313.958164 
L 213.199154 321.637431 
L 216.932436 329.762918 
L 219.8885 338.25405 
L 222.028403 347.024554 
L 223.323818 355.983784 
L 223.757546 365.038125 
L 223.323818 374.092466 
L 222.028403 383.051696 
L 219.8885 391.8222 
L 216.932436 400.313332 
L 213.199154 408.438819 
L 208.737523 416.118086 
L 203.605468 423.277466 
L 197.868959 429.851274 
L 191.600852 435.782729 
L 184.879634 441.024697 
L 177.788083 445.540254 
L 170.411874 449.30306 
L 162.838166 452.297528 
L 155.154179 454.518799 
L 147.445825 455.97253 
L 139.796375 456.674489 
L 132.285227 456.649986 
L 124.986771 455.933146 
L 117.969385 454.566045 
L 111.294573 452.59773 
L 105.016254 450.083151 
L 99.180227 447.08202 
L 93.82379 443.657631 
L 88.975545 439.875664 
L 84.655367 435.803 
L 80.874528 431.506556 
L 77.635989 427.052193 
L 74.934818 422.503685 
L 72.758742 417.921784 
L 71.088806 413.363394 
L 69.900118 408.880864 
L 69.162663 404.521408 
L 68.84217 400.326657 
L 68.901 396.332349 
L 69.299044 392.568149 
L 69.994608 389.057601 
L 70.945265 385.818204 
L 72.108667 382.861598 
L 73.443283 380.193854 
L 74.909075 377.815852 
L 76.468087 375.723733 
L 78.084941 373.90941 
L 79.727242 372.361122 
L 81.365887 371.064015 
L 82.975275 370.000737 
L 84.533429 369.152026 
L 86.022026 368.49729 
L 87.426347 368.015154 
L 89.940525 367.482272 
L 92.024201 367.384873 
L 93.66985 367.569236 
L 94.904048 367.90477 
L 96.096732 368.474224 
L 96.865477 369.117358 
L 96.928529 369.204069 
L 96.825092 368.922195 
L 96.693464 368.056478 
L 96.661928 365.757987 
L 96.661928 365.038125 
L 96.661928 365.038125 
" clip-path="url(#pe1ac9860db)" style="fill: none; stroke: #8c564b; stroke-width: 1.5; stroke-linecap: square"/>
   </g>
   <g id="patch_13">
    <path d="M 44.845313 465.838125 
L 44.845313 264.238125 
" style="fill: none; stroke: #000000; stroke-width: 0.8; stroke-linejoin: miter; stroke-linecap: square"/>
   </g>
   <g id="patch_14">
    <path d="M 247.754403 465.838125 
L 247.754403 264.238125 
" style="fill: none; stroke: #000000; stroke-width: 0.8; stroke-linejoin: miter; stroke-linecap: square"/>
   </g>
   <g id="patch_15">
    <path d="M 44.845312 465.838125 
L 247.754403 465.838125 
" style="fill: none; stroke: #000000; stroke-width: 0.8; stroke-linejoin: miter; stroke-linecap: square"/>
   </g>
   <g id="patch_16">
    <path d="M 44.845312 264.238125 
L 247.754403 264.238125 
" style="fill: none; stroke: #000000; stroke-width: 0.8; stroke-linejoin: miter; stroke-linecap: square"/>
   </g>
   <g id="text_42">
    <!-- Backward differentiation -->
    <g transform="translate(72.664858 258.238125) scale(0.12 -0.12)">
     <defs>
      <path id="DejaVuSans-63" d="M 3122 3366 
L 3122 2828 
Q 2878 2963 2633 3030 
Q 2388 3097 2138 3097 
Q 1578 3097 1268 2742 
Q 959 2388 959 1747 
Q 959 1106 1268 751 
Q 1578 397 2138 397 
Q 2388 397 2633 464 
Q 2878 531 3122 666 
L 3122 134 
Q 2881 22 2623 -34 
Q 2366 -91 2075 -91 
Q 1284 -91 818 406 
Q 353 903 353 1747 
Q 353 2603 823 3093 
Q 1294 3584 2113 3584 
Q 2378 3584 2631 3529 
Q 2884 3475 3122 3366 
z
" transform="scale(0.015625)"/>
      <path id="DejaVuSans-6b" d="M 581 4863 
L 1159 4863 
L 1159 1991 
L 2875 3500 
L 3609 3500 
L 1753 1863 
L 3688 0 
L 2938 0 
L 1159 1709 
L 1159 0 
L 581 0 
L 581 4863 
z
" transform="scale(0.015625)"/>
      <path id="DejaVuSans-77" d="M 269 3500 
L 844 3500 
L 1563 769 
L 2278 3500 
L 2956 3500 
L 3675 769 
L 4391 3500 
L 4966 3500 
L 4050 0 
L 3372 0 
L 2619 2869 
L 1863 0 
L 1184 0 
L 269 3500 
z
" transform="scale(0.015625)"/>
      <path id="DejaVuSans-20" transform="scale(0.015625)"/>
      <path id="DejaVuSans-69" d="M 603 3500 
L 1178 3500 
L 1178 0 
L 603 0 
L 603 3500 
z
M 603 4863 
L 1178 4863 
L 1178 4134 
L 603 4134 
L 603 4863 
z
" transform="scale(0.015625)"/>
      <path id="DejaVuSans-65" d="M 3597 1894 
L 3597 1613 
L 953 1613 
Q 991 1019 1311 708 
Q 1631 397 2203 397 
Q 2534 397 2845 478 
Q 3156 559 3463 722 
L 3463 178 
Q 3153 47 2828 -22 
Q 2503 -91 2169 -91 
Q 1331 -91 842 396 
Q 353 884 353 1716 
Q 353 2575 817 3079 
Q 1281 3584 2069 3584 
Q 2775 3584 3186 3129 
Q 3597 2675 3597 1894 
z
M 3022 2063 
Q 3016 2534 2758 2815 
Q 2500 3097 2075 3097 
Q 1594 3097 1305 2825 
Q 1016 2553 972 2059 
L 3022 2063 
z
" transform="scale(0.015625)"/>
     </defs>
     <use xlink:href="#DejaVuSans-42"/>
     <use xlink:href="#DejaVuSans-61" x="68.603516"/>
     <use xlink:href="#DejaVuSans-63" x="129.882812"/>
     <use xlink:href="#DejaVuSans-6b" x="184.863281"/>
     <use xlink:href="#DejaVuSans-77" x="242.773438"/>
     <use xlink:href="#DejaVuSans-61" x="324.560547"/>
     <use xlink:href="#DejaVuSans-72" x="385.839844"/>
     <use xlink:href="#DejaVuSans-64" x="425.203125"/>
     <use xlink:href="#DejaVuSans-20" x="488.679688"/>
     <use xlink:href="#DejaVuSans-64" x="520.466797"/>
     <use xlink:href="#DejaVuSans-69" x="583.943359"/>
     <use xlink:href="#DejaVuSans-66" x="611.726562"/>
     <use xlink:href="#DejaVuSans-66" x="646.931641"/>
     <use xlink:href="#DejaVuSans-65" x="682.136719"/>
     <use xlink:href="#DejaVuSans-72" x="743.660156"/>
     <use xlink:href="#DejaVuSans-65" x="782.523438"/>
     <use xlink:href="#DejaVuSans-6e" x="844.046875"/>
     <use xlink:href="#DejaVuSans-74" x="907.425781"/>
     <use xlink:href="#DejaVuSans-69" x="946.634766"/>
     <use xlink:href="#DejaVuSans-61" x="974.417969"/>
     <use xlink:href="#DejaVuSans-74" x="1035.697266"/>
     <use xlink:href="#DejaVuSans-69" x="1074.90625"/>
     <use xlink:href="#DejaVuSans-6f" x="1102.689453"/>
     <use xlink:href="#DejaVuSans-6e" x="1163.871094"/>
    </g>
   </g>
  </g>
  <g id="axes_4">
   <g id="patch_17">
    <path d="M 288.336222 465.838125 
L 491.245312 465.838125 
L 491.245312 264.238125 
L 288.336222 264.238125 
z
" style="fill: #ffffff"/>
   </g>
   <g id="matplotlib.axis_7">
    <g id="xtick_15">
     <g id="line2d_92">
      <path d="M 304.652168 465.838125 
L 304.652168 264.238125 
" clip-path="url(#p0c6ff3ce93)" style="fill: none; stroke: #b0b0b0; stroke-width: 0.8; stroke-linecap: square"/>
     </g>
     <g id="line2d_93">
      <g>
       <use xlink:href="#mc8d999e45d" x="304.652168" y="465.838125" style="stroke: #000000; stroke-width: 0.8"/>
      </g>
     </g>
     <g id="text_43">
      <!-- −4 -->
      <g transform="translate(297.281074 480.436562) scale(0.1 -0.1)">
       <use xlink:href="#DejaVuSans-2212"/>
       <use xlink:href="#DejaVuSans-34" x="83.789062"/>
      </g>
     </g>
    </g>
    <g id="xtick_16">
     <g id="line2d_94">
      <path d="M 367.080196 465.838125 
L 367.080196 264.238125 
" clip-path="url(#p0c6ff3ce93)" style="fill: none; stroke: #b0b0b0; stroke-width: 0.8; stroke-linecap: square"/>
     </g>
     <g id="line2d_95">
      <g>
       <use xlink:href="#mc8d999e45d" x="367.080196" y="465.838125" style="stroke: #000000; stroke-width: 0.8"/>
      </g>
     </g>
     <g id="text_44">
      <!-- −2 -->
      <g transform="translate(359.709103 480.436562) scale(0.1 -0.1)">
       <use xlink:href="#DejaVuSans-2212"/>
       <use xlink:href="#DejaVuSans-32" x="83.789062"/>
      </g>
     </g>
    </g>
    <g id="xtick_17">
     <g id="line2d_96">
      <path d="M 429.508225 465.838125 
L 429.508225 264.238125 
" clip-path="url(#p0c6ff3ce93)" style="fill: none; stroke: #b0b0b0; stroke-width: 0.8; stroke-linecap: square"/>
     </g>
     <g id="line2d_97">
      <g>
       <use xlink:href="#mc8d999e45d" x="429.508225" y="465.838125" style="stroke: #000000; stroke-width: 0.8"/>
      </g>
     </g>
     <g id="text_45">
      <!-- 0 -->
      <g transform="translate(426.326975 480.436562) scale(0.1 -0.1)">
       <use xlink:href="#DejaVuSans-30"/>
      </g>
     </g>
    </g>
   </g>
   <g id="matplotlib.axis_8">
    <g id="ytick_26">
     <g id="line2d_98">
      <path d="M 288.336222 458.679424 
L 491.245312 458.679424 
" clip-path="url(#p0c6ff3ce93)" style="fill: none; stroke: #b0b0b0; stroke-width: 0.8; stroke-linecap: square"/>
     </g>
     <g id="line2d_99">
      <g>
       <use xlink:href="#m6863764775" x="288.336222" y="458.679424" style="stroke: #000000; stroke-width: 0.8"/>
      </g>
     </g>
     <g id="text_46">
      <!-- −3 -->
      <g transform="translate(266.594034 462.478643) scale(0.1 -0.1)">
       <use xlink:href="#DejaVuSans-2212"/>
       <use xlink:href="#DejaVuSans-33" x="83.789062"/>
      </g>
     </g>
    </g>
    <g id="ytick_27">
     <g id="line2d_100">
      <path d="M 288.336222 427.46541 
L 491.245312 427.46541 
" clip-path="url(#p0c6ff3ce93)" style="fill: none; stroke: #b0b0b0; stroke-width: 0.8; stroke-linecap: square"/>
     </g>
     <g id="line2d_101">
      <g>
       <use xlink:href="#m6863764775" x="288.336222" y="427.46541" style="stroke: #000000; stroke-width: 0.8"/>
      </g>
     </g>
     <g id="text_47">
      <!-- −2 -->
      <g transform="translate(266.594034 431.264629) scale(0.1 -0.1)">
       <use xlink:href="#DejaVuSans-2212"/>
       <use xlink:href="#DejaVuSans-32" x="83.789062"/>
      </g>
     </g>
    </g>
    <g id="ytick_28">
     <g id="line2d_102">
      <path d="M 288.336222 396.251396 
L 491.245312 396.251396 
" clip-path="url(#p0c6ff3ce93)" style="fill: none; stroke: #b0b0b0; stroke-width: 0.8; stroke-linecap: square"/>
     </g>
     <g id="line2d_103">
      <g>
       <use xlink:href="#m6863764775" x="288.336222" y="396.251396" style="stroke: #000000; stroke-width: 0.8"/>
      </g>
     </g>
     <g id="text_48">
      <!-- −1 -->
      <g transform="translate(266.594034 400.050614) scale(0.1 -0.1)">
       <use xlink:href="#DejaVuSans-2212"/>
       <use xlink:href="#DejaVuSans-31" x="83.789062"/>
      </g>
     </g>
    </g>
    <g id="ytick_29">
     <g id="line2d_104">
      <path d="M 288.336222 365.037382 
L 491.245312 365.037382 
" clip-path="url(#p0c6ff3ce93)" style="fill: none; stroke: #b0b0b0; stroke-width: 0.8; stroke-linecap: square"/>
     </g>
     <g id="line2d_105">
      <g>
       <use xlink:href="#m6863764775" x="288.336222" y="365.037382" style="stroke: #000000; stroke-width: 0.8"/>
      </g>
     </g>
     <g id="text_49">
      <!-- 0 -->
      <g transform="translate(274.973722 368.8366) scale(0.1 -0.1)">
       <use xlink:href="#DejaVuSans-30"/>
      </g>
     </g>
    </g>
    <g id="ytick_30">
     <g id="line2d_106">
      <path d="M 288.336222 333.823367 
L 491.245312 333.823367 
" clip-path="url(#p0c6ff3ce93)" style="fill: none; stroke: #b0b0b0; stroke-width: 0.8; stroke-linecap: square"/>
     </g>
     <g id="line2d_107">
      <g>
       <use xlink:href="#m6863764775" x="288.336222" y="333.823367" style="stroke: #000000; stroke-width: 0.8"/>
      </g>
     </g>
     <g id="text_50">
      <!-- 1 -->
      <g transform="translate(274.973722 337.622586) scale(0.1 -0.1)">
       <use xlink:href="#DejaVuSans-31"/>
      </g>
     </g>
    </g>
    <g id="ytick_31">
     <g id="line2d_108">
      <path d="M 288.336222 302.609353 
L 491.245312 302.609353 
" clip-path="url(#p0c6ff3ce93)" style="fill: none; stroke: #b0b0b0; stroke-width: 0.8; stroke-linecap: square"/>
     </g>
     <g id="line2d_109">
      <g>
       <use xlink:href="#m6863764775" x="288.336222" y="302.609353" style="stroke: #000000; stroke-width: 0.8"/>
      </g>
     </g>
     <g id="text_51">
      <!-- 2 -->
      <g transform="translate(274.973722 306.408572) scale(0.1 -0.1)">
       <use xlink:href="#DejaVuSans-32"/>
      </g>
     </g>
    </g>
    <g id="ytick_32">
     <g id="line2d_110">
      <path d="M 288.336222 271.395339 
L 491.245312 271.395339 
" clip-path="url(#p0c6ff3ce93)" style="fill: none; stroke: #b0b0b0; stroke-width: 0.8; stroke-linecap: square"/>
     </g>
     <g id="line2d_111">
      <g>
       <use xlink:href="#m6863764775" x="288.336222" y="271.395339" style="stroke: #000000; stroke-width: 0.8"/>
      </g>
     </g>
     <g id="text_52">
      <!-- 3 -->
      <g transform="translate(274.973722 275.194558) scale(0.1 -0.1)">
       <use xlink:href="#DejaVuSans-33"/>
      </g>
     </g>
    </g>
   </g>
   <g id="line2d_112">
    <path d="M 429.508225 365.037382 
L 429.369696 362.099883 
L 428.955339 359.188459 
L 428.268831 356.328949 
L 427.316267 353.546737 
L 426.106101 350.866516 
L 424.649074 348.312076 
L 422.95812 345.906092 
L 421.048247 343.669919 
L 418.936408 341.623404 
L 416.641348 339.784714 
L 414.183436 338.170168 
L 411.584491 336.794097 
L 408.867581 335.668716 
L 406.05682 334.804013 
L 403.177158 334.207664 
L 400.254155 333.884961 
L 397.313755 333.83877 
L 394.382057 334.069499 
L 391.485084 334.575102 
L 388.64855 335.35109 
L 385.897631 336.390576 
L 383.256744 337.684332 
L 380.749332 339.220877 
L 378.397649 340.98657 
L 376.222569 342.965741 
L 374.243399 345.14082 
L 372.477706 347.492503 
L 370.941161 349.999916 
L 369.647405 352.640802 
L 368.607919 355.391721 
L 367.831931 358.228255 
L 367.326328 361.125228 
L 367.095599 364.056926 
L 367.14179 366.997326 
L 367.464493 369.920329 
L 368.060842 372.799991 
L 368.925545 375.610752 
L 370.050926 378.327662 
L 371.426997 380.926608 
L 373.041543 383.384519 
L 374.880233 385.67958 
L 376.926747 387.791419 
L 379.162921 389.701291 
L 381.568905 391.392245 
L 384.123345 392.849272 
L 386.803565 394.059438 
L 389.585778 395.012002 
L 392.445287 395.69851 
L 395.356712 396.112867 
L 398.29421 396.251396 
L 401.231709 396.112867 
L 404.143133 395.69851 
L 407.002643 395.012002 
L 409.784855 394.059438 
L 412.465076 392.849272 
L 415.019516 391.392245 
L 417.4255 389.701291 
L 419.661673 387.791419 
L 421.708188 385.67958 
L 423.546878 383.384519 
L 425.161424 380.926608 
L 426.537495 378.327662 
L 427.662876 375.610752 
L 428.527579 372.799991 
L 429.123928 369.920329 
L 429.446631 366.997326 
L 429.508225 365.037382 
L 429.508225 365.037382 
" clip-path="url(#p0c6ff3ce93)" style="fill: none; stroke: #1f77b4; stroke-width: 1.5; stroke-linecap: square"/>
   </g>
   <g id="line2d_113">
    <path d="M 429.508225 365.037382 
L 429.446631 361.117493 
L 429.342147 351.678879 
L 429.047371 346.422348 
L 428.697089 343.110184 
L 428.205245 339.952651 
L 427.563638 336.948782 
L 426.769134 334.097854 
L 425.82229 331.399959 
L 424.726336 328.856124 
L 423.486444 326.468217 
L 422.109237 324.238772 
L 420.602433 322.170796 
L 418.974615 320.2676 
L 417.235046 318.532628 
L 415.393555 316.969332 
L 413.46043 315.581053 
L 411.446347 314.370931 
L 409.362306 313.341822 
L 407.219574 312.496241 
L 405.029635 311.836309 
L 402.804143 311.363714 
L 400.554881 311.079682 
L 398.293715 310.984956 
L 396.032552 311.079786 
L 393.783299 311.363922 
L 391.557822 311.836621 
L 389.367904 312.496657 
L 387.225199 313.342341 
L 385.14119 314.371555 
L 383.127145 315.581782 
L 381.194062 316.970166 
L 379.352616 318.53357 
L 377.613097 320.268651 
L 375.98533 322.17196 
L 374.478577 324.240052 
L 373.101417 326.469619 
L 371.861567 328.857653 
L 370.76564 331.401621 
L 369.818802 334.099655 
L 369.024269 336.950724 
L 368.382582 339.954721 
L 367.89059 343.112346 
L 367.540082 346.424513 
L 367.244895 351.680713 
L 367.142023 359.177278 
L 367.197506 376.56955 
L 367.414644 381.938317 
L 367.891332 386.964579 
L 368.383176 390.122112 
L 369.024783 393.125981 
L 369.819287 395.976909 
L 370.766131 398.674804 
L 371.862085 401.218639 
L 373.101977 403.606546 
L 374.479184 405.835992 
L 375.985987 407.903967 
L 377.613806 409.807164 
L 379.353374 411.542136 
L 381.194866 413.105432 
L 383.127991 414.49371 
L 385.142074 415.703832 
L 387.226114 416.732941 
L 389.368847 417.578522 
L 391.558786 418.238454 
L 393.784278 418.711049 
L 396.03354 418.995081 
L 398.294706 419.089807 
L 400.555869 418.994977 
L 402.805122 418.710841 
L 405.030599 418.238142 
L 407.220517 417.578106 
L 409.363222 416.732422 
L 411.447231 415.703209 
L 413.461276 414.492981 
L 415.394359 413.104597 
L 417.235804 411.541193 
L 418.975323 409.806112 
L 420.603091 407.902803 
L 422.109844 405.834712 
L 423.487003 403.605144 
L 424.726854 401.21711 
L 425.822781 398.673142 
L 426.769619 395.975108 
L 427.564152 393.124039 
L 428.205839 390.120042 
L 428.697831 386.962417 
L 429.048339 383.65025 
L 429.343526 378.39405 
L 429.446398 370.897485 
L 429.446388 365.037425 
L 429.446388 365.037425 
" clip-path="url(#p0c6ff3ce93)" style="fill: none; stroke: #ff7f0e; stroke-width: 1.5; stroke-linecap: square"/>
   </g>
   <g id="line2d_114">
    <path d="M 429.508225 365.037382 
L 429.369696 362.099883 
L 429.476308 347.422091 
L 429.829425 338.932338 
L 430.682356 324.277689 
L 430.662015 320.173374 
L 430.402683 316.40439 
L 429.894911 312.936905 
L 429.142666 309.746341 
L 428.156901 306.816347 
L 426.952067 304.136899 
L 425.544311 301.702565 
L 423.950562 299.511144 
L 422.18808 297.562674 
L 420.274234 295.858709 
L 418.226398 294.401808 
L 416.061895 293.195177 
L 413.797962 292.242426 
L 411.451719 291.547404 
L 409.040124 291.114113 
L 406.57991 290.946681 
L 404.087496 291.049381 
L 401.578846 291.42672 
L 399.069276 292.083574 
L 396.573147 293.025388 
L 394.103422 294.258438 
L 391.67096 295.790136 
L 389.283431 297.629332 
L 386.943606 299.786445 
L 384.646697 302.273041 
L 382.376442 305.099915 
L 380.100159 308.271687 
L 375.306835 315.556375 
L 371.302838 321.502091 
L 365.688388 329.274634 
L 361.769257 334.805299 
L 359.441837 338.396809 
L 357.383262 341.949723 
L 355.609206 345.487261 
L 354.127054 349.024079 
L 352.940062 352.568002 
L 352.049532 356.121859 
L 351.45589 359.685013 
L 351.159223 363.254585 
L 351.159529 366.82644 
L 351.456807 370.396041 
L 352.05106 373.959261 
L 352.942199 377.513234 
L 354.129784 381.057346 
L 355.612488 384.594458 
L 357.386993 388.132436 
L 359.445792 391.685964 
L 361.772991 395.278208 
L 365.690382 400.809382 
L 371.303032 408.577664 
L 375.310775 414.521581 
L 380.105214 421.808581 
L 382.380833 424.980519 
L 384.650544 427.807024 
L 386.947128 430.293032 
L 389.286794 432.4495 
L 391.674265 434.288058 
L 394.10672 435.819149 
L 396.576457 437.051624 
L 399.072597 437.992892 
L 401.582165 438.649224 
L 404.090791 439.026062 
L 406.583157 439.128278 
L 409.043293 438.960375 
L 411.45478 438.526626 
L 413.800882 437.831154 
L 416.06464 436.877961 
L 418.228933 435.670893 
L 420.276523 434.213558 
L 422.190085 432.509156 
L 423.952246 430.560244 
L 425.545637 428.368368 
L 426.953001 425.933553 
L 428.157414 423.253586 
L 429.142748 420.323016 
L 429.894584 417.131799 
L 430.402038 413.663574 
L 430.661254 409.89381 
L 430.681809 405.788866 
L 430.497113 401.309103 
L 429.556451 385.527188 
L 429.383229 376.795449 
L 429.369911 365.028541 
L 429.369911 365.028541 
" clip-path="url(#p0c6ff3ce93)" style="fill: none; stroke: #2ca02c; stroke-width: 1.5; stroke-linecap: square"/>
   </g>
   <g id="line2d_115">
    <path d="M 429.508225 365.037382 
L 429.262093 361.125228 
L 429.334398 337.463961 
L 429.617586 329.435551 
L 429.942048 325.403046 
L 430.457006 321.420448 
L 431.187111 317.585967 
L 432.088962 314.013973 
L 436.011762 300.432071 
L 436.688314 296.293668 
L 436.863047 292.603604 
L 436.594303 289.283974 
L 435.935888 286.294419 
L 434.934642 283.615116 
L 433.631319 281.237982 
L 432.06193 279.161977 
L 430.258918 277.390514 
L 428.252025 275.930026 
L 426.068903 274.789211 
L 423.735478 273.978728 
L 421.276102 273.511234 
L 418.713454 273.401761 
L 416.068106 273.668456 
L 413.35753 274.333805 
L 410.594088 275.426523 
L 407.780956 276.984291 
L 404.903624 279.057226 
L 401.911533 281.71 
L 398.67856 285.011006 
L 394.935341 288.958001 
L 392.746492 291.093572 
L 390.300914 293.219003 
L 387.640244 295.214714 
L 384.877631 297.009691 
L 379.456925 300.091536 
L 372.095084 304.143909 
L 367.747066 306.800914 
L 363.81551 309.554473 
L 360.271331 312.45821 
L 357.092499 315.53988 
L 354.263625 318.813347 
L 351.774168 322.285002 
L 349.616508 325.957404 
L 347.784079 329.831475 
L 346.269412 333.907812 
L 345.061902 338.187244 
L 344.14514 342.670365 
L 343.493936 347.35534 
L 343.07206 352.232929 
L 342.833355 357.278291 
L 342.718488 365.045892 
L 342.834917 372.813854 
L 343.074146 377.859366 
L 343.4964 382.73667 
L 344.148123 387.420993 
L 345.065644 391.903269 
L 346.274134 396.181792 
L 347.789956 400.257224 
L 349.623676 404.130423 
L 351.782751 407.801997 
L 354.273762 411.272885 
L 357.104368 414.545688 
L 360.285182 417.626887 
L 363.8317 420.530543 
L 367.766057 423.284858 
L 372.117208 425.944475 
L 384.880707 433.100606 
L 387.627119 434.883828 
L 390.288577 436.85589 
L 392.753802 438.970661 
L 396.917713 443.171409 
L 401.923871 448.379084 
L 404.91277 451.029251 
L 407.788793 453.099465 
L 410.601385 454.654904 
L 413.364561 455.745654 
L 416.074935 456.409302 
L 418.720055 456.674489 
L 421.282404 456.563649 
L 423.741389 456.094895 
L 426.074317 455.283234 
L 428.256824 454.141309 
L 430.262973 452.679765 
L 432.065097 450.907286 
L 433.633433 448.830287 
L 434.935513 446.452156 
L 435.935286 443.771802 
L 436.591958 440.781053 
L 436.777254 439.163691 
L 436.85866 437.459902 
L 436.829231 435.663892 
L 436.681679 433.767619 
L 436.408643 431.759974 
L 435.460598 427.343617 
L 433.969867 422.213817 
L 432.096536 416.050741 
L 431.182234 412.49544 
L 430.42528 408.659205 
L 429.895675 404.653439 
L 429.57705 400.599162 
L 429.3171 392.559056 
L 429.262996 376.782218 
L 429.263748 365.016913 
L 429.263748 365.016913 
" clip-path="url(#p0c6ff3ce93)" style="fill: none; stroke: #d62728; stroke-width: 1.5; stroke-linecap: square"/>
   </g>
   <g id="patch_18">
    <path d="M 288.336222 465.838125 
L 288.336222 264.238125 
" style="fill: none; stroke: #000000; stroke-width: 0.8; stroke-linejoin: miter; stroke-linecap: square"/>
   </g>
   <g id="patch_19">
    <path d="M 491.245312 465.838125 
L 491.245312 264.238125 
" style="fill: none; stroke: #000000; stroke-width: 0.8; stroke-linejoin: miter; stroke-linecap: square"/>
   </g>
   <g id="patch_20">
    <path d="M 288.336222 465.838125 
L 491.245312 465.838125 
" style="fill: none; stroke: #000000; stroke-width: 0.8; stroke-linejoin: miter; stroke-linecap: square"/>
   </g>
   <g id="patch_21">
    <path d="M 288.336222 264.238125 
L 491.245312 264.238125 
" style="fill: none; stroke: #000000; stroke-width: 0.8; stroke-linejoin: miter; stroke-linecap: square"/>
   </g>
   <g id="text_53">
    <!-- Runge-Kutta -->
    <g transform="translate(352.802642 258.238125) scale(0.12 -0.12)">
     <defs>
      <path id="DejaVuSans-52" d="M 2841 2188 
Q 3044 2119 3236 1894 
Q 3428 1669 3622 1275 
L 4263 0 
L 3584 0 
L 2988 1197 
Q 2756 1666 2539 1819 
Q 2322 1972 1947 1972 
L 1259 1972 
L 1259 0 
L 628 0 
L 628 4666 
L 2053 4666 
Q 2853 4666 3247 4331 
Q 3641 3997 3641 3322 
Q 3641 2881 3436 2590 
Q 3231 2300 2841 2188 
z
M 1259 4147 
L 1259 2491 
L 2053 2491 
Q 2509 2491 2742 2702 
Q 2975 2913 2975 3322 
Q 2975 3731 2742 3939 
Q 2509 4147 2053 4147 
L 1259 4147 
z
" transform="scale(0.015625)"/>
      <path id="DejaVuSans-67" d="M 2906 1791 
Q 2906 2416 2648 2759 
Q 2391 3103 1925 3103 
Q 1463 3103 1205 2759 
Q 947 2416 947 1791 
Q 947 1169 1205 825 
Q 1463 481 1925 481 
Q 2391 481 2648 825 
Q 2906 1169 2906 1791 
z
M 3481 434 
Q 3481 -459 3084 -895 
Q 2688 -1331 1869 -1331 
Q 1566 -1331 1297 -1286 
Q 1028 -1241 775 -1147 
L 775 -588 
Q 1028 -725 1275 -790 
Q 1522 -856 1778 -856 
Q 2344 -856 2625 -561 
Q 2906 -266 2906 331 
L 2906 616 
Q 2728 306 2450 153 
Q 2172 0 1784 0 
Q 1141 0 747 490 
Q 353 981 353 1791 
Q 353 2603 747 3093 
Q 1141 3584 1784 3584 
Q 2172 3584 2450 3431 
Q 2728 3278 2906 2969 
L 2906 3500 
L 3481 3500 
L 3481 434 
z
" transform="scale(0.015625)"/>
      <path id="DejaVuSans-4b" d="M 628 4666 
L 1259 4666 
L 1259 2694 
L 3353 4666 
L 4166 4666 
L 1850 2491 
L 4331 0 
L 3500 0 
L 1259 2247 
L 1259 0 
L 628 0 
L 628 4666 
z
" transform="scale(0.015625)"/>
     </defs>
     <use xlink:href="#DejaVuSans-52"/>
     <use xlink:href="#DejaVuSans-75" x="64.982422"/>
     <use xlink:href="#DejaVuSans-6e" x="128.361328"/>
     <use xlink:href="#DejaVuSans-67" x="191.740234"/>
     <use xlink:href="#DejaVuSans-65" x="255.216797"/>
     <use xlink:href="#DejaVuSans-2d" x="316.740234"/>
     <use xlink:href="#DejaVuSans-4b" x="352.824219"/>
     <use xlink:href="#DejaVuSans-75" x="413.400391"/>
     <use xlink:href="#DejaVuSans-74" x="476.779297"/>
     <use xlink:href="#DejaVuSans-74" x="515.988281"/>
     <use xlink:href="#DejaVuSans-61" x="555.197266"/>
    </g>
   </g>
  </g>
 </g>
 <defs>
  <clipPath id="p97fbeb774e">
   <rect x="44.845313" y="22.318125" width="202.909091" height="201.6"/>
  </clipPath>
  <clipPath id="pf83e7a0da1">
   <rect x="288.336222" y="22.318125" width="202.909091" height="201.6"/>
  </clipPath>
  <clipPath id="pe1ac9860db">
   <rect x="44.845313" y="264.238125" width="202.909091" height="201.6"/>
  </clipPath>
  <clipPath id="p0c6ff3ce93">
   <rect x="288.336222" y="264.238125" width="202.909091" height="201.6"/>
  </clipPath>
 </defs>
</svg>