<?xml version="1.0" encoding="utf-8" standalone="no"?>
<!DOCTYPE svg PUBLIC "-//W3C//DTD SVG 1.1//EN"
  "http://www.w3.org/Graphics/SVG/1.1/DTD/svg11.dtd">
<svg xmlns:xlink="http://www.w3.org/1999/xlink" width="509.578125pt" height="478.397344pt" viewBox="0 0 509.578125 478.397344" xmlns="http://www.w3.org/2000/svg" version="1.1">
 <metadata>
  <rdf:RDF xmlns:dc="http://purl.org/dc/elements/1.1/" xmlns:cc="http://creativecommons.org/ns#" xmlns:rdf="http://www.w3.org/1999/02/22-rdf-syntax-ns#">
   <cc:Work>
    <dc:type rdf:resource="http://purl.org/dc/dcmitype/StillImage"/>
    <dc:date>2025-04-03T12:57:48.051990</dc:date>
    <dc:format>image/svg+xml</dc:format>
    <dc:creator>
     <cc:Agent>
      <dc:title>Matplotlib v3.10.1, https://matplotlib.org/</dc:title>
     </cc:Agent>
    </dc:creator>
   </cc:Work>
  </rdf:RDF>
 </metadata>
 <defs>
  <style type="text/css">*{stroke-linejoin: round; stroke-linecap: butt}</style>
 </defs>
 <g id="figure_1">
  <g id="patch_1">
   <path d="M 0 478.397344 
L 509.578125 478.397344 
L 509.578125 0 
L 0 0 
z
" style="fill: #ffffff"/>
  </g>
  <g id="axes_1">
   <g id="patch_2">
    <path d="M 44.845313 454.519219 
L 491.245312 454.519219 
L 491.245312 10.999219 
L 44.845313 10.999219 
z
" style="fill: #ffffff"/>
   </g>
   <g id="matplotlib.axis_1">
    <g id="xtick_1">
     <g id="line2d_1">
      <defs>
       <path id="ma5721f8c1d" d="M 0 0 
L 0 3.5 
" style="stroke: #000000; stroke-width: 0.8"/>
      </defs>
      <g>
       <use xlink:href="#ma5721f8c1d" x="44.845313" y="454.519219" style="stroke: #000000; stroke-width: 0.8"/>
      </g>
     </g>
     <g id="text_1">
      <!-- −1.00 -->
      <g transform="translate(29.522656 469.117656) scale(0.1 -0.1)">
       <defs>
        <path id="DejaVuSans-2212" d="M 678 2272 
L 4684 2272 
L 4684 1741 
L 678 1741 
L 678 2272 
z
" transform="scale(0.015625)"/>
        <path id="DejaVuSans-31" d="M 794 531 
L 1825 531 
L 1825 4091 
L 703 3866 
L 703 4441 
L 1819 4666 
L 2450 4666 
L 2450 531 
L 3481 531 
L 3481 0 
L 794 0 
L 794 531 
z
" transform="scale(0.015625)"/>
        <path id="DejaVuSans-2e" d="M 684 794 
L 1344 794 
L 1344 0 
L 684 0 
L 684 794 
z
" transform="scale(0.015625)"/>
        <path id="DejaVuSans-30" d="M 2034 4250 
Q 1547 4250 1301 3770 
Q 1056 3291 1056 2328 
Q 1056 1369 1301 889 
Q 1547 409 2034 409 
Q 2525 409 2770 889 
Q 3016 1369 3016 2328 
Q 3016 3291 2770 3770 
Q 2525 4250 2034 4250 
z
M 2034 4750 
Q 2819 4750 3233 4129 
Q 3647 3509 3647 2328 
Q 3647 1150 3233 529 
Q 2819 -91 2034 -91 
Q 1250 -91 836 529 
Q 422 1150 422 2328 
Q 422 3509 836 4129 
Q 1250 4750 2034 4750 
z
" transform="scale(0.015625)"/>
       </defs>
       <use xlink:href="#DejaVuSans-2212"/>
       <use xlink:href="#DejaVuSans-31" transform="translate(83.789062 0)"/>
       <use xlink:href="#DejaVuSans-2e" transform="translate(147.412109 0)"/>
       <use xlink:href="#DejaVuSans-30" transform="translate(179.199219 0)"/>
       <use xlink:href="#DejaVuSans-30" transform="translate(242.822266 0)"/>
      </g>
     </g>
    </g>
    <g id="xtick_2">
     <g id="line2d_2">
      <g>
       <use xlink:href="#ma5721f8c1d" x="100.645313" y="454.519219" style="stroke: #000000; stroke-width: 0.8"/>
      </g>
     </g>
     <g id="text_2">
      <!-- −0.75 -->
      <g transform="translate(85.322656 469.117656) scale(0.1 -0.1)">
       <defs>
        <path id="DejaVuSans-37" d="M 525 4666 
L 3525 4666 
L 3525 4397 
L 1831 0 
L 1172 0 
L 2766 4134 
L 525 4134 
L 525 4666 
z
" transform="scale(0.015625)"/>
        <path id="DejaVuSans-35" d="M 691 4666 
L 3169 4666 
L 3169 4134 
L 1269 4134 
L 1269 2991 
Q 1406 3038 1543 3061 
Q 1681 3084 1819 3084 
Q 2600 3084 3056 2656 
Q 3513 2228 3513 1497 
Q 3513 744 3044 326 
Q 2575 -91 1722 -91 
Q 1428 -91 1123 -41 
Q 819 9 494 109 
L 494 744 
Q 775 591 1075 516 
Q 1375 441 1709 441 
Q 2250 441 2565 725 
Q 2881 1009 2881 1497 
Q 2881 1984 2565 2268 
Q 2250 2553 1709 2553 
Q 1456 2553 1204 2497 
Q 953 2441 691 2322 
L 691 4666 
z
" transform="scale(0.015625)"/>
       </defs>
       <use xlink:href="#DejaVuSans-2212"/>
       <use xlink:href="#DejaVuSans-30" transform="translate(83.789062 0)"/>
       <use xlink:href="#DejaVuSans-2e" transform="translate(147.412109 0)"/>
       <use xlink:href="#DejaVuSans-37" transform="translate(179.199219 0)"/>
       <use xlink:href="#DejaVuSans-35" transform="translate(242.822266 0)"/>
      </g>
     </g>
    </g>
    <g id="xtick_3">
     <g id="line2d_3">
      <g>
       <use xlink:href="#ma5721f8c1d" x="156.445313" y="454.519219" style="stroke: #000000; stroke-width: 0.8"/>
      </g>
     </g>
     <g id="text_3">
      <!-- −0.50 -->
      <g transform="translate(141.122656 469.117656) scale(0.1 -0.1)">
       <use xlink:href="#DejaVuSans-2212"/>
       <use xlink:href="#DejaVuSans-30" transform="translate(83.789062 0)"/>
       <use xlink:href="#DejaVuSans-2e" transform="translate(147.412109 0)"/>
       <use xlink:href="#DejaVuSans-35" transform="translate(179.199219 0)"/>
       <use xlink:href="#DejaVuSans-30" transform="translate(242.822266 0)"/>
      </g>
     </g>
    </g>
    <g id="xtick_4">
     <g id="line2d_4">
      <g>
       <use xlink:href="#ma5721f8c1d" x="212.245313" y="454.519219" style="stroke: #000000; stroke-width: 0.8"/>
      </g>
     </g>
     <g id="text_4">
      <!-- −0.25 -->
      <g transform="translate(196.922656 469.117656) scale(0.1 -0.1)">
       <defs>
        <path id="DejaVuSans-32" d="M 1228 531 
L 3431 531 
L 3431 0 
L 469 0 
L 469 531 
Q 828 903 1448 1529 
Q 2069 2156 2228 2338 
Q 2531 2678 2651 2914 
Q 2772 3150 2772 3378 
Q 2772 3750 2511 3984 
Q 2250 4219 1831 4219 
Q 1534 4219 1204 4116 
Q 875 4013 500 3803 
L 500 4441 
Q 881 4594 1212 4672 
Q 1544 4750 1819 4750 
Q 2544 4750 2975 4387 
Q 3406 4025 3406 3419 
Q 3406 3131 3298 2873 
Q 3191 2616 2906 2266 
Q 2828 2175 2409 1742 
Q 1991 1309 1228 531 
z
" transform="scale(0.015625)"/>
       </defs>
       <use xlink:href="#DejaVuSans-2212"/>
       <use xlink:href="#DejaVuSans-30" transform="translate(83.789062 0)"/>
       <use xlink:href="#DejaVuSans-2e" transform="translate(147.412109 0)"/>
       <use xlink:href="#DejaVuSans-32" transform="translate(179.199219 0)"/>
       <use xlink:href="#DejaVuSans-35" transform="translate(242.822266 0)"/>
      </g>
     </g>
    </g>
    <g id="xtick_5">
     <g id="line2d_5">
      <g>
       <use xlink:href="#ma5721f8c1d" x="268.045313" y="454.519219" style="stroke: #000000; stroke-width: 0.8"/>
      </g>
     </g>
     <g id="text_5">
      <!-- 0.00 -->
      <g transform="translate(256.9125 469.117656) scale(0.1 -0.1)">
       <use xlink:href="#DejaVuSans-30"/>
       <use xlink:href="#DejaVuSans-2e" transform="translate(63.623047 0)"/>
       <use xlink:href="#DejaVuSans-30" transform="translate(95.410156 0)"/>
       <use xlink:href="#DejaVuSans-30" transform="translate(159.033203 0)"/>
      </g>
     </g>
    </g>
    <g id="xtick_6">
     <g id="line2d_6">
      <g>
       <use xlink:href="#ma5721f8c1d" x="323.845313" y="454.519219" style="stroke: #000000; stroke-width: 0.8"/>
      </g>
     </g>
     <g id="text_6">
      <!-- 0.25 -->
      <g transform="translate(312.7125 469.117656) scale(0.1 -0.1)">
       <use xlink:href="#DejaVuSans-30"/>
       <use xlink:href="#DejaVuSans-2e" transform="translate(63.623047 0)"/>
       <use xlink:href="#DejaVuSans-32" transform="translate(95.410156 0)"/>
       <use xlink:href="#DejaVuSans-35" transform="translate(159.033203 0)"/>
      </g>
     </g>
    </g>
    <g id="xtick_7">
     <g id="line2d_7">
      <g>
       <use xlink:href="#ma5721f8c1d" x="379.645313" y="454.519219" style="stroke: #000000; stroke-width: 0.8"/>
      </g>
     </g>
     <g id="text_7">
      <!-- 0.50 -->
      <g transform="translate(368.5125 469.117656) scale(0.1 -0.1)">
       <use xlink:href="#DejaVuSans-30"/>
       <use xlink:href="#DejaVuSans-2e" transform="translate(63.623047 0)"/>
       <use xlink:href="#DejaVuSans-35" transform="translate(95.410156 0)"/>
       <use xlink:href="#DejaVuSans-30" transform="translate(159.033203 0)"/>
      </g>
     </g>
    </g>
    <g id="xtick_8">
     <g id="line2d_8">
      <g>
       <use xlink:href="#ma5721f8c1d" x="435.445312" y="454.519219" style="stroke: #000000; stroke-width: 0.8"/>
      </g>
     </g>
     <g id="text_8">
      <!-- 0.75 -->
      <g transform="translate(424.3125 469.117656) scale(0.1 -0.1)">
       <use xlink:href="#DejaVuSans-30"/>
       <use xlink:href="#DejaVuSans-2e" transform="translate(63.623047 0)"/>
       <use xlink:href="#DejaVuSans-37" transform="translate(95.410156 0)"/>
       <use xlink:href="#DejaVuSans-35" transform="translate(159.033203 0)"/>
      </g>
     </g>
    </g>
    <g id="xtick_9">
     <g id="line2d_9">
      <g>
       <use xlink:href="#ma5721f8c1d" x="491.245313" y="454.519219" style="stroke: #000000; stroke-width: 0.8"/>
      </g>
     </g>
     <g id="text_9">
      <!-- 1.00 -->
      <g transform="translate(480.1125 469.117656) scale(0.1 -0.1)">
       <use xlink:href="#DejaVuSans-31"/>
       <use xlink:href="#DejaVuSans-2e" transform="translate(63.623047 0)"/>
       <use xlink:href="#DejaVuSans-30" transform="translate(95.410156 0)"/>
       <use xlink:href="#DejaVuSans-30" transform="translate(159.033203 0)"/>
      </g>
     </g>
    </g>
   </g>
   <g id="matplotlib.axis_2">
    <g id="ytick_1">
     <g id="line2d_10">
      <defs>
       <path id="mb8ea7ffca4" d="M 0 0 
L -3.5 0 
" style="stroke: #000000; stroke-width: 0.8"/>
      </defs>
      <g>
       <use xlink:href="#mb8ea7ffca4" x="44.845313" y="454.519219" style="stroke: #000000; stroke-width: 0.8"/>
      </g>
     </g>
     <g id="text_10">
      <!-- −1.00 -->
      <g transform="translate(7.2 458.318438) scale(0.1 -0.1)">
       <use xlink:href="#DejaVuSans-2212"/>
       <use xlink:href="#DejaVuSans-31" transform="translate(83.789062 0)"/>
       <use xlink:href="#DejaVuSans-2e" transform="translate(147.412109 0)"/>
       <use xlink:href="#DejaVuSans-30" transform="translate(179.199219 0)"/>
       <use xlink:href="#DejaVuSans-30" transform="translate(242.822266 0)"/>
      </g>
     </g>
    </g>
    <g id="ytick_2">
     <g id="line2d_11">
      <g>
       <use xlink:href="#mb8ea7ffca4" x="44.845313" y="399.079219" style="stroke: #000000; stroke-width: 0.8"/>
      </g>
     </g>
     <g id="text_11">
      <!-- −0.75 -->
      <g transform="translate(7.2 402.878438) scale(0.1 -0.1)">
       <use xlink:href="#DejaVuSans-2212"/>
       <use xlink:href="#DejaVuSans-30" transform="translate(83.789062 0)"/>
       <use xlink:href="#DejaVuSans-2e" transform="translate(147.412109 0)"/>
       <use xlink:href="#DejaVuSans-37" transform="translate(179.199219 0)"/>
       <use xlink:href="#DejaVuSans-35" transform="translate(242.822266 0)"/>
      </g>
     </g>
    </g>
    <g id="ytick_3">
     <g id="line2d_12">
      <g>
       <use xlink:href="#mb8ea7ffca4" x="44.845313" y="343.639219" style="stroke: #000000; stroke-width: 0.8"/>
      </g>
     </g>
     <g id="text_12">
      <!-- −0.50 -->
      <g transform="translate(7.2 347.438437) scale(0.1 -0.1)">
       <use xlink:href="#DejaVuSans-2212"/>
       <use xlink:href="#DejaVuSans-30" transform="translate(83.789062 0)"/>
       <use xlink:href="#DejaVuSans-2e" transform="translate(147.412109 0)"/>
       <use xlink:href="#DejaVuSans-35" transform="translate(179.199219 0)"/>
       <use xlink:href="#DejaVuSans-30" transform="translate(242.822266 0)"/>
      </g>
     </g>
    </g>
    <g id="ytick_4">
     <g id="line2d_13">
      <g>
       <use xlink:href="#mb8ea7ffca4" x="44.845313" y="288.199219" style="stroke: #000000; stroke-width: 0.8"/>
      </g>
     </g>
     <g id="text_13">
      <!-- −0.25 -->
      <g transform="translate(7.2 291.998438) scale(0.1 -0.1)">
       <use xlink:href="#DejaVuSans-2212"/>
       <use xlink:href="#DejaVuSans-30" transform="translate(83.789062 0)"/>
       <use xlink:href="#DejaVuSans-2e" transform="translate(147.412109 0)"/>
       <use xlink:href="#DejaVuSans-32" transform="translate(179.199219 0)"/>
       <use xlink:href="#DejaVuSans-35" transform="translate(242.822266 0)"/>
      </g>
     </g>
    </g>
    <g id="ytick_5">
     <g id="line2d_14">
      <g>
       <use xlink:href="#mb8ea7ffca4" x="44.845313" y="232.759219" style="stroke: #000000; stroke-width: 0.8"/>
      </g>
     </g>
     <g id="text_14">
      <!-- 0.00 -->
      <g transform="translate(15.579688 236.558437) scale(0.1 -0.1)">
       <use xlink:href="#DejaVuSans-30"/>
       <use xlink:href="#DejaVuSans-2e" transform="translate(63.623047 0)"/>
       <use xlink:href="#DejaVuSans-30" transform="translate(95.410156 0)"/>
       <use xlink:href="#DejaVuSans-30" transform="translate(159.033203 0)"/>
      </g>
     </g>
    </g>
    <g id="ytick_6">
     <g id="line2d_15">
      <g>
       <use xlink:href="#mb8ea7ffca4" x="44.845313" y="177.319219" style="stroke: #000000; stroke-width: 0.8"/>
      </g>
     </g>
     <g id="text_15">
      <!-- 0.25 -->
      <g transform="translate(15.579688 181.118438) scale(0.1 -0.1)">
       <use xlink:href="#DejaVuSans-30"/>
       <use xlink:href="#DejaVuSans-2e" transform="translate(63.623047 0)"/>
       <use xlink:href="#DejaVuSans-32" transform="translate(95.410156 0)"/>
       <use xlink:href="#DejaVuSans-35" transform="translate(159.033203 0)"/>
      </g>
     </g>
    </g>
    <g id="ytick_7">
     <g id="line2d_16">
      <g>
       <use xlink:href="#mb8ea7ffca4" x="44.845313" y="121.879219" style="stroke: #000000; stroke-width: 0.8"/>
      </g>
     </g>
     <g id="text_16">
      <!-- 0.50 -->
      <g transform="translate(15.579688 125.678438) scale(0.1 -0.1)">
       <use xlink:href="#DejaVuSans-30"/>
       <use xlink:href="#DejaVuSans-2e" transform="translate(63.623047 0)"/>
       <use xlink:href="#DejaVuSans-35" transform="translate(95.410156 0)"/>
       <use xlink:href="#DejaVuSans-30" transform="translate(159.033203 0)"/>
      </g>
     </g>
    </g>
    <g id="ytick_8">
     <g id="line2d_17">
      <g>
       <use xlink:href="#mb8ea7ffca4" x="44.845313" y="66.439219" style="stroke: #000000; stroke-width: 0.8"/>
      </g>
     </g>
     <g id="text_17">
      <!-- 0.75 -->
      <g transform="translate(15.579688 70.238438) scale(0.1 -0.1)">
       <use xlink:href="#DejaVuSans-30"/>
       <use xlink:href="#DejaVuSans-2e" transform="translate(63.623047 0)"/>
       <use xlink:href="#DejaVuSans-37" transform="translate(95.410156 0)"/>
       <use xlink:href="#DejaVuSans-35" transform="translate(159.033203 0)"/>
      </g>
     </g>
    </g>
    <g id="ytick_9">
     <g id="line2d_18">
      <g>
       <use xlink:href="#mb8ea7ffca4" x="44.845313" y="10.999219" style="stroke: #000000; stroke-width: 0.8"/>
      </g>
     </g>
     <g id="text_18">
      <!-- 1.00 -->
      <g transform="translate(15.579688 14.798438) scale(0.1 -0.1)">
       <use xlink:href="#DejaVuSans-31"/>
       <use xlink:href="#DejaVuSans-2e" transform="translate(63.623047 0)"/>
       <use xlink:href="#DejaVuSans-30" transform="translate(95.410156 0)"/>
       <use xlink:href="#DejaVuSans-30" transform="translate(159.033203 0)"/>
      </g>
     </g>
    </g>
   </g>
   <g id="QuadContourSet_1">
    <path clip-path="url(#p5493fdd321)" style="fill: none; stroke: #440154; stroke-width: 1.5"/>
    <path d="M 99.083066 229.000575 
L 105.374126 236.105187 
L 112.940228 233.971005 
L 115.728051 229.000575 
L 112.940228 226.501107 
L 105.374126 224.904072 
L 99.083066 229.000575 
z
" clip-path="url(#p5493fdd321)" style="fill: none; stroke: #482475; stroke-width: 1.5"/>
    <path d="M 82.567801 244.035151 
L 82.675821 244.145981 
L 90.241923 249.329166 
L 96.396917 251.552439 
L 97.808024 251.911025 
L 105.374126 252.631111 
L 112.940228 252.276199 
L 117.052505 251.552439 
L 120.506329 250.736525 
L 128.072431 247.645308 
L 134.094769 244.035151 
L 135.638533 242.36505 
L 139.82264 236.517863 
L 140.698143 229.000575 
L 137.392589 221.483287 
L 135.638533 219.668301 
L 128.926915 213.965998 
L 128.072431 213.487629 
L 120.506329 210.216843 
L 112.940228 208.007563 
L 105.374126 206.97881 
L 97.808024 207.344992 
L 90.241923 209.527438 
L 83.23835 213.965998 
L 82.675821 214.596754 
L 78.649363 221.483287 
L 77.196894 229.000575 
L 78.375492 236.517863 
L 82.567801 244.035151 
z
M 119.29486 409.41549 
L 120.506329 413.869897 
L 121.783556 416.932778 
L 128.072431 419.977214 
L 135.638533 421.656571 
L 143.204635 421.567419 
L 150.770736 419.756264 
L 156.42661 416.932778 
L 158.336838 414.9182 
L 161.746381 409.41549 
L 161.445497 401.898202 
L 158.336838 398.275373 
L 150.770736 395.055951 
L 143.204635 395.273906 
L 135.638533 397.309725 
L 128.072431 400.473695 
L 125.457433 401.898202 
L 120.506329 407.754907 
L 119.29486 409.41549 
z
M 121.270308 56.102948 
L 128.072431 62.040753 
L 130.438792 63.620236 
L 135.638533 65.263653 
L 143.204635 66.748565 
L 150.770736 67.136039 
L 158.336838 65.995735 
L 163.788789 63.620236 
L 165.90294 60.483394 
L 167.628215 56.102948 
L 165.90294 52.250002 
L 163.569909 48.585659 
L 158.336838 45.744689 
L 150.770736 43.45791 
L 143.204635 42.74484 
L 135.638533 43.514877 
L 128.072431 45.870011 
L 123.04418 48.585659 
L 121.270308 56.102948 
z
M 261.285899 326.72532 
L 264.262262 328.784999 
L 271.828363 333.342143 
L 273.440785 334.242609 
L 279.394465 336.047869 
L 286.960567 338.243914 
L 294.526668 340.458333 
L 298.916633 341.759897 
L 302.09277 342.415151 
L 309.658872 343.903792 
L 317.224974 345.320757 
L 324.791075 346.533616 
L 332.357177 347.260512 
L 339.923279 346.964586 
L 347.48938 344.270573 
L 350.206462 341.759897 
L 349.576661 334.242609 
L 347.48938 331.56049 
L 343.674323 326.72532 
L 339.923279 324.065732 
L 332.796488 319.208032 
L 332.357177 319.007987 
L 324.791075 316.054888 
L 317.224974 313.440006 
L 311.327528 311.690744 
L 309.658872 311.330952 
L 302.09277 310.144525 
L 294.526668 309.403903 
L 286.960567 309.203637 
L 279.394465 309.666508 
L 271.828363 310.955468 
L 269.280141 311.690744 
L 264.262262 314.906816 
L 259.663207 319.208032 
L 261.285899 326.72532 
z
M 260.761574 161.344981 
L 264.262262 164.826867 
L 270.557203 168.86227 
L 271.828363 169.28663 
L 279.394465 170.4631 
L 286.960567 170.475412 
L 294.526668 169.437066 
L 296.680568 168.86227 
L 302.09277 165.09247 
L 305.400657 161.344981 
L 302.257292 153.827693 
L 302.09277 153.718038 
L 294.526668 149.622856 
L 286.960567 146.55019 
L 285.778866 146.310405 
L 279.394465 145.566907 
L 271.828363 145.791632 
L 269.426079 146.310405 
L 264.262262 148.876467 
L 259.731964 153.827693 
L 260.761574 161.344981 
M 430.518366 206.44871 
L 430.716499 206.521418 
L 430.923679 206.44871 
L 430.716499 206.111254 
L 430.518366 206.44871 
" clip-path="url(#p5493fdd321)" style="fill: none; stroke: #414487; stroke-width: 1.5"/>
    <path d="M 67.419397 244.035151 
L 67.543618 244.3042 
L 72.023495 251.552439 
L 75.109719 254.530328 
L 82.656311 259.069727 
L 82.675821 259.078039 
L 90.241923 261.156217 
L 97.808024 262.134701 
L 105.374126 262.335652 
L 112.940228 261.899822 
L 120.506329 260.874025 
L 128.072431 259.254607 
L 128.717347 259.069727 
L 135.638533 256.548122 
L 143.204635 252.790029 
L 145.204567 251.552439 
L 150.770736 246.353601 
L 152.841239 244.035151 
L 156.316898 236.517863 
L 156.724861 229.000575 
L 154.226168 221.483287 
L 150.770736 216.833696 
L 148.407088 213.965998 
L 143.204635 209.975885 
L 137.78575 206.44871 
L 135.638533 205.410802 
L 128.072431 202.317541 
L 120.506329 199.863629 
L 116.641637 198.931422 
L 112.940228 198.150091 
L 105.374126 197.156465 
L 97.808024 196.843322 
L 90.241923 197.385324 
L 83.50628 198.931422 
L 82.675821 199.184902 
L 75.109719 203.493831 
L 72.044131 206.44871 
L 67.543618 213.790454 
L 67.464625 213.965998 
L 65.48418 221.483287 
L 64.837178 229.000575 
L 65.419369 236.517863 
L 67.419397 244.035151 
M 96.197003 424.450066 
L 97.808024 425.685973 
L 105.374126 430.202776 
L 109.502354 431.967354 
L 112.940228 432.943929 
L 120.506329 434.474759 
L 128.072431 435.403394 
L 135.638533 435.786226 
L 143.204635 435.626781 
L 150.770736 434.865528 
L 158.336838 433.330219 
L 162.40803 431.967354 
L 165.90294 430.364603 
L 173.469041 424.943402 
L 173.952847 424.450066 
L 178.734936 416.932778 
L 181.035143 410.249058 
L 181.269413 409.41549 
L 182.073782 401.898202 
L 181.541591 394.380914 
L 181.035143 392.588748 
L 178.465771 386.863626 
L 173.469041 382.234774 
L 165.90294 379.587347 
L 162.033033 379.346337 
L 158.336838 379.187425 
L 156.580021 379.346337 
L 150.770736 379.897412 
L 143.204635 381.322844 
L 135.638533 383.174961 
L 128.072431 385.338252 
L 123.339757 386.863626 
L 120.506329 388.008916 
L 112.940228 391.364422 
L 106.650752 394.380914 
L 105.374126 395.288184 
L 97.808024 401.077675 
L 96.810972 401.898202 
L 92.169442 409.41549 
L 91.846161 416.932778 
L 96.197003 424.450066 
M 96.356925 63.620236 
L 97.808024 64.731639 
L 105.374126 69.778979 
L 107.723996 71.137524 
L 112.940228 73.14677 
L 120.506329 75.661429 
L 128.072431 77.806417 
L 131.649104 78.654812 
L 135.638533 79.412617 
L 143.204635 80.546944 
L 150.770736 81.329732 
L 158.336838 81.649688 
L 165.90294 81.315985 
L 173.469041 80.003313 
L 177.250286 78.654812 
L 181.035143 76.515417 
L 186.404492 71.137524 
L 188.601245 66.345034 
L 189.525085 63.620236 
L 190.01725 56.102948 
L 188.601245 49.261717 
L 188.43359 48.585659 
L 183.694412 41.068371 
L 181.035143 38.724005 
L 173.469041 34.102248 
L 172.157415 33.551083 
L 165.90294 31.691551 
L 158.336838 30.26476 
L 150.770736 29.47237 
L 143.204635 29.184522 
L 135.638533 29.336514 
L 128.072431 29.919452 
L 120.506329 30.963549 
L 112.940228 32.539781 
L 109.359046 33.551083 
L 105.374126 35.252367 
L 97.808024 39.634627 
L 95.872921 41.068371 
L 91.317442 48.585659 
L 91.528191 56.102948 
L 96.356925 63.620236 
M 231.645271 326.72532 
L 233.997855 331.507707 
L 235.813377 334.242609 
L 241.563957 337.678462 
L 249.130058 340.780862 
L 252.064542 341.759897 
L 256.69616 342.746769 
L 264.262262 344.230746 
L 271.828363 345.703641 
L 279.394465 347.26662 
L 286.960567 348.965558 
L 288.24808 349.277185 
L 294.526668 350.518265 
L 302.09277 352.156881 
L 309.658872 353.958642 
L 317.224974 355.91454 
L 320.625986 356.794473 
L 324.791075 357.789154 
L 332.357177 359.49709 
L 339.923279 361.096451 
L 347.48938 362.441751 
L 355.055482 363.216873 
L 362.621584 362.82625 
L 370.187685 360.152488 
L 374.116485 356.794473 
L 376.632877 349.277185 
L 375.358875 341.759897 
L 371.610135 334.242609 
L 370.187685 332.46255 
L 365.532572 326.72532 
L 362.621584 324.151139 
L 356.721062 319.208032 
L 355.055482 318.156446 
L 347.48938 313.815633 
L 343.441516 311.690744 
L 339.923279 310.213824 
L 332.357177 307.382419 
L 324.791075 304.847008 
L 322.50718 304.173456 
L 317.224974 302.84427 
L 309.658872 301.214498 
L 302.09277 299.847235 
L 294.526668 298.768534 
L 286.960567 298.02498 
L 279.394465 297.676342 
L 271.828363 297.813568 
L 264.262262 298.563939 
L 256.69616 300.072119 
L 249.130058 302.509562 
L 245.466641 304.173456 
L 241.563957 306.851356 
L 236.106355 311.690744 
L 233.997855 315.397883 
L 232.058198 319.208032 
L 231.645271 326.72532 
z
M 241.150216 168.86227 
L 241.563957 169.376475 
L 248.871368 176.379558 
L 249.130058 176.541654 
L 256.69616 180.109178 
L 264.262262 182.440947 
L 271.828363 183.797071 
L 273.101895 183.896846 
L 279.394465 184.290247 
L 286.960567 184.278683 
L 294.332815 183.896846 
L 294.526668 183.884337 
L 302.09277 182.996035 
L 309.658872 181.766675 
L 317.224974 180.254346 
L 324.791075 178.494814 
L 332.357177 176.485602 
L 332.755006 176.379558 
L 339.923279 170.645802 
L 341.441232 168.86227 
L 339.923279 164.932637 
L 338.964593 161.344981 
L 332.608116 153.827693 
L 332.357177 153.639498 
L 324.791075 147.714832 
L 323.024096 146.310405 
L 317.224974 143.175226 
L 309.658872 139.444206 
L 308.147563 138.793117 
L 302.09277 136.78268 
L 294.526668 134.721907 
L 286.960567 133.104817 
L 279.394465 131.947443 
L 271.828363 131.314562 
L 264.262262 131.349222 
L 256.69616 132.308376 
L 249.130058 134.685347 
L 242.551434 138.793117 
L 241.563957 139.940765 
L 237.881151 146.310405 
L 236.648469 153.827693 
L 237.728958 161.344981 
L 241.150216 168.86227 
z
M 389.471343 198.931422 
L 392.88599 203.240501 
L 395.105952 206.44871 
L 400.452092 211.978286 
L 402.34846 213.965998 
L 408.018194 218.760412 
L 411.527129 221.483287 
L 415.584296 224.211762 
L 423.150397 228.415849 
L 424.677852 229.000575 
L 430.716499 231.079729 
L 438.282601 232.322638 
L 445.848702 231.882705 
L 453.414804 229.068528 
L 453.510363 229.000575 
L 460.297132 221.483287 
L 460.980906 219.98199 
L 462.918246 213.965998 
L 463.500125 206.44871 
L 462.235724 198.931422 
L 460.980906 196.069797 
L 458.306922 191.414134 
L 453.414804 186.620963 
L 449.348127 183.896846 
L 445.848702 182.290577 
L 438.282601 180.009367 
L 430.716499 178.634165 
L 423.150397 177.933812 
L 415.584296 177.803464 
L 408.018194 178.210397 
L 400.452092 179.251622 
L 392.88599 181.251195 
L 387.262502 183.896846 
L 385.86822 191.414134 
L 389.471343 198.931422 
z
" clip-path="url(#p5493fdd321)" style="fill: none; stroke: #355f8d; stroke-width: 1.5"/>
    <path d="M 57.520206 251.552439 
L 59.977516 257.086165 
L 61.20814 259.069727 
L 67.543618 264.964508 
L 70.633931 266.587015 
L 75.109719 268.253509 
L 82.675821 269.83757 
L 90.241923 270.588586 
L 97.808024 270.798116 
L 105.374126 270.611595 
L 112.940228 270.087895 
L 120.506329 269.240717 
L 128.072431 268.061322 
L 135.227167 266.587015 
L 135.638533 266.488083 
L 143.204635 264.245483 
L 150.770736 261.287825 
L 155.25347 259.069727 
L 158.336838 256.950679 
L 164.635202 251.552439 
L 165.90294 249.792458 
L 169.578011 244.035151 
L 171.901634 236.517863 
L 172.168088 229.000575 
L 170.380299 221.483287 
L 165.967268 213.965998 
L 165.90294 213.899491 
L 158.336838 206.836267 
L 157.872015 206.44871 
L 150.770736 202.294018 
L 144.006787 198.931422 
L 143.204635 198.612173 
L 135.638533 195.836032 
L 128.072431 193.4701 
L 120.506329 191.465235 
L 120.270885 191.414134 
L 112.940228 189.901494 
L 105.374126 188.70895 
L 97.808024 187.919033 
L 90.241923 187.61018 
L 82.675821 187.957576 
L 75.109719 189.281161 
L 69.503504 191.414134 
L 67.543618 192.446564 
L 60.875756 198.931422 
L 59.977516 200.43223 
L 57.418656 206.44871 
L 55.666152 213.965998 
L 54.777757 221.483287 
L 54.489826 229.000575 
L 54.761131 236.517863 
L 55.679026 244.035151 
L 57.520206 251.552439 
M 67.402422 48.585659 
L 67.543618 52.027014 
L 67.714279 56.102948 
L 70.360393 63.620236 
L 75.109719 69.475689 
L 76.735678 71.137524 
L 82.675821 74.762663 
L 90.241923 78.306007 
L 91.07747 78.654812 
L 97.808024 80.716963 
L 105.374126 82.727573 
L 112.940228 84.531714 
L 120.367413 86.1721 
L 120.506329 86.19854 
L 128.072431 87.590037 
L 135.638533 88.88712 
L 143.204635 90.090302 
L 150.770736 91.179458 
L 158.336838 92.114389 
L 165.90294 92.831165 
L 173.469041 93.223559 
L 181.035143 93.060315 
L 188.601245 91.807037 
L 196.167346 88.100417 
L 198.114066 86.1721 
L 202.377788 78.654812 
L 203.733448 73.742994 
L 204.276949 71.137524 
L 205.048058 63.620236 
L 205.08864 56.102948 
L 204.351592 48.585659 
L 203.733448 45.794363 
L 202.473982 41.068371 
L 198.519221 33.551083 
L 196.167346 30.987039 
L 189.115733 26.033795 
L 188.601245 25.792185 
L 181.035143 23.231965 
L 173.469041 21.664925 
L 165.90294 20.668685 
L 158.336838 20.045172 
L 150.770736 19.695567 
L 143.204635 19.562223 
L 135.638533 19.615664 
L 128.072431 19.850276 
L 120.506329 20.276868 
L 112.940228 20.923189 
L 105.374126 21.8423 
L 97.808024 23.126724 
L 90.241923 24.936587 
L 86.773471 26.033795 
L 82.675821 27.885027 
L 75.109719 32.787621 
L 74.21708 33.551083 
L 69.229654 41.068371 
L 67.543618 47.949549 
L 67.402422 48.585659 
M 74.791196 431.967354 
L 75.109719 432.244829 
L 82.675821 437.35812 
L 87.247269 439.484642 
L 90.241923 440.452305 
L 97.808024 442.318762 
L 105.374126 443.630579 
L 112.940228 444.551039 
L 120.506329 445.173082 
L 128.072431 445.546246 
L 135.638533 445.690097 
L 143.204635 445.601809 
L 150.770736 445.251063 
L 158.336838 444.557149 
L 165.90294 443.359061 
L 173.469041 441.335426 
L 177.756103 439.484642 
L 181.035143 437.488986 
L 186.554739 431.967354 
L 188.601245 428.61109 
L 190.450863 424.450066 
L 192.639525 416.932778 
L 194.100443 409.41549 
L 195.147708 401.898202 
L 195.92346 394.380914 
L 196.167346 390.641839 
L 196.425694 386.863626 
L 196.591318 379.346337 
L 196.167346 372.878487 
L 196.04034 371.829049 
L 190.343653 364.311761 
L 188.601245 363.694207 
L 181.035143 363.472379 
L 174.230144 364.311761 
L 173.469041 364.386665 
L 165.90294 365.791746 
L 158.336838 367.424067 
L 150.770736 369.237274 
L 143.204635 371.175656 
L 140.834787 371.829049 
L 135.638533 373.289886 
L 128.072431 375.488594 
L 120.506329 377.718879 
L 115.040893 379.346337 
L 112.940228 380.066206 
L 105.374126 382.6519 
L 97.808024 385.313561 
L 93.519878 386.863626 
L 90.241923 388.460877 
L 82.675821 392.404226 
L 79.317206 394.380914 
L 75.109719 398.44851 
L 72.008143 401.898202 
L 68.808872 409.41549 
L 68.206863 416.932778 
L 69.878725 424.450066 
L 74.791196 431.967354 
M 208.621575 341.759897 
L 211.29955 348.177501 
L 212.620604 349.277185 
L 218.865651 350.982693 
L 226.431753 351.512142 
L 233.997855 351.702769 
L 241.563957 351.893204 
L 249.130058 352.193303 
L 256.69616 352.640416 
L 264.262262 353.274806 
L 271.828363 354.149348 
L 279.394465 355.284391 
L 286.960567 356.674035 
L 287.519552 356.794473 
L 294.526668 358.158304 
L 302.09277 359.877069 
L 309.658872 361.85445 
L 317.224974 364.087118 
L 317.9664 364.311761 
L 324.791075 366.371516 
L 332.357177 368.777429 
L 339.923279 371.308602 
L 341.589436 371.829049 
L 347.48938 373.804585 
L 355.055482 376.165621 
L 362.621584 378.25473 
L 367.891236 379.346337 
L 370.187685 379.897936 
L 377.753787 380.734507 
L 385.319889 380.175548 
L 387.831668 379.346337 
L 392.88599 376.641327 
L 396.968766 371.829049 
L 399.11379 364.311761 
L 398.773503 356.794473 
L 396.911004 349.277185 
L 393.698682 341.759897 
L 392.88599 340.479834 
L 389.111067 334.242609 
L 385.319889 329.509574 
L 383.090147 326.72532 
L 377.753787 321.548726 
L 375.231606 319.208032 
L 370.187685 315.500122 
L 364.513178 311.690744 
L 362.621584 310.636431 
L 355.055482 306.818282 
L 349.147596 304.173456 
L 347.48938 303.523214 
L 339.923279 300.83392 
L 332.357177 298.443617 
L 326.107164 296.656168 
L 324.791075 296.308645 
L 317.224974 294.508425 
L 309.658872 292.905578 
L 302.09277 291.488639 
L 294.526668 290.270308 
L 286.960567 289.27543 
L 285.509251 289.13888 
L 279.394465 288.57497 
L 271.828363 288.177487 
L 264.262262 288.143902 
L 256.69616 288.551607 
L 251.818686 289.13888 
L 249.130058 289.523023 
L 241.563957 291.286099 
L 233.997855 294.060517 
L 229.094405 296.656168 
L 226.431753 298.534769 
L 220.349454 304.173456 
L 218.865651 306.156631 
L 215.32305 311.690744 
L 212.067908 319.208032 
L 211.29955 322.017287 
L 209.99718 326.72532 
L 208.776194 334.242609 
L 208.621575 341.759897 
z
M 223.88544 168.86227 
L 226.431753 174.203583 
L 227.678856 176.379558 
L 233.997855 183.009437 
L 235.132664 183.896846 
L 241.563957 187.520697 
L 249.130058 190.368804 
L 253.171762 191.414134 
L 256.69616 192.180293 
L 264.262262 193.252289 
L 271.828363 193.787639 
L 279.394465 193.905373 
L 286.960567 193.731652 
L 294.526668 193.355542 
L 302.09277 192.844653 
L 309.658872 192.27663 
L 317.224974 191.744613 
L 323.736629 191.414134 
L 324.791075 191.347936 
L 332.357177 191.217399 
L 336.635041 191.414134 
L 339.923279 191.551862 
L 347.48938 192.451231 
L 355.055482 194.29397 
L 362.621584 197.677085 
L 364.520601 198.931422 
L 370.187685 202.273441 
L 375.386024 206.44871 
L 377.753787 208.1803 
L 384.427185 213.965998 
L 385.319889 214.696804 
L 392.88599 221.327981 
L 393.060341 221.483287 
L 400.452092 227.618437 
L 402.219408 229.000575 
L 408.018194 233.318811 
L 412.937127 236.517863 
L 415.584296 238.192232 
L 423.150397 242.071524 
L 428.222264 244.035151 
L 430.716499 245.009269 
L 438.282601 246.952603 
L 445.848702 247.90487 
L 453.414804 247.679058 
L 460.980906 245.845276 
L 464.409771 244.035151 
L 468.547007 240.993985 
L 472.078354 236.517863 
L 475.594513 229.000575 
L 476.113109 227.140114 
L 477.367455 221.483287 
L 478.218413 213.965998 
L 478.377042 206.44871 
L 477.810634 198.931422 
L 476.331515 191.414134 
L 476.113109 190.754239 
L 473.201216 183.896846 
L 468.547007 178.035211 
L 466.610617 176.379558 
L 460.980906 173.211397 
L 453.414804 170.58686 
L 445.848702 168.915562 
L 445.514731 168.86227 
L 438.282601 167.901868 
L 430.716499 167.186871 
L 423.150397 166.647806 
L 415.584296 166.199509 
L 408.018194 165.758158 
L 400.452092 165.234432 
L 392.88599 164.508015 
L 385.319889 163.391139 
L 377.753787 161.563676 
L 377.111937 161.344981 
L 370.187685 159.18898 
L 362.621584 155.714056 
L 359.559258 153.827693 
L 355.055482 151.388464 
L 347.48938 146.459531 
L 347.2816 146.310405 
L 339.923279 141.967998 
L 334.581256 138.793117 
L 332.357177 137.657504 
L 324.791075 134.087194 
L 318.101184 131.275829 
L 317.224974 130.953318 
L 309.658872 128.5185 
L 302.09277 126.477536 
L 294.526668 124.751214 
L 289.413956 123.758541 
L 286.960567 123.318275 
L 279.394465 122.188985 
L 271.828363 121.273681 
L 264.262262 120.58018 
L 256.69616 120.152511 
L 249.130058 120.107212 
L 241.563957 120.721077 
L 233.997855 122.692613 
L 231.969544 123.758541 
L 226.431753 128.738605 
L 224.865829 131.275829 
L 222.268314 138.793117 
L 221.176819 146.310405 
L 221.099556 153.827693 
L 221.935125 161.344981 
L 223.88544 168.86227 
M 361.815395 41.068371 
L 362.621584 41.898892 
L 370.187685 48.133494 
L 370.990159 48.585659 
L 377.753787 50.94642 
L 385.319889 52.032094 
L 392.88599 51.776605 
L 400.452092 50.466368 
L 407.101551 48.585659 
L 408.018194 48.16334 
L 415.584296 43.789376 
L 419.893853 41.068371 
L 423.150397 34.88977 
L 423.904799 33.551083 
L 423.150397 32.410706 
L 417.5738 26.033795 
L 415.584296 25.350032 
L 408.018194 23.420763 
L 400.452092 22.228655 
L 392.88599 21.62017 
L 385.319889 21.535588 
L 377.753787 22.038563 
L 370.187685 23.337703 
L 362.621584 25.905777 
L 362.379162 26.033795 
L 358.809225 33.551083 
L 361.815395 41.068371 
" clip-path="url(#p5493fdd321)" style="fill: none; stroke: #2a788e; stroke-width: 1.5"/>
    <path d="M 44.845313 445.930566 
L 44.845313 447.001931 
L 52.411414 454.519219 
L 59.374475 454.519219 
M 44.845313 423.787271 
L 44.845313 424.450066 
L 44.845313 425.006231 
M 44.845313 274.306223 
L 52.411414 280.566382 
L 59.977516 280.469468 
L 67.543618 280.30644 
L 75.109719 280.076585 
L 82.675821 279.775626 
L 90.241923 279.402939 
L 97.808024 278.949838 
L 105.374126 278.414241 
L 112.940228 277.7863 
L 120.506329 277.051693 
L 128.072431 276.197748 
L 135.638533 275.199402 
L 142.672214 274.104303 
L 143.204635 274.012242 
L 150.770736 272.565634 
L 158.336838 270.764954 
L 165.90294 268.383948 
L 170.283434 266.587015 
L 173.469041 264.754377 
L 180.413521 259.069727 
L 181.035143 258.236626 
L 185.22429 251.552439 
L 187.764602 244.035151 
L 188.601245 239.546831 
L 189.188529 236.517863 
L 189.726533 229.000575 
L 189.22123 221.483287 
L 188.601245 218.974112 
L 187.294571 213.965998 
L 182.209875 206.44871 
L 181.035143 205.567149 
L 173.469041 200.513646 
L 170.712962 198.931422 
L 165.90294 196.988294 
L 158.336838 194.163884 
L 150.770736 191.610582 
L 150.191942 191.414134 
L 143.204635 189.348246 
L 135.638533 187.279137 
L 128.072431 185.377049 
L 121.685687 183.896846 
L 120.506329 183.623966 
L 112.940228 182.007165 
L 105.374126 180.567593 
L 97.808024 179.297624 
L 90.241923 178.192862 
L 82.675821 177.263693 
L 75.109719 176.499459 
L 73.24492 176.379558 
L 67.543618 175.875716 
L 59.977516 175.424229 
L 52.411414 175.154661 
L 44.845313 169.400942 
M 44.845313 137.749133 
L 44.845313 131.275829 
L 44.845313 123.758541 
L 44.845313 116.241253 
L 44.845313 108.723965 
L 44.845313 101.206676 
L 44.845313 98.891889 
M 44.845313 10.999219 
L 44.845313 18.516507 
L 44.845313 26.033795 
L 44.845313 33.551083 
L 44.845313 41.068371 
L 44.845313 48.585659 
L 44.845313 56.102948 
L 44.845313 63.620236 
L 44.845313 71.137524 
L 44.845313 78.654812 
L 44.845313 86.1721 
L 52.411414 88.901637 
L 59.977516 89.10617 
L 67.543618 89.444854 
L 75.109719 89.912062 
L 82.675821 90.505147 
L 90.241923 91.213526 
L 97.808024 92.036707 
L 105.374126 92.960695 
L 110.668171 93.689388 
L 112.940228 93.974738 
L 120.506329 95.054483 
L 128.072431 96.203283 
L 135.638533 97.422077 
L 143.204635 98.713755 
L 150.770736 100.078776 
L 156.735881 101.206676 
L 158.336838 101.531909 
L 165.90294 103.104196 
L 173.469041 104.838054 
L 181.035143 106.841733 
L 187.009624 108.723965 
L 188.601245 109.401188 
L 196.167346 113.453311 
L 199.540148 116.241253 
L 203.72961 123.758541 
L 203.733448 123.771665 
L 205.546188 131.275829 
L 206.409522 138.793117 
L 206.895669 146.310405 
L 207.240168 153.827693 
L 207.604402 161.344981 
L 208.168352 168.86227 
L 209.254148 176.379558 
L 211.29955 183.08402 
L 211.606564 183.896846 
L 216.873004 191.414134 
L 218.865651 192.964233 
L 226.431753 197.109485 
L 231.624283 198.931422 
L 233.997855 199.596084 
L 241.563957 201.203618 
L 249.130058 202.225341 
L 256.69616 202.833419 
L 264.262262 203.108936 
L 271.828363 203.086416 
L 279.394465 202.830584 
L 286.960567 202.435232 
L 294.526668 201.972798 
L 302.09277 201.505522 
L 309.658872 201.111739 
L 317.224974 200.890376 
L 324.791075 200.96184 
L 332.357177 201.474353 
L 339.923279 202.566135 
L 347.48938 204.423758 
L 352.888543 206.44871 
L 355.055482 207.260602 
L 362.621584 211.050767 
L 367.142245 213.965998 
L 370.187685 215.953793 
L 377.487981 221.483287 
L 377.753787 221.692125 
L 385.319889 227.991422 
L 386.502623 229.000575 
L 392.88599 234.521548 
L 395.321498 236.517863 
L 400.452092 240.784743 
L 404.886509 244.035151 
L 408.018194 246.387616 
L 415.584296 251.120944 
L 416.42463 251.552439 
L 423.150397 255.191304 
L 430.716499 258.361653 
L 432.917383 259.069727 
L 438.282601 261.017143 
L 445.848702 263.093314 
L 453.414804 264.66016 
L 460.980906 265.840733 
L 467.751099 266.587015 
L 468.547007 266.709003 
L 476.113109 267.348162 
L 483.679211 267.715974 
L 491.245313 274.104303 
L 491.245313 281.621592 
L 491.245313 289.13888 
L 491.245313 296.656168 
L 491.245313 304.173456 
L 491.245313 311.690744 
L 491.245313 319.208032 
L 491.245313 326.72532 
L 491.245313 334.242609 
L 491.245313 341.759897 
L 491.245313 349.277185 
L 491.245313 356.794473 
L 491.245313 364.311761 
L 491.245313 371.829049 
L 491.245313 379.346337 
L 491.245313 386.863626 
L 491.245313 394.380914 
L 491.245313 401.898202 
L 491.245313 409.41549 
L 491.245313 416.932778 
L 491.245313 424.450066 
L 491.245313 431.967354 
L 491.245313 439.484642 
L 491.245313 447.001931 
L 483.679211 454.519219 
L 476.113109 454.519219 
L 470.991631 454.519219 
M 80.209951 454.519219 
L 82.675821 454.519219 
L 90.241923 454.519219 
L 97.808024 454.519219 
L 99.539596 454.519219 
M 134.923627 454.519219 
L 135.638533 454.519219 
L 143.204635 454.519219 
L 150.770736 454.519219 
L 158.336838 454.519219 
L 165.90294 454.519219 
L 173.469041 454.519219 
L 181.035143 454.519219 
L 188.601245 454.519219 
L 196.167346 454.519219 
L 202.976428 447.001931 
L 203.14174 439.484642 
L 203.429052 431.967354 
L 203.733448 426.923664 
L 203.849645 424.450066 
L 204.422682 416.932778 
L 205.199666 409.41549 
L 206.269775 401.898202 
L 207.763788 394.380914 
L 209.959072 386.863626 
L 211.29955 383.611256 
L 213.389239 379.346337 
L 218.865651 372.38287 
L 219.45828 371.829049 
L 226.431753 367.077549 
L 233.383131 364.311761 
L 233.997855 364.109425 
L 241.563957 362.32449 
L 249.130058 361.347236 
L 256.69616 360.929896 
L 264.262262 360.967809 
L 271.828363 361.432339 
L 279.394465 362.291284 
L 286.960567 363.503202 
L 290.90251 364.311761 
L 294.526668 365.032835 
L 302.09277 366.868527 
L 309.658872 369.041446 
L 317.224974 371.543719 
L 318.038802 371.829049 
L 324.791075 374.346397 
L 332.357177 377.399276 
L 336.968973 379.346337 
L 339.923279 380.777943 
L 347.48938 384.450494 
L 352.482446 386.863626 
L 355.055482 388.410509 
L 362.621584 392.624199 
L 366.043481 394.380914 
L 370.187685 397.225515 
L 377.725113 401.898202 
L 377.753787 401.924092 
L 385.319889 407.313326 
L 388.983212 409.41549 
L 392.88599 413.032651 
L 398.574973 416.932778 
L 400.452092 419.240932 
L 406.958135 424.450066 
L 408.018194 426.247924 
L 414.231705 431.967354 
L 415.584296 435.087442 
L 420.216025 439.484642 
L 423.07608 447.001931 
L 415.584296 454.519219 
L 408.018194 454.519219 
L 400.452092 454.519219 
L 392.88599 454.519219 
L 385.319889 454.519219 
L 377.753787 454.519219 
L 370.187685 454.519219 
L 362.621584 454.519219 
L 355.055482 454.519219 
L 347.48938 454.519219 
L 339.923279 454.519219 
L 332.357177 454.519219 
L 324.791075 454.519219 
L 317.224974 454.519219 
L 309.658872 454.519219 
L 302.09277 454.519219 
L 294.526668 454.519219 
L 293.012491 454.519219 
M 442.109249 454.519219 
L 445.848702 454.519219 
L 447.946757 447.001931 
L 447.972626 439.484642 
L 447.708948 431.967354 
L 446.901642 424.450066 
L 445.848702 419.405164 
L 445.57614 416.932778 
L 443.977341 409.41549 
L 441.928106 401.898202 
L 439.302673 394.380914 
L 438.282601 392.407144 
L 436.460542 386.863626 
L 433.320324 379.346337 
L 430.716499 374.405442 
L 429.756447 371.829049 
L 426.059321 364.311761 
L 423.150397 359.539971 
L 421.851687 356.794473 
L 417.462403 349.277185 
L 415.584296 346.656369 
L 412.591784 341.759897 
L 408.018194 335.724764 
L 406.998798 334.242609 
L 400.694262 326.72532 
L 400.452092 326.478571 
L 393.352246 319.208032 
L 392.88599 318.805436 
L 385.319889 312.586601 
L 384.147183 311.690744 
L 377.753787 307.549196 
L 371.742169 304.173456 
L 370.187685 303.399897 
L 362.621584 299.984199 
L 355.055482 297.07685 
L 353.876183 296.656168 
L 347.48938 294.542953 
L 339.923279 292.319527 
L 332.357177 290.311248 
L 327.615999 289.13888 
L 324.791075 288.45623 
L 317.224974 286.748688 
L 309.658872 285.174178 
L 302.09277 283.721496 
L 294.526668 282.397285 
L 289.515015 281.621592 
L 286.960567 281.205429 
L 279.394465 280.163899 
L 271.828363 279.318845 
L 264.262262 278.715323 
L 256.69616 278.391278 
L 249.130058 278.375021 
L 241.563957 278.727204 
L 233.997855 279.567247 
L 226.431753 281.094918 
L 224.620677 281.621592 
L 218.865651 283.65599 
L 211.29955 288.242464 
L 210.295419 289.13888 
L 204.300762 296.656168 
L 203.733448 297.619361 
L 200.611634 304.173456 
L 197.755755 311.690744 
L 196.167346 316.086511 
L 195.097821 319.208032 
L 192.181046 326.72532 
L 188.601245 333.772815 
L 188.345199 334.242609 
L 182.759807 341.759897 
L 181.035143 343.367852 
L 173.469041 349.19048 
L 173.342799 349.277185 
L 165.90294 353.232767 
L 158.336838 356.561044 
L 157.792562 356.794473 
L 150.770736 359.412604 
L 143.204635 362.017798 
L 136.093 364.311761 
L 135.638533 364.452596 
L 128.072431 366.734193 
L 120.506329 368.868258 
L 112.940228 370.859007 
L 108.836656 371.829049 
L 105.374126 372.723939 
L 97.808024 374.442522 
L 90.241923 375.965011 
L 82.675821 377.267309 
L 75.109719 378.353768 
L 67.543618 379.205478 
L 65.246176 379.346337 
L 59.977516 379.867454 
L 52.411414 380.273204 
L 44.845313 379.346337 
L 44.845313 371.829049 
L 44.845313 364.311761 
L 44.845313 356.794473 
L 44.845313 351.513544 
M 218.542743 71.137524 
L 218.307508 63.620236 
L 218.237026 56.102948 
L 218.255136 48.585659 
L 218.320312 41.068371 
L 218.401321 33.551083 
L 218.482893 26.033795 
L 218.550548 18.516507 
L 218.865651 10.999219 
L 226.431753 10.999219 
L 233.997855 10.999219 
L 241.563957 10.999219 
L 249.130058 10.999219 
L 256.69616 10.999219 
L 264.262262 10.999219 
L 271.828363 10.999219 
L 279.394465 10.999219 
L 286.960567 10.999219 
L 294.526668 10.999219 
L 302.09277 10.999219 
L 309.658872 10.999219 
L 317.224974 10.999219 
L 324.791075 10.999219 
L 328.772543 18.516507 
L 332.357177 26.021255 
L 332.360465 26.033795 
L 336.536235 33.551083 
L 339.923279 38.548201 
L 341.470753 41.068371 
L 347.48938 48.510143 
L 347.554157 48.585659 
L 355.055482 55.372786 
L 356.06307 56.102948 
L 362.621584 59.995936 
L 370.187685 62.962165 
L 373.165148 63.620236 
L 377.753787 64.507446 
L 385.319889 64.901326 
L 392.88599 64.456625 
L 398.874198 63.620236 
L 400.452092 63.378669 
L 408.018194 61.69721 
L 415.584296 59.665651 
L 423.150397 57.449224 
L 427.774227 56.102948 
L 430.716499 54.981934 
L 438.282601 52.32078 
L 445.848702 49.915745 
L 451.011167 48.585659 
L 453.414804 47.606139 
L 460.980906 45.392078 
L 468.547007 43.872637 
L 476.113109 43.031716 
L 483.679211 42.89158 
L 491.245313 48.585659 
L 491.245313 56.102948 
L 491.245313 63.620236 
L 491.245313 71.137524 
L 491.245313 78.654812 
L 491.245313 86.1721 
L 491.245313 93.689388 
L 491.245313 101.206676 
L 491.245313 108.723965 
L 491.245313 116.241253 
L 491.245313 123.758541 
L 491.245313 131.275829 
L 491.245313 138.793117 
L 491.245313 146.310405 
L 491.245313 153.827693 
L 483.679211 158.426424 
L 476.113109 158.402993 
L 468.547007 158.356954 
L 460.980906 158.283555 
L 453.414804 158.175778 
L 445.848702 158.022978 
L 438.282601 157.810346 
L 430.716499 157.516094 
L 423.150397 157.109839 
L 415.584296 156.548035 
L 408.018194 155.768999 
L 400.452092 154.684246 
L 396.037705 153.827693 
L 392.88599 153.198447 
L 385.319889 151.242803 
L 377.753787 148.659069 
L 372.328433 146.310405 
L 370.187685 145.363006 
L 362.621584 141.571783 
L 357.627982 138.793117 
L 355.055482 137.37101 
L 347.48938 133.216601 
L 343.801927 131.275829 
L 339.923279 129.317458 
L 332.357177 125.959549 
L 326.551841 123.758541 
L 324.791075 123.125286 
L 317.224974 120.805735 
L 309.658872 118.916178 
L 302.09277 117.319109 
L 296.385001 116.241253 
L 294.526668 115.900603 
L 286.960567 114.597898 
L 279.394465 113.35935 
L 271.828363 112.130558 
L 264.262262 110.848661 
L 256.69616 109.444084 
L 253.056717 108.723965 
L 249.130058 107.816668 
L 241.563957 105.818676 
L 233.997855 103.097279 
L 230.150153 101.206676 
L 226.431753 98.15604 
L 222.867123 93.689388 
L 220.24483 86.1721 
L 219.091328 78.654812 
L 218.865651 75.725809 
L 218.542743 71.137524 
z
" clip-path="url(#p5493fdd321)" style="fill: none; stroke: #21918c; stroke-width: 1.5"/>
    <path d="M 57.972255 341.759897 
L 56.867007 334.242609 
L 56.541786 326.72532 
L 56.932522 319.208032 
L 58.242759 311.690744 
L 59.977516 306.6993 
L 61.093311 304.173456 
L 67.378155 296.656168 
L 67.543618 296.534142 
L 75.109719 292.493826 
L 82.675821 290.028959 
L 86.415923 289.13888 
L 90.241923 288.41342 
L 97.808024 287.271793 
L 105.374126 286.360859 
L 112.940228 285.60233 
L 120.506329 284.955226 
L 128.072431 284.406176 
L 135.638533 283.964576 
L 143.204635 283.660789 
L 150.770736 283.560808 
L 158.336838 283.813497 
L 165.90294 284.736918 
L 173.469041 287.11686 
L 176.634357 289.13888 
L 181.035143 296.476969 
L 181.099792 296.656168 
L 181.858268 304.173456 
L 181.13344 311.690744 
L 181.035143 312.057405 
L 179.206743 319.208032 
L 175.932455 326.72532 
L 173.469041 330.478361 
L 170.840153 334.242609 
L 165.90294 339.156976 
L 162.998521 341.759897 
L 158.336838 344.876377 
L 150.822175 349.277185 
L 150.770736 349.301713 
L 143.204635 352.673082 
L 135.638533 355.635155 
L 132.313762 356.794473 
L 128.072431 358.15032 
L 120.506329 360.267425 
L 112.940228 362.064634 
L 105.374126 363.48934 
L 98.966915 364.311761 
L 97.808024 364.467702 
L 90.241923 364.870097 
L 82.675821 364.490648 
L 81.655187 364.311761 
L 75.109719 362.860587 
L 67.543618 358.941036 
L 65.207705 356.794473 
L 60.266326 349.277185 
L 59.977516 348.521696 
L 57.972255 341.759897 
z
M 65.888706 153.827693 
L 62.37634 146.310405 
L 60.999995 138.793117 
L 60.972395 131.275829 
L 62.242297 123.758541 
L 65.409615 116.241253 
L 67.543618 113.434252 
L 72.884809 108.723965 
L 75.109719 107.463096 
L 82.675821 104.743347 
L 90.241923 103.348221 
L 97.808024 102.766213 
L 105.374126 102.727591 
L 112.940228 103.089767 
L 120.506329 103.768222 
L 128.072431 104.704541 
L 135.638533 105.880378 
L 143.204635 107.296307 
L 149.693611 108.723965 
L 150.770736 108.990842 
L 158.336838 111.142293 
L 165.90294 113.732415 
L 171.884306 116.241253 
L 173.469041 117.110967 
L 181.035143 122.169319 
L 182.938024 123.758541 
L 188.586798 131.275829 
L 188.601245 131.308005 
L 191.533924 138.793117 
L 192.967713 146.310405 
L 193.324735 153.827693 
L 192.760844 161.344981 
L 191.140512 168.86227 
L 188.601245 174.811257 
L 187.520577 176.379558 
L 181.035143 181.532095 
L 173.469041 183.353305 
L 165.90294 183.466915 
L 158.336838 182.782787 
L 150.770736 181.651606 
L 143.204635 180.280657 
L 135.638533 178.791637 
L 128.072431 177.238879 
L 124.033154 176.379558 
L 120.506329 175.57629 
L 112.940228 173.814971 
L 105.374126 172.035596 
L 97.808024 170.187649 
L 92.674597 168.86227 
L 90.241923 168.07669 
L 82.675821 165.408892 
L 75.109719 161.978775 
L 73.953344 161.344981 
L 67.543618 155.760803 
L 65.888706 153.827693 
z
M 218.750144 431.967354 
L 216.254831 424.450066 
L 215.413038 416.932778 
L 215.614656 409.41549 
L 216.744235 401.898202 
L 218.865651 394.524136 
L 218.910138 394.380914 
L 222.596655 386.863626 
L 226.431753 381.911449 
L 228.988654 379.346337 
L 233.997855 375.699111 
L 241.563957 372.057328 
L 242.257866 371.829049 
L 249.130058 369.924628 
L 256.69616 368.726747 
L 264.262262 368.233615 
L 271.828363 368.350065 
L 279.394465 368.998619 
L 286.960567 370.104971 
L 294.526668 371.644436 
L 295.244049 371.829049 
L 302.09277 373.672149 
L 309.658872 376.129565 
L 317.224974 378.992401 
L 318.090162 379.346337 
L 324.791075 382.477642 
L 332.357177 386.341744 
L 333.354734 386.863626 
L 339.923279 391.150297 
L 344.766913 394.380914 
L 347.48938 396.856484 
L 353.289699 401.898202 
L 355.055482 404.261483 
L 359.374009 409.41549 
L 362.621584 416.892273 
L 362.642669 416.932778 
L 363.223 424.450066 
L 362.621584 425.942848 
L 360.022997 431.967354 
L 355.055482 436.258511 
L 350.233911 439.484642 
L 347.48938 440.604048 
L 339.923279 443.099322 
L 332.357177 444.875963 
L 324.791075 446.160967 
L 318.075331 447.001931 
L 317.224974 447.089344 
L 309.658872 447.713584 
L 302.09277 448.15311 
L 294.526668 448.43681 
L 286.960567 448.582896 
L 279.394465 448.601566 
L 271.828363 448.487412 
L 264.262262 448.216342 
L 256.69616 447.748112 
L 249.130058 447.014947 
L 249.030242 447.001931 
L 241.563957 445.796841 
L 233.997855 443.83488 
L 226.431753 440.412013 
L 225.036745 439.484642 
L 218.865651 432.166512 
L 218.750144 431.967354 
z
M 213.321706 251.552439 
L 211.768429 244.035151 
L 212.233169 236.517863 
L 214.592851 229.000575 
L 218.865651 223.097503 
L 220.723343 221.483287 
L 226.431753 218.703915 
L 233.997855 216.757768 
L 241.563957 215.609283 
L 249.130058 214.770641 
L 256.69616 214.04818 
L 257.498986 213.965998 
L 264.262262 213.424758 
L 271.828363 212.750484 
L 279.394465 212.021525 
L 286.960567 211.29989 
L 294.526668 210.640577 
L 302.09277 210.097817 
L 309.658872 209.746747 
L 317.224974 209.685603 
L 324.791075 210.034522 
L 332.357177 210.936223 
L 339.923279 212.508122 
L 344.644657 213.965998 
L 347.48938 214.914761 
L 355.055482 218.277719 
L 360.678723 221.483287 
L 362.621584 222.706397 
L 370.187685 228.156485 
L 371.256547 229.000575 
L 377.753787 234.616302 
L 379.922347 236.517863 
L 385.319889 241.682492 
L 387.936112 244.035151 
L 392.88599 248.848926 
L 396.065469 251.552439 
L 400.452092 255.646473 
L 404.949476 259.069727 
L 408.018194 261.742382 
L 415.294888 266.587015 
L 415.584296 266.811821 
L 423.150397 271.516666 
L 428.614359 274.104303 
L 430.716499 275.292453 
L 438.282601 278.97871 
L 444.118216 281.621592 
L 445.848702 282.653943 
L 453.414804 287.457555 
L 455.683925 289.13888 
L 460.980906 295.349737 
L 461.888189 296.656168 
L 464.781437 304.173456 
L 465.898944 311.690744 
L 465.564267 319.208032 
L 463.724926 326.72532 
L 460.980906 332.57438 
L 459.505239 334.242609 
L 453.414804 338.736212 
L 445.848702 339.28642 
L 438.282601 336.560364 
L 434.892643 334.242609 
L 430.716499 331.639439 
L 424.852054 326.72532 
L 423.150397 325.403043 
L 416.301681 319.208032 
L 415.584296 318.608369 
L 408.018194 312.065411 
L 407.583754 311.690744 
L 400.452092 306.214339 
L 397.447427 304.173456 
L 392.88599 301.35416 
L 385.319889 297.530186 
L 383.388079 296.656168 
L 377.753787 294.26708 
L 370.187685 291.627307 
L 362.621584 289.427227 
L 361.595372 289.13888 
L 355.055482 287.346368 
L 347.48938 285.488535 
L 339.923279 283.78173 
L 332.357177 282.16755 
L 329.779188 281.621592 
L 324.791075 280.527669 
L 317.224974 278.909402 
L 309.658872 277.344945 
L 302.09277 275.830397 
L 294.526668 274.372549 
L 293.045177 274.104303 
L 286.960567 272.845604 
L 279.394465 271.37684 
L 271.828363 270.006813 
L 264.262262 268.757 
L 256.69616 267.621335 
L 249.362675 266.587015 
L 249.130058 266.54274 
L 241.563957 265.225 
L 233.997855 263.780287 
L 226.431753 261.892358 
L 219.444555 259.069727 
L 218.865651 258.607996 
L 213.321706 251.552439 
z
M 231.982312 71.137524 
L 231.082054 63.620236 
L 231.09954 56.102948 
L 232.01975 48.585659 
L 233.997855 41.391332 
L 234.108084 41.068371 
L 238.567619 33.551083 
L 241.563957 30.608142 
L 249.130058 26.122132 
L 249.365354 26.033795 
L 256.69616 23.900095 
L 264.262262 22.682168 
L 271.828363 22.131439 
L 279.394465 22.109766 
L 286.960567 22.58981 
L 294.526668 23.675363 
L 302.09277 25.667376 
L 303.021087 26.033795 
L 309.658872 28.930693 
L 316.446976 33.551083 
L 317.224974 34.131398 
L 324.491504 41.068371 
L 324.791075 41.37008 
L 331.221713 48.585659 
L 332.357177 49.8723 
L 337.937133 56.102948 
L 339.923279 58.266476 
L 345.609581 63.620236 
L 347.48938 65.331279 
L 355.055482 70.430211 
L 356.615979 71.137524 
L 362.621584 73.805302 
L 370.187685 75.577192 
L 377.753787 76.201863 
L 385.319889 75.964981 
L 392.88599 75.12359 
L 400.452092 73.884693 
L 408.018194 72.384073 
L 413.814886 71.137524 
L 415.584296 70.750184 
L 423.150397 69.138521 
L 430.716499 67.725333 
L 438.282601 66.682493 
L 445.848702 66.238393 
L 453.414804 66.76443 
L 460.980906 68.833764 
L 465.010344 71.137524 
L 468.547007 73.833182 
L 472.343614 78.654812 
L 475.943699 86.1721 
L 476.113109 86.729943 
L 477.8086 93.689388 
L 478.743146 101.206676 
L 478.974271 108.723965 
L 478.552197 116.241253 
L 477.307121 123.758541 
L 476.113109 127.572957 
L 474.638551 131.275829 
L 469.082973 138.793117 
L 468.547007 139.254954 
L 460.980906 143.650914 
L 453.414804 146.036204 
L 451.999431 146.310405 
L 445.848702 147.277087 
L 438.282601 147.883943 
L 430.716499 148.04332 
L 423.150397 147.818246 
L 415.584296 147.217219 
L 408.714812 146.310405 
L 408.018194 146.210596 
L 400.452092 144.678617 
L 392.88599 142.633083 
L 385.319889 140.024011 
L 382.330396 138.793117 
L 377.753787 136.680172 
L 370.187685 132.818812 
L 367.3291 131.275829 
L 362.621584 128.440515 
L 355.055482 124.159608 
L 354.287192 123.758541 
L 347.48938 119.951652 
L 339.923279 116.702145 
L 338.619415 116.241253 
L 332.357177 113.987038 
L 324.791075 112.015979 
L 317.224974 110.537568 
L 309.658872 109.333559 
L 305.514846 108.723965 
L 302.09277 108.210623 
L 294.526668 107.062264 
L 286.960567 105.848908 
L 279.394465 104.509146 
L 271.828363 102.962744 
L 264.733274 101.206676 
L 264.262262 101.070382 
L 256.69616 98.44814 
L 249.130058 94.988629 
L 246.85485 93.689388 
L 241.563957 89.430021 
L 238.45323 86.1721 
L 234.140644 78.654812 
L 233.997855 78.216075 
L 231.982312 71.137524 
z
" clip-path="url(#p5493fdd321)" style="fill: none; stroke: #22a884; stroke-width: 1.5"/>
    <path d="M 73.118217 341.759897 
L 70.210892 334.242609 
L 69.313489 326.72532 
L 70.151167 319.208032 
L 73.118031 311.690744 
L 75.109719 309.016549 
L 79.940834 304.173456 
L 82.675821 302.415461 
L 90.241923 298.908672 
L 97.304995 296.656168 
L 97.808024 296.532307 
L 105.374126 295.151776 
L 112.940228 294.225064 
L 120.506329 293.684826 
L 128.072431 293.527157 
L 135.638533 293.822571 
L 143.204635 294.728593 
L 150.770736 296.554469 
L 151.046977 296.656168 
L 158.336838 301.312481 
L 161.040664 304.173456 
L 163.619149 311.690744 
L 162.932631 319.208032 
L 159.653333 326.72532 
L 158.336838 328.434211 
L 153.522335 334.242609 
L 150.770736 336.509409 
L 143.641851 341.759897 
L 143.204635 342.003905 
L 135.638533 345.727502 
L 128.072431 348.881922 
L 126.900618 349.277185 
L 120.506329 351.120459 
L 112.940228 352.761657 
L 105.374126 353.764388 
L 97.808024 353.971074 
L 90.241923 353.103382 
L 82.675821 350.628735 
L 80.355665 349.277185 
L 75.109719 344.517503 
L 73.118217 341.759897 
z
M 81.23395 146.310405 
L 78.609673 138.793117 
L 78.907352 131.275829 
L 82.344941 123.758541 
L 82.675821 123.403528 
L 90.241923 117.613252 
L 93.150213 116.241253 
L 97.808024 114.802435 
L 105.374126 113.5112 
L 112.940228 113.05477 
L 120.506329 113.233299 
L 128.072431 113.920032 
L 135.638533 115.063434 
L 141.245821 116.241253 
L 143.204635 116.741219 
L 150.770736 119.210369 
L 158.336838 122.313672 
L 161.207584 123.758541 
L 165.90294 127.093537 
L 170.716284 131.275829 
L 173.469041 135.192566 
L 175.640311 138.793117 
L 177.719102 146.310405 
L 177.467171 153.827693 
L 174.552987 161.344981 
L 173.469041 162.72211 
L 165.90294 168.388785 
L 164.588669 168.86227 
L 158.336838 170.323471 
L 150.770736 170.764978 
L 143.204635 170.393369 
L 135.638533 169.522979 
L 131.628413 168.86227 
L 128.072431 168.199635 
L 120.506329 166.452711 
L 112.940228 164.461175 
L 105.374126 162.203577 
L 102.825668 161.344981 
L 97.808024 159.094057 
L 90.241923 155.085859 
L 88.230336 153.827693 
L 82.675821 148.084232 
L 81.23395 146.310405 
z
M 226.057786 409.41549 
L 226.431753 407.050515 
L 227.296011 401.898202 
L 230.316212 394.380914 
L 233.997855 389.093278 
L 235.951679 386.863626 
L 241.563957 382.537995 
L 247.660477 379.346337 
L 249.130058 378.748646 
L 256.69616 376.675263 
L 264.262262 375.596893 
L 271.828363 375.35016 
L 279.394465 375.808418 
L 286.960567 376.859068 
L 294.526668 378.452326 
L 297.723573 379.346337 
L 302.09277 380.724939 
L 309.658872 383.647472 
L 316.777457 386.863626 
L 317.224974 387.117075 
L 324.791075 391.783617 
L 328.730572 394.380914 
L 332.357177 397.714823 
L 336.858253 401.898202 
L 339.923279 406.591892 
L 341.868768 409.41549 
L 343.751044 416.932778 
L 342.041988 424.450066 
L 339.923279 427.006991 
L 334.9105 431.967354 
L 332.357177 433.345816 
L 324.791075 436.599124 
L 317.224974 438.921428 
L 314.810181 439.484642 
L 309.658872 440.396593 
L 302.09277 441.364877 
L 294.526668 441.989158 
L 286.960567 442.312282 
L 279.394465 442.358487 
L 271.828363 442.117391 
L 264.262262 441.537632 
L 256.69616 440.532426 
L 251.50036 439.484642 
L 249.130058 438.866088 
L 241.563957 436.002822 
L 234.832648 431.967354 
L 233.997855 431.159987 
L 228.908186 424.450066 
L 226.45661 416.932778 
L 226.431753 416.511211 
L 226.057786 409.41549 
z
M 248.662878 244.035151 
L 248.862464 236.517863 
L 249.130058 236.272294 
L 256.69616 230.315023 
L 258.652335 229.000575 
L 264.262262 227.162967 
L 271.828363 224.958453 
L 279.394465 223.004525 
L 286.23649 221.483287 
L 286.960567 221.366691 
L 294.526668 220.321875 
L 302.09277 219.539694 
L 309.658872 219.088838 
L 317.224974 219.063572 
L 324.791075 219.578862 
L 332.357177 220.764425 
L 335.199078 221.483287 
L 339.923279 222.902016 
L 347.48938 226.007275 
L 353.196023 229.000575 
L 355.055482 230.215014 
L 362.621584 235.878033 
L 363.403619 236.517863 
L 370.187685 243.263167 
L 370.970753 244.035151 
L 377.187686 251.552439 
L 377.753787 252.533415 
L 382.14376 259.069727 
L 385.237593 266.587015 
L 382.677588 274.104303 
L 377.753787 275.861606 
L 370.187685 276.68024 
L 362.621584 276.620658 
L 355.055482 276.125104 
L 347.48938 275.350078 
L 339.923279 274.387561 
L 338.080569 274.104303 
L 332.357177 273.123 
L 324.791075 271.706521 
L 317.224974 270.203472 
L 309.658872 268.631067 
L 302.09277 267.006176 
L 300.184088 266.587015 
L 294.526668 264.997384 
L 286.960567 262.86925 
L 279.394465 260.725524 
L 273.579942 259.069727 
L 271.828363 258.301829 
L 264.262262 255.056689 
L 256.69616 251.703408 
L 256.364374 251.552439 
L 249.130058 244.523624 
L 248.662878 244.035151 
z
M 246.355465 71.137524 
L 244.858716 63.620236 
L 245.222732 56.102948 
L 247.632533 48.585659 
L 249.130058 46.196933 
L 253.652864 41.068371 
L 256.69616 38.904625 
L 264.262262 35.578146 
L 271.828363 33.981481 
L 279.394465 33.669916 
L 286.960567 34.440922 
L 294.526668 36.305914 
L 302.09277 39.466466 
L 304.767626 41.068371 
L 309.658872 44.453142 
L 314.438233 48.585659 
L 317.224974 51.379581 
L 321.531464 56.102948 
L 324.791075 60.202336 
L 327.592433 63.620236 
L 332.357177 70.121069 
L 333.234812 71.137524 
L 338.68239 78.654812 
L 339.923279 81.169216 
L 344.251272 86.1721 
L 347.48938 92.36541 
L 352.276624 93.689388 
L 347.48938 94.871974 
L 339.923279 96.378151 
L 332.357177 97.300606 
L 324.791075 97.868669 
L 317.224974 98.140571 
L 309.658872 98.132568 
L 302.09277 97.829332 
L 294.526668 97.1846 
L 286.960567 96.161046 
L 279.394465 94.735665 
L 275.238914 93.689388 
L 271.828363 92.637352 
L 264.262262 89.543022 
L 258.110676 86.1721 
L 256.69616 85.081865 
L 250.209852 78.654812 
L 249.130058 76.815708 
L 246.355465 71.137524 
z
M 362.409732 108.723965 
L 355.350965 101.206676 
L 358.568103 93.689388 
L 362.621584 93.419182 
L 370.187685 92.215057 
L 377.753787 90.67871 
L 385.319889 88.84674 
L 392.88599 86.826773 
L 395.192038 86.1721 
L 400.452092 85.018802 
L 408.018194 83.336364 
L 415.584296 81.761294 
L 423.150397 80.460485 
L 430.716499 79.667495 
L 438.282601 79.663194 
L 445.848702 80.875874 
L 453.414804 84.050486 
L 456.251442 86.1721 
L 460.980906 91.634026 
L 462.195953 93.689388 
L 464.645437 101.206676 
L 465.279075 108.723965 
L 464.290479 116.241253 
L 461.287727 123.758541 
L 460.980906 124.191897 
L 453.925458 131.275829 
L 453.414804 131.606399 
L 445.848702 134.961785 
L 438.282601 136.836431 
L 430.716499 137.6827 
L 423.150397 137.711698 
L 415.584296 137.020874 
L 408.018194 135.66327 
L 400.452092 133.653529 
L 393.638488 131.275829 
L 392.88599 130.935686 
L 385.319889 126.939965 
L 379.77204 123.758541 
L 377.753787 122.097348 
L 370.187685 116.2733 
L 370.141632 116.241253 
L 362.621584 108.870959 
L 362.409732 108.723965 
z
" clip-path="url(#p5493fdd321)" style="fill: none; stroke: #44bf70; stroke-width: 1.5"/>
    <path d="M 88.480954 334.242609 
L 85.810475 326.72532 
L 87.140819 319.208032 
L 90.241923 315.00762 
L 93.621529 311.690744 
L 97.808024 309.41119 
L 105.374126 306.699144 
L 112.940228 305.177129 
L 120.506329 304.772124 
L 128.072431 305.6177 
L 135.638533 308.177796 
L 140.959871 311.690744 
L 143.204635 317.798224 
L 143.556189 319.208032 
L 143.204635 320.101782 
L 140.343815 326.72532 
L 135.638533 331.344464 
L 132.135738 334.242609 
L 128.072431 336.401558 
L 120.506329 339.459246 
L 112.940228 341.44859 
L 108.469531 341.759897 
L 105.374126 341.923452 
L 104.024561 341.759897 
L 97.808024 340.531444 
L 90.241923 336.094293 
L 88.480954 334.242609 
z
M 105.261387 146.310405 
L 101.472535 138.793117 
L 104.208942 131.275829 
L 105.374126 130.427719 
L 112.940228 127.157151 
L 120.506329 125.951779 
L 128.072431 126.220538 
L 135.638533 127.650345 
L 143.204635 130.086167 
L 145.819033 131.275829 
L 150.770736 135.05843 
L 154.634548 138.793117 
L 157.147444 146.310405 
L 152.582574 153.827693 
L 150.770736 154.807473 
L 143.204635 156.693637 
L 135.638533 156.907066 
L 128.072431 156.035029 
L 120.506329 154.379516 
L 118.735023 153.827693 
L 112.940228 150.981732 
L 105.374126 146.393918 
L 105.261387 146.310405 
z
M 238.643476 416.932778 
L 237.472947 409.41549 
L 238.913932 401.898202 
L 241.563957 396.968784 
L 243.303437 394.380914 
L 249.130058 389.416805 
L 253.511769 386.863626 
L 256.69616 385.55582 
L 264.262262 383.677698 
L 271.828363 382.956294 
L 279.394465 383.198538 
L 286.960567 384.236481 
L 294.526668 385.983432 
L 297.279174 386.863626 
L 302.09277 388.793135 
L 309.658872 392.552787 
L 312.840871 394.380914 
L 317.224974 397.982045 
L 321.64174 401.898202 
L 324.791075 406.941086 
L 326.328761 409.41549 
L 327.002409 416.932778 
L 324.791075 421.217 
L 322.756676 424.450066 
L 317.224974 428.117546 
L 309.658872 431.703088 
L 308.893559 431.967354 
L 302.09277 433.559338 
L 294.526668 434.704564 
L 286.960567 435.301051 
L 279.394465 435.401147 
L 271.828363 434.991935 
L 264.262262 433.985353 
L 256.69616 432.22831 
L 255.91351 431.967354 
L 249.130058 428.691108 
L 243.278935 424.450066 
L 241.563957 422.118849 
L 238.643476 416.932778 
z
M 262.796043 63.620236 
L 264.262262 57.04788 
L 264.598707 56.102948 
L 271.828363 50.429076 
L 278.757053 48.585659 
L 279.394465 48.48184 
L 280.77715 48.585659 
L 286.960567 49.214372 
L 294.526668 52.143866 
L 300.7912 56.102948 
L 302.09277 57.350308 
L 307.320374 63.620236 
L 309.658872 68.926619 
L 310.596688 71.137524 
L 309.658872 76.58292 
L 309.012311 78.654812 
L 302.09277 82.263364 
L 294.526668 83.445406 
L 286.960567 82.921059 
L 279.394465 81.128627 
L 273.255218 78.654812 
L 271.828363 77.711325 
L 265.074219 71.137524 
L 264.262262 68.927116 
L 262.796043 63.620236 
z
M 289.882486 244.035151 
L 293.333851 236.517863 
L 294.526668 235.999318 
L 302.09277 233.501352 
L 309.658872 232.015043 
L 317.224974 231.592761 
L 324.791075 232.28101 
L 332.357177 234.093853 
L 338.811585 236.517863 
L 339.923279 237.232471 
L 347.48938 243.133232 
L 348.505715 244.035151 
L 352.44327 251.552439 
L 348.450679 259.069727 
L 347.48938 259.424042 
L 339.923279 260.598534 
L 332.357177 260.602063 
L 324.791075 259.903087 
L 319.604035 259.069727 
L 317.224974 258.463997 
L 309.658872 255.97688 
L 302.09277 253.225748 
L 297.885762 251.552439 
L 294.526668 248.454522 
L 289.882486 244.035151 
z
M 397.54903 108.723965 
L 400.452092 104.054233 
L 402.721525 101.206676 
L 408.018194 98.793291 
L 415.584296 96.210033 
L 423.150397 94.71808 
L 430.716499 94.807555 
L 438.282601 97.225959 
L 443.518866 101.206676 
L 445.848702 107.265858 
L 446.20968 108.723965 
L 445.848702 110.091689 
L 443.505361 116.241253 
L 438.282601 120.508752 
L 430.743577 123.758541 
L 430.716499 123.76525 
L 423.150397 124.26828 
L 417.893119 123.758541 
L 415.584296 123.386457 
L 408.018194 120.39585 
L 400.889154 116.241253 
L 400.452092 115.382973 
L 397.54903 108.723965 
z
" clip-path="url(#p5493fdd321)" style="fill: none; stroke: #7ad151; stroke-width: 1.5"/>
    <path d="M 254.121623 416.932778 
L 251.527105 409.41549 
L 253.77961 401.898202 
L 256.69616 398.796286 
L 263.055587 394.380914 
L 264.262262 393.890079 
L 271.828363 392.355522 
L 279.394465 392.25401 
L 286.960567 393.315321 
L 290.832542 394.380914 
L 294.526668 395.88333 
L 302.09277 400.251166 
L 304.388734 401.898202 
L 309.547628 409.41549 
L 308.474788 416.932778 
L 302.09277 422.159537 
L 297.636049 424.450066 
L 294.526668 425.314503 
L 286.960567 426.462135 
L 279.394465 426.702636 
L 271.828363 426.034158 
L 264.85096 424.450066 
L 264.262262 424.228943 
L 256.69616 419.387032 
L 254.121623 416.932778 
z
" clip-path="url(#p5493fdd321)" style="fill: none; stroke: #bddf26; stroke-width: 1.5"/>
    <path clip-path="url(#p5493fdd321)" style="fill: none; stroke: #fde725; stroke-width: 1.5"/>
   </g>
   <g id="patch_3">
    <path d="M 44.845313 454.519219 
L 44.845313 10.999219 
" style="fill: none; stroke: #000000; stroke-width: 0.8; stroke-linejoin: miter; stroke-linecap: square"/>
   </g>
   <g id="patch_4">
    <path d="M 491.245312 454.519219 
L 491.245312 10.999219 
" style="fill: none; stroke: #000000; stroke-width: 0.8; stroke-linejoin: miter; stroke-linecap: square"/>
   </g>
   <g id="patch_5">
    <path d="M 44.845313 454.519219 
L 491.245313 454.519219 
" style="fill: none; stroke: #000000; stroke-width: 0.8; stroke-linejoin: miter; stroke-linecap: square"/>
   </g>
   <g id="patch_6">
    <path d="M 44.845313 10.999219 
L 491.245313 10.999219 
" style="fill: none; stroke: #000000; stroke-width: 0.8; stroke-linejoin: miter; stroke-linecap: square"/>
   </g>
  </g>
 </g>
 <defs>
  <clipPath id="p5493fdd321">
   <rect x="44.845313" y="10.999219" width="446.4" height="443.52"/>
  </clipPath>
 </defs>
</svg>