<?xml version="1.0" encoding="utf-8" standalone="no"?>
<!DOCTYPE svg PUBLIC "-//W3C//DTD SVG 1.1//EN"
  "http://www.w3.org/Graphics/SVG/1.1/DTD/svg11.dtd">
<svg xmlns:xlink="http://www.w3.org/1999/xlink" width="564.48pt" height="276.48pt" viewBox="0 0 564.48 276.48" xmlns="http://www.w3.org/2000/svg" version="1.1">
 <metadata>
  <rdf:RDF xmlns:dc="http://purl.org/dc/elements/1.1/" xmlns:cc="http://creativecommons.org/ns#" xmlns:rdf="http://www.w3.org/1999/02/22-rdf-syntax-ns#">
   <cc:Work>
    <dc:type rdf:resource="http://purl.org/dc/dcmitype/StillImage"/>
    <dc:date>2025-04-04T21:19:03.566394</dc:date>
    <dc:format>image/svg+xml</dc:format>
    <dc:creator>
     <cc:Agent>
      <dc:title>Matplotlib v3.10.1, https://matplotlib.org/</dc:title>
     </cc:Agent>
    </dc:creator>
   </cc:Work>
  </rdf:RDF>
 </metadata>
 <defs>
  <style type="text/css">*{stroke-linejoin: round; stroke-linecap: butt}</style>
 </defs>
 <g id="figure_1">
  <g id="patch_1">
   <path d="M 0 276.48 
L 564.48 276.48 
L 564.48 0 
L 0 0 
z
" style="fill: #ffffff"/>
  </g>
  <g id="axes_1">
   <g id="patch_2">
    <path d="M 51.104375 250.66625 
L 557.28 250.66625 
L 557.28 26.16 
L 51.104375 26.16 
z
" style="fill: #ffffff"/>
   </g>
   <g id="matplotlib.axis_1">
    <g id="xtick_1">
     <g id="line2d_1">
      <defs>
       <path id="m7d4b80efaf" d="M 0 0 
L 0 3.5 
" style="stroke: #000000; stroke-width: 0.8"/>
      </defs>
      <g>
       <use xlink:href="#m7d4b80efaf" x="74.112358" y="250.66625" style="fill-opacity: 0; stroke: #000000; stroke-width: 0.8"/>
      </g>
     </g>
     <g id="text_1">
      <!-- $\mathdefault{10^{0}}$ -->
      <g transform="translate(63.552358 266.784375) scale(0.12 -0.12)">
       <defs>
        <path id="DejaVuSerif-31" d="M 909 0 
L 909 331 
L 1722 331 
L 1722 4213 
L 781 3603 
L 781 4013 
L 1919 4750 
L 2350 4750 
L 2350 331 
L 3163 331 
L 3163 0 
L 909 0 
z
" transform="scale(0.015625)"/>
        <path id="DejaVuSerif-30" d="M 2034 219 
Q 2513 219 2750 744 
Q 2988 1269 2988 2328 
Q 2988 3391 2750 3916 
Q 2513 4441 2034 4441 
Q 1556 4441 1318 3916 
Q 1081 3391 1081 2328 
Q 1081 1269 1318 744 
Q 1556 219 2034 219 
z
M 2034 -91 
Q 1275 -91 848 546 
Q 422 1184 422 2328 
Q 422 3475 848 4112 
Q 1275 4750 2034 4750 
Q 2797 4750 3222 4112 
Q 3647 3475 3647 2328 
Q 3647 1184 3222 546 
Q 2797 -91 2034 -91 
z
" transform="scale(0.015625)"/>
       </defs>
       <use xlink:href="#DejaVuSerif-31" transform="translate(0 0.7125)"/>
       <use xlink:href="#DejaVuSerif-30" transform="translate(63.623047 0.7125)"/>
       <use xlink:href="#DejaVuSerif-30" transform="translate(128.154453 37.046875) scale(0.7)"/>
      </g>
     </g>
    </g>
    <g id="xtick_2">
     <g id="line2d_2">
      <g>
       <use xlink:href="#m7d4b80efaf" x="335.058459" y="250.66625" style="fill-opacity: 0; stroke: #000000; stroke-width: 0.8"/>
      </g>
     </g>
     <g id="text_2">
      <!-- $\mathdefault{10^{1}}$ -->
      <g transform="translate(324.498459 266.784375) scale(0.12 -0.12)">
       <use xlink:href="#DejaVuSerif-31" transform="translate(0 0.7125)"/>
       <use xlink:href="#DejaVuSerif-30" transform="translate(63.623047 0.7125)"/>
       <use xlink:href="#DejaVuSerif-31" transform="translate(128.154453 37.046875) scale(0.7)"/>
      </g>
     </g>
    </g>
    <g id="xtick_3">
     <g id="line2d_3">
      <defs>
       <path id="m9d4bafbcd1" d="M 0 0 
L 0 2 
" style="stroke: #000000; stroke-width: 0.6"/>
      </defs>
      <g>
       <use xlink:href="#m9d4bafbcd1" x="62.172119" y="250.66625" style="fill-opacity: 0; stroke: #000000; stroke-width: 0.6"/>
      </g>
     </g>
    </g>
    <g id="xtick_4">
     <g id="line2d_4">
      <g>
       <use xlink:href="#m9d4bafbcd1" x="152.664962" y="250.66625" style="fill-opacity: 0; stroke: #000000; stroke-width: 0.6"/>
      </g>
     </g>
    </g>
    <g id="xtick_5">
     <g id="line2d_5">
      <g>
       <use xlink:href="#m9d4bafbcd1" x="198.615289" y="250.66625" style="fill-opacity: 0; stroke: #000000; stroke-width: 0.6"/>
      </g>
     </g>
    </g>
    <g id="xtick_6">
     <g id="line2d_6">
      <g>
       <use xlink:href="#m9d4bafbcd1" x="231.217565" y="250.66625" style="fill-opacity: 0; stroke: #000000; stroke-width: 0.6"/>
      </g>
     </g>
    </g>
    <g id="xtick_7">
     <g id="line2d_7">
      <g>
       <use xlink:href="#m9d4bafbcd1" x="256.505855" y="250.66625" style="fill-opacity: 0; stroke: #000000; stroke-width: 0.6"/>
      </g>
     </g>
    </g>
    <g id="xtick_8">
     <g id="line2d_8">
      <g>
       <use xlink:href="#m9d4bafbcd1" x="277.167893" y="250.66625" style="fill-opacity: 0; stroke: #000000; stroke-width: 0.6"/>
      </g>
     </g>
    </g>
    <g id="xtick_9">
     <g id="line2d_9">
      <g>
       <use xlink:href="#m9d4bafbcd1" x="294.637396" y="250.66625" style="fill-opacity: 0; stroke: #000000; stroke-width: 0.6"/>
      </g>
     </g>
    </g>
    <g id="xtick_10">
     <g id="line2d_10">
      <g>
       <use xlink:href="#m9d4bafbcd1" x="309.770169" y="250.66625" style="fill-opacity: 0; stroke: #000000; stroke-width: 0.6"/>
      </g>
     </g>
    </g>
    <g id="xtick_11">
     <g id="line2d_11">
      <g>
       <use xlink:href="#m9d4bafbcd1" x="323.11822" y="250.66625" style="fill-opacity: 0; stroke: #000000; stroke-width: 0.6"/>
      </g>
     </g>
    </g>
    <g id="xtick_12">
     <g id="line2d_12">
      <g>
       <use xlink:href="#m9d4bafbcd1" x="413.611062" y="250.66625" style="fill-opacity: 0; stroke: #000000; stroke-width: 0.6"/>
      </g>
     </g>
    </g>
    <g id="xtick_13">
     <g id="line2d_13">
      <g>
       <use xlink:href="#m9d4bafbcd1" x="459.56139" y="250.66625" style="fill-opacity: 0; stroke: #000000; stroke-width: 0.6"/>
      </g>
     </g>
    </g>
    <g id="xtick_14">
     <g id="line2d_14">
      <g>
       <use xlink:href="#m9d4bafbcd1" x="492.163666" y="250.66625" style="fill-opacity: 0; stroke: #000000; stroke-width: 0.6"/>
      </g>
     </g>
    </g>
    <g id="xtick_15">
     <g id="line2d_15">
      <g>
       <use xlink:href="#m9d4bafbcd1" x="517.451956" y="250.66625" style="fill-opacity: 0; stroke: #000000; stroke-width: 0.6"/>
      </g>
     </g>
    </g>
    <g id="xtick_16">
     <g id="line2d_16">
      <g>
       <use xlink:href="#m9d4bafbcd1" x="538.113994" y="250.66625" style="fill-opacity: 0; stroke: #000000; stroke-width: 0.6"/>
      </g>
     </g>
    </g>
    <g id="xtick_17">
     <g id="line2d_17">
      <g>
       <use xlink:href="#m9d4bafbcd1" x="555.583497" y="250.66625" style="fill-opacity: 0; stroke: #000000; stroke-width: 0.6"/>
      </g>
     </g>
    </g>
   </g>
   <g id="matplotlib.axis_2">
    <g id="ytick_1">
     <g id="line2d_18">
      <defs>
       <path id="m8db0d01b59" d="M 0 0 
L -3.5 0 
" style="stroke: #000000; stroke-width: 0.8"/>
      </defs>
      <g>
       <use xlink:href="#m8db0d01b59" x="51.104375" y="240.46142" style="fill-opacity: 0; stroke: #000000; stroke-width: 0.8"/>
      </g>
     </g>
     <g id="text_3">
      <!-- $\mathdefault{10^{0}}$ -->
      <g transform="translate(22.984375 245.020483) scale(0.12 -0.12)">
       <use xlink:href="#DejaVuSerif-31" transform="translate(0 0.7125)"/>
       <use xlink:href="#DejaVuSerif-30" transform="translate(63.623047 0.7125)"/>
       <use xlink:href="#DejaVuSerif-30" transform="translate(128.154453 37.046875) scale(0.7)"/>
      </g>
     </g>
    </g>
    <g id="ytick_2">
     <g id="line2d_19">
      <g>
       <use xlink:href="#m8db0d01b59" x="51.104375" y="206.445322" style="fill-opacity: 0; stroke: #000000; stroke-width: 0.8"/>
      </g>
     </g>
     <g id="text_4">
      <!-- $\mathdefault{10^{1}}$ -->
      <g transform="translate(22.984375 211.004384) scale(0.12 -0.12)">
       <use xlink:href="#DejaVuSerif-31" transform="translate(0 0.7125)"/>
       <use xlink:href="#DejaVuSerif-30" transform="translate(63.623047 0.7125)"/>
       <use xlink:href="#DejaVuSerif-31" transform="translate(128.154453 37.046875) scale(0.7)"/>
      </g>
     </g>
    </g>
    <g id="ytick_3">
     <g id="line2d_20">
      <g>
       <use xlink:href="#m8db0d01b59" x="51.104375" y="172.429223" style="fill-opacity: 0; stroke: #000000; stroke-width: 0.8"/>
      </g>
     </g>
     <g id="text_5">
      <!-- $\mathdefault{10^{2}}$ -->
      <g transform="translate(22.984375 176.988286) scale(0.12 -0.12)">
       <defs>
        <path id="DejaVuSerif-32" d="M 819 3553 
L 469 3553 
L 469 4384 
Q 803 4563 1142 4656 
Q 1481 4750 1806 4750 
Q 2534 4750 2956 4397 
Q 3378 4044 3378 3438 
Q 3378 2753 2422 1800 
Q 2347 1728 2309 1691 
L 1131 513 
L 3078 513 
L 3078 1088 
L 3444 1088 
L 3444 0 
L 434 0 
L 434 341 
L 1850 1753 
Q 2319 2222 2519 2614 
Q 2719 3006 2719 3438 
Q 2719 3909 2473 4175 
Q 2228 4441 1797 4441 
Q 1350 4441 1106 4219 
Q 863 3997 819 3553 
z
" transform="scale(0.015625)"/>
       </defs>
       <use xlink:href="#DejaVuSerif-31" transform="translate(0 0.7125)"/>
       <use xlink:href="#DejaVuSerif-30" transform="translate(63.623047 0.7125)"/>
       <use xlink:href="#DejaVuSerif-32" transform="translate(128.154453 37.046875) scale(0.7)"/>
      </g>
     </g>
    </g>
    <g id="ytick_4">
     <g id="line2d_21">
      <g>
       <use xlink:href="#m8db0d01b59" x="51.104375" y="138.413125" style="fill-opacity: 0; stroke: #000000; stroke-width: 0.8"/>
      </g>
     </g>
     <g id="text_6">
      <!-- $\mathdefault{10^{3}}$ -->
      <g transform="translate(22.984375 142.972187) scale(0.12 -0.12)">
       <defs>
        <path id="DejaVuSerif-33" d="M 622 4469 
Q 988 4606 1323 4678 
Q 1659 4750 1953 4750 
Q 2638 4750 3022 4454 
Q 3406 4159 3406 3634 
Q 3406 3213 3140 2930 
Q 2875 2647 2388 2547 
Q 2963 2466 3280 2130 
Q 3597 1794 3597 1259 
Q 3597 606 3158 257 
Q 2719 -91 1894 -91 
Q 1528 -91 1179 -12 
Q 831 66 488 225 
L 488 1131 
L 838 1131 
Q 869 681 1141 450 
Q 1413 219 1906 219 
Q 2384 219 2661 495 
Q 2938 772 2938 1253 
Q 2938 1803 2653 2086 
Q 2369 2369 1819 2369 
L 1522 2369 
L 1522 2688 
L 1678 2688 
Q 2225 2688 2498 2914 
Q 2772 3141 2772 3597 
Q 2772 4006 2547 4223 
Q 2322 4441 1900 4441 
Q 1478 4441 1245 4241 
Q 1013 4041 972 3647 
L 622 3647 
L 622 4469 
z
" transform="scale(0.015625)"/>
       </defs>
       <use xlink:href="#DejaVuSerif-31" transform="translate(0 0.7125)"/>
       <use xlink:href="#DejaVuSerif-30" transform="translate(63.623047 0.7125)"/>
       <use xlink:href="#DejaVuSerif-33" transform="translate(128.154453 37.046875) scale(0.7)"/>
      </g>
     </g>
    </g>
    <g id="ytick_5">
     <g id="line2d_22">
      <g>
       <use xlink:href="#m8db0d01b59" x="51.104375" y="104.397027" style="fill-opacity: 0; stroke: #000000; stroke-width: 0.8"/>
      </g>
     </g>
     <g id="text_7">
      <!-- $\mathdefault{10^{4}}$ -->
      <g transform="translate(22.984375 108.956089) scale(0.12 -0.12)">
       <defs>
        <path id="DejaVuSerif-34" d="M 2234 1581 
L 2234 4063 
L 641 1581 
L 2234 1581 
z
M 3609 0 
L 1484 0 
L 1484 331 
L 2234 331 
L 2234 1247 
L 197 1247 
L 197 1588 
L 2241 4750 
L 2859 4750 
L 2859 1581 
L 3750 1581 
L 3750 1247 
L 2859 1247 
L 2859 331 
L 3609 331 
L 3609 0 
z
" transform="scale(0.015625)"/>
       </defs>
       <use xlink:href="#DejaVuSerif-31" transform="translate(0 0.7125)"/>
       <use xlink:href="#DejaVuSerif-30" transform="translate(63.623047 0.7125)"/>
       <use xlink:href="#DejaVuSerif-34" transform="translate(128.154453 37.046875) scale(0.7)"/>
      </g>
     </g>
    </g>
    <g id="ytick_6">
     <g id="line2d_23">
      <g>
       <use xlink:href="#m8db0d01b59" x="51.104375" y="70.380928" style="fill-opacity: 0; stroke: #000000; stroke-width: 0.8"/>
      </g>
     </g>
     <g id="text_8">
      <!-- $\mathdefault{10^{5}}$ -->
      <g transform="translate(22.984375 74.939991) scale(0.12 -0.12)">
       <defs>
        <path id="DejaVuSerif-35" d="M 3219 4666 
L 3219 4153 
L 1081 4153 
L 1081 2816 
Q 1244 2928 1461 2984 
Q 1678 3041 1947 3041 
Q 2703 3041 3140 2622 
Q 3578 2203 3578 1478 
Q 3578 738 3136 323 
Q 2694 -91 1894 -91 
Q 1572 -91 1234 -12 
Q 897 66 544 225 
L 544 1131 
L 897 1131 
Q 925 688 1179 453 
Q 1434 219 1894 219 
Q 2388 219 2653 544 
Q 2919 869 2919 1478 
Q 2919 2084 2655 2407 
Q 2391 2731 1894 2731 
Q 1613 2731 1398 2631 
Q 1184 2531 1019 2322 
L 750 2322 
L 750 4666 
L 3219 4666 
z
" transform="scale(0.015625)"/>
       </defs>
       <use xlink:href="#DejaVuSerif-31" transform="translate(0 0.63125)"/>
       <use xlink:href="#DejaVuSerif-30" transform="translate(63.623047 0.63125)"/>
       <use xlink:href="#DejaVuSerif-35" transform="translate(128.154453 36.965625) scale(0.7)"/>
      </g>
     </g>
    </g>
    <g id="ytick_7">
     <g id="line2d_24">
      <g>
       <use xlink:href="#m8db0d01b59" x="51.104375" y="36.36483" style="fill-opacity: 0; stroke: #000000; stroke-width: 0.8"/>
      </g>
     </g>
     <g id="text_9">
      <!-- $\mathdefault{10^{6}}$ -->
      <g transform="translate(22.984375 40.923892) scale(0.12 -0.12)">
       <defs>
        <path id="DejaVuSerif-36" d="M 2094 219 
Q 2534 219 2771 542 
Q 3009 866 3009 1472 
Q 3009 2078 2771 2401 
Q 2534 2725 2094 2725 
Q 1647 2725 1412 2412 
Q 1178 2100 1178 1509 
Q 1178 888 1415 553 
Q 1653 219 2094 219 
z
M 1075 2569 
Q 1288 2803 1556 2918 
Q 1825 3034 2163 3034 
Q 2859 3034 3264 2615 
Q 3669 2197 3669 1472 
Q 3669 763 3233 336 
Q 2797 -91 2069 -91 
Q 1278 -91 853 498 
Q 428 1088 428 2181 
Q 428 3406 931 4078 
Q 1434 4750 2350 4750 
Q 2597 4750 2869 4703 
Q 3141 4656 3425 4563 
L 3425 3794 
L 3072 3794 
Q 3034 4109 2831 4275 
Q 2628 4441 2284 4441 
Q 1678 4441 1381 3981 
Q 1084 3522 1075 2569 
z
" transform="scale(0.015625)"/>
       </defs>
       <use xlink:href="#DejaVuSerif-31" transform="translate(0 0.7125)"/>
       <use xlink:href="#DejaVuSerif-30" transform="translate(63.623047 0.7125)"/>
       <use xlink:href="#DejaVuSerif-36" transform="translate(128.154453 37.046875) scale(0.7)"/>
      </g>
     </g>
    </g>
    <g id="ytick_8">
     <g id="line2d_25">
      <defs>
       <path id="m995c6daaff" d="M 0 0 
L -2 0 
" style="stroke: #000000; stroke-width: 0.6"/>
      </defs>
      <g>
       <use xlink:href="#m995c6daaff" x="51.104375" y="248.007849" style="fill-opacity: 0; stroke: #000000; stroke-width: 0.6"/>
      </g>
     </g>
    </g>
    <g id="ytick_9">
     <g id="line2d_26">
      <g>
       <use xlink:href="#m995c6daaff" x="51.104375" y="245.730581" style="fill-opacity: 0; stroke: #000000; stroke-width: 0.6"/>
      </g>
     </g>
    </g>
    <g id="ytick_10">
     <g id="line2d_27">
      <g>
       <use xlink:href="#m995c6daaff" x="51.104375" y="243.757921" style="fill-opacity: 0; stroke: #000000; stroke-width: 0.6"/>
      </g>
     </g>
    </g>
    <g id="ytick_11">
     <g id="line2d_28">
      <g>
       <use xlink:href="#m995c6daaff" x="51.104375" y="242.017912" style="fill-opacity: 0; stroke: #000000; stroke-width: 0.6"/>
      </g>
     </g>
    </g>
    <g id="ytick_12">
     <g id="line2d_29">
      <g>
       <use xlink:href="#m995c6daaff" x="51.104375" y="230.221554" style="fill-opacity: 0; stroke: #000000; stroke-width: 0.6"/>
      </g>
     </g>
    </g>
    <g id="ytick_13">
     <g id="line2d_30">
      <g>
       <use xlink:href="#m995c6daaff" x="51.104375" y="224.231617" style="fill-opacity: 0; stroke: #000000; stroke-width: 0.6"/>
      </g>
     </g>
    </g>
    <g id="ytick_14">
     <g id="line2d_31">
      <g>
       <use xlink:href="#m995c6daaff" x="51.104375" y="219.981688" style="fill-opacity: 0; stroke: #000000; stroke-width: 0.6"/>
      </g>
     </g>
    </g>
    <g id="ytick_15">
     <g id="line2d_32">
      <g>
       <use xlink:href="#m995c6daaff" x="51.104375" y="216.685188" style="fill-opacity: 0; stroke: #000000; stroke-width: 0.6"/>
      </g>
     </g>
    </g>
    <g id="ytick_16">
     <g id="line2d_33">
      <g>
       <use xlink:href="#m995c6daaff" x="51.104375" y="213.991751" style="fill-opacity: 0; stroke: #000000; stroke-width: 0.6"/>
      </g>
     </g>
    </g>
    <g id="ytick_17">
     <g id="line2d_34">
      <g>
       <use xlink:href="#m995c6daaff" x="51.104375" y="211.714482" style="fill-opacity: 0; stroke: #000000; stroke-width: 0.6"/>
      </g>
     </g>
    </g>
    <g id="ytick_18">
     <g id="line2d_35">
      <g>
       <use xlink:href="#m995c6daaff" x="51.104375" y="209.741823" style="fill-opacity: 0; stroke: #000000; stroke-width: 0.6"/>
      </g>
     </g>
    </g>
    <g id="ytick_19">
     <g id="line2d_36">
      <g>
       <use xlink:href="#m995c6daaff" x="51.104375" y="208.001813" style="fill-opacity: 0; stroke: #000000; stroke-width: 0.6"/>
      </g>
     </g>
    </g>
    <g id="ytick_20">
     <g id="line2d_37">
      <g>
       <use xlink:href="#m995c6daaff" x="51.104375" y="196.205456" style="fill-opacity: 0; stroke: #000000; stroke-width: 0.6"/>
      </g>
     </g>
    </g>
    <g id="ytick_21">
     <g id="line2d_38">
      <g>
       <use xlink:href="#m995c6daaff" x="51.104375" y="190.215518" style="fill-opacity: 0; stroke: #000000; stroke-width: 0.6"/>
      </g>
     </g>
    </g>
    <g id="ytick_22">
     <g id="line2d_39">
      <g>
       <use xlink:href="#m995c6daaff" x="51.104375" y="185.96559" style="fill-opacity: 0; stroke: #000000; stroke-width: 0.6"/>
      </g>
     </g>
    </g>
    <g id="ytick_23">
     <g id="line2d_40">
      <g>
       <use xlink:href="#m995c6daaff" x="51.104375" y="182.669089" style="fill-opacity: 0; stroke: #000000; stroke-width: 0.6"/>
      </g>
     </g>
    </g>
    <g id="ytick_24">
     <g id="line2d_41">
      <g>
       <use xlink:href="#m995c6daaff" x="51.104375" y="179.975652" style="fill-opacity: 0; stroke: #000000; stroke-width: 0.6"/>
      </g>
     </g>
    </g>
    <g id="ytick_25">
     <g id="line2d_42">
      <g>
       <use xlink:href="#m995c6daaff" x="51.104375" y="177.698384" style="fill-opacity: 0; stroke: #000000; stroke-width: 0.6"/>
      </g>
     </g>
    </g>
    <g id="ytick_26">
     <g id="line2d_43">
      <g>
       <use xlink:href="#m995c6daaff" x="51.104375" y="175.725724" style="fill-opacity: 0; stroke: #000000; stroke-width: 0.6"/>
      </g>
     </g>
    </g>
    <g id="ytick_27">
     <g id="line2d_44">
      <g>
       <use xlink:href="#m995c6daaff" x="51.104375" y="173.985715" style="fill-opacity: 0; stroke: #000000; stroke-width: 0.6"/>
      </g>
     </g>
    </g>
    <g id="ytick_28">
     <g id="line2d_45">
      <g>
       <use xlink:href="#m995c6daaff" x="51.104375" y="162.189358" style="fill-opacity: 0; stroke: #000000; stroke-width: 0.6"/>
      </g>
     </g>
    </g>
    <g id="ytick_29">
     <g id="line2d_46">
      <g>
       <use xlink:href="#m995c6daaff" x="51.104375" y="156.19942" style="fill-opacity: 0; stroke: #000000; stroke-width: 0.6"/>
      </g>
     </g>
    </g>
    <g id="ytick_30">
     <g id="line2d_47">
      <g>
       <use xlink:href="#m995c6daaff" x="51.104375" y="151.949492" style="fill-opacity: 0; stroke: #000000; stroke-width: 0.6"/>
      </g>
     </g>
    </g>
    <g id="ytick_31">
     <g id="line2d_48">
      <g>
       <use xlink:href="#m995c6daaff" x="51.104375" y="148.652991" style="fill-opacity: 0; stroke: #000000; stroke-width: 0.6"/>
      </g>
     </g>
    </g>
    <g id="ytick_32">
     <g id="line2d_49">
      <g>
       <use xlink:href="#m995c6daaff" x="51.104375" y="145.959554" style="fill-opacity: 0; stroke: #000000; stroke-width: 0.6"/>
      </g>
     </g>
    </g>
    <g id="ytick_33">
     <g id="line2d_50">
      <g>
       <use xlink:href="#m995c6daaff" x="51.104375" y="143.682285" style="fill-opacity: 0; stroke: #000000; stroke-width: 0.6"/>
      </g>
     </g>
    </g>
    <g id="ytick_34">
     <g id="line2d_51">
      <g>
       <use xlink:href="#m995c6daaff" x="51.104375" y="141.709626" style="fill-opacity: 0; stroke: #000000; stroke-width: 0.6"/>
      </g>
     </g>
    </g>
    <g id="ytick_35">
     <g id="line2d_52">
      <g>
       <use xlink:href="#m995c6daaff" x="51.104375" y="139.969616" style="fill-opacity: 0; stroke: #000000; stroke-width: 0.6"/>
      </g>
     </g>
    </g>
    <g id="ytick_36">
     <g id="line2d_53">
      <g>
       <use xlink:href="#m995c6daaff" x="51.104375" y="128.173259" style="fill-opacity: 0; stroke: #000000; stroke-width: 0.6"/>
      </g>
     </g>
    </g>
    <g id="ytick_37">
     <g id="line2d_54">
      <g>
       <use xlink:href="#m995c6daaff" x="51.104375" y="122.183321" style="fill-opacity: 0; stroke: #000000; stroke-width: 0.6"/>
      </g>
     </g>
    </g>
    <g id="ytick_38">
     <g id="line2d_55">
      <g>
       <use xlink:href="#m995c6daaff" x="51.104375" y="117.933393" style="fill-opacity: 0; stroke: #000000; stroke-width: 0.6"/>
      </g>
     </g>
    </g>
    <g id="ytick_39">
     <g id="line2d_56">
      <g>
       <use xlink:href="#m995c6daaff" x="51.104375" y="114.636892" style="fill-opacity: 0; stroke: #000000; stroke-width: 0.6"/>
      </g>
     </g>
    </g>
    <g id="ytick_40">
     <g id="line2d_57">
      <g>
       <use xlink:href="#m995c6daaff" x="51.104375" y="111.943455" style="fill-opacity: 0; stroke: #000000; stroke-width: 0.6"/>
      </g>
     </g>
    </g>
    <g id="ytick_41">
     <g id="line2d_58">
      <g>
       <use xlink:href="#m995c6daaff" x="51.104375" y="109.666187" style="fill-opacity: 0; stroke: #000000; stroke-width: 0.6"/>
      </g>
     </g>
    </g>
    <g id="ytick_42">
     <g id="line2d_59">
      <g>
       <use xlink:href="#m995c6daaff" x="51.104375" y="107.693527" style="fill-opacity: 0; stroke: #000000; stroke-width: 0.6"/>
      </g>
     </g>
    </g>
    <g id="ytick_43">
     <g id="line2d_60">
      <g>
       <use xlink:href="#m995c6daaff" x="51.104375" y="105.953518" style="fill-opacity: 0; stroke: #000000; stroke-width: 0.6"/>
      </g>
     </g>
    </g>
    <g id="ytick_44">
     <g id="line2d_61">
      <g>
       <use xlink:href="#m995c6daaff" x="51.104375" y="94.157161" style="fill-opacity: 0; stroke: #000000; stroke-width: 0.6"/>
      </g>
     </g>
    </g>
    <g id="ytick_45">
     <g id="line2d_62">
      <g>
       <use xlink:href="#m995c6daaff" x="51.104375" y="88.167223" style="fill-opacity: 0; stroke: #000000; stroke-width: 0.6"/>
      </g>
     </g>
    </g>
    <g id="ytick_46">
     <g id="line2d_63">
      <g>
       <use xlink:href="#m995c6daaff" x="51.104375" y="83.917295" style="fill-opacity: 0; stroke: #000000; stroke-width: 0.6"/>
      </g>
     </g>
    </g>
    <g id="ytick_47">
     <g id="line2d_64">
      <g>
       <use xlink:href="#m995c6daaff" x="51.104375" y="80.620794" style="fill-opacity: 0; stroke: #000000; stroke-width: 0.6"/>
      </g>
     </g>
    </g>
    <g id="ytick_48">
     <g id="line2d_65">
      <g>
       <use xlink:href="#m995c6daaff" x="51.104375" y="77.927357" style="fill-opacity: 0; stroke: #000000; stroke-width: 0.6"/>
      </g>
     </g>
    </g>
    <g id="ytick_49">
     <g id="line2d_66">
      <g>
       <use xlink:href="#m995c6daaff" x="51.104375" y="75.650088" style="fill-opacity: 0; stroke: #000000; stroke-width: 0.6"/>
      </g>
     </g>
    </g>
    <g id="ytick_50">
     <g id="line2d_67">
      <g>
       <use xlink:href="#m995c6daaff" x="51.104375" y="73.677429" style="fill-opacity: 0; stroke: #000000; stroke-width: 0.6"/>
      </g>
     </g>
    </g>
    <g id="ytick_51">
     <g id="line2d_68">
      <g>
       <use xlink:href="#m995c6daaff" x="51.104375" y="71.937419" style="fill-opacity: 0; stroke: #000000; stroke-width: 0.6"/>
      </g>
     </g>
    </g>
    <g id="ytick_52">
     <g id="line2d_69">
      <g>
       <use xlink:href="#m995c6daaff" x="51.104375" y="60.141062" style="fill-opacity: 0; stroke: #000000; stroke-width: 0.6"/>
      </g>
     </g>
    </g>
    <g id="ytick_53">
     <g id="line2d_70">
      <g>
       <use xlink:href="#m995c6daaff" x="51.104375" y="54.151124" style="fill-opacity: 0; stroke: #000000; stroke-width: 0.6"/>
      </g>
     </g>
    </g>
    <g id="ytick_54">
     <g id="line2d_71">
      <g>
       <use xlink:href="#m995c6daaff" x="51.104375" y="49.901196" style="fill-opacity: 0; stroke: #000000; stroke-width: 0.6"/>
      </g>
     </g>
    </g>
    <g id="ytick_55">
     <g id="line2d_72">
      <g>
       <use xlink:href="#m995c6daaff" x="51.104375" y="46.604696" style="fill-opacity: 0; stroke: #000000; stroke-width: 0.6"/>
      </g>
     </g>
    </g>
    <g id="ytick_56">
     <g id="line2d_73">
      <g>
       <use xlink:href="#m995c6daaff" x="51.104375" y="43.911258" style="fill-opacity: 0; stroke: #000000; stroke-width: 0.6"/>
      </g>
     </g>
    </g>
    <g id="ytick_57">
     <g id="line2d_74">
      <g>
       <use xlink:href="#m995c6daaff" x="51.104375" y="41.63399" style="fill-opacity: 0; stroke: #000000; stroke-width: 0.6"/>
      </g>
     </g>
    </g>
    <g id="ytick_58">
     <g id="line2d_75">
      <g>
       <use xlink:href="#m995c6daaff" x="51.104375" y="39.66133" style="fill-opacity: 0; stroke: #000000; stroke-width: 0.6"/>
      </g>
     </g>
    </g>
    <g id="ytick_59">
     <g id="line2d_76">
      <g>
       <use xlink:href="#m995c6daaff" x="51.104375" y="37.921321" style="fill-opacity: 0; stroke: #000000; stroke-width: 0.6"/>
      </g>
     </g>
    </g>
    <g id="text_10">
     <!-- eigenvalue -->
     <g transform="translate(16.318125 171.442187) rotate(-90) scale(0.12 -0.12)">
      <defs>
       <path id="DejaVuSerif-65" d="M 3469 1600 
L 991 1600 
L 991 1575 
Q 991 903 1244 561 
Q 1497 219 1991 219 
Q 2369 219 2611 417 
Q 2853 616 2950 1006 
L 3413 1006 
Q 3275 459 2904 184 
Q 2534 -91 1931 -91 
Q 1203 -91 761 389 
Q 319 869 319 1663 
Q 319 2450 753 2931 
Q 1188 3413 1894 3413 
Q 2647 3413 3050 2948 
Q 3453 2484 3469 1600 
z
M 2791 1931 
Q 2772 2513 2545 2808 
Q 2319 3103 1894 3103 
Q 1497 3103 1269 2806 
Q 1041 2509 991 1931 
L 2791 1931 
z
" transform="scale(0.015625)"/>
       <path id="DejaVuSerif-69" d="M 622 4353 
Q 622 4497 726 4603 
Q 831 4709 978 4709 
Q 1122 4709 1226 4603 
Q 1331 4497 1331 4353 
Q 1331 4206 1228 4103 
Q 1125 4000 978 4000 
Q 831 4000 726 4103 
Q 622 4206 622 4353 
z
M 1356 331 
L 1900 331 
L 1900 0 
L 231 0 
L 231 331 
L 781 331 
L 781 2988 
L 231 2988 
L 231 3322 
L 1356 3322 
L 1356 331 
z
" transform="scale(0.015625)"/>
       <path id="DejaVuSerif-67" d="M 3359 2988 
L 3359 72 
Q 3359 -644 2965 -1033 
Q 2572 -1422 1844 -1422 
Q 1516 -1422 1216 -1362 
Q 916 -1303 641 -1184 
L 641 -488 
L 941 -488 
Q 997 -813 1206 -963 
Q 1416 -1113 1806 -1113 
Q 2313 -1113 2548 -827 
Q 2784 -541 2784 72 
L 2784 519 
Q 2616 206 2355 57 
Q 2094 -91 1709 -91 
Q 1097 -91 708 395 
Q 319 881 319 1663 
Q 319 2444 706 2928 
Q 1094 3413 1709 3413 
Q 2094 3413 2355 3264 
Q 2616 3116 2784 2803 
L 2784 3322 
L 3909 3322 
L 3909 2988 
L 3359 2988 
z
M 2784 1825 
Q 2784 2422 2554 2737 
Q 2325 3053 1888 3053 
Q 1444 3053 1217 2703 
Q 991 2353 991 1663 
Q 991 975 1217 622 
Q 1444 269 1888 269 
Q 2325 269 2554 583 
Q 2784 897 2784 1497 
L 2784 1825 
z
" transform="scale(0.015625)"/>
       <path id="DejaVuSerif-6e" d="M 263 0 
L 263 331 
L 781 331 
L 781 2988 
L 231 2988 
L 231 3322 
L 1356 3322 
L 1356 2731 
Q 1516 3069 1770 3241 
Q 2025 3413 2363 3413 
Q 2913 3413 3172 3097 
Q 3431 2781 3431 2113 
L 3431 331 
L 3944 331 
L 3944 0 
L 2356 0 
L 2356 331 
L 2853 331 
L 2853 1931 
Q 2853 2541 2703 2767 
Q 2553 2994 2175 2994 
Q 1775 2994 1565 2701 
Q 1356 2409 1356 1850 
L 1356 331 
L 1856 331 
L 1856 0 
L 263 0 
z
" transform="scale(0.015625)"/>
       <path id="DejaVuSerif-76" d="M 1581 0 
L 359 2988 
L -19 2988 
L -19 3322 
L 1509 3322 
L 1509 2988 
L 978 2988 
L 1913 703 
L 2847 2988 
L 2350 2988 
L 2350 3322 
L 3597 3322 
L 3597 2988 
L 3225 2988 
L 2003 0 
L 1581 0 
z
" transform="scale(0.015625)"/>
       <path id="DejaVuSerif-61" d="M 2547 1044 
L 2547 1747 
L 1806 1747 
Q 1378 1747 1168 1562 
Q 959 1378 959 997 
Q 959 650 1171 447 
Q 1384 244 1747 244 
Q 2106 244 2326 466 
Q 2547 688 2547 1044 
z
M 3122 2075 
L 3122 331 
L 3634 331 
L 3634 0 
L 2547 0 
L 2547 359 
Q 2356 128 2106 18 
Q 1856 -91 1522 -91 
Q 969 -91 644 203 
Q 319 497 319 997 
Q 319 1513 691 1797 
Q 1063 2081 1741 2081 
L 2547 2081 
L 2547 2309 
Q 2547 2688 2317 2895 
Q 2088 3103 1672 3103 
Q 1328 3103 1125 2947 
Q 922 2791 872 2484 
L 575 2484 
L 575 3156 
Q 875 3284 1158 3348 
Q 1441 3413 1709 3413 
Q 2400 3413 2761 3070 
Q 3122 2728 3122 2075 
z
" transform="scale(0.015625)"/>
       <path id="DejaVuSerif-6c" d="M 1313 331 
L 1856 331 
L 1856 0 
L 184 0 
L 184 331 
L 738 331 
L 738 4531 
L 184 4531 
L 184 4863 
L 1313 4863 
L 1313 331 
z
" transform="scale(0.015625)"/>
       <path id="DejaVuSerif-75" d="M 2266 3322 
L 3341 3322 
L 3341 331 
L 3884 331 
L 3884 0 
L 2766 0 
L 2766 588 
Q 2606 256 2353 82 
Q 2100 -91 1766 -91 
Q 1213 -91 952 223 
Q 691 538 691 1209 
L 691 2988 
L 172 2988 
L 172 3322 
L 1269 3322 
L 1269 1388 
Q 1269 781 1417 556 
Q 1566 331 1947 331 
Q 2347 331 2556 625 
Q 2766 919 2766 1478 
L 2766 2988 
L 2266 2988 
L 2266 3322 
z
" transform="scale(0.015625)"/>
      </defs>
      <use xlink:href="#DejaVuSerif-65"/>
      <use xlink:href="#DejaVuSerif-69" transform="translate(59.179688 0)"/>
      <use xlink:href="#DejaVuSerif-67" transform="translate(91.162109 0)"/>
      <use xlink:href="#DejaVuSerif-65" transform="translate(155.175781 0)"/>
      <use xlink:href="#DejaVuSerif-6e" transform="translate(214.355469 0)"/>
      <use xlink:href="#DejaVuSerif-76" transform="translate(278.759766 0)"/>
      <use xlink:href="#DejaVuSerif-61" transform="translate(335.253906 0)"/>
      <use xlink:href="#DejaVuSerif-6c" transform="translate(394.873047 0)"/>
      <use xlink:href="#DejaVuSerif-75" transform="translate(426.855469 0)"/>
      <use xlink:href="#DejaVuSerif-65" transform="translate(491.259766 0)"/>
     </g>
    </g>
   </g>
   <g id="line2d_77">
    <defs>
     <path id="m14f79de187" d="M 0 3 
C 0.795609 3 1.55874 2.683901 2.12132 2.12132 
C 2.683901 1.55874 3 0.795609 3 0 
C 3 -0.795609 2.683901 -1.55874 2.12132 -2.12132 
C 1.55874 -2.683901 0.795609 -3 0 -3 
C -0.795609 -3 -1.55874 -2.683901 -2.12132 -2.12132 
C -2.683901 -1.55874 -3 -0.795609 -3 0 
C -3 0.795609 -2.683901 1.55874 -2.12132 2.12132 
C -1.55874 2.683901 -0.795609 3 0 3 
z
" style="stroke: #1f77b4"/>
    </defs>
    <g clip-path="url(#pe3ede5fbd3)">
     <use xlink:href="#m14f79de187" x="-1" y="206.645117" style="fill-opacity: 0; stroke: #1f77b4"/>
     <use xlink:href="#m14f79de187" x="74.112358" y="206.639222" style="fill-opacity: 0; stroke: #1f77b4"/>
     <use xlink:href="#m14f79de187" x="152.664962" y="194.659347" style="fill-opacity: 0; stroke: #1f77b4"/>
     <use xlink:href="#m14f79de187" x="198.615289" y="186.15949" style="fill-opacity: 0; stroke: #1f77b4"/>
     <use xlink:href="#m14f79de187" x="231.217565" y="179.566489" style="fill-opacity: 0; stroke: #1f77b4"/>
     <use xlink:href="#m14f79de187" x="256.505855" y="174.179615" style="fill-opacity: 0; stroke: #1f77b4"/>
     <use xlink:href="#m14f79de187" x="277.167893" y="169.625078" style="fill-opacity: 0; stroke: #1f77b4"/>
     <use xlink:href="#m14f79de187" x="294.637396" y="165.679758" style="fill-opacity: 0; stroke: #1f77b4"/>
     <use xlink:href="#m14f79de187" x="309.770169" y="162.19974" style="fill-opacity: 0; stroke: #1f77b4"/>
     <use xlink:href="#m14f79de187" x="323.11822" y="159.086757" style="fill-opacity: 0; stroke: #1f77b4"/>
     <use xlink:href="#m14f79de187" x="335.058459" y="156.270722" style="fill-opacity: 0; stroke: #1f77b4"/>
     <use xlink:href="#m14f79de187" x="345.859719" y="153.699883" style="fill-opacity: 0; stroke: #1f77b4"/>
     <use xlink:href="#m14f79de187" x="355.720496" y="151.334941" style="fill-opacity: 0; stroke: #1f77b4"/>
     <use xlink:href="#m14f79de187" x="364.791532" y="149.145346" style="fill-opacity: 0; stroke: #1f77b4"/>
     <use xlink:href="#m14f79de187" x="373.19" y="147.106882" style="fill-opacity: 0; stroke: #1f77b4"/>
     <use xlink:href="#m14f79de187" x="381.008786" y="145.200027" style="fill-opacity: 0; stroke: #1f77b4"/>
     <use xlink:href="#m14f79de187" x="388.322772" y="143.408811" style="fill-opacity: 0; stroke: #1f77b4"/>
     <use xlink:href="#m14f79de187" x="395.193206" y="141.720008" style="fill-opacity: 0; stroke: #1f77b4"/>
     <use xlink:href="#m14f79de187" x="401.670824" y="140.122537" style="fill-opacity: 0; stroke: #1f77b4"/>
     <use xlink:href="#m14f79de187" x="407.798124" y="138.607025" style="fill-opacity: 0; stroke: #1f77b4"/>
     <use xlink:href="#m14f79de187" x="413.611062" y="137.165471" style="fill-opacity: 0; stroke: #1f77b4"/>
     <use xlink:href="#m14f79de187" x="419.140327" y="135.79099" style="fill-opacity: 0; stroke: #1f77b4"/>
     <use xlink:href="#m14f79de187" x="424.412322" y="134.477618" style="fill-opacity: 0; stroke: #1f77b4"/>
     <use xlink:href="#m14f79de187" x="429.449927" y="133.220151" style="fill-opacity: 0; stroke: #1f77b4"/>
     <use xlink:href="#m14f79de187" x="434.2731" y="132.014024" style="fill-opacity: 0; stroke: #1f77b4"/>
     <use xlink:href="#m14f79de187" x="438.899352" y="130.855209" style="fill-opacity: 0; stroke: #1f77b4"/>
     <use xlink:href="#m14f79de187" x="443.344136" y="129.740133" style="fill-opacity: 0; stroke: #1f77b4"/>
     <use xlink:href="#m14f79de187" x="447.621151" y="128.665614" style="fill-opacity: 0; stroke: #1f77b4"/>
     <use xlink:href="#m14f79de187" x="451.742604" y="127.628806" style="fill-opacity: 0; stroke: #1f77b4"/>
     <use xlink:href="#m14f79de187" x="455.719413" y="126.627148" style="fill-opacity: 0; stroke: #1f77b4"/>
     <use xlink:href="#m14f79de187" x="459.56139" y="125.658348" style="fill-opacity: 0; stroke: #1f77b4"/>
     <use xlink:href="#m14f79de187" x="463.277377" y="124.720211" style="fill-opacity: 0; stroke: #1f77b4"/>
     <use xlink:href="#m14f79de187" x="466.875376" y="123.811867" style="fill-opacity: 0; stroke: #1f77b4"/>
     <use xlink:href="#m14f79de187" x="470.36265" y="122.925646" style="fill-opacity: 0; stroke: #1f77b4"/>
     <use xlink:href="#m14f79de187" x="473.74581" y="122.08966" style="fill-opacity: 0; stroke: #1f77b4"/>
     <use xlink:href="#m14f79de187" x="477.030894" y="121.192693" style="fill-opacity: 0; stroke: #1f77b4"/>
     <use xlink:href="#m14f79de187" x="480.223427" y="120.577997" style="fill-opacity: 0; stroke: #1f77b4"/>
     <use xlink:href="#m14f79de187" x="483.328483" y="119.356522" style="fill-opacity: 0; stroke: #1f77b4"/>
     <use xlink:href="#m14f79de187" x="486.350728" y="119.103416" style="fill-opacity: 0; stroke: #1f77b4"/>
     <use xlink:href="#m14f79de187" x="489.294463" y="117.212257" style="fill-opacity: 0; stroke: #1f77b4"/>
     <use xlink:href="#m14f79de187" x="492.163666" y="117.126551" style="fill-opacity: 0; stroke: #1f77b4"/>
     <use xlink:href="#m14f79de187" x="494.962017" y="114.642924" style="fill-opacity: 0; stroke: #1f77b4"/>
     <use xlink:href="#m14f79de187" x="497.692931" y="114.600553" style="fill-opacity: 0; stroke: #1f77b4"/>
     <use xlink:href="#m14f79de187" x="500.359582" y="111.590312" style="fill-opacity: 0; stroke: #1f77b4"/>
     <use xlink:href="#m14f79de187" x="502.964926" y="111.566401" style="fill-opacity: 0; stroke: #1f77b4"/>
     <use xlink:href="#m14f79de187" x="505.511717" y="107.946577" style="fill-opacity: 0; stroke: #1f77b4"/>
     <use xlink:href="#m14f79de187" x="508.002531" y="107.927581" style="fill-opacity: 0; stroke: #1f77b4"/>
     <use xlink:href="#m14f79de187" x="510.439774" y="103.586051" style="fill-opacity: 0; stroke: #1f77b4"/>
     <use xlink:href="#m14f79de187" x="512.825703" y="103.5734" style="fill-opacity: 0; stroke: #1f77b4"/>
     <use xlink:href="#m14f79de187" x="515.162435" y="98.227775" style="fill-opacity: 0; stroke: #1f77b4"/>
     <use xlink:href="#m14f79de187" x="517.451956" y="98.214947" style="fill-opacity: 0; stroke: #1f77b4"/>
     <use xlink:href="#m14f79de187" x="519.696137" y="91.506605" style="fill-opacity: 0; stroke: #1f77b4"/>
     <use xlink:href="#m14f79de187" x="521.89674" y="91.497949" style="fill-opacity: 0; stroke: #1f77b4"/>
     <use xlink:href="#m14f79de187" x="524.055423" y="82.470133" style="fill-opacity: 0; stroke: #1f77b4"/>
     <use xlink:href="#m14f79de187" x="526.173755" y="82.459385" style="fill-opacity: 0; stroke: #1f77b4"/>
     <use xlink:href="#m14f79de187" x="528.253216" y="69.379223" style="fill-opacity: 0; stroke: #1f77b4"/>
     <use xlink:href="#m14f79de187" x="530.295207" y="69.37264" style="fill-opacity: 0; stroke: #1f77b4"/>
     <use xlink:href="#m14f79de187" x="532.301055" y="43.562726" style="fill-opacity: 0; stroke: #1f77b4"/>
     <use xlink:href="#m14f79de187" x="534.272017" y="43.551304" style="fill-opacity: 0; stroke: #1f77b4"/>
    </g>
   </g>
   <g id="line2d_78">
    <path d="M 486.937276 240.46142 
L 486.937276 36.36483 
" clip-path="url(#pe3ede5fbd3)" style="fill: none; stroke-dasharray: 5.55,2.4; stroke-dashoffset: 0; stroke: #ff7f0e; stroke-width: 1.5"/>
   </g>
   <g id="patch_3">
    <path d="M 51.104375 250.66625 
L 51.104375 26.16 
" style="fill: none; stroke: #000000; stroke-width: 0.8; stroke-linejoin: miter; stroke-linecap: square"/>
   </g>
   <g id="patch_4">
    <path d="M 557.28 250.66625 
L 557.28 26.16 
" style="fill: none; stroke: #000000; stroke-width: 0.8; stroke-linejoin: miter; stroke-linecap: square"/>
   </g>
   <g id="patch_5">
    <path d="M 51.104375 250.66625 
L 557.28 250.66625 
" style="fill: none; stroke: #000000; stroke-width: 0.8; stroke-linejoin: miter; stroke-linecap: square"/>
   </g>
   <g id="patch_6">
    <path d="M 51.104375 26.16 
L 557.28 26.16 
" style="fill: none; stroke: #000000; stroke-width: 0.8; stroke-linejoin: miter; stroke-linecap: square"/>
   </g>
   <g id="text_11">
    <!-- $2\pi/N$ -->
    <g transform="translate(492.466541 193.512019) scale(0.12 -0.12)">
     <defs>
      <path id="DejaVuSans-32" d="M 1228 531 
L 3431 531 
L 3431 0 
L 469 0 
L 469 531 
Q 828 903 1448 1529 
Q 2069 2156 2228 2338 
Q 2531 2678 2651 2914 
Q 2772 3150 2772 3378 
Q 2772 3750 2511 3984 
Q 2250 4219 1831 4219 
Q 1534 4219 1204 4116 
Q 875 4013 500 3803 
L 500 4441 
Q 881 4594 1212 4672 
Q 1544 4750 1819 4750 
Q 2544 4750 2975 4387 
Q 3406 4025 3406 3419 
Q 3406 3131 3298 2873 
Q 3191 2616 2906 2266 
Q 2828 2175 2409 1742 
Q 1991 1309 1228 531 
z
" transform="scale(0.015625)"/>
      <path id="DejaVuSans-Oblique-3c0" d="M 584 3500 
L 3938 3500 
L 3825 2925 
L 3384 2925 
L 2966 775 
Q 2922 550 2981 450 
Q 3038 353 3209 353 
Q 3256 353 3325 363 
Q 3397 369 3419 372 
L 3338 -44 
Q 3222 -84 3103 -103 
Q 2981 -122 2866 -122 
Q 2491 -122 2388 81 
Q 2284 288 2391 838 
L 2797 2925 
L 1506 2925 
L 938 0 
L 350 0 
L 919 2925 
L 472 2925 
L 584 3500 
z
" transform="scale(0.015625)"/>
      <path id="DejaVuSans-2f" d="M 1625 4666 
L 2156 4666 
L 531 -594 
L 0 -594 
L 1625 4666 
z
" transform="scale(0.015625)"/>
      <path id="DejaVuSans-Oblique-4e" d="M 1081 4666 
L 1931 4666 
L 3219 666 
L 4000 4666 
L 4616 4666 
L 3706 0 
L 2853 0 
L 1569 4025 
L 788 0 
L 172 0 
L 1081 4666 
z
" transform="scale(0.015625)"/>
     </defs>
     <use xlink:href="#DejaVuSans-32" transform="translate(0 0.78125)"/>
     <use xlink:href="#DejaVuSans-Oblique-3c0" transform="translate(63.623047 0.78125)"/>
     <use xlink:href="#DejaVuSans-2f" transform="translate(123.828125 0.78125)"/>
     <use xlink:href="#DejaVuSans-Oblique-4e" transform="translate(157.519531 0.78125)"/>
    </g>
   </g>
   <g id="text_12">
    <!-- N=60      max |$\lambda$| = 0.047438191112363415$N^4$ -->
    <g transform="translate(133.264187 20.16) scale(0.144 -0.144)">
     <defs>
      <path id="DejaVuSerif-4e" d="M 313 0 
L 313 331 
L 941 331 
L 941 4331 
L 313 4331 
L 313 4666 
L 1509 4666 
L 4306 984 
L 4306 4331 
L 3681 4331 
L 3681 4666 
L 5319 4666 
L 5319 4331 
L 4691 4331 
L 4691 -91 
L 4313 -91 
L 1325 3841 
L 1325 331 
L 1953 331 
L 1953 0 
L 313 0 
z
" transform="scale(0.015625)"/>
      <path id="DejaVuSerif-3d" d="M 678 2894 
L 4684 2894 
L 4684 2394 
L 678 2394 
L 678 2894 
z
M 678 1619 
L 4684 1619 
L 4684 1119 
L 678 1119 
L 678 1619 
z
" transform="scale(0.015625)"/>
      <path id="DejaVuSerif-20" transform="scale(0.015625)"/>
      <path id="DejaVuSerif-6d" d="M 3316 2675 
Q 3481 3041 3739 3227 
Q 3997 3413 4341 3413 
Q 4863 3413 5119 3089 
Q 5375 2766 5375 2113 
L 5375 331 
L 5894 331 
L 5894 0 
L 4300 0 
L 4300 331 
L 4800 331 
L 4800 2047 
Q 4800 2556 4650 2772 
Q 4500 2988 4153 2988 
Q 3769 2988 3567 2697 
Q 3366 2406 3366 1850 
L 3366 331 
L 3866 331 
L 3866 0 
L 2291 0 
L 2291 331 
L 2791 331 
L 2791 2069 
Q 2791 2566 2641 2777 
Q 2491 2988 2144 2988 
Q 1759 2988 1557 2697 
Q 1356 2406 1356 1850 
L 1356 331 
L 1856 331 
L 1856 0 
L 263 0 
L 263 331 
L 781 331 
L 781 2994 
L 231 2994 
L 231 3322 
L 1356 3322 
L 1356 2731 
Q 1516 3063 1762 3238 
Q 2009 3413 2322 3413 
Q 2709 3413 2968 3220 
Q 3228 3028 3316 2675 
z
" transform="scale(0.015625)"/>
      <path id="DejaVuSerif-78" d="M 1863 2028 
L 2559 2988 
L 2113 2988 
L 2113 3322 
L 3391 3322 
L 3391 2988 
L 2950 2988 
L 2059 1759 
L 3097 331 
L 3531 331 
L 3531 0 
L 1997 0 
L 1997 331 
L 2419 331 
L 1697 1325 
L 972 331 
L 1403 331 
L 1403 0 
L 141 0 
L 141 331 
L 581 331 
L 1497 1594 
L 488 2988 
L 78 2988 
L 78 3322 
L 1563 3322 
L 1563 2988 
L 1166 2988 
L 1863 2028 
z
" transform="scale(0.015625)"/>
      <path id="DejaVuSerif-7c" d="M 1331 4891 
L 1331 -1509 
L 825 -1509 
L 825 4891 
L 1331 4891 
z
" transform="scale(0.015625)"/>
      <path id="DejaVuSans-Oblique-3bb" d="M 2350 4316 
L 3125 0 
L 2516 0 
L 2038 2588 
L 328 0 
L -281 0 
L 1903 3356 
L 1794 3975 
Q 1725 4369 1391 4369 
L 1091 4369 
L 1184 4863 
L 1550 4856 
Q 2253 4847 2350 4316 
z
" transform="scale(0.015625)"/>
      <path id="DejaVuSerif-2e" d="M 603 325 
Q 603 500 722 622 
Q 841 744 1019 744 
Q 1191 744 1312 622 
Q 1434 500 1434 325 
Q 1434 153 1312 31 
Q 1191 -91 1019 -91 
Q 841 -91 722 29 
Q 603 150 603 325 
z
" transform="scale(0.015625)"/>
      <path id="DejaVuSerif-37" d="M 3609 4347 
L 1784 0 
L 1319 0 
L 3059 4153 
L 903 4153 
L 903 3578 
L 538 3578 
L 538 4666 
L 3609 4666 
L 3609 4347 
z
" transform="scale(0.015625)"/>
      <path id="DejaVuSerif-38" d="M 2981 1275 
Q 2981 1775 2732 2051 
Q 2484 2328 2034 2328 
Q 1584 2328 1336 2051 
Q 1088 1775 1088 1275 
Q 1088 772 1336 495 
Q 1584 219 2034 219 
Q 2484 219 2732 495 
Q 2981 772 2981 1275 
z
M 2853 3541 
Q 2853 3966 2637 4203 
Q 2422 4441 2034 4441 
Q 1650 4441 1433 4203 
Q 1216 3966 1216 3541 
Q 1216 3113 1433 2875 
Q 1650 2638 2034 2638 
Q 2422 2638 2637 2875 
Q 2853 3113 2853 3541 
z
M 2516 2484 
Q 3047 2413 3344 2092 
Q 3641 1772 3641 1275 
Q 3641 619 3225 264 
Q 2809 -91 2034 -91 
Q 1263 -91 845 264 
Q 428 619 428 1275 
Q 428 1772 725 2092 
Q 1022 2413 1556 2484 
Q 1084 2569 832 2842 
Q 581 3116 581 3541 
Q 581 4103 968 4426 
Q 1356 4750 2034 4750 
Q 2713 4750 3100 4426 
Q 3488 4103 3488 3541 
Q 3488 3116 3236 2842 
Q 2984 2569 2516 2484 
z
" transform="scale(0.015625)"/>
      <path id="DejaVuSerif-39" d="M 2994 2091 
Q 2784 1856 2512 1740 
Q 2241 1625 1900 1625 
Q 1206 1625 804 2044 
Q 403 2463 403 3188 
Q 403 3897 839 4323 
Q 1275 4750 2003 4750 
Q 2794 4750 3217 4161 
Q 3641 3572 3641 2478 
Q 3641 1253 3137 581 
Q 2634 -91 1722 -91 
Q 1475 -91 1203 -44 
Q 931 3 647 97 
L 647 872 
L 997 872 
Q 1038 556 1241 387 
Q 1444 219 1784 219 
Q 2391 219 2687 676 
Q 2984 1134 2994 2091 
z
M 1978 4441 
Q 1534 4441 1298 4117 
Q 1063 3794 1063 3188 
Q 1063 2581 1298 2256 
Q 1534 1931 1978 1931 
Q 2422 1931 2658 2245 
Q 2894 2559 2894 3150 
Q 2894 3772 2656 4106 
Q 2419 4441 1978 4441 
z
" transform="scale(0.015625)"/>
      <path id="DejaVuSans-34" d="M 2419 4116 
L 825 1625 
L 2419 1625 
L 2419 4116 
z
M 2253 4666 
L 3047 4666 
L 3047 1625 
L 3713 1625 
L 3713 1100 
L 3047 1100 
L 3047 0 
L 2419 0 
L 2419 1100 
L 313 1100 
L 313 1709 
L 2253 4666 
z
" transform="scale(0.015625)"/>
     </defs>
     <use xlink:href="#DejaVuSerif-4e" transform="translate(0 0.684375)"/>
     <use xlink:href="#DejaVuSerif-3d" transform="translate(87.5 0.684375)"/>
     <use xlink:href="#DejaVuSerif-36" transform="translate(171.289062 0.684375)"/>
     <use xlink:href="#DejaVuSerif-30" transform="translate(234.912109 0.684375)"/>
     <use xlink:href="#DejaVuSerif-20" transform="translate(298.535156 0.684375)"/>
     <use xlink:href="#DejaVuSerif-20" transform="translate(330.322266 0.684375)"/>
     <use xlink:href="#DejaVuSerif-20" transform="translate(362.109375 0.684375)"/>
     <use xlink:href="#DejaVuSerif-20" transform="translate(393.896484 0.684375)"/>
     <use xlink:href="#DejaVuSerif-20" transform="translate(425.683594 0.684375)"/>
     <use xlink:href="#DejaVuSerif-20" transform="translate(457.470703 0.684375)"/>
     <use xlink:href="#DejaVuSerif-6d" transform="translate(489.257812 0.684375)"/>
     <use xlink:href="#DejaVuSerif-61" transform="translate(584.082031 0.684375)"/>
     <use xlink:href="#DejaVuSerif-78" transform="translate(643.701172 0.684375)"/>
     <use xlink:href="#DejaVuSerif-20" transform="translate(700.097656 0.684375)"/>
     <use xlink:href="#DejaVuSerif-7c" transform="translate(731.884766 0.684375)"/>
     <use xlink:href="#DejaVuSans-Oblique-3bb" transform="translate(765.576172 0.684375)"/>
     <use xlink:href="#DejaVuSerif-7c" transform="translate(824.755859 0.684375)"/>
     <use xlink:href="#DejaVuSerif-20" transform="translate(858.447266 0.684375)"/>
     <use xlink:href="#DejaVuSerif-3d" transform="translate(890.234375 0.684375)"/>
     <use xlink:href="#DejaVuSerif-20" transform="translate(974.023438 0.684375)"/>
     <use xlink:href="#DejaVuSerif-30" transform="translate(1005.810547 0.684375)"/>
     <use xlink:href="#DejaVuSerif-2e" transform="translate(1069.433594 0.684375)"/>
     <use xlink:href="#DejaVuSerif-30" transform="translate(1101.220703 0.684375)"/>
     <use xlink:href="#DejaVuSerif-34" transform="translate(1164.84375 0.684375)"/>
     <use xlink:href="#DejaVuSerif-37" transform="translate(1228.466797 0.684375)"/>
     <use xlink:href="#DejaVuSerif-34" transform="translate(1292.089844 0.684375)"/>
     <use xlink:href="#DejaVuSerif-33" transform="translate(1355.712891 0.684375)"/>
     <use xlink:href="#DejaVuSerif-38" transform="translate(1417.585938 0.684375)"/>
     <use xlink:href="#DejaVuSerif-31" transform="translate(1481.208984 0.684375)"/>
     <use xlink:href="#DejaVuSerif-39" transform="translate(1544.832031 0.684375)"/>
     <use xlink:href="#DejaVuSerif-31" transform="translate(1608.455078 0.684375)"/>
     <use xlink:href="#DejaVuSerif-31" transform="translate(1672.078125 0.684375)"/>
     <use xlink:href="#DejaVuSerif-31" transform="translate(1735.701172 0.684375)"/>
     <use xlink:href="#DejaVuSerif-32" transform="translate(1799.324219 0.684375)"/>
     <use xlink:href="#DejaVuSerif-33" transform="translate(1862.947266 0.684375)"/>
     <use xlink:href="#DejaVuSerif-36" transform="translate(1926.570312 0.684375)"/>
     <use xlink:href="#DejaVuSerif-33" transform="translate(1990.193359 0.684375)"/>
     <use xlink:href="#DejaVuSerif-34" transform="translate(2053.816406 0.684375)"/>
     <use xlink:href="#DejaVuSerif-31" transform="translate(2117.439453 0.684375)"/>
     <use xlink:href="#DejaVuSerif-35" transform="translate(2181.0625 0.684375)"/>
     <use xlink:href="#DejaVuSans-Oblique-4e" transform="translate(2244.685547 0.684375)"/>
     <use xlink:href="#DejaVuSans-34" transform="translate(2326.507005 38.965625) scale(0.7)"/>
    </g>
   </g>
  </g>
 </g>
 <defs>
  <clipPath id="pe3ede5fbd3">
   <rect x="51.104375" y="26.16" width="506.175625" height="224.50625"/>
  </clipPath>
 </defs>
</svg>