<?xml version="1.0" encoding="utf-8" standalone="no"?>
<!DOCTYPE svg PUBLIC "-//W3C//DTD SVG 1.1//EN"
  "http://www.w3.org/Graphics/SVG/1.1/DTD/svg11.dtd">
<svg xmlns:xlink="http://www.w3.org/1999/xlink" width="397.6075pt" height="300.989344pt" viewBox="0 0 397.6075 300.989344" xmlns="http://www.w3.org/2000/svg" version="1.1">
 <metadata>
  <rdf:RDF xmlns:dc="http://purl.org/dc/elements/1.1/" xmlns:cc="http://creativecommons.org/ns#" xmlns:rdf="http://www.w3.org/1999/02/22-rdf-syntax-ns#">
   <cc:Work>
    <dc:type rdf:resource="http://purl.org/dc/dcmitype/StillImage"/>
    <dc:date>2024-12-10T11:54:09.403718</dc:date>
    <dc:format>image/svg+xml</dc:format>
    <dc:creator>
     <cc:Agent>
      <dc:title>Matplotlib v3.9.2, https://matplotlib.org/</dc:title>
     </cc:Agent>
    </dc:creator>
   </cc:Work>
  </rdf:RDF>
 </metadata>
 <defs>
  <style type="text/css">*{stroke-linejoin: round; stroke-linecap: butt}</style>
 </defs>
 <g id="figure_1">
  <g id="patch_1">
   <path d="M 0 300.989344 
L 397.6075 300.989344 
L 397.6075 0 
L 0 0 
z
" style="fill: #ffffff"/>
  </g>
  <g id="axes_1">
   <g id="patch_2">
    <path d="M 26.925 277.111219 
L 384.045 277.111219 
L 384.045 10.999219 
L 26.925 10.999219 
z
" style="fill: #ffffff"/>
   </g>
   <g id="matplotlib.axis_1">
    <g id="xtick_1">
     <g id="line2d_1">
      <defs>
       <path id="ma52aaf99ae" d="M 0 0 
L 0 3.5 
" style="stroke: #000000; stroke-width: 0.8"/>
      </defs>
      <g>
       <use xlink:href="#ma52aaf99ae" x="26.925" y="277.111219" style="stroke: #000000; stroke-width: 0.8"/>
      </g>
     </g>
     <g id="text_1">
      <!-- 0 -->
      <g transform="translate(23.74375 291.709656) scale(0.1 -0.1)">
       <defs>
        <path id="DejaVuSans-30" d="M 2034 4250 
Q 1547 4250 1301 3770 
Q 1056 3291 1056 2328 
Q 1056 1369 1301 889 
Q 1547 409 2034 409 
Q 2525 409 2770 889 
Q 3016 1369 3016 2328 
Q 3016 3291 2770 3770 
Q 2525 4250 2034 4250 
z
M 2034 4750 
Q 2819 4750 3233 4129 
Q 3647 3509 3647 2328 
Q 3647 1150 3233 529 
Q 2819 -91 2034 -91 
Q 1250 -91 836 529 
Q 422 1150 422 2328 
Q 422 3509 836 4129 
Q 1250 4750 2034 4750 
z
" transform="scale(0.015625)"/>
       </defs>
       <use xlink:href="#DejaVuSans-30"/>
      </g>
     </g>
    </g>
    <g id="xtick_2">
     <g id="line2d_2">
      <g>
       <use xlink:href="#ma52aaf99ae" x="98.349" y="277.111219" style="stroke: #000000; stroke-width: 0.8"/>
      </g>
     </g>
     <g id="text_2">
      <!-- 10 -->
      <g transform="translate(91.9865 291.709656) scale(0.1 -0.1)">
       <defs>
        <path id="DejaVuSans-31" d="M 794 531 
L 1825 531 
L 1825 4091 
L 703 3866 
L 703 4441 
L 1819 4666 
L 2450 4666 
L 2450 531 
L 3481 531 
L 3481 0 
L 794 0 
L 794 531 
z
" transform="scale(0.015625)"/>
       </defs>
       <use xlink:href="#DejaVuSans-31"/>
       <use xlink:href="#DejaVuSans-30" x="63.623047"/>
      </g>
     </g>
    </g>
    <g id="xtick_3">
     <g id="line2d_3">
      <g>
       <use xlink:href="#ma52aaf99ae" x="169.773" y="277.111219" style="stroke: #000000; stroke-width: 0.8"/>
      </g>
     </g>
     <g id="text_3">
      <!-- 20 -->
      <g transform="translate(163.4105 291.709656) scale(0.1 -0.1)">
       <defs>
        <path id="DejaVuSans-32" d="M 1228 531 
L 3431 531 
L 3431 0 
L 469 0 
L 469 531 
Q 828 903 1448 1529 
Q 2069 2156 2228 2338 
Q 2531 2678 2651 2914 
Q 2772 3150 2772 3378 
Q 2772 3750 2511 3984 
Q 2250 4219 1831 4219 
Q 1534 4219 1204 4116 
Q 875 4013 500 3803 
L 500 4441 
Q 881 4594 1212 4672 
Q 1544 4750 1819 4750 
Q 2544 4750 2975 4387 
Q 3406 4025 3406 3419 
Q 3406 3131 3298 2873 
Q 3191 2616 2906 2266 
Q 2828 2175 2409 1742 
Q 1991 1309 1228 531 
z
" transform="scale(0.015625)"/>
       </defs>
       <use xlink:href="#DejaVuSans-32"/>
       <use xlink:href="#DejaVuSans-30" x="63.623047"/>
      </g>
     </g>
    </g>
    <g id="xtick_4">
     <g id="line2d_4">
      <g>
       <use xlink:href="#ma52aaf99ae" x="241.197" y="277.111219" style="stroke: #000000; stroke-width: 0.8"/>
      </g>
     </g>
     <g id="text_4">
      <!-- 30 -->
      <g transform="translate(234.8345 291.709656) scale(0.1 -0.1)">
       <defs>
        <path id="DejaVuSans-33" d="M 2597 2516 
Q 3050 2419 3304 2112 
Q 3559 1806 3559 1356 
Q 3559 666 3084 287 
Q 2609 -91 1734 -91 
Q 1441 -91 1130 -33 
Q 819 25 488 141 
L 488 750 
Q 750 597 1062 519 
Q 1375 441 1716 441 
Q 2309 441 2620 675 
Q 2931 909 2931 1356 
Q 2931 1769 2642 2001 
Q 2353 2234 1838 2234 
L 1294 2234 
L 1294 2753 
L 1863 2753 
Q 2328 2753 2575 2939 
Q 2822 3125 2822 3475 
Q 2822 3834 2567 4026 
Q 2313 4219 1838 4219 
Q 1578 4219 1281 4162 
Q 984 4106 628 3988 
L 628 4550 
Q 988 4650 1302 4700 
Q 1616 4750 1894 4750 
Q 2613 4750 3031 4423 
Q 3450 4097 3450 3541 
Q 3450 3153 3228 2886 
Q 3006 2619 2597 2516 
z
" transform="scale(0.015625)"/>
       </defs>
       <use xlink:href="#DejaVuSans-33"/>
       <use xlink:href="#DejaVuSans-30" x="63.623047"/>
      </g>
     </g>
    </g>
    <g id="xtick_5">
     <g id="line2d_5">
      <g>
       <use xlink:href="#ma52aaf99ae" x="312.621" y="277.111219" style="stroke: #000000; stroke-width: 0.8"/>
      </g>
     </g>
     <g id="text_5">
      <!-- 40 -->
      <g transform="translate(306.2585 291.709656) scale(0.1 -0.1)">
       <defs>
        <path id="DejaVuSans-34" d="M 2419 4116 
L 825 1625 
L 2419 1625 
L 2419 4116 
z
M 2253 4666 
L 3047 4666 
L 3047 1625 
L 3713 1625 
L 3713 1100 
L 3047 1100 
L 3047 0 
L 2419 0 
L 2419 1100 
L 313 1100 
L 313 1709 
L 2253 4666 
z
" transform="scale(0.015625)"/>
       </defs>
       <use xlink:href="#DejaVuSans-34"/>
       <use xlink:href="#DejaVuSans-30" x="63.623047"/>
      </g>
     </g>
    </g>
    <g id="xtick_6">
     <g id="line2d_6">
      <g>
       <use xlink:href="#ma52aaf99ae" x="384.045" y="277.111219" style="stroke: #000000; stroke-width: 0.8"/>
      </g>
     </g>
     <g id="text_6">
      <!-- 50 -->
      <g transform="translate(377.6825 291.709656) scale(0.1 -0.1)">
       <defs>
        <path id="DejaVuSans-35" d="M 691 4666 
L 3169 4666 
L 3169 4134 
L 1269 4134 
L 1269 2991 
Q 1406 3038 1543 3061 
Q 1681 3084 1819 3084 
Q 2600 3084 3056 2656 
Q 3513 2228 3513 1497 
Q 3513 744 3044 326 
Q 2575 -91 1722 -91 
Q 1428 -91 1123 -41 
Q 819 9 494 109 
L 494 744 
Q 775 591 1075 516 
Q 1375 441 1709 441 
Q 2250 441 2565 725 
Q 2881 1009 2881 1497 
Q 2881 1984 2565 2268 
Q 2250 2553 1709 2553 
Q 1456 2553 1204 2497 
Q 953 2441 691 2322 
L 691 4666 
z
" transform="scale(0.015625)"/>
       </defs>
       <use xlink:href="#DejaVuSans-35"/>
       <use xlink:href="#DejaVuSans-30" x="63.623047"/>
      </g>
     </g>
    </g>
   </g>
   <g id="matplotlib.axis_2">
    <g id="ytick_1">
     <g id="line2d_7">
      <defs>
       <path id="me2a7cba18b" d="M 0 0 
L -3.5 0 
" style="stroke: #000000; stroke-width: 0.8"/>
      </defs>
      <g>
       <use xlink:href="#me2a7cba18b" x="26.925" y="277.111219" style="stroke: #000000; stroke-width: 0.8"/>
      </g>
     </g>
     <g id="text_7">
      <!-- 0 -->
      <g transform="translate(13.5625 280.910437) scale(0.1 -0.1)">
       <use xlink:href="#DejaVuSans-30"/>
      </g>
     </g>
    </g>
    <g id="ytick_2">
     <g id="line2d_8">
      <g>
       <use xlink:href="#me2a7cba18b" x="26.925" y="243.847219" style="stroke: #000000; stroke-width: 0.8"/>
      </g>
     </g>
     <g id="text_8">
      <!-- 5 -->
      <g transform="translate(13.5625 247.646437) scale(0.1 -0.1)">
       <use xlink:href="#DejaVuSans-35"/>
      </g>
     </g>
    </g>
    <g id="ytick_3">
     <g id="line2d_9">
      <g>
       <use xlink:href="#me2a7cba18b" x="26.925" y="210.583219" style="stroke: #000000; stroke-width: 0.8"/>
      </g>
     </g>
     <g id="text_9">
      <!-- 10 -->
      <g transform="translate(7.2 214.382437) scale(0.1 -0.1)">
       <use xlink:href="#DejaVuSans-31"/>
       <use xlink:href="#DejaVuSans-30" x="63.623047"/>
      </g>
     </g>
    </g>
    <g id="ytick_4">
     <g id="line2d_10">
      <g>
       <use xlink:href="#me2a7cba18b" x="26.925" y="177.319219" style="stroke: #000000; stroke-width: 0.8"/>
      </g>
     </g>
     <g id="text_10">
      <!-- 15 -->
      <g transform="translate(7.2 181.118437) scale(0.1 -0.1)">
       <use xlink:href="#DejaVuSans-31"/>
       <use xlink:href="#DejaVuSans-35" x="63.623047"/>
      </g>
     </g>
    </g>
    <g id="ytick_5">
     <g id="line2d_11">
      <g>
       <use xlink:href="#me2a7cba18b" x="26.925" y="144.055219" style="stroke: #000000; stroke-width: 0.8"/>
      </g>
     </g>
     <g id="text_11">
      <!-- 20 -->
      <g transform="translate(7.2 147.854437) scale(0.1 -0.1)">
       <use xlink:href="#DejaVuSans-32"/>
       <use xlink:href="#DejaVuSans-30" x="63.623047"/>
      </g>
     </g>
    </g>
    <g id="ytick_6">
     <g id="line2d_12">
      <g>
       <use xlink:href="#me2a7cba18b" x="26.925" y="110.791219" style="stroke: #000000; stroke-width: 0.8"/>
      </g>
     </g>
     <g id="text_12">
      <!-- 25 -->
      <g transform="translate(7.2 114.590437) scale(0.1 -0.1)">
       <use xlink:href="#DejaVuSans-32"/>
       <use xlink:href="#DejaVuSans-35" x="63.623047"/>
      </g>
     </g>
    </g>
    <g id="ytick_7">
     <g id="line2d_13">
      <g>
       <use xlink:href="#me2a7cba18b" x="26.925" y="77.527219" style="stroke: #000000; stroke-width: 0.8"/>
      </g>
     </g>
     <g id="text_13">
      <!-- 30 -->
      <g transform="translate(7.2 81.326437) scale(0.1 -0.1)">
       <use xlink:href="#DejaVuSans-33"/>
       <use xlink:href="#DejaVuSans-30" x="63.623047"/>
      </g>
     </g>
    </g>
    <g id="ytick_8">
     <g id="line2d_14">
      <g>
       <use xlink:href="#me2a7cba18b" x="26.925" y="44.263219" style="stroke: #000000; stroke-width: 0.8"/>
      </g>
     </g>
     <g id="text_14">
      <!-- 35 -->
      <g transform="translate(7.2 48.062437) scale(0.1 -0.1)">
       <use xlink:href="#DejaVuSans-33"/>
       <use xlink:href="#DejaVuSans-35" x="63.623047"/>
      </g>
     </g>
    </g>
    <g id="ytick_9">
     <g id="line2d_15">
      <g>
       <use xlink:href="#me2a7cba18b" x="26.925" y="10.999219" style="stroke: #000000; stroke-width: 0.8"/>
      </g>
     </g>
     <g id="text_15">
      <!-- 40 -->
      <g transform="translate(7.2 14.798437) scale(0.1 -0.1)">
       <use xlink:href="#DejaVuSans-34"/>
       <use xlink:href="#DejaVuSans-30" x="63.623047"/>
      </g>
     </g>
    </g>
   </g>
   <g id="line2d_16">
    <defs>
     <path id="macf6d5dd07" d="M 0 3 
C 0.795609 3 1.55874 2.683901 2.12132 2.12132 
C 2.683901 1.55874 3 0.795609 3 0 
C 3 -0.795609 2.683901 -1.55874 2.12132 -2.12132 
C 1.55874 -2.683901 0.795609 -3 0 -3 
C -0.795609 -3 -1.55874 -2.683901 -2.12132 -2.12132 
C -2.683901 -1.55874 -3 -0.795609 -3 0 
C -3 0.795609 -2.683901 1.55874 -2.12132 2.12132 
C -1.55874 2.683901 -0.795609 3 0 3 
z
" style="stroke: #1f77b4"/>
    </defs>
    <g clip-path="url(#p57a74f47e0)">
     <use xlink:href="#macf6d5dd07" x="1007.142501" y="-1" style="fill: #1f77b4; stroke: #1f77b4"/>
     <use xlink:href="#macf6d5dd07" x="929.158707" y="203.565169" style="fill: #1f77b4; stroke: #1f77b4"/>
     <use xlink:href="#macf6d5dd07" x="910.589004" y="-1" style="fill: #1f77b4; stroke: #1f77b4"/>
     <use xlink:href="#macf6d5dd07" x="888.257533" y="-1" style="fill: #1f77b4; stroke: #1f77b4"/>
     <use xlink:href="#macf6d5dd07" x="833.344567" y="117.044832" style="fill: #1f77b4; stroke: #1f77b4"/>
     <use xlink:href="#macf6d5dd07" x="794.29627" y="0.168008" style="fill: #1f77b4; stroke: #1f77b4"/>
     <use xlink:href="#macf6d5dd07" x="794.757991" y="-1" style="fill: #1f77b4; stroke: #1f77b4"/>
     <use xlink:href="#macf6d5dd07" x="794.574865" y="-1" style="fill: #1f77b4; stroke: #1f77b4"/>
     <use xlink:href="#macf6d5dd07" x="764.505416" y="61.72859" style="fill: #1f77b4; stroke: #1f77b4"/>
     <use xlink:href="#macf6d5dd07" x="685.305652" y="-1" style="fill: #1f77b4; stroke: #1f77b4"/>
     <use xlink:href="#macf6d5dd07" x="678.96422" y="-1" style="fill: #1f77b4; stroke: #1f77b4"/>
     <use xlink:href="#macf6d5dd07" x="716.182883" y="29.024165" style="fill: #1f77b4; stroke: #1f77b4"/>
     <use xlink:href="#macf6d5dd07" x="690.539261" y="22.099001" style="fill: #1f77b4; stroke: #1f77b4"/>
     <use xlink:href="#macf6d5dd07" x="37.228735" y="270.193782" style="fill: #1f77b4; stroke: #1f77b4"/>
     <use xlink:href="#macf6d5dd07" x="57.836206" y="256.358908" style="fill: #1f77b4; stroke: #1f77b4"/>
     <use xlink:href="#macf6d5dd07" x="658.000387" y="27.135779" style="fill: #1f77b4; stroke: #1f77b4"/>
     <use xlink:href="#macf6d5dd07" x="78.443677" y="242.524035" style="fill: #1f77b4; stroke: #1f77b4"/>
     <use xlink:href="#macf6d5dd07" x="621.32093" y="26.24154" style="fill: #1f77b4; stroke: #1f77b4"/>
     <use xlink:href="#macf6d5dd07" x="99.051147" y="228.689161" style="fill: #1f77b4; stroke: #1f77b4"/>
     <use xlink:href="#macf6d5dd07" x="119.658618" y="214.854287" style="fill: #1f77b4; stroke: #1f77b4"/>
     <use xlink:href="#macf6d5dd07" x="588.403037" y="25.051176" style="fill: #1f77b4; stroke: #1f77b4"/>
     <use xlink:href="#macf6d5dd07" x="557.258866" y="-1" style="fill: #1f77b4; stroke: #1f77b4"/>
     <use xlink:href="#macf6d5dd07" x="529.786079" y="-1" style="fill: #1f77b4; stroke: #1f77b4"/>
     <use xlink:href="#macf6d5dd07" x="556.10078" y="24.770501" style="fill: #1f77b4; stroke: #1f77b4"/>
     <use xlink:href="#macf6d5dd07" x="140.266089" y="201.019414" style="fill: #1f77b4; stroke: #1f77b4"/>
     <use xlink:href="#macf6d5dd07" x="160.873559" y="187.18454" style="fill: #1f77b4; stroke: #1f77b4"/>
     <use xlink:href="#macf6d5dd07" x="181.48103" y="173.349667" style="fill: #1f77b4; stroke: #1f77b4"/>
     <use xlink:href="#macf6d5dd07" x="524.335727" y="24.298129" style="fill: #1f77b4; stroke: #1f77b4"/>
     <use xlink:href="#macf6d5dd07" x="202.088501" y="159.514793" style="fill: #1f77b4; stroke: #1f77b4"/>
     <use xlink:href="#macf6d5dd07" x="222.695971" y="145.679919" style="fill: #1f77b4; stroke: #1f77b4"/>
     <use xlink:href="#macf6d5dd07" x="493.471787" y="23.741542" style="fill: #1f77b4; stroke: #1f77b4"/>
     <use xlink:href="#macf6d5dd07" x="243.303442" y="131.845045" style="fill: #1f77b4; stroke: #1f77b4"/>
     <use xlink:href="#macf6d5dd07" x="263.910905" y="118.010166" style="fill: #1f77b4; stroke: #1f77b4"/>
     <use xlink:href="#macf6d5dd07" x="284.518291" y="104.17531" style="fill: #1f77b4; stroke: #1f77b4"/>
     <use xlink:href="#macf6d5dd07" x="305.125379" y="90.340995" style="fill: #1f77b4; stroke: #1f77b4"/>
     <use xlink:href="#macf6d5dd07" x="463.342293" y="23.145888" style="fill: #1f77b4; stroke: #1f77b4"/>
     <use xlink:href="#macf6d5dd07" x="325.734123" y="76.510997" style="fill: #1f77b4; stroke: #1f77b4"/>
     <use xlink:href="#macf6d5dd07" x="346.374409" y="62.693267" style="fill: #1f77b4; stroke: #1f77b4"/>
     <use xlink:href="#macf6d5dd07" x="367.216697" y="48.786945" style="fill: #1f77b4; stroke: #1f77b4"/>
     <use xlink:href="#macf6d5dd07" x="433.463339" y="21.691577" style="fill: #1f77b4; stroke: #1f77b4"/>
     <use xlink:href="#macf6d5dd07" x="388.46437" y="33.470454" style="fill: #1f77b4; stroke: #1f77b4"/>
     <use xlink:href="#macf6d5dd07" x="410.277421" y="14.122153" style="fill: #1f77b4; stroke: #1f77b4"/>
     <use xlink:href="#macf6d5dd07" x="400.633447" y="16.41812" style="fill: #1f77b4; stroke: #1f77b4"/>
     <use xlink:href="#macf6d5dd07" x="398.463398" y="-1" style="fill: #1f77b4; stroke: #1f77b4"/>
    </g>
   </g>
   <g id="QuadContourSet_1">
    <path d="M 366.189 48.399155 
L 365.941192 47.589619 
L 366.189 47.327198 
L 367.0676 47.589619 
L 366.189 48.399155 
z
" clip-path="url(#p57a74f47e0)" style="fill: none; stroke: #000000; stroke-width: 1.5"/>
    <path d="M 384.045 42.215707 
L 382.018549 40.936819 
L 380.4738 39.45211 
L 379.18772 37.610419 
L 378.170002 34.284019 
L 378.303949 30.957619 
L 379.427121 27.631219 
L 380.4738 25.735937 
L 381.584858 24.304819 
L 384.045 21.479405 
M 305.4786 91.04323 
L 305.184562 90.832819 
L 305.4786 90.488974 
L 305.754235 90.832819 
L 305.4786 91.04323 
z
M 326.9058 77.573865 
L 326.76172 77.527219 
L 326.9058 77.362606 
L 326.965769 77.527219 
L 326.9058 77.573865 
z
M 344.7618 64.836457 
L 344.109098 64.221619 
L 344.182207 60.895219 
L 344.7618 60.270979 
L 348.333 60.196919 
L 349.123133 60.895219 
L 349.06872 64.221619 
L 348.333 64.792161 
L 344.7618 64.836457 
z
M 362.6178 51.170706 
L 362.429647 50.916019 
L 361.945414 47.589619 
L 362.6178 46.068621 
L 364.190577 44.263219 
L 366.189 42.870769 
L 369.7602 42.5732 
L 372.957255 44.263219 
L 373.3314 44.852122 
L 374.374584 47.589619 
L 373.3314 50.692958 
L 373.266451 50.916019 
L 369.7602 53.454859 
L 366.189 53.690125 
L 362.6178 51.170706 
z
" clip-path="url(#p57a74f47e0)" style="fill: none; stroke: #000000; stroke-width: 1.5"/>
    <path d="M 384.045 58.092938 
L 380.4738 59.572658 
L 377.114779 60.895219 
L 376.9026 60.959111 
L 373.3314 61.815023 
L 369.7602 62.277819 
L 366.189 62.234071 
L 362.6178 61.688033 
L 359.0466 63.41121 
L 358.655428 64.221619 
L 355.4754 67.547858 
L 355.475252 67.548019 
L 351.9042 69.594403 
L 348.333 70.604424 
L 344.7618 70.378487 
L 341.1906 68.6601 
L 339.992448 67.548019 
L 338.21501 64.221619 
L 338.128095 60.895219 
L 339.512445 57.568819 
L 341.1906 55.382339 
L 342.740058 54.242419 
L 344.7618 52.806608 
L 348.333 51.407242 
L 350.72842 50.916019 
L 351.9042 50.179887 
L 352.671307 47.589619 
L 353.363686 44.263219 
L 354.683436 40.936819 
L 355.4754 39.453743 
L 356.701833 37.610419 
L 359.0466 34.449642 
L 359.205186 34.284019 
L 362.228227 30.957619 
L 362.6178 30.481301 
L 365.256456 27.631219 
L 366.189 25.921099 
L 366.897599 24.304819 
L 368.564998 20.978419 
L 369.7602 18.80168 
L 370.469538 17.652019 
L 372.675365 14.325619 
L 373.3314 13.380558 
L 375.181865 10.999219 
M 284.0514 105.13738 
L 283.138085 104.138419 
L 284.0514 103.046085 
L 285.509153 104.138419 
L 284.0514 105.13738 
z
M 305.4786 92.728456 
L 302.829556 90.832819 
L 305.4786 87.735047 
L 307.961852 90.832819 
L 305.4786 92.728456 
z
M 326.9058 80.942811 
L 326.366382 80.853619 
L 323.3346 80.146206 
L 321.232984 77.527219 
L 321.671871 74.200819 
L 323.3346 72.263522 
L 326.9058 71.226889 
L 330.477 72.988836 
L 331.414113 74.200819 
L 331.39906 77.527219 
L 330.477 78.608174 
L 327.170748 80.853619 
L 326.9058 80.942811 
" clip-path="url(#p57a74f47e0)" style="fill: none; stroke: #000000; stroke-width: 1.5"/>
    <path d="M 384.045 74.888569 
L 380.4738 75.559316 
L 376.9026 76.194939 
L 373.3314 76.779055 
L 370.473766 77.527219 
L 369.7602 77.696111 
L 366.189 78.628012 
L 362.6178 79.615461 
L 359.0466 80.581845 
L 357.898991 80.853619 
L 355.4754 81.324682 
L 351.9042 81.862592 
L 348.333 82.190376 
L 344.7618 82.741101 
L 342.125767 84.180019 
L 341.1906 84.571118 
L 337.6194 86.1979 
L 334.480523 87.506419 
L 334.0482 87.640968 
L 330.477 88.456261 
L 326.9058 88.765937 
L 323.3346 88.447691 
L 320.146811 87.506419 
L 319.7634 87.36262 
L 319.152877 87.506419 
L 316.1922 90.612266 
L 316.138857 90.832819 
L 313.756773 94.159219 
L 312.621 94.984495 
L 309.0498 96.994121 
L 306.005011 97.485619 
L 305.4786 97.548685 
L 305.178971 97.485619 
L 301.9074 96.632231 
L 298.919445 94.159219 
L 298.3362 92.923643 
L 297.615267 90.832819 
L 297.997484 87.506419 
L 298.3362 86.796701 
L 300.25633 84.180019 
L 301.9074 82.636312 
L 305.4786 80.984526 
L 306.449304 80.853619 
L 309.0498 80.366946 
L 312.621 78.725479 
L 312.694613 77.527219 
L 312.878105 74.200819 
L 313.902989 70.874419 
L 315.658475 67.548019 
L 316.1922 66.741165 
L 318.368283 64.221619 
L 319.7634 62.660802 
L 321.808384 60.895219 
L 323.3346 59.405382 
L 325.464788 57.568819 
L 326.9058 55.102205 
L 327.262155 54.242419 
L 328.97095 50.916019 
L 330.477 48.246798 
L 330.905523 47.589619 
L 333.192601 44.263219 
L 334.0482 43.001616 
L 335.648423 40.936819 
L 337.6194 38.176898 
L 338.070811 37.610419 
L 340.400406 34.284019 
L 341.1906 32.921763 
L 342.347397 30.957619 
L 344.295043 27.631219 
L 344.7618 26.839722 
L 346.405669 24.304819 
L 348.333 21.171522 
L 348.463664 20.978419 
L 350.699932 17.652019 
L 351.9042 15.742499 
L 352.87565 14.325619 
L 354.992268 10.999219 
M 262.6242 119.160357 
L 261.676364 117.444019 
L 262.6242 116.222697 
L 266.1954 117.03642 
L 266.499212 117.444019 
L 266.1954 117.981671 
L 262.6242 119.160357 
z
M 284.0514 108.14204 
L 282.680527 107.464819 
L 280.4802 104.699418 
L 280.253119 104.138419 
L 280.4802 103.421494 
L 282.162434 100.812019 
L 284.0514 99.596757 
L 287.6226 100.165662 
L 288.469606 100.812019 
L 289.780341 104.138419 
L 287.6226 107.346161 
L 287.373989 107.464819 
L 284.0514 108.14204 
z
" clip-path="url(#p57a74f47e0)" style="fill: none; stroke: #000000; stroke-width: 1.5"/>
    <path d="M 384.045 92.759046 
L 380.4738 93.457597 
L 377.073782 94.159219 
L 376.9026 94.189171 
L 373.3314 94.821467 
L 369.7602 95.477575 
L 366.189 96.151644 
L 362.6178 96.836863 
L 359.255414 97.485619 
L 359.0466 97.520194 
L 355.4754 98.175199 
L 351.9042 98.923696 
L 348.333 99.719254 
L 344.7618 100.542532 
L 343.568782 100.812019 
L 341.1906 101.262117 
L 337.6194 101.906229 
L 334.0482 102.499232 
L 330.477 103.102131 
L 326.920363 104.138419 
L 326.9058 104.142165 
L 323.3346 105.132839 
L 319.7634 106.167048 
L 316.1922 107.143356 
L 314.762097 107.464819 
L 312.621 107.859857 
L 309.0498 108.310058 
L 305.4786 108.492557 
L 301.9074 109.285953 
L 299.62381 110.791219 
L 298.3362 111.412839 
L 294.765 113.234956 
L 292.732753 114.117619 
L 291.1938 114.603834 
L 287.6226 115.29504 
L 284.0514 115.338759 
L 280.4802 114.605492 
L 279.357516 114.117619 
L 276.909 112.676659 
L 274.232784 114.117619 
L 273.875358 117.444019 
L 273.3378 118.335708 
L 272.187021 120.770419 
L 269.7666 122.799359 
L 267.213619 124.096819 
L 266.1954 124.415641 
L 262.6242 124.362503 
L 261.980869 124.096819 
L 259.053 122.306026 
L 257.820166 120.770419 
L 257.047805 117.444019 
L 258.088959 114.117619 
L 259.053 112.767135 
L 261.759229 110.791219 
L 262.6242 110.221078 
L 266.1954 109.397393 
L 269.7666 109.816386 
L 271.800494 110.791219 
L 273.3378 112.666475 
L 274.224454 110.791219 
L 273.3378 108.487 
L 272.901987 107.464819 
L 272.606981 104.138419 
L 273.025443 100.812019 
L 273.3378 99.935202 
L 274.406536 97.485619 
L 276.646779 94.159219 
L 276.909 93.823843 
L 280.055504 90.832819 
L 280.4802 90.411521 
L 284.0514 87.618935 
L 284.21128 87.506419 
L 286.705435 84.180019 
L 287.6226 82.11219 
L 288.202356 80.853619 
L 290.075567 77.527219 
L 291.1938 75.711295 
L 292.287122 74.200819 
L 294.696803 70.874419 
L 294.765 70.778883 
L 297.388962 67.548019 
L 298.3362 66.256393 
L 299.879079 64.221619 
L 301.820283 60.895219 
L 301.9074 60.739285 
L 303.849784 57.568819 
L 305.4786 54.837248 
L 305.872343 54.242419 
L 308.066879 50.916019 
L 309.0498 49.352242 
L 310.2698 47.589619 
L 312.410345 44.263219 
L 312.621 43.924608 
L 314.589856 40.936819 
L 316.1922 38.187599 
L 316.55296 37.610419 
L 318.619601 34.284019 
L 319.7634 32.343981 
L 320.653583 30.957619 
L 322.703513 27.631219 
L 323.3346 26.568582 
L 324.795215 24.304819 
L 326.788152 20.978419 
L 326.9058 20.779259 
L 328.890094 17.652019 
L 330.477 14.927023 
L 330.856303 14.325619 
L 332.922072 10.999219 
M 223.341 147.642968 
L 222.722778 147.381619 
L 222.357271 144.055219 
L 223.341 143.54181 
L 224.099952 144.055219 
L 223.794378 147.381619 
L 223.341 147.642968 
M 241.197 134.786493 
L 240.406666 134.076019 
L 239.611922 130.749619 
L 241.197 128.573292 
L 244.7682 127.765418 
L 247.902208 130.749619 
L 246.78956 134.076019 
L 244.7682 135.295662 
L 241.197 134.786493 
" clip-path="url(#p57a74f47e0)" style="fill: none; stroke: #000000; stroke-width: 1.5"/>
    <path d="M 384.045 111.81069 
L 380.4738 112.401099 
L 376.9026 113.014397 
L 373.3314 113.651421 
L 370.801019 114.117619 
L 369.7602 114.281913 
L 366.189 114.862354 
L 362.6178 115.468294 
L 359.0466 116.10021 
L 355.4754 116.757925 
L 351.9042 117.440635 
L 351.886534 117.444019 
L 348.333 118.02492 
L 344.7618 118.627154 
L 341.1906 119.268326 
L 337.6194 119.965871 
L 334.0482 120.70028 
L 333.71181 120.770419 
L 330.477 121.342914 
L 326.9058 121.993266 
L 323.3346 122.65607 
L 319.7634 123.322823 
L 316.1922 123.986743 
L 315.693801 124.096819 
L 312.621 124.692079 
L 309.0498 125.460248 
L 305.4786 126.274003 
L 301.9074 127.106385 
L 300.495992 127.423219 
L 298.3362 127.829883 
L 294.765 128.450785 
L 291.1938 128.996939 
L 287.6226 129.625562 
L 284.188633 130.749619 
L 284.0514 130.787974 
L 280.4802 131.864093 
L 276.909 132.958568 
L 273.3378 133.937588 
L 272.666127 134.076019 
L 269.7666 134.567863 
L 266.1954 134.901702 
L 262.6242 134.967547 
L 259.053 136.204405 
L 257.588834 137.402419 
L 255.4818 138.593649 
L 251.9106 140.605019 
L 251.629997 140.728819 
L 248.3394 141.755337 
L 244.7682 142.235268 
L 241.197 141.912977 
L 237.886563 140.728819 
L 237.6258 140.606615 
L 234.0546 137.403699 
L 234.05294 137.402419 
L 232.603024 134.076019 
L 232.356783 130.749619 
L 233.115781 127.423219 
L 234.0546 125.457155 
L 234.925795 124.096819 
L 237.6258 120.954936 
L 237.870697 120.770419 
L 241.197 118.143571 
L 242.427074 117.444019 
L 244.7682 115.777084 
L 246.055396 114.117619 
L 247.363614 110.791219 
L 248.3394 108.666027 
L 248.974554 107.464819 
L 251.065606 104.138419 
L 251.9106 102.880289 
L 253.562958 100.812019 
L 255.4818 98.322934 
L 256.234787 97.485619 
L 258.921012 94.159219 
L 259.053 93.973753 
L 261.105898 90.832819 
L 262.6242 88.027935 
L 262.935379 87.506419 
L 265.01335 84.180019 
L 266.1954 82.253074 
L 267.151689 80.853619 
L 269.341373 77.527219 
L 269.7666 76.858995 
L 271.623945 74.200819 
L 273.3378 71.514335 
L 273.764071 70.874419 
L 275.812717 67.548019 
L 276.909 65.652704 
L 277.809497 64.221619 
L 279.838834 60.895219 
L 280.4802 59.811529 
L 281.925931 57.568819 
L 283.92751 54.242419 
L 284.0514 54.033255 
L 286.055005 50.916019 
L 287.6226 48.265576 
L 288.04991 47.589619 
L 290.07489 44.263219 
L 291.1938 42.318191 
L 292.054832 40.936819 
L 294.046328 37.610419 
L 294.765 36.361199 
L 296.059945 34.284019 
L 298.008146 30.957619 
L 298.3362 30.384496 
L 300.042396 27.631219 
L 301.9074 24.36605 
L 301.94513 24.304819 
L 303.977261 20.978419 
L 305.4786 18.326575 
L 305.892012 17.652019 
L 307.886035 14.325619 
L 309.0498 12.263047 
L 309.821791 10.999219 
M 180.4866 174.843539 
L 179.652059 173.992819 
L 180.4866 172.306724 
L 182.888066 173.992819 
L 180.4866 174.843539 
M 201.9138 162.905515 
L 198.810693 160.687219 
L 199.425389 157.360819 
L 201.9138 155.659037 
L 205.485 157.017445 
L 205.807557 157.360819 
L 206.041254 160.687219 
L 205.485 161.259071 
L 201.9138 162.905515 
z
M 219.7698 150.923455 
L 219.445101 150.708019 
L 216.656871 147.381619 
L 216.462366 144.055219 
L 218.461385 140.728819 
L 219.7698 139.482936 
L 223.341 138.095591 
L 226.9122 138.249981 
L 230.4834 140.462871 
L 230.723147 140.728819 
L 231.704727 144.055219 
L 230.682296 147.381619 
L 230.4834 147.594199 
L 227.278611 150.708019 
L 226.9122 150.89445 
L 223.341 151.726771 
L 219.7698 150.923455 
" clip-path="url(#p57a74f47e0)" style="fill: none; stroke: #000000; stroke-width: 1.5"/>
    <path d="M 384.045 131.987569 
L 380.4738 132.526314 
L 376.9026 133.084109 
L 373.3314 133.661854 
L 370.841049 134.076019 
L 369.7602 134.231098 
L 366.189 134.752078 
L 362.6178 135.291387 
L 359.0466 135.849927 
L 355.4754 136.429481 
L 351.9042 137.032901 
L 349.776736 137.402419 
L 348.333 137.618346 
L 344.7618 138.163723 
L 341.1906 138.729467 
L 337.6194 139.316208 
L 334.0482 139.924554 
L 330.477 140.555229 
L 329.516222 140.728819 
L 326.9058 141.135132 
L 323.3346 141.715397 
L 319.7634 142.320554 
L 316.1922 142.950632 
L 312.621 143.604849 
L 310.221301 144.055219 
L 309.0498 144.243824 
L 305.4786 144.824488 
L 301.9074 145.422728 
L 298.3362 146.072624 
L 294.765 146.776315 
L 291.827104 147.381619 
L 291.1938 147.492928 
L 287.6226 148.129127 
L 284.0514 148.780982 
L 280.4802 149.438412 
L 276.909 150.091126 
L 273.525338 150.708019 
L 273.3378 150.738311 
L 269.7666 151.479361 
L 266.1954 152.282031 
L 262.6242 153.125622 
L 259.053 153.972793 
L 258.774622 154.034419 
L 255.4818 154.64743 
L 251.9106 155.241327 
L 248.3394 155.732643 
L 244.7682 156.462209 
L 242.413018 157.360819 
L 241.197 157.735679 
L 237.6258 158.918171 
L 234.0546 160.070037 
L 231.76088 160.687219 
L 230.4834 160.964761 
L 226.9122 161.488768 
L 223.341 161.667402 
L 219.7698 161.640723 
L 216.1986 163.77748 
L 215.976278 164.013619 
L 212.6274 166.26166 
L 210.912543 167.340019 
L 209.0562 168.122818 
L 205.485 169.103118 
L 201.9138 169.261592 
L 198.3426 168.452599 
L 196.260897 167.340019 
L 194.7714 166.176429 
L 193.023979 164.013619 
L 191.849674 160.687219 
L 191.922927 157.360819 
L 193.113174 154.034419 
L 194.7714 151.435459 
L 195.465048 150.708019 
L 198.3426 148.074179 
L 199.545804 147.381619 
L 201.9138 145.797857 
L 205.192789 144.055219 
L 205.485 143.617131 
L 206.375531 140.728819 
L 207.719648 137.402419 
L 209.0562 134.841106 
L 209.532831 134.076019 
L 211.896692 130.749619 
L 212.6274 129.752496 
L 214.667303 127.423219 
L 216.1986 125.542411 
L 217.549942 124.096819 
L 219.7698 121.167897 
L 220.024231 120.770419 
L 221.84244 117.444019 
L 223.341 114.77299 
L 223.750665 114.117619 
L 225.897272 110.791219 
L 226.9122 109.183721 
L 228.122474 107.464819 
L 230.326907 104.138419 
L 230.4834 103.894334 
L 232.642757 100.812019 
L 234.0546 98.492206 
L 234.678759 97.485619 
L 236.670757 94.159219 
L 237.6258 92.514911 
L 238.689908 90.832819 
L 240.712569 87.506419 
L 241.197 86.688835 
L 242.814184 84.180019 
L 244.7682 80.907067 
L 244.80283 80.853619 
L 246.920976 77.527219 
L 248.3394 75.070713 
L 248.874698 74.200819 
L 250.875816 70.874419 
L 251.9106 69.065167 
L 252.84988 67.548019 
L 254.821425 64.221619 
L 255.4818 63.065286 
L 256.822669 60.895219 
L 258.751114 57.568819 
L 259.053 57.036293 
L 260.762633 54.242419 
L 262.6242 50.938356 
L 262.637766 50.916019 
L 264.64669 47.589619 
L 266.1954 44.823073 
L 266.534146 44.263219 
L 268.507542 40.936819 
L 269.7666 38.675433 
L 270.407386 37.610419 
L 272.344759 34.284019 
L 273.3378 32.488599 
L 274.252125 30.957619 
L 276.153114 27.631219 
L 276.909 26.254109 
L 278.064806 24.304819 
L 279.936448 20.978419 
L 280.4802 19.982385 
L 281.854447 17.652019 
L 283.699582 14.325619 
L 284.0514 13.677583 
L 285.621988 10.999219 
M 119.7762 214.302507 
L 119.527228 213.909619 
L 119.7762 213.716121 
L 120.050356 213.909619 
L 119.7762 214.302507 
z
M 141.2034 202.137632 
L 139.028956 200.604019 
L 141.2034 199.3333 
L 142.443317 200.604019 
L 141.2034 202.137632 
z
M 159.0594 189.695048 
L 157.42513 187.298419 
L 159.0594 184.212164 
L 160.669588 183.972019 
L 162.6306 183.760541 
L 162.979558 183.972019 
L 164.966514 187.298419 
L 162.6306 190.009712 
L 159.0594 189.695048 
z
M 180.4866 178.919006 
L 177.388995 177.319219 
L 176.9154 176.806199 
L 175.524029 173.992819 
L 176.004803 170.666419 
L 176.9154 169.236324 
L 179.403376 167.340019 
L 180.4866 166.670077 
L 184.0578 166.276404 
L 187.008754 167.340019 
L 187.629 167.773782 
L 189.570116 170.666419 
L 189.368391 173.992819 
L 187.629 176.435537 
L 186.879078 177.319219 
L 184.0578 178.747055 
L 180.4866 178.919006 
" clip-path="url(#p57a74f47e0)" style="fill: none; stroke: #000000; stroke-width: 1.5"/>
    <path d="M 384.045 153.789055 
L 382.332301 154.034419 
L 380.4738 154.267143 
L 376.9026 154.722783 
L 373.3314 155.191447 
L 369.7602 155.673807 
L 366.189 156.170602 
L 362.6178 156.682475 
L 359.0466 157.210168 
L 358.043054 157.360819 
L 355.4754 157.697058 
L 351.9042 158.17607 
L 348.333 158.669734 
L 344.7618 159.178783 
L 341.1906 159.704315 
L 337.6194 160.247439 
L 334.808112 160.687219 
L 334.0482 160.790749 
L 330.477 161.284518 
L 326.9058 161.794272 
L 323.3346 162.320756 
L 319.7634 162.864757 
L 316.1922 163.42714 
L 312.621 164.011022 
L 312.605348 164.013619 
L 309.0498 164.525931 
L 305.4786 165.058632 
L 301.9074 165.610209 
L 298.3362 166.181222 
L 294.765 166.772131 
L 291.441444 167.340019 
L 291.1938 167.376739 
L 287.6226 167.91186 
L 284.0514 168.474419 
L 280.4802 169.063746 
L 276.909 169.677252 
L 273.3378 170.314341 
L 271.40724 170.666419 
L 269.7666 170.925172 
L 266.1954 171.496757 
L 262.6242 172.082586 
L 259.053 172.691382 
L 255.4818 173.366315 
L 252.372784 173.992819 
L 251.9106 174.072943 
L 248.3394 174.70518 
L 244.7682 175.357077 
L 241.197 176.018004 
L 237.6258 176.675433 
L 234.0546 177.317878 
L 234.047464 177.319219 
L 230.4834 177.922442 
L 226.9122 178.716278 
L 223.341 179.571052 
L 219.7698 180.454571 
L 218.971685 180.645619 
L 216.1986 181.204503 
L 212.6274 181.864028 
L 209.0562 182.422629 
L 205.485 182.848424 
L 201.9138 183.930466 
L 201.818384 183.972019 
L 198.3426 185.177029 
L 194.7714 186.476992 
L 192.307574 187.298419 
L 191.2002 187.592505 
L 187.629 188.329627 
L 184.0578 188.727591 
L 180.4866 188.705729 
L 176.9154 188.840397 
L 175.079427 190.624819 
L 173.3442 191.890341 
L 170.774194 193.951219 
L 169.773 194.477249 
L 166.2018 195.999244 
L 162.6306 196.687451 
L 159.0594 196.410942 
L 155.4882 194.977305 
L 154.119675 193.951219 
L 151.917 191.179475 
L 151.595903 190.624819 
L 150.853613 187.298419 
L 151.268818 183.972019 
L 151.917 182.405157 
L 152.885401 180.645619 
L 155.4882 177.587255 
L 155.868814 177.319219 
L 159.0594 175.038932 
L 161.318717 173.992819 
L 162.6306 173.226436 
L 164.978805 170.666419 
L 166.124779 167.340019 
L 166.2018 167.156358 
L 167.706483 164.013619 
L 169.712914 160.687219 
L 169.773 160.59763 
L 172.393852 157.360819 
L 173.3442 156.170204 
L 175.371939 154.034419 
L 176.9154 152.218556 
L 178.243465 150.708019 
L 180.224723 147.381619 
L 180.4866 146.883438 
L 182.106556 144.055219 
L 184.0578 140.731171 
L 184.059352 140.728819 
L 186.317765 137.402419 
L 187.629 135.384752 
L 188.575525 134.076019 
L 190.831409 130.749619 
L 191.2002 130.176252 
L 193.051483 127.423219 
L 194.7714 124.432903 
L 194.974168 124.096819 
L 197.005155 120.770419 
L 198.3426 118.479821 
L 199.00113 117.444019 
L 201.060548 114.117619 
L 201.9138 112.676997 
L 203.125338 110.791219 
L 205.133196 107.464819 
L 205.485 106.86316 
L 207.180507 104.138419 
L 209.0562 100.830494 
L 209.067464 100.812019 
L 211.090865 97.485619 
L 212.6274 94.779033 
L 213.007396 94.159219 
L 215.003451 90.832819 
L 216.1986 88.719877 
L 216.938984 87.506419 
L 218.892531 84.180019 
L 219.7698 82.613125 
L 220.8268 80.853619 
L 222.724526 77.527219 
L 223.341 76.411281 
L 224.656488 74.200819 
L 226.526642 70.874419 
L 226.9122 70.172631 
L 228.465481 67.548019 
L 230.307114 64.221619 
L 230.4834 63.898537 
L 232.24799 60.895219 
L 234.0546 57.580648 
L 234.061538 57.568819 
L 235.997895 54.242419 
L 237.6258 51.233067 
L 237.810499 50.916019 
L 239.72266 47.589619 
L 241.197 44.847687 
L 241.535404 44.263219 
L 243.425118 40.936819 
L 244.7682 38.423581 
L 245.236044 37.610419 
L 247.10497 34.284019 
L 248.3394 31.959471 
L 248.912064 30.957619 
L 250.762794 27.631219 
L 251.9106 25.457656 
L 252.565861 24.304819 
L 254.401009 20.978419 
L 255.4818 18.920678 
L 256.198919 17.652019 
L 258.020269 14.325619 
L 259.053 12.349003 
L 259.811845 10.999219 
M 37.6386 270.745975 
L 37.250262 270.458419 
L 37.6386 270.105685 
L 37.945129 270.458419 
L 37.6386 270.745975 
M 98.349 230.601547 
L 98.264574 230.541619 
L 97.73406 227.215219 
L 98.349 226.673635 
L 99.76234 227.215219 
L 98.547904 230.541619 
L 98.349 230.601547 
M 119.7762 218.204087 
L 117.734563 217.236019 
L 116.205 213.986219 
L 116.187123 213.909619 
L 116.205 213.876425 
L 119.7762 211.113689 
L 123.3474 213.336929 
L 123.707768 213.909619 
L 123.3474 214.985757 
L 122.161076 217.236019 
L 119.7762 218.204087 
z
M 137.6322 205.916884 
L 135.356626 203.930419 
L 134.277533 200.604019 
L 135.583916 197.277619 
L 137.6322 195.255114 
L 141.2034 194.12728 
L 144.7746 194.772037 
L 147.559773 197.277619 
L 148.108979 200.604019 
L 146.620578 203.930419 
L 144.7746 205.378345 
L 141.2034 206.676609 
L 137.6322 205.916884 
" clip-path="url(#p57a74f47e0)" style="fill: none; stroke: #000000; stroke-width: 1.5"/>
    <path d="M 384.045 177.886026 
L 380.4738 178.281603 
L 376.9026 178.685909 
L 373.3314 179.099306 
L 369.7602 179.522173 
L 366.189 179.954911 
L 362.6178 180.397945 
L 360.65605 180.645619 
L 359.0466 180.826301 
L 355.4754 181.233434 
L 351.9042 181.65009 
L 348.333 182.07669 
L 344.7618 182.513675 
L 341.1906 182.961513 
L 337.6194 183.420702 
L 334.0482 183.891766 
L 333.447774 183.972019 
L 330.477 184.324334 
L 326.9058 184.757481 
L 323.3346 185.201705 
L 319.7634 185.65753 
L 316.1922 186.125509 
L 312.621 186.606222 
L 309.0498 187.100284 
L 307.642996 187.298419 
L 305.4786 187.568399 
L 301.9074 188.023053 
L 298.3362 188.490733 
L 294.765 188.971726 
L 291.1938 189.46668 
L 287.6226 189.976253 
L 284.0514 190.501114 
L 283.223204 190.624819 
L 280.4802 190.986905 
L 276.909 191.469875 
L 273.3378 191.967489 
L 269.7666 192.48272 
L 266.1954 193.014869 
L 262.6242 193.564507 
L 260.176515 193.951219 
L 259.053 194.107791 
L 255.4818 194.614081 
L 251.9106 195.135237 
L 248.3394 195.671596 
L 244.7682 196.22875 
L 241.197 196.815311 
L 238.478455 197.277619 
L 237.6258 197.405148 
L 234.0546 197.949818 
L 230.4834 198.511547 
L 226.9122 199.088548 
L 223.341 199.678715 
L 219.7698 200.280362 
L 217.965927 200.604019 
L 216.1986 200.885586 
L 212.6274 201.498463 
L 209.0562 202.14072 
L 205.485 202.805937 
L 201.9138 203.483477 
L 199.539228 203.930419 
L 198.3426 204.127334 
L 194.7714 204.696157 
L 191.2002 205.262238 
L 187.629 205.997053 
L 184.0578 206.871416 
L 182.556037 207.256819 
L 180.4866 207.710024 
L 176.9154 208.490903 
L 173.3442 209.227397 
L 169.773 209.869363 
L 166.2018 210.375704 
L 164.741988 210.583219 
L 162.6306 210.89459 
L 159.0594 212.179143 
L 155.4882 213.606603 
L 154.727919 213.909619 
L 151.917 214.798931 
L 148.3458 215.751273 
L 144.7746 216.378324 
L 141.2034 216.588648 
L 137.6322 216.32764 
L 135.501043 217.236019 
L 134.061 218.172994 
L 131.562247 220.562419 
L 130.4898 221.239708 
L 126.9186 223.305849 
L 125.341341 223.888819 
L 123.3474 224.435569 
L 119.7762 224.662718 
L 116.205 223.955487 
L 116.059891 223.888819 
L 112.6338 221.791383 
L 111.429646 220.562419 
L 109.675755 217.236019 
L 109.306815 213.909619 
L 110.086672 210.583219 
L 112.005789 207.256819 
L 112.6338 206.457503 
L 115.577604 203.930419 
L 116.205 203.404625 
L 119.7762 201.415455 
L 121.876321 200.604019 
L 123.3474 199.250315 
L 124.098172 197.277619 
L 125.233446 193.951219 
L 126.862705 190.624819 
L 126.9186 190.530241 
L 129.198526 187.298419 
L 130.4898 185.588774 
L 131.981451 183.972019 
L 134.061 181.587144 
L 135.0224 180.645619 
L 137.6322 177.66819 
L 137.873622 177.319219 
L 139.578349 173.992819 
L 141.2034 171.010021 
L 141.410774 170.666419 
L 143.533532 167.340019 
L 144.7746 165.381696 
L 145.741893 164.013619 
L 147.995677 160.687219 
L 148.3458 160.148402 
L 150.318405 157.360819 
L 151.917 154.792184 
L 152.385916 154.034419 
L 154.329293 150.708019 
L 155.4882 148.675492 
L 156.285639 147.381619 
L 158.293661 144.055219 
L 159.0594 142.747109 
L 160.335954 140.728819 
L 162.325808 137.402419 
L 162.6306 136.878679 
L 164.381897 134.076019 
L 166.2018 130.880042 
L 166.279891 130.749619 
L 168.252044 127.423219 
L 169.773 124.702876 
L 170.136609 124.096819 
L 172.095633 120.770419 
L 173.3442 118.534132 
L 173.996981 117.444019 
L 175.925734 114.117619 
L 176.9154 112.329031 
L 177.825964 110.791219 
L 179.708488 107.464819 
L 180.4866 106.034465 
L 181.589802 104.138419 
L 183.442085 100.812019 
L 184.0578 99.673199 
L 185.323599 97.485619 
L 187.154464 94.159219 
L 187.629 93.27534 
L 189.031928 90.832819 
L 190.840692 87.506419 
L 191.2002 86.831346 
L 192.708945 84.180019 
L 194.495248 80.853619 
L 194.7714 80.330785 
L 196.35479 77.527219 
L 198.125795 74.200819 
L 198.3426 73.787714 
L 199.977264 70.874419 
L 201.734358 67.548019 
L 201.9138 67.203906 
L 203.576159 64.221619 
L 205.320678 60.895219 
L 205.485 60.578058 
L 207.151153 57.568819 
L 208.885203 54.242419 
L 209.0562 53.910448 
L 210.704476 50.916019 
L 212.430192 47.589619 
L 212.6274 47.204634 
L 214.237333 44.263219 
L 215.95617 40.936819 
L 216.1986 40.461014 
L 217.750252 37.610419 
L 219.463572 34.284019 
L 219.7698 33.679887 
L 221.24382 30.957619 
L 222.953184 27.631219 
L 223.341 26.862392 
L 224.718955 24.304819 
L 226.425652 20.978419 
L 226.9122 20.009331 
L 228.176179 17.652019 
L 229.88141 14.325619 
L 230.4834 13.121173 
L 231.615926 10.999219 
M 37.6386 272.419308 
L 34.990463 270.458419 
L 37.6386 268.053071 
L 39.728868 270.458419 
L 37.6386 272.419308 
z
M 55.4946 257.814139 
L 54.985512 257.152819 
L 55.4946 255.452746 
L 58.043618 253.826419 
L 59.0658 253.608633 
L 59.395276 253.826419 
L 60.869364 257.152819 
L 59.0658 258.827117 
L 55.4946 257.814139 
z
M 76.9218 246.111322 
L 74.577379 243.847219 
L 74.850451 240.520819 
L 76.9218 238.549406 
L 80.493 238.49202 
L 82.810278 240.520819 
L 82.913273 243.847219 
L 80.493 246.025118 
L 76.9218 246.111322 
M 98.349 234.750577 
L 96.141731 233.868019 
L 94.7778 233.027096 
L 92.972521 230.541619 
L 92.711859 227.215219 
L 94.45742 223.888819 
L 94.7778 223.532899 
L 98.349 221.541121 
L 101.9202 221.37338 
L 105.4914 223.052389 
L 106.354565 223.888819 
L 107.566872 227.215219 
L 106.765461 230.541619 
L 105.4914 231.995036 
L 103.246274 233.868019 
L 101.9202 234.468035 
L 98.349 234.750577 
z
" clip-path="url(#p57a74f47e0)" style="fill: none; stroke: #000000; stroke-width: 1.5"/>
   </g>
   <g id="patch_3">
    <path d="M 26.925 277.111219 
L 26.925 10.999219 
" style="fill: none; stroke: #000000; stroke-width: 0.8; stroke-linejoin: miter; stroke-linecap: square"/>
   </g>
   <g id="patch_4">
    <path d="M 384.045 277.111219 
L 384.045 10.999219 
" style="fill: none; stroke: #000000; stroke-width: 0.8; stroke-linejoin: miter; stroke-linecap: square"/>
   </g>
   <g id="patch_5">
    <path d="M 26.925 277.111219 
L 384.045 277.111219 
" style="fill: none; stroke: #000000; stroke-width: 0.8; stroke-linejoin: miter; stroke-linecap: square"/>
   </g>
   <g id="patch_6">
    <path d="M 26.925 10.999219 
L 384.045 10.999219 
" style="fill: none; stroke: #000000; stroke-width: 0.8; stroke-linejoin: miter; stroke-linecap: square"/>
   </g>
  </g>
 </g>
 <defs>
  <clipPath id="p57a74f47e0">
   <rect x="26.925" y="10.999219" width="357.12" height="266.112"/>
  </clipPath>
 </defs>
</svg>