<?xml version="1.0" encoding="utf-8" standalone="no"?>
<!DOCTYPE svg PUBLIC "-//W3C//DTD SVG 1.1//EN"
  "http://www.w3.org/Graphics/SVG/1.1/DTD/svg11.dtd">
<svg xmlns:xlink="http://www.w3.org/1999/xlink" width="708.48pt" height="348.48pt" viewBox="0 0 708.48 348.48" xmlns="http://www.w3.org/2000/svg" version="1.1">
 <metadata>
  <rdf:RDF xmlns:dc="http://purl.org/dc/elements/1.1/" xmlns:cc="http://creativecommons.org/ns#" xmlns:rdf="http://www.w3.org/1999/02/22-rdf-syntax-ns#">
   <cc:Work>
    <dc:type rdf:resource="http://purl.org/dc/dcmitype/StillImage"/>
    <dc:date>2025-04-04T21:18:22.595274</dc:date>
    <dc:format>image/svg+xml</dc:format>
    <dc:creator>
     <cc:Agent>
      <dc:title>Matplotlib v3.10.1, https://matplotlib.org/</dc:title>
     </cc:Agent>
    </dc:creator>
   </cc:Work>
  </rdf:RDF>
 </metadata>
 <defs>
  <style type="text/css">*{stroke-linejoin: round; stroke-linecap: butt}</style>
 </defs>
 <g id="figure_1">
  <g id="patch_1">
   <path d="M 0 348.48 
L 708.48 348.48 
L 708.48 0 
L 0 0 
z
" style="fill: #ffffff"/>
  </g>
  <g id="axes_1">
   <g id="patch_2">
    <path d="M 43.339375 322.66625 
L 347.76 322.66625 
L 347.76 24.14175 
L 43.339375 24.14175 
z
" style="fill: #ffffff"/>
   </g>
   <g id="matplotlib.axis_1">
    <g id="xtick_1">
     <g id="line2d_1">
      <defs>
       <path id="m9bd7bae468" d="M 0 0 
L 0 3.5 
" style="stroke: #000000; stroke-width: 0.8"/>
      </defs>
      <g>
       <use xlink:href="#m9bd7bae468" x="57.176676" y="322.66625" style="fill-opacity: 0; stroke: #000000; stroke-width: 0.8"/>
      </g>
     </g>
     <g id="text_1">
      <!-- −1.0 -->
      <g transform="translate(42.606989 338.784375) scale(0.12 -0.12)">
       <defs>
        <path id="DejaVuSerif-2212" d="M 678 2259 
L 4684 2259 
L 4684 1753 
L 678 1753 
L 678 2259 
z
" transform="scale(0.015625)"/>
        <path id="DejaVuSerif-31" d="M 909 0 
L 909 331 
L 1722 331 
L 1722 4213 
L 781 3603 
L 781 4013 
L 1919 4750 
L 2350 4750 
L 2350 331 
L 3163 331 
L 3163 0 
L 909 0 
z
" transform="scale(0.015625)"/>
        <path id="DejaVuSerif-2e" d="M 603 325 
Q 603 500 722 622 
Q 841 744 1019 744 
Q 1191 744 1312 622 
Q 1434 500 1434 325 
Q 1434 153 1312 31 
Q 1191 -91 1019 -91 
Q 841 -91 722 29 
Q 603 150 603 325 
z
" transform="scale(0.015625)"/>
        <path id="DejaVuSerif-30" d="M 2034 219 
Q 2513 219 2750 744 
Q 2988 1269 2988 2328 
Q 2988 3391 2750 3916 
Q 2513 4441 2034 4441 
Q 1556 4441 1318 3916 
Q 1081 3391 1081 2328 
Q 1081 1269 1318 744 
Q 1556 219 2034 219 
z
M 2034 -91 
Q 1275 -91 848 546 
Q 422 1184 422 2328 
Q 422 3475 848 4112 
Q 1275 4750 2034 4750 
Q 2797 4750 3222 4112 
Q 3647 3475 3647 2328 
Q 3647 1184 3222 546 
Q 2797 -91 2034 -91 
z
" transform="scale(0.015625)"/>
       </defs>
       <use xlink:href="#DejaVuSerif-2212"/>
       <use xlink:href="#DejaVuSerif-31" transform="translate(83.789062 0)"/>
       <use xlink:href="#DejaVuSerif-2e" transform="translate(147.412109 0)"/>
       <use xlink:href="#DejaVuSerif-30" transform="translate(179.199219 0)"/>
      </g>
     </g>
    </g>
    <g id="xtick_2">
     <g id="line2d_2">
      <g>
       <use xlink:href="#m9bd7bae468" x="126.363182" y="322.66625" style="fill-opacity: 0; stroke: #000000; stroke-width: 0.8"/>
      </g>
     </g>
     <g id="text_2">
      <!-- −0.5 -->
      <g transform="translate(111.793494 338.784375) scale(0.12 -0.12)">
       <defs>
        <path id="DejaVuSerif-35" d="M 3219 4666 
L 3219 4153 
L 1081 4153 
L 1081 2816 
Q 1244 2928 1461 2984 
Q 1678 3041 1947 3041 
Q 2703 3041 3140 2622 
Q 3578 2203 3578 1478 
Q 3578 738 3136 323 
Q 2694 -91 1894 -91 
Q 1572 -91 1234 -12 
Q 897 66 544 225 
L 544 1131 
L 897 1131 
Q 925 688 1179 453 
Q 1434 219 1894 219 
Q 2388 219 2653 544 
Q 2919 869 2919 1478 
Q 2919 2084 2655 2407 
Q 2391 2731 1894 2731 
Q 1613 2731 1398 2631 
Q 1184 2531 1019 2322 
L 750 2322 
L 750 4666 
L 3219 4666 
z
" transform="scale(0.015625)"/>
       </defs>
       <use xlink:href="#DejaVuSerif-2212"/>
       <use xlink:href="#DejaVuSerif-30" transform="translate(83.789062 0)"/>
       <use xlink:href="#DejaVuSerif-2e" transform="translate(147.412109 0)"/>
       <use xlink:href="#DejaVuSerif-35" transform="translate(179.199219 0)"/>
      </g>
     </g>
    </g>
    <g id="xtick_3">
     <g id="line2d_3">
      <g>
       <use xlink:href="#m9bd7bae468" x="195.549687" y="322.66625" style="fill-opacity: 0; stroke: #000000; stroke-width: 0.8"/>
      </g>
     </g>
     <g id="text_3">
      <!-- 0.0 -->
      <g transform="translate(186.007812 338.784375) scale(0.12 -0.12)">
       <use xlink:href="#DejaVuSerif-30"/>
       <use xlink:href="#DejaVuSerif-2e" transform="translate(63.623047 0)"/>
       <use xlink:href="#DejaVuSerif-30" transform="translate(95.410156 0)"/>
      </g>
     </g>
    </g>
    <g id="xtick_4">
     <g id="line2d_4">
      <g>
       <use xlink:href="#m9bd7bae468" x="264.736193" y="322.66625" style="fill-opacity: 0; stroke: #000000; stroke-width: 0.8"/>
      </g>
     </g>
     <g id="text_4">
      <!-- 0.5 -->
      <g transform="translate(255.194318 338.784375) scale(0.12 -0.12)">
       <use xlink:href="#DejaVuSerif-30"/>
       <use xlink:href="#DejaVuSerif-2e" transform="translate(63.623047 0)"/>
       <use xlink:href="#DejaVuSerif-35" transform="translate(95.410156 0)"/>
      </g>
     </g>
    </g>
    <g id="xtick_5">
     <g id="line2d_5">
      <g>
       <use xlink:href="#m9bd7bae468" x="333.922699" y="322.66625" style="fill-opacity: 0; stroke: #000000; stroke-width: 0.8"/>
      </g>
     </g>
     <g id="text_5">
      <!-- 1.0 -->
      <g transform="translate(324.380824 338.784375) scale(0.12 -0.12)">
       <use xlink:href="#DejaVuSerif-31"/>
       <use xlink:href="#DejaVuSerif-2e" transform="translate(63.623047 0)"/>
       <use xlink:href="#DejaVuSerif-30" transform="translate(95.410156 0)"/>
      </g>
     </g>
    </g>
   </g>
   <g id="matplotlib.axis_2">
    <g id="ytick_1">
     <g id="line2d_6">
      <defs>
       <path id="m4aa74b7245" d="M 0 0 
L -3.5 0 
" style="stroke: #000000; stroke-width: 0.8"/>
      </defs>
      <g>
       <use xlink:href="#m4aa74b7245" x="43.339375" y="322.66625" style="fill-opacity: 0; stroke: #000000; stroke-width: 0.8"/>
      </g>
     </g>
     <g id="text_6">
      <!-- −1.0 -->
      <g transform="translate(7.2 327.225313) scale(0.12 -0.12)">
       <use xlink:href="#DejaVuSerif-2212"/>
       <use xlink:href="#DejaVuSerif-31" transform="translate(83.789062 0)"/>
       <use xlink:href="#DejaVuSerif-2e" transform="translate(147.412109 0)"/>
       <use xlink:href="#DejaVuSerif-30" transform="translate(179.199219 0)"/>
      </g>
     </g>
    </g>
    <g id="ytick_2">
     <g id="line2d_7">
      <g>
       <use xlink:href="#m4aa74b7245" x="43.339375" y="262.96135" style="fill-opacity: 0; stroke: #000000; stroke-width: 0.8"/>
      </g>
     </g>
     <g id="text_7">
      <!-- −0.5 -->
      <g transform="translate(7.2 267.520413) scale(0.12 -0.12)">
       <use xlink:href="#DejaVuSerif-2212"/>
       <use xlink:href="#DejaVuSerif-30" transform="translate(83.789062 0)"/>
       <use xlink:href="#DejaVuSerif-2e" transform="translate(147.412109 0)"/>
       <use xlink:href="#DejaVuSerif-35" transform="translate(179.199219 0)"/>
      </g>
     </g>
    </g>
    <g id="ytick_3">
     <g id="line2d_8">
      <g>
       <use xlink:href="#m4aa74b7245" x="43.339375" y="203.25645" style="fill-opacity: 0; stroke: #000000; stroke-width: 0.8"/>
      </g>
     </g>
     <g id="text_8">
      <!-- 0.0 -->
      <g transform="translate(17.255625 207.815513) scale(0.12 -0.12)">
       <use xlink:href="#DejaVuSerif-30"/>
       <use xlink:href="#DejaVuSerif-2e" transform="translate(63.623047 0)"/>
       <use xlink:href="#DejaVuSerif-30" transform="translate(95.410156 0)"/>
      </g>
     </g>
    </g>
    <g id="ytick_4">
     <g id="line2d_9">
      <g>
       <use xlink:href="#m4aa74b7245" x="43.339375" y="143.55155" style="fill-opacity: 0; stroke: #000000; stroke-width: 0.8"/>
      </g>
     </g>
     <g id="text_9">
      <!-- 0.5 -->
      <g transform="translate(17.255625 148.110613) scale(0.12 -0.12)">
       <use xlink:href="#DejaVuSerif-30"/>
       <use xlink:href="#DejaVuSerif-2e" transform="translate(63.623047 0)"/>
       <use xlink:href="#DejaVuSerif-35" transform="translate(95.410156 0)"/>
      </g>
     </g>
    </g>
    <g id="ytick_5">
     <g id="line2d_10">
      <g>
       <use xlink:href="#m4aa74b7245" x="43.339375" y="83.84665" style="fill-opacity: 0; stroke: #000000; stroke-width: 0.8"/>
      </g>
     </g>
     <g id="text_10">
      <!-- 1.0 -->
      <g transform="translate(17.255625 88.405712) scale(0.12 -0.12)">
       <use xlink:href="#DejaVuSerif-31"/>
       <use xlink:href="#DejaVuSerif-2e" transform="translate(63.623047 0)"/>
       <use xlink:href="#DejaVuSerif-30" transform="translate(95.410156 0)"/>
      </g>
     </g>
    </g>
    <g id="ytick_6">
     <g id="line2d_11">
      <g>
       <use xlink:href="#m4aa74b7245" x="43.339375" y="24.14175" style="fill-opacity: 0; stroke: #000000; stroke-width: 0.8"/>
      </g>
     </g>
     <g id="text_11">
      <!-- 1.5 -->
      <g transform="translate(17.255625 28.700812) scale(0.12 -0.12)">
       <use xlink:href="#DejaVuSerif-31"/>
       <use xlink:href="#DejaVuSerif-2e" transform="translate(63.623047 0)"/>
       <use xlink:href="#DejaVuSerif-35" transform="translate(95.410156 0)"/>
      </g>
     </g>
    </g>
   </g>
   <g id="line2d_12">
    <defs>
     <path id="m3ae1cefcdc" d="M 0 3 
C 0.795609 3 1.55874 2.683901 2.12132 2.12132 
C 2.683901 1.55874 3 0.795609 3 0 
C 3 -0.795609 2.683901 -1.55874 2.12132 -2.12132 
C 1.55874 -2.683901 0.795609 -3 0 -3 
C -0.795609 -3 -1.55874 -2.683901 -2.12132 -2.12132 
C -2.683901 -1.55874 -3 -0.795609 -3 0 
C -3 0.795609 -2.683901 1.55874 -2.12132 2.12132 
C -1.55874 2.683901 -0.795609 3 0 3 
z
" style="stroke: #1f77b4"/>
    </defs>
    <g clip-path="url(#p8d5a8f0b69)">
     <use xlink:href="#m3ae1cefcdc" x="57.176676" y="196.232344" style="fill-opacity: 0; stroke: #1f77b4"/>
     <use xlink:href="#m3ae1cefcdc" x="74.473303" y="194.24439" style="fill-opacity: 0; stroke: #1f77b4"/>
     <use xlink:href="#m3ae1cefcdc" x="91.769929" y="191.31547" style="fill-opacity: 0; stroke: #1f77b4"/>
     <use xlink:href="#m3ae1cefcdc" x="109.066555" y="186.786133" style="fill-opacity: 0; stroke: #1f77b4"/>
     <use xlink:href="#m3ae1cefcdc" x="126.363182" y="179.37449" style="fill-opacity: 0; stroke: #1f77b4"/>
     <use xlink:href="#m3ae1cefcdc" x="143.659808" y="166.514973" style="fill-opacity: 0; stroke: #1f77b4"/>
     <use xlink:href="#m3ae1cefcdc" x="160.956435" y="143.55155" style="fill-opacity: 0; stroke: #1f77b4"/>
     <use xlink:href="#m3ae1cefcdc" x="178.253061" y="107.72861" style="fill-opacity: 0; stroke: #1f77b4"/>
     <use xlink:href="#m3ae1cefcdc" x="195.549687" y="83.84665" style="fill-opacity: 0; stroke: #1f77b4"/>
     <use xlink:href="#m3ae1cefcdc" x="212.846314" y="107.72861" style="fill-opacity: 0; stroke: #1f77b4"/>
     <use xlink:href="#m3ae1cefcdc" x="230.14294" y="143.55155" style="fill-opacity: 0; stroke: #1f77b4"/>
     <use xlink:href="#m3ae1cefcdc" x="247.439567" y="166.514973" style="fill-opacity: 0; stroke: #1f77b4"/>
     <use xlink:href="#m3ae1cefcdc" x="264.736193" y="179.37449" style="fill-opacity: 0; stroke: #1f77b4"/>
     <use xlink:href="#m3ae1cefcdc" x="282.03282" y="186.786133" style="fill-opacity: 0; stroke: #1f77b4"/>
     <use xlink:href="#m3ae1cefcdc" x="299.329446" y="191.31547" style="fill-opacity: 0; stroke: #1f77b4"/>
     <use xlink:href="#m3ae1cefcdc" x="316.626072" y="194.24439" style="fill-opacity: 0; stroke: #1f77b4"/>
     <use xlink:href="#m3ae1cefcdc" x="333.922699" y="196.232344" style="fill-opacity: 0; stroke: #1f77b4"/>
    </g>
   </g>
   <g id="line2d_13">
    <path d="M 56.733298 -1 
L 57.625569 349.48 
M 70.749913 349.48 
L 71.905252 289.44591 
L 73.306322 231.302889 
L 74.707392 187.982039 
L 75.407927 171.438191 
L 76.108462 158.00229 
L 76.808997 147.422218 
L 77.509532 139.43557 
L 78.210067 133.776108 
L 78.910603 130.179095 
L 79.611138 128.38564 
L 80.311673 128.146169 
L 81.012208 129.223139 
L 81.712743 131.393082 
L 82.413278 134.448076 
L 83.814348 142.464695 
L 85.915953 156.899492 
L 88.017558 171.359662 
L 89.418628 179.935333 
L 90.819698 187.21532 
L 92.220768 193.014732 
L 93.621838 197.285782 
L 94.322373 198.862773 
L 95.022909 200.085673 
L 95.723444 200.973204 
L 96.423979 201.547155 
L 97.124514 201.831656 
L 97.825049 201.852516 
L 98.525584 201.636621 
L 99.226119 201.211395 
L 99.926654 200.604323 
L 101.327724 198.952419 
L 102.728794 196.887447 
L 109.033609 186.830721 
L 110.43468 185.067222 
L 111.83575 183.590232 
L 113.23682 182.4055 
L 114.63789 181.499552 
L 116.03896 180.843826 
L 117.44003 180.398791 
L 119.541635 180.023375 
L 123.04431 179.760564 
L 125.846451 179.464194 
L 127.948056 179.00425 
L 130.049661 178.256725 
L 132.151266 177.186441 
L 134.252871 175.791315 
L 136.354476 174.095517 
L 138.456081 172.141049 
L 141.258222 169.220954 
L 144.760897 165.230182 
L 149.664642 159.279916 
L 153.867852 153.884111 
L 157.370528 149.038791 
L 160.172668 144.806151 
L 162.974808 140.160102 
L 165.776948 135.041634 
L 168.579088 129.441145 
L 172.081763 121.850719 
L 182.589789 98.366647 
L 184.691394 94.360421 
L 186.792999 90.863052 
L 188.19407 88.868281 
L 189.59514 87.176486 
L 190.99621 85.812116 
L 192.39728 84.795164 
L 193.79835 84.140684 
L 195.19942 83.858433 
L 196.60049 83.952635 
L 198.00156 84.421878 
L 199.40263 85.259152 
L 200.8037 86.452013 
L 202.20477 87.982885 
L 203.605841 89.829482 
L 205.006911 91.965334 
L 207.108516 95.645 
L 209.210121 99.794785 
L 212.012261 105.849683 
L 223.220822 130.884694 
L 226.022962 136.367065 
L 228.825102 141.364308 
L 231.627242 145.899941 
L 234.429382 150.042412 
L 237.932058 154.808735 
L 242.135268 160.150098 
L 247.039013 166.050314 
L 250.541689 169.978836 
L 253.343829 172.818223 
L 255.445434 174.691867 
L 257.547039 176.29141 
L 259.648644 177.579808 
L 261.750249 178.54076 
L 263.851854 179.186731 
L 265.95346 179.565007 
L 268.7556 179.805152 
L 272.258275 180.117876 
L 274.35988 180.597762 
L 275.76095 181.142672 
L 277.16202 181.919159 
L 278.56309 182.961773 
L 279.96416 184.292056 
L 281.365231 185.914378 
L 282.766301 187.811885 
L 284.867906 191.07513 
L 289.071116 197.959363 
L 290.472186 199.84253 
L 291.873256 201.211395 
L 292.573791 201.636621 
L 293.274326 201.852516 
L 293.974861 201.831656 
L 294.675396 201.547155 
L 295.375931 200.973204 
L 296.076466 200.085673 
L 296.777002 198.862773 
L 297.477537 197.285782 
L 298.178072 195.339827 
L 299.579142 190.305911 
L 300.980212 183.752446 
L 302.381282 175.791631 
L 304.482887 161.84389 
L 307.285027 142.464695 
L 308.686097 134.448076 
L 309.386632 131.393082 
L 310.087167 129.223139 
L 310.787702 128.146169 
L 311.488237 128.38564 
L 312.188772 130.179095 
L 312.889308 133.776108 
L 313.589843 139.43557 
L 314.290378 147.422218 
L 314.990913 158.00229 
L 315.691448 171.438191 
L 316.391983 187.982039 
L 317.092518 207.867948 
L 318.493588 258.455966 
L 319.894658 324.326597 
L 320.349462 349.48 
M 333.473806 349.48 
L 333.905359 202.985719 
L 334.366077 -1 
L 334.366077 -1 
" clip-path="url(#p8d5a8f0b69)" style="fill: none; stroke: #ff7f0e; stroke-width: 1.5; stroke-linecap: square"/>
   </g>
   <g id="patch_3">
    <path d="M 43.339375 322.66625 
L 43.339375 24.14175 
" style="fill: none; stroke: #000000; stroke-width: 0.8; stroke-linejoin: miter; stroke-linecap: square"/>
   </g>
   <g id="patch_4">
    <path d="M 347.76 322.66625 
L 347.76 24.14175 
" style="fill: none; stroke: #000000; stroke-width: 0.8; stroke-linejoin: miter; stroke-linecap: square"/>
   </g>
   <g id="patch_5">
    <path d="M 43.339375 322.66625 
L 347.76 322.66625 
" style="fill: none; stroke: #000000; stroke-width: 0.8; stroke-linejoin: miter; stroke-linecap: square"/>
   </g>
   <g id="patch_6">
    <path d="M 43.339375 24.14175 
L 347.76 24.14175 
" style="fill: none; stroke: #000000; stroke-width: 0.8; stroke-linejoin: miter; stroke-linecap: square"/>
   </g>
   <g id="text_12">
    <!-- max error=5.893445858820734 -->
    <g transform="translate(112.525881 262.96135) scale(0.12 -0.12)">
     <defs>
      <path id="DejaVuSerif-6d" d="M 3316 2675 
Q 3481 3041 3739 3227 
Q 3997 3413 4341 3413 
Q 4863 3413 5119 3089 
Q 5375 2766 5375 2113 
L 5375 331 
L 5894 331 
L 5894 0 
L 4300 0 
L 4300 331 
L 4800 331 
L 4800 2047 
Q 4800 2556 4650 2772 
Q 4500 2988 4153 2988 
Q 3769 2988 3567 2697 
Q 3366 2406 3366 1850 
L 3366 331 
L 3866 331 
L 3866 0 
L 2291 0 
L 2291 331 
L 2791 331 
L 2791 2069 
Q 2791 2566 2641 2777 
Q 2491 2988 2144 2988 
Q 1759 2988 1557 2697 
Q 1356 2406 1356 1850 
L 1356 331 
L 1856 331 
L 1856 0 
L 263 0 
L 263 331 
L 781 331 
L 781 2994 
L 231 2994 
L 231 3322 
L 1356 3322 
L 1356 2731 
Q 1516 3063 1762 3238 
Q 2009 3413 2322 3413 
Q 2709 3413 2968 3220 
Q 3228 3028 3316 2675 
z
" transform="scale(0.015625)"/>
      <path id="DejaVuSerif-61" d="M 2547 1044 
L 2547 1747 
L 1806 1747 
Q 1378 1747 1168 1562 
Q 959 1378 959 997 
Q 959 650 1171 447 
Q 1384 244 1747 244 
Q 2106 244 2326 466 
Q 2547 688 2547 1044 
z
M 3122 2075 
L 3122 331 
L 3634 331 
L 3634 0 
L 2547 0 
L 2547 359 
Q 2356 128 2106 18 
Q 1856 -91 1522 -91 
Q 969 -91 644 203 
Q 319 497 319 997 
Q 319 1513 691 1797 
Q 1063 2081 1741 2081 
L 2547 2081 
L 2547 2309 
Q 2547 2688 2317 2895 
Q 2088 3103 1672 3103 
Q 1328 3103 1125 2947 
Q 922 2791 872 2484 
L 575 2484 
L 575 3156 
Q 875 3284 1158 3348 
Q 1441 3413 1709 3413 
Q 2400 3413 2761 3070 
Q 3122 2728 3122 2075 
z
" transform="scale(0.015625)"/>
      <path id="DejaVuSerif-78" d="M 1863 2028 
L 2559 2988 
L 2113 2988 
L 2113 3322 
L 3391 3322 
L 3391 2988 
L 2950 2988 
L 2059 1759 
L 3097 331 
L 3531 331 
L 3531 0 
L 1997 0 
L 1997 331 
L 2419 331 
L 1697 1325 
L 972 331 
L 1403 331 
L 1403 0 
L 141 0 
L 141 331 
L 581 331 
L 1497 1594 
L 488 2988 
L 78 2988 
L 78 3322 
L 1563 3322 
L 1563 2988 
L 1166 2988 
L 1863 2028 
z
" transform="scale(0.015625)"/>
      <path id="DejaVuSerif-20" transform="scale(0.015625)"/>
      <path id="DejaVuSerif-65" d="M 3469 1600 
L 991 1600 
L 991 1575 
Q 991 903 1244 561 
Q 1497 219 1991 219 
Q 2369 219 2611 417 
Q 2853 616 2950 1006 
L 3413 1006 
Q 3275 459 2904 184 
Q 2534 -91 1931 -91 
Q 1203 -91 761 389 
Q 319 869 319 1663 
Q 319 2450 753 2931 
Q 1188 3413 1894 3413 
Q 2647 3413 3050 2948 
Q 3453 2484 3469 1600 
z
M 2791 1931 
Q 2772 2513 2545 2808 
Q 2319 3103 1894 3103 
Q 1497 3103 1269 2806 
Q 1041 2509 991 1931 
L 2791 1931 
z
" transform="scale(0.015625)"/>
      <path id="DejaVuSerif-72" d="M 3059 3328 
L 3059 2497 
L 2728 2497 
Q 2713 2744 2591 2866 
Q 2469 2988 2234 2988 
Q 1809 2988 1582 2694 
Q 1356 2400 1356 1850 
L 1356 331 
L 2022 331 
L 2022 0 
L 263 0 
L 263 331 
L 781 331 
L 781 2994 
L 231 2994 
L 231 3322 
L 1356 3322 
L 1356 2731 
Q 1525 3078 1790 3245 
Q 2056 3413 2438 3413 
Q 2578 3413 2733 3391 
Q 2888 3369 3059 3328 
z
" transform="scale(0.015625)"/>
      <path id="DejaVuSerif-6f" d="M 1925 219 
Q 2388 219 2623 584 
Q 2859 950 2859 1663 
Q 2859 2375 2623 2739 
Q 2388 3103 1925 3103 
Q 1463 3103 1227 2739 
Q 991 2375 991 1663 
Q 991 950 1228 584 
Q 1466 219 1925 219 
z
M 1925 -91 
Q 1200 -91 759 389 
Q 319 869 319 1663 
Q 319 2456 758 2934 
Q 1197 3413 1925 3413 
Q 2653 3413 3092 2934 
Q 3531 2456 3531 1663 
Q 3531 869 3092 389 
Q 2653 -91 1925 -91 
z
" transform="scale(0.015625)"/>
      <path id="DejaVuSerif-3d" d="M 678 2894 
L 4684 2894 
L 4684 2394 
L 678 2394 
L 678 2894 
z
M 678 1619 
L 4684 1619 
L 4684 1119 
L 678 1119 
L 678 1619 
z
" transform="scale(0.015625)"/>
      <path id="DejaVuSerif-38" d="M 2981 1275 
Q 2981 1775 2732 2051 
Q 2484 2328 2034 2328 
Q 1584 2328 1336 2051 
Q 1088 1775 1088 1275 
Q 1088 772 1336 495 
Q 1584 219 2034 219 
Q 2484 219 2732 495 
Q 2981 772 2981 1275 
z
M 2853 3541 
Q 2853 3966 2637 4203 
Q 2422 4441 2034 4441 
Q 1650 4441 1433 4203 
Q 1216 3966 1216 3541 
Q 1216 3113 1433 2875 
Q 1650 2638 2034 2638 
Q 2422 2638 2637 2875 
Q 2853 3113 2853 3541 
z
M 2516 2484 
Q 3047 2413 3344 2092 
Q 3641 1772 3641 1275 
Q 3641 619 3225 264 
Q 2809 -91 2034 -91 
Q 1263 -91 845 264 
Q 428 619 428 1275 
Q 428 1772 725 2092 
Q 1022 2413 1556 2484 
Q 1084 2569 832 2842 
Q 581 3116 581 3541 
Q 581 4103 968 4426 
Q 1356 4750 2034 4750 
Q 2713 4750 3100 4426 
Q 3488 4103 3488 3541 
Q 3488 3116 3236 2842 
Q 2984 2569 2516 2484 
z
" transform="scale(0.015625)"/>
      <path id="DejaVuSerif-39" d="M 2994 2091 
Q 2784 1856 2512 1740 
Q 2241 1625 1900 1625 
Q 1206 1625 804 2044 
Q 403 2463 403 3188 
Q 403 3897 839 4323 
Q 1275 4750 2003 4750 
Q 2794 4750 3217 4161 
Q 3641 3572 3641 2478 
Q 3641 1253 3137 581 
Q 2634 -91 1722 -91 
Q 1475 -91 1203 -44 
Q 931 3 647 97 
L 647 872 
L 997 872 
Q 1038 556 1241 387 
Q 1444 219 1784 219 
Q 2391 219 2687 676 
Q 2984 1134 2994 2091 
z
M 1978 4441 
Q 1534 4441 1298 4117 
Q 1063 3794 1063 3188 
Q 1063 2581 1298 2256 
Q 1534 1931 1978 1931 
Q 2422 1931 2658 2245 
Q 2894 2559 2894 3150 
Q 2894 3772 2656 4106 
Q 2419 4441 1978 4441 
z
" transform="scale(0.015625)"/>
      <path id="DejaVuSerif-33" d="M 622 4469 
Q 988 4606 1323 4678 
Q 1659 4750 1953 4750 
Q 2638 4750 3022 4454 
Q 3406 4159 3406 3634 
Q 3406 3213 3140 2930 
Q 2875 2647 2388 2547 
Q 2963 2466 3280 2130 
Q 3597 1794 3597 1259 
Q 3597 606 3158 257 
Q 2719 -91 1894 -91 
Q 1528 -91 1179 -12 
Q 831 66 488 225 
L 488 1131 
L 838 1131 
Q 869 681 1141 450 
Q 1413 219 1906 219 
Q 2384 219 2661 495 
Q 2938 772 2938 1253 
Q 2938 1803 2653 2086 
Q 2369 2369 1819 2369 
L 1522 2369 
L 1522 2688 
L 1678 2688 
Q 2225 2688 2498 2914 
Q 2772 3141 2772 3597 
Q 2772 4006 2547 4223 
Q 2322 4441 1900 4441 
Q 1478 4441 1245 4241 
Q 1013 4041 972 3647 
L 622 3647 
L 622 4469 
z
" transform="scale(0.015625)"/>
      <path id="DejaVuSerif-34" d="M 2234 1581 
L 2234 4063 
L 641 1581 
L 2234 1581 
z
M 3609 0 
L 1484 0 
L 1484 331 
L 2234 331 
L 2234 1247 
L 197 1247 
L 197 1588 
L 2241 4750 
L 2859 4750 
L 2859 1581 
L 3750 1581 
L 3750 1247 
L 2859 1247 
L 2859 331 
L 3609 331 
L 3609 0 
z
" transform="scale(0.015625)"/>
      <path id="DejaVuSerif-32" d="M 819 3553 
L 469 3553 
L 469 4384 
Q 803 4563 1142 4656 
Q 1481 4750 1806 4750 
Q 2534 4750 2956 4397 
Q 3378 4044 3378 3438 
Q 3378 2753 2422 1800 
Q 2347 1728 2309 1691 
L 1131 513 
L 3078 513 
L 3078 1088 
L 3444 1088 
L 3444 0 
L 434 0 
L 434 341 
L 1850 1753 
Q 2319 2222 2519 2614 
Q 2719 3006 2719 3438 
Q 2719 3909 2473 4175 
Q 2228 4441 1797 4441 
Q 1350 4441 1106 4219 
Q 863 3997 819 3553 
z
" transform="scale(0.015625)"/>
      <path id="DejaVuSerif-37" d="M 3609 4347 
L 1784 0 
L 1319 0 
L 3059 4153 
L 903 4153 
L 903 3578 
L 538 3578 
L 538 4666 
L 3609 4666 
L 3609 4347 
z
" transform="scale(0.015625)"/>
     </defs>
     <use xlink:href="#DejaVuSerif-6d"/>
     <use xlink:href="#DejaVuSerif-61" transform="translate(94.824219 0)"/>
     <use xlink:href="#DejaVuSerif-78" transform="translate(154.443359 0)"/>
     <use xlink:href="#DejaVuSerif-20" transform="translate(210.839844 0)"/>
     <use xlink:href="#DejaVuSerif-65" transform="translate(242.626953 0)"/>
     <use xlink:href="#DejaVuSerif-72" transform="translate(301.806641 0)"/>
     <use xlink:href="#DejaVuSerif-72" transform="translate(349.609375 0)"/>
     <use xlink:href="#DejaVuSerif-6f" transform="translate(397.412109 0)"/>
     <use xlink:href="#DejaVuSerif-72" transform="translate(457.617188 0)"/>
     <use xlink:href="#DejaVuSerif-3d" transform="translate(505.419922 0)"/>
     <use xlink:href="#DejaVuSerif-35" transform="translate(589.208984 0)"/>
     <use xlink:href="#DejaVuSerif-2e" transform="translate(652.832031 0)"/>
     <use xlink:href="#DejaVuSerif-38" transform="translate(684.619141 0)"/>
     <use xlink:href="#DejaVuSerif-39" transform="translate(748.242188 0)"/>
     <use xlink:href="#DejaVuSerif-33" transform="translate(811.865234 0)"/>
     <use xlink:href="#DejaVuSerif-34" transform="translate(875.488281 0)"/>
     <use xlink:href="#DejaVuSerif-34" transform="translate(939.111328 0)"/>
     <use xlink:href="#DejaVuSerif-35" transform="translate(1002.734375 0)"/>
     <use xlink:href="#DejaVuSerif-38" transform="translate(1066.357422 0)"/>
     <use xlink:href="#DejaVuSerif-35" transform="translate(1129.980469 0)"/>
     <use xlink:href="#DejaVuSerif-38" transform="translate(1193.603516 0)"/>
     <use xlink:href="#DejaVuSerif-38" transform="translate(1257.226562 0)"/>
     <use xlink:href="#DejaVuSerif-32" transform="translate(1320.849609 0)"/>
     <use xlink:href="#DejaVuSerif-30" transform="translate(1384.472656 0)"/>
     <use xlink:href="#DejaVuSerif-37" transform="translate(1448.095703 0)"/>
     <use xlink:href="#DejaVuSerif-33" transform="translate(1511.71875 0)"/>
     <use xlink:href="#DejaVuSerif-34" transform="translate(1575.341797 0)"/>
    </g>
   </g>
   <g id="text_13">
    <!-- equispaced points, N=16 -->
    <g transform="translate(103.407687 18.14175) scale(0.144 -0.144)">
     <defs>
      <path id="DejaVuSerif-71" d="M 3359 2988 
L 3359 -997 
L 3909 -997 
L 3909 -1331 
L 2241 -1331 
L 2241 -997 
L 2784 -997 
L 2784 519 
Q 2616 206 2355 57 
Q 2094 -91 1709 -91 
Q 1097 -91 708 395 
Q 319 881 319 1663 
Q 319 2444 706 2928 
Q 1094 3413 1709 3413 
Q 2094 3413 2355 3264 
Q 2616 3116 2784 2803 
L 2784 3322 
L 3909 3322 
L 3909 2988 
L 3359 2988 
z
M 2784 1825 
Q 2784 2422 2554 2737 
Q 2325 3053 1888 3053 
Q 1444 3053 1217 2703 
Q 991 2353 991 1663 
Q 991 975 1217 622 
Q 1444 269 1888 269 
Q 2325 269 2554 583 
Q 2784 897 2784 1497 
L 2784 1825 
z
" transform="scale(0.015625)"/>
      <path id="DejaVuSerif-75" d="M 2266 3322 
L 3341 3322 
L 3341 331 
L 3884 331 
L 3884 0 
L 2766 0 
L 2766 588 
Q 2606 256 2353 82 
Q 2100 -91 1766 -91 
Q 1213 -91 952 223 
Q 691 538 691 1209 
L 691 2988 
L 172 2988 
L 172 3322 
L 1269 3322 
L 1269 1388 
Q 1269 781 1417 556 
Q 1566 331 1947 331 
Q 2347 331 2556 625 
Q 2766 919 2766 1478 
L 2766 2988 
L 2266 2988 
L 2266 3322 
z
" transform="scale(0.015625)"/>
      <path id="DejaVuSerif-69" d="M 622 4353 
Q 622 4497 726 4603 
Q 831 4709 978 4709 
Q 1122 4709 1226 4603 
Q 1331 4497 1331 4353 
Q 1331 4206 1228 4103 
Q 1125 4000 978 4000 
Q 831 4000 726 4103 
Q 622 4206 622 4353 
z
M 1356 331 
L 1900 331 
L 1900 0 
L 231 0 
L 231 331 
L 781 331 
L 781 2988 
L 231 2988 
L 231 3322 
L 1356 3322 
L 1356 331 
z
" transform="scale(0.015625)"/>
      <path id="DejaVuSerif-73" d="M 359 184 
L 359 959 
L 691 959 
Q 703 588 923 403 
Q 1144 219 1575 219 
Q 1963 219 2166 364 
Q 2369 509 2369 788 
Q 2369 1006 2220 1140 
Q 2072 1275 1594 1428 
L 1178 1569 
Q 750 1706 558 1912 
Q 366 2119 366 2438 
Q 366 2894 700 3153 
Q 1034 3413 1625 3413 
Q 1888 3413 2178 3344 
Q 2469 3275 2778 3144 
L 2778 2419 
L 2447 2419 
Q 2434 2741 2221 2922 
Q 2009 3103 1644 3103 
Q 1281 3103 1095 2975 
Q 909 2847 909 2591 
Q 909 2381 1050 2254 
Q 1191 2128 1613 1997 
L 2069 1856 
Q 2541 1709 2748 1489 
Q 2956 1269 2956 922 
Q 2956 450 2595 179 
Q 2234 -91 1600 -91 
Q 1278 -91 972 -22 
Q 666 47 359 184 
z
" transform="scale(0.015625)"/>
      <path id="DejaVuSerif-70" d="M 1313 1825 
L 1313 1497 
Q 1313 897 1542 583 
Q 1772 269 2209 269 
Q 2650 269 2876 622 
Q 3103 975 3103 1663 
Q 3103 2353 2876 2703 
Q 2650 3053 2209 3053 
Q 1772 3053 1542 2737 
Q 1313 2422 1313 1825 
z
M 738 2988 
L 184 2988 
L 184 3322 
L 1313 3322 
L 1313 2803 
Q 1481 3116 1742 3264 
Q 2003 3413 2388 3413 
Q 3000 3413 3387 2928 
Q 3775 2444 3775 1663 
Q 3775 881 3387 395 
Q 3000 -91 2388 -91 
Q 2003 -91 1742 57 
Q 1481 206 1313 519 
L 1313 -997 
L 1856 -997 
L 1856 -1331 
L 184 -1331 
L 184 -997 
L 738 -997 
L 738 2988 
z
" transform="scale(0.015625)"/>
      <path id="DejaVuSerif-63" d="M 3291 997 
Q 3169 466 2822 187 
Q 2475 -91 1925 -91 
Q 1200 -91 759 389 
Q 319 869 319 1663 
Q 319 2459 759 2936 
Q 1200 3413 1925 3413 
Q 2241 3413 2553 3339 
Q 2866 3266 3181 3116 
L 3181 2266 
L 2847 2266 
Q 2781 2703 2561 2903 
Q 2341 3103 1931 3103 
Q 1466 3103 1228 2742 
Q 991 2381 991 1663 
Q 991 944 1227 581 
Q 1463 219 1931 219 
Q 2303 219 2525 412 
Q 2747 606 2828 997 
L 3291 997 
z
" transform="scale(0.015625)"/>
      <path id="DejaVuSerif-64" d="M 3359 331 
L 3909 331 
L 3909 0 
L 2784 0 
L 2784 519 
Q 2616 206 2355 57 
Q 2094 -91 1709 -91 
Q 1097 -91 708 395 
Q 319 881 319 1663 
Q 319 2444 706 2928 
Q 1094 3413 1709 3413 
Q 2094 3413 2355 3264 
Q 2616 3116 2784 2803 
L 2784 4531 
L 2241 4531 
L 2241 4863 
L 3359 4863 
L 3359 331 
z
M 2784 1497 
L 2784 1825 
Q 2784 2422 2554 2737 
Q 2325 3053 1888 3053 
Q 1444 3053 1217 2703 
Q 991 2353 991 1663 
Q 991 975 1217 622 
Q 1444 269 1888 269 
Q 2325 269 2554 583 
Q 2784 897 2784 1497 
z
" transform="scale(0.015625)"/>
      <path id="DejaVuSerif-6e" d="M 263 0 
L 263 331 
L 781 331 
L 781 2988 
L 231 2988 
L 231 3322 
L 1356 3322 
L 1356 2731 
Q 1516 3069 1770 3241 
Q 2025 3413 2363 3413 
Q 2913 3413 3172 3097 
Q 3431 2781 3431 2113 
L 3431 331 
L 3944 331 
L 3944 0 
L 2356 0 
L 2356 331 
L 2853 331 
L 2853 1931 
Q 2853 2541 2703 2767 
Q 2553 2994 2175 2994 
Q 1775 2994 1565 2701 
Q 1356 2409 1356 1850 
L 1356 331 
L 1856 331 
L 1856 0 
L 263 0 
z
" transform="scale(0.015625)"/>
      <path id="DejaVuSerif-74" d="M 691 2988 
L 184 2988 
L 184 3322 
L 691 3322 
L 691 4353 
L 1269 4353 
L 1269 3322 
L 2350 3322 
L 2350 2988 
L 1269 2988 
L 1269 878 
Q 1269 456 1350 337 
Q 1431 219 1650 219 
Q 1875 219 1978 351 
Q 2081 484 2088 781 
L 2522 781 
Q 2497 328 2275 118 
Q 2053 -91 1600 -91 
Q 1103 -91 897 129 
Q 691 350 691 878 
L 691 2988 
z
" transform="scale(0.015625)"/>
      <path id="DejaVuSerif-2c" d="M 231 -622 
Q 525 -406 662 -114 
Q 800 178 800 594 
L 800 709 
L 1416 709 
Q 1391 175 1164 -208 
Q 938 -591 481 -872 
L 231 -622 
z
" transform="scale(0.015625)"/>
      <path id="DejaVuSerif-4e" d="M 313 0 
L 313 331 
L 941 331 
L 941 4331 
L 313 4331 
L 313 4666 
L 1509 4666 
L 4306 984 
L 4306 4331 
L 3681 4331 
L 3681 4666 
L 5319 4666 
L 5319 4331 
L 4691 4331 
L 4691 -91 
L 4313 -91 
L 1325 3841 
L 1325 331 
L 1953 331 
L 1953 0 
L 313 0 
z
" transform="scale(0.015625)"/>
      <path id="DejaVuSerif-36" d="M 2094 219 
Q 2534 219 2771 542 
Q 3009 866 3009 1472 
Q 3009 2078 2771 2401 
Q 2534 2725 2094 2725 
Q 1647 2725 1412 2412 
Q 1178 2100 1178 1509 
Q 1178 888 1415 553 
Q 1653 219 2094 219 
z
M 1075 2569 
Q 1288 2803 1556 2918 
Q 1825 3034 2163 3034 
Q 2859 3034 3264 2615 
Q 3669 2197 3669 1472 
Q 3669 763 3233 336 
Q 2797 -91 2069 -91 
Q 1278 -91 853 498 
Q 428 1088 428 2181 
Q 428 3406 931 4078 
Q 1434 4750 2350 4750 
Q 2597 4750 2869 4703 
Q 3141 4656 3425 4563 
L 3425 3794 
L 3072 3794 
Q 3034 4109 2831 4275 
Q 2628 4441 2284 4441 
Q 1678 4441 1381 3981 
Q 1084 3522 1075 2569 
z
" transform="scale(0.015625)"/>
     </defs>
     <use xlink:href="#DejaVuSerif-65"/>
     <use xlink:href="#DejaVuSerif-71" transform="translate(59.179688 0)"/>
     <use xlink:href="#DejaVuSerif-75" transform="translate(123.193359 0)"/>
     <use xlink:href="#DejaVuSerif-69" transform="translate(187.597656 0)"/>
     <use xlink:href="#DejaVuSerif-73" transform="translate(219.580078 0)"/>
     <use xlink:href="#DejaVuSerif-70" transform="translate(270.898438 0)"/>
     <use xlink:href="#DejaVuSerif-61" transform="translate(334.912109 0)"/>
     <use xlink:href="#DejaVuSerif-63" transform="translate(394.53125 0)"/>
     <use xlink:href="#DejaVuSerif-65" transform="translate(450.537109 0)"/>
     <use xlink:href="#DejaVuSerif-64" transform="translate(509.716797 0)"/>
     <use xlink:href="#DejaVuSerif-20" transform="translate(573.730469 0)"/>
     <use xlink:href="#DejaVuSerif-70" transform="translate(605.517578 0)"/>
     <use xlink:href="#DejaVuSerif-6f" transform="translate(669.53125 0)"/>
     <use xlink:href="#DejaVuSerif-69" transform="translate(729.736328 0)"/>
     <use xlink:href="#DejaVuSerif-6e" transform="translate(761.71875 0)"/>
     <use xlink:href="#DejaVuSerif-74" transform="translate(826.123047 0)"/>
     <use xlink:href="#DejaVuSerif-73" transform="translate(866.308594 0)"/>
     <use xlink:href="#DejaVuSerif-2c" transform="translate(917.626953 0)"/>
     <use xlink:href="#DejaVuSerif-20" transform="translate(949.414062 0)"/>
     <use xlink:href="#DejaVuSerif-4e" transform="translate(981.201172 0)"/>
     <use xlink:href="#DejaVuSerif-3d" transform="translate(1068.701172 0)"/>
     <use xlink:href="#DejaVuSerif-31" transform="translate(1152.490234 0)"/>
     <use xlink:href="#DejaVuSerif-36" transform="translate(1216.113281 0)"/>
    </g>
   </g>
  </g>
  <g id="axes_2">
   <g id="patch_7">
    <path d="M 396.859375 322.66625 
L 701.28 322.66625 
L 701.28 24.14175 
L 396.859375 24.14175 
z
" style="fill: #ffffff"/>
   </g>
   <g id="matplotlib.axis_3">
    <g id="xtick_6">
     <g id="line2d_14">
      <g>
       <use xlink:href="#m9bd7bae468" x="410.696676" y="322.66625" style="fill-opacity: 0; stroke: #000000; stroke-width: 0.8"/>
      </g>
     </g>
     <g id="text_14">
      <!-- −1.0 -->
      <g transform="translate(396.126989 338.784375) scale(0.12 -0.12)">
       <use xlink:href="#DejaVuSerif-2212"/>
       <use xlink:href="#DejaVuSerif-31" transform="translate(83.789062 0)"/>
       <use xlink:href="#DejaVuSerif-2e" transform="translate(147.412109 0)"/>
       <use xlink:href="#DejaVuSerif-30" transform="translate(179.199219 0)"/>
      </g>
     </g>
    </g>
    <g id="xtick_7">
     <g id="line2d_15">
      <g>
       <use xlink:href="#m9bd7bae468" x="479.883182" y="322.66625" style="fill-opacity: 0; stroke: #000000; stroke-width: 0.8"/>
      </g>
     </g>
     <g id="text_15">
      <!-- −0.5 -->
      <g transform="translate(465.313494 338.784375) scale(0.12 -0.12)">
       <use xlink:href="#DejaVuSerif-2212"/>
       <use xlink:href="#DejaVuSerif-30" transform="translate(83.789062 0)"/>
       <use xlink:href="#DejaVuSerif-2e" transform="translate(147.412109 0)"/>
       <use xlink:href="#DejaVuSerif-35" transform="translate(179.199219 0)"/>
      </g>
     </g>
    </g>
    <g id="xtick_8">
     <g id="line2d_16">
      <g>
       <use xlink:href="#m9bd7bae468" x="549.069687" y="322.66625" style="fill-opacity: 0; stroke: #000000; stroke-width: 0.8"/>
      </g>
     </g>
     <g id="text_16">
      <!-- 0.0 -->
      <g transform="translate(539.527812 338.784375) scale(0.12 -0.12)">
       <use xlink:href="#DejaVuSerif-30"/>
       <use xlink:href="#DejaVuSerif-2e" transform="translate(63.623047 0)"/>
       <use xlink:href="#DejaVuSerif-30" transform="translate(95.410156 0)"/>
      </g>
     </g>
    </g>
    <g id="xtick_9">
     <g id="line2d_17">
      <g>
       <use xlink:href="#m9bd7bae468" x="618.256193" y="322.66625" style="fill-opacity: 0; stroke: #000000; stroke-width: 0.8"/>
      </g>
     </g>
     <g id="text_17">
      <!-- 0.5 -->
      <g transform="translate(608.714318 338.784375) scale(0.12 -0.12)">
       <use xlink:href="#DejaVuSerif-30"/>
       <use xlink:href="#DejaVuSerif-2e" transform="translate(63.623047 0)"/>
       <use xlink:href="#DejaVuSerif-35" transform="translate(95.410156 0)"/>
      </g>
     </g>
    </g>
    <g id="xtick_10">
     <g id="line2d_18">
      <g>
       <use xlink:href="#m9bd7bae468" x="687.442699" y="322.66625" style="fill-opacity: 0; stroke: #000000; stroke-width: 0.8"/>
      </g>
     </g>
     <g id="text_18">
      <!-- 1.0 -->
      <g transform="translate(677.900824 338.784375) scale(0.12 -0.12)">
       <use xlink:href="#DejaVuSerif-31"/>
       <use xlink:href="#DejaVuSerif-2e" transform="translate(63.623047 0)"/>
       <use xlink:href="#DejaVuSerif-30" transform="translate(95.410156 0)"/>
      </g>
     </g>
    </g>
   </g>
   <g id="matplotlib.axis_4">
    <g id="ytick_7">
     <g id="line2d_19">
      <g>
       <use xlink:href="#m4aa74b7245" x="396.859375" y="322.66625" style="fill-opacity: 0; stroke: #000000; stroke-width: 0.8"/>
      </g>
     </g>
     <g id="text_19">
      <!-- −1.0 -->
      <g transform="translate(360.72 327.225313) scale(0.12 -0.12)">
       <use xlink:href="#DejaVuSerif-2212"/>
       <use xlink:href="#DejaVuSerif-31" transform="translate(83.789062 0)"/>
       <use xlink:href="#DejaVuSerif-2e" transform="translate(147.412109 0)"/>
       <use xlink:href="#DejaVuSerif-30" transform="translate(179.199219 0)"/>
      </g>
     </g>
    </g>
    <g id="ytick_8">
     <g id="line2d_20">
      <g>
       <use xlink:href="#m4aa74b7245" x="396.859375" y="262.96135" style="fill-opacity: 0; stroke: #000000; stroke-width: 0.8"/>
      </g>
     </g>
     <g id="text_20">
      <!-- −0.5 -->
      <g transform="translate(360.72 267.520413) scale(0.12 -0.12)">
       <use xlink:href="#DejaVuSerif-2212"/>
       <use xlink:href="#DejaVuSerif-30" transform="translate(83.789062 0)"/>
       <use xlink:href="#DejaVuSerif-2e" transform="translate(147.412109 0)"/>
       <use xlink:href="#DejaVuSerif-35" transform="translate(179.199219 0)"/>
      </g>
     </g>
    </g>
    <g id="ytick_9">
     <g id="line2d_21">
      <g>
       <use xlink:href="#m4aa74b7245" x="396.859375" y="203.25645" style="fill-opacity: 0; stroke: #000000; stroke-width: 0.8"/>
      </g>
     </g>
     <g id="text_21">
      <!-- 0.0 -->
      <g transform="translate(370.775625 207.815513) scale(0.12 -0.12)">
       <use xlink:href="#DejaVuSerif-30"/>
       <use xlink:href="#DejaVuSerif-2e" transform="translate(63.623047 0)"/>
       <use xlink:href="#DejaVuSerif-30" transform="translate(95.410156 0)"/>
      </g>
     </g>
    </g>
    <g id="ytick_10">
     <g id="line2d_22">
      <g>
       <use xlink:href="#m4aa74b7245" x="396.859375" y="143.55155" style="fill-opacity: 0; stroke: #000000; stroke-width: 0.8"/>
      </g>
     </g>
     <g id="text_22">
      <!-- 0.5 -->
      <g transform="translate(370.775625 148.110613) scale(0.12 -0.12)">
       <use xlink:href="#DejaVuSerif-30"/>
       <use xlink:href="#DejaVuSerif-2e" transform="translate(63.623047 0)"/>
       <use xlink:href="#DejaVuSerif-35" transform="translate(95.410156 0)"/>
      </g>
     </g>
    </g>
    <g id="ytick_11">
     <g id="line2d_23">
      <g>
       <use xlink:href="#m4aa74b7245" x="396.859375" y="83.84665" style="fill-opacity: 0; stroke: #000000; stroke-width: 0.8"/>
      </g>
     </g>
     <g id="text_23">
      <!-- 1.0 -->
      <g transform="translate(370.775625 88.405712) scale(0.12 -0.12)">
       <use xlink:href="#DejaVuSerif-31"/>
       <use xlink:href="#DejaVuSerif-2e" transform="translate(63.623047 0)"/>
       <use xlink:href="#DejaVuSerif-30" transform="translate(95.410156 0)"/>
      </g>
     </g>
    </g>
    <g id="ytick_12">
     <g id="line2d_24">
      <g>
       <use xlink:href="#m4aa74b7245" x="396.859375" y="24.14175" style="fill-opacity: 0; stroke: #000000; stroke-width: 0.8"/>
      </g>
     </g>
     <g id="text_24">
      <!-- 1.5 -->
      <g transform="translate(370.775625 28.700812) scale(0.12 -0.12)">
       <use xlink:href="#DejaVuSerif-31"/>
       <use xlink:href="#DejaVuSerif-2e" transform="translate(63.623047 0)"/>
       <use xlink:href="#DejaVuSerif-35" transform="translate(95.410156 0)"/>
      </g>
     </g>
    </g>
   </g>
   <g id="line2d_25">
    <g clip-path="url(#p57b2153789)">
     <use xlink:href="#m3ae1cefcdc" x="410.696676" y="196.232344" style="fill-opacity: 0; stroke: #1f77b4"/>
     <use xlink:href="#m3ae1cefcdc" x="413.355475" y="195.971383" style="fill-opacity: 0; stroke: #1f77b4"/>
     <use xlink:href="#m3ae1cefcdc" x="421.229694" y="195.109422" style="fill-opacity: 0; stroke: #1f77b4"/>
     <use xlink:href="#m3ae1cefcdc" x="434.016733" y="193.356345" style="fill-opacity: 0; stroke: #1f77b4"/>
     <use xlink:href="#m3ae1cefcdc" x="451.225193" y="189.988694" style="fill-opacity: 0; stroke: #1f77b4"/>
     <use xlink:href="#m3ae1cefcdc" x="472.193761" y="183.148823" style="fill-opacity: 0; stroke: #1f77b4"/>
     <use xlink:href="#m3ae1cefcdc" x="496.116629" y="167.538653" style="fill-opacity: 0; stroke: #1f77b4"/>
     <use xlink:href="#m3ae1cefcdc" x="522.074452" y="129.041104" style="fill-opacity: 0; stroke: #1f77b4"/>
     <use xlink:href="#m3ae1cefcdc" x="549.069687" y="83.84665" style="fill-opacity: 0; stroke: #1f77b4"/>
     <use xlink:href="#m3ae1cefcdc" x="576.064923" y="129.041104" style="fill-opacity: 0; stroke: #1f77b4"/>
     <use xlink:href="#m3ae1cefcdc" x="602.022746" y="167.538653" style="fill-opacity: 0; stroke: #1f77b4"/>
     <use xlink:href="#m3ae1cefcdc" x="625.945614" y="183.148823" style="fill-opacity: 0; stroke: #1f77b4"/>
     <use xlink:href="#m3ae1cefcdc" x="646.914182" y="189.988694" style="fill-opacity: 0; stroke: #1f77b4"/>
     <use xlink:href="#m3ae1cefcdc" x="664.122642" y="193.356345" style="fill-opacity: 0; stroke: #1f77b4"/>
     <use xlink:href="#m3ae1cefcdc" x="676.909681" y="195.109422" style="fill-opacity: 0; stroke: #1f77b4"/>
     <use xlink:href="#m3ae1cefcdc" x="684.7839" y="195.971383" style="fill-opacity: 0; stroke: #1f77b4"/>
     <use xlink:href="#m3ae1cefcdc" x="687.442699" y="196.232344" style="fill-opacity: 0; stroke: #1f77b4"/>
    </g>
   </g>
   <g id="line2d_26">
    <path d="M 409.312946 195.669356 
L 410.013481 196.055232 
L 410.714016 196.234814 
L 412.115086 196.207361 
L 414.917226 195.619815 
L 417.018832 195.267357 
L 419.120437 195.119468 
L 427.526857 194.860607 
L 430.328997 194.350601 
L 433.831673 193.411486 
L 440.837023 191.411523 
L 444.339698 190.717776 
L 447.842373 190.27706 
L 456.949329 189.356246 
L 459.751469 188.787805 
L 462.553609 187.965206 
L 465.35575 186.865705 
L 468.15789 185.499912 
L 471.660565 183.480192 
L 475.863775 180.75817 
L 486.371801 173.811953 
L 495.478757 167.987014 
L 498.280897 165.925161 
L 501.083037 163.559628 
L 503.184642 161.521215 
L 505.286247 159.209895 
L 507.387852 156.590691 
L 509.489457 153.63747 
L 511.591063 150.335035 
L 513.692668 146.680781 
L 516.494808 141.282517 
L 519.296948 135.346485 
L 522.799623 127.343369 
L 533.307649 102.771892 
L 536.109789 97.10101 
L 538.211394 93.358504 
L 540.312999 90.146673 
L 541.71407 88.336662 
L 543.11514 86.813547 
L 544.51621 85.593008 
L 545.91728 84.687691 
L 547.31835 84.107026 
L 548.71942 83.857079 
L 550.12049 83.940467 
L 551.52156 84.356318 
L 552.92263 85.10028 
L 554.3237 86.164591 
L 555.72477 87.538194 
L 557.125841 89.206897 
L 558.526911 91.153593 
L 560.628516 94.550954 
L 562.730121 98.452339 
L 565.532261 104.28882 
L 569.034936 112.291976 
L 578.842427 135.346485 
L 581.644567 141.282517 
L 584.446707 146.680781 
L 586.548312 150.335035 
L 588.649918 153.63747 
L 590.751523 156.590691 
L 592.853128 159.209895 
L 594.954733 161.521215 
L 597.056338 163.559628 
L 599.858478 165.925161 
L 602.660618 167.987014 
L 606.863829 170.744291 
L 617.371854 177.455294 
L 627.179345 183.907163 
L 630.68202 185.864595 
L 633.48416 187.166502 
L 636.286301 188.196512 
L 639.088441 188.952106 
L 641.890581 189.464497 
L 645.393256 189.861302 
L 653.099142 190.611528 
L 656.601817 191.250795 
L 660.104492 192.150726 
L 668.510913 194.50261 
L 671.313053 194.94492 
L 674.115193 195.115263 
L 681.120543 195.267357 
L 683.222149 195.619815 
L 686.024289 196.207361 
L 687.425359 196.234814 
L 688.125894 196.055232 
L 688.826429 195.669356 
L 688.826429 195.669356 
" clip-path="url(#p57b2153789)" style="fill: none; stroke: #ff7f0e; stroke-width: 1.5; stroke-linecap: square"/>
   </g>
   <g id="patch_8">
    <path d="M 396.859375 322.66625 
L 396.859375 24.14175 
" style="fill: none; stroke: #000000; stroke-width: 0.8; stroke-linejoin: miter; stroke-linecap: square"/>
   </g>
   <g id="patch_9">
    <path d="M 701.28 322.66625 
L 701.28 24.14175 
" style="fill: none; stroke: #000000; stroke-width: 0.8; stroke-linejoin: miter; stroke-linecap: square"/>
   </g>
   <g id="patch_10">
    <path d="M 396.859375 322.66625 
L 701.28 322.66625 
" style="fill: none; stroke: #000000; stroke-width: 0.8; stroke-linejoin: miter; stroke-linecap: square"/>
   </g>
   <g id="patch_11">
    <path d="M 396.859375 24.14175 
L 701.28 24.14175 
" style="fill: none; stroke: #000000; stroke-width: 0.8; stroke-linejoin: miter; stroke-linecap: square"/>
   </g>
   <g id="text_25">
    <!-- max error=0.0175333569478745 -->
    <g transform="translate(466.045881 262.96135) scale(0.12 -0.12)">
     <use xlink:href="#DejaVuSerif-6d"/>
     <use xlink:href="#DejaVuSerif-61" transform="translate(94.824219 0)"/>
     <use xlink:href="#DejaVuSerif-78" transform="translate(154.443359 0)"/>
     <use xlink:href="#DejaVuSerif-20" transform="translate(210.839844 0)"/>
     <use xlink:href="#DejaVuSerif-65" transform="translate(242.626953 0)"/>
     <use xlink:href="#DejaVuSerif-72" transform="translate(301.806641 0)"/>
     <use xlink:href="#DejaVuSerif-72" transform="translate(349.609375 0)"/>
     <use xlink:href="#DejaVuSerif-6f" transform="translate(397.412109 0)"/>
     <use xlink:href="#DejaVuSerif-72" transform="translate(457.617188 0)"/>
     <use xlink:href="#DejaVuSerif-3d" transform="translate(505.419922 0)"/>
     <use xlink:href="#DejaVuSerif-30" transform="translate(589.208984 0)"/>
     <use xlink:href="#DejaVuSerif-2e" transform="translate(652.832031 0)"/>
     <use xlink:href="#DejaVuSerif-30" transform="translate(684.619141 0)"/>
     <use xlink:href="#DejaVuSerif-31" transform="translate(748.242188 0)"/>
     <use xlink:href="#DejaVuSerif-37" transform="translate(811.865234 0)"/>
     <use xlink:href="#DejaVuSerif-35" transform="translate(875.488281 0)"/>
     <use xlink:href="#DejaVuSerif-33" transform="translate(939.111328 0)"/>
     <use xlink:href="#DejaVuSerif-33" transform="translate(1002.734375 0)"/>
     <use xlink:href="#DejaVuSerif-33" transform="translate(1066.357422 0)"/>
     <use xlink:href="#DejaVuSerif-35" transform="translate(1129.980469 0)"/>
     <use xlink:href="#DejaVuSerif-36" transform="translate(1193.603516 0)"/>
     <use xlink:href="#DejaVuSerif-39" transform="translate(1257.226562 0)"/>
     <use xlink:href="#DejaVuSerif-34" transform="translate(1320.849609 0)"/>
     <use xlink:href="#DejaVuSerif-37" transform="translate(1384.472656 0)"/>
     <use xlink:href="#DejaVuSerif-38" transform="translate(1448.095703 0)"/>
     <use xlink:href="#DejaVuSerif-37" transform="translate(1511.71875 0)"/>
     <use xlink:href="#DejaVuSerif-34" transform="translate(1575.341797 0)"/>
     <use xlink:href="#DejaVuSerif-35" transform="translate(1638.964844 0)"/>
    </g>
   </g>
   <g id="text_26">
    <!-- Chebyshev points, N=16 -->
    <g transform="translate(458.491437 18.14175) scale(0.144 -0.144)">
     <defs>
      <path id="DejaVuSerif-43" d="M 4513 1234 
Q 4306 581 3820 245 
Q 3334 -91 2591 -91 
Q 2134 -91 1743 65 
Q 1353 222 1050 525 
Q 700 875 529 1320 
Q 359 1766 359 2328 
Q 359 3416 987 4083 
Q 1616 4750 2644 4750 
Q 3025 4750 3456 4650 
Q 3888 4550 4384 4347 
L 4384 3272 
L 4031 3272 
Q 3916 3859 3567 4137 
Q 3219 4416 2591 4416 
Q 1844 4416 1459 3886 
Q 1075 3356 1075 2328 
Q 1075 1303 1459 773 
Q 1844 244 2591 244 
Q 3113 244 3450 492 
Q 3788 741 3938 1234 
L 4513 1234 
z
" transform="scale(0.015625)"/>
      <path id="DejaVuSerif-68" d="M 263 0 
L 263 331 
L 781 331 
L 781 4531 
L 231 4531 
L 231 4863 
L 1356 4863 
L 1356 2731 
Q 1516 3069 1770 3241 
Q 2025 3413 2363 3413 
Q 2913 3413 3172 3097 
Q 3431 2781 3431 2113 
L 3431 331 
L 3944 331 
L 3944 0 
L 2356 0 
L 2356 331 
L 2853 331 
L 2853 1931 
Q 2853 2541 2704 2764 
Q 2556 2988 2175 2988 
Q 1775 2988 1565 2697 
Q 1356 2406 1356 1850 
L 1356 331 
L 1856 331 
L 1856 0 
L 263 0 
z
" transform="scale(0.015625)"/>
      <path id="DejaVuSerif-62" d="M 738 331 
L 738 4531 
L 184 4531 
L 184 4863 
L 1313 4863 
L 1313 2803 
Q 1481 3116 1742 3264 
Q 2003 3413 2388 3413 
Q 3000 3413 3387 2928 
Q 3775 2444 3775 1663 
Q 3775 881 3387 395 
Q 3000 -91 2388 -91 
Q 2003 -91 1742 57 
Q 1481 206 1313 519 
L 1313 0 
L 184 0 
L 184 331 
L 738 331 
z
M 1313 1497 
Q 1313 897 1542 583 
Q 1772 269 2209 269 
Q 2650 269 2876 622 
Q 3103 975 3103 1663 
Q 3103 2353 2876 2703 
Q 2650 3053 2209 3053 
Q 1772 3053 1542 2737 
Q 1313 2422 1313 1825 
L 1313 1497 
z
" transform="scale(0.015625)"/>
      <path id="DejaVuSerif-79" d="M 1381 -609 
L 1600 -56 
L 359 2988 
L -19 2988 
L -19 3322 
L 1509 3322 
L 1509 2988 
L 978 2988 
L 1913 703 
L 2847 2988 
L 2350 2988 
L 2350 3322 
L 3597 3322 
L 3597 2988 
L 3225 2988 
L 1703 -750 
Q 1547 -1138 1356 -1280 
Q 1166 -1422 819 -1422 
Q 672 -1422 517 -1397 
Q 363 -1372 206 -1325 
L 206 -691 
L 500 -691 
Q 519 -903 608 -995 
Q 697 -1088 884 -1088 
Q 1056 -1088 1161 -992 
Q 1266 -897 1381 -609 
z
" transform="scale(0.015625)"/>
      <path id="DejaVuSerif-76" d="M 1581 0 
L 359 2988 
L -19 2988 
L -19 3322 
L 1509 3322 
L 1509 2988 
L 978 2988 
L 1913 703 
L 2847 2988 
L 2350 2988 
L 2350 3322 
L 3597 3322 
L 3597 2988 
L 3225 2988 
L 2003 0 
L 1581 0 
z
" transform="scale(0.015625)"/>
     </defs>
     <use xlink:href="#DejaVuSerif-43"/>
     <use xlink:href="#DejaVuSerif-68" transform="translate(76.513672 0)"/>
     <use xlink:href="#DejaVuSerif-65" transform="translate(140.917969 0)"/>
     <use xlink:href="#DejaVuSerif-62" transform="translate(200.097656 0)"/>
     <use xlink:href="#DejaVuSerif-79" transform="translate(264.111328 0)"/>
     <use xlink:href="#DejaVuSerif-73" transform="translate(320.605469 0)"/>
     <use xlink:href="#DejaVuSerif-68" transform="translate(371.923828 0)"/>
     <use xlink:href="#DejaVuSerif-65" transform="translate(436.328125 0)"/>
     <use xlink:href="#DejaVuSerif-76" transform="translate(495.507812 0)"/>
     <use xlink:href="#DejaVuSerif-20" transform="translate(552.001953 0)"/>
     <use xlink:href="#DejaVuSerif-70" transform="translate(583.789062 0)"/>
     <use xlink:href="#DejaVuSerif-6f" transform="translate(647.802734 0)"/>
     <use xlink:href="#DejaVuSerif-69" transform="translate(708.007812 0)"/>
     <use xlink:href="#DejaVuSerif-6e" transform="translate(739.990234 0)"/>
     <use xlink:href="#DejaVuSerif-74" transform="translate(804.394531 0)"/>
     <use xlink:href="#DejaVuSerif-73" transform="translate(844.580078 0)"/>
     <use xlink:href="#DejaVuSerif-2c" transform="translate(895.898438 0)"/>
     <use xlink:href="#DejaVuSerif-20" transform="translate(927.685547 0)"/>
     <use xlink:href="#DejaVuSerif-4e" transform="translate(959.472656 0)"/>
     <use xlink:href="#DejaVuSerif-3d" transform="translate(1046.972656 0)"/>
     <use xlink:href="#DejaVuSerif-31" transform="translate(1130.761719 0)"/>
     <use xlink:href="#DejaVuSerif-36" transform="translate(1194.384766 0)"/>
    </g>
   </g>
  </g>
 </g>
 <defs>
  <clipPath id="p8d5a8f0b69">
   <rect x="43.339375" y="24.14175" width="304.420625" height="298.5245"/>
  </clipPath>
  <clipPath id="p57b2153789">
   <rect x="396.859375" y="24.14175" width="304.420625" height="298.5245"/>
  </clipPath>
 </defs>
</svg>