<?xml version="1.0" encoding="utf-8" standalone="no"?>
<!DOCTYPE svg PUBLIC "-//W3C//DTD SVG 1.1//EN"
  "http://www.w3.org/Graphics/SVG/1.1/DTD/svg11.dtd">
<svg xmlns:xlink="http://www.w3.org/1999/xlink" width="449.28pt" height="334.08pt" viewBox="0 0 449.28 334.08" xmlns="http://www.w3.org/2000/svg" version="1.1">
 <metadata>
  <rdf:RDF xmlns:dc="http://purl.org/dc/elements/1.1/" xmlns:cc="http://creativecommons.org/ns#" xmlns:rdf="http://www.w3.org/1999/02/22-rdf-syntax-ns#">
   <cc:Work>
    <dc:type rdf:resource="http://purl.org/dc/dcmitype/StillImage"/>
    <dc:date>2025-04-05T08:43:32.908548</dc:date>
    <dc:format>image/svg+xml</dc:format>
    <dc:creator>
     <cc:Agent>
      <dc:title>Matplotlib v3.10.1, https://matplotlib.org/</dc:title>
     </cc:Agent>
    </dc:creator>
   </cc:Work>
  </rdf:RDF>
 </metadata>
 <defs>
  <style type="text/css">*{stroke-linejoin: round; stroke-linecap: butt}</style>
 </defs>
 <g id="figure_1">
  <g id="patch_1">
   <path d="M 0 334.08 
L 449.28 334.08 
L 449.28 0 
L 0 0 
z
" style="fill: #ffffff"/>
  </g>
  <g id="axes_1">
   <g id="patch_2">
    <path d="M 58.979375 292.6525 
L 442.08 292.6525 
L 442.08 24.14175 
L 58.979375 24.14175 
z
" style="fill: #ffffff"/>
   </g>
   <g id="matplotlib.axis_1">
    <g id="xtick_1">
     <g id="line2d_1">
      <path d="M 126.144725 292.6525 
L 126.144725 24.14175 
" clip-path="url(#paa4a243aca)" style="fill: none; stroke: #b0b0b0; stroke-width: 0.8; stroke-linecap: square"/>
     </g>
     <g id="line2d_2">
      <defs>
       <path id="mb4ef96191c" d="M 0 0 
L 0 3.5 
" style="stroke: #000000; stroke-width: 0.8"/>
      </defs>
      <g>
       <use xlink:href="#mb4ef96191c" x="126.144725" y="292.6525" style="fill-opacity: 0; stroke: #000000; stroke-width: 0.8"/>
      </g>
     </g>
     <g id="text_1">
      <!-- −1.0 -->
      <g transform="translate(111.575037 308.770625) scale(0.12 -0.12)">
       <defs>
        <path id="DejaVuSerif-2212" d="M 678 2259 
L 4684 2259 
L 4684 1753 
L 678 1753 
L 678 2259 
z
" transform="scale(0.015625)"/>
        <path id="DejaVuSerif-31" d="M 909 0 
L 909 331 
L 1722 331 
L 1722 4213 
L 781 3603 
L 781 4013 
L 1919 4750 
L 2350 4750 
L 2350 331 
L 3163 331 
L 3163 0 
L 909 0 
z
" transform="scale(0.015625)"/>
        <path id="DejaVuSerif-2e" d="M 603 325 
Q 603 500 722 622 
Q 841 744 1019 744 
Q 1191 744 1312 622 
Q 1434 500 1434 325 
Q 1434 153 1312 31 
Q 1191 -91 1019 -91 
Q 841 -91 722 29 
Q 603 150 603 325 
z
" transform="scale(0.015625)"/>
        <path id="DejaVuSerif-30" d="M 2034 219 
Q 2513 219 2750 744 
Q 2988 1269 2988 2328 
Q 2988 3391 2750 3916 
Q 2513 4441 2034 4441 
Q 1556 4441 1318 3916 
Q 1081 3391 1081 2328 
Q 1081 1269 1318 744 
Q 1556 219 2034 219 
z
M 2034 -91 
Q 1275 -91 848 546 
Q 422 1184 422 2328 
Q 422 3475 848 4112 
Q 1275 4750 2034 4750 
Q 2797 4750 3222 4112 
Q 3647 3475 3647 2328 
Q 3647 1184 3222 546 
Q 2797 -91 2034 -91 
z
" transform="scale(0.015625)"/>
       </defs>
       <use xlink:href="#DejaVuSerif-2212"/>
       <use xlink:href="#DejaVuSerif-31" transform="translate(83.789062 0)"/>
       <use xlink:href="#DejaVuSerif-2e" transform="translate(147.412109 0)"/>
       <use xlink:href="#DejaVuSerif-30" transform="translate(179.199219 0)"/>
      </g>
     </g>
    </g>
    <g id="xtick_2">
     <g id="line2d_3">
      <path d="M 206.295592 292.6525 
L 206.295592 24.14175 
" clip-path="url(#paa4a243aca)" style="fill: none; stroke: #b0b0b0; stroke-width: 0.8; stroke-linecap: square"/>
     </g>
     <g id="line2d_4">
      <g>
       <use xlink:href="#mb4ef96191c" x="206.295592" y="292.6525" style="fill-opacity: 0; stroke: #000000; stroke-width: 0.8"/>
      </g>
     </g>
     <g id="text_2">
      <!-- −0.5 -->
      <g transform="translate(191.725904 308.770625) scale(0.12 -0.12)">
       <defs>
        <path id="DejaVuSerif-35" d="M 3219 4666 
L 3219 4153 
L 1081 4153 
L 1081 2816 
Q 1244 2928 1461 2984 
Q 1678 3041 1947 3041 
Q 2703 3041 3140 2622 
Q 3578 2203 3578 1478 
Q 3578 738 3136 323 
Q 2694 -91 1894 -91 
Q 1572 -91 1234 -12 
Q 897 66 544 225 
L 544 1131 
L 897 1131 
Q 925 688 1179 453 
Q 1434 219 1894 219 
Q 2388 219 2653 544 
Q 2919 869 2919 1478 
Q 2919 2084 2655 2407 
Q 2391 2731 1894 2731 
Q 1613 2731 1398 2631 
Q 1184 2531 1019 2322 
L 750 2322 
L 750 4666 
L 3219 4666 
z
" transform="scale(0.015625)"/>
       </defs>
       <use xlink:href="#DejaVuSerif-2212"/>
       <use xlink:href="#DejaVuSerif-30" transform="translate(83.789062 0)"/>
       <use xlink:href="#DejaVuSerif-2e" transform="translate(147.412109 0)"/>
       <use xlink:href="#DejaVuSerif-35" transform="translate(179.199219 0)"/>
      </g>
     </g>
    </g>
    <g id="xtick_3">
     <g id="line2d_5">
      <path d="M 286.446459 292.6525 
L 286.446459 24.14175 
" clip-path="url(#paa4a243aca)" style="fill: none; stroke: #b0b0b0; stroke-width: 0.8; stroke-linecap: square"/>
     </g>
     <g id="line2d_6">
      <g>
       <use xlink:href="#mb4ef96191c" x="286.446459" y="292.6525" style="fill-opacity: 0; stroke: #000000; stroke-width: 0.8"/>
      </g>
     </g>
     <g id="text_3">
      <!-- 0.0 -->
      <g transform="translate(276.904584 308.770625) scale(0.12 -0.12)">
       <use xlink:href="#DejaVuSerif-30"/>
       <use xlink:href="#DejaVuSerif-2e" transform="translate(63.623047 0)"/>
       <use xlink:href="#DejaVuSerif-30" transform="translate(95.410156 0)"/>
      </g>
     </g>
    </g>
    <g id="xtick_4">
     <g id="line2d_7">
      <path d="M 366.597326 292.6525 
L 366.597326 24.14175 
" clip-path="url(#paa4a243aca)" style="fill: none; stroke: #b0b0b0; stroke-width: 0.8; stroke-linecap: square"/>
     </g>
     <g id="line2d_8">
      <g>
       <use xlink:href="#mb4ef96191c" x="366.597326" y="292.6525" style="fill-opacity: 0; stroke: #000000; stroke-width: 0.8"/>
      </g>
     </g>
     <g id="text_4">
      <!-- 0.5 -->
      <g transform="translate(357.055451 308.770625) scale(0.12 -0.12)">
       <use xlink:href="#DejaVuSerif-30"/>
       <use xlink:href="#DejaVuSerif-2e" transform="translate(63.623047 0)"/>
       <use xlink:href="#DejaVuSerif-35" transform="translate(95.410156 0)"/>
      </g>
     </g>
    </g>
    <g id="text_5">
     <!-- $real(\lambda\Delta t)$ -->
     <g transform="translate(224.309687 324.384375) scale(0.12 -0.12)">
      <defs>
       <path id="DejaVuSans-Oblique-72" d="M 2853 2969 
Q 2766 3016 2653 3041 
Q 2541 3066 2413 3066 
Q 1953 3066 1609 2717 
Q 1266 2369 1153 1784 
L 800 0 
L 225 0 
L 909 3500 
L 1484 3500 
L 1375 2956 
Q 1603 3259 1920 3421 
Q 2238 3584 2597 3584 
Q 2691 3584 2781 3573 
Q 2872 3563 2963 3538 
L 2853 2969 
z
" transform="scale(0.015625)"/>
       <path id="DejaVuSans-Oblique-65" d="M 3078 2063 
Q 3088 2113 3092 2166 
Q 3097 2219 3097 2272 
Q 3097 2653 2873 2875 
Q 2650 3097 2266 3097 
Q 1838 3097 1509 2826 
Q 1181 2556 1013 2059 
L 3078 2063 
z
M 3578 1613 
L 903 1613 
Q 884 1494 878 1425 
Q 872 1356 872 1306 
Q 872 872 1139 634 
Q 1406 397 1894 397 
Q 2269 397 2603 481 
Q 2938 566 3225 728 
L 3116 159 
Q 2806 34 2476 -28 
Q 2147 -91 1806 -91 
Q 1078 -91 686 257 
Q 294 606 294 1247 
Q 294 1794 489 2264 
Q 684 2734 1063 3103 
Q 1306 3334 1642 3459 
Q 1978 3584 2356 3584 
Q 2950 3584 3301 3228 
Q 3653 2872 3653 2272 
Q 3653 2128 3634 1964 
Q 3616 1800 3578 1613 
z
" transform="scale(0.015625)"/>
       <path id="DejaVuSans-Oblique-61" d="M 3438 1997 
L 3047 0 
L 2472 0 
L 2578 531 
Q 2325 219 2001 64 
Q 1678 -91 1281 -91 
Q 834 -91 548 182 
Q 263 456 263 884 
Q 263 1497 752 1853 
Q 1241 2209 2100 2209 
L 2900 2209 
L 2931 2363 
Q 2938 2388 2941 2417 
Q 2944 2447 2944 2509 
Q 2944 2788 2717 2942 
Q 2491 3097 2081 3097 
Q 1800 3097 1504 3025 
Q 1209 2953 897 2809 
L 997 3341 
Q 1322 3463 1633 3523 
Q 1944 3584 2234 3584 
Q 2853 3584 3176 3315 
Q 3500 3047 3500 2534 
Q 3500 2431 3484 2292 
Q 3469 2153 3438 1997 
z
M 2816 1759 
L 2241 1759 
Q 1534 1759 1195 1570 
Q 856 1381 856 984 
Q 856 709 1029 553 
Q 1203 397 1509 397 
Q 1978 397 2328 733 
Q 2678 1069 2791 1631 
L 2816 1759 
z
" transform="scale(0.015625)"/>
       <path id="DejaVuSans-Oblique-6c" d="M 1172 4863 
L 1747 4863 
L 800 0 
L 225 0 
L 1172 4863 
z
" transform="scale(0.015625)"/>
       <path id="DejaVuSans-28" d="M 1984 4856 
Q 1566 4138 1362 3434 
Q 1159 2731 1159 2009 
Q 1159 1288 1364 580 
Q 1569 -128 1984 -844 
L 1484 -844 
Q 1016 -109 783 600 
Q 550 1309 550 2009 
Q 550 2706 781 3412 
Q 1013 4119 1484 4856 
L 1984 4856 
z
" transform="scale(0.015625)"/>
       <path id="DejaVuSans-Oblique-3bb" d="M 2350 4316 
L 3125 0 
L 2516 0 
L 2038 2588 
L 328 0 
L -281 0 
L 1903 3356 
L 1794 3975 
Q 1725 4369 1391 4369 
L 1091 4369 
L 1184 4863 
L 1550 4856 
Q 2253 4847 2350 4316 
z
" transform="scale(0.015625)"/>
       <path id="DejaVuSans-394" d="M 2188 4044 
L 906 525 
L 3472 525 
L 2188 4044 
z
M 50 0 
L 1831 4666 
L 2547 4666 
L 4325 0 
L 50 0 
z
" transform="scale(0.015625)"/>
       <path id="DejaVuSans-Oblique-74" d="M 2706 3500 
L 2619 3053 
L 1472 3053 
L 1100 1153 
Q 1081 1047 1072 975 
Q 1063 903 1063 863 
Q 1063 663 1183 572 
Q 1303 481 1569 481 
L 2150 481 
L 2053 0 
L 1503 0 
Q 991 0 739 200 
Q 488 400 488 806 
Q 488 878 497 964 
Q 506 1050 525 1153 
L 897 3053 
L 409 3053 
L 500 3500 
L 978 3500 
L 1172 4494 
L 1747 4494 
L 1556 3500 
L 2706 3500 
z
" transform="scale(0.015625)"/>
       <path id="DejaVuSans-29" d="M 513 4856 
L 1013 4856 
Q 1481 4119 1714 3412 
Q 1947 2706 1947 2009 
Q 1947 1309 1714 600 
Q 1481 -109 1013 -844 
L 513 -844 
Q 928 -128 1133 580 
Q 1338 1288 1338 2009 
Q 1338 2731 1133 3434 
Q 928 4138 513 4856 
z
" transform="scale(0.015625)"/>
      </defs>
      <use xlink:href="#DejaVuSans-Oblique-72" transform="translate(0 0.015625)"/>
      <use xlink:href="#DejaVuSans-Oblique-65" transform="translate(41.113281 0.015625)"/>
      <use xlink:href="#DejaVuSans-Oblique-61" transform="translate(102.636719 0.015625)"/>
      <use xlink:href="#DejaVuSans-Oblique-6c" transform="translate(163.916016 0.015625)"/>
      <use xlink:href="#DejaVuSans-28" transform="translate(191.699219 0.015625)"/>
      <use xlink:href="#DejaVuSans-Oblique-3bb" transform="translate(230.712891 0.015625)"/>
      <use xlink:href="#DejaVuSans-394" transform="translate(289.892578 0.015625)"/>
      <use xlink:href="#DejaVuSans-Oblique-74" transform="translate(358.300781 0.015625)"/>
      <use xlink:href="#DejaVuSans-29" transform="translate(397.509766 0.015625)"/>
     </g>
    </g>
   </g>
   <g id="matplotlib.axis_2">
    <g id="ytick_1">
     <g id="line2d_9">
      <path d="M 58.979375 286.79403 
L 442.08 286.79403 
" clip-path="url(#paa4a243aca)" style="fill: none; stroke: #b0b0b0; stroke-width: 0.8; stroke-linecap: square"/>
     </g>
     <g id="line2d_10">
      <defs>
       <path id="m4573d5d398" d="M 0 0 
L -3.5 0 
" style="stroke: #000000; stroke-width: 0.8"/>
      </defs>
      <g>
       <use xlink:href="#m4573d5d398" x="58.979375" y="286.79403" style="fill-opacity: 0; stroke: #000000; stroke-width: 0.8"/>
      </g>
     </g>
     <g id="text_6">
      <!-- −0.8 -->
      <g transform="translate(22.84 291.353093) scale(0.12 -0.12)">
       <defs>
        <path id="DejaVuSerif-38" d="M 2981 1275 
Q 2981 1775 2732 2051 
Q 2484 2328 2034 2328 
Q 1584 2328 1336 2051 
Q 1088 1775 1088 1275 
Q 1088 772 1336 495 
Q 1584 219 2034 219 
Q 2484 219 2732 495 
Q 2981 772 2981 1275 
z
M 2853 3541 
Q 2853 3966 2637 4203 
Q 2422 4441 2034 4441 
Q 1650 4441 1433 4203 
Q 1216 3966 1216 3541 
Q 1216 3113 1433 2875 
Q 1650 2638 2034 2638 
Q 2422 2638 2637 2875 
Q 2853 3113 2853 3541 
z
M 2516 2484 
Q 3047 2413 3344 2092 
Q 3641 1772 3641 1275 
Q 3641 619 3225 264 
Q 2809 -91 2034 -91 
Q 1263 -91 845 264 
Q 428 619 428 1275 
Q 428 1772 725 2092 
Q 1022 2413 1556 2484 
Q 1084 2569 832 2842 
Q 581 3116 581 3541 
Q 581 4103 968 4426 
Q 1356 4750 2034 4750 
Q 2713 4750 3100 4426 
Q 3488 4103 3488 3541 
Q 3488 3116 3236 2842 
Q 2984 2569 2516 2484 
z
" transform="scale(0.015625)"/>
       </defs>
       <use xlink:href="#DejaVuSerif-2212"/>
       <use xlink:href="#DejaVuSerif-30" transform="translate(83.789062 0)"/>
       <use xlink:href="#DejaVuSerif-2e" transform="translate(147.412109 0)"/>
       <use xlink:href="#DejaVuSerif-38" transform="translate(179.199219 0)"/>
      </g>
     </g>
    </g>
    <g id="ytick_2">
     <g id="line2d_11">
      <path d="M 58.979375 254.694804 
L 442.08 254.694804 
" clip-path="url(#paa4a243aca)" style="fill: none; stroke: #b0b0b0; stroke-width: 0.8; stroke-linecap: square"/>
     </g>
     <g id="line2d_12">
      <g>
       <use xlink:href="#m4573d5d398" x="58.979375" y="254.694804" style="fill-opacity: 0; stroke: #000000; stroke-width: 0.8"/>
      </g>
     </g>
     <g id="text_7">
      <!-- −0.6 -->
      <g transform="translate(22.84 259.253867) scale(0.12 -0.12)">
       <defs>
        <path id="DejaVuSerif-36" d="M 2094 219 
Q 2534 219 2771 542 
Q 3009 866 3009 1472 
Q 3009 2078 2771 2401 
Q 2534 2725 2094 2725 
Q 1647 2725 1412 2412 
Q 1178 2100 1178 1509 
Q 1178 888 1415 553 
Q 1653 219 2094 219 
z
M 1075 2569 
Q 1288 2803 1556 2918 
Q 1825 3034 2163 3034 
Q 2859 3034 3264 2615 
Q 3669 2197 3669 1472 
Q 3669 763 3233 336 
Q 2797 -91 2069 -91 
Q 1278 -91 853 498 
Q 428 1088 428 2181 
Q 428 3406 931 4078 
Q 1434 4750 2350 4750 
Q 2597 4750 2869 4703 
Q 3141 4656 3425 4563 
L 3425 3794 
L 3072 3794 
Q 3034 4109 2831 4275 
Q 2628 4441 2284 4441 
Q 1678 4441 1381 3981 
Q 1084 3522 1075 2569 
z
" transform="scale(0.015625)"/>
       </defs>
       <use xlink:href="#DejaVuSerif-2212"/>
       <use xlink:href="#DejaVuSerif-30" transform="translate(83.789062 0)"/>
       <use xlink:href="#DejaVuSerif-2e" transform="translate(147.412109 0)"/>
       <use xlink:href="#DejaVuSerif-36" transform="translate(179.199219 0)"/>
      </g>
     </g>
    </g>
    <g id="ytick_3">
     <g id="line2d_13">
      <path d="M 58.979375 222.595578 
L 442.08 222.595578 
" clip-path="url(#paa4a243aca)" style="fill: none; stroke: #b0b0b0; stroke-width: 0.8; stroke-linecap: square"/>
     </g>
     <g id="line2d_14">
      <g>
       <use xlink:href="#m4573d5d398" x="58.979375" y="222.595578" style="fill-opacity: 0; stroke: #000000; stroke-width: 0.8"/>
      </g>
     </g>
     <g id="text_8">
      <!-- −0.4 -->
      <g transform="translate(22.84 227.15464) scale(0.12 -0.12)">
       <defs>
        <path id="DejaVuSerif-34" d="M 2234 1581 
L 2234 4063 
L 641 1581 
L 2234 1581 
z
M 3609 0 
L 1484 0 
L 1484 331 
L 2234 331 
L 2234 1247 
L 197 1247 
L 197 1588 
L 2241 4750 
L 2859 4750 
L 2859 1581 
L 3750 1581 
L 3750 1247 
L 2859 1247 
L 2859 331 
L 3609 331 
L 3609 0 
z
" transform="scale(0.015625)"/>
       </defs>
       <use xlink:href="#DejaVuSerif-2212"/>
       <use xlink:href="#DejaVuSerif-30" transform="translate(83.789062 0)"/>
       <use xlink:href="#DejaVuSerif-2e" transform="translate(147.412109 0)"/>
       <use xlink:href="#DejaVuSerif-34" transform="translate(179.199219 0)"/>
      </g>
     </g>
    </g>
    <g id="ytick_4">
     <g id="line2d_15">
      <path d="M 58.979375 190.496351 
L 442.08 190.496351 
" clip-path="url(#paa4a243aca)" style="fill: none; stroke: #b0b0b0; stroke-width: 0.8; stroke-linecap: square"/>
     </g>
     <g id="line2d_16">
      <g>
       <use xlink:href="#m4573d5d398" x="58.979375" y="190.496351" style="fill-opacity: 0; stroke: #000000; stroke-width: 0.8"/>
      </g>
     </g>
     <g id="text_9">
      <!-- −0.2 -->
      <g transform="translate(22.84 195.055414) scale(0.12 -0.12)">
       <defs>
        <path id="DejaVuSerif-32" d="M 819 3553 
L 469 3553 
L 469 4384 
Q 803 4563 1142 4656 
Q 1481 4750 1806 4750 
Q 2534 4750 2956 4397 
Q 3378 4044 3378 3438 
Q 3378 2753 2422 1800 
Q 2347 1728 2309 1691 
L 1131 513 
L 3078 513 
L 3078 1088 
L 3444 1088 
L 3444 0 
L 434 0 
L 434 341 
L 1850 1753 
Q 2319 2222 2519 2614 
Q 2719 3006 2719 3438 
Q 2719 3909 2473 4175 
Q 2228 4441 1797 4441 
Q 1350 4441 1106 4219 
Q 863 3997 819 3553 
z
" transform="scale(0.015625)"/>
       </defs>
       <use xlink:href="#DejaVuSerif-2212"/>
       <use xlink:href="#DejaVuSerif-30" transform="translate(83.789062 0)"/>
       <use xlink:href="#DejaVuSerif-2e" transform="translate(147.412109 0)"/>
       <use xlink:href="#DejaVuSerif-32" transform="translate(179.199219 0)"/>
      </g>
     </g>
    </g>
    <g id="ytick_5">
     <g id="line2d_17">
      <path d="M 58.979375 158.397125 
L 442.08 158.397125 
" clip-path="url(#paa4a243aca)" style="fill: none; stroke: #b0b0b0; stroke-width: 0.8; stroke-linecap: square"/>
     </g>
     <g id="line2d_18">
      <g>
       <use xlink:href="#m4573d5d398" x="58.979375" y="158.397125" style="fill-opacity: 0; stroke: #000000; stroke-width: 0.8"/>
      </g>
     </g>
     <g id="text_10">
      <!-- 0.0 -->
      <g transform="translate(32.895625 162.956187) scale(0.12 -0.12)">
       <use xlink:href="#DejaVuSerif-30"/>
       <use xlink:href="#DejaVuSerif-2e" transform="translate(63.623047 0)"/>
       <use xlink:href="#DejaVuSerif-30" transform="translate(95.410156 0)"/>
      </g>
     </g>
    </g>
    <g id="ytick_6">
     <g id="line2d_19">
      <path d="M 58.979375 126.297899 
L 442.08 126.297899 
" clip-path="url(#paa4a243aca)" style="fill: none; stroke: #b0b0b0; stroke-width: 0.8; stroke-linecap: square"/>
     </g>
     <g id="line2d_20">
      <g>
       <use xlink:href="#m4573d5d398" x="58.979375" y="126.297899" style="fill-opacity: 0; stroke: #000000; stroke-width: 0.8"/>
      </g>
     </g>
     <g id="text_11">
      <!-- 0.2 -->
      <g transform="translate(32.895625 130.856961) scale(0.12 -0.12)">
       <use xlink:href="#DejaVuSerif-30"/>
       <use xlink:href="#DejaVuSerif-2e" transform="translate(63.623047 0)"/>
       <use xlink:href="#DejaVuSerif-32" transform="translate(95.410156 0)"/>
      </g>
     </g>
    </g>
    <g id="ytick_7">
     <g id="line2d_21">
      <path d="M 58.979375 94.198672 
L 442.08 94.198672 
" clip-path="url(#paa4a243aca)" style="fill: none; stroke: #b0b0b0; stroke-width: 0.8; stroke-linecap: square"/>
     </g>
     <g id="line2d_22">
      <g>
       <use xlink:href="#m4573d5d398" x="58.979375" y="94.198672" style="fill-opacity: 0; stroke: #000000; stroke-width: 0.8"/>
      </g>
     </g>
     <g id="text_12">
      <!-- 0.4 -->
      <g transform="translate(32.895625 98.757735) scale(0.12 -0.12)">
       <use xlink:href="#DejaVuSerif-30"/>
       <use xlink:href="#DejaVuSerif-2e" transform="translate(63.623047 0)"/>
       <use xlink:href="#DejaVuSerif-34" transform="translate(95.410156 0)"/>
      </g>
     </g>
    </g>
    <g id="ytick_8">
     <g id="line2d_23">
      <path d="M 58.979375 62.099446 
L 442.08 62.099446 
" clip-path="url(#paa4a243aca)" style="fill: none; stroke: #b0b0b0; stroke-width: 0.8; stroke-linecap: square"/>
     </g>
     <g id="line2d_24">
      <g>
       <use xlink:href="#m4573d5d398" x="58.979375" y="62.099446" style="fill-opacity: 0; stroke: #000000; stroke-width: 0.8"/>
      </g>
     </g>
     <g id="text_13">
      <!-- 0.6 -->
      <g transform="translate(32.895625 66.658508) scale(0.12 -0.12)">
       <use xlink:href="#DejaVuSerif-30"/>
       <use xlink:href="#DejaVuSerif-2e" transform="translate(63.623047 0)"/>
       <use xlink:href="#DejaVuSerif-36" transform="translate(95.410156 0)"/>
      </g>
     </g>
    </g>
    <g id="ytick_9">
     <g id="line2d_25">
      <path d="M 58.979375 30.00022 
L 442.08 30.00022 
" clip-path="url(#paa4a243aca)" style="fill: none; stroke: #b0b0b0; stroke-width: 0.8; stroke-linecap: square"/>
     </g>
     <g id="line2d_26">
      <g>
       <use xlink:href="#m4573d5d398" x="58.979375" y="30.00022" style="fill-opacity: 0; stroke: #000000; stroke-width: 0.8"/>
      </g>
     </g>
     <g id="text_14">
      <!-- 0.8 -->
      <g transform="translate(32.895625 34.559282) scale(0.12 -0.12)">
       <use xlink:href="#DejaVuSerif-30"/>
       <use xlink:href="#DejaVuSerif-2e" transform="translate(63.623047 0)"/>
       <use xlink:href="#DejaVuSerif-38" transform="translate(95.410156 0)"/>
      </g>
     </g>
    </g>
    <g id="text_15">
     <!-- $imag(\lambda\Delta t)$ -->
     <g transform="translate(16.32 188.097125) rotate(-90) scale(0.12 -0.12)">
      <defs>
       <path id="DejaVuSans-Oblique-69" d="M 1172 4863 
L 1747 4863 
L 1606 4134 
L 1031 4134 
L 1172 4863 
z
M 909 3500 
L 1484 3500 
L 800 0 
L 225 0 
L 909 3500 
z
" transform="scale(0.015625)"/>
       <path id="DejaVuSans-Oblique-6d" d="M 5747 2113 
L 5338 0 
L 4763 0 
L 5166 2094 
Q 5191 2228 5203 2325 
Q 5216 2422 5216 2491 
Q 5216 2772 5059 2928 
Q 4903 3084 4622 3084 
Q 4203 3084 3875 2770 
Q 3547 2456 3450 1953 
L 3066 0 
L 2491 0 
L 2900 2094 
Q 2925 2209 2937 2307 
Q 2950 2406 2950 2484 
Q 2950 2769 2794 2926 
Q 2638 3084 2363 3084 
Q 1938 3084 1609 2770 
Q 1281 2456 1184 1953 
L 800 0 
L 225 0 
L 909 3500 
L 1484 3500 
L 1375 2956 
Q 1609 3263 1923 3423 
Q 2238 3584 2597 3584 
Q 2978 3584 3223 3384 
Q 3469 3184 3519 2828 
Q 3781 3197 4126 3390 
Q 4472 3584 4856 3584 
Q 5306 3584 5551 3325 
Q 5797 3066 5797 2591 
Q 5797 2488 5784 2364 
Q 5772 2241 5747 2113 
z
" transform="scale(0.015625)"/>
       <path id="DejaVuSans-Oblique-67" d="M 3816 3500 
L 3219 434 
Q 3047 -456 2561 -893 
Q 2075 -1331 1253 -1331 
Q 950 -1331 690 -1286 
Q 431 -1241 206 -1147 
L 313 -588 
Q 525 -725 762 -790 
Q 1000 -856 1269 -856 
Q 1816 -856 2167 -557 
Q 2519 -259 2631 300 
L 2681 563 
Q 2441 288 2122 144 
Q 1803 0 1434 0 
Q 903 0 598 351 
Q 294 703 294 1319 
Q 294 1803 478 2267 
Q 663 2731 997 3091 
Q 1219 3328 1514 3456 
Q 1809 3584 2131 3584 
Q 2484 3584 2746 3420 
Q 3009 3256 3138 2956 
L 3238 3500 
L 3816 3500 
z
M 2950 2216 
Q 2950 2641 2750 2872 
Q 2550 3103 2181 3103 
Q 1953 3103 1747 3012 
Q 1541 2922 1394 2759 
Q 1156 2491 1023 2127 
Q 891 1763 891 1375 
Q 891 944 1092 712 
Q 1294 481 1672 481 
Q 2219 481 2584 976 
Q 2950 1472 2950 2216 
z
" transform="scale(0.015625)"/>
      </defs>
      <use xlink:href="#DejaVuSans-Oblique-69" transform="translate(0 0.015625)"/>
      <use xlink:href="#DejaVuSans-Oblique-6d" transform="translate(27.783203 0.015625)"/>
      <use xlink:href="#DejaVuSans-Oblique-61" transform="translate(125.195312 0.015625)"/>
      <use xlink:href="#DejaVuSans-Oblique-67" transform="translate(186.474609 0.015625)"/>
      <use xlink:href="#DejaVuSans-28" transform="translate(249.951172 0.015625)"/>
      <use xlink:href="#DejaVuSans-Oblique-3bb" transform="translate(288.964844 0.015625)"/>
      <use xlink:href="#DejaVuSans-394" transform="translate(348.144531 0.015625)"/>
      <use xlink:href="#DejaVuSans-Oblique-74" transform="translate(416.552734 0.015625)"/>
      <use xlink:href="#DejaVuSans-29" transform="translate(455.761719 0.015625)"/>
     </g>
    </g>
   </g>
   <g id="line2d_27">
    <defs>
     <path id="m78121b24ed" d="M 0 3 
C 0.795609 3 1.55874 2.683901 2.12132 2.12132 
C 2.683901 1.55874 3 0.795609 3 0 
C 3 -0.795609 2.683901 -1.55874 2.12132 -2.12132 
C 1.55874 -2.683901 0.795609 -3 0 -3 
C -0.795609 -3 -1.55874 -2.683901 -2.12132 -2.12132 
C -2.683901 -1.55874 -3 -0.795609 -3 0 
C -3 0.795609 -2.683901 1.55874 -2.12132 2.12132 
C -1.55874 2.683901 -0.795609 3 0 3 
z
" style="stroke: #1f77b4"/>
    </defs>
    <g clip-path="url(#paa4a243aca)">
     <use xlink:href="#m78121b24ed" x="261.325147" y="61.693758" style="fill-opacity: 0; stroke: #1f77b4"/>
     <use xlink:href="#m78121b24ed" x="261.325147" y="255.100492" style="fill-opacity: 0; stroke: #1f77b4"/>
     <use xlink:href="#m78121b24ed" x="279.444067" y="110.774874" style="fill-opacity: 0; stroke: #1f77b4"/>
     <use xlink:href="#m78121b24ed" x="279.444067" y="206.019376" style="fill-opacity: 0; stroke: #1f77b4"/>
     <use xlink:href="#m78121b24ed" x="283.213024" y="126.177343" style="fill-opacity: 0; stroke: #1f77b4"/>
     <use xlink:href="#m78121b24ed" x="283.213024" y="190.616907" style="fill-opacity: 0; stroke: #1f77b4"/>
     <use xlink:href="#m78121b24ed" x="284.651681" y="133.345812" style="fill-opacity: 0; stroke: #1f77b4"/>
     <use xlink:href="#m78121b24ed" x="284.651681" y="183.448438" style="fill-opacity: 0; stroke: #1f77b4"/>
     <use xlink:href="#m78121b24ed" x="285.28103" y="136.947245" style="fill-opacity: 0; stroke: #1f77b4"/>
     <use xlink:href="#m78121b24ed" x="285.28103" y="179.847005" style="fill-opacity: 0; stroke: #1f77b4"/>
     <use xlink:href="#m78121b24ed" x="284.759991" y="138.867408" style="fill-opacity: 0; stroke: #1f77b4"/>
     <use xlink:href="#m78121b24ed" x="284.759991" y="177.926842" style="fill-opacity: 0; stroke: #1f77b4"/>
     <use xlink:href="#m78121b24ed" x="283.85168" y="140.57332" style="fill-opacity: 0; stroke: #1f77b4"/>
     <use xlink:href="#m78121b24ed" x="283.85168" y="176.22093" style="fill-opacity: 0; stroke: #1f77b4"/>
     <use xlink:href="#m78121b24ed" x="282.949611" y="142.048114" style="fill-opacity: 0; stroke: #1f77b4"/>
     <use xlink:href="#m78121b24ed" x="282.949611" y="174.746136" style="fill-opacity: 0; stroke: #1f77b4"/>
     <use xlink:href="#m78121b24ed" x="282.098054" y="143.35854" style="fill-opacity: 0; stroke: #1f77b4"/>
     <use xlink:href="#m78121b24ed" x="282.098054" y="173.43571" style="fill-opacity: 0; stroke: #1f77b4"/>
     <use xlink:href="#m78121b24ed" x="281.312685" y="144.550698" style="fill-opacity: 0; stroke: #1f77b4"/>
     <use xlink:href="#m78121b24ed" x="281.312685" y="172.243552" style="fill-opacity: 0; stroke: #1f77b4"/>
     <use xlink:href="#m78121b24ed" x="280.5963" y="145.656042" style="fill-opacity: 0; stroke: #1f77b4"/>
     <use xlink:href="#m78121b24ed" x="280.5963" y="171.138208" style="fill-opacity: 0; stroke: #1f77b4"/>
     <use xlink:href="#m78121b24ed" x="272.088571" y="155.090798" style="fill-opacity: 0; stroke: #1f77b4"/>
     <use xlink:href="#m78121b24ed" x="272.088571" y="161.703452" style="fill-opacity: 0; stroke: #1f77b4"/>
     <use xlink:href="#m78121b24ed" x="271.512359" y="158.397125" style="fill-opacity: 0; stroke: #1f77b4"/>
     <use xlink:href="#m78121b24ed" x="273.631151" y="152.317725" style="fill-opacity: 0; stroke: #1f77b4"/>
     <use xlink:href="#m78121b24ed" x="273.631151" y="164.476525" style="fill-opacity: 0; stroke: #1f77b4"/>
     <use xlink:href="#m78121b24ed" x="279.946263" y="146.695977" style="fill-opacity: 0; stroke: #1f77b4"/>
     <use xlink:href="#m78121b24ed" x="279.946263" y="170.098273" style="fill-opacity: 0; stroke: #1f77b4"/>
     <use xlink:href="#m78121b24ed" x="275.712797" y="150.353943" style="fill-opacity: 0; stroke: #1f77b4"/>
     <use xlink:href="#m78121b24ed" x="275.712797" y="166.440307" style="fill-opacity: 0; stroke: #1f77b4"/>
     <use xlink:href="#m78121b24ed" x="279.36478" y="147.678076" style="fill-opacity: 0; stroke: #1f77b4"/>
     <use xlink:href="#m78121b24ed" x="279.36478" y="169.116174" style="fill-opacity: 0; stroke: #1f77b4"/>
     <use xlink:href="#m78121b24ed" x="278.903384" y="148.683376" style="fill-opacity: 0; stroke: #1f77b4"/>
     <use xlink:href="#m78121b24ed" x="278.903384" y="168.110874" style="fill-opacity: 0; stroke: #1f77b4"/>
     <use xlink:href="#m78121b24ed" x="277.909212" y="149.173846" style="fill-opacity: 0; stroke: #1f77b4"/>
     <use xlink:href="#m78121b24ed" x="277.909212" y="167.620404" style="fill-opacity: 0; stroke: #1f77b4"/>
     <use xlink:href="#m78121b24ed" x="278.673122" y="150.078051" style="fill-opacity: 0; stroke: #1f77b4"/>
     <use xlink:href="#m78121b24ed" x="278.673122" y="166.716199" style="fill-opacity: 0; stroke: #1f77b4"/>
     <use xlink:href="#m78121b24ed" x="278.664366" y="151.468919" style="fill-opacity: 0; stroke: #1f77b4"/>
     <use xlink:href="#m78121b24ed" x="278.664366" y="165.325331" style="fill-opacity: 0; stroke: #1f77b4"/>
     <use xlink:href="#m78121b24ed" x="278.657375" y="152.848644" style="fill-opacity: 0; stroke: #1f77b4"/>
     <use xlink:href="#m78121b24ed" x="278.657375" y="163.945606" style="fill-opacity: 0; stroke: #1f77b4"/>
     <use xlink:href="#m78121b24ed" x="278.656853" y="154.229468" style="fill-opacity: 0; stroke: #1f77b4"/>
     <use xlink:href="#m78121b24ed" x="278.656853" y="162.564782" style="fill-opacity: 0; stroke: #1f77b4"/>
     <use xlink:href="#m78121b24ed" x="278.660467" y="155.614519" style="fill-opacity: 0; stroke: #1f77b4"/>
     <use xlink:href="#m78121b24ed" x="278.660467" y="161.179731" style="fill-opacity: 0; stroke: #1f77b4"/>
     <use xlink:href="#m78121b24ed" x="278.666165" y="158.397125" style="fill-opacity: 0; stroke: #1f77b4"/>
     <use xlink:href="#m78121b24ed" x="278.664502" y="157.004359" style="fill-opacity: 0; stroke: #1f77b4"/>
     <use xlink:href="#m78121b24ed" x="278.664502" y="159.789891" style="fill-opacity: 0; stroke: #1f77b4"/>
    </g>
   </g>
   <g id="line2d_28">
    <defs>
     <path id="m01ae4092a1" d="M 0 -3 
L -0.673542 -0.927051 
L -2.85317 -0.927051 
L -1.089814 0.354102 
L -1.763356 2.427051 
L -0 1.145898 
L 1.763356 2.427051 
L 1.089814 0.354102 
L 2.85317 -0.927051 
L 0.673542 -0.927051 
z
" style="stroke: #ff7f0e; stroke-linejoin: bevel"/>
    </defs>
    <g clip-path="url(#paa4a243aca)">
     <use xlink:href="#m01ae4092a1" x="257.736389" y="47.878991" style="fill-opacity: 0; stroke: #ff7f0e; stroke-linejoin: bevel"/>
     <use xlink:href="#m01ae4092a1" x="257.736389" y="268.915259" style="fill-opacity: 0; stroke: #ff7f0e; stroke-linejoin: bevel"/>
     <use xlink:href="#m01ae4092a1" x="278.443725" y="103.971696" style="fill-opacity: 0; stroke: #ff7f0e; stroke-linejoin: bevel"/>
     <use xlink:href="#m01ae4092a1" x="278.443725" y="212.822554" style="fill-opacity: 0; stroke: #ff7f0e; stroke-linejoin: bevel"/>
     <use xlink:href="#m01ae4092a1" x="282.751105" y="121.574517" style="fill-opacity: 0; stroke: #ff7f0e; stroke-linejoin: bevel"/>
     <use xlink:href="#m01ae4092a1" x="282.751105" y="195.219733" style="fill-opacity: 0; stroke: #ff7f0e; stroke-linejoin: bevel"/>
     <use xlink:href="#m01ae4092a1" x="284.395284" y="129.767053" style="fill-opacity: 0; stroke: #ff7f0e; stroke-linejoin: bevel"/>
     <use xlink:href="#m01ae4092a1" x="284.395284" y="187.027197" style="fill-opacity: 0; stroke: #ff7f0e; stroke-linejoin: bevel"/>
     <use xlink:href="#m01ae4092a1" x="285.11454" y="133.882977" style="fill-opacity: 0; stroke: #ff7f0e; stroke-linejoin: bevel"/>
     <use xlink:href="#m01ae4092a1" x="285.11454" y="182.911273" style="fill-opacity: 0; stroke: #ff7f0e; stroke-linejoin: bevel"/>
     <use xlink:href="#m01ae4092a1" x="284.519067" y="136.077449" style="fill-opacity: 0; stroke: #ff7f0e; stroke-linejoin: bevel"/>
     <use xlink:href="#m01ae4092a1" x="284.519067" y="180.716801" style="fill-opacity: 0; stroke: #ff7f0e; stroke-linejoin: bevel"/>
     <use xlink:href="#m01ae4092a1" x="283.480997" y="138.027062" style="fill-opacity: 0; stroke: #ff7f0e; stroke-linejoin: bevel"/>
     <use xlink:href="#m01ae4092a1" x="283.480997" y="178.767188" style="fill-opacity: 0; stroke: #ff7f0e; stroke-linejoin: bevel"/>
     <use xlink:href="#m01ae4092a1" x="282.450061" y="139.712541" style="fill-opacity: 0; stroke: #ff7f0e; stroke-linejoin: bevel"/>
     <use xlink:href="#m01ae4092a1" x="282.450061" y="177.081709" style="fill-opacity: 0; stroke: #ff7f0e; stroke-linejoin: bevel"/>
     <use xlink:href="#m01ae4092a1" x="281.476853" y="141.210171" style="fill-opacity: 0; stroke: #ff7f0e; stroke-linejoin: bevel"/>
     <use xlink:href="#m01ae4092a1" x="281.476853" y="175.584079" style="fill-opacity: 0; stroke: #ff7f0e; stroke-linejoin: bevel"/>
     <use xlink:href="#m01ae4092a1" x="280.579289" y="142.572637" style="fill-opacity: 0; stroke: #ff7f0e; stroke-linejoin: bevel"/>
     <use xlink:href="#m01ae4092a1" x="280.579289" y="174.221613" style="fill-opacity: 0; stroke: #ff7f0e; stroke-linejoin: bevel"/>
     <use xlink:href="#m01ae4092a1" x="279.760564" y="143.835888" style="fill-opacity: 0; stroke: #ff7f0e; stroke-linejoin: bevel"/>
     <use xlink:href="#m01ae4092a1" x="279.760564" y="172.958362" style="fill-opacity: 0; stroke: #ff7f0e; stroke-linejoin: bevel"/>
     <use xlink:href="#m01ae4092a1" x="270.037444" y="154.618466" style="fill-opacity: 0; stroke: #ff7f0e; stroke-linejoin: bevel"/>
     <use xlink:href="#m01ae4092a1" x="270.037444" y="162.175784" style="fill-opacity: 0; stroke: #ff7f0e; stroke-linejoin: bevel"/>
     <use xlink:href="#m01ae4092a1" x="269.378916" y="158.397125" style="fill-opacity: 0; stroke: #ff7f0e; stroke-linejoin: bevel"/>
     <use xlink:href="#m01ae4092a1" x="271.800393" y="151.449239" style="fill-opacity: 0; stroke: #ff7f0e; stroke-linejoin: bevel"/>
     <use xlink:href="#m01ae4092a1" x="271.800393" y="165.345011" style="fill-opacity: 0; stroke: #ff7f0e; stroke-linejoin: bevel"/>
     <use xlink:href="#m01ae4092a1" x="279.017664" y="145.024384" style="fill-opacity: 0; stroke: #ff7f0e; stroke-linejoin: bevel"/>
     <use xlink:href="#m01ae4092a1" x="279.017664" y="171.769866" style="fill-opacity: 0; stroke: #ff7f0e; stroke-linejoin: bevel"/>
     <use xlink:href="#m01ae4092a1" x="274.179416" y="149.204917" style="fill-opacity: 0; stroke: #ff7f0e; stroke-linejoin: bevel"/>
     <use xlink:href="#m01ae4092a1" x="274.179416" y="167.589333" style="fill-opacity: 0; stroke: #ff7f0e; stroke-linejoin: bevel"/>
     <use xlink:href="#m01ae4092a1" x="278.353112" y="146.146784" style="fill-opacity: 0; stroke: #ff7f0e; stroke-linejoin: bevel"/>
     <use xlink:href="#m01ae4092a1" x="278.353112" y="170.647466" style="fill-opacity: 0; stroke: #ff7f0e; stroke-linejoin: bevel"/>
     <use xlink:href="#m01ae4092a1" x="277.825801" y="147.295698" style="fill-opacity: 0; stroke: #ff7f0e; stroke-linejoin: bevel"/>
     <use xlink:href="#m01ae4092a1" x="277.825801" y="169.498552" style="fill-opacity: 0; stroke: #ff7f0e; stroke-linejoin: bevel"/>
     <use xlink:href="#m01ae4092a1" x="276.689605" y="147.856234" style="fill-opacity: 0; stroke: #ff7f0e; stroke-linejoin: bevel"/>
     <use xlink:href="#m01ae4092a1" x="276.689605" y="168.938016" style="fill-opacity: 0; stroke: #ff7f0e; stroke-linejoin: bevel"/>
     <use xlink:href="#m01ae4092a1" x="277.562645" y="148.889612" style="fill-opacity: 0; stroke: #ff7f0e; stroke-linejoin: bevel"/>
     <use xlink:href="#m01ae4092a1" x="277.562645" y="167.904638" style="fill-opacity: 0; stroke: #ff7f0e; stroke-linejoin: bevel"/>
     <use xlink:href="#m01ae4092a1" x="277.552638" y="150.479175" style="fill-opacity: 0; stroke: #ff7f0e; stroke-linejoin: bevel"/>
     <use xlink:href="#m01ae4092a1" x="277.552638" y="166.315075" style="fill-opacity: 0; stroke: #ff7f0e; stroke-linejoin: bevel"/>
     <use xlink:href="#m01ae4092a1" x="277.544649" y="152.056003" style="fill-opacity: 0; stroke: #ff7f0e; stroke-linejoin: bevel"/>
     <use xlink:href="#m01ae4092a1" x="277.544649" y="164.738247" style="fill-opacity: 0; stroke: #ff7f0e; stroke-linejoin: bevel"/>
     <use xlink:href="#m01ae4092a1" x="277.544052" y="153.634089" style="fill-opacity: 0; stroke: #ff7f0e; stroke-linejoin: bevel"/>
     <use xlink:href="#m01ae4092a1" x="277.544052" y="163.160161" style="fill-opacity: 0; stroke: #ff7f0e; stroke-linejoin: bevel"/>
     <use xlink:href="#m01ae4092a1" x="277.548182" y="155.217004" style="fill-opacity: 0; stroke: #ff7f0e; stroke-linejoin: bevel"/>
     <use xlink:href="#m01ae4092a1" x="277.548182" y="161.577246" style="fill-opacity: 0; stroke: #ff7f0e; stroke-linejoin: bevel"/>
     <use xlink:href="#m01ae4092a1" x="277.554694" y="158.397125" style="fill-opacity: 0; stroke: #ff7f0e; stroke-linejoin: bevel"/>
     <use xlink:href="#m01ae4092a1" x="277.552794" y="156.805393" style="fill-opacity: 0; stroke: #ff7f0e; stroke-linejoin: bevel"/>
     <use xlink:href="#m01ae4092a1" x="277.552794" y="159.988857" style="fill-opacity: 0; stroke: #ff7f0e; stroke-linejoin: bevel"/>
    </g>
   </g>
   <g id="line2d_29">
    <path d="M 286.446459 158.397125 
L 286.520558 128.159681 
L 286.809403 113.134574 
L 287.230628 103.25096 
L 287.912733 93.576219 
L 288.908301 84.234312 
L 290.240988 75.377261 
L 291.891683 67.173651 
L 293.789843 59.790129 
L 295.813982 53.368792 
L 297.803234 48.005859 
L 300.966331 40.538429 
L 301.82368 38.328968 
L 302.050226 36.994445 
L 301.908974 36.614489 
L 301.594335 36.403936 
L 301.106812 36.346784 
L 299.626061 36.633422 
L 297.50958 37.36819 
L 293.282793 39.131392 
L 286.07425 42.434229 
L 279.813284 45.496398 
L 273.071851 49.01558 
L 266.044614 52.984664 
L 261.284006 55.883419 
L 256.513445 58.987531 
L 251.771425 62.299465 
L 247.092659 65.820801 
L 242.508574 69.551872 
L 238.047724 73.491559 
L 233.736137 77.637182 
L 229.597592 81.98447 
L 225.653845 86.527581 
L 221.924793 91.259154 
L 218.428612 96.170387 
L 215.181852 101.251126 
L 212.199513 106.48997 
L 209.495091 111.874375 
L 207.080621 117.390766 
L 204.966696 123.024652 
L 203.162485 128.760739 
L 201.675742 134.583043 
L 200.512808 140.475008 
L 199.678617 146.419621 
L 199.176692 152.399522 
L 199.009149 158.397125 
L 199.176692 164.394728 
L 199.678617 170.374629 
L 200.512808 176.319242 
L 201.675742 182.211207 
L 203.162485 188.033511 
L 204.966696 193.769598 
L 207.080621 199.403484 
L 209.495091 204.919875 
L 212.199513 210.30428 
L 215.181852 215.543124 
L 218.428612 220.623863 
L 221.924793 225.535096 
L 225.653845 230.266669 
L 229.597592 234.80978 
L 233.736137 239.157068 
L 238.047724 243.302691 
L 242.508574 247.242378 
L 247.092659 250.973449 
L 251.771425 254.494785 
L 256.513445 257.806719 
L 261.284006 260.910831 
L 266.044614 263.809586 
L 273.071851 267.77867 
L 279.813284 271.297852 
L 288.016454 275.274187 
L 294.81994 278.327796 
L 298.643719 279.84365 
L 300.449166 280.366319 
L 301.106812 280.447466 
L 301.594335 280.390314 
L 301.908974 280.179761 
L 302.050226 279.799805 
L 302.020158 279.233879 
L 301.468727 277.477706 
L 296.824034 266.242992 
L 294.795506 260.342365 
L 292.81631 253.424599 
L 291.029741 245.611191 
L 289.532559 237.059405 
L 288.369001 227.93953 
L 287.535284 218.413777 
L 286.991406 208.6211 
L 286.675983 198.669437 
L 286.482464 183.601627 
L 286.446459 158.397125 
L 286.446459 158.397125 
" clip-path="url(#paa4a243aca)" style="fill: none; stroke: #2ca02c; stroke-width: 1.5; stroke-linecap: square"/>
   </g>
   <g id="patch_3">
    <path d="M 58.979375 292.6525 
L 58.979375 24.14175 
" style="fill: none; stroke: #000000; stroke-width: 0.8; stroke-linejoin: miter; stroke-linecap: square"/>
   </g>
   <g id="patch_4">
    <path d="M 442.08 292.6525 
L 442.08 24.14175 
" style="fill: none; stroke: #000000; stroke-width: 0.8; stroke-linejoin: miter; stroke-linecap: square"/>
   </g>
   <g id="patch_5">
    <path d="M 58.979375 292.6525 
L 442.08 292.6525 
" style="fill: none; stroke: #000000; stroke-width: 0.8; stroke-linejoin: miter; stroke-linecap: square"/>
   </g>
   <g id="patch_6">
    <path d="M 58.979375 24.14175 
L 442.08 24.14175 
" style="fill: none; stroke: #000000; stroke-width: 0.8; stroke-linejoin: miter; stroke-linecap: square"/>
   </g>
   <g id="text_16">
    <!-- Adams-Bashforth, N =50 -->
    <g transform="translate(159.224687 18.14175) scale(0.144 -0.144)">
     <defs>
      <path id="DejaVuSerif-41" d="M 1281 1691 
L 2994 1691 
L 2138 3909 
L 1281 1691 
z
M -38 0 
L -38 331 
L 372 331 
L 2034 4666 
L 2559 4666 
L 4225 331 
L 4684 331 
L 4684 0 
L 2988 0 
L 2988 331 
L 3506 331 
L 3116 1356 
L 1153 1356 
L 763 331 
L 1275 331 
L 1275 0 
L -38 0 
z
" transform="scale(0.015625)"/>
      <path id="DejaVuSerif-64" d="M 3359 331 
L 3909 331 
L 3909 0 
L 2784 0 
L 2784 519 
Q 2616 206 2355 57 
Q 2094 -91 1709 -91 
Q 1097 -91 708 395 
Q 319 881 319 1663 
Q 319 2444 706 2928 
Q 1094 3413 1709 3413 
Q 2094 3413 2355 3264 
Q 2616 3116 2784 2803 
L 2784 4531 
L 2241 4531 
L 2241 4863 
L 3359 4863 
L 3359 331 
z
M 2784 1497 
L 2784 1825 
Q 2784 2422 2554 2737 
Q 2325 3053 1888 3053 
Q 1444 3053 1217 2703 
Q 991 2353 991 1663 
Q 991 975 1217 622 
Q 1444 269 1888 269 
Q 2325 269 2554 583 
Q 2784 897 2784 1497 
z
" transform="scale(0.015625)"/>
      <path id="DejaVuSerif-61" d="M 2547 1044 
L 2547 1747 
L 1806 1747 
Q 1378 1747 1168 1562 
Q 959 1378 959 997 
Q 959 650 1171 447 
Q 1384 244 1747 244 
Q 2106 244 2326 466 
Q 2547 688 2547 1044 
z
M 3122 2075 
L 3122 331 
L 3634 331 
L 3634 0 
L 2547 0 
L 2547 359 
Q 2356 128 2106 18 
Q 1856 -91 1522 -91 
Q 969 -91 644 203 
Q 319 497 319 997 
Q 319 1513 691 1797 
Q 1063 2081 1741 2081 
L 2547 2081 
L 2547 2309 
Q 2547 2688 2317 2895 
Q 2088 3103 1672 3103 
Q 1328 3103 1125 2947 
Q 922 2791 872 2484 
L 575 2484 
L 575 3156 
Q 875 3284 1158 3348 
Q 1441 3413 1709 3413 
Q 2400 3413 2761 3070 
Q 3122 2728 3122 2075 
z
" transform="scale(0.015625)"/>
      <path id="DejaVuSerif-6d" d="M 3316 2675 
Q 3481 3041 3739 3227 
Q 3997 3413 4341 3413 
Q 4863 3413 5119 3089 
Q 5375 2766 5375 2113 
L 5375 331 
L 5894 331 
L 5894 0 
L 4300 0 
L 4300 331 
L 4800 331 
L 4800 2047 
Q 4800 2556 4650 2772 
Q 4500 2988 4153 2988 
Q 3769 2988 3567 2697 
Q 3366 2406 3366 1850 
L 3366 331 
L 3866 331 
L 3866 0 
L 2291 0 
L 2291 331 
L 2791 331 
L 2791 2069 
Q 2791 2566 2641 2777 
Q 2491 2988 2144 2988 
Q 1759 2988 1557 2697 
Q 1356 2406 1356 1850 
L 1356 331 
L 1856 331 
L 1856 0 
L 263 0 
L 263 331 
L 781 331 
L 781 2994 
L 231 2994 
L 231 3322 
L 1356 3322 
L 1356 2731 
Q 1516 3063 1762 3238 
Q 2009 3413 2322 3413 
Q 2709 3413 2968 3220 
Q 3228 3028 3316 2675 
z
" transform="scale(0.015625)"/>
      <path id="DejaVuSerif-73" d="M 359 184 
L 359 959 
L 691 959 
Q 703 588 923 403 
Q 1144 219 1575 219 
Q 1963 219 2166 364 
Q 2369 509 2369 788 
Q 2369 1006 2220 1140 
Q 2072 1275 1594 1428 
L 1178 1569 
Q 750 1706 558 1912 
Q 366 2119 366 2438 
Q 366 2894 700 3153 
Q 1034 3413 1625 3413 
Q 1888 3413 2178 3344 
Q 2469 3275 2778 3144 
L 2778 2419 
L 2447 2419 
Q 2434 2741 2221 2922 
Q 2009 3103 1644 3103 
Q 1281 3103 1095 2975 
Q 909 2847 909 2591 
Q 909 2381 1050 2254 
Q 1191 2128 1613 1997 
L 2069 1856 
Q 2541 1709 2748 1489 
Q 2956 1269 2956 922 
Q 2956 450 2595 179 
Q 2234 -91 1600 -91 
Q 1278 -91 972 -22 
Q 666 47 359 184 
z
" transform="scale(0.015625)"/>
      <path id="DejaVuSerif-2d" d="M 281 1959 
L 1881 1959 
L 1881 1472 
L 281 1472 
L 281 1959 
z
" transform="scale(0.015625)"/>
      <path id="DejaVuSerif-42" d="M 1581 331 
L 2516 331 
Q 3078 331 3337 575 
Q 3597 819 3597 1350 
Q 3597 1878 3339 2120 
Q 3081 2363 2516 2363 
L 1581 2363 
L 1581 331 
z
M 1581 2694 
L 2375 2694 
Q 2888 2694 3123 2891 
Q 3359 3088 3359 3513 
Q 3359 3941 3123 4136 
Q 2888 4331 2375 4331 
L 1581 4331 
L 1581 2694 
z
M 353 0 
L 353 331 
L 947 331 
L 947 4331 
L 353 4331 
L 353 4666 
L 2656 4666 
Q 3363 4666 3720 4377 
Q 4078 4088 4078 3513 
Q 4078 3097 3829 2850 
Q 3581 2603 3103 2547 
Q 3697 2472 4005 2167 
Q 4313 1863 4313 1350 
Q 4313 656 3875 328 
Q 3438 0 2509 0 
L 353 0 
z
" transform="scale(0.015625)"/>
      <path id="DejaVuSerif-68" d="M 263 0 
L 263 331 
L 781 331 
L 781 4531 
L 231 4531 
L 231 4863 
L 1356 4863 
L 1356 2731 
Q 1516 3069 1770 3241 
Q 2025 3413 2363 3413 
Q 2913 3413 3172 3097 
Q 3431 2781 3431 2113 
L 3431 331 
L 3944 331 
L 3944 0 
L 2356 0 
L 2356 331 
L 2853 331 
L 2853 1931 
Q 2853 2541 2704 2764 
Q 2556 2988 2175 2988 
Q 1775 2988 1565 2697 
Q 1356 2406 1356 1850 
L 1356 331 
L 1856 331 
L 1856 0 
L 263 0 
z
" transform="scale(0.015625)"/>
      <path id="DejaVuSerif-66" d="M 2753 4078 
L 2450 4078 
Q 2447 4313 2317 4434 
Q 2188 4556 1941 4556 
Q 1619 4556 1487 4379 
Q 1356 4203 1356 3750 
L 1356 3322 
L 2284 3322 
L 2284 2988 
L 1356 2988 
L 1356 331 
L 2094 331 
L 2094 0 
L 231 0 
L 231 331 
L 781 331 
L 781 2988 
L 231 2988 
L 231 3322 
L 781 3322 
L 781 3738 
Q 781 4294 1070 4578 
Q 1359 4863 1919 4863 
Q 2128 4863 2337 4825 
Q 2547 4788 2753 4709 
L 2753 4078 
z
" transform="scale(0.015625)"/>
      <path id="DejaVuSerif-6f" d="M 1925 219 
Q 2388 219 2623 584 
Q 2859 950 2859 1663 
Q 2859 2375 2623 2739 
Q 2388 3103 1925 3103 
Q 1463 3103 1227 2739 
Q 991 2375 991 1663 
Q 991 950 1228 584 
Q 1466 219 1925 219 
z
M 1925 -91 
Q 1200 -91 759 389 
Q 319 869 319 1663 
Q 319 2456 758 2934 
Q 1197 3413 1925 3413 
Q 2653 3413 3092 2934 
Q 3531 2456 3531 1663 
Q 3531 869 3092 389 
Q 2653 -91 1925 -91 
z
" transform="scale(0.015625)"/>
      <path id="DejaVuSerif-72" d="M 3059 3328 
L 3059 2497 
L 2728 2497 
Q 2713 2744 2591 2866 
Q 2469 2988 2234 2988 
Q 1809 2988 1582 2694 
Q 1356 2400 1356 1850 
L 1356 331 
L 2022 331 
L 2022 0 
L 263 0 
L 263 331 
L 781 331 
L 781 2994 
L 231 2994 
L 231 3322 
L 1356 3322 
L 1356 2731 
Q 1525 3078 1790 3245 
Q 2056 3413 2438 3413 
Q 2578 3413 2733 3391 
Q 2888 3369 3059 3328 
z
" transform="scale(0.015625)"/>
      <path id="DejaVuSerif-74" d="M 691 2988 
L 184 2988 
L 184 3322 
L 691 3322 
L 691 4353 
L 1269 4353 
L 1269 3322 
L 2350 3322 
L 2350 2988 
L 1269 2988 
L 1269 878 
Q 1269 456 1350 337 
Q 1431 219 1650 219 
Q 1875 219 1978 351 
Q 2081 484 2088 781 
L 2522 781 
Q 2497 328 2275 118 
Q 2053 -91 1600 -91 
Q 1103 -91 897 129 
Q 691 350 691 878 
L 691 2988 
z
" transform="scale(0.015625)"/>
      <path id="DejaVuSerif-2c" d="M 231 -622 
Q 525 -406 662 -114 
Q 800 178 800 594 
L 800 709 
L 1416 709 
Q 1391 175 1164 -208 
Q 938 -591 481 -872 
L 231 -622 
z
" transform="scale(0.015625)"/>
      <path id="DejaVuSerif-20" transform="scale(0.015625)"/>
      <path id="DejaVuSerif-4e" d="M 313 0 
L 313 331 
L 941 331 
L 941 4331 
L 313 4331 
L 313 4666 
L 1509 4666 
L 4306 984 
L 4306 4331 
L 3681 4331 
L 3681 4666 
L 5319 4666 
L 5319 4331 
L 4691 4331 
L 4691 -91 
L 4313 -91 
L 1325 3841 
L 1325 331 
L 1953 331 
L 1953 0 
L 313 0 
z
" transform="scale(0.015625)"/>
      <path id="DejaVuSerif-3d" d="M 678 2894 
L 4684 2894 
L 4684 2394 
L 678 2394 
L 678 2894 
z
M 678 1619 
L 4684 1619 
L 4684 1119 
L 678 1119 
L 678 1619 
z
" transform="scale(0.015625)"/>
     </defs>
     <use xlink:href="#DejaVuSerif-41"/>
     <use xlink:href="#DejaVuSerif-64" transform="translate(72.216797 0)"/>
     <use xlink:href="#DejaVuSerif-61" transform="translate(136.230469 0)"/>
     <use xlink:href="#DejaVuSerif-6d" transform="translate(195.849609 0)"/>
     <use xlink:href="#DejaVuSerif-73" transform="translate(290.673828 0)"/>
     <use xlink:href="#DejaVuSerif-2d" transform="translate(341.992188 0)"/>
     <use xlink:href="#DejaVuSerif-42" transform="translate(375.78125 0)"/>
     <use xlink:href="#DejaVuSerif-61" transform="translate(449.267578 0)"/>
     <use xlink:href="#DejaVuSerif-73" transform="translate(508.886719 0)"/>
     <use xlink:href="#DejaVuSerif-68" transform="translate(560.205078 0)"/>
     <use xlink:href="#DejaVuSerif-66" transform="translate(624.609375 0)"/>
     <use xlink:href="#DejaVuSerif-6f" transform="translate(661.621094 0)"/>
     <use xlink:href="#DejaVuSerif-72" transform="translate(721.826172 0)"/>
     <use xlink:href="#DejaVuSerif-74" transform="translate(769.628906 0)"/>
     <use xlink:href="#DejaVuSerif-68" transform="translate(809.814453 0)"/>
     <use xlink:href="#DejaVuSerif-2c" transform="translate(874.21875 0)"/>
     <use xlink:href="#DejaVuSerif-20" transform="translate(906.005859 0)"/>
     <use xlink:href="#DejaVuSerif-4e" transform="translate(937.792969 0)"/>
     <use xlink:href="#DejaVuSerif-20" transform="translate(1025.292969 0)"/>
     <use xlink:href="#DejaVuSerif-3d" transform="translate(1057.080078 0)"/>
     <use xlink:href="#DejaVuSerif-35" transform="translate(1140.869141 0)"/>
     <use xlink:href="#DejaVuSerif-30" transform="translate(1204.492188 0)"/>
    </g>
   </g>
   <g id="legend_1">
    <g id="patch_7">
     <path d="M 341.04 69.98175 
L 433.68 69.98175 
Q 436.08 69.98175 436.08 67.58175 
L 436.08 32.54175 
Q 436.08 30.14175 433.68 30.14175 
L 341.04 30.14175 
Q 338.64 30.14175 338.64 32.54175 
L 338.64 67.58175 
Q 338.64 69.98175 341.04 69.98175 
z
" style="fill: #ffffff; opacity: 0.8; stroke: #cccccc; stroke-linejoin: miter"/>
    </g>
    <g id="line2d_30">
     <g>
      <use xlink:href="#m78121b24ed" x="355.44" y="40.366125" style="fill-opacity: 0; stroke: #1f77b4"/>
     </g>
    </g>
    <g id="text_17">
     <!-- $dt=7/N^2$ -->
     <g transform="translate(377.04 44.566125) scale(0.12 -0.12)">
      <defs>
       <path id="DejaVuSans-Oblique-64" d="M 2675 525 
Q 2444 222 2128 65 
Q 1813 -91 1428 -91 
Q 903 -91 598 267 
Q 294 625 294 1247 
Q 294 1766 478 2236 
Q 663 2706 1013 3078 
Q 1244 3325 1534 3454 
Q 1825 3584 2144 3584 
Q 2481 3584 2739 3421 
Q 2997 3259 3138 2956 
L 3513 4863 
L 4091 4863 
L 3144 0 
L 2566 0 
L 2675 525 
z
M 891 1350 
Q 891 897 1095 644 
Q 1300 391 1663 391 
Q 1931 391 2161 520 
Q 2391 650 2566 903 
Q 2750 1166 2856 1509 
Q 2963 1853 2963 2188 
Q 2963 2622 2758 2865 
Q 2553 3109 2194 3109 
Q 1922 3109 1687 2981 
Q 1453 2853 1288 2613 
Q 1106 2353 998 2009 
Q 891 1666 891 1350 
z
" transform="scale(0.015625)"/>
       <path id="DejaVuSans-3d" d="M 678 2906 
L 4684 2906 
L 4684 2381 
L 678 2381 
L 678 2906 
z
M 678 1631 
L 4684 1631 
L 4684 1100 
L 678 1100 
L 678 1631 
z
" transform="scale(0.015625)"/>
       <path id="DejaVuSans-37" d="M 525 4666 
L 3525 4666 
L 3525 4397 
L 1831 0 
L 1172 0 
L 2766 4134 
L 525 4134 
L 525 4666 
z
" transform="scale(0.015625)"/>
       <path id="DejaVuSans-2f" d="M 1625 4666 
L 2156 4666 
L 531 -594 
L 0 -594 
L 1625 4666 
z
" transform="scale(0.015625)"/>
       <path id="DejaVuSans-Oblique-4e" d="M 1081 4666 
L 1931 4666 
L 3219 666 
L 4000 4666 
L 4616 4666 
L 3706 0 
L 2853 0 
L 1569 4025 
L 788 0 
L 172 0 
L 1081 4666 
z
" transform="scale(0.015625)"/>
       <path id="DejaVuSans-32" d="M 1228 531 
L 3431 531 
L 3431 0 
L 469 0 
L 469 531 
Q 828 903 1448 1529 
Q 2069 2156 2228 2338 
Q 2531 2678 2651 2914 
Q 2772 3150 2772 3378 
Q 2772 3750 2511 3984 
Q 2250 4219 1831 4219 
Q 1534 4219 1204 4116 
Q 875 4013 500 3803 
L 500 4441 
Q 881 4594 1212 4672 
Q 1544 4750 1819 4750 
Q 2544 4750 2975 4387 
Q 3406 4025 3406 3419 
Q 3406 3131 3298 2873 
Q 3191 2616 2906 2266 
Q 2828 2175 2409 1742 
Q 1991 1309 1228 531 
z
" transform="scale(0.015625)"/>
      </defs>
      <use xlink:href="#DejaVuSans-Oblique-64" transform="translate(0 0.765625)"/>
      <use xlink:href="#DejaVuSans-Oblique-74" transform="translate(63.476562 0.765625)"/>
      <use xlink:href="#DejaVuSans-3d" transform="translate(122.167969 0.765625)"/>
      <use xlink:href="#DejaVuSans-37" transform="translate(225.439453 0.765625)"/>
      <use xlink:href="#DejaVuSans-2f" transform="translate(289.0625 0.765625)"/>
      <use xlink:href="#DejaVuSans-Oblique-4e" transform="translate(322.753906 0.765625)"/>
      <use xlink:href="#DejaVuSans-32" transform="translate(404.575365 39.046875) scale(0.7)"/>
     </g>
    </g>
    <g id="line2d_31">
     <g>
      <use xlink:href="#m01ae4092a1" x="355.44" y="58.486125" style="fill-opacity: 0; stroke: #ff7f0e; stroke-linejoin: bevel"/>
     </g>
    </g>
    <g id="text_18">
     <!-- $dt=8/N^2$ -->
     <g transform="translate(377.04 62.686125) scale(0.12 -0.12)">
      <defs>
       <path id="DejaVuSans-38" d="M 2034 2216 
Q 1584 2216 1326 1975 
Q 1069 1734 1069 1313 
Q 1069 891 1326 650 
Q 1584 409 2034 409 
Q 2484 409 2743 651 
Q 3003 894 3003 1313 
Q 3003 1734 2745 1975 
Q 2488 2216 2034 2216 
z
M 1403 2484 
Q 997 2584 770 2862 
Q 544 3141 544 3541 
Q 544 4100 942 4425 
Q 1341 4750 2034 4750 
Q 2731 4750 3128 4425 
Q 3525 4100 3525 3541 
Q 3525 3141 3298 2862 
Q 3072 2584 2669 2484 
Q 3125 2378 3379 2068 
Q 3634 1759 3634 1313 
Q 3634 634 3220 271 
Q 2806 -91 2034 -91 
Q 1263 -91 848 271 
Q 434 634 434 1313 
Q 434 1759 690 2068 
Q 947 2378 1403 2484 
z
M 1172 3481 
Q 1172 3119 1398 2916 
Q 1625 2713 2034 2713 
Q 2441 2713 2670 2916 
Q 2900 3119 2900 3481 
Q 2900 3844 2670 4047 
Q 2441 4250 2034 4250 
Q 1625 4250 1398 4047 
Q 1172 3844 1172 3481 
z
" transform="scale(0.015625)"/>
      </defs>
      <use xlink:href="#DejaVuSans-Oblique-64" transform="translate(0 0.765625)"/>
      <use xlink:href="#DejaVuSans-Oblique-74" transform="translate(63.476562 0.765625)"/>
      <use xlink:href="#DejaVuSans-3d" transform="translate(122.167969 0.765625)"/>
      <use xlink:href="#DejaVuSans-38" transform="translate(225.439453 0.765625)"/>
      <use xlink:href="#DejaVuSans-2f" transform="translate(289.0625 0.765625)"/>
      <use xlink:href="#DejaVuSans-Oblique-4e" transform="translate(322.753906 0.765625)"/>
      <use xlink:href="#DejaVuSans-32" transform="translate(404.575365 39.046875) scale(0.7)"/>
     </g>
    </g>
   </g>
  </g>
 </g>
 <defs>
  <clipPath id="paa4a243aca">
   <rect x="58.979375" y="24.14175" width="383.100625" height="268.51075"/>
  </clipPath>
 </defs>
</svg>