<?xml version="1.0" encoding="utf-8" standalone="no"?>
<!DOCTYPE svg PUBLIC "-//W3C//DTD SVG 1.1//EN"
  "http://www.w3.org/Graphics/SVG/1.1/DTD/svg11.dtd">
<svg xmlns:xlink="http://www.w3.org/1999/xlink" width="509.578125pt" height="478.397344pt" viewBox="0 0 509.578125 478.397344" xmlns="http://www.w3.org/2000/svg" version="1.1">
 <metadata>
  <rdf:RDF xmlns:dc="http://purl.org/dc/elements/1.1/" xmlns:cc="http://creativecommons.org/ns#" xmlns:rdf="http://www.w3.org/1999/02/22-rdf-syntax-ns#">
   <cc:Work>
    <dc:type rdf:resource="http://purl.org/dc/dcmitype/StillImage"/>
    <dc:date>2025-03-24T09:58:43.164061</dc:date>
    <dc:format>image/svg+xml</dc:format>
    <dc:creator>
     <cc:Agent>
      <dc:title>Matplotlib v3.10.1, https://matplotlib.org/</dc:title>
     </cc:Agent>
    </dc:creator>
   </cc:Work>
  </rdf:RDF>
 </metadata>
 <defs>
  <style type="text/css">*{stroke-linejoin: round; stroke-linecap: butt}</style>
 </defs>
 <g id="figure_1">
  <g id="patch_1">
   <path d="M 0 478.397344 
L 509.578125 478.397344 
L 509.578125 0 
L 0 0 
z
" style="fill: #ffffff"/>
  </g>
  <g id="axes_1">
   <g id="patch_2">
    <path d="M 44.845313 454.519219 
L 491.245312 454.519219 
L 491.245312 10.999219 
L 44.845313 10.999219 
z
" style="fill: #ffffff"/>
   </g>
   <g id="matplotlib.axis_1">
    <g id="xtick_1">
     <g id="line2d_1">
      <defs>
       <path id="m614f1361a3" d="M 0 0 
L 0 3.5 
" style="stroke: #000000; stroke-width: 0.8"/>
      </defs>
      <g>
       <use xlink:href="#m614f1361a3" x="44.845313" y="454.519219" style="stroke: #000000; stroke-width: 0.8"/>
      </g>
     </g>
     <g id="text_1">
      <!-- −1.00 -->
      <g transform="translate(29.522656 469.117656) scale(0.1 -0.1)">
       <defs>
        <path id="DejaVuSans-2212" d="M 678 2272 
L 4684 2272 
L 4684 1741 
L 678 1741 
L 678 2272 
z
" transform="scale(0.015625)"/>
        <path id="DejaVuSans-31" d="M 794 531 
L 1825 531 
L 1825 4091 
L 703 3866 
L 703 4441 
L 1819 4666 
L 2450 4666 
L 2450 531 
L 3481 531 
L 3481 0 
L 794 0 
L 794 531 
z
" transform="scale(0.015625)"/>
        <path id="DejaVuSans-2e" d="M 684 794 
L 1344 794 
L 1344 0 
L 684 0 
L 684 794 
z
" transform="scale(0.015625)"/>
        <path id="DejaVuSans-30" d="M 2034 4250 
Q 1547 4250 1301 3770 
Q 1056 3291 1056 2328 
Q 1056 1369 1301 889 
Q 1547 409 2034 409 
Q 2525 409 2770 889 
Q 3016 1369 3016 2328 
Q 3016 3291 2770 3770 
Q 2525 4250 2034 4250 
z
M 2034 4750 
Q 2819 4750 3233 4129 
Q 3647 3509 3647 2328 
Q 3647 1150 3233 529 
Q 2819 -91 2034 -91 
Q 1250 -91 836 529 
Q 422 1150 422 2328 
Q 422 3509 836 4129 
Q 1250 4750 2034 4750 
z
" transform="scale(0.015625)"/>
       </defs>
       <use xlink:href="#DejaVuSans-2212"/>
       <use xlink:href="#DejaVuSans-31" transform="translate(83.789062 0)"/>
       <use xlink:href="#DejaVuSans-2e" transform="translate(147.412109 0)"/>
       <use xlink:href="#DejaVuSans-30" transform="translate(179.199219 0)"/>
       <use xlink:href="#DejaVuSans-30" transform="translate(242.822266 0)"/>
      </g>
     </g>
    </g>
    <g id="xtick_2">
     <g id="line2d_2">
      <g>
       <use xlink:href="#m614f1361a3" x="100.645313" y="454.519219" style="stroke: #000000; stroke-width: 0.8"/>
      </g>
     </g>
     <g id="text_2">
      <!-- −0.75 -->
      <g transform="translate(85.322656 469.117656) scale(0.1 -0.1)">
       <defs>
        <path id="DejaVuSans-37" d="M 525 4666 
L 3525 4666 
L 3525 4397 
L 1831 0 
L 1172 0 
L 2766 4134 
L 525 4134 
L 525 4666 
z
" transform="scale(0.015625)"/>
        <path id="DejaVuSans-35" d="M 691 4666 
L 3169 4666 
L 3169 4134 
L 1269 4134 
L 1269 2991 
Q 1406 3038 1543 3061 
Q 1681 3084 1819 3084 
Q 2600 3084 3056 2656 
Q 3513 2228 3513 1497 
Q 3513 744 3044 326 
Q 2575 -91 1722 -91 
Q 1428 -91 1123 -41 
Q 819 9 494 109 
L 494 744 
Q 775 591 1075 516 
Q 1375 441 1709 441 
Q 2250 441 2565 725 
Q 2881 1009 2881 1497 
Q 2881 1984 2565 2268 
Q 2250 2553 1709 2553 
Q 1456 2553 1204 2497 
Q 953 2441 691 2322 
L 691 4666 
z
" transform="scale(0.015625)"/>
       </defs>
       <use xlink:href="#DejaVuSans-2212"/>
       <use xlink:href="#DejaVuSans-30" transform="translate(83.789062 0)"/>
       <use xlink:href="#DejaVuSans-2e" transform="translate(147.412109 0)"/>
       <use xlink:href="#DejaVuSans-37" transform="translate(179.199219 0)"/>
       <use xlink:href="#DejaVuSans-35" transform="translate(242.822266 0)"/>
      </g>
     </g>
    </g>
    <g id="xtick_3">
     <g id="line2d_3">
      <g>
       <use xlink:href="#m614f1361a3" x="156.445313" y="454.519219" style="stroke: #000000; stroke-width: 0.8"/>
      </g>
     </g>
     <g id="text_3">
      <!-- −0.50 -->
      <g transform="translate(141.122656 469.117656) scale(0.1 -0.1)">
       <use xlink:href="#DejaVuSans-2212"/>
       <use xlink:href="#DejaVuSans-30" transform="translate(83.789062 0)"/>
       <use xlink:href="#DejaVuSans-2e" transform="translate(147.412109 0)"/>
       <use xlink:href="#DejaVuSans-35" transform="translate(179.199219 0)"/>
       <use xlink:href="#DejaVuSans-30" transform="translate(242.822266 0)"/>
      </g>
     </g>
    </g>
    <g id="xtick_4">
     <g id="line2d_4">
      <g>
       <use xlink:href="#m614f1361a3" x="212.245313" y="454.519219" style="stroke: #000000; stroke-width: 0.8"/>
      </g>
     </g>
     <g id="text_4">
      <!-- −0.25 -->
      <g transform="translate(196.922656 469.117656) scale(0.1 -0.1)">
       <defs>
        <path id="DejaVuSans-32" d="M 1228 531 
L 3431 531 
L 3431 0 
L 469 0 
L 469 531 
Q 828 903 1448 1529 
Q 2069 2156 2228 2338 
Q 2531 2678 2651 2914 
Q 2772 3150 2772 3378 
Q 2772 3750 2511 3984 
Q 2250 4219 1831 4219 
Q 1534 4219 1204 4116 
Q 875 4013 500 3803 
L 500 4441 
Q 881 4594 1212 4672 
Q 1544 4750 1819 4750 
Q 2544 4750 2975 4387 
Q 3406 4025 3406 3419 
Q 3406 3131 3298 2873 
Q 3191 2616 2906 2266 
Q 2828 2175 2409 1742 
Q 1991 1309 1228 531 
z
" transform="scale(0.015625)"/>
       </defs>
       <use xlink:href="#DejaVuSans-2212"/>
       <use xlink:href="#DejaVuSans-30" transform="translate(83.789062 0)"/>
       <use xlink:href="#DejaVuSans-2e" transform="translate(147.412109 0)"/>
       <use xlink:href="#DejaVuSans-32" transform="translate(179.199219 0)"/>
       <use xlink:href="#DejaVuSans-35" transform="translate(242.822266 0)"/>
      </g>
     </g>
    </g>
    <g id="xtick_5">
     <g id="line2d_5">
      <g>
       <use xlink:href="#m614f1361a3" x="268.045313" y="454.519219" style="stroke: #000000; stroke-width: 0.8"/>
      </g>
     </g>
     <g id="text_5">
      <!-- 0.00 -->
      <g transform="translate(256.9125 469.117656) scale(0.1 -0.1)">
       <use xlink:href="#DejaVuSans-30"/>
       <use xlink:href="#DejaVuSans-2e" transform="translate(63.623047 0)"/>
       <use xlink:href="#DejaVuSans-30" transform="translate(95.410156 0)"/>
       <use xlink:href="#DejaVuSans-30" transform="translate(159.033203 0)"/>
      </g>
     </g>
    </g>
    <g id="xtick_6">
     <g id="line2d_6">
      <g>
       <use xlink:href="#m614f1361a3" x="323.845313" y="454.519219" style="stroke: #000000; stroke-width: 0.8"/>
      </g>
     </g>
     <g id="text_6">
      <!-- 0.25 -->
      <g transform="translate(312.7125 469.117656) scale(0.1 -0.1)">
       <use xlink:href="#DejaVuSans-30"/>
       <use xlink:href="#DejaVuSans-2e" transform="translate(63.623047 0)"/>
       <use xlink:href="#DejaVuSans-32" transform="translate(95.410156 0)"/>
       <use xlink:href="#DejaVuSans-35" transform="translate(159.033203 0)"/>
      </g>
     </g>
    </g>
    <g id="xtick_7">
     <g id="line2d_7">
      <g>
       <use xlink:href="#m614f1361a3" x="379.645313" y="454.519219" style="stroke: #000000; stroke-width: 0.8"/>
      </g>
     </g>
     <g id="text_7">
      <!-- 0.50 -->
      <g transform="translate(368.5125 469.117656) scale(0.1 -0.1)">
       <use xlink:href="#DejaVuSans-30"/>
       <use xlink:href="#DejaVuSans-2e" transform="translate(63.623047 0)"/>
       <use xlink:href="#DejaVuSans-35" transform="translate(95.410156 0)"/>
       <use xlink:href="#DejaVuSans-30" transform="translate(159.033203 0)"/>
      </g>
     </g>
    </g>
    <g id="xtick_8">
     <g id="line2d_8">
      <g>
       <use xlink:href="#m614f1361a3" x="435.445312" y="454.519219" style="stroke: #000000; stroke-width: 0.8"/>
      </g>
     </g>
     <g id="text_8">
      <!-- 0.75 -->
      <g transform="translate(424.3125 469.117656) scale(0.1 -0.1)">
       <use xlink:href="#DejaVuSans-30"/>
       <use xlink:href="#DejaVuSans-2e" transform="translate(63.623047 0)"/>
       <use xlink:href="#DejaVuSans-37" transform="translate(95.410156 0)"/>
       <use xlink:href="#DejaVuSans-35" transform="translate(159.033203 0)"/>
      </g>
     </g>
    </g>
    <g id="xtick_9">
     <g id="line2d_9">
      <g>
       <use xlink:href="#m614f1361a3" x="491.245313" y="454.519219" style="stroke: #000000; stroke-width: 0.8"/>
      </g>
     </g>
     <g id="text_9">
      <!-- 1.00 -->
      <g transform="translate(480.1125 469.117656) scale(0.1 -0.1)">
       <use xlink:href="#DejaVuSans-31"/>
       <use xlink:href="#DejaVuSans-2e" transform="translate(63.623047 0)"/>
       <use xlink:href="#DejaVuSans-30" transform="translate(95.410156 0)"/>
       <use xlink:href="#DejaVuSans-30" transform="translate(159.033203 0)"/>
      </g>
     </g>
    </g>
   </g>
   <g id="matplotlib.axis_2">
    <g id="ytick_1">
     <g id="line2d_10">
      <defs>
       <path id="m0070b44022" d="M 0 0 
L -3.5 0 
" style="stroke: #000000; stroke-width: 0.8"/>
      </defs>
      <g>
       <use xlink:href="#m0070b44022" x="44.845313" y="454.519219" style="stroke: #000000; stroke-width: 0.8"/>
      </g>
     </g>
     <g id="text_10">
      <!-- −1.00 -->
      <g transform="translate(7.2 458.318438) scale(0.1 -0.1)">
       <use xlink:href="#DejaVuSans-2212"/>
       <use xlink:href="#DejaVuSans-31" transform="translate(83.789062 0)"/>
       <use xlink:href="#DejaVuSans-2e" transform="translate(147.412109 0)"/>
       <use xlink:href="#DejaVuSans-30" transform="translate(179.199219 0)"/>
       <use xlink:href="#DejaVuSans-30" transform="translate(242.822266 0)"/>
      </g>
     </g>
    </g>
    <g id="ytick_2">
     <g id="line2d_11">
      <g>
       <use xlink:href="#m0070b44022" x="44.845313" y="399.079219" style="stroke: #000000; stroke-width: 0.8"/>
      </g>
     </g>
     <g id="text_11">
      <!-- −0.75 -->
      <g transform="translate(7.2 402.878438) scale(0.1 -0.1)">
       <use xlink:href="#DejaVuSans-2212"/>
       <use xlink:href="#DejaVuSans-30" transform="translate(83.789062 0)"/>
       <use xlink:href="#DejaVuSans-2e" transform="translate(147.412109 0)"/>
       <use xlink:href="#DejaVuSans-37" transform="translate(179.199219 0)"/>
       <use xlink:href="#DejaVuSans-35" transform="translate(242.822266 0)"/>
      </g>
     </g>
    </g>
    <g id="ytick_3">
     <g id="line2d_12">
      <g>
       <use xlink:href="#m0070b44022" x="44.845313" y="343.639219" style="stroke: #000000; stroke-width: 0.8"/>
      </g>
     </g>
     <g id="text_12">
      <!-- −0.50 -->
      <g transform="translate(7.2 347.438437) scale(0.1 -0.1)">
       <use xlink:href="#DejaVuSans-2212"/>
       <use xlink:href="#DejaVuSans-30" transform="translate(83.789062 0)"/>
       <use xlink:href="#DejaVuSans-2e" transform="translate(147.412109 0)"/>
       <use xlink:href="#DejaVuSans-35" transform="translate(179.199219 0)"/>
       <use xlink:href="#DejaVuSans-30" transform="translate(242.822266 0)"/>
      </g>
     </g>
    </g>
    <g id="ytick_4">
     <g id="line2d_13">
      <g>
       <use xlink:href="#m0070b44022" x="44.845313" y="288.199219" style="stroke: #000000; stroke-width: 0.8"/>
      </g>
     </g>
     <g id="text_13">
      <!-- −0.25 -->
      <g transform="translate(7.2 291.998438) scale(0.1 -0.1)">
       <use xlink:href="#DejaVuSans-2212"/>
       <use xlink:href="#DejaVuSans-30" transform="translate(83.789062 0)"/>
       <use xlink:href="#DejaVuSans-2e" transform="translate(147.412109 0)"/>
       <use xlink:href="#DejaVuSans-32" transform="translate(179.199219 0)"/>
       <use xlink:href="#DejaVuSans-35" transform="translate(242.822266 0)"/>
      </g>
     </g>
    </g>
    <g id="ytick_5">
     <g id="line2d_14">
      <g>
       <use xlink:href="#m0070b44022" x="44.845313" y="232.759219" style="stroke: #000000; stroke-width: 0.8"/>
      </g>
     </g>
     <g id="text_14">
      <!-- 0.00 -->
      <g transform="translate(15.579688 236.558437) scale(0.1 -0.1)">
       <use xlink:href="#DejaVuSans-30"/>
       <use xlink:href="#DejaVuSans-2e" transform="translate(63.623047 0)"/>
       <use xlink:href="#DejaVuSans-30" transform="translate(95.410156 0)"/>
       <use xlink:href="#DejaVuSans-30" transform="translate(159.033203 0)"/>
      </g>
     </g>
    </g>
    <g id="ytick_6">
     <g id="line2d_15">
      <g>
       <use xlink:href="#m0070b44022" x="44.845313" y="177.319219" style="stroke: #000000; stroke-width: 0.8"/>
      </g>
     </g>
     <g id="text_15">
      <!-- 0.25 -->
      <g transform="translate(15.579688 181.118438) scale(0.1 -0.1)">
       <use xlink:href="#DejaVuSans-30"/>
       <use xlink:href="#DejaVuSans-2e" transform="translate(63.623047 0)"/>
       <use xlink:href="#DejaVuSans-32" transform="translate(95.410156 0)"/>
       <use xlink:href="#DejaVuSans-35" transform="translate(159.033203 0)"/>
      </g>
     </g>
    </g>
    <g id="ytick_7">
     <g id="line2d_16">
      <g>
       <use xlink:href="#m0070b44022" x="44.845313" y="121.879219" style="stroke: #000000; stroke-width: 0.8"/>
      </g>
     </g>
     <g id="text_16">
      <!-- 0.50 -->
      <g transform="translate(15.579688 125.678438) scale(0.1 -0.1)">
       <use xlink:href="#DejaVuSans-30"/>
       <use xlink:href="#DejaVuSans-2e" transform="translate(63.623047 0)"/>
       <use xlink:href="#DejaVuSans-35" transform="translate(95.410156 0)"/>
       <use xlink:href="#DejaVuSans-30" transform="translate(159.033203 0)"/>
      </g>
     </g>
    </g>
    <g id="ytick_8">
     <g id="line2d_17">
      <g>
       <use xlink:href="#m0070b44022" x="44.845313" y="66.439219" style="stroke: #000000; stroke-width: 0.8"/>
      </g>
     </g>
     <g id="text_17">
      <!-- 0.75 -->
      <g transform="translate(15.579688 70.238438) scale(0.1 -0.1)">
       <use xlink:href="#DejaVuSans-30"/>
       <use xlink:href="#DejaVuSans-2e" transform="translate(63.623047 0)"/>
       <use xlink:href="#DejaVuSans-37" transform="translate(95.410156 0)"/>
       <use xlink:href="#DejaVuSans-35" transform="translate(159.033203 0)"/>
      </g>
     </g>
    </g>
    <g id="ytick_9">
     <g id="line2d_18">
      <g>
       <use xlink:href="#m0070b44022" x="44.845313" y="10.999219" style="stroke: #000000; stroke-width: 0.8"/>
      </g>
     </g>
     <g id="text_18">
      <!-- 1.00 -->
      <g transform="translate(15.579688 14.798438) scale(0.1 -0.1)">
       <use xlink:href="#DejaVuSans-31"/>
       <use xlink:href="#DejaVuSans-2e" transform="translate(63.623047 0)"/>
       <use xlink:href="#DejaVuSans-30" transform="translate(95.410156 0)"/>
       <use xlink:href="#DejaVuSans-30" transform="translate(159.033203 0)"/>
      </g>
     </g>
    </g>
   </g>
   <g id="QuadContourSet_1">
    <path clip-path="url(#p8a1a91d466)" style="fill: none; stroke: #440154; stroke-width: 1.5"/>
    <path d="M 89.714693 237.284933 
L 90.396333 238.027306 
L 99.506537 243.318354 
L 108.616741 244.593131 
L 117.726945 242.531197 
L 126.731975 237.284933 
L 126.837149 236.944959 
L 128.572093 228.233504 
L 126.837149 225.659826 
L 120.574727 219.182076 
L 117.726945 217.79459 
L 108.616741 215.61318 
L 99.506537 216.139087 
L 92.635367 219.182076 
L 90.396333 221.804043 
L 87.58217 228.233504 
L 89.714693 237.284933 
z
M 294.113342 327.799219 
L 299.931027 329.392382 
L 309.041231 330.923467 
L 318.151435 329.687248 
L 319.872133 327.799219 
L 318.151435 327.001267 
L 309.041231 324.359609 
L 299.931027 323.663673 
L 294.113342 327.799219 
" clip-path="url(#p8a1a91d466)" style="fill: none; stroke: #482878; stroke-width: 1.5"/>
    <path d="M 70.360977 237.284933 
L 72.175925 242.086659 
L 74.403192 246.336362 
L 81.286129 252.879473 
L 86.012152 255.38779 
L 90.396333 256.933372 
L 99.506537 258.410086 
L 108.616741 258.552984 
L 117.726945 257.599226 
L 126.837149 255.601881 
L 127.496056 255.38779 
L 135.947353 251.50946 
L 143.715273 246.336362 
L 145.057557 244.631986 
L 149.73527 237.284933 
L 150.391839 228.233504 
L 146.254298 219.182076 
L 145.057557 217.9614 
L 135.947945 210.130647 
L 135.947353 210.130317 
L 126.837149 205.965933 
L 117.726945 202.936714 
L 108.756113 201.079219 
L 108.616741 201.055161 
L 99.506537 200.608944 
L 94.715267 201.079219 
L 90.396333 201.665896 
L 81.286129 205.490483 
L 75.835264 210.130647 
L 72.175925 216.112117 
L 70.881967 219.182076 
L 69.469556 228.233504 
L 70.360977 237.284933 
z
M 102.824261 418.313504 
L 108.616741 423.680064 
L 114.520037 427.364933 
L 117.726945 428.404642 
L 126.837149 430.254008 
L 135.947353 430.994973 
L 145.057557 430.663843 
L 154.167761 429.10688 
L 159.203942 427.364933 
L 163.277966 425.150347 
L 170.824574 418.313504 
L 172.38817 415.346478 
L 174.750548 409.262076 
L 175.212883 400.210647 
L 172.38817 391.97278 
L 171.873824 391.159219 
L 163.277966 386.153649 
L 154.167761 385.021621 
L 145.057557 385.904957 
L 135.947353 387.866531 
L 126.837149 390.52829 
L 125.074136 391.159219 
L 117.726945 394.969261 
L 108.789058 400.210647 
L 108.616741 400.421843 
L 102.024407 409.262076 
L 102.824261 418.313504 
z
M 102.111749 56.256362 
L 108.616741 63.84645 
L 110.079651 65.30779 
L 117.726945 68.942355 
L 126.837149 72.439014 
L 133.283444 74.359219 
L 135.947353 74.910699 
L 145.057557 76.18047 
L 154.167761 76.697495 
L 163.277966 76.12321 
L 170.511429 74.359219 
L 172.38817 73.516637 
L 181.041829 65.30779 
L 181.498374 63.388425 
L 182.696763 56.256362 
L 181.498374 52.115623 
L 179.631327 47.204933 
L 172.38817 40.541152 
L 168.323941 38.153504 
L 163.277966 36.406788 
L 154.167761 34.608764 
L 145.057557 33.90026 
L 135.947353 34.083914 
L 126.837149 35.12929 
L 117.726945 37.124623 
L 114.567181 38.153504 
L 108.616741 41.948421 
L 102.816335 47.204933 
L 102.111749 56.256362 
z
M 242.668167 327.799219 
L 245.269802 330.320055 
L 254.380006 336.590687 
L 254.850422 336.850647 
L 263.49021 339.301615 
L 272.600415 341.608178 
L 281.710619 343.918082 
L 289.099059 345.902076 
L 290.820823 346.236773 
L 299.931027 348.093401 
L 309.041231 350.09929 
L 318.151435 352.228189 
L 327.261639 354.386478 
L 330.239913 354.953504 
L 336.371843 355.975133 
L 345.482047 356.882745 
L 354.592251 356.605055 
L 360.404855 354.953504 
L 363.702455 352.343273 
L 367.149178 345.902076 
L 365.238486 336.850647 
L 363.702455 334.691342 
L 358.730939 327.799219 
L 354.592251 324.307275 
L 347.533706 318.74779 
L 345.482047 317.635918 
L 336.371843 313.301801 
L 327.950594 309.696362 
L 327.261639 309.470056 
L 318.151435 306.987733 
L 309.041231 304.945262 
L 299.931027 303.346135 
L 290.820823 302.274798 
L 281.710619 301.866765 
L 272.600415 302.318955 
L 263.49021 303.910466 
L 254.380006 306.963109 
L 249.062164 309.696362 
L 245.269802 313.94 
L 241.838385 318.74779 
L 242.668167 327.799219 
z
M 244.128839 155.822076 
L 245.269802 159.993798 
L 246.937282 164.873504 
L 254.380006 172.511267 
L 256.399544 173.924933 
L 263.49021 176.781264 
L 272.600415 178.798012 
L 281.710619 179.505094 
L 290.820823 179.226325 
L 299.931027 178.126576 
L 309.041231 176.28388 
L 317.507794 173.924933 
L 318.151435 173.480213 
L 326.791601 164.873504 
L 323.414108 155.822076 
L 318.151435 151.347221 
L 312.677438 146.770647 
L 309.041231 145.007315 
L 299.931027 141.302589 
L 290.820823 138.411737 
L 287.502287 137.719219 
L 281.710619 136.823852 
L 272.600415 136.270798 
L 263.49021 136.825178 
L 259.469917 137.719219 
L 254.380006 139.712928 
L 246.099492 146.770647 
L 245.269802 149.820717 
L 244.128839 155.822076 
M 399.57224 192.02779 
L 400.143272 196.462101 
L 400.646933 201.079219 
L 407.318574 210.130647 
L 409.253476 211.87018 
L 418.290145 219.182076 
L 418.36368 219.22957 
L 427.473884 223.240287 
L 436.584088 225.014377 
L 445.694292 223.389029 
L 451.425026 219.182076 
L 454.804496 213.064771 
L 455.757189 210.130647 
L 455.098164 201.079219 
L 454.804496 200.481416 
L 448.777692 192.02779 
L 445.694292 189.830287 
L 436.584088 185.983619 
L 427.473884 184.140207 
L 418.36368 183.986032 
L 409.253476 185.796706 
L 400.143272 191.379048 
L 399.57224 192.02779 
" clip-path="url(#p8a1a91d466)" style="fill: none; stroke: #3e4989; stroke-width: 1.5"/>
    <path d="M 62.082991 255.38779 
L 63.065721 256.838397 
L 71.914618 264.439219 
L 72.175925 264.57462 
L 81.286129 267.486141 
L 90.396333 268.76537 
L 99.506537 269.113513 
L 108.616741 268.818597 
L 117.726945 267.97251 
L 126.837149 266.586401 
L 135.947353 264.582165 
L 136.462693 264.439219 
L 145.057557 261.373992 
L 154.167761 256.795332 
L 156.396795 255.38779 
L 163.277966 248.362689 
L 164.915721 246.336362 
L 168.6041 237.284933 
L 168.942505 228.233504 
L 165.972968 219.182076 
L 163.277966 215.625286 
L 158.662091 210.130647 
L 154.167761 206.958773 
L 145.057557 201.495915 
L 144.259257 201.079219 
L 135.947353 197.783247 
L 126.837149 194.82586 
L 117.726945 192.455855 
L 115.497157 192.02779 
L 108.616741 190.779141 
L 99.506537 189.761509 
L 90.396333 189.497599 
L 81.286129 190.325516 
L 75.015057 192.02779 
L 72.175925 193.101316 
L 63.065721 200.681026 
L 62.787737 201.079219 
L 58.883688 210.130647 
L 57.103703 219.182076 
L 56.505744 228.233504 
L 56.907546 237.284933 
L 58.502001 246.336362 
L 62.082991 255.38779 
z
M 76.68348 427.364933 
L 81.286129 431.742215 
L 88.285349 436.416362 
L 90.396333 437.259057 
L 99.506537 439.982248 
L 108.616741 441.763554 
L 117.726945 442.909686 
L 126.837149 443.573062 
L 135.947353 443.81535 
L 145.057557 443.635017 
L 154.167761 442.953539 
L 163.277966 441.543027 
L 172.38817 438.893975 
L 177.277115 436.416362 
L 181.498374 433.103082 
L 185.938872 427.364933 
L 189.765998 418.313504 
L 190.608578 414.918541 
L 191.771028 409.262076 
L 192.860163 400.210647 
L 193.319899 391.159219 
L 192.929187 382.10779 
L 190.608578 373.418499 
L 190.391664 373.056362 
L 181.498374 367.911291 
L 172.38817 367.705944 
L 163.277966 368.810193 
L 154.167761 370.516008 
L 145.057557 372.597912 
L 143.335931 373.056362 
L 135.947353 375.089761 
L 126.837149 377.750498 
L 117.726945 380.512984 
L 112.591261 382.10779 
L 108.616741 383.6429 
L 99.506537 387.248712 
L 90.50573 391.159219 
L 90.396333 391.232781 
L 81.286129 397.794205 
L 78.432861 400.210647 
L 73.534102 409.262076 
L 73.027682 418.313504 
L 76.68348 427.364933 
z
M 76.65883 65.30779 
L 81.286129 69.463803 
L 88.280637 74.359219 
L 90.396333 75.258514 
L 99.506537 78.604379 
L 108.616741 81.350528 
L 116.374167 83.410647 
L 117.726945 83.696344 
L 126.837149 85.494754 
L 135.947353 87.100946 
L 145.057557 88.51557 
L 154.167761 89.687855 
L 163.277966 90.505173 
L 172.38817 90.767847 
L 181.498374 90.013035 
L 190.608578 86.98881 
L 195.0913 83.410647 
L 199.718782 75.808018 
L 200.268418 74.359219 
L 202.004912 65.30779 
L 202.260453 56.256362 
L 201.07593 47.204933 
L 199.718782 43.116026 
L 197.568921 38.153504 
L 190.608578 30.591122 
L 188.425421 29.102076 
L 181.498374 26.091389 
L 172.38817 23.778683 
L 163.277966 22.439211 
L 154.167761 21.701495 
L 145.057557 21.396963 
L 135.947353 21.441 
L 126.837149 21.814962 
L 117.726945 22.545611 
L 108.616741 23.708595 
L 99.506537 25.458891 
L 90.396333 28.096419 
L 87.820757 29.102076 
L 81.286129 33.313357 
L 76.059386 38.153504 
L 72.207333 47.204933 
L 72.377382 56.256362 
L 76.65883 65.30779 
M 213.83283 336.850647 
L 217.93919 344.168009 
L 220.240287 345.902076 
L 227.049394 347.819502 
L 236.159598 348.989287 
L 245.269802 349.772613 
L 254.380006 350.54451 
L 263.49021 351.465458 
L 272.600415 352.668644 
L 281.710619 354.217689 
L 285.251003 354.953504 
L 290.820823 355.944078 
L 299.931027 357.870479 
L 309.041231 360.139657 
L 318.151435 362.74661 
L 322.324583 364.004933 
L 327.261639 365.482821 
L 336.371843 368.221116 
L 345.482047 371.021777 
L 352.653569 373.056362 
L 354.592251 373.663702 
L 363.702455 375.6326 
L 372.812659 376.644145 
L 381.922864 375.789072 
L 387.756818 373.056362 
L 391.033068 369.655015 
L 393.838372 364.004933 
L 394.212059 354.953504 
L 391.9533 345.902076 
L 391.033068 344.170327 
L 387.399575 336.850647 
L 381.922864 329.519112 
L 380.640703 327.799219 
L 372.812659 320.314598 
L 371.080279 318.74779 
L 363.702455 313.77967 
L 356.860529 309.696362 
L 354.592251 308.602095 
L 345.482047 304.727111 
L 336.371843 301.365981 
L 334.185737 300.644933 
L 327.261639 298.65148 
L 318.151435 296.379197 
L 309.041231 294.404657 
L 299.931027 292.712498 
L 292.441567 291.593504 
L 290.820823 291.363985 
L 281.710619 290.480217 
L 272.600415 290.032531 
L 263.49021 290.13982 
L 254.380006 290.952127 
L 250.740642 291.593504 
L 245.269802 292.827362 
L 236.159598 296.228072 
L 228.661307 300.644933 
L 227.049394 302.064605 
L 220.348009 309.696362 
L 217.93919 314.406282 
L 215.940529 318.74779 
L 213.841758 327.799219 
L 213.83283 336.850647 
M 225.720477 164.873504 
L 227.049394 168.25463 
L 229.759466 173.924933 
L 236.159598 180.904671 
L 238.848687 182.976362 
L 245.269802 186.316435 
L 254.380006 189.34205 
L 263.49021 191.120595 
L 272.600415 191.969551 
L 275.921018 192.02779 
L 281.710619 192.115826 
L 284.559372 192.02779 
L 290.820823 191.814965 
L 299.931027 191.183479 
L 309.041231 190.359024 
L 318.151435 189.503528 
L 327.261639 188.816385 
L 336.371843 188.547818 
L 345.482047 189.014979 
L 354.592251 190.959411 
L 356.952124 192.02779 
L 363.702455 194.592009 
L 372.812659 201.066462 
L 372.825254 201.079219 
L 381.922864 208.488933 
L 383.527345 210.130647 
L 391.033068 216.662369 
L 393.743038 219.182076 
L 400.143272 224.548298 
L 404.814387 228.233504 
L 409.253476 231.50838 
L 418.36368 237.162741 
L 418.626043 237.284933 
L 427.473884 241.229773 
L 436.584088 243.840053 
L 445.694292 244.909165 
L 454.804496 243.97351 
L 463.9147 239.856979 
L 466.682733 237.284933 
L 472.399242 228.233504 
L 473.024904 226.33925 
L 474.781738 219.182076 
L 475.630778 210.130647 
L 475.240283 201.079219 
L 473.342165 192.02779 
L 473.024904 191.23231 
L 468.487533 182.976362 
L 463.9147 178.640981 
L 455.448358 173.924933 
L 454.804496 173.686145 
L 445.694292 171.36533 
L 436.584088 169.96961 
L 427.473884 169.08662 
L 418.36368 168.505324 
L 409.253476 168.065733 
L 400.143272 167.612736 
L 391.033068 166.933004 
L 381.922864 165.619213 
L 379.026029 164.873504 
L 372.812659 163.486513 
L 363.702455 160.03122 
L 357.06477 155.822076 
L 354.592251 154.507259 
L 345.482047 148.484183 
L 343.253997 146.770647 
L 336.371843 142.735143 
L 327.707749 137.719219 
L 327.261639 137.506798 
L 318.151435 133.625412 
L 309.041231 130.36854 
L 303.330223 128.66779 
L 299.931027 127.801213 
L 290.820823 125.916695 
L 281.710619 124.431734 
L 272.600415 123.319915 
L 263.49021 122.619438 
L 254.380006 122.466658 
L 245.269802 123.227764 
L 236.159598 125.928732 
L 232.114438 128.66779 
L 227.049394 135.546902 
L 226.085518 137.719219 
L 224.197539 146.770647 
L 224.141474 155.822076 
L 225.720477 164.873504 
z
M 365.922932 38.153504 
L 372.812659 44.534268 
L 377.720603 47.204933 
L 381.922864 48.330764 
L 391.033068 48.630115 
L 400.143272 47.233061 
L 400.238408 47.204933 
L 409.253476 41.881607 
L 414.361544 38.153504 
L 411.941603 29.102076 
L 409.253476 28.061469 
L 400.143272 25.839417 
L 391.033068 24.8998 
L 381.922864 25.114757 
L 372.812659 26.811866 
L 367.408959 29.102076 
L 365.922932 38.153504 
" clip-path="url(#p8a1a91d466)" style="fill: none; stroke: #31688e; stroke-width: 1.5"/>
    <path d="M 44.845313 444.830606 
L 44.845313 445.46779 
L 53.955517 454.519219 
L 57.604609 454.519219 
M 44.845313 390.798499 
L 44.845313 391.159219 
L 44.845313 391.909549 
M 44.845313 274.190635 
L 53.955517 280.558392 
L 63.065721 280.417592 
L 72.175925 280.18073 
L 81.286129 279.843031 
L 90.396333 279.401578 
L 99.506537 278.844137 
L 108.616741 278.164838 
L 117.726945 277.341983 
L 126.837149 276.353555 
L 135.947353 275.162132 
L 145.057557 273.692733 
L 146.198165 273.490647 
L 154.167761 271.800714 
L 163.277966 269.270823 
L 172.38817 265.424442 
L 174.178772 264.439219 
L 181.498374 257.584872 
L 183.180168 255.38779 
L 187.210398 246.336362 
L 189.135735 237.284933 
L 189.727253 228.233504 
L 188.909373 219.182076 
L 185.453653 210.130647 
L 181.498374 206.226509 
L 174.992898 201.079219 
L 172.38817 199.918238 
L 163.277966 196.016477 
L 154.167761 192.723904 
L 152.231002 192.02779 
L 145.057557 189.88604 
L 135.947353 187.362598 
L 126.837149 185.083357 
L 117.726945 183.026977 
L 117.470049 182.976362 
L 108.616741 181.153121 
L 99.506537 179.538922 
L 90.396333 178.169525 
L 81.286129 177.057101 
L 72.175925 176.189098 
L 63.065721 175.571647 
L 53.955517 175.201188 
L 44.845313 173.924933 
L 44.845313 169.310472 
M 44.845313 137.757909 
L 44.845313 137.719219 
L 44.845313 128.66779 
L 44.845313 119.616362 
L 44.845313 110.564933 
L 44.845313 101.513504 
L 44.845313 98.520537 
M 44.845313 10.999219 
L 44.845313 20.050647 
L 44.845313 29.102076 
L 44.845313 38.153504 
L 44.845313 47.204933 
L 44.845313 56.256362 
L 44.845313 65.30779 
L 44.845313 74.359219 
L 44.845313 83.410647 
L 53.955517 88.895496 
L 63.065721 89.195548 
L 72.175925 89.68989 
L 81.286129 90.372594 
L 90.396333 91.229603 
L 99.506537 92.256693 
L 100.975427 92.462076 
L 108.616741 93.3912 
L 117.726945 94.644352 
L 126.837149 96.00453 
L 135.947353 97.466426 
L 145.057557 99.035085 
L 154.167761 100.714568 
L 158.375128 101.513504 
L 163.277966 102.547631 
L 172.38817 104.594688 
L 181.498374 107.00848 
L 190.608578 110.236084 
L 191.422774 110.564933 
L 199.718782 116.744503 
L 201.987754 119.616362 
L 205.115352 128.66779 
L 206.316183 137.719219 
L 206.910853 146.770647 
L 207.322631 155.822076 
L 207.835926 164.873504 
L 208.828986 173.734707 
L 208.853405 173.924933 
L 211.152745 182.976362 
L 217.626978 192.02779 
L 217.93919 192.263119 
L 227.049394 197.351427 
L 236.159598 200.109826 
L 241.194782 201.079219 
L 245.269802 201.751165 
L 254.380006 202.694238 
L 263.49021 203.113039 
L 272.600415 203.086969 
L 281.710619 202.733026 
L 290.820823 202.210696 
L 299.931027 201.640914 
L 309.041231 201.149048 
L 311.665135 201.079219 
L 318.151435 200.894323 
L 325.94624 201.079219 
L 327.261639 201.110233 
L 336.371843 202.010273 
L 345.482047 203.835677 
L 354.592251 206.956182 
L 360.677017 210.130647 
L 363.702455 211.72132 
L 372.812659 217.829149 
L 374.516602 219.182076 
L 381.922864 225.097299 
L 385.612481 228.233504 
L 391.033068 232.959927 
L 396.267735 237.284933 
L 400.143272 240.571969 
L 408.104685 246.336362 
L 409.253476 247.204964 
L 418.36368 252.755447 
L 424.044476 255.38779 
L 427.473884 257.137607 
L 436.584088 260.543508 
L 445.694292 263.023382 
L 453.058907 264.439219 
L 454.804496 264.868062 
L 463.9147 266.285772 
L 473.024904 267.211105 
L 482.135108 267.736339 
L 491.245313 273.490647 
L 491.245313 282.542076 
L 491.245313 291.593504 
L 491.245313 300.644933 
L 491.245313 309.696362 
L 491.245313 318.74779 
L 491.245313 327.799219 
L 491.245313 336.850647 
L 491.245313 345.902076 
L 491.245313 354.953504 
L 491.245313 364.004933 
L 491.245313 373.056362 
L 491.245313 382.10779 
L 491.245313 391.159219 
L 491.245313 400.210647 
L 491.245313 409.262076 
L 491.245313 418.313504 
L 491.245313 427.364933 
L 491.245313 436.416362 
L 491.245313 445.46779 
L 482.135108 454.519219 
L 473.024904 454.519219 
L 470.751663 454.519219 
M 80.176014 454.519219 
L 81.286129 454.519219 
L 90.396333 454.519219 
L 99.506537 454.519219 
L 99.631616 454.519219 
M 135.009726 454.519219 
L 135.947353 454.519219 
L 145.057557 454.519219 
L 154.167761 454.519219 
L 163.277966 454.519219 
L 172.38817 454.519219 
L 181.498374 454.519219 
L 190.608578 454.519219 
L 199.718782 454.519219 
L 202.969547 445.46779 
L 203.205023 436.416362 
L 203.61947 427.364933 
L 204.255635 418.313504 
L 205.181139 409.262076 
L 206.547202 400.210647 
L 208.626877 391.159219 
L 208.828986 390.515304 
L 211.909782 382.10779 
L 217.93919 373.302491 
L 218.173481 373.056362 
L 227.049394 366.769342 
L 234.471546 364.004933 
L 236.159598 363.496831 
L 245.269802 361.74787 
L 254.380006 360.981924 
L 263.49021 360.919097 
L 272.600415 361.482882 
L 281.710619 362.617722 
L 289.372522 364.004933 
L 290.820823 364.254917 
L 299.931027 366.306428 
L 309.041231 368.845542 
L 318.151435 371.857549 
L 321.478654 373.056362 
L 327.261639 375.332918 
L 336.371843 379.166109 
L 342.991294 382.10779 
L 345.482047 383.461472 
L 354.592251 388.207371 
L 360.522521 391.159219 
L 363.702455 393.326565 
L 372.812659 398.830716 
L 375.553081 400.210647 
L 381.922864 405.101998 
L 388.814735 409.262076 
L 391.033068 411.649846 
L 399.907191 418.313504 
L 400.143272 418.690567 
L 409.253476 427.129369 
L 409.76124 427.364933 
L 417.673862 436.416362 
L 418.36368 439.481742 
L 423.792859 445.46779 
L 418.36368 454.519219 
L 409.253476 454.519219 
L 400.143272 454.519219 
L 391.033068 454.519219 
L 381.922864 454.519219 
L 372.812659 454.519219 
L 363.702455 454.519219 
L 354.592251 454.519219 
L 345.482047 454.519219 
L 336.371843 454.519219 
L 327.261639 454.519219 
L 318.151435 454.519219 
L 309.041231 454.519219 
L 299.931027 454.519219 
L 293.104866 454.519219 
M 442.211541 454.519219 
L 445.694292 454.519219 
L 448.001516 445.46779 
L 447.969409 436.416362 
L 447.33861 427.364933 
L 445.843613 418.313504 
L 445.694292 417.95988 
L 443.957503 409.262076 
L 441.495689 400.210647 
L 438.206555 391.159219 
L 436.584088 388.254604 
L 434.527417 382.10779 
L 430.522772 373.056362 
L 427.473884 367.926454 
L 425.860958 364.004933 
L 420.91232 354.953504 
L 418.36368 351.28566 
L 415.396939 345.902076 
L 409.253476 337.316454 
L 408.96305 336.850647 
L 401.718234 327.799219 
L 400.143272 326.189853 
L 392.908031 318.74779 
L 391.033068 317.178663 
L 381.922864 310.185677 
L 381.229985 309.696362 
L 372.812659 304.77022 
L 364.212653 300.644933 
L 363.702455 300.427929 
L 354.592251 296.900548 
L 345.482047 293.947852 
L 337.277035 291.593504 
L 336.371843 291.34617 
L 327.261639 289.028713 
L 318.151435 286.954452 
L 309.041231 285.061935 
L 299.931027 283.33507 
L 295.179891 282.542076 
L 290.820823 281.778366 
L 281.710619 280.441059 
L 272.600415 279.37508 
L 263.49021 278.650749 
L 254.380006 278.333898 
L 245.269802 278.484936 
L 236.159598 279.248178 
L 227.049394 280.912844 
L 221.818137 282.542076 
L 217.93919 284.083576 
L 208.828986 290.54489 
L 207.908939 291.593504 
L 202.195504 300.644933 
L 199.718782 306.272767 
L 198.46653 309.696362 
L 195.291307 318.74779 
L 191.694608 327.799219 
L 190.608578 329.963628 
L 186.755381 336.850647 
L 181.498374 342.851112 
L 178.296515 345.902076 
L 172.38817 349.760477 
L 163.277966 354.471357 
L 162.279445 354.953504 
L 154.167761 358.150834 
L 145.057557 361.385411 
L 137.090412 364.004933 
L 135.947353 364.360865 
L 126.837149 367.103462 
L 117.726945 369.631288 
L 108.616741 371.940452 
L 103.517556 373.056362 
L 99.506537 374.062913 
L 90.396333 375.967854 
L 81.286129 377.545215 
L 72.175925 378.795501 
L 63.065721 379.696109 
L 53.955517 380.24102 
L 44.845313 373.056362 
L 44.845313 364.004933 
L 44.845313 354.953504 
L 44.845313 351.368806 
M 222.219622 92.462076 
L 219.694477 83.410647 
L 218.720857 74.359219 
L 218.347969 65.30779 
L 218.24411 56.256362 
L 218.270394 47.204933 
L 218.356522 38.153504 
L 218.457085 29.102076 
L 218.545866 20.050647 
L 227.049394 10.999219 
L 236.159598 10.999219 
L 245.269802 10.999219 
L 254.380006 10.999219 
L 263.49021 10.999219 
L 272.600415 10.999219 
L 281.710619 10.999219 
L 290.820823 10.999219 
L 299.931027 10.999219 
L 309.041231 10.999219 
L 318.151435 10.999219 
L 327.261639 10.999219 
L 329.475379 20.050647 
L 333.977429 29.102076 
L 336.371843 32.558315 
L 339.476471 38.153504 
L 345.482047 46.067729 
L 346.361393 47.204933 
L 354.592251 54.954708 
L 356.371678 56.256362 
L 363.702455 60.477624 
L 372.812659 63.579882 
L 381.922864 64.839258 
L 391.033068 64.606482 
L 400.143272 63.324978 
L 409.253476 61.309641 
L 418.36368 58.834488 
L 427.204436 56.256362 
L 427.473884 56.148673 
L 436.584088 52.795255 
L 445.694292 49.795112 
L 454.804496 47.341879 
L 455.64737 47.204933 
L 463.9147 44.63102 
L 473.024904 43.019822 
L 482.135108 42.548209 
L 491.245313 47.204933 
L 491.245313 56.256362 
L 491.245313 65.30779 
L 491.245313 74.359219 
L 491.245313 83.410647 
L 491.245313 92.462076 
L 491.245313 101.513504 
L 491.245313 110.564933 
L 491.245313 119.616362 
L 491.245313 128.66779 
L 491.245313 137.719219 
L 491.245313 146.770647 
L 491.245313 155.822076 
L 482.135108 158.439981 
L 473.024904 158.403924 
L 463.9147 158.332503 
L 454.804496 158.215351 
L 445.694292 158.035402 
L 436.584088 157.766471 
L 427.473884 157.367199 
L 418.36368 156.774143 
L 409.253476 155.887981 
L 408.772716 155.822076 
L 400.143272 154.620615 
L 391.033068 152.797025 
L 381.922864 150.195988 
L 373.329238 146.770647 
L 372.812659 146.556073 
L 363.702455 142.16054 
L 355.691194 137.719219 
L 354.592251 137.106864 
L 345.482047 132.149582 
L 338.48541 128.66779 
L 336.371843 127.660746 
L 327.261639 123.982174 
L 318.151435 121.085392 
L 312.536386 119.616362 
L 309.041231 118.760644 
L 299.931027 116.88303 
L 290.820823 115.259003 
L 281.710619 113.751486 
L 272.600415 112.270177 
L 263.49021 110.712336 
L 262.630448 110.564933 
L 254.380006 108.949275 
L 245.269802 106.838038 
L 236.159598 103.986027 
L 230.61813 101.513504 
L 227.049394 98.694582 
L 222.219622 92.462076 
z
" clip-path="url(#p8a1a91d466)" style="fill: none; stroke: #26828e; stroke-width: 1.5"/>
    <path d="M 62.08834 345.902076 
L 59.754281 336.850647 
L 59.001053 327.799219 
L 59.524643 318.74779 
L 61.729787 309.696362 
L 63.065721 306.967682 
L 67.433619 300.644933 
L 72.175925 296.9745 
L 81.286129 292.713306 
L 84.895015 291.593504 
L 90.396333 290.334042 
L 99.506537 288.822164 
L 108.616741 287.710744 
L 117.726945 286.865813 
L 126.837149 286.238308 
L 135.947353 285.846342 
L 145.057557 285.775217 
L 154.167761 286.2328 
L 163.277966 287.748243 
L 172.070163 291.593504 
L 172.38817 291.90382 
L 177.385882 300.644933 
L 177.946816 309.696362 
L 176.181906 318.74779 
L 172.38817 327.220126 
L 172.122963 327.799219 
L 164.998848 336.850647 
L 163.277966 338.30602 
L 154.167761 345.058393 
L 152.882385 345.902076 
L 145.057557 349.791442 
L 135.947353 353.658354 
L 132.395912 354.953504 
L 126.837149 356.74257 
L 117.726945 359.178785 
L 108.616741 361.068134 
L 99.506537 362.282798 
L 90.396333 362.610882 
L 81.286129 361.570474 
L 72.175925 358.128512 
L 68.109536 354.953504 
L 63.065721 347.973398 
L 62.08834 345.902076 
z
M 71.989762 155.822076 
L 66.168779 146.770647 
L 64.259008 137.719219 
L 64.701945 128.66779 
L 67.770285 119.616362 
L 72.175925 114.061894 
L 76.584942 110.564933 
L 81.286129 108.314412 
L 90.396333 105.927308 
L 99.506537 104.949601 
L 108.616741 104.842234 
L 117.726945 105.350588 
L 126.837149 106.325598 
L 135.947353 107.705977 
L 145.057557 109.489009 
L 149.556279 110.564933 
L 154.167761 111.875851 
L 163.277966 115.046659 
L 172.38817 119.206613 
L 173.135406 119.616362 
L 181.498374 126.596035 
L 183.413779 128.66779 
L 188.137764 137.719219 
L 190.184005 146.770647 
L 190.347149 155.822076 
L 188.667195 164.873504 
L 183.935418 173.924933 
L 181.498374 176.317356 
L 172.38817 180.025427 
L 163.277966 180.659844 
L 154.167761 179.997102 
L 145.057557 178.679984 
L 135.947353 177.04914 
L 126.837149 175.248923 
L 120.571374 173.924933 
L 117.726945 173.251137 
L 108.616741 170.975705 
L 99.506537 168.572706 
L 90.396333 165.870579 
L 87.388182 164.873504 
L 81.286129 161.957436 
L 72.175925 155.97955 
L 71.989762 155.822076 
z
M 217.693685 418.313504 
L 217.687861 409.262076 
L 217.93919 407.764292 
L 219.244307 400.210647 
L 222.617839 391.159219 
L 227.049394 384.517203 
L 229.143765 382.10779 
L 236.159598 376.787047 
L 244.268298 373.056362 
L 245.269802 372.695563 
L 254.380006 370.611362 
L 263.49021 369.713407 
L 272.600415 369.767554 
L 281.710619 370.622644 
L 290.820823 372.159416 
L 294.572527 373.056362 
L 299.931027 374.42222 
L 309.041231 377.390762 
L 318.151435 380.972668 
L 320.755907 382.10779 
L 327.261639 385.563622 
L 336.371843 390.844447 
L 336.909433 391.159219 
L 345.482047 398.115475 
L 348.140759 400.210647 
L 354.592251 408.42338 
L 355.34188 409.262076 
L 358.829678 418.313504 
L 357.614498 427.364933 
L 354.592251 431.06442 
L 349.198986 436.416362 
L 345.482047 438.235771 
L 336.371843 441.638641 
L 327.261639 443.901532 
L 318.151435 445.434091 
L 317.884926 445.46779 
L 309.041231 446.355368 
L 299.931027 446.952549 
L 290.820823 447.286106 
L 281.710619 447.389314 
L 272.600415 447.264809 
L 263.49021 446.870319 
L 254.380006 446.119894 
L 249.401382 445.46779 
L 245.269802 444.774846 
L 236.159598 442.32323 
L 227.049394 437.654549 
L 225.499752 436.416362 
L 219.639891 427.364933 
L 217.93919 419.664803 
L 217.693685 418.313504 
z
M 224.685505 255.38779 
L 218.457761 246.336362 
L 218.057201 237.284933 
L 222.206344 228.233504 
L 227.049394 224.349394 
L 236.159598 220.303994 
L 240.083928 219.182076 
L 245.269802 218.281951 
L 254.380006 217.044931 
L 263.49021 215.979382 
L 272.600415 214.912523 
L 281.710619 213.835428 
L 290.820823 212.847712 
L 299.931027 212.043002 
L 309.041231 211.537821 
L 318.151435 211.499309 
L 327.261639 212.136393 
L 336.371843 213.66992 
L 345.482047 216.272001 
L 352.349995 219.182076 
L 354.592251 220.264628 
L 363.702455 225.87198 
L 366.949075 228.233504 
L 372.812659 233.129245 
L 377.59375 237.284933 
L 381.922864 241.614807 
L 386.985851 246.336362 
L 391.033068 250.636093 
L 396.377477 255.38779 
L 400.143272 259.339772 
L 406.627519 264.439219 
L 409.253476 266.980909 
L 418.36368 273.046795 
L 419.236584 273.490647 
L 427.473884 278.638119 
L 435.858981 282.542076 
L 436.584088 283.008797 
L 445.694292 288.798971 
L 449.659698 291.593504 
L 454.804496 297.933085 
L 456.563007 300.644933 
L 458.829868 309.696362 
L 458.051707 318.74779 
L 454.804496 325.748904 
L 452.042481 327.799219 
L 445.694292 330.252926 
L 436.584088 328.095217 
L 436.15097 327.799219 
L 427.473884 322.276325 
L 423.249147 318.74779 
L 418.36368 314.927485 
L 411.945064 309.696362 
L 409.253476 307.656466 
L 400.143272 301.542208 
L 398.65456 300.644933 
L 391.033068 296.431768 
L 381.922864 292.843688 
L 378.270735 291.593504 
L 372.812659 289.796437 
L 363.702455 287.267871 
L 354.592251 285.151492 
L 345.482047 283.221245 
L 342.296258 282.542076 
L 336.371843 281.242725 
L 327.261639 279.302301 
L 318.151435 277.425664 
L 309.041231 275.584444 
L 299.931027 273.78012 
L 298.402658 273.490647 
L 290.820823 271.793756 
L 281.710619 269.867195 
L 272.600415 268.047926 
L 263.49021 266.359224 
L 254.380006 264.7705 
L 252.328168 264.439219 
L 245.269802 262.701266 
L 236.159598 260.201702 
L 227.049394 256.703972 
L 224.685505 255.38779 
z
M 235.549968 74.359219 
L 233.834446 65.30779 
L 233.754174 56.256362 
L 235.239726 47.204933 
L 236.159598 44.629415 
L 239.305245 38.153504 
L 245.269802 31.935943 
L 250.010434 29.102076 
L 254.380006 27.317155 
L 263.49021 25.240226 
L 272.600415 24.397591 
L 281.710619 24.47311 
L 290.820823 25.439814 
L 299.931027 27.6129 
L 303.542309 29.102076 
L 309.041231 31.675478 
L 317.874383 38.153504 
L 318.151435 38.382287 
L 326.808392 47.204933 
L 327.261639 47.702283 
L 334.818126 56.256362 
L 336.371843 58.057045 
L 343.656314 65.30779 
L 345.482047 67.130639 
L 354.592251 73.40976 
L 356.939859 74.359219 
L 363.702455 77.151268 
L 372.812659 78.630375 
L 381.922864 78.625237 
L 391.033068 77.63569 
L 400.143272 76.068878 
L 408.365048 74.359219 
L 409.253476 74.184066 
L 418.36368 72.291566 
L 427.473884 70.584208 
L 436.584088 69.388286 
L 445.694292 69.097355 
L 454.804496 70.416746 
L 463.378466 74.359219 
L 463.9147 74.701733 
L 471.183905 83.410647 
L 473.024904 87.481144 
L 474.658581 92.462076 
L 476.125347 101.513504 
L 476.336459 110.564933 
L 475.338343 119.616362 
L 473.024904 127.309401 
L 472.490995 128.66779 
L 465.306048 137.719219 
L 463.9147 138.733752 
L 454.804496 142.895741 
L 445.694292 144.984428 
L 436.584088 145.919831 
L 427.473884 146.064067 
L 418.36368 145.537831 
L 409.253476 144.361101 
L 400.143272 142.485865 
L 391.033068 139.829894 
L 385.433783 137.719219 
L 381.922864 136.147956 
L 372.812659 131.50784 
L 367.58606 128.66779 
L 363.702455 126.127161 
L 354.592251 120.789022 
L 352.240425 119.616362 
L 345.482047 115.858221 
L 336.371843 112.484055 
L 328.644674 110.564933 
L 327.261639 110.20564 
L 318.151435 108.415008 
L 309.041231 107.094236 
L 299.931027 105.906611 
L 290.820823 104.626688 
L 281.710619 103.129263 
L 273.652844 101.513504 
L 272.600415 101.267579 
L 263.49021 98.596422 
L 254.380006 94.973836 
L 249.657578 92.462076 
L 245.269802 89.02415 
L 239.96586 83.410647 
L 236.159598 75.841317 
L 235.549968 74.359219 
z
" clip-path="url(#p8a1a91d466)" style="fill: none; stroke: #1f9e89; stroke-width: 1.5"/>
    <path d="M 77.645639 336.850647 
L 75.298786 327.799219 
L 76.420072 318.74779 
L 81.286129 310.356767 
L 81.812622 309.696362 
L 90.396333 304.084753 
L 98.775388 300.644933 
L 99.506537 300.436662 
L 108.616741 298.744588 
L 117.726945 297.882122 
L 126.837149 297.792305 
L 135.947353 298.623936 
L 144.491519 300.644933 
L 145.057557 300.890201 
L 154.167761 308.492824 
L 155.031773 309.696362 
L 155.921067 318.74779 
L 154.167761 322.747738 
L 151.819695 327.799219 
L 145.057557 334.689132 
L 142.622073 336.850647 
L 135.947353 340.70997 
L 126.837149 344.990438 
L 124.211607 345.902076 
L 117.726945 347.662799 
L 108.616741 349.126325 
L 99.506537 349.307198 
L 90.396333 347.681942 
L 86.421655 345.902076 
L 81.286129 341.843107 
L 77.645639 336.850647 
z
M 90.063996 146.770647 
L 86.572918 137.719219 
L 88.605235 128.66779 
L 90.396333 126.67118 
L 99.506537 120.29824 
L 101.389453 119.616362 
L 108.616741 118.12548 
L 117.726945 117.572245 
L 126.837149 118.026116 
L 135.947353 119.318935 
L 137.242147 119.616362 
L 145.057557 122.040002 
L 154.167761 125.906299 
L 159.091993 128.66779 
L 163.277966 132.591081 
L 167.656276 137.719219 
L 170.635662 146.770647 
L 168.646866 155.822076 
L 163.277966 161.363916 
L 155.584813 164.873504 
L 154.167761 165.227195 
L 145.057557 165.824012 
L 135.947353 165.263364 
L 133.332265 164.873504 
L 126.837149 163.677835 
L 117.726945 161.314993 
L 108.616741 158.392486 
L 102.070669 155.822076 
L 99.506537 154.19527 
L 90.396333 147.086316 
L 90.063996 146.770647 
z
M 231.563398 418.313504 
L 230.518623 409.262076 
L 232.366486 400.210647 
L 236.159598 393.195821 
L 237.563711 391.159219 
L 245.269802 384.839807 
L 250.551956 382.10779 
L 254.380006 380.688824 
L 263.49021 378.818565 
L 272.600415 378.320881 
L 281.710619 378.936319 
L 290.820823 380.467194 
L 297.109872 382.10779 
L 299.931027 382.99304 
L 309.041231 386.767417 
L 317.784824 391.159219 
L 318.151435 391.421826 
L 327.261639 398.571705 
L 329.255566 400.210647 
L 335.530601 409.262076 
L 336.371843 415.204176 
L 336.862299 418.313504 
L 336.371843 419.361139 
L 331.881091 427.364933 
L 327.261639 430.401693 
L 318.151435 434.727104 
L 312.975394 436.416362 
L 309.041231 437.277292 
L 299.931027 438.654282 
L 290.820823 439.423399 
L 281.710619 439.669055 
L 272.600415 439.402584 
L 263.49021 438.531929 
L 254.380006 436.865013 
L 252.762615 436.416362 
L 245.269802 433.378358 
L 236.514014 427.364933 
L 236.159598 426.880154 
L 231.563398 418.313504 
z
M 251.389609 65.30779 
L 251.834881 56.256362 
L 254.380006 50.675018 
L 256.759857 47.204933 
L 263.49021 42.417292 
L 272.600415 39.4588 
L 281.710619 39.070172 
L 290.820823 40.717313 
L 299.931027 44.384893 
L 304.372089 47.204933 
L 309.041231 50.959776 
L 314.401728 56.256362 
L 318.151435 61.120263 
L 321.339201 65.30779 
L 326.355024 74.359219 
L 327.261639 80.257421 
L 327.955284 83.410647 
L 327.261639 84.406971 
L 318.151435 90.915236 
L 311.554321 92.462076 
L 309.041231 92.739326 
L 299.931027 92.967878 
L 292.301012 92.462076 
L 290.820823 92.339662 
L 281.710619 90.542345 
L 272.600415 87.732721 
L 263.49021 83.529971 
L 263.300903 83.410647 
L 254.410603 74.359219 
L 254.380006 74.28613 
L 251.389609 65.30779 
z
M 266.650807 246.336362 
L 265.582751 237.284933 
L 272.600415 232.723675 
L 280.914465 228.233504 
L 281.710619 228.026721 
L 290.820823 225.994128 
L 299.931027 224.498166 
L 309.041231 223.632688 
L 318.151435 223.55321 
L 327.261639 224.451191 
L 336.371843 226.496165 
L 341.252452 228.233504 
L 345.482047 230.298657 
L 354.592251 235.974066 
L 356.350293 237.284933 
L 363.702455 244.873386 
L 365.106552 246.336362 
L 370.624289 255.38779 
L 371.305577 264.439219 
L 363.702455 268.782739 
L 354.592251 270.15219 
L 345.482047 270.010566 
L 336.371843 269.16309 
L 327.261639 267.901532 
L 318.151435 266.331045 
L 309.041231 264.532437 
L 308.616124 264.439219 
L 299.931027 261.735866 
L 290.820823 258.822233 
L 281.710619 255.809126 
L 280.457685 255.38779 
L 272.600415 250.236212 
L 266.650807 246.336362 
z
M 377.54879 110.564933 
L 377.487476 101.513504 
L 381.922864 98.707776 
L 391.033068 93.724635 
L 393.601404 92.462076 
L 400.143272 90.608905 
L 409.253476 88.233643 
L 418.36368 86.285113 
L 427.473884 85.125668 
L 436.584088 85.323491 
L 445.694292 87.750319 
L 452.763469 92.462076 
L 454.804496 95.175944 
L 457.827871 101.513504 
L 458.580425 110.564933 
L 455.989788 119.616362 
L 454.804496 121.252582 
L 446.527386 128.66779 
L 445.694292 129.100606 
L 436.584088 131.842367 
L 427.473884 132.845925 
L 418.36368 132.501427 
L 409.253476 131.000883 
L 400.945585 128.66779 
L 400.143272 128.331037 
L 391.033068 123.283985 
L 385.209695 119.616362 
L 381.922864 115.482483 
L 377.54879 110.564933 
z
" clip-path="url(#p8a1a91d466)" style="fill: none; stroke: #35b779; stroke-width: 1.5"/>
    <path d="M 106.630057 327.799219 
L 107.368458 318.74779 
L 108.616741 318.166145 
L 117.726945 317.459876 
L 121.379412 318.74779 
L 118.193166 327.799219 
L 117.726945 328.004385 
L 108.616741 328.623738 
L 106.630057 327.799219 
z
M 245.209606 409.262076 
L 245.269802 409.02743 
L 248.140515 400.210647 
L 254.380006 394.024801 
L 259.115146 391.159219 
L 263.49021 389.594505 
L 272.600415 388.257737 
L 281.710619 388.578094 
L 290.820823 390.224288 
L 293.82819 391.159219 
L 299.931027 393.906106 
L 309.041231 399.400233 
L 310.170055 400.210647 
L 316.55176 409.262076 
L 315.747146 418.313504 
L 309.041231 424.146591 
L 303.27284 427.364933 
L 299.931027 428.346408 
L 290.820823 429.924143 
L 281.710619 430.454299 
L 272.600415 429.986688 
L 263.49021 428.356756 
L 260.445112 427.364933 
L 254.380006 423.968346 
L 248.09871 418.313504 
L 245.269802 409.509467 
L 245.209606 409.262076 
z
" clip-path="url(#p8a1a91d466)" style="fill: none; stroke: #6ece58; stroke-width: 1.5"/>
    <path d="M 272.056124 409.262076 
L 272.600415 408.735266 
L 281.710619 407.293121 
L 285.778486 409.262076 
L 281.710619 411.66715 
L 272.600415 409.800992 
L 272.056124 409.262076 
z
" clip-path="url(#p8a1a91d466)" style="fill: none; stroke: #b5de2b; stroke-width: 1.5"/>
    <path clip-path="url(#p8a1a91d466)" style="fill: none; stroke: #fde725; stroke-width: 1.5"/>
   </g>
   <g id="patch_3">
    <path d="M 44.845313 454.519219 
L 44.845313 10.999219 
" style="fill: none; stroke: #000000; stroke-width: 0.8; stroke-linejoin: miter; stroke-linecap: square"/>
   </g>
   <g id="patch_4">
    <path d="M 491.245312 454.519219 
L 491.245312 10.999219 
" style="fill: none; stroke: #000000; stroke-width: 0.8; stroke-linejoin: miter; stroke-linecap: square"/>
   </g>
   <g id="patch_5">
    <path d="M 44.845313 454.519219 
L 491.245313 454.519219 
" style="fill: none; stroke: #000000; stroke-width: 0.8; stroke-linejoin: miter; stroke-linecap: square"/>
   </g>
   <g id="patch_6">
    <path d="M 44.845313 10.999219 
L 491.245313 10.999219 
" style="fill: none; stroke: #000000; stroke-width: 0.8; stroke-linejoin: miter; stroke-linecap: square"/>
   </g>
  </g>
 </g>
 <defs>
  <clipPath id="p8a1a91d466">
   <rect x="44.845313" y="10.999219" width="446.4" height="443.52"/>
  </clipPath>
 </defs>
</svg>