<?xml version="1.0" encoding="utf-8" standalone="no"?>
<!DOCTYPE svg PUBLIC "-//W3C//DTD SVG 1.1//EN"
  "http://www.w3.org/Graphics/SVG/1.1/DTD/svg11.dtd">
<svg xmlns:xlink="http://www.w3.org/1999/xlink" width="449.28pt" height="334.08pt" viewBox="0 0 449.28 334.08" xmlns="http://www.w3.org/2000/svg" version="1.1">
 <metadata>
  <rdf:RDF xmlns:dc="http://purl.org/dc/elements/1.1/" xmlns:cc="http://creativecommons.org/ns#" xmlns:rdf="http://www.w3.org/1999/02/22-rdf-syntax-ns#">
   <cc:Work>
    <dc:type rdf:resource="http://purl.org/dc/dcmitype/StillImage"/>
    <dc:date>2024-12-11T10:02:51.364782</dc:date>
    <dc:format>image/svg+xml</dc:format>
    <dc:creator>
     <cc:Agent>
      <dc:title>Matplotlib v3.9.3, https://matplotlib.org/</dc:title>
     </cc:Agent>
    </dc:creator>
   </cc:Work>
  </rdf:RDF>
 </metadata>
 <defs>
  <style type="text/css">*{stroke-linejoin: round; stroke-linecap: butt}</style>
 </defs>
 <g id="figure_1">
  <g id="patch_1">
   <path d="M 0 334.08 
L 449.28 334.08 
L 449.28 0 
L 0 0 
z
" style="fill: #ffffff"/>
  </g>
  <g id="axes_1">
   <g id="patch_2">
    <path d="M 29.47 308.26625 
L 434.445 308.26625 
L 434.445 11.759062 
L 29.47 11.759062 
z
" style="fill: #ffffff"/>
   </g>
   <g id="matplotlib.axis_1">
    <g id="xtick_1">
     <g id="line2d_1">
      <defs>
       <path id="ma3331e40a0" d="M 0 0 
L 0 3.5 
" style="stroke: #000000; stroke-width: 0.8"/>
      </defs>
      <g>
       <use xlink:href="#ma3331e40a0" x="29.47" y="308.26625" style="fill-opacity: 0; stroke: #000000; stroke-width: 0.8"/>
      </g>
     </g>
     <g id="text_1">
      <!-- 0 -->
      <g transform="translate(25.6525 324.384375) scale(0.12 -0.12)">
       <defs>
        <path id="DejaVuSerif-30" d="M 2034 219 
Q 2513 219 2750 744 
Q 2988 1269 2988 2328 
Q 2988 3391 2750 3916 
Q 2513 4441 2034 4441 
Q 1556 4441 1318 3916 
Q 1081 3391 1081 2328 
Q 1081 1269 1318 744 
Q 1556 219 2034 219 
z
M 2034 -91 
Q 1275 -91 848 546 
Q 422 1184 422 2328 
Q 422 3475 848 4112 
Q 1275 4750 2034 4750 
Q 2797 4750 3222 4112 
Q 3647 3475 3647 2328 
Q 3647 1184 3222 546 
Q 2797 -91 2034 -91 
z
" transform="scale(0.015625)"/>
       </defs>
       <use xlink:href="#DejaVuSerif-30"/>
      </g>
     </g>
    </g>
    <g id="xtick_2">
     <g id="line2d_2">
      <g>
       <use xlink:href="#ma3331e40a0" x="110.465" y="308.26625" style="fill-opacity: 0; stroke: #000000; stroke-width: 0.8"/>
      </g>
     </g>
     <g id="text_2">
      <!-- 10 -->
      <g transform="translate(102.83 324.384375) scale(0.12 -0.12)">
       <defs>
        <path id="DejaVuSerif-31" d="M 909 0 
L 909 331 
L 1722 331 
L 1722 4213 
L 781 3603 
L 781 4013 
L 1919 4750 
L 2350 4750 
L 2350 331 
L 3163 331 
L 3163 0 
L 909 0 
z
" transform="scale(0.015625)"/>
       </defs>
       <use xlink:href="#DejaVuSerif-31"/>
       <use xlink:href="#DejaVuSerif-30" x="63.623047"/>
      </g>
     </g>
    </g>
    <g id="xtick_3">
     <g id="line2d_3">
      <g>
       <use xlink:href="#ma3331e40a0" x="191.46" y="308.26625" style="fill-opacity: 0; stroke: #000000; stroke-width: 0.8"/>
      </g>
     </g>
     <g id="text_3">
      <!-- 20 -->
      <g transform="translate(183.825 324.384375) scale(0.12 -0.12)">
       <defs>
        <path id="DejaVuSerif-32" d="M 819 3553 
L 469 3553 
L 469 4384 
Q 803 4563 1142 4656 
Q 1481 4750 1806 4750 
Q 2534 4750 2956 4397 
Q 3378 4044 3378 3438 
Q 3378 2753 2422 1800 
Q 2347 1728 2309 1691 
L 1131 513 
L 3078 513 
L 3078 1088 
L 3444 1088 
L 3444 0 
L 434 0 
L 434 341 
L 1850 1753 
Q 2319 2222 2519 2614 
Q 2719 3006 2719 3438 
Q 2719 3909 2473 4175 
Q 2228 4441 1797 4441 
Q 1350 4441 1106 4219 
Q 863 3997 819 3553 
z
" transform="scale(0.015625)"/>
       </defs>
       <use xlink:href="#DejaVuSerif-32"/>
       <use xlink:href="#DejaVuSerif-30" x="63.623047"/>
      </g>
     </g>
    </g>
    <g id="xtick_4">
     <g id="line2d_4">
      <g>
       <use xlink:href="#ma3331e40a0" x="272.455" y="308.26625" style="fill-opacity: 0; stroke: #000000; stroke-width: 0.8"/>
      </g>
     </g>
     <g id="text_4">
      <!-- 30 -->
      <g transform="translate(264.82 324.384375) scale(0.12 -0.12)">
       <defs>
        <path id="DejaVuSerif-33" d="M 622 4469 
Q 988 4606 1323 4678 
Q 1659 4750 1953 4750 
Q 2638 4750 3022 4454 
Q 3406 4159 3406 3634 
Q 3406 3213 3140 2930 
Q 2875 2647 2388 2547 
Q 2963 2466 3280 2130 
Q 3597 1794 3597 1259 
Q 3597 606 3158 257 
Q 2719 -91 1894 -91 
Q 1528 -91 1179 -12 
Q 831 66 488 225 
L 488 1131 
L 838 1131 
Q 869 681 1141 450 
Q 1413 219 1906 219 
Q 2384 219 2661 495 
Q 2938 772 2938 1253 
Q 2938 1803 2653 2086 
Q 2369 2369 1819 2369 
L 1522 2369 
L 1522 2688 
L 1678 2688 
Q 2225 2688 2498 2914 
Q 2772 3141 2772 3597 
Q 2772 4006 2547 4223 
Q 2322 4441 1900 4441 
Q 1478 4441 1245 4241 
Q 1013 4041 972 3647 
L 622 3647 
L 622 4469 
z
" transform="scale(0.015625)"/>
       </defs>
       <use xlink:href="#DejaVuSerif-33"/>
       <use xlink:href="#DejaVuSerif-30" x="63.623047"/>
      </g>
     </g>
    </g>
    <g id="xtick_5">
     <g id="line2d_5">
      <g>
       <use xlink:href="#ma3331e40a0" x="353.45" y="308.26625" style="fill-opacity: 0; stroke: #000000; stroke-width: 0.8"/>
      </g>
     </g>
     <g id="text_5">
      <!-- 40 -->
      <g transform="translate(345.815 324.384375) scale(0.12 -0.12)">
       <defs>
        <path id="DejaVuSerif-34" d="M 2234 1581 
L 2234 4063 
L 641 1581 
L 2234 1581 
z
M 3609 0 
L 1484 0 
L 1484 331 
L 2234 331 
L 2234 1247 
L 197 1247 
L 197 1588 
L 2241 4750 
L 2859 4750 
L 2859 1581 
L 3750 1581 
L 3750 1247 
L 2859 1247 
L 2859 331 
L 3609 331 
L 3609 0 
z
" transform="scale(0.015625)"/>
       </defs>
       <use xlink:href="#DejaVuSerif-34"/>
       <use xlink:href="#DejaVuSerif-30" x="63.623047"/>
      </g>
     </g>
    </g>
    <g id="xtick_6">
     <g id="line2d_6">
      <g>
       <use xlink:href="#ma3331e40a0" x="434.445" y="308.26625" style="fill-opacity: 0; stroke: #000000; stroke-width: 0.8"/>
      </g>
     </g>
     <g id="text_6">
      <!-- 50 -->
      <g transform="translate(426.81 324.384375) scale(0.12 -0.12)">
       <defs>
        <path id="DejaVuSerif-35" d="M 3219 4666 
L 3219 4153 
L 1081 4153 
L 1081 2816 
Q 1244 2928 1461 2984 
Q 1678 3041 1947 3041 
Q 2703 3041 3140 2622 
Q 3578 2203 3578 1478 
Q 3578 738 3136 323 
Q 2694 -91 1894 -91 
Q 1572 -91 1234 -12 
Q 897 66 544 225 
L 544 1131 
L 897 1131 
Q 925 688 1179 453 
Q 1434 219 1894 219 
Q 2388 219 2653 544 
Q 2919 869 2919 1478 
Q 2919 2084 2655 2407 
Q 2391 2731 1894 2731 
Q 1613 2731 1398 2631 
Q 1184 2531 1019 2322 
L 750 2322 
L 750 4666 
L 3219 4666 
z
" transform="scale(0.015625)"/>
       </defs>
       <use xlink:href="#DejaVuSerif-35"/>
       <use xlink:href="#DejaVuSerif-30" x="63.623047"/>
      </g>
     </g>
    </g>
   </g>
   <g id="matplotlib.axis_2">
    <g id="ytick_1">
     <g id="line2d_7">
      <defs>
       <path id="m09223b6525" d="M 0 0 
L -3.5 0 
" style="stroke: #000000; stroke-width: 0.8"/>
      </defs>
      <g>
       <use xlink:href="#m09223b6525" x="29.47" y="308.26625" style="fill-opacity: 0; stroke: #000000; stroke-width: 0.8"/>
      </g>
     </g>
     <g id="text_7">
      <!-- 0 -->
      <g transform="translate(14.835 312.825312) scale(0.12 -0.12)">
       <use xlink:href="#DejaVuSerif-30"/>
      </g>
     </g>
    </g>
    <g id="ytick_2">
     <g id="line2d_8">
      <g>
       <use xlink:href="#m09223b6525" x="29.47" y="271.202852" style="fill-opacity: 0; stroke: #000000; stroke-width: 0.8"/>
      </g>
     </g>
     <g id="text_8">
      <!-- 5 -->
      <g transform="translate(14.835 275.761914) scale(0.12 -0.12)">
       <use xlink:href="#DejaVuSerif-35"/>
      </g>
     </g>
    </g>
    <g id="ytick_3">
     <g id="line2d_9">
      <g>
       <use xlink:href="#m09223b6525" x="29.47" y="234.139453" style="fill-opacity: 0; stroke: #000000; stroke-width: 0.8"/>
      </g>
     </g>
     <g id="text_9">
      <!-- 10 -->
      <g transform="translate(7.2 238.698516) scale(0.12 -0.12)">
       <use xlink:href="#DejaVuSerif-31"/>
       <use xlink:href="#DejaVuSerif-30" x="63.623047"/>
      </g>
     </g>
    </g>
    <g id="ytick_4">
     <g id="line2d_10">
      <g>
       <use xlink:href="#m09223b6525" x="29.47" y="197.076055" style="fill-opacity: 0; stroke: #000000; stroke-width: 0.8"/>
      </g>
     </g>
     <g id="text_10">
      <!-- 15 -->
      <g transform="translate(7.2 201.635117) scale(0.12 -0.12)">
       <use xlink:href="#DejaVuSerif-31"/>
       <use xlink:href="#DejaVuSerif-35" x="63.623047"/>
      </g>
     </g>
    </g>
    <g id="ytick_5">
     <g id="line2d_11">
      <g>
       <use xlink:href="#m09223b6525" x="29.47" y="160.012656" style="fill-opacity: 0; stroke: #000000; stroke-width: 0.8"/>
      </g>
     </g>
     <g id="text_11">
      <!-- 20 -->
      <g transform="translate(7.2 164.571719) scale(0.12 -0.12)">
       <use xlink:href="#DejaVuSerif-32"/>
       <use xlink:href="#DejaVuSerif-30" x="63.623047"/>
      </g>
     </g>
    </g>
    <g id="ytick_6">
     <g id="line2d_12">
      <g>
       <use xlink:href="#m09223b6525" x="29.47" y="122.949258" style="fill-opacity: 0; stroke: #000000; stroke-width: 0.8"/>
      </g>
     </g>
     <g id="text_12">
      <!-- 25 -->
      <g transform="translate(7.2 127.50832) scale(0.12 -0.12)">
       <use xlink:href="#DejaVuSerif-32"/>
       <use xlink:href="#DejaVuSerif-35" x="63.623047"/>
      </g>
     </g>
    </g>
    <g id="ytick_7">
     <g id="line2d_13">
      <g>
       <use xlink:href="#m09223b6525" x="29.47" y="85.885859" style="fill-opacity: 0; stroke: #000000; stroke-width: 0.8"/>
      </g>
     </g>
     <g id="text_13">
      <!-- 30 -->
      <g transform="translate(7.2 90.444922) scale(0.12 -0.12)">
       <use xlink:href="#DejaVuSerif-33"/>
       <use xlink:href="#DejaVuSerif-30" x="63.623047"/>
      </g>
     </g>
    </g>
    <g id="ytick_8">
     <g id="line2d_14">
      <g>
       <use xlink:href="#m09223b6525" x="29.47" y="48.822461" style="fill-opacity: 0; stroke: #000000; stroke-width: 0.8"/>
      </g>
     </g>
     <g id="text_14">
      <!-- 35 -->
      <g transform="translate(7.2 53.381523) scale(0.12 -0.12)">
       <use xlink:href="#DejaVuSerif-33"/>
       <use xlink:href="#DejaVuSerif-35" x="63.623047"/>
      </g>
     </g>
    </g>
    <g id="ytick_9">
     <g id="line2d_15">
      <g>
       <use xlink:href="#m09223b6525" x="29.47" y="11.759062" style="fill-opacity: 0; stroke: #000000; stroke-width: 0.8"/>
      </g>
     </g>
     <g id="text_15">
      <!-- 40 -->
      <g transform="translate(7.2 16.318125) scale(0.12 -0.12)">
       <use xlink:href="#DejaVuSerif-34"/>
       <use xlink:href="#DejaVuSerif-30" x="63.623047"/>
      </g>
     </g>
    </g>
   </g>
   <g id="line2d_16">
    <defs>
     <path id="m6ba7b3e098" d="M 0 3 
C 0.795609 3 1.55874 2.683901 2.12132 2.12132 
C 2.683901 1.55874 3 0.795609 3 0 
C 3 -0.795609 2.683901 -1.55874 2.12132 -2.12132 
C 1.55874 -2.683901 0.795609 -3 0 -3 
C -0.795609 -3 -1.55874 -2.683901 -2.12132 -2.12132 
C -2.683901 -1.55874 -3 -0.795609 -3 0 
C -3 0.795609 -2.683901 1.55874 -2.12132 2.12132 
C -1.55874 2.683901 -0.795609 3 0 3 
z
" style="stroke: #1f77b4"/>
    </defs>
    <g clip-path="url(#p21b6e2695d)">
     <use xlink:href="#m6ba7b3e098" x="1140.802227" y="-1" style="fill-opacity: 0; stroke: #1f77b4"/>
     <use xlink:href="#m6ba7b3e098" x="1052.605348" y="226.319805" style="fill-opacity: 0; stroke: #1f77b4"/>
     <use xlink:href="#m6ba7b3e098" x="1031.603678" y="-1" style="fill-opacity: 0; stroke: #1f77b4"/>
     <use xlink:href="#m6ba7b3e098" x="1005.934177" y="-1" style="fill-opacity: 0; stroke: #1f77b4"/>
     <use xlink:href="#m6ba7b3e098" x="943.951866" y="129.917156" style="fill-opacity: 0; stroke: #1f77b4"/>
     <use xlink:href="#m6ba7b3e098" x="899.670997" y="-0.309284" style="fill-opacity: 0; stroke: #1f77b4"/>
     <use xlink:href="#m6ba7b3e098" x="899.948889" y="-1" style="fill-opacity: 0; stroke: #1f77b4"/>
     <use xlink:href="#m6ba7b3e098" x="899.688983" y="-1" style="fill-opacity: 0; stroke: #1f77b4"/>
     <use xlink:href="#m6ba7b3e098" x="865.888092" y="68.282718" style="fill-opacity: 0; stroke: #1f77b4"/>
     <use xlink:href="#m6ba7b3e098" x="776.860104" y="-1" style="fill-opacity: 0; stroke: #1f77b4"/>
     <use xlink:href="#m6ba7b3e098" x="769.654636" y="-1" style="fill-opacity: 0; stroke: #1f77b4"/>
     <use xlink:href="#m6ba7b3e098" x="811.090215" y="31.842809" style="fill-opacity: 0; stroke: #1f77b4"/>
     <use xlink:href="#m6ba7b3e098" x="782.010282" y="24.126656" style="fill-opacity: 0; stroke: #1f77b4"/>
     <use xlink:href="#m6ba7b3e098" x="41.154462" y="300.558707" style="fill-opacity: 0; stroke: #1f77b4"/>
     <use xlink:href="#m6ba7b3e098" x="64.523387" y="285.14362" style="fill-opacity: 0; stroke: #1f77b4"/>
     <use xlink:href="#m6ba7b3e098" x="745.111114" y="29.738733" style="fill-opacity: 0; stroke: #1f77b4"/>
     <use xlink:href="#m6ba7b3e098" x="87.892312" y="269.728534" style="fill-opacity: 0; stroke: #1f77b4"/>
     <use xlink:href="#m6ba7b3e098" x="703.516515" y="28.742355" style="fill-opacity: 0; stroke: #1f77b4"/>
     <use xlink:href="#m6ba7b3e098" x="111.261237" y="254.313448" style="fill-opacity: 0; stroke: #1f77b4"/>
     <use xlink:href="#m6ba7b3e098" x="134.630162" y="238.898361" style="fill-opacity: 0; stroke: #1f77b4"/>
     <use xlink:href="#m6ba7b3e098" x="666.187541" y="27.416028" style="fill-opacity: 0; stroke: #1f77b4"/>
     <use xlink:href="#m6ba7b3e098" x="631.613026" y="-1" style="fill-opacity: 0; stroke: #1f77b4"/>
     <use xlink:href="#m6ba7b3e098" x="600.350429" y="-1" style="fill-opacity: 0; stroke: #1f77b4"/>
     <use xlink:href="#m6ba7b3e098" x="629.556698" y="27.103294" style="fill-opacity: 0; stroke: #1f77b4"/>
     <use xlink:href="#m6ba7b3e098" x="157.999087" y="223.483275" style="fill-opacity: 0; stroke: #1f77b4"/>
     <use xlink:href="#m6ba7b3e098" x="181.368011" y="208.068189" style="fill-opacity: 0; stroke: #1f77b4"/>
     <use xlink:href="#m6ba7b3e098" x="204.736936" y="192.653102" style="fill-opacity: 0; stroke: #1f77b4"/>
     <use xlink:href="#m6ba7b3e098" x="593.535046" y="26.576968" style="fill-opacity: 0; stroke: #1f77b4"/>
     <use xlink:href="#m6ba7b3e098" x="228.105861" y="177.238016" style="fill-opacity: 0; stroke: #1f77b4"/>
     <use xlink:href="#m6ba7b3e098" x="251.474786" y="161.822929" style="fill-opacity: 0; stroke: #1f77b4"/>
     <use xlink:href="#m6ba7b3e098" x="558.535258" y="25.956808" style="fill-opacity: 0; stroke: #1f77b4"/>
     <use xlink:href="#m6ba7b3e098" x="274.843711" y="146.407842" style="fill-opacity: 0; stroke: #1f77b4"/>
     <use xlink:href="#m6ba7b3e098" x="298.212626" y="130.99275" style="fill-opacity: 0; stroke: #1f77b4"/>
     <use xlink:href="#m6ba7b3e098" x="321.581456" y="115.577683" style="fill-opacity: 0; stroke: #1f77b4"/>
     <use xlink:href="#m6ba7b3e098" x="344.949946" y="100.163219" style="fill-opacity: 0; stroke: #1f77b4"/>
     <use xlink:href="#m6ba7b3e098" x="524.368334" y="25.293119" style="fill-opacity: 0; stroke: #1f77b4"/>
     <use xlink:href="#m6ba7b3e098" x="368.320316" y="84.753566" style="fill-opacity: 0; stroke: #1f77b4"/>
     <use xlink:href="#m6ba7b3e098" x="391.726452" y="69.35758" style="fill-opacity: 0; stroke: #1f77b4"/>
     <use xlink:href="#m6ba7b3e098" x="415.361661" y="53.862885" style="fill-opacity: 0; stroke: #1f77b4"/>
     <use xlink:href="#m6ba7b3e098" x="490.485524" y="23.672697" style="fill-opacity: 0; stroke: #1f77b4"/>
     <use xlink:href="#m6ba7b3e098" x="439.456577" y="36.796951" style="fill-opacity: 0; stroke: #1f77b4"/>
     <use xlink:href="#m6ba7b3e098" x="464.192633" y="15.238697" style="fill-opacity: 0; stroke: #1f77b4"/>
     <use xlink:href="#m6ba7b3e098" x="453.256342" y="17.796909" style="fill-opacity: 0; stroke: #1f77b4"/>
     <use xlink:href="#m6ba7b3e098" x="450.872936" y="-1" style="fill-opacity: 0; stroke: #1f77b4"/>
    </g>
   </g>
   <g id="QuadContourSet_1">
    <path d="M 413.915236 52.528801 
L 414.19625 53.430802 
L 415.192584 52.528801 
L 414.19625 52.236406 
L 413.915236 52.528801 
" clip-path="url(#p21b6e2695d)" style="fill: none; stroke: #000000; stroke-width: 1.5"/>
    <path d="M 434.445 23.436291 
L 431.655192 26.584422 
L 430.39525 28.179002 
L 429.208314 30.290762 
L 427.934633 33.997102 
L 427.782737 37.703441 
L 428.936832 41.409781 
L 430.39525 43.46183 
L 432.147 45.116121 
L 434.445 46.541084 
M 345.017061 100.711219 
L 345.3505 100.945663 
L 345.663071 100.711219 
L 345.3505 100.3281 
L 345.017061 100.711219 
z
M 369.485613 85.885859 
L 369.649 85.937833 
L 369.717005 85.885859 
L 369.649 85.702445 
L 369.485613 85.885859 
z
M 389.157584 71.0605 
L 389.89775 71.745565 
L 393.9475 71.696209 
L 394.781808 71.0605 
L 394.843513 67.35416 
L 393.9475 66.576101 
L 389.89775 66.65862 
L 389.24049 67.35416 
L 389.157584 71.0605 
z
M 409.933134 56.235141 
L 410.1465 56.518918 
L 414.19625 59.326104 
L 418.246 59.063966 
L 422.222098 56.235141 
L 422.29575 55.986601 
L 423.478723 52.528801 
L 422.29575 49.478628 
L 421.871469 48.822461 
L 418.246 46.939409 
L 414.19625 47.270966 
L 411.930033 48.822461 
L 410.1465 50.834075 
L 409.384012 52.528801 
L 409.933134 56.235141 
z
" clip-path="url(#p21b6e2695d)" style="fill: none; stroke: #000000; stroke-width: 1.5"/>
    <path d="M 424.394182 11.759062 
L 422.29575 14.412397 
L 421.551804 15.465402 
L 419.050391 19.171742 
L 418.246 20.452717 
L 416.890637 22.878082 
L 414.999803 26.584422 
L 414.19625 28.385313 
L 413.138742 30.290762 
L 410.1465 33.46638 
L 409.704723 33.997102 
L 406.276587 37.703441 
L 406.09675 37.887982 
L 403.437778 41.409781 
L 402.047 43.46365 
L 401.14891 45.116121 
L 399.65231 48.822461 
L 398.867152 52.528801 
L 397.99725 55.414929 
L 396.663912 56.235141 
L 393.9475 56.782471 
L 389.89775 58.341672 
L 387.60509 59.94148 
L 385.848 61.211602 
L 383.944967 63.64782 
L 382.375111 67.35416 
L 382.473673 71.0605 
L 384.489292 74.76684 
L 385.848 76.005943 
L 389.89775 77.920602 
L 393.9475 78.172347 
L 397.99725 77.046961 
L 402.046832 74.76684 
L 402.047 74.76666 
L 405.653159 71.0605 
L 406.09675 70.157527 
L 410.1465 68.237529 
L 414.19625 68.845935 
L 418.246 68.89468 
L 422.29575 68.379024 
L 426.3455 67.425351 
L 426.586112 67.35416 
L 430.39525 65.880537 
L 434.445 64.231804 
M 320.016299 115.536578 
L 321.052 116.64964 
L 322.705096 115.536578 
L 321.052 114.319478 
L 320.016299 115.536578 
M 342.346477 100.711219 
L 345.3505 102.823375 
L 348.166515 100.711219 
L 345.3505 97.259621 
L 342.346477 100.711219 
z
M 363.216012 85.885859 
L 365.59925 88.803986 
L 369.037299 89.592199 
L 369.649 89.691579 
L 369.949452 89.592199 
L 373.69875 87.090281 
L 374.744369 85.885859 
L 374.761438 82.17952 
L 373.69875 80.829104 
L 369.649 78.865909 
L 365.59925 80.020946 
L 363.713711 82.17952 
L 363.216012 85.885859 
z
" clip-path="url(#p21b6e2695d)" style="fill: none; stroke: #000000; stroke-width: 1.5"/>
    <path d="M 401.499128 11.759062 
L 399.098877 15.465402 
L 397.99725 17.044117 
L 396.631607 19.171742 
L 394.095673 22.878082 
L 393.9475 23.093241 
L 391.761902 26.584422 
L 389.89775 29.408861 
L 389.368447 30.290762 
L 387.159811 33.997102 
L 385.848 36.185589 
L 384.951918 37.703441 
L 382.310151 41.409781 
L 381.79825 42.040964 
L 379.563157 45.116121 
L 377.7485 47.416759 
L 376.778249 48.822461 
L 374.184697 52.528801 
L 373.69875 53.261042 
L 371.990886 56.235141 
L 370.053107 59.94148 
L 369.649 60.899471 
L 368.014889 63.64782 
L 365.59925 65.694154 
L 363.868517 67.35416 
L 361.5495 69.321408 
L 359.967434 71.0605 
L 357.49975 73.867827 
L 356.894504 74.76684 
L 354.903779 78.47318 
L 353.741558 82.17952 
L 353.533478 85.885859 
L 353.45 87.220984 
L 349.40025 89.049939 
L 346.451281 89.592199 
L 345.3505 89.738059 
L 341.30075 91.578511 
L 339.428433 93.298539 
L 337.251 96.214098 
L 336.866895 97.004879 
L 336.43346 100.711219 
L 337.251 103.040856 
L 337.912401 104.417559 
L 341.30075 107.173037 
L 345.01072 108.123898 
L 345.3505 108.194169 
L 345.947451 108.123898 
L 349.40025 107.576262 
L 353.45 105.337097 
L 354.737969 104.417559 
L 357.439258 100.711219 
L 357.49975 100.465475 
L 360.857166 97.004879 
L 361.5495 96.844655 
L 361.984289 97.004879 
L 365.59925 98.053663 
L 369.649 98.408259 
L 373.69875 98.063212 
L 377.7485 97.154797 
L 378.238756 97.004879 
L 381.79825 95.546902 
L 385.848 93.734309 
L 386.908482 93.298539 
L 389.89775 91.695268 
L 393.9475 91.08164 
L 397.99725 90.716417 
L 402.047 90.117067 
L 404.795358 89.592199 
L 406.09675 89.289383 
L 410.1465 88.212619 
L 414.19625 87.112385 
L 418.246 86.074042 
L 419.055186 85.885859 
L 422.29575 85.05224 
L 426.3455 84.401407 
L 430.39525 83.693184 
L 434.445 82.945824 
M 295.678652 130.361937 
L 296.7535 132.274315 
L 300.80325 130.961 
L 301.147774 130.361937 
L 300.80325 129.907783 
L 296.7535 129.001117 
L 295.678652 130.361937 
M 316.74474 115.536578 
L 317.00225 116.161654 
L 319.497426 119.242918 
L 321.052 119.997491 
L 324.819825 119.242918 
L 325.10175 119.110707 
L 327.548634 115.536578 
L 326.062257 111.830238 
L 325.10175 111.110054 
L 321.052 110.47617 
L 318.909907 111.830238 
L 317.00225 114.737766 
L 316.74474 115.536578 
" clip-path="url(#p21b6e2695d)" style="fill: none; stroke: #000000; stroke-width: 1.5"/>
    <path d="M 376.471468 11.759062 
L 374.12888 15.465402 
L 373.69875 16.135498 
L 371.899194 19.171742 
L 369.649 22.656175 
L 369.515587 22.878082 
L 367.255591 26.584422 
L 365.59925 29.106751 
L 364.883596 30.290762 
L 362.55897 33.997102 
L 361.5495 35.541814 
L 360.252429 37.703441 
L 357.908853 41.409781 
L 357.49975 42.052887 
L 355.682688 45.116121 
L 353.45 48.445174 
L 353.211117 48.822461 
L 350.783734 52.528801 
L 349.40025 54.49275 
L 348.285615 56.235141 
L 345.797006 59.94148 
L 345.3505 60.604251 
L 343.503419 63.64782 
L 341.30075 67.180416 
L 341.201959 67.35416 
L 339.000629 71.0605 
L 337.251 73.327686 
L 336.17683 74.76684 
L 333.20125 78.366732 
L 333.123914 78.47318 
L 330.39133 82.17952 
L 329.1515 83.862522 
L 327.883421 85.885859 
L 325.759195 89.592199 
L 325.10175 90.994524 
L 324.061682 93.298539 
L 321.233305 97.004879 
L 321.052 97.130246 
L 317.00225 100.2418 
L 316.520644 100.711219 
L 312.9525 104.043876 
L 312.655141 104.417559 
L 310.1147 108.123898 
L 308.90275 110.853271 
L 308.548536 111.830238 
L 308.074 115.536578 
L 308.408537 119.242918 
L 308.90275 120.381852 
L 309.908218 122.949258 
L 308.90275 125.038705 
L 307.159441 122.949258 
L 304.853 121.86308 
L 300.80325 121.39623 
L 296.7535 122.313996 
L 295.772621 122.949258 
L 292.70375 125.150863 
L 291.610525 126.655598 
L 290.429854 130.361937 
L 291.305713 134.068277 
L 292.70375 135.779281 
L 296.023961 137.774617 
L 296.7535 138.070648 
L 300.80325 138.129855 
L 301.957913 137.774617 
L 304.853 136.328962 
L 307.597764 134.068277 
L 308.90275 131.355475 
L 309.512342 130.361937 
L 309.917664 126.655598 
L 312.9525 125.050052 
L 315.729124 126.655598 
L 317.00225 127.199196 
L 321.052 128.016216 
L 325.10175 127.967503 
L 329.1515 127.197348 
L 330.896677 126.655598 
L 333.20125 125.672118 
L 337.251 123.641879 
L 338.711153 122.949258 
L 341.30075 121.272061 
L 345.3505 120.388044 
L 349.40025 120.1847 
L 353.45 119.683077 
L 355.878009 119.242918 
L 357.49975 118.884738 
L 361.5495 117.796916 
L 365.59925 116.644581 
L 369.649 115.540753 
L 369.665514 115.536578 
L 373.69875 114.381927 
L 377.7485 113.710164 
L 381.79825 113.049429 
L 385.848 112.331746 
L 388.544865 111.830238 
L 389.89775 111.52997 
L 393.9475 110.612659 
L 397.99725 109.726233 
L 402.047 108.892242 
L 406.09675 108.162423 
L 406.333546 108.123898 
L 410.1465 107.401042 
L 414.19625 106.637557 
L 418.246 105.886497 
L 422.29575 105.155449 
L 426.3455 104.450931 
L 426.539621 104.417559 
L 430.39525 103.635798 
L 434.445 102.857459 
M 251.505185 163.718996 
L 252.20625 164.010197 
L 252.720382 163.718996 
L 253.066903 160.012656 
L 252.20625 159.440606 
L 251.090699 160.012656 
L 251.505185 163.718996 
z
M 271.558759 148.893637 
L 272.455 149.685261 
L 276.50475 150.252587 
L 278.796977 148.893637 
L 280.058723 145.187297 
L 276.50475 141.862242 
L 272.455 142.762391 
L 270.657517 145.187297 
L 271.558759 148.893637 
" clip-path="url(#p21b6e2695d)" style="fill: none; stroke: #000000; stroke-width: 1.5"/>
    <path d="M 350.27569 11.759062 
L 349.40025 13.167244 
L 348.080537 15.465402 
L 345.819311 19.171742 
L 345.3505 19.923346 
L 343.647978 22.878082 
L 341.343536 26.584422 
L 341.30075 26.652647 
L 339.185831 30.290762 
L 337.251 33.358517 
L 336.878986 33.997102 
L 334.669721 37.703441 
L 333.20125 40.017876 
L 332.386274 41.409781 
L 330.127912 45.116121 
L 329.1515 46.655273 
L 327.882653 48.822461 
L 325.586321 52.528801 
L 325.10175 53.281966 
L 323.324093 56.235141 
L 321.052 59.708426 
L 320.911508 59.94148 
L 318.641713 63.64782 
L 317.00225 66.146692 
L 316.274939 67.35416 
L 313.973666 71.0605 
L 312.9525 72.655044 
L 311.709312 74.76684 
L 309.386142 78.47318 
L 308.90275 79.186187 
L 306.959234 82.17952 
L 304.853 85.141311 
L 304.370792 85.885859 
L 301.887684 89.592199 
L 300.80325 91.151499 
L 299.462802 93.298539 
L 297.106378 97.004879 
L 296.7535 97.585963 
L 295.031742 100.711219 
L 292.70375 104.21091 
L 292.554076 104.417559 
L 289.507889 108.123898 
L 288.654 109.056851 
L 286.478028 111.830238 
L 284.60425 114.134745 
L 283.646025 115.536578 
L 281.274767 119.242918 
L 280.5545 120.581328 
L 279.447956 122.949258 
L 277.964434 126.655598 
L 276.50475 128.504607 
L 273.849907 130.361937 
L 272.455 131.141392 
L 268.682963 134.068277 
L 268.40525 134.27387 
L 265.343438 137.774617 
L 264.3555 139.29033 
L 263.290877 141.480957 
L 262.430171 145.187297 
L 262.709409 148.893637 
L 264.353618 152.599977 
L 264.3555 152.601403 
L 268.40525 156.170155 
L 268.700956 156.306316 
L 272.455 157.625729 
L 276.50475 157.984832 
L 280.5545 157.450083 
L 284.286045 156.306316 
L 284.60425 156.168376 
L 288.654 153.927269 
L 291.043382 152.599977 
L 292.70375 151.265126 
L 296.7535 149.886995 
L 300.80325 149.813629 
L 304.853 149.441659 
L 308.141072 148.893637 
L 308.90275 148.739395 
L 312.9525 147.648551 
L 317.00225 146.429066 
L 321.052 145.230033 
L 321.207623 145.187297 
L 325.10175 143.934851 
L 329.1515 143.234427 
L 333.20125 142.625891 
L 337.251 141.934071 
L 339.70021 141.480957 
L 341.30075 141.127935 
L 345.3505 140.200479 
L 349.40025 139.293776 
L 353.45 138.437867 
L 356.934564 137.774617 
L 357.49975 137.651969 
L 361.5495 136.912216 
L 365.59925 136.169307 
L 369.649 135.430798 
L 373.69875 134.706162 
L 377.367032 134.068277 
L 377.7485 133.990127 
L 381.79825 133.171834 
L 385.848 132.394617 
L 389.89775 131.68021 
L 393.9475 131.009189 
L 397.977217 130.361937 
L 397.99725 130.358168 
L 402.047 129.597479 
L 406.09675 128.86464 
L 410.1465 128.160546 
L 414.19625 127.485396 
L 418.246 126.838658 
L 419.426292 126.655598 
L 422.29575 126.136151 
L 426.3455 125.426367 
L 430.39525 124.743018 
L 434.445 124.085172 
M 202.662878 193.369715 
L 203.60925 194.317603 
L 206.332518 193.369715 
L 203.60925 191.491035 
L 202.662878 193.369715 
z
M 224.388819 178.544355 
L 227.90775 181.016025 
L 231.9575 179.181524 
L 232.588293 178.544355 
L 232.32328 174.838016 
L 231.9575 174.455422 
L 227.90775 172.941857 
L 225.085886 174.838016 
L 224.388819 178.544355 
z
M 247.78829 167.425336 
L 248.1565 167.665379 
L 252.20625 168.560449 
L 256.256 167.633061 
L 256.67151 167.425336 
L 260.30575 163.955857 
L 260.531299 163.718996 
L 261.690738 160.012656 
L 260.577624 156.306316 
L 260.30575 156.009993 
L 256.256 153.544347 
L 252.20625 153.372322 
L 248.1565 154.918129 
L 246.672754 156.306316 
L 244.405861 160.012656 
L 244.62643 163.718996 
L 247.78829 167.425336 
" clip-path="url(#p21b6e2695d)" style="fill: none; stroke: #000000; stroke-width: 1.5"/>
    <path d="M 322.833051 11.759062 
L 321.052 14.743349 
L 320.653038 15.465402 
L 318.56065 19.171742 
L 317.00225 21.768282 
L 316.385634 22.878082 
L 314.263187 26.584422 
L 312.9525 28.756359 
L 312.095324 30.290762 
L 309.939597 33.997102 
L 308.90275 35.70295 
L 307.776639 37.703441 
L 305.579653 41.409781 
L 304.853 42.596441 
L 303.425225 45.116121 
L 301.187389 48.822461 
L 300.80325 49.446262 
L 299.047009 52.528801 
L 296.768884 56.235141 
L 296.7535 56.26003 
L 294.642479 59.94148 
L 292.70375 63.05447 
L 292.361411 63.64782 
L 290.174549 67.35416 
L 288.654 69.772092 
L 287.905133 71.0605 
L 285.669396 74.76684 
L 284.60425 76.457276 
L 283.430802 78.47318 
L 281.16153 82.17952 
L 280.5545 83.148772 
L 278.946003 85.885859 
L 276.544021 89.592199 
L 276.50475 89.651753 
L 274.288891 93.298539 
L 272.455 96.093911 
L 271.905654 97.004879 
L 269.611951 100.711219 
L 268.40525 102.585439 
L 267.322229 104.417559 
L 265.063298 108.123898 
L 264.3555 109.245458 
L 262.754467 111.830238 
L 260.30575 115.264614 
L 260.128286 115.536578 
L 257.628454 119.242918 
L 256.256 121.158152 
L 255.105069 122.949258 
L 252.670811 126.655598 
L 252.20625 127.385825 
L 250.506879 130.361937 
L 248.445025 134.068277 
L 248.1565 134.511155 
L 245.639175 137.774617 
L 244.10675 139.385324 
L 242.370255 141.480957 
L 240.057 144.076283 
L 239.228375 145.187297 
L 236.547751 148.893637 
L 236.00725 149.746111 
L 234.491597 152.599977 
L 232.967365 156.306316 
L 231.9575 159.52453 
L 231.626132 160.012656 
L 227.90775 161.954337 
L 225.222436 163.718996 
L 223.858 164.490661 
L 220.594849 167.425336 
L 219.80825 168.235864 
L 217.927818 171.131676 
L 216.578074 174.838016 
L 216.495005 178.544355 
L 217.826671 182.250695 
L 219.80825 184.66054 
L 221.497343 185.957035 
L 223.858 187.196694 
L 227.90775 188.09809 
L 231.9575 187.921515 
L 236.00725 186.829246 
L 238.112348 185.957035 
L 240.057 184.755506 
L 243.854636 182.250695 
L 244.10675 181.987585 
L 248.1565 179.606769 
L 252.20625 179.636494 
L 256.256 179.437458 
L 260.30575 178.853599 
L 261.754415 178.544355 
L 264.3555 177.856679 
L 268.40525 176.573248 
L 272.455 175.255692 
L 273.833968 174.838016 
L 276.50475 173.836767 
L 280.5545 173.02387 
L 284.60425 172.476437 
L 288.654 171.814705 
L 292.388068 171.131676 
L 292.70375 171.063011 
L 296.7535 170.119077 
L 300.80325 169.179131 
L 304.853 168.28478 
L 308.90275 167.459088 
L 309.115419 167.425336 
L 312.9525 166.737982 
L 317.00225 166.010715 
L 321.052 165.278194 
L 325.10175 164.551884 
L 329.1515 163.843019 
L 329.869668 163.718996 
L 333.20125 163.044555 
L 337.251 162.260488 
L 341.30075 161.536362 
L 345.3505 160.869791 
L 349.40025 160.222804 
L 350.728735 160.012656 
L 353.45 159.510846 
L 357.49975 158.781904 
L 361.5495 158.079859 
L 365.59925 157.405582 
L 369.649 156.759039 
L 372.609225 156.306316 
L 373.69875 156.112899 
L 377.7485 155.410189 
L 381.79825 154.732358 
L 385.848 154.0786 
L 389.89775 153.448237 
L 393.9475 152.840567 
L 395.5847 152.599977 
L 397.99725 152.188253 
L 402.047 151.51591 
L 406.09675 150.87016 
L 410.1465 150.247824 
L 414.19625 149.646915 
L 418.246 149.066429 
L 419.471685 148.893637 
L 422.29575 148.432167 
L 426.3455 147.788431 
L 430.39525 147.166925 
L 434.445 146.566645 
M 134.481165 237.845793 
L 134.7635 238.283557 
L 135.074394 237.845793 
L 134.7635 237.630194 
L 134.481165 237.845793 
M 156.596175 223.020434 
L 159.062 224.729215 
L 160.468069 223.020434 
L 159.062 221.604574 
L 156.596175 223.020434 
z
M 177.457484 208.195074 
L 179.31075 210.865445 
L 183.3605 211.21605 
L 186.009432 208.195074 
L 183.75622 204.488734 
L 183.3605 204.253101 
L 181.136707 204.488734 
L 179.31075 204.756309 
L 177.457484 208.195074 
z
M 197.981682 193.369715 
L 199.5595 196.504438 
L 200.096557 197.076055 
L 203.60925 198.858569 
L 207.659 198.666978 
L 210.858337 197.076055 
L 211.70875 196.091439 
L 213.681224 193.369715 
L 213.909981 189.663375 
L 211.70875 186.440343 
L 211.00539 185.957035 
L 207.659 184.771935 
L 203.60925 185.210573 
L 202.380871 185.957035 
L 199.5595 188.069936 
L 198.526881 189.663375 
L 197.981682 193.369715 
z
" clip-path="url(#p21b6e2695d)" style="fill: none; stroke: #000000; stroke-width: 1.5"/>
    <path d="M 293.564282 11.759062 
L 292.70375 13.263019 
L 291.532631 15.465402 
L 289.467215 19.171742 
L 288.654 20.585307 
L 287.42838 22.878082 
L 285.347318 26.584422 
L 284.60425 27.868936 
L 283.302635 30.290762 
L 281.203903 33.997102 
L 280.5545 35.113385 
L 279.154654 37.703441 
L 277.035286 41.409781 
L 276.50475 42.315822 
L 274.981692 45.116121 
L 272.83875 48.822461 
L 272.455 49.473687 
L 270.783095 52.528801 
L 268.614699 56.235141 
L 268.40525 56.588402 
L 266.559201 59.94148 
L 264.363367 63.64782 
L 264.3555 63.661001 
L 262.306799 67.35416 
L 260.30575 70.700516 
L 260.105841 71.0605 
L 258.017425 74.76684 
L 256.256 77.691234 
L 255.818777 78.47318 
L 253.698017 82.17952 
L 252.20625 84.64246 
L 251.507167 85.885859 
L 249.355141 89.592199 
L 248.1565 91.552676 
L 247.161675 93.298539 
L 244.946348 97.004879 
L 244.10675 98.356938 
L 242.751448 100.711219 
L 240.487916 104.417559 
L 240.057 105.108167 
L 238.314565 108.123898 
L 236.020024 111.830238 
L 236.00725 111.850824 
L 233.88021 115.536578 
L 231.9575 118.572538 
L 231.558553 119.242918 
L 229.281638 122.949258 
L 227.90775 125.050429 
L 226.94016 126.655598 
L 224.604775 130.361937 
L 223.858 131.516048 
L 222.341334 134.068277 
L 220.038189 137.774617 
L 219.80825 138.149089 
L 217.85786 141.480957 
L 215.7585 144.54844 
L 215.34029 145.187297 
L 212.782111 148.893637 
L 211.70875 150.351853 
L 210.221806 152.599977 
L 207.660761 156.306316 
L 207.659 156.308937 
L 205.446284 160.012656 
L 203.60925 163.163913 
L 203.312281 163.718996 
L 201.065529 167.425336 
L 199.5595 169.108406 
L 197.809211 171.131676 
L 195.50975 173.511409 
L 194.432053 174.838016 
L 191.46 178.444534 
L 191.391863 178.544355 
L 189.116564 182.250695 
L 187.41025 185.752397 
L 187.322908 185.957035 
L 186.023371 189.663375 
L 183.3605 192.515796 
L 181.872821 193.369715 
L 179.31075 194.535314 
L 175.692618 197.076055 
L 175.261 197.374706 
L 172.309419 200.782395 
L 171.21125 202.742907 
L 170.47621 204.488734 
L 170.005366 208.195074 
L 170.847125 211.901414 
L 171.21125 212.519423 
L 173.709089 215.607754 
L 175.261 216.751039 
L 179.31075 218.348426 
L 183.3605 218.656518 
L 187.41025 217.889704 
L 191.46 216.193867 
L 192.595356 215.607754 
L 195.50975 213.311483 
L 197.477502 211.901414 
L 199.5595 209.913177 
L 203.60925 209.763127 
L 207.659 209.787486 
L 211.70875 209.344066 
L 215.7585 208.522751 
L 217.014265 208.195074 
L 219.80825 207.279825 
L 223.858 205.83138 
L 227.799548 204.488734 
L 227.90775 204.442436 
L 231.9575 203.236803 
L 236.00725 202.762374 
L 240.057 202.13997 
L 244.10675 201.405114 
L 247.251435 200.782395 
L 248.1565 200.569525 
L 252.20625 199.585091 
L 256.256 198.632685 
L 260.30575 197.748177 
L 264.347408 197.076055 
L 264.3555 197.07456 
L 268.40525 196.358736 
L 272.455 195.626216 
L 276.50475 194.889798 
L 280.5545 194.163441 
L 284.60425 193.458991 
L 285.128367 193.369715 
L 288.654 192.671652 
L 292.70375 191.919629 
L 296.7535 191.241297 
L 300.80325 190.588555 
L 304.853 189.951683 
L 306.713489 189.663375 
L 308.90275 189.271084 
L 312.9525 188.561226 
L 317.00225 187.877646 
L 321.052 187.221006 
L 325.10175 186.594192 
L 329.1515 185.99795 
L 329.432329 185.957035 
L 333.20125 185.324284 
L 337.251 184.665882 
L 341.30075 184.029648 
L 345.3505 183.415069 
L 349.40025 182.821523 
L 353.432251 182.250695 
L 353.45 182.247802 
L 357.49975 181.59723 
L 361.5495 180.970611 
L 365.59925 180.364475 
L 369.649 179.777856 
L 373.69875 179.209878 
L 377.7485 178.659711 
L 378.610242 178.544355 
L 381.79825 178.054344 
L 385.848 177.449184 
L 389.89775 176.863626 
L 393.9475 176.296434 
L 397.99725 175.746384 
L 402.047 175.21266 
L 404.958726 174.838016 
L 406.09675 174.670157 
L 410.1465 174.082192 
L 414.19625 173.511853 
L 418.246 172.958314 
L 422.29575 172.420859 
L 426.3455 171.898664 
L 430.39525 171.390982 
L 432.502795 171.131676 
L 434.445 170.858286 
M 41.178874 300.85357 
L 41.61925 301.173971 
L 41.966855 300.85357 
L 41.61925 300.460547 
L 41.178874 300.85357 
z
M 110.36926 256.377492 
L 110.465 256.444266 
L 110.690557 256.377492 
L 112.067731 252.671152 
L 110.465 252.067709 
L 109.767657 252.671152 
L 110.36926 256.377492 
M 130.693478 237.845793 
L 130.71375 237.931143 
L 132.448278 241.552133 
L 134.7635 242.630774 
L 137.467956 241.552133 
L 138.81325 239.044847 
L 139.221909 237.845793 
L 138.81325 237.207691 
L 134.7635 234.730514 
L 130.71375 237.808808 
L 130.693478 237.845793 
M 152.431743 226.726773 
L 155.01225 228.940131 
L 159.062 229.786633 
L 163.11175 228.340082 
L 165.205094 226.726773 
L 166.892944 223.020434 
L 166.270144 219.314094 
L 163.11175 216.522326 
L 159.062 215.803925 
L 155.01225 217.06058 
L 152.689491 219.314094 
L 151.208049 223.020434 
L 152.431743 226.726773 
z
" clip-path="url(#p21b6e2695d)" style="fill: none; stroke: #000000; stroke-width: 1.5"/>
    <path d="M 261.590037 11.759062 
L 260.30575 14.123386 
L 259.623092 15.465402 
L 257.689356 19.171742 
L 256.256 21.798305 
L 255.704253 22.878082 
L 253.768855 26.584422 
L 252.20625 29.43412 
L 251.766465 30.290762 
L 249.828043 33.997102 
L 248.1565 37.030306 
L 247.809237 37.703441 
L 245.866327 41.409781 
L 244.10675 44.58597 
L 243.831834 45.116121 
L 241.882668 48.822461 
L 240.057 52.099843 
L 239.833365 52.528801 
L 237.876399 56.235141 
L 236.00725 59.571592 
L 235.813339 59.94148 
L 233.846921 63.64782 
L 231.9575 67.000773 
L 231.771159 67.35416 
L 229.792869 71.0605 
L 227.90775 74.383423 
L 227.704262 74.76684 
L 225.711713 78.47318 
L 223.858 81.71923 
L 223.612143 82.17952 
L 221.603818 85.885859 
L 219.80825 89.009648 
L 219.495093 89.592199 
L 217.469421 93.298539 
L 215.7585 96.2527 
L 215.350817 97.004879 
L 213.299675 100.711219 
L 211.70875 103.432723 
L 211.170625 104.417559 
L 209.09442 108.123898 
L 207.659 110.561343 
L 206.960777 111.830238 
L 204.860284 115.536578 
L 203.60925 117.64919 
L 202.726869 119.242918 
L 200.592081 122.949258 
L 199.5595 124.662718 
L 198.437216 126.655598 
L 196.250005 130.361937 
L 195.50975 131.576563 
L 194.093872 134.068277 
L 191.872333 137.774617 
L 191.46 138.449898 
L 189.735232 141.480957 
L 187.498805 145.187297 
L 187.41025 145.332617 
L 185.346476 148.893637 
L 183.3605 152.016416 
L 183.014865 152.599977 
L 180.758366 156.306316 
L 179.31075 158.555135 
L 178.4424 160.012656 
L 176.165298 163.718996 
L 175.261 165.160655 
L 173.946797 167.425336 
L 171.743003 171.131676 
L 171.21125 171.975992 
L 169.398439 174.838016 
L 167.1615 177.943995 
L 166.76446 178.544355 
L 164.208663 182.250695 
L 163.11175 183.775034 
L 161.704375 185.957035 
L 159.297163 189.663375 
L 159.062 190.046223 
L 157.219188 193.369715 
L 155.286023 197.076055 
L 155.01225 197.464885 
L 152.05273 200.782395 
L 150.9625 201.83146 
L 148.604286 204.488734 
L 146.91275 206.290155 
L 145.448442 208.195074 
L 142.863 211.796034 
L 142.799615 211.901414 
L 140.952031 215.607754 
L 139.664627 219.314094 
L 138.81325 221.512111 
L 137.145043 223.020434 
L 134.7635 223.924552 
L 130.71375 226.140924 
L 130.002282 226.726773 
L 126.664 229.5425 
L 125.951834 230.433113 
L 123.77555 234.139453 
L 122.891191 237.845793 
L 123.309569 241.552133 
L 125.298486 245.258473 
L 126.664 246.627809 
L 130.549197 248.964812 
L 130.71375 249.039096 
L 134.7635 249.827106 
L 138.81325 249.574012 
L 141.074384 248.964812 
L 142.863 248.315256 
L 146.91275 246.013121 
L 148.128907 245.258473 
L 150.9625 242.596129 
L 152.595513 241.552133 
L 155.01225 240.539999 
L 159.062 240.83082 
L 163.11175 240.596473 
L 167.1615 239.8978 
L 171.21125 238.836682 
L 174.39884 237.845793 
L 175.261 237.508167 
L 179.31075 235.917663 
L 183.3605 234.486389 
L 185.754819 234.139453 
L 187.41025 233.908236 
L 191.46 233.344061 
L 195.50975 232.628771 
L 199.5595 231.808154 
L 203.60925 230.938083 
L 205.955996 230.433113 
L 207.659 230.00369 
L 211.70875 229.029458 
L 215.7585 228.210712 
L 219.80825 227.579974 
L 223.858 226.94618 
L 225.21498 226.726773 
L 227.90775 226.228782 
L 231.9575 225.473854 
L 236.00725 224.732656 
L 240.057 224.01704 
L 244.10675 223.334161 
L 246.110903 223.020434 
L 248.1565 222.659809 
L 252.20625 221.989442 
L 256.256 221.331866 
L 260.30575 220.688961 
L 264.3555 220.063072 
L 268.40525 219.456189 
L 269.372163 219.314094 
L 272.455 218.798981 
L 276.50475 218.145424 
L 280.5545 217.524632 
L 284.60425 216.92701 
L 288.654 216.346328 
L 292.70375 215.782209 
L 293.977819 215.607754 
L 296.7535 215.176872 
L 300.80325 214.564455 
L 304.853 213.971524 
L 308.90275 213.397443 
L 312.9525 212.842992 
L 317.00225 212.304858 
L 320.112823 211.901414 
L 321.052 211.76358 
L 325.10175 211.17877 
L 329.1515 210.610993 
L 333.20125 210.059506 
L 337.251 209.523574 
L 341.30075 209.002476 
L 345.3505 208.495892 
L 347.804931 208.195074 
L 349.40025 207.974309 
L 353.45 207.423815 
L 357.49975 206.888195 
L 361.5495 206.366764 
L 365.59925 205.858875 
L 369.649 205.363912 
L 373.69875 204.881291 
L 377.067616 204.488734 
L 377.7485 204.399315 
L 381.79825 203.874446 
L 385.848 203.36281 
L 389.89775 202.863819 
L 393.9475 202.376922 
L 397.99725 201.901596 
L 402.047 201.43735 
L 406.09675 200.983714 
L 407.921871 200.782395 
L 410.1465 200.506432 
L 414.19625 200.012795 
L 418.246 199.530629 
L 422.29575 199.059463 
L 426.3455 198.598848 
L 430.39525 198.148362 
L 434.445 197.707603 
M 38.616255 300.85357 
L 41.61925 303.038432 
L 43.98962 300.85357 
L 41.61925 298.173485 
L 38.616255 300.85357 
z
M 61.290693 286.028211 
L 61.868 286.765067 
L 65.91775 287.893746 
L 67.962996 286.028211 
L 66.291377 282.321871 
L 65.91775 282.07921 
L 64.758593 282.321871 
L 61.868 284.133957 
L 61.290693 286.028211 
z
M 83.507921 271.202852 
L 86.1665 273.72556 
L 90.21625 273.629509 
L 92.960845 271.202852 
L 92.844049 267.496512 
L 90.21625 265.235985 
L 86.1665 265.299926 
L 83.817585 267.496512 
L 83.507921 271.202852 
M 104.368059 256.377492 
L 106.41525 259.14686 
L 107.961951 260.083832 
L 110.465 261.067195 
L 114.51475 260.752382 
L 116.018521 260.083832 
L 118.5645 257.996918 
L 120.009288 256.377492 
L 120.918091 252.671152 
L 119.543332 248.964812 
L 118.5645 248.032847 
L 114.51475 246.162062 
L 110.465 246.348961 
L 106.41525 248.568239 
L 106.051938 248.964812 
L 104.072468 252.671152 
L 104.368059 256.377492 
" clip-path="url(#p21b6e2695d)" style="fill: none; stroke: #000000; stroke-width: 1.5"/>
   </g>
   <g id="patch_3">
    <path d="M 29.47 308.26625 
L 29.47 11.759062 
" style="fill: none; stroke: #000000; stroke-width: 0.8; stroke-linejoin: miter; stroke-linecap: square"/>
   </g>
   <g id="patch_4">
    <path d="M 434.445 308.26625 
L 434.445 11.759062 
" style="fill: none; stroke: #000000; stroke-width: 0.8; stroke-linejoin: miter; stroke-linecap: square"/>
   </g>
   <g id="patch_5">
    <path d="M 29.47 308.26625 
L 434.445 308.26625 
" style="fill: none; stroke: #000000; stroke-width: 0.8; stroke-linejoin: miter; stroke-linecap: square"/>
   </g>
   <g id="patch_6">
    <path d="M 29.47 11.759062 
L 434.445 11.759062 
" style="fill: none; stroke: #000000; stroke-width: 0.8; stroke-linejoin: miter; stroke-linecap: square"/>
   </g>
  </g>
 </g>
 <defs>
  <clipPath id="p21b6e2695d">
   <rect x="29.47" y="11.759062" width="404.975" height="296.507187"/>
  </clipPath>
 </defs>
</svg>