<?xml version="1.0" encoding="utf-8" standalone="no"?>
<!DOCTYPE svg PUBLIC "-//W3C//DTD SVG 1.1//EN"
  "http://www.w3.org/Graphics/SVG/1.1/DTD/svg11.dtd">
<svg xmlns:xlink="http://www.w3.org/1999/xlink" width="564.48pt" height="276.48pt" viewBox="0 0 564.48 276.48" xmlns="http://www.w3.org/2000/svg" version="1.1">
 <metadata>
  <rdf:RDF xmlns:dc="http://purl.org/dc/elements/1.1/" xmlns:cc="http://creativecommons.org/ns#" xmlns:rdf="http://www.w3.org/1999/02/22-rdf-syntax-ns#">
   <cc:Work>
    <dc:type rdf:resource="http://purl.org/dc/dcmitype/StillImage"/>
    <dc:date>2024-12-11T13:55:07.211560</dc:date>
    <dc:format>image/svg+xml</dc:format>
    <dc:creator>
     <cc:Agent>
      <dc:title>Matplotlib v3.9.3, https://matplotlib.org/</dc:title>
     </cc:Agent>
    </dc:creator>
   </cc:Work>
  </rdf:RDF>
 </metadata>
 <defs>
  <style type="text/css">*{stroke-linejoin: round; stroke-linecap: butt}</style>
 </defs>
 <g id="figure_1">
  <g id="patch_1">
   <path d="M 0 276.48 
L 564.48 276.48 
L 564.48 0 
L 0 0 
z
" style="fill: #ffffff"/>
  </g>
  <g id="axes_1">
   <g id="patch_2">
    <path d="M 42.28 250.66625 
L 543.920625 250.66625 
L 543.920625 24.14175 
L 42.28 24.14175 
z
" style="fill: #ffffff"/>
   </g>
   <g id="matplotlib.axis_1">
    <g id="xtick_1">
     <g id="line2d_1">
      <defs>
       <path id="m9d6948dc35" d="M 0 0 
L 0 3.5 
" style="stroke: #000000; stroke-width: 0.8"/>
      </defs>
      <g>
       <use xlink:href="#m9d6948dc35" x="42.28" y="250.66625" style="fill-opacity: 0; stroke: #000000; stroke-width: 0.8"/>
      </g>
     </g>
     <g id="text_1">
      <!-- −1.00 -->
      <g transform="translate(23.892812 266.784375) scale(0.12 -0.12)">
       <defs>
        <path id="DejaVuSerif-2212" d="M 678 2259 
L 4684 2259 
L 4684 1753 
L 678 1753 
L 678 2259 
z
" transform="scale(0.015625)"/>
        <path id="DejaVuSerif-31" d="M 909 0 
L 909 331 
L 1722 331 
L 1722 4213 
L 781 3603 
L 781 4013 
L 1919 4750 
L 2350 4750 
L 2350 331 
L 3163 331 
L 3163 0 
L 909 0 
z
" transform="scale(0.015625)"/>
        <path id="DejaVuSerif-2e" d="M 603 325 
Q 603 500 722 622 
Q 841 744 1019 744 
Q 1191 744 1312 622 
Q 1434 500 1434 325 
Q 1434 153 1312 31 
Q 1191 -91 1019 -91 
Q 841 -91 722 29 
Q 603 150 603 325 
z
" transform="scale(0.015625)"/>
        <path id="DejaVuSerif-30" d="M 2034 219 
Q 2513 219 2750 744 
Q 2988 1269 2988 2328 
Q 2988 3391 2750 3916 
Q 2513 4441 2034 4441 
Q 1556 4441 1318 3916 
Q 1081 3391 1081 2328 
Q 1081 1269 1318 744 
Q 1556 219 2034 219 
z
M 2034 -91 
Q 1275 -91 848 546 
Q 422 1184 422 2328 
Q 422 3475 848 4112 
Q 1275 4750 2034 4750 
Q 2797 4750 3222 4112 
Q 3647 3475 3647 2328 
Q 3647 1184 3222 546 
Q 2797 -91 2034 -91 
z
" transform="scale(0.015625)"/>
       </defs>
       <use xlink:href="#DejaVuSerif-2212"/>
       <use xlink:href="#DejaVuSerif-31" x="83.789062"/>
       <use xlink:href="#DejaVuSerif-2e" x="147.412109"/>
       <use xlink:href="#DejaVuSerif-30" x="179.199219"/>
       <use xlink:href="#DejaVuSerif-30" x="242.822266"/>
      </g>
     </g>
    </g>
    <g id="xtick_2">
     <g id="line2d_2">
      <g>
       <use xlink:href="#m9d6948dc35" x="104.985078" y="250.66625" style="fill-opacity: 0; stroke: #000000; stroke-width: 0.8"/>
      </g>
     </g>
     <g id="text_2">
      <!-- −0.75 -->
      <g transform="translate(86.597891 266.784375) scale(0.12 -0.12)">
       <defs>
        <path id="DejaVuSerif-37" d="M 3609 4347 
L 1784 0 
L 1319 0 
L 3059 4153 
L 903 4153 
L 903 3578 
L 538 3578 
L 538 4666 
L 3609 4666 
L 3609 4347 
z
" transform="scale(0.015625)"/>
        <path id="DejaVuSerif-35" d="M 3219 4666 
L 3219 4153 
L 1081 4153 
L 1081 2816 
Q 1244 2928 1461 2984 
Q 1678 3041 1947 3041 
Q 2703 3041 3140 2622 
Q 3578 2203 3578 1478 
Q 3578 738 3136 323 
Q 2694 -91 1894 -91 
Q 1572 -91 1234 -12 
Q 897 66 544 225 
L 544 1131 
L 897 1131 
Q 925 688 1179 453 
Q 1434 219 1894 219 
Q 2388 219 2653 544 
Q 2919 869 2919 1478 
Q 2919 2084 2655 2407 
Q 2391 2731 1894 2731 
Q 1613 2731 1398 2631 
Q 1184 2531 1019 2322 
L 750 2322 
L 750 4666 
L 3219 4666 
z
" transform="scale(0.015625)"/>
       </defs>
       <use xlink:href="#DejaVuSerif-2212"/>
       <use xlink:href="#DejaVuSerif-30" x="83.789062"/>
       <use xlink:href="#DejaVuSerif-2e" x="147.412109"/>
       <use xlink:href="#DejaVuSerif-37" x="179.199219"/>
       <use xlink:href="#DejaVuSerif-35" x="242.822266"/>
      </g>
     </g>
    </g>
    <g id="xtick_3">
     <g id="line2d_3">
      <g>
       <use xlink:href="#m9d6948dc35" x="167.690156" y="250.66625" style="fill-opacity: 0; stroke: #000000; stroke-width: 0.8"/>
      </g>
     </g>
     <g id="text_3">
      <!-- −0.50 -->
      <g transform="translate(149.302969 266.784375) scale(0.12 -0.12)">
       <use xlink:href="#DejaVuSerif-2212"/>
       <use xlink:href="#DejaVuSerif-30" x="83.789062"/>
       <use xlink:href="#DejaVuSerif-2e" x="147.412109"/>
       <use xlink:href="#DejaVuSerif-35" x="179.199219"/>
       <use xlink:href="#DejaVuSerif-30" x="242.822266"/>
      </g>
     </g>
    </g>
    <g id="xtick_4">
     <g id="line2d_4">
      <g>
       <use xlink:href="#m9d6948dc35" x="230.395234" y="250.66625" style="fill-opacity: 0; stroke: #000000; stroke-width: 0.8"/>
      </g>
     </g>
     <g id="text_4">
      <!-- −0.25 -->
      <g transform="translate(212.008047 266.784375) scale(0.12 -0.12)">
       <defs>
        <path id="DejaVuSerif-32" d="M 819 3553 
L 469 3553 
L 469 4384 
Q 803 4563 1142 4656 
Q 1481 4750 1806 4750 
Q 2534 4750 2956 4397 
Q 3378 4044 3378 3438 
Q 3378 2753 2422 1800 
Q 2347 1728 2309 1691 
L 1131 513 
L 3078 513 
L 3078 1088 
L 3444 1088 
L 3444 0 
L 434 0 
L 434 341 
L 1850 1753 
Q 2319 2222 2519 2614 
Q 2719 3006 2719 3438 
Q 2719 3909 2473 4175 
Q 2228 4441 1797 4441 
Q 1350 4441 1106 4219 
Q 863 3997 819 3553 
z
" transform="scale(0.015625)"/>
       </defs>
       <use xlink:href="#DejaVuSerif-2212"/>
       <use xlink:href="#DejaVuSerif-30" x="83.789062"/>
       <use xlink:href="#DejaVuSerif-2e" x="147.412109"/>
       <use xlink:href="#DejaVuSerif-32" x="179.199219"/>
       <use xlink:href="#DejaVuSerif-35" x="242.822266"/>
      </g>
     </g>
    </g>
    <g id="xtick_5">
     <g id="line2d_5">
      <g>
       <use xlink:href="#m9d6948dc35" x="293.100312" y="250.66625" style="fill-opacity: 0; stroke: #000000; stroke-width: 0.8"/>
      </g>
     </g>
     <g id="text_5">
      <!-- 0.00 -->
      <g transform="translate(279.740937 266.784375) scale(0.12 -0.12)">
       <use xlink:href="#DejaVuSerif-30"/>
       <use xlink:href="#DejaVuSerif-2e" x="63.623047"/>
       <use xlink:href="#DejaVuSerif-30" x="95.410156"/>
       <use xlink:href="#DejaVuSerif-30" x="159.033203"/>
      </g>
     </g>
    </g>
    <g id="xtick_6">
     <g id="line2d_6">
      <g>
       <use xlink:href="#m9d6948dc35" x="355.805391" y="250.66625" style="fill-opacity: 0; stroke: #000000; stroke-width: 0.8"/>
      </g>
     </g>
     <g id="text_6">
      <!-- 0.25 -->
      <g transform="translate(342.446016 266.784375) scale(0.12 -0.12)">
       <use xlink:href="#DejaVuSerif-30"/>
       <use xlink:href="#DejaVuSerif-2e" x="63.623047"/>
       <use xlink:href="#DejaVuSerif-32" x="95.410156"/>
       <use xlink:href="#DejaVuSerif-35" x="159.033203"/>
      </g>
     </g>
    </g>
    <g id="xtick_7">
     <g id="line2d_7">
      <g>
       <use xlink:href="#m9d6948dc35" x="418.510469" y="250.66625" style="fill-opacity: 0; stroke: #000000; stroke-width: 0.8"/>
      </g>
     </g>
     <g id="text_7">
      <!-- 0.50 -->
      <g transform="translate(405.151094 266.784375) scale(0.12 -0.12)">
       <use xlink:href="#DejaVuSerif-30"/>
       <use xlink:href="#DejaVuSerif-2e" x="63.623047"/>
       <use xlink:href="#DejaVuSerif-35" x="95.410156"/>
       <use xlink:href="#DejaVuSerif-30" x="159.033203"/>
      </g>
     </g>
    </g>
    <g id="xtick_8">
     <g id="line2d_8">
      <g>
       <use xlink:href="#m9d6948dc35" x="481.215547" y="250.66625" style="fill-opacity: 0; stroke: #000000; stroke-width: 0.8"/>
      </g>
     </g>
     <g id="text_8">
      <!-- 0.75 -->
      <g transform="translate(467.856172 266.784375) scale(0.12 -0.12)">
       <use xlink:href="#DejaVuSerif-30"/>
       <use xlink:href="#DejaVuSerif-2e" x="63.623047"/>
       <use xlink:href="#DejaVuSerif-37" x="95.410156"/>
       <use xlink:href="#DejaVuSerif-35" x="159.033203"/>
      </g>
     </g>
    </g>
    <g id="xtick_9">
     <g id="line2d_9">
      <g>
       <use xlink:href="#m9d6948dc35" x="543.920625" y="250.66625" style="fill-opacity: 0; stroke: #000000; stroke-width: 0.8"/>
      </g>
     </g>
     <g id="text_9">
      <!-- 1.00 -->
      <g transform="translate(530.56125 266.784375) scale(0.12 -0.12)">
       <use xlink:href="#DejaVuSerif-31"/>
       <use xlink:href="#DejaVuSerif-2e" x="63.623047"/>
       <use xlink:href="#DejaVuSerif-30" x="95.410156"/>
       <use xlink:href="#DejaVuSerif-30" x="159.033203"/>
      </g>
     </g>
    </g>
   </g>
   <g id="matplotlib.axis_2">
    <g id="ytick_1">
     <g id="line2d_10">
      <defs>
       <path id="mce4b45a260" d="M 0 0 
L -3.5 0 
" style="stroke: #000000; stroke-width: 0.8"/>
      </defs>
      <g>
       <use xlink:href="#mce4b45a260" x="42.28" y="230.523941" style="fill-opacity: 0; stroke: #000000; stroke-width: 0.8"/>
      </g>
     </g>
     <g id="text_10">
      <!-- $\mathdefault{10^{-5}}$ -->
      <g transform="translate(7.2 235.083004) scale(0.12 -0.12)">
       <use xlink:href="#DejaVuSerif-31" transform="translate(0 0.63125)"/>
       <use xlink:href="#DejaVuSerif-30" transform="translate(63.623047 0.63125)"/>
       <use xlink:href="#DejaVuSerif-2212" transform="translate(128.154453 36.965625) scale(0.7)"/>
       <use xlink:href="#DejaVuSerif-35" transform="translate(186.806797 36.965625) scale(0.7)"/>
      </g>
     </g>
    </g>
    <g id="ytick_2">
     <g id="line2d_11">
      <g>
       <use xlink:href="#mce4b45a260" x="42.28" y="190.01691" style="fill-opacity: 0; stroke: #000000; stroke-width: 0.8"/>
      </g>
     </g>
     <g id="text_11">
      <!-- $\mathdefault{10^{-4}}$ -->
      <g transform="translate(7.2 194.575972) scale(0.12 -0.12)">
       <defs>
        <path id="DejaVuSerif-34" d="M 2234 1581 
L 2234 4063 
L 641 1581 
L 2234 1581 
z
M 3609 0 
L 1484 0 
L 1484 331 
L 2234 331 
L 2234 1247 
L 197 1247 
L 197 1588 
L 2241 4750 
L 2859 4750 
L 2859 1581 
L 3750 1581 
L 3750 1247 
L 2859 1247 
L 2859 331 
L 3609 331 
L 3609 0 
z
" transform="scale(0.015625)"/>
       </defs>
       <use xlink:href="#DejaVuSerif-31" transform="translate(0 0.7125)"/>
       <use xlink:href="#DejaVuSerif-30" transform="translate(63.623047 0.7125)"/>
       <use xlink:href="#DejaVuSerif-2212" transform="translate(128.154453 37.046875) scale(0.7)"/>
       <use xlink:href="#DejaVuSerif-34" transform="translate(186.806797 37.046875) scale(0.7)"/>
      </g>
     </g>
    </g>
    <g id="ytick_3">
     <g id="line2d_12">
      <g>
       <use xlink:href="#mce4b45a260" x="42.28" y="149.509878" style="fill-opacity: 0; stroke: #000000; stroke-width: 0.8"/>
      </g>
     </g>
     <g id="text_12">
      <!-- $\mathdefault{10^{-3}}$ -->
      <g transform="translate(7.2 154.068941) scale(0.12 -0.12)">
       <defs>
        <path id="DejaVuSerif-33" d="M 622 4469 
Q 988 4606 1323 4678 
Q 1659 4750 1953 4750 
Q 2638 4750 3022 4454 
Q 3406 4159 3406 3634 
Q 3406 3213 3140 2930 
Q 2875 2647 2388 2547 
Q 2963 2466 3280 2130 
Q 3597 1794 3597 1259 
Q 3597 606 3158 257 
Q 2719 -91 1894 -91 
Q 1528 -91 1179 -12 
Q 831 66 488 225 
L 488 1131 
L 838 1131 
Q 869 681 1141 450 
Q 1413 219 1906 219 
Q 2384 219 2661 495 
Q 2938 772 2938 1253 
Q 2938 1803 2653 2086 
Q 2369 2369 1819 2369 
L 1522 2369 
L 1522 2688 
L 1678 2688 
Q 2225 2688 2498 2914 
Q 2772 3141 2772 3597 
Q 2772 4006 2547 4223 
Q 2322 4441 1900 4441 
Q 1478 4441 1245 4241 
Q 1013 4041 972 3647 
L 622 3647 
L 622 4469 
z
" transform="scale(0.015625)"/>
       </defs>
       <use xlink:href="#DejaVuSerif-31" transform="translate(0 0.7125)"/>
       <use xlink:href="#DejaVuSerif-30" transform="translate(63.623047 0.7125)"/>
       <use xlink:href="#DejaVuSerif-2212" transform="translate(128.154453 37.046875) scale(0.7)"/>
       <use xlink:href="#DejaVuSerif-33" transform="translate(186.806797 37.046875) scale(0.7)"/>
      </g>
     </g>
    </g>
    <g id="ytick_4">
     <g id="line2d_13">
      <g>
       <use xlink:href="#mce4b45a260" x="42.28" y="109.002847" style="fill-opacity: 0; stroke: #000000; stroke-width: 0.8"/>
      </g>
     </g>
     <g id="text_13">
      <!-- $\mathdefault{10^{-2}}$ -->
      <g transform="translate(7.2 113.56191) scale(0.12 -0.12)">
       <use xlink:href="#DejaVuSerif-31" transform="translate(0 0.7125)"/>
       <use xlink:href="#DejaVuSerif-30" transform="translate(63.623047 0.7125)"/>
       <use xlink:href="#DejaVuSerif-2212" transform="translate(128.154453 37.046875) scale(0.7)"/>
       <use xlink:href="#DejaVuSerif-32" transform="translate(186.806797 37.046875) scale(0.7)"/>
      </g>
     </g>
    </g>
    <g id="ytick_5">
     <g id="line2d_14">
      <g>
       <use xlink:href="#mce4b45a260" x="42.28" y="68.495816" style="fill-opacity: 0; stroke: #000000; stroke-width: 0.8"/>
      </g>
     </g>
     <g id="text_14">
      <!-- $\mathdefault{10^{-1}}$ -->
      <g transform="translate(7.2 73.054878) scale(0.12 -0.12)">
       <use xlink:href="#DejaVuSerif-31" transform="translate(0 0.7125)"/>
       <use xlink:href="#DejaVuSerif-30" transform="translate(63.623047 0.7125)"/>
       <use xlink:href="#DejaVuSerif-2212" transform="translate(128.154453 37.046875) scale(0.7)"/>
       <use xlink:href="#DejaVuSerif-31" transform="translate(186.806797 37.046875) scale(0.7)"/>
      </g>
     </g>
    </g>
    <g id="ytick_6">
     <g id="line2d_15">
      <g>
       <use xlink:href="#mce4b45a260" x="42.28" y="27.988784" style="fill-opacity: 0; stroke: #000000; stroke-width: 0.8"/>
      </g>
     </g>
     <g id="text_15">
      <!-- $\mathdefault{10^{0}}$ -->
      <g transform="translate(14.16 32.547847) scale(0.12 -0.12)">
       <use xlink:href="#DejaVuSerif-31" transform="translate(0 0.7125)"/>
       <use xlink:href="#DejaVuSerif-30" transform="translate(63.623047 0.7125)"/>
       <use xlink:href="#DejaVuSerif-30" transform="translate(128.154453 37.046875) scale(0.7)"/>
      </g>
     </g>
    </g>
    <g id="ytick_7">
     <g id="line2d_16">
      <defs>
       <path id="me3d6d39844" d="M 0 0 
L -2 0 
" style="stroke: #000000; stroke-width: 0.6"/>
      </defs>
      <g>
       <use xlink:href="#me3d6d39844" x="42.28" y="246.64331" style="fill-opacity: 0; stroke: #000000; stroke-width: 0.6"/>
      </g>
     </g>
    </g>
    <g id="ytick_8">
     <g id="line2d_17">
      <g>
       <use xlink:href="#me3d6d39844" x="42.28" y="242.717773" style="fill-opacity: 0; stroke: #000000; stroke-width: 0.6"/>
      </g>
     </g>
    </g>
    <g id="ytick_9">
     <g id="line2d_18">
      <g>
       <use xlink:href="#me3d6d39844" x="42.28" y="239.510375" style="fill-opacity: 0; stroke: #000000; stroke-width: 0.6"/>
      </g>
     </g>
    </g>
    <g id="ytick_10">
     <g id="line2d_19">
      <g>
       <use xlink:href="#me3d6d39844" x="42.28" y="236.79856" style="fill-opacity: 0; stroke: #000000; stroke-width: 0.6"/>
      </g>
     </g>
    </g>
    <g id="ytick_11">
     <g id="line2d_20">
      <g>
       <use xlink:href="#me3d6d39844" x="42.28" y="234.449478" style="fill-opacity: 0; stroke: #000000; stroke-width: 0.6"/>
      </g>
     </g>
    </g>
    <g id="ytick_12">
     <g id="line2d_21">
      <g>
       <use xlink:href="#me3d6d39844" x="42.28" y="232.377441" style="fill-opacity: 0; stroke: #000000; stroke-width: 0.6"/>
      </g>
     </g>
    </g>
    <g id="ytick_13">
     <g id="line2d_22">
      <g>
       <use xlink:href="#me3d6d39844" x="42.28" y="218.33011" style="fill-opacity: 0; stroke: #000000; stroke-width: 0.6"/>
      </g>
     </g>
    </g>
    <g id="ytick_14">
     <g id="line2d_23">
      <g>
       <use xlink:href="#me3d6d39844" x="42.28" y="211.197176" style="fill-opacity: 0; stroke: #000000; stroke-width: 0.6"/>
      </g>
     </g>
    </g>
    <g id="ytick_15">
     <g id="line2d_24">
      <g>
       <use xlink:href="#me3d6d39844" x="42.28" y="206.136278" style="fill-opacity: 0; stroke: #000000; stroke-width: 0.6"/>
      </g>
     </g>
    </g>
    <g id="ytick_16">
     <g id="line2d_25">
      <g>
       <use xlink:href="#me3d6d39844" x="42.28" y="202.210741" style="fill-opacity: 0; stroke: #000000; stroke-width: 0.6"/>
      </g>
     </g>
    </g>
    <g id="ytick_17">
     <g id="line2d_26">
      <g>
       <use xlink:href="#me3d6d39844" x="42.28" y="199.003344" style="fill-opacity: 0; stroke: #000000; stroke-width: 0.6"/>
      </g>
     </g>
    </g>
    <g id="ytick_18">
     <g id="line2d_27">
      <g>
       <use xlink:href="#me3d6d39844" x="42.28" y="196.291528" style="fill-opacity: 0; stroke: #000000; stroke-width: 0.6"/>
      </g>
     </g>
    </g>
    <g id="ytick_19">
     <g id="line2d_28">
      <g>
       <use xlink:href="#me3d6d39844" x="42.28" y="193.942447" style="fill-opacity: 0; stroke: #000000; stroke-width: 0.6"/>
      </g>
     </g>
    </g>
    <g id="ytick_20">
     <g id="line2d_29">
      <g>
       <use xlink:href="#me3d6d39844" x="42.28" y="191.87041" style="fill-opacity: 0; stroke: #000000; stroke-width: 0.6"/>
      </g>
     </g>
    </g>
    <g id="ytick_21">
     <g id="line2d_30">
      <g>
       <use xlink:href="#me3d6d39844" x="42.28" y="177.823078" style="fill-opacity: 0; stroke: #000000; stroke-width: 0.6"/>
      </g>
     </g>
    </g>
    <g id="ytick_22">
     <g id="line2d_31">
      <g>
       <use xlink:href="#me3d6d39844" x="42.28" y="170.690144" style="fill-opacity: 0; stroke: #000000; stroke-width: 0.6"/>
      </g>
     </g>
    </g>
    <g id="ytick_23">
     <g id="line2d_32">
      <g>
       <use xlink:href="#me3d6d39844" x="42.28" y="165.629247" style="fill-opacity: 0; stroke: #000000; stroke-width: 0.6"/>
      </g>
     </g>
    </g>
    <g id="ytick_24">
     <g id="line2d_33">
      <g>
       <use xlink:href="#me3d6d39844" x="42.28" y="161.70371" style="fill-opacity: 0; stroke: #000000; stroke-width: 0.6"/>
      </g>
     </g>
    </g>
    <g id="ytick_25">
     <g id="line2d_34">
      <g>
       <use xlink:href="#me3d6d39844" x="42.28" y="158.496313" style="fill-opacity: 0; stroke: #000000; stroke-width: 0.6"/>
      </g>
     </g>
    </g>
    <g id="ytick_26">
     <g id="line2d_35">
      <g>
       <use xlink:href="#me3d6d39844" x="42.28" y="155.784497" style="fill-opacity: 0; stroke: #000000; stroke-width: 0.6"/>
      </g>
     </g>
    </g>
    <g id="ytick_27">
     <g id="line2d_36">
      <g>
       <use xlink:href="#me3d6d39844" x="42.28" y="153.435415" style="fill-opacity: 0; stroke: #000000; stroke-width: 0.6"/>
      </g>
     </g>
    </g>
    <g id="ytick_28">
     <g id="line2d_37">
      <g>
       <use xlink:href="#me3d6d39844" x="42.28" y="151.363379" style="fill-opacity: 0; stroke: #000000; stroke-width: 0.6"/>
      </g>
     </g>
    </g>
    <g id="ytick_29">
     <g id="line2d_38">
      <g>
       <use xlink:href="#me3d6d39844" x="42.28" y="137.316047" style="fill-opacity: 0; stroke: #000000; stroke-width: 0.6"/>
      </g>
     </g>
    </g>
    <g id="ytick_30">
     <g id="line2d_39">
      <g>
       <use xlink:href="#me3d6d39844" x="42.28" y="130.183113" style="fill-opacity: 0; stroke: #000000; stroke-width: 0.6"/>
      </g>
     </g>
    </g>
    <g id="ytick_31">
     <g id="line2d_40">
      <g>
       <use xlink:href="#me3d6d39844" x="42.28" y="125.122216" style="fill-opacity: 0; stroke: #000000; stroke-width: 0.6"/>
      </g>
     </g>
    </g>
    <g id="ytick_32">
     <g id="line2d_41">
      <g>
       <use xlink:href="#me3d6d39844" x="42.28" y="121.196679" style="fill-opacity: 0; stroke: #000000; stroke-width: 0.6"/>
      </g>
     </g>
    </g>
    <g id="ytick_33">
     <g id="line2d_42">
      <g>
       <use xlink:href="#me3d6d39844" x="42.28" y="117.989281" style="fill-opacity: 0; stroke: #000000; stroke-width: 0.6"/>
      </g>
     </g>
    </g>
    <g id="ytick_34">
     <g id="line2d_43">
      <g>
       <use xlink:href="#me3d6d39844" x="42.28" y="115.277466" style="fill-opacity: 0; stroke: #000000; stroke-width: 0.6"/>
      </g>
     </g>
    </g>
    <g id="ytick_35">
     <g id="line2d_44">
      <g>
       <use xlink:href="#me3d6d39844" x="42.28" y="112.928384" style="fill-opacity: 0; stroke: #000000; stroke-width: 0.6"/>
      </g>
     </g>
    </g>
    <g id="ytick_36">
     <g id="line2d_45">
      <g>
       <use xlink:href="#me3d6d39844" x="42.28" y="110.856347" style="fill-opacity: 0; stroke: #000000; stroke-width: 0.6"/>
      </g>
     </g>
    </g>
    <g id="ytick_37">
     <g id="line2d_46">
      <g>
       <use xlink:href="#me3d6d39844" x="42.28" y="96.809016" style="fill-opacity: 0; stroke: #000000; stroke-width: 0.6"/>
      </g>
     </g>
    </g>
    <g id="ytick_38">
     <g id="line2d_47">
      <g>
       <use xlink:href="#me3d6d39844" x="42.28" y="89.676081" style="fill-opacity: 0; stroke: #000000; stroke-width: 0.6"/>
      </g>
     </g>
    </g>
    <g id="ytick_39">
     <g id="line2d_48">
      <g>
       <use xlink:href="#me3d6d39844" x="42.28" y="84.615184" style="fill-opacity: 0; stroke: #000000; stroke-width: 0.6"/>
      </g>
     </g>
    </g>
    <g id="ytick_40">
     <g id="line2d_49">
      <g>
       <use xlink:href="#me3d6d39844" x="42.28" y="80.689647" style="fill-opacity: 0; stroke: #000000; stroke-width: 0.6"/>
      </g>
     </g>
    </g>
    <g id="ytick_41">
     <g id="line2d_50">
      <g>
       <use xlink:href="#me3d6d39844" x="42.28" y="77.48225" style="fill-opacity: 0; stroke: #000000; stroke-width: 0.6"/>
      </g>
     </g>
    </g>
    <g id="ytick_42">
     <g id="line2d_51">
      <g>
       <use xlink:href="#me3d6d39844" x="42.28" y="74.770434" style="fill-opacity: 0; stroke: #000000; stroke-width: 0.6"/>
      </g>
     </g>
    </g>
    <g id="ytick_43">
     <g id="line2d_52">
      <g>
       <use xlink:href="#me3d6d39844" x="42.28" y="72.421353" style="fill-opacity: 0; stroke: #000000; stroke-width: 0.6"/>
      </g>
     </g>
    </g>
    <g id="ytick_44">
     <g id="line2d_53">
      <g>
       <use xlink:href="#me3d6d39844" x="42.28" y="70.349316" style="fill-opacity: 0; stroke: #000000; stroke-width: 0.6"/>
      </g>
     </g>
    </g>
    <g id="ytick_45">
     <g id="line2d_54">
      <g>
       <use xlink:href="#me3d6d39844" x="42.28" y="56.301984" style="fill-opacity: 0; stroke: #000000; stroke-width: 0.6"/>
      </g>
     </g>
    </g>
    <g id="ytick_46">
     <g id="line2d_55">
      <g>
       <use xlink:href="#me3d6d39844" x="42.28" y="49.16905" style="fill-opacity: 0; stroke: #000000; stroke-width: 0.6"/>
      </g>
     </g>
    </g>
    <g id="ytick_47">
     <g id="line2d_56">
      <g>
       <use xlink:href="#me3d6d39844" x="42.28" y="44.108153" style="fill-opacity: 0; stroke: #000000; stroke-width: 0.6"/>
      </g>
     </g>
    </g>
    <g id="ytick_48">
     <g id="line2d_57">
      <g>
       <use xlink:href="#me3d6d39844" x="42.28" y="40.182616" style="fill-opacity: 0; stroke: #000000; stroke-width: 0.6"/>
      </g>
     </g>
    </g>
    <g id="ytick_49">
     <g id="line2d_58">
      <g>
       <use xlink:href="#me3d6d39844" x="42.28" y="36.975219" style="fill-opacity: 0; stroke: #000000; stroke-width: 0.6"/>
      </g>
     </g>
    </g>
    <g id="ytick_50">
     <g id="line2d_59">
      <g>
       <use xlink:href="#me3d6d39844" x="42.28" y="34.263403" style="fill-opacity: 0; stroke: #000000; stroke-width: 0.6"/>
      </g>
     </g>
    </g>
    <g id="ytick_51">
     <g id="line2d_60">
      <g>
       <use xlink:href="#me3d6d39844" x="42.28" y="31.914321" style="fill-opacity: 0; stroke: #000000; stroke-width: 0.6"/>
      </g>
     </g>
    </g>
    <g id="ytick_52">
     <g id="line2d_61">
      <g>
       <use xlink:href="#me3d6d39844" x="42.28" y="29.842285" style="fill-opacity: 0; stroke: #000000; stroke-width: 0.6"/>
      </g>
     </g>
    </g>
   </g>
   <g id="line2d_62">
    <path d="M 42.623741 34.438318 
L 43.65402 62.87271 
L 45.368014 92.616966 
L 47.761026 116.067403 
L 50.826495 133.895461 
L 54.55602 147.939079 
L 58.939378 159.448539 
L 63.964555 169.170489 
L 69.617778 177.563961 
L 75.88355 184.926683 
L 82.744699 191.46145 
L 90.182417 197.312003 
L 98.17632 202.583458 
L 106.704495 207.354561 
L 115.743569 211.685373 
L 125.268765 215.622302 
L 135.253975 219.201502 
L 145.671832 222.45125 
L 156.49378 225.393659 
L 167.690156 228.045939 
L 179.230273 230.421374 
L 191.082501 232.53007 
L 203.214351 234.379578 
L 215.592573 235.975401 
L 228.183239 237.321425 
L 240.951837 238.420294 
L 253.863371 239.273718 
L 266.882451 239.882746 
L 279.973392 240.24797 
L 293.100312 240.369682 
L 306.227233 240.24797 
L 319.318174 239.882746 
L 332.337254 239.273718 
L 345.248788 238.420294 
L 358.017386 237.321425 
L 370.608052 235.975401 
L 382.986274 234.379578 
L 395.118124 232.53007 
L 406.970352 230.421374 
L 418.510469 228.045939 
L 429.706845 225.393659 
L 440.528793 222.45125 
L 450.94665 219.201502 
L 460.93186 215.622302 
L 470.457056 211.685373 
L 479.49613 207.354561 
L 488.024305 202.583458 
L 496.018208 197.312003 
L 503.455926 191.46145 
L 510.317075 184.926683 
L 516.582847 177.563961 
L 522.23607 169.170489 
L 527.261247 159.448539 
L 531.644605 147.939079 
L 535.37413 133.895461 
L 538.439599 116.067403 
L 540.832611 92.616966 
L 542.546605 62.87271 
L 543.576884 34.438318 
" clip-path="url(#p4615c57ca0)" style="fill: none; stroke: #1f77b4; stroke-width: 1.5; stroke-linecap: square"/>
   </g>
   <g id="line2d_63">
    <defs>
     <path id="m4c9b8c760a" d="M 0 3 
C 0.795609 3 1.55874 2.683901 2.12132 2.12132 
C 2.683901 1.55874 3 0.795609 3 0 
C 3 -0.795609 2.683901 -1.55874 2.12132 -2.12132 
C 1.55874 -2.683901 0.795609 -3 0 -3 
C -0.795609 -3 -1.55874 -2.683901 -2.12132 -2.12132 
C -2.683901 -1.55874 -3 -0.795609 -3 0 
C -3 0.795609 -2.683901 1.55874 -2.12132 2.12132 
C -1.55874 2.683901 -0.795609 3 0 3 
z
" style="stroke: #ff7f0e"/>
    </defs>
    <g clip-path="url(#p4615c57ca0)">
     <use xlink:href="#m4c9b8c760a" x="42.623741" y="34.438318" style="fill-opacity: 0; stroke: #ff7f0e"/>
     <use xlink:href="#m4c9b8c760a" x="43.65402" y="62.87271" style="fill-opacity: 0; stroke: #ff7f0e"/>
     <use xlink:href="#m4c9b8c760a" x="45.368014" y="92.616966" style="fill-opacity: 0; stroke: #ff7f0e"/>
     <use xlink:href="#m4c9b8c760a" x="47.761026" y="116.067403" style="fill-opacity: 0; stroke: #ff7f0e"/>
     <use xlink:href="#m4c9b8c760a" x="50.826495" y="133.895461" style="fill-opacity: 0; stroke: #ff7f0e"/>
     <use xlink:href="#m4c9b8c760a" x="54.55602" y="147.939079" style="fill-opacity: 0; stroke: #ff7f0e"/>
     <use xlink:href="#m4c9b8c760a" x="58.939378" y="159.448539" style="fill-opacity: 0; stroke: #ff7f0e"/>
     <use xlink:href="#m4c9b8c760a" x="63.964555" y="169.170489" style="fill-opacity: 0; stroke: #ff7f0e"/>
     <use xlink:href="#m4c9b8c760a" x="69.617778" y="177.563961" style="fill-opacity: 0; stroke: #ff7f0e"/>
     <use xlink:href="#m4c9b8c760a" x="75.88355" y="184.926683" style="fill-opacity: 0; stroke: #ff7f0e"/>
     <use xlink:href="#m4c9b8c760a" x="82.744699" y="191.46145" style="fill-opacity: 0; stroke: #ff7f0e"/>
     <use xlink:href="#m4c9b8c760a" x="90.182417" y="197.312003" style="fill-opacity: 0; stroke: #ff7f0e"/>
     <use xlink:href="#m4c9b8c760a" x="98.17632" y="202.583458" style="fill-opacity: 0; stroke: #ff7f0e"/>
     <use xlink:href="#m4c9b8c760a" x="106.704495" y="207.354561" style="fill-opacity: 0; stroke: #ff7f0e"/>
     <use xlink:href="#m4c9b8c760a" x="115.743569" y="211.685373" style="fill-opacity: 0; stroke: #ff7f0e"/>
     <use xlink:href="#m4c9b8c760a" x="125.268765" y="215.622302" style="fill-opacity: 0; stroke: #ff7f0e"/>
     <use xlink:href="#m4c9b8c760a" x="135.253975" y="219.201502" style="fill-opacity: 0; stroke: #ff7f0e"/>
     <use xlink:href="#m4c9b8c760a" x="145.671832" y="222.45125" style="fill-opacity: 0; stroke: #ff7f0e"/>
     <use xlink:href="#m4c9b8c760a" x="156.49378" y="225.393659" style="fill-opacity: 0; stroke: #ff7f0e"/>
     <use xlink:href="#m4c9b8c760a" x="167.690156" y="228.045939" style="fill-opacity: 0; stroke: #ff7f0e"/>
     <use xlink:href="#m4c9b8c760a" x="179.230273" y="230.421374" style="fill-opacity: 0; stroke: #ff7f0e"/>
     <use xlink:href="#m4c9b8c760a" x="191.082501" y="232.53007" style="fill-opacity: 0; stroke: #ff7f0e"/>
     <use xlink:href="#m4c9b8c760a" x="203.214351" y="234.379578" style="fill-opacity: 0; stroke: #ff7f0e"/>
     <use xlink:href="#m4c9b8c760a" x="215.592573" y="235.975401" style="fill-opacity: 0; stroke: #ff7f0e"/>
     <use xlink:href="#m4c9b8c760a" x="228.183239" y="237.321425" style="fill-opacity: 0; stroke: #ff7f0e"/>
     <use xlink:href="#m4c9b8c760a" x="240.951837" y="238.420294" style="fill-opacity: 0; stroke: #ff7f0e"/>
     <use xlink:href="#m4c9b8c760a" x="253.863371" y="239.273718" style="fill-opacity: 0; stroke: #ff7f0e"/>
     <use xlink:href="#m4c9b8c760a" x="266.882451" y="239.882746" style="fill-opacity: 0; stroke: #ff7f0e"/>
     <use xlink:href="#m4c9b8c760a" x="279.973392" y="240.24797" style="fill-opacity: 0; stroke: #ff7f0e"/>
     <use xlink:href="#m4c9b8c760a" x="293.100312" y="240.369682" style="fill-opacity: 0; stroke: #ff7f0e"/>
     <use xlink:href="#m4c9b8c760a" x="306.227233" y="240.24797" style="fill-opacity: 0; stroke: #ff7f0e"/>
     <use xlink:href="#m4c9b8c760a" x="319.318174" y="239.882746" style="fill-opacity: 0; stroke: #ff7f0e"/>
     <use xlink:href="#m4c9b8c760a" x="332.337254" y="239.273718" style="fill-opacity: 0; stroke: #ff7f0e"/>
     <use xlink:href="#m4c9b8c760a" x="345.248788" y="238.420294" style="fill-opacity: 0; stroke: #ff7f0e"/>
     <use xlink:href="#m4c9b8c760a" x="358.017386" y="237.321425" style="fill-opacity: 0; stroke: #ff7f0e"/>
     <use xlink:href="#m4c9b8c760a" x="370.608052" y="235.975401" style="fill-opacity: 0; stroke: #ff7f0e"/>
     <use xlink:href="#m4c9b8c760a" x="382.986274" y="234.379578" style="fill-opacity: 0; stroke: #ff7f0e"/>
     <use xlink:href="#m4c9b8c760a" x="395.118124" y="232.53007" style="fill-opacity: 0; stroke: #ff7f0e"/>
     <use xlink:href="#m4c9b8c760a" x="406.970352" y="230.421374" style="fill-opacity: 0; stroke: #ff7f0e"/>
     <use xlink:href="#m4c9b8c760a" x="418.510469" y="228.045939" style="fill-opacity: 0; stroke: #ff7f0e"/>
     <use xlink:href="#m4c9b8c760a" x="429.706845" y="225.393659" style="fill-opacity: 0; stroke: #ff7f0e"/>
     <use xlink:href="#m4c9b8c760a" x="440.528793" y="222.45125" style="fill-opacity: 0; stroke: #ff7f0e"/>
     <use xlink:href="#m4c9b8c760a" x="450.94665" y="219.201502" style="fill-opacity: 0; stroke: #ff7f0e"/>
     <use xlink:href="#m4c9b8c760a" x="460.93186" y="215.622302" style="fill-opacity: 0; stroke: #ff7f0e"/>
     <use xlink:href="#m4c9b8c760a" x="470.457056" y="211.685373" style="fill-opacity: 0; stroke: #ff7f0e"/>
     <use xlink:href="#m4c9b8c760a" x="479.49613" y="207.354561" style="fill-opacity: 0; stroke: #ff7f0e"/>
     <use xlink:href="#m4c9b8c760a" x="488.024305" y="202.583458" style="fill-opacity: 0; stroke: #ff7f0e"/>
     <use xlink:href="#m4c9b8c760a" x="496.018208" y="197.312003" style="fill-opacity: 0; stroke: #ff7f0e"/>
     <use xlink:href="#m4c9b8c760a" x="503.455926" y="191.46145" style="fill-opacity: 0; stroke: #ff7f0e"/>
     <use xlink:href="#m4c9b8c760a" x="510.317075" y="184.926683" style="fill-opacity: 0; stroke: #ff7f0e"/>
     <use xlink:href="#m4c9b8c760a" x="516.582847" y="177.563961" style="fill-opacity: 0; stroke: #ff7f0e"/>
     <use xlink:href="#m4c9b8c760a" x="522.23607" y="169.170489" style="fill-opacity: 0; stroke: #ff7f0e"/>
     <use xlink:href="#m4c9b8c760a" x="527.261247" y="159.448539" style="fill-opacity: 0; stroke: #ff7f0e"/>
     <use xlink:href="#m4c9b8c760a" x="531.644605" y="147.939079" style="fill-opacity: 0; stroke: #ff7f0e"/>
     <use xlink:href="#m4c9b8c760a" x="535.37413" y="133.895461" style="fill-opacity: 0; stroke: #ff7f0e"/>
     <use xlink:href="#m4c9b8c760a" x="538.439599" y="116.067403" style="fill-opacity: 0; stroke: #ff7f0e"/>
     <use xlink:href="#m4c9b8c760a" x="540.832611" y="92.616966" style="fill-opacity: 0; stroke: #ff7f0e"/>
     <use xlink:href="#m4c9b8c760a" x="542.546605" y="62.87271" style="fill-opacity: 0; stroke: #ff7f0e"/>
     <use xlink:href="#m4c9b8c760a" x="543.576884" y="34.438318" style="fill-opacity: 0; stroke: #ff7f0e"/>
    </g>
   </g>
   <g id="patch_3">
    <path d="M 42.28 250.66625 
L 42.28 24.14175 
" style="fill: none; stroke: #000000; stroke-width: 0.8; stroke-linejoin: miter; stroke-linecap: square"/>
   </g>
   <g id="patch_4">
    <path d="M 543.920625 250.66625 
L 543.920625 24.14175 
" style="fill: none; stroke: #000000; stroke-width: 0.8; stroke-linejoin: miter; stroke-linecap: square"/>
   </g>
   <g id="patch_5">
    <path d="M 42.28 250.66625 
L 543.920625 250.66625 
" style="fill: none; stroke: #000000; stroke-width: 0.8; stroke-linejoin: miter; stroke-linecap: square"/>
   </g>
   <g id="patch_6">
    <path d="M 42.28 24.14175 
L 543.920625 24.14175 
" style="fill: none; stroke: #000000; stroke-width: 0.8; stroke-linejoin: miter; stroke-linecap: square"/>
   </g>
   <g id="text_16">
    <!-- absolute value of eigenmode N (log scale) -->
    <g transform="translate(139.928187 18.14175) scale(0.144 -0.144)">
     <defs>
      <path id="DejaVuSerif-61" d="M 2547 1044 
L 2547 1747 
L 1806 1747 
Q 1378 1747 1168 1562 
Q 959 1378 959 997 
Q 959 650 1171 447 
Q 1384 244 1747 244 
Q 2106 244 2326 466 
Q 2547 688 2547 1044 
z
M 3122 2075 
L 3122 331 
L 3634 331 
L 3634 0 
L 2547 0 
L 2547 359 
Q 2356 128 2106 18 
Q 1856 -91 1522 -91 
Q 969 -91 644 203 
Q 319 497 319 997 
Q 319 1513 691 1797 
Q 1063 2081 1741 2081 
L 2547 2081 
L 2547 2309 
Q 2547 2688 2317 2895 
Q 2088 3103 1672 3103 
Q 1328 3103 1125 2947 
Q 922 2791 872 2484 
L 575 2484 
L 575 3156 
Q 875 3284 1158 3348 
Q 1441 3413 1709 3413 
Q 2400 3413 2761 3070 
Q 3122 2728 3122 2075 
z
" transform="scale(0.015625)"/>
      <path id="DejaVuSerif-62" d="M 738 331 
L 738 4531 
L 184 4531 
L 184 4863 
L 1313 4863 
L 1313 2803 
Q 1481 3116 1742 3264 
Q 2003 3413 2388 3413 
Q 3000 3413 3387 2928 
Q 3775 2444 3775 1663 
Q 3775 881 3387 395 
Q 3000 -91 2388 -91 
Q 2003 -91 1742 57 
Q 1481 206 1313 519 
L 1313 0 
L 184 0 
L 184 331 
L 738 331 
z
M 1313 1497 
Q 1313 897 1542 583 
Q 1772 269 2209 269 
Q 2650 269 2876 622 
Q 3103 975 3103 1663 
Q 3103 2353 2876 2703 
Q 2650 3053 2209 3053 
Q 1772 3053 1542 2737 
Q 1313 2422 1313 1825 
L 1313 1497 
z
" transform="scale(0.015625)"/>
      <path id="DejaVuSerif-73" d="M 359 184 
L 359 959 
L 691 959 
Q 703 588 923 403 
Q 1144 219 1575 219 
Q 1963 219 2166 364 
Q 2369 509 2369 788 
Q 2369 1006 2220 1140 
Q 2072 1275 1594 1428 
L 1178 1569 
Q 750 1706 558 1912 
Q 366 2119 366 2438 
Q 366 2894 700 3153 
Q 1034 3413 1625 3413 
Q 1888 3413 2178 3344 
Q 2469 3275 2778 3144 
L 2778 2419 
L 2447 2419 
Q 2434 2741 2221 2922 
Q 2009 3103 1644 3103 
Q 1281 3103 1095 2975 
Q 909 2847 909 2591 
Q 909 2381 1050 2254 
Q 1191 2128 1613 1997 
L 2069 1856 
Q 2541 1709 2748 1489 
Q 2956 1269 2956 922 
Q 2956 450 2595 179 
Q 2234 -91 1600 -91 
Q 1278 -91 972 -22 
Q 666 47 359 184 
z
" transform="scale(0.015625)"/>
      <path id="DejaVuSerif-6f" d="M 1925 219 
Q 2388 219 2623 584 
Q 2859 950 2859 1663 
Q 2859 2375 2623 2739 
Q 2388 3103 1925 3103 
Q 1463 3103 1227 2739 
Q 991 2375 991 1663 
Q 991 950 1228 584 
Q 1466 219 1925 219 
z
M 1925 -91 
Q 1200 -91 759 389 
Q 319 869 319 1663 
Q 319 2456 758 2934 
Q 1197 3413 1925 3413 
Q 2653 3413 3092 2934 
Q 3531 2456 3531 1663 
Q 3531 869 3092 389 
Q 2653 -91 1925 -91 
z
" transform="scale(0.015625)"/>
      <path id="DejaVuSerif-6c" d="M 1313 331 
L 1856 331 
L 1856 0 
L 184 0 
L 184 331 
L 738 331 
L 738 4531 
L 184 4531 
L 184 4863 
L 1313 4863 
L 1313 331 
z
" transform="scale(0.015625)"/>
      <path id="DejaVuSerif-75" d="M 2266 3322 
L 3341 3322 
L 3341 331 
L 3884 331 
L 3884 0 
L 2766 0 
L 2766 588 
Q 2606 256 2353 82 
Q 2100 -91 1766 -91 
Q 1213 -91 952 223 
Q 691 538 691 1209 
L 691 2988 
L 172 2988 
L 172 3322 
L 1269 3322 
L 1269 1388 
Q 1269 781 1417 556 
Q 1566 331 1947 331 
Q 2347 331 2556 625 
Q 2766 919 2766 1478 
L 2766 2988 
L 2266 2988 
L 2266 3322 
z
" transform="scale(0.015625)"/>
      <path id="DejaVuSerif-74" d="M 691 2988 
L 184 2988 
L 184 3322 
L 691 3322 
L 691 4353 
L 1269 4353 
L 1269 3322 
L 2350 3322 
L 2350 2988 
L 1269 2988 
L 1269 878 
Q 1269 456 1350 337 
Q 1431 219 1650 219 
Q 1875 219 1978 351 
Q 2081 484 2088 781 
L 2522 781 
Q 2497 328 2275 118 
Q 2053 -91 1600 -91 
Q 1103 -91 897 129 
Q 691 350 691 878 
L 691 2988 
z
" transform="scale(0.015625)"/>
      <path id="DejaVuSerif-65" d="M 3469 1600 
L 991 1600 
L 991 1575 
Q 991 903 1244 561 
Q 1497 219 1991 219 
Q 2369 219 2611 417 
Q 2853 616 2950 1006 
L 3413 1006 
Q 3275 459 2904 184 
Q 2534 -91 1931 -91 
Q 1203 -91 761 389 
Q 319 869 319 1663 
Q 319 2450 753 2931 
Q 1188 3413 1894 3413 
Q 2647 3413 3050 2948 
Q 3453 2484 3469 1600 
z
M 2791 1931 
Q 2772 2513 2545 2808 
Q 2319 3103 1894 3103 
Q 1497 3103 1269 2806 
Q 1041 2509 991 1931 
L 2791 1931 
z
" transform="scale(0.015625)"/>
      <path id="DejaVuSerif-20" transform="scale(0.015625)"/>
      <path id="DejaVuSerif-76" d="M 1581 0 
L 359 2988 
L -19 2988 
L -19 3322 
L 1509 3322 
L 1509 2988 
L 978 2988 
L 1913 703 
L 2847 2988 
L 2350 2988 
L 2350 3322 
L 3597 3322 
L 3597 2988 
L 3225 2988 
L 2003 0 
L 1581 0 
z
" transform="scale(0.015625)"/>
      <path id="DejaVuSerif-66" d="M 2753 4078 
L 2450 4078 
Q 2447 4313 2317 4434 
Q 2188 4556 1941 4556 
Q 1619 4556 1487 4379 
Q 1356 4203 1356 3750 
L 1356 3322 
L 2284 3322 
L 2284 2988 
L 1356 2988 
L 1356 331 
L 2094 331 
L 2094 0 
L 231 0 
L 231 331 
L 781 331 
L 781 2988 
L 231 2988 
L 231 3322 
L 781 3322 
L 781 3738 
Q 781 4294 1070 4578 
Q 1359 4863 1919 4863 
Q 2128 4863 2337 4825 
Q 2547 4788 2753 4709 
L 2753 4078 
z
" transform="scale(0.015625)"/>
      <path id="DejaVuSerif-69" d="M 622 4353 
Q 622 4497 726 4603 
Q 831 4709 978 4709 
Q 1122 4709 1226 4603 
Q 1331 4497 1331 4353 
Q 1331 4206 1228 4103 
Q 1125 4000 978 4000 
Q 831 4000 726 4103 
Q 622 4206 622 4353 
z
M 1356 331 
L 1900 331 
L 1900 0 
L 231 0 
L 231 331 
L 781 331 
L 781 2988 
L 231 2988 
L 231 3322 
L 1356 3322 
L 1356 331 
z
" transform="scale(0.015625)"/>
      <path id="DejaVuSerif-67" d="M 3359 2988 
L 3359 72 
Q 3359 -644 2965 -1033 
Q 2572 -1422 1844 -1422 
Q 1516 -1422 1216 -1362 
Q 916 -1303 641 -1184 
L 641 -488 
L 941 -488 
Q 997 -813 1206 -963 
Q 1416 -1113 1806 -1113 
Q 2313 -1113 2548 -827 
Q 2784 -541 2784 72 
L 2784 519 
Q 2616 206 2355 57 
Q 2094 -91 1709 -91 
Q 1097 -91 708 395 
Q 319 881 319 1663 
Q 319 2444 706 2928 
Q 1094 3413 1709 3413 
Q 2094 3413 2355 3264 
Q 2616 3116 2784 2803 
L 2784 3322 
L 3909 3322 
L 3909 2988 
L 3359 2988 
z
M 2784 1825 
Q 2784 2422 2554 2737 
Q 2325 3053 1888 3053 
Q 1444 3053 1217 2703 
Q 991 2353 991 1663 
Q 991 975 1217 622 
Q 1444 269 1888 269 
Q 2325 269 2554 583 
Q 2784 897 2784 1497 
L 2784 1825 
z
" transform="scale(0.015625)"/>
      <path id="DejaVuSerif-6e" d="M 263 0 
L 263 331 
L 781 331 
L 781 2988 
L 231 2988 
L 231 3322 
L 1356 3322 
L 1356 2731 
Q 1516 3069 1770 3241 
Q 2025 3413 2363 3413 
Q 2913 3413 3172 3097 
Q 3431 2781 3431 2113 
L 3431 331 
L 3944 331 
L 3944 0 
L 2356 0 
L 2356 331 
L 2853 331 
L 2853 1931 
Q 2853 2541 2703 2767 
Q 2553 2994 2175 2994 
Q 1775 2994 1565 2701 
Q 1356 2409 1356 1850 
L 1356 331 
L 1856 331 
L 1856 0 
L 263 0 
z
" transform="scale(0.015625)"/>
      <path id="DejaVuSerif-6d" d="M 3316 2675 
Q 3481 3041 3739 3227 
Q 3997 3413 4341 3413 
Q 4863 3413 5119 3089 
Q 5375 2766 5375 2113 
L 5375 331 
L 5894 331 
L 5894 0 
L 4300 0 
L 4300 331 
L 4800 331 
L 4800 2047 
Q 4800 2556 4650 2772 
Q 4500 2988 4153 2988 
Q 3769 2988 3567 2697 
Q 3366 2406 3366 1850 
L 3366 331 
L 3866 331 
L 3866 0 
L 2291 0 
L 2291 331 
L 2791 331 
L 2791 2069 
Q 2791 2566 2641 2777 
Q 2491 2988 2144 2988 
Q 1759 2988 1557 2697 
Q 1356 2406 1356 1850 
L 1356 331 
L 1856 331 
L 1856 0 
L 263 0 
L 263 331 
L 781 331 
L 781 2994 
L 231 2994 
L 231 3322 
L 1356 3322 
L 1356 2731 
Q 1516 3063 1762 3238 
Q 2009 3413 2322 3413 
Q 2709 3413 2968 3220 
Q 3228 3028 3316 2675 
z
" transform="scale(0.015625)"/>
      <path id="DejaVuSerif-64" d="M 3359 331 
L 3909 331 
L 3909 0 
L 2784 0 
L 2784 519 
Q 2616 206 2355 57 
Q 2094 -91 1709 -91 
Q 1097 -91 708 395 
Q 319 881 319 1663 
Q 319 2444 706 2928 
Q 1094 3413 1709 3413 
Q 2094 3413 2355 3264 
Q 2616 3116 2784 2803 
L 2784 4531 
L 2241 4531 
L 2241 4863 
L 3359 4863 
L 3359 331 
z
M 2784 1497 
L 2784 1825 
Q 2784 2422 2554 2737 
Q 2325 3053 1888 3053 
Q 1444 3053 1217 2703 
Q 991 2353 991 1663 
Q 991 975 1217 622 
Q 1444 269 1888 269 
Q 2325 269 2554 583 
Q 2784 897 2784 1497 
z
" transform="scale(0.015625)"/>
      <path id="DejaVuSerif-4e" d="M 313 0 
L 313 331 
L 941 331 
L 941 4331 
L 313 4331 
L 313 4666 
L 1509 4666 
L 4306 984 
L 4306 4331 
L 3681 4331 
L 3681 4666 
L 5319 4666 
L 5319 4331 
L 4691 4331 
L 4691 -91 
L 4313 -91 
L 1325 3841 
L 1325 331 
L 1953 331 
L 1953 0 
L 313 0 
z
" transform="scale(0.015625)"/>
      <path id="DejaVuSerif-28" d="M 2041 -997 
Q 1281 -656 893 83 
Q 506 822 506 1931 
Q 506 3044 893 3783 
Q 1281 4522 2041 4863 
L 2041 4556 
Q 1559 4225 1350 3623 
Q 1141 3022 1141 1931 
Q 1141 844 1350 242 
Q 1559 -359 2041 -691 
L 2041 -997 
z
" transform="scale(0.015625)"/>
      <path id="DejaVuSerif-63" d="M 3291 997 
Q 3169 466 2822 187 
Q 2475 -91 1925 -91 
Q 1200 -91 759 389 
Q 319 869 319 1663 
Q 319 2459 759 2936 
Q 1200 3413 1925 3413 
Q 2241 3413 2553 3339 
Q 2866 3266 3181 3116 
L 3181 2266 
L 2847 2266 
Q 2781 2703 2561 2903 
Q 2341 3103 1931 3103 
Q 1466 3103 1228 2742 
Q 991 2381 991 1663 
Q 991 944 1227 581 
Q 1463 219 1931 219 
Q 2303 219 2525 412 
Q 2747 606 2828 997 
L 3291 997 
z
" transform="scale(0.015625)"/>
      <path id="DejaVuSerif-29" d="M 453 -997 
L 453 -691 
Q 934 -359 1145 242 
Q 1356 844 1356 1931 
Q 1356 3022 1145 3623 
Q 934 4225 453 4556 
L 453 4863 
Q 1216 4522 1603 3783 
Q 1991 3044 1991 1931 
Q 1991 822 1603 83 
Q 1216 -656 453 -997 
z
" transform="scale(0.015625)"/>
     </defs>
     <use xlink:href="#DejaVuSerif-61"/>
     <use xlink:href="#DejaVuSerif-62" x="59.619141"/>
     <use xlink:href="#DejaVuSerif-73" x="123.632812"/>
     <use xlink:href="#DejaVuSerif-6f" x="174.951172"/>
     <use xlink:href="#DejaVuSerif-6c" x="235.15625"/>
     <use xlink:href="#DejaVuSerif-75" x="267.138672"/>
     <use xlink:href="#DejaVuSerif-74" x="331.542969"/>
     <use xlink:href="#DejaVuSerif-65" x="371.728516"/>
     <use xlink:href="#DejaVuSerif-20" x="430.908203"/>
     <use xlink:href="#DejaVuSerif-76" x="462.695312"/>
     <use xlink:href="#DejaVuSerif-61" x="519.189453"/>
     <use xlink:href="#DejaVuSerif-6c" x="578.808594"/>
     <use xlink:href="#DejaVuSerif-75" x="610.791016"/>
     <use xlink:href="#DejaVuSerif-65" x="675.195312"/>
     <use xlink:href="#DejaVuSerif-20" x="734.375"/>
     <use xlink:href="#DejaVuSerif-6f" x="766.162109"/>
     <use xlink:href="#DejaVuSerif-66" x="826.367188"/>
     <use xlink:href="#DejaVuSerif-20" x="863.378906"/>
     <use xlink:href="#DejaVuSerif-65" x="895.166016"/>
     <use xlink:href="#DejaVuSerif-69" x="954.345703"/>
     <use xlink:href="#DejaVuSerif-67" x="986.328125"/>
     <use xlink:href="#DejaVuSerif-65" x="1050.341797"/>
     <use xlink:href="#DejaVuSerif-6e" x="1109.521484"/>
     <use xlink:href="#DejaVuSerif-6d" x="1173.925781"/>
     <use xlink:href="#DejaVuSerif-6f" x="1268.75"/>
     <use xlink:href="#DejaVuSerif-64" x="1328.955078"/>
     <use xlink:href="#DejaVuSerif-65" x="1392.96875"/>
     <use xlink:href="#DejaVuSerif-20" x="1452.148438"/>
     <use xlink:href="#DejaVuSerif-4e" x="1483.935547"/>
     <use xlink:href="#DejaVuSerif-20" x="1571.435547"/>
     <use xlink:href="#DejaVuSerif-28" x="1603.222656"/>
     <use xlink:href="#DejaVuSerif-6c" x="1642.236328"/>
     <use xlink:href="#DejaVuSerif-6f" x="1674.21875"/>
     <use xlink:href="#DejaVuSerif-67" x="1734.423828"/>
     <use xlink:href="#DejaVuSerif-20" x="1798.4375"/>
     <use xlink:href="#DejaVuSerif-73" x="1830.224609"/>
     <use xlink:href="#DejaVuSerif-63" x="1881.542969"/>
     <use xlink:href="#DejaVuSerif-61" x="1937.548828"/>
     <use xlink:href="#DejaVuSerif-6c" x="1997.167969"/>
     <use xlink:href="#DejaVuSerif-65" x="2029.150391"/>
     <use xlink:href="#DejaVuSerif-29" x="2088.330078"/>
    </g>
   </g>
  </g>
 </g>
 <defs>
  <clipPath id="p4615c57ca0">
   <rect x="42.28" y="24.14175" width="501.640625" height="226.5245"/>
  </clipPath>
 </defs>
</svg>