<?xml version="1.0" encoding="utf-8" standalone="no"?>
<!DOCTYPE svg PUBLIC "-//W3C//DTD SVG 1.1//EN"
  "http://www.w3.org/Graphics/SVG/1.1/DTD/svg11.dtd">
<svg xmlns:xlink="http://www.w3.org/1999/xlink" width="509.578125pt" height="267.95625pt" viewBox="0 0 509.578125 267.95625" xmlns="http://www.w3.org/2000/svg" version="1.1">
 <metadata>
  <rdf:RDF xmlns:dc="http://purl.org/dc/elements/1.1/" xmlns:cc="http://creativecommons.org/ns#" xmlns:rdf="http://www.w3.org/1999/02/22-rdf-syntax-ns#">
   <cc:Work>
    <dc:type rdf:resource="http://purl.org/dc/dcmitype/StillImage"/>
    <dc:date>2026-01-19T07:23:25.085441</dc:date>
    <dc:format>image/svg+xml</dc:format>
    <dc:creator>
     <cc:Agent>
      <dc:title>Matplotlib v3.10.5, https://matplotlib.org/</dc:title>
     </cc:Agent>
    </dc:creator>
   </cc:Work>
  </rdf:RDF>
 </metadata>
 <defs>
  <style type="text/css">*{stroke-linejoin: round; stroke-linecap: butt}</style>
 </defs>
 <g id="figure_1">
  <g id="patch_1">
   <path d="M 0 267.95625 
L 509.578125 267.95625 
L 509.578125 0 
L 0 0 
z
" style="fill: #ffffff"/>
  </g>
  <g id="axes_1">
   <g id="patch_2">
    <path d="M 44.845313 244.078125 
L 491.245312 244.078125 
L 491.245312 22.318125 
L 44.845313 22.318125 
z
" style="fill: #ffffff"/>
   </g>
   <g id="matplotlib.axis_1">
    <g id="xtick_1">
     <g id="line2d_1">
      <defs>
       <path id="m58a19b98c8" d="M 0 0 
L 0 3.5 
" style="stroke: #000000; stroke-width: 0.8"/>
      </defs>
      <g>
       <use xlink:href="#m58a19b98c8" x="44.845313" y="244.078125" style="stroke: #000000; stroke-width: 0.8"/>
      </g>
     </g>
     <g id="text_1">
      <!-- −1.00 -->
      <g transform="translate(29.522656 258.676562) scale(0.1 -0.1)">
       <defs>
        <path id="DejaVuSans-2212" d="M 678 2272 
L 4684 2272 
L 4684 1741 
L 678 1741 
L 678 2272 
z
" transform="scale(0.015625)"/>
        <path id="DejaVuSans-31" d="M 794 531 
L 1825 531 
L 1825 4091 
L 703 3866 
L 703 4441 
L 1819 4666 
L 2450 4666 
L 2450 531 
L 3481 531 
L 3481 0 
L 794 0 
L 794 531 
z
" transform="scale(0.015625)"/>
        <path id="DejaVuSans-2e" d="M 684 794 
L 1344 794 
L 1344 0 
L 684 0 
L 684 794 
z
" transform="scale(0.015625)"/>
        <path id="DejaVuSans-30" d="M 2034 4250 
Q 1547 4250 1301 3770 
Q 1056 3291 1056 2328 
Q 1056 1369 1301 889 
Q 1547 409 2034 409 
Q 2525 409 2770 889 
Q 3016 1369 3016 2328 
Q 3016 3291 2770 3770 
Q 2525 4250 2034 4250 
z
M 2034 4750 
Q 2819 4750 3233 4129 
Q 3647 3509 3647 2328 
Q 3647 1150 3233 529 
Q 2819 -91 2034 -91 
Q 1250 -91 836 529 
Q 422 1150 422 2328 
Q 422 3509 836 4129 
Q 1250 4750 2034 4750 
z
" transform="scale(0.015625)"/>
       </defs>
       <use xlink:href="#DejaVuSans-2212"/>
       <use xlink:href="#DejaVuSans-31" transform="translate(83.789062 0)"/>
       <use xlink:href="#DejaVuSans-2e" transform="translate(147.412109 0)"/>
       <use xlink:href="#DejaVuSans-30" transform="translate(179.199219 0)"/>
       <use xlink:href="#DejaVuSans-30" transform="translate(242.822266 0)"/>
      </g>
     </g>
    </g>
    <g id="xtick_2">
     <g id="line2d_2">
      <g>
       <use xlink:href="#m58a19b98c8" x="100.645313" y="244.078125" style="stroke: #000000; stroke-width: 0.8"/>
      </g>
     </g>
     <g id="text_2">
      <!-- −0.75 -->
      <g transform="translate(85.322656 258.676562) scale(0.1 -0.1)">
       <defs>
        <path id="DejaVuSans-37" d="M 525 4666 
L 3525 4666 
L 3525 4397 
L 1831 0 
L 1172 0 
L 2766 4134 
L 525 4134 
L 525 4666 
z
" transform="scale(0.015625)"/>
        <path id="DejaVuSans-35" d="M 691 4666 
L 3169 4666 
L 3169 4134 
L 1269 4134 
L 1269 2991 
Q 1406 3038 1543 3061 
Q 1681 3084 1819 3084 
Q 2600 3084 3056 2656 
Q 3513 2228 3513 1497 
Q 3513 744 3044 326 
Q 2575 -91 1722 -91 
Q 1428 -91 1123 -41 
Q 819 9 494 109 
L 494 744 
Q 775 591 1075 516 
Q 1375 441 1709 441 
Q 2250 441 2565 725 
Q 2881 1009 2881 1497 
Q 2881 1984 2565 2268 
Q 2250 2553 1709 2553 
Q 1456 2553 1204 2497 
Q 953 2441 691 2322 
L 691 4666 
z
" transform="scale(0.015625)"/>
       </defs>
       <use xlink:href="#DejaVuSans-2212"/>
       <use xlink:href="#DejaVuSans-30" transform="translate(83.789062 0)"/>
       <use xlink:href="#DejaVuSans-2e" transform="translate(147.412109 0)"/>
       <use xlink:href="#DejaVuSans-37" transform="translate(179.199219 0)"/>
       <use xlink:href="#DejaVuSans-35" transform="translate(242.822266 0)"/>
      </g>
     </g>
    </g>
    <g id="xtick_3">
     <g id="line2d_3">
      <g>
       <use xlink:href="#m58a19b98c8" x="156.445313" y="244.078125" style="stroke: #000000; stroke-width: 0.8"/>
      </g>
     </g>
     <g id="text_3">
      <!-- −0.50 -->
      <g transform="translate(141.122656 258.676562) scale(0.1 -0.1)">
       <use xlink:href="#DejaVuSans-2212"/>
       <use xlink:href="#DejaVuSans-30" transform="translate(83.789062 0)"/>
       <use xlink:href="#DejaVuSans-2e" transform="translate(147.412109 0)"/>
       <use xlink:href="#DejaVuSans-35" transform="translate(179.199219 0)"/>
       <use xlink:href="#DejaVuSans-30" transform="translate(242.822266 0)"/>
      </g>
     </g>
    </g>
    <g id="xtick_4">
     <g id="line2d_4">
      <g>
       <use xlink:href="#m58a19b98c8" x="212.245313" y="244.078125" style="stroke: #000000; stroke-width: 0.8"/>
      </g>
     </g>
     <g id="text_4">
      <!-- −0.25 -->
      <g transform="translate(196.922656 258.676562) scale(0.1 -0.1)">
       <defs>
        <path id="DejaVuSans-32" d="M 1228 531 
L 3431 531 
L 3431 0 
L 469 0 
L 469 531 
Q 828 903 1448 1529 
Q 2069 2156 2228 2338 
Q 2531 2678 2651 2914 
Q 2772 3150 2772 3378 
Q 2772 3750 2511 3984 
Q 2250 4219 1831 4219 
Q 1534 4219 1204 4116 
Q 875 4013 500 3803 
L 500 4441 
Q 881 4594 1212 4672 
Q 1544 4750 1819 4750 
Q 2544 4750 2975 4387 
Q 3406 4025 3406 3419 
Q 3406 3131 3298 2873 
Q 3191 2616 2906 2266 
Q 2828 2175 2409 1742 
Q 1991 1309 1228 531 
z
" transform="scale(0.015625)"/>
       </defs>
       <use xlink:href="#DejaVuSans-2212"/>
       <use xlink:href="#DejaVuSans-30" transform="translate(83.789062 0)"/>
       <use xlink:href="#DejaVuSans-2e" transform="translate(147.412109 0)"/>
       <use xlink:href="#DejaVuSans-32" transform="translate(179.199219 0)"/>
       <use xlink:href="#DejaVuSans-35" transform="translate(242.822266 0)"/>
      </g>
     </g>
    </g>
    <g id="xtick_5">
     <g id="line2d_5">
      <g>
       <use xlink:href="#m58a19b98c8" x="268.045313" y="244.078125" style="stroke: #000000; stroke-width: 0.8"/>
      </g>
     </g>
     <g id="text_5">
      <!-- 0.00 -->
      <g transform="translate(256.9125 258.676562) scale(0.1 -0.1)">
       <use xlink:href="#DejaVuSans-30"/>
       <use xlink:href="#DejaVuSans-2e" transform="translate(63.623047 0)"/>
       <use xlink:href="#DejaVuSans-30" transform="translate(95.410156 0)"/>
       <use xlink:href="#DejaVuSans-30" transform="translate(159.033203 0)"/>
      </g>
     </g>
    </g>
    <g id="xtick_6">
     <g id="line2d_6">
      <g>
       <use xlink:href="#m58a19b98c8" x="323.845313" y="244.078125" style="stroke: #000000; stroke-width: 0.8"/>
      </g>
     </g>
     <g id="text_6">
      <!-- 0.25 -->
      <g transform="translate(312.7125 258.676562) scale(0.1 -0.1)">
       <use xlink:href="#DejaVuSans-30"/>
       <use xlink:href="#DejaVuSans-2e" transform="translate(63.623047 0)"/>
       <use xlink:href="#DejaVuSans-32" transform="translate(95.410156 0)"/>
       <use xlink:href="#DejaVuSans-35" transform="translate(159.033203 0)"/>
      </g>
     </g>
    </g>
    <g id="xtick_7">
     <g id="line2d_7">
      <g>
       <use xlink:href="#m58a19b98c8" x="379.645313" y="244.078125" style="stroke: #000000; stroke-width: 0.8"/>
      </g>
     </g>
     <g id="text_7">
      <!-- 0.50 -->
      <g transform="translate(368.5125 258.676562) scale(0.1 -0.1)">
       <use xlink:href="#DejaVuSans-30"/>
       <use xlink:href="#DejaVuSans-2e" transform="translate(63.623047 0)"/>
       <use xlink:href="#DejaVuSans-35" transform="translate(95.410156 0)"/>
       <use xlink:href="#DejaVuSans-30" transform="translate(159.033203 0)"/>
      </g>
     </g>
    </g>
    <g id="xtick_8">
     <g id="line2d_8">
      <g>
       <use xlink:href="#m58a19b98c8" x="435.445312" y="244.078125" style="stroke: #000000; stroke-width: 0.8"/>
      </g>
     </g>
     <g id="text_8">
      <!-- 0.75 -->
      <g transform="translate(424.3125 258.676562) scale(0.1 -0.1)">
       <use xlink:href="#DejaVuSans-30"/>
       <use xlink:href="#DejaVuSans-2e" transform="translate(63.623047 0)"/>
       <use xlink:href="#DejaVuSans-37" transform="translate(95.410156 0)"/>
       <use xlink:href="#DejaVuSans-35" transform="translate(159.033203 0)"/>
      </g>
     </g>
    </g>
    <g id="xtick_9">
     <g id="line2d_9">
      <g>
       <use xlink:href="#m58a19b98c8" x="491.245313" y="244.078125" style="stroke: #000000; stroke-width: 0.8"/>
      </g>
     </g>
     <g id="text_9">
      <!-- 1.00 -->
      <g transform="translate(480.1125 258.676562) scale(0.1 -0.1)">
       <use xlink:href="#DejaVuSans-31"/>
       <use xlink:href="#DejaVuSans-2e" transform="translate(63.623047 0)"/>
       <use xlink:href="#DejaVuSans-30" transform="translate(95.410156 0)"/>
       <use xlink:href="#DejaVuSans-30" transform="translate(159.033203 0)"/>
      </g>
     </g>
    </g>
   </g>
   <g id="matplotlib.axis_2">
    <g id="ytick_1">
     <g id="line2d_10">
      <defs>
       <path id="mf72bf9a01a" d="M 0 0 
L -3.5 0 
" style="stroke: #000000; stroke-width: 0.8"/>
      </defs>
      <g>
       <use xlink:href="#mf72bf9a01a" x="44.845313" y="239.355408" style="stroke: #000000; stroke-width: 0.8"/>
      </g>
     </g>
     <g id="text_10">
      <!-- −0.20 -->
      <g transform="translate(7.2 243.154627) scale(0.1 -0.1)">
       <use xlink:href="#DejaVuSans-2212"/>
       <use xlink:href="#DejaVuSans-30" transform="translate(83.789062 0)"/>
       <use xlink:href="#DejaVuSans-2e" transform="translate(147.412109 0)"/>
       <use xlink:href="#DejaVuSans-32" transform="translate(179.199219 0)"/>
       <use xlink:href="#DejaVuSans-30" transform="translate(242.822266 0)"/>
      </g>
     </g>
    </g>
    <g id="ytick_2">
     <g id="line2d_11">
      <g>
       <use xlink:href="#mf72bf9a01a" x="44.845313" y="212.816088" style="stroke: #000000; stroke-width: 0.8"/>
      </g>
     </g>
     <g id="text_11">
      <!-- −0.15 -->
      <g transform="translate(7.2 216.615306) scale(0.1 -0.1)">
       <use xlink:href="#DejaVuSans-2212"/>
       <use xlink:href="#DejaVuSans-30" transform="translate(83.789062 0)"/>
       <use xlink:href="#DejaVuSans-2e" transform="translate(147.412109 0)"/>
       <use xlink:href="#DejaVuSans-31" transform="translate(179.199219 0)"/>
       <use xlink:href="#DejaVuSans-35" transform="translate(242.822266 0)"/>
      </g>
     </g>
    </g>
    <g id="ytick_3">
     <g id="line2d_12">
      <g>
       <use xlink:href="#mf72bf9a01a" x="44.845313" y="186.276767" style="stroke: #000000; stroke-width: 0.8"/>
      </g>
     </g>
     <g id="text_12">
      <!-- −0.10 -->
      <g transform="translate(7.2 190.075985) scale(0.1 -0.1)">
       <use xlink:href="#DejaVuSans-2212"/>
       <use xlink:href="#DejaVuSans-30" transform="translate(83.789062 0)"/>
       <use xlink:href="#DejaVuSans-2e" transform="translate(147.412109 0)"/>
       <use xlink:href="#DejaVuSans-31" transform="translate(179.199219 0)"/>
       <use xlink:href="#DejaVuSans-30" transform="translate(242.822266 0)"/>
      </g>
     </g>
    </g>
    <g id="ytick_4">
     <g id="line2d_13">
      <g>
       <use xlink:href="#mf72bf9a01a" x="44.845313" y="159.737446" style="stroke: #000000; stroke-width: 0.8"/>
      </g>
     </g>
     <g id="text_13">
      <!-- −0.05 -->
      <g transform="translate(7.2 163.536665) scale(0.1 -0.1)">
       <use xlink:href="#DejaVuSans-2212"/>
       <use xlink:href="#DejaVuSans-30" transform="translate(83.789062 0)"/>
       <use xlink:href="#DejaVuSans-2e" transform="translate(147.412109 0)"/>
       <use xlink:href="#DejaVuSans-30" transform="translate(179.199219 0)"/>
       <use xlink:href="#DejaVuSans-35" transform="translate(242.822266 0)"/>
      </g>
     </g>
    </g>
    <g id="ytick_5">
     <g id="line2d_14">
      <g>
       <use xlink:href="#mf72bf9a01a" x="44.845313" y="133.198125" style="stroke: #000000; stroke-width: 0.8"/>
      </g>
     </g>
     <g id="text_14">
      <!-- 0.00 -->
      <g transform="translate(15.579688 136.997344) scale(0.1 -0.1)">
       <use xlink:href="#DejaVuSans-30"/>
       <use xlink:href="#DejaVuSans-2e" transform="translate(63.623047 0)"/>
       <use xlink:href="#DejaVuSans-30" transform="translate(95.410156 0)"/>
       <use xlink:href="#DejaVuSans-30" transform="translate(159.033203 0)"/>
      </g>
     </g>
    </g>
    <g id="ytick_6">
     <g id="line2d_15">
      <g>
       <use xlink:href="#mf72bf9a01a" x="44.845313" y="106.658804" style="stroke: #000000; stroke-width: 0.8"/>
      </g>
     </g>
     <g id="text_15">
      <!-- 0.05 -->
      <g transform="translate(15.579688 110.458023) scale(0.1 -0.1)">
       <use xlink:href="#DejaVuSans-30"/>
       <use xlink:href="#DejaVuSans-2e" transform="translate(63.623047 0)"/>
       <use xlink:href="#DejaVuSans-30" transform="translate(95.410156 0)"/>
       <use xlink:href="#DejaVuSans-35" transform="translate(159.033203 0)"/>
      </g>
     </g>
    </g>
    <g id="ytick_7">
     <g id="line2d_16">
      <g>
       <use xlink:href="#mf72bf9a01a" x="44.845313" y="80.119483" style="stroke: #000000; stroke-width: 0.8"/>
      </g>
     </g>
     <g id="text_16">
      <!-- 0.10 -->
      <g transform="translate(15.579688 83.918702) scale(0.1 -0.1)">
       <use xlink:href="#DejaVuSans-30"/>
       <use xlink:href="#DejaVuSans-2e" transform="translate(63.623047 0)"/>
       <use xlink:href="#DejaVuSans-31" transform="translate(95.410156 0)"/>
       <use xlink:href="#DejaVuSans-30" transform="translate(159.033203 0)"/>
      </g>
     </g>
    </g>
    <g id="ytick_8">
     <g id="line2d_17">
      <g>
       <use xlink:href="#mf72bf9a01a" x="44.845313" y="53.580162" style="stroke: #000000; stroke-width: 0.8"/>
      </g>
     </g>
     <g id="text_17">
      <!-- 0.15 -->
      <g transform="translate(15.579688 57.379381) scale(0.1 -0.1)">
       <use xlink:href="#DejaVuSans-30"/>
       <use xlink:href="#DejaVuSans-2e" transform="translate(63.623047 0)"/>
       <use xlink:href="#DejaVuSans-31" transform="translate(95.410156 0)"/>
       <use xlink:href="#DejaVuSans-35" transform="translate(159.033203 0)"/>
      </g>
     </g>
    </g>
    <g id="ytick_9">
     <g id="line2d_18">
      <g>
       <use xlink:href="#mf72bf9a01a" x="44.845313" y="27.040842" style="stroke: #000000; stroke-width: 0.8"/>
      </g>
     </g>
     <g id="text_18">
      <!-- 0.20 -->
      <g transform="translate(15.579688 30.84006) scale(0.1 -0.1)">
       <use xlink:href="#DejaVuSans-30"/>
       <use xlink:href="#DejaVuSans-2e" transform="translate(63.623047 0)"/>
       <use xlink:href="#DejaVuSans-32" transform="translate(95.410156 0)"/>
       <use xlink:href="#DejaVuSans-30" transform="translate(159.033203 0)"/>
      </g>
     </g>
    </g>
   </g>
   <g id="line2d_19">
    <path d="M 44.845313 133.198125 
L 47.077313 108.080621 
L 49.309313 84.541342 
L 51.541313 64.059347 
L 53.773313 47.921596 
L 56.005313 37.142084 
L 58.237313 32.398125 
L 60.469313 33.987801 
L 62.701313 41.811227 
L 64.933313 55.376828 
L 67.165313 73.832227 
L 69.397313 96.017803 
L 76.093313 170.378447 
L 78.325313 192.564023 
L 80.557313 211.019422 
L 82.789313 224.585023 
L 85.021313 232.408449 
L 87.253313 233.998125 
L 89.485313 229.254166 
L 91.717313 218.474654 
L 93.949313 202.336903 
L 96.181313 181.854908 
L 98.413313 158.315629 
L 102.877313 108.080621 
L 105.109313 84.541342 
L 107.341313 64.059347 
L 109.573313 47.921596 
L 111.805313 37.142084 
L 114.037313 32.398125 
L 116.269313 33.987801 
L 118.501313 41.811227 
L 120.733313 55.376828 
L 122.965313 73.832227 
L 125.197313 96.017803 
L 131.893313 170.378447 
L 134.125313 192.564023 
L 136.357313 211.019422 
L 138.589313 224.585023 
L 140.821313 232.408449 
L 143.053313 233.998125 
L 145.285313 229.254166 
L 147.517313 218.474654 
L 149.749313 202.336903 
L 151.981313 181.854908 
L 154.213313 158.315629 
L 158.677313 108.080621 
L 160.909313 84.541342 
L 163.141313 64.059347 
L 165.373313 47.921596 
L 167.605313 37.142084 
L 169.837313 32.398125 
L 172.069313 33.987801 
L 174.301313 41.811227 
L 176.533313 55.376828 
L 178.765313 73.832227 
L 180.997313 96.017803 
L 187.693313 170.378447 
L 189.925313 192.564023 
L 192.157313 211.019422 
L 194.389313 224.585023 
L 196.621313 232.408449 
L 198.853313 233.998125 
L 201.085313 229.254166 
L 203.317313 218.474654 
L 205.549313 202.336903 
L 207.781313 181.854908 
L 210.013313 158.315629 
L 214.477313 108.080621 
L 216.709313 84.541342 
L 218.941313 64.059347 
L 221.173313 47.921596 
L 223.405313 37.142084 
L 225.637313 32.398125 
L 227.869313 33.987801 
L 230.101313 41.811227 
L 232.333313 55.376828 
L 234.565313 73.832227 
L 236.797313 96.017803 
L 243.493313 170.378447 
L 245.725313 192.564023 
L 247.957313 211.019422 
L 250.189313 224.585023 
L 252.421313 232.408449 
L 254.653313 233.998125 
L 256.885313 229.254166 
L 259.117313 218.474654 
L 261.349313 202.336903 
L 263.581313 181.854908 
L 265.813313 158.315629 
L 270.277313 108.080621 
L 272.509313 84.541342 
L 274.741313 64.059347 
L 276.973313 47.921596 
L 279.205313 37.142084 
L 281.437313 32.398125 
L 283.669313 33.987801 
L 285.901313 41.811227 
L 288.133313 55.376828 
L 290.365313 73.832227 
L 292.597313 96.017803 
L 299.293313 170.378447 
L 301.525313 192.564023 
L 303.757313 211.019422 
L 305.989313 224.585023 
L 308.221313 232.408449 
L 310.453313 233.998125 
L 312.685313 229.254166 
L 314.917313 218.474654 
L 317.149313 202.336903 
L 319.381313 181.854908 
L 321.613313 158.315629 
L 326.077313 108.080621 
L 328.309313 84.541342 
L 330.541313 64.059347 
L 332.773313 47.921596 
L 335.005313 37.142084 
L 337.237313 32.398125 
L 339.469313 33.987801 
L 341.701313 41.811227 
L 343.933313 55.376828 
L 346.165313 73.832227 
L 348.397313 96.017803 
L 355.093313 170.378447 
L 357.325313 192.564023 
L 359.557313 211.019422 
L 361.789313 224.585023 
L 364.021313 232.408449 
L 366.253313 233.998125 
L 368.485313 229.254166 
L 370.717313 218.474654 
L 372.949313 202.336903 
L 375.181313 181.854908 
L 377.413313 158.315629 
L 381.877313 108.080621 
L 384.109313 84.541342 
L 386.341313 64.059347 
L 388.573313 47.921596 
L 390.805313 37.142084 
L 393.037313 32.398125 
L 395.269313 33.987801 
L 397.501313 41.811227 
L 399.733313 55.376828 
L 401.965313 73.832227 
L 404.197313 96.017803 
L 410.893313 170.378447 
L 413.125313 192.564023 
L 415.357313 211.019422 
L 417.589313 224.585023 
L 419.821313 232.408449 
L 422.053313 233.998125 
L 424.285313 229.254166 
L 426.517313 218.474654 
L 428.749313 202.336903 
L 430.981313 181.854908 
L 433.213313 158.315629 
L 437.677313 108.080621 
L 439.909313 84.541342 
L 442.141313 64.059347 
L 444.373313 47.921596 
L 446.605313 37.142084 
L 448.837313 32.398125 
L 451.069313 33.987801 
L 453.301313 41.811227 
L 455.533313 55.376828 
L 457.765313 73.832227 
L 459.997313 96.017803 
L 466.693313 170.378447 
L 468.925313 192.564023 
L 471.157313 211.019422 
L 473.389313 224.585023 
L 475.621313 232.408449 
L 477.853313 233.998125 
L 480.085313 229.254166 
L 482.317313 218.474654 
L 484.549313 202.336903 
L 486.781313 181.854908 
L 489.013313 158.315629 
L 491.245313 133.198125 
L 491.245313 133.198125 
" clip-path="url(#p37e155a24b)" style="fill: none; stroke: #1f77b4; stroke-width: 1.5; stroke-linecap: square"/>
   </g>
   <g id="line2d_20">
    <defs>
     <path id="ma61731c315" d="M 0 3 
C 0.795609 3 1.55874 2.683901 2.12132 2.12132 
C 2.683901 1.55874 3 0.795609 3 0 
C 3 -0.795609 2.683901 -1.55874 2.12132 -2.12132 
C 1.55874 -2.683901 0.795609 -3 0 -3 
C -0.795609 -3 -1.55874 -2.683901 -2.12132 -2.12132 
C -2.683901 -1.55874 -3 -0.795609 -3 0 
C -3 0.795609 -2.683901 1.55874 -2.12132 2.12132 
C -1.55874 2.683901 -0.795609 3 0 3 
z
" style="stroke: #ff7f0e"/>
    </defs>
    <g clip-path="url(#p37e155a24b)">
     <use xlink:href="#ma61731c315" x="44.845313" y="133.198125" style="fill: #ff7f0e; stroke: #ff7f0e"/>
     <use xlink:href="#ma61731c315" x="45.1512" y="129.720039" style="fill: #ff7f0e; stroke: #ff7f0e"/>
     <use xlink:href="#ma61731c315" x="46.068025" y="119.336453" style="fill: #ff7f0e; stroke: #ff7f0e"/>
     <use xlink:href="#ma61731c315" x="47.593275" y="102.442656" style="fill: #ff7f0e; stroke: #ff7f0e"/>
     <use xlink:href="#ma61731c315" x="49.722768" y="80.47506" style="fill: #ff7f0e; stroke: #ff7f0e"/>
     <use xlink:href="#ma61731c315" x="52.450668" y="56.895774" style="fill: #ff7f0e; stroke: #ff7f0e"/>
     <use xlink:href="#ma61731c315" x="55.769498" y="38.004584" style="fill: #ff7f0e; stroke: #ff7f0e"/>
     <use xlink:href="#ma61731c315" x="59.670161" y="32.688486" style="fill: #ff7f0e; stroke: #ff7f0e"/>
     <use xlink:href="#ma61731c315" x="64.141966" y="49.956507" style="fill: #ff7f0e; stroke: #ff7f0e"/>
     <use xlink:href="#ma61731c315" x="69.172656" y="93.65442" style="fill: #ff7f0e; stroke: #ff7f0e"/>
     <use xlink:href="#ma61731c315" x="74.748442" y="155.786468" style="fill: #ff7f0e; stroke: #ff7f0e"/>
     <use xlink:href="#ma61731c315" x="80.854042" y="213.126648" style="fill: #ff7f0e; stroke: #ff7f0e"/>
     <use xlink:href="#ma61731c315" x="87.472719" y="233.810702" style="fill: #ff7f0e; stroke: #ff7f0e"/>
     <use xlink:href="#ma61731c315" x="94.586334" y="196.882511" style="fill: #ff7f0e; stroke: #ff7f0e"/>
     <use xlink:href="#ma61731c315" x="102.175387" y="115.882984" style="fill: #ff7f0e; stroke: #ff7f0e"/>
     <use xlink:href="#ma61731c315" x="110.219079" y="44.215236" style="fill: #ff7f0e; stroke: #ff7f0e"/>
     <use xlink:href="#ma61731c315" x="118.695361" y="42.772602" style="fill: #ff7f0e; stroke: #ff7f0e"/>
     <use xlink:href="#ma61731c315" x="127.581001" y="122.252829" style="fill: #ff7f0e; stroke: #ff7f0e"/>
     <use xlink:href="#ma61731c315" x="136.851644" y="214.480574" style="fill: #ff7f0e; stroke: #ff7f0e"/>
     <use xlink:href="#ma61731c315" x="146.48188" y="224.191139" style="fill: #ff7f0e; stroke: #ff7f0e"/>
     <use xlink:href="#ma61731c315" x="156.445312" y="133.198125" style="fill: #ff7f0e; stroke: #ff7f0e"/>
     <use xlink:href="#ma61731c315" x="166.714633" y="40.749695" style="fill: #ff7f0e; stroke: #ff7f0e"/>
     <use xlink:href="#ma61731c315" x="177.261694" y="60.912717" style="fill: #ff7f0e; stroke: #ff7f0e"/>
     <use xlink:href="#ma61731c315" x="188.057586" y="174.197953" style="fill: #ff7f0e; stroke: #ff7f0e"/>
     <use xlink:href="#ma61731c315" x="199.072719" y="233.810702" style="fill: #ff7f0e; stroke: #ff7f0e"/>
     <use xlink:href="#ma61731c315" x="210.276902" y="155.401449" style="fill: #ff7f0e; stroke: #ff7f0e"/>
     <use xlink:href="#ma61731c315" x="221.639423" y="45.199941" style="fill: #ff7f0e; stroke: #ff7f0e"/>
     <use xlink:href="#ma61731c315" x="233.12914" y="61.450506" style="fill: #ff7f0e; stroke: #ff7f0e"/>
     <use xlink:href="#ma61731c315" x="244.714559" y="182.900357" style="fill: #ff7f0e; stroke: #ff7f0e"/>
     <use xlink:href="#ma61731c315" x="256.363927" y="230.919958" style="fill: #ff7f0e; stroke: #ff7f0e"/>
     <use xlink:href="#ma61731c315" x="268.045313" y="133.198125" style="fill: #ff7f0e; stroke: #ff7f0e"/>
     <use xlink:href="#ma61731c315" x="279.726698" y="35.476292" style="fill: #ff7f0e; stroke: #ff7f0e"/>
     <use xlink:href="#ma61731c315" x="291.376066" y="83.495893" style="fill: #ff7f0e; stroke: #ff7f0e"/>
     <use xlink:href="#ma61731c315" x="302.961485" y="204.945744" style="fill: #ff7f0e; stroke: #ff7f0e"/>
     <use xlink:href="#ma61731c315" x="314.451202" y="221.196309" style="fill: #ff7f0e; stroke: #ff7f0e"/>
     <use xlink:href="#ma61731c315" x="325.813723" y="110.994801" style="fill: #ff7f0e; stroke: #ff7f0e"/>
     <use xlink:href="#ma61731c315" x="337.017906" y="32.585548" style="fill: #ff7f0e; stroke: #ff7f0e"/>
     <use xlink:href="#ma61731c315" x="348.033039" y="92.198297" style="fill: #ff7f0e; stroke: #ff7f0e"/>
     <use xlink:href="#ma61731c315" x="358.828931" y="205.483533" style="fill: #ff7f0e; stroke: #ff7f0e"/>
     <use xlink:href="#ma61731c315" x="369.375992" y="225.646555" style="fill: #ff7f0e; stroke: #ff7f0e"/>
     <use xlink:href="#ma61731c315" x="379.645312" y="133.198125" style="fill: #ff7f0e; stroke: #ff7f0e"/>
     <use xlink:href="#ma61731c315" x="389.608745" y="42.205111" style="fill: #ff7f0e; stroke: #ff7f0e"/>
     <use xlink:href="#ma61731c315" x="399.238981" y="51.915676" style="fill: #ff7f0e; stroke: #ff7f0e"/>
     <use xlink:href="#ma61731c315" x="408.509624" y="144.143421" style="fill: #ff7f0e; stroke: #ff7f0e"/>
     <use xlink:href="#ma61731c315" x="417.395264" y="223.623648" style="fill: #ff7f0e; stroke: #ff7f0e"/>
     <use xlink:href="#ma61731c315" x="425.871546" y="222.181014" style="fill: #ff7f0e; stroke: #ff7f0e"/>
     <use xlink:href="#ma61731c315" x="433.915238" y="150.513266" style="fill: #ff7f0e; stroke: #ff7f0e"/>
     <use xlink:href="#ma61731c315" x="441.504291" y="69.513739" style="fill: #ff7f0e; stroke: #ff7f0e"/>
     <use xlink:href="#ma61731c315" x="448.617906" y="32.585548" style="fill: #ff7f0e; stroke: #ff7f0e"/>
     <use xlink:href="#ma61731c315" x="455.236583" y="53.269602" style="fill: #ff7f0e; stroke: #ff7f0e"/>
     <use xlink:href="#ma61731c315" x="461.342183" y="110.609782" style="fill: #ff7f0e; stroke: #ff7f0e"/>
     <use xlink:href="#ma61731c315" x="466.917969" y="172.74183" style="fill: #ff7f0e; stroke: #ff7f0e"/>
     <use xlink:href="#ma61731c315" x="471.948659" y="216.439743" style="fill: #ff7f0e; stroke: #ff7f0e"/>
     <use xlink:href="#ma61731c315" x="476.420464" y="233.707764" style="fill: #ff7f0e; stroke: #ff7f0e"/>
     <use xlink:href="#ma61731c315" x="480.321127" y="228.391666" style="fill: #ff7f0e; stroke: #ff7f0e"/>
     <use xlink:href="#ma61731c315" x="483.639957" y="209.500476" style="fill: #ff7f0e; stroke: #ff7f0e"/>
     <use xlink:href="#ma61731c315" x="486.367857" y="185.92119" style="fill: #ff7f0e; stroke: #ff7f0e"/>
     <use xlink:href="#ma61731c315" x="488.49735" y="163.953594" style="fill: #ff7f0e; stroke: #ff7f0e"/>
     <use xlink:href="#ma61731c315" x="490.0226" y="147.059797" style="fill: #ff7f0e; stroke: #ff7f0e"/>
     <use xlink:href="#ma61731c315" x="490.939425" y="136.676211" style="fill: #ff7f0e; stroke: #ff7f0e"/>
     <use xlink:href="#ma61731c315" x="491.245313" y="133.198125" style="fill: #ff7f0e; stroke: #ff7f0e"/>
    </g>
   </g>
   <g id="patch_3">
    <path d="M 44.845313 244.078125 
L 44.845313 22.318125 
" style="fill: none; stroke: #000000; stroke-width: 0.8; stroke-linejoin: miter; stroke-linecap: square"/>
   </g>
   <g id="patch_4">
    <path d="M 491.245312 244.078125 
L 491.245312 22.318125 
" style="fill: none; stroke: #000000; stroke-width: 0.8; stroke-linejoin: miter; stroke-linecap: square"/>
   </g>
   <g id="patch_5">
    <path d="M 44.845313 244.078125 
L 491.245313 244.078125 
" style="fill: none; stroke: #000000; stroke-width: 0.8; stroke-linejoin: miter; stroke-linecap: square"/>
   </g>
   <g id="patch_6">
    <path d="M 44.845313 22.318125 
L 491.245313 22.318125 
" style="fill: none; stroke: #000000; stroke-width: 0.8; stroke-linejoin: miter; stroke-linecap: square"/>
   </g>
   <g id="text_19">
    <!-- eigenmode N/4 -->
    <g transform="translate(222.132188 16.318125) scale(0.12 -0.12)">
     <defs>
      <path id="DejaVuSans-65" d="M 3597 1894 
L 3597 1613 
L 953 1613 
Q 991 1019 1311 708 
Q 1631 397 2203 397 
Q 2534 397 2845 478 
Q 3156 559 3463 722 
L 3463 178 
Q 3153 47 2828 -22 
Q 2503 -91 2169 -91 
Q 1331 -91 842 396 
Q 353 884 353 1716 
Q 353 2575 817 3079 
Q 1281 3584 2069 3584 
Q 2775 3584 3186 3129 
Q 3597 2675 3597 1894 
z
M 3022 2063 
Q 3016 2534 2758 2815 
Q 2500 3097 2075 3097 
Q 1594 3097 1305 2825 
Q 1016 2553 972 2059 
L 3022 2063 
z
" transform="scale(0.015625)"/>
      <path id="DejaVuSans-69" d="M 603 3500 
L 1178 3500 
L 1178 0 
L 603 0 
L 603 3500 
z
M 603 4863 
L 1178 4863 
L 1178 4134 
L 603 4134 
L 603 4863 
z
" transform="scale(0.015625)"/>
      <path id="DejaVuSans-67" d="M 2906 1791 
Q 2906 2416 2648 2759 
Q 2391 3103 1925 3103 
Q 1463 3103 1205 2759 
Q 947 2416 947 1791 
Q 947 1169 1205 825 
Q 1463 481 1925 481 
Q 2391 481 2648 825 
Q 2906 1169 2906 1791 
z
M 3481 434 
Q 3481 -459 3084 -895 
Q 2688 -1331 1869 -1331 
Q 1566 -1331 1297 -1286 
Q 1028 -1241 775 -1147 
L 775 -588 
Q 1028 -725 1275 -790 
Q 1522 -856 1778 -856 
Q 2344 -856 2625 -561 
Q 2906 -266 2906 331 
L 2906 616 
Q 2728 306 2450 153 
Q 2172 0 1784 0 
Q 1141 0 747 490 
Q 353 981 353 1791 
Q 353 2603 747 3093 
Q 1141 3584 1784 3584 
Q 2172 3584 2450 3431 
Q 2728 3278 2906 2969 
L 2906 3500 
L 3481 3500 
L 3481 434 
z
" transform="scale(0.015625)"/>
      <path id="DejaVuSans-6e" d="M 3513 2113 
L 3513 0 
L 2938 0 
L 2938 2094 
Q 2938 2591 2744 2837 
Q 2550 3084 2163 3084 
Q 1697 3084 1428 2787 
Q 1159 2491 1159 1978 
L 1159 0 
L 581 0 
L 581 3500 
L 1159 3500 
L 1159 2956 
Q 1366 3272 1645 3428 
Q 1925 3584 2291 3584 
Q 2894 3584 3203 3211 
Q 3513 2838 3513 2113 
z
" transform="scale(0.015625)"/>
      <path id="DejaVuSans-6d" d="M 3328 2828 
Q 3544 3216 3844 3400 
Q 4144 3584 4550 3584 
Q 5097 3584 5394 3201 
Q 5691 2819 5691 2113 
L 5691 0 
L 5113 0 
L 5113 2094 
Q 5113 2597 4934 2840 
Q 4756 3084 4391 3084 
Q 3944 3084 3684 2787 
Q 3425 2491 3425 1978 
L 3425 0 
L 2847 0 
L 2847 2094 
Q 2847 2600 2669 2842 
Q 2491 3084 2119 3084 
Q 1678 3084 1418 2786 
Q 1159 2488 1159 1978 
L 1159 0 
L 581 0 
L 581 3500 
L 1159 3500 
L 1159 2956 
Q 1356 3278 1631 3431 
Q 1906 3584 2284 3584 
Q 2666 3584 2933 3390 
Q 3200 3197 3328 2828 
z
" transform="scale(0.015625)"/>
      <path id="DejaVuSans-6f" d="M 1959 3097 
Q 1497 3097 1228 2736 
Q 959 2375 959 1747 
Q 959 1119 1226 758 
Q 1494 397 1959 397 
Q 2419 397 2687 759 
Q 2956 1122 2956 1747 
Q 2956 2369 2687 2733 
Q 2419 3097 1959 3097 
z
M 1959 3584 
Q 2709 3584 3137 3096 
Q 3566 2609 3566 1747 
Q 3566 888 3137 398 
Q 2709 -91 1959 -91 
Q 1206 -91 779 398 
Q 353 888 353 1747 
Q 353 2609 779 3096 
Q 1206 3584 1959 3584 
z
" transform="scale(0.015625)"/>
      <path id="DejaVuSans-64" d="M 2906 2969 
L 2906 4863 
L 3481 4863 
L 3481 0 
L 2906 0 
L 2906 525 
Q 2725 213 2448 61 
Q 2172 -91 1784 -91 
Q 1150 -91 751 415 
Q 353 922 353 1747 
Q 353 2572 751 3078 
Q 1150 3584 1784 3584 
Q 2172 3584 2448 3432 
Q 2725 3281 2906 2969 
z
M 947 1747 
Q 947 1113 1208 752 
Q 1469 391 1925 391 
Q 2381 391 2643 752 
Q 2906 1113 2906 1747 
Q 2906 2381 2643 2742 
Q 2381 3103 1925 3103 
Q 1469 3103 1208 2742 
Q 947 2381 947 1747 
z
" transform="scale(0.015625)"/>
      <path id="DejaVuSans-20" transform="scale(0.015625)"/>
      <path id="DejaVuSans-4e" d="M 628 4666 
L 1478 4666 
L 3547 763 
L 3547 4666 
L 4159 4666 
L 4159 0 
L 3309 0 
L 1241 3903 
L 1241 0 
L 628 0 
L 628 4666 
z
" transform="scale(0.015625)"/>
      <path id="DejaVuSans-2f" d="M 1625 4666 
L 2156 4666 
L 531 -594 
L 0 -594 
L 1625 4666 
z
" transform="scale(0.015625)"/>
      <path id="DejaVuSans-34" d="M 2419 4116 
L 825 1625 
L 2419 1625 
L 2419 4116 
z
M 2253 4666 
L 3047 4666 
L 3047 1625 
L 3713 1625 
L 3713 1100 
L 3047 1100 
L 3047 0 
L 2419 0 
L 2419 1100 
L 313 1100 
L 313 1709 
L 2253 4666 
z
" transform="scale(0.015625)"/>
     </defs>
     <use xlink:href="#DejaVuSans-65"/>
     <use xlink:href="#DejaVuSans-69" transform="translate(61.523438 0)"/>
     <use xlink:href="#DejaVuSans-67" transform="translate(89.306641 0)"/>
     <use xlink:href="#DejaVuSans-65" transform="translate(152.783203 0)"/>
     <use xlink:href="#DejaVuSans-6e" transform="translate(214.306641 0)"/>
     <use xlink:href="#DejaVuSans-6d" transform="translate(277.685547 0)"/>
     <use xlink:href="#DejaVuSans-6f" transform="translate(375.097656 0)"/>
     <use xlink:href="#DejaVuSans-64" transform="translate(436.279297 0)"/>
     <use xlink:href="#DejaVuSans-65" transform="translate(499.755859 0)"/>
     <use xlink:href="#DejaVuSans-20" transform="translate(561.279297 0)"/>
     <use xlink:href="#DejaVuSans-4e" transform="translate(593.066406 0)"/>
     <use xlink:href="#DejaVuSans-2f" transform="translate(667.871094 0)"/>
     <use xlink:href="#DejaVuSans-34" transform="translate(701.5625 0)"/>
    </g>
   </g>
  </g>
 </g>
 <defs>
  <clipPath id="p37e155a24b">
   <rect x="44.845313" y="22.318125" width="446.4" height="221.76"/>
  </clipPath>
 </defs>
</svg>